<svg version="1.1" viewBox="0.0 0.0 226.8740157480315 100.0" fill="none" stroke="none" stroke-linecap="square" stroke-miterlimit="10" xmlns:xlink="http://www.w3.org/1999/xlink" xmlns="http://www.w3.org/2000/svg"><clipPath id="p.0"><path d="m0 0l226.87401 0l0 100.0l-226.87401 0l0 -100.0z" clip-rule="nonzero"/></clipPath><g clip-path="url(#p.0)"><path fill="#000000" fill-opacity="0.0" d="m0 0l226.87401 0l0 100.0l-226.87401 0z" fill-rule="evenodd"/><path fill="#c9daf8" d="m135.34645 36.29408l0 0c0 -3.1659164 2.5664825 -5.732399 5.7324066 -5.732399l40.629684 0c1.5203247 0 2.9783936 0.6039467 4.053421 1.6789818c1.0750275 1.0750313 1.6789856 2.5330887 1.6789856 4.053417l0 22.928905c0 3.1659126 -2.5664825 5.732399 -5.7324066 5.732399l-40.629684 0c-3.165924 0 -5.7324066 -2.5664864 -5.7324066 -5.732399z" fill-rule="evenodd"/><path stroke="#000000" stroke-width="4.0" stroke-linejoin="round" stroke-linecap="butt" d="m135.34645 36.29408l0 0c0 -3.1659164 2.5664825 -5.732399 5.7324066 -5.732399l40.629684 0c1.5203247 0 2.9783936 0.6039467 4.053421 1.6789818c1.0750275 1.0750313 1.6789856 2.5330887 1.6789856 4.053417l0 22.928905c0 3.1659126 -2.5664825 5.732399 -5.7324066 5.732399l-40.629684 0c-3.165924 0 -5.7324066 -2.5664864 -5.7324066 -5.732399z" fill-rule="evenodd"/><path fill="#000000" d="m154.03943 47.491028l-0.140625 -0.6875q0.46875 -0.375 0.921875 -0.578125q0.453125 -0.21875 1.0625 -0.3125q0.625 -0.09375 1.59375 -0.09375l6.53125 0l0.078125 1.34375l-2.40625 -0.078125l0.140625 4.984375q0.046875 0.9375 0.3125 1.25q0.28125 0.3125 0.828125 0.3125q0.1875 0 0.40625 -0.046875q0.234375 -0.046875 0.421875 -0.125l0.140625 0.46875q-0.328125 0.5 -0.71875 0.75q-0.375 0.25 -0.9375 0.25q-0.96875 0 -1.4375 -0.5625q-0.453125 -0.578125 -0.453125 -1.734375q0 -1.15625 0.0625 -2.640625q0.078125 -1.484375 0.140625 -2.921875l-3.0 0q-0.015625 1.421875 -0.046875 2.84375q-0.03125 1.40625 -0.125 2.765625q-0.09375 1.203125 -0.578125 1.734375q-0.484375 0.515625 -1.296875 0.515625q-0.5 0 -0.828125 -0.25q-0.3125 -0.265625 -0.3125 -0.6875q0 -0.34375 0.09375 -0.53125q0.109375 -0.203125 0.296875 -0.34375q0.703125 -0.140625 1.640625 -0.234375q0.15625 -1.4375 0.21875 -2.875q0.0625 -1.453125 0.09375 -2.90625l-2.703125 0.390625zm11.781906 -0.921875l0.296875 -5.359375q0.21875 -0.15625 0.4375 -0.21875q0.234375 -0.0625 0.46875 -0.0625q0.4375 0 0.6875 0.28125q0.25 0.28125 0.25 0.6875q0 0.53125 -0.296875 1.453125q-0.28125 0.90625 -0.65625 2.0q-0.125 0.3125 -0.25 0.65625q-0.109375 0.328125 -0.234375 0.671875l-0.703125 -0.109375z" fill-rule="nonzero"/><path fill="#cccccc" d="m45.065617 36.29408l0 0c0 -3.1659164 2.5664825 -5.732399 5.732399 -5.732399l40.62969 0c1.5203323 0 2.978386 0.6039467 4.053421 1.6789818c1.0750351 1.0750313 1.678978 2.5330887 1.678978 4.053417l0 22.928905c0 3.1659126 -2.5664825 5.732399 -5.732399 5.732399l-40.62969 0c-3.1659164 0 -5.732399 -2.5664864 -5.732399 -5.732399z" fill-rule="evenodd"/><path stroke="#000000" stroke-width="4.0" stroke-linejoin="round" stroke-linecap="butt" d="m45.065617 36.29408l0 0c0 -3.1659164 2.5664825 -5.732399 5.732399 -5.732399l40.62969 0c1.5203323 0 2.978386 0.6039467 4.053421 1.6789818c1.0750351 1.0750313 1.678978 2.5330887 1.678978 4.053417l0 22.928905c0 3.1659126 -2.5664825 5.732399 -5.732399 5.732399l-40.62969 0c-3.1659164 0 -5.732399 -2.5664864 -5.732399 -5.732399z" fill-rule="evenodd"/><path fill="#000000" d="m66.08128 47.491028l-0.140625 -0.6875q0.46875 -0.375 0.921875 -0.578125q0.453125 -0.21875 1.0625 -0.3125q0.625 -0.09375 1.59375 -0.09375l6.53125 0l0.078125 1.34375l-2.40625 -0.078125l0.140625 4.984375q0.046875 0.9375 0.3125 1.25q0.28125 0.3125 0.828125 0.3125q0.1875 0 0.40625 -0.046875q0.234375 -0.046875 0.421875 -0.125l0.140625 0.46875q-0.328125 0.5 -0.71875 0.75q-0.375 0.25 -0.9375 0.25q-0.96875 0 -1.4375 -0.5625q-0.453125 -0.578125 -0.453125 -1.734375q0 -1.15625 0.0625 -2.640625q0.078125 -1.484375 0.140625 -2.921875l-3.0 0q-0.015625 1.421875 -0.046875 2.84375q-0.03125 1.40625 -0.125 2.765625q-0.09375 1.203125 -0.578125 1.734375q-0.484375 0.515625 -1.296875 0.515625q-0.5 0 -0.828125 -0.25q-0.3125 -0.265625 -0.3125 -0.6875q0 -0.34375 0.09375 -0.53125q0.109375 -0.203125 0.296875 -0.34375q0.703125 -0.140625 1.640625 -0.234375q0.15625 -1.4375 0.21875 -2.875q0.0625 -1.453125 0.09375 -2.90625l-2.703125 0.390625z" fill-rule="nonzero"/><defs><linearGradient id="p.1" gradientUnits="userSpaceOnUse" gradientTransform="matrix(5.075803338148461 0.0 0.0 5.075803338148461 0.0 0.0)" spreadMethod="pad" x1="20.36578183302538" y1="10.820727450498644" x2="25.44158517117384" y2="10.820727450498644"><stop offset="0.0" stop-color="#bfbfbf"/><stop offset="1.0" stop-color="#cfe2f3"/></linearGradient></defs><path fill="url(#p.1)" d="m103.3727 44.175854l18.598427 0l0 -3.5826797l7.1653595 7.1653557l-7.1653595 7.1653557l0 -3.5826797l-18.598427 0z" fill-rule="evenodd"/><path stroke="#000000" stroke-width="4.0" stroke-linejoin="round" stroke-linecap="butt" d="m103.3727 44.175854l18.598427 0l0 -3.5826797l7.1653595 7.1653557l-7.1653595 7.1653557l0 -3.5826797l-18.598427 0z" fill-rule="evenodd"/></g></svg>