<svg version="1.1" viewBox="0.0 0.0 868.3569553805775 504.03937007874015" fill="none" stroke="none" stroke-linecap="square" stroke-miterlimit="10" xmlns:xlink="http://www.w3.org/1999/xlink" xmlns="http://www.w3.org/2000/svg"><clipPath id="p.0"><path d="m0 0l868.35693 0l0 504.03937l-868.35693 0l0 -504.03937z" clip-rule="nonzero"/></clipPath><g clip-path="url(#p.0)"><path fill="#000000" fill-opacity="0.0" d="m0 0l868.35693 0l0 504.03937l-868.35693 0z" fill-rule="evenodd"/><path fill="#9a86c8" fill-opacity="0.462" d="m166.1098 32.131275l531.57965 0l0 0c69.63837 0 126.09143 96.571976 126.09143 215.69952c0 119.12758 -56.453064 215.69954 -126.09143 215.69954l-531.57965 0l0 0c-69.638374 0 -126.09143 -96.57196 -126.09143 -215.69954c0 -119.12755 56.453056 -215.69952 126.09143 -215.69952z" fill-rule="evenodd"/><path stroke="#ffffff" stroke-width="1.0" stroke-linejoin="round" stroke-linecap="butt" d="m166.1098 32.131275l531.57965 0l0 0c69.63837 0 126.09143 96.571976 126.09143 215.69952c0 119.12758 -56.453064 215.69954 -126.09143 215.69954l-531.57965 0l0 0c-69.638374 0 -126.09143 -96.57196 -126.09143 -215.69954c0 -119.12755 56.453056 -215.69952 126.09143 -215.69952z" fill-rule="evenodd"/><path fill="#b4a7d6" d="m283.80316 302.2021l0 0c0 -12.185028 9.87793 -22.062988 22.062988 -22.062988l0 0c5.851471 0 11.463257 2.3244934 15.600891 6.462097c4.1376038 4.1376343 6.462097 9.74942 6.462097 15.600891l0 0c0 12.185059 -9.87793 22.063019 -22.062988 22.063019l0 0c-12.185059 0 -22.062988 -9.87796 -22.062988 -22.063019z" fill-rule="evenodd"/><path stroke="#351c75" stroke-width="3.0" stroke-linejoin="round" stroke-linecap="butt" stroke-dasharray="24.0,9.0" d="m283.80316 302.2021l0 0c0 -12.185028 9.87793 -22.062988 22.062988 -22.062988l0 0c5.851471 0 11.463257 2.3244934 15.600891 6.462097c4.1376038 4.1376343 6.462097 9.74942 6.462097 15.600891l0 0c0 12.185059 -9.87793 22.063019 -22.062988 22.063019l0 0c-12.185059 0 -22.062988 -9.87796 -22.062988 -22.063019z" fill-rule="evenodd"/><path fill="#351c75" d="m299.71838 295.66397l0 -0.984375l6.75 0l0 0.984375l-2.109375 0.25l3.0625 5.125l3.203125 -5.078125l-2.046875 -0.296875l0 -0.984375l5.5 0l0 0.984375l-2.109375 0.265625l-3.9375 6.09375l4.5 7.5l2.078125 0.234375l0 0.984375l-6.796875 0l0 -0.984375l2.203125 -0.265625l-3.359375 -5.5625l-3.53125 5.5625l1.875 0.265625l0 0.984375l-5.5 0l0 -0.984375l2.28125 -0.28125l4.296875 -6.515625l-4.25 -7.046875l-2.109375 -0.25z" fill-rule="nonzero"/><path fill="#b4a7d6" d="m529.42255 268.86353l0 0c0 -12.185059 9.877991 -22.063004 22.062988 -22.063004l0 0c5.8515015 0 11.463318 2.3244934 15.600891 6.462097c4.1376343 4.137619 6.462158 9.749435 6.462158 15.600906l0 0c0 12.185059 -9.877991 22.062988 -22.06305 22.062988l0 0c-12.184998 0 -22.062988 -9.87793 -22.062988 -22.062988z" fill-rule="evenodd"/><path stroke="#351c75" stroke-width="3.0" stroke-linejoin="round" stroke-linecap="butt" stroke-dasharray="24.0,9.0" d="m529.42255 268.86353l0 0c0 -12.185059 9.877991 -22.063004 22.062988 -22.063004l0 0c5.8515015 0 11.463318 2.3244934 15.600891 6.462097c4.1376343 4.137619 6.462158 9.749435 6.462158 15.600906l0 0c0 12.185059 -9.877991 22.062988 -22.06305 22.062988l0 0c-12.184998 0 -22.062988 -9.87793 -22.062988 -22.062988z" fill-rule="evenodd"/><path fill="#351c75" d="m545.369 277.4035l0 -0.859375l9.0625 -14.0l-6.71875 0l-0.640625 3.078125l-1.46875 0l0.1875 -4.28125l11.3125 0l0 0.84375l-9.046875 14.015625l7.453125 0l0.65625 -3.0625l1.46875 0l-0.203125 4.265625l-12.0625 0z" fill-rule="nonzero"/><path fill="#b4a7d6" d="m389.7467 169.0105l0 0c0 -12.185059 9.87796 -22.062988 22.063019 -22.062988l0 0c5.851471 0 11.463257 2.3244781 15.600891 6.462097c4.1376038 4.137619 6.462097 9.74942 6.462097 15.600891l0 0c0 12.185059 -9.87796 22.062988 -22.062988 22.062988l0 0c-12.185059 0 -22.063019 -9.87793 -22.063019 -22.062988z" fill-rule="evenodd"/><path stroke="#351c75" stroke-width="3.0" stroke-linejoin="round" stroke-linecap="butt" stroke-dasharray="24.0,9.0" d="m389.7467 169.0105l0 0c0 -12.185059 9.87796 -22.062988 22.063019 -22.062988l0 0c5.851471 0 11.463257 2.3244781 15.600891 6.462097c4.1376038 4.137619 6.462097 9.74942 6.462097 15.600891l0 0c0 12.185059 -9.87796 22.062988 -22.062988 22.062988l0 0c-12.185059 0 -22.063019 -9.87793 -22.063019 -22.062988z" fill-rule="evenodd"/><path fill="#351c75" d="m405.5682 162.47237l0 -0.984375l6.765625 0l0 0.984375l-2.28125 0.265625l3.34375 7.28125l3.421875 -7.25l-2.15625 -0.296875l0 -0.984375l5.5 0l0 0.984375l-2.109375 0.3125l-4.078125 8.453125q0 1.390625 0 2.65625q0.015625 1.25 0.046875 2.40625l2.4375 0.265625l0 0.984375l-7.234375 0l0 -0.984375l2.4375 -0.265625q0.046875 -1.125 0.046875 -2.34375q0 -1.234375 0 -2.625l-4.25 -8.640625l-1.890625 -0.21875z" fill-rule="nonzero"/><path fill="#000000" fill-opacity="0.0" d="m396.20883 184.61139l-74.74017 101.98425" fill-rule="evenodd"/><path stroke="#351c75" stroke-width="3.0" stroke-linejoin="round" stroke-linecap="butt" d="m385.56873 199.12994l-64.10007 87.4657" fill-rule="evenodd"/><path stroke="#351c75" stroke-width="3.0" stroke-linecap="butt" d="m389.56555 202.05905l4.050812 -13.910217l-12.044403 8.052032z" fill-rule="evenodd"/><path fill="#000000" fill-opacity="0.0" d="m427.4106 184.61139l108.47244 68.66142" fill-rule="evenodd"/><path stroke="#351c75" stroke-width="3.0" stroke-linejoin="round" stroke-linecap="butt" d="m427.41058 184.61139l93.263306 59.034256" fill-rule="evenodd"/><path stroke="#351c75" stroke-width="3.0" stroke-linecap="butt" d="m518.0237 247.83255l14.1536255 3.0945892l-8.853149 -11.468399z" fill-rule="evenodd"/><path fill="#000000" fill-opacity="0.0" d="m313.6404 198.40945l44.126007 0l0 63.02362l-44.126007 0z" fill-rule="evenodd"/><path fill="#351c75" d="m330.6283 241.96945l0 -1.296875l2.84375 -0.5q0.03125 -1.4375 0.046875 -2.875q0.03125 -1.453125 0.03125 -2.890625l0 -7.625l-3.0 0l0 -1.59375l3.0625 -0.390625q0.25 -2.875 0.8125 -4.65625q0.5625 -1.78125 1.890625 -3.125q1.15625 -1.140625 2.40625 -1.578125q1.265625 -0.4375 2.484375 -0.4375q1.265625 0 2.234375 0.453125q0.96875 0.453125 1.234375 1.5q-0.046875 0.671875 -0.625 1.140625q-0.578125 0.46875 -1.578125 0.46875q-1.296875 0 -2.59375 -1.078125l-1.0 -0.78125q-0.15625 0.109375 -0.28125 0.21875q-0.125 0.09375 -0.234375 0.203125q-0.9375 0.9375 -1.421875 2.828125q-0.484375 1.890625 -0.40625 4.921875l4.96875 0l0 1.90625l-4.90625 0l0 7.625q0 1.4375 0.015625 2.859375q0.03125 1.421875 0.0625 2.859375l3.234375 0.546875l0 1.296875l-9.28125 0z" fill-rule="nonzero"/><path fill="#000000" fill-opacity="0.0" d="m466.90027 155.5433l44.125977 0l0 63.02362l-44.125977 0z" fill-rule="evenodd"/><path fill="#351c75" d="m488.1705 191.90018q1.734375 0 2.703125 -1.296875q0.96875 -1.296875 0.96875 -3.265625q0 -1.921875 -0.921875 -3.125q-0.90625 -1.203125 -2.609375 -1.203125q-1.6875 0 -2.65625 1.25q-0.96875 1.234375 -0.96875 3.21875q0 1.984375 0.90625 3.203125q0.921875 1.21875 2.578125 1.21875zm0.078125 1.4375q-1.40625 0 -2.671875 -0.390625q-0.890625 1.15625 -0.890625 2.296875q0 0.734375 0.40625 1.171875q0.421875 0.421875 1.671875 0.421875l4.71875 0q2.984375 0 4.390625 1.234375q1.40625 1.21875 1.40625 3.40625q0 1.546875 -1.0 2.984375q-0.984375 1.4375 -2.96875 2.34375q-1.96875 0.90625 -4.921875 0.90625q-3.921875 0 -5.6875 -1.234375q-1.765625 -1.21875 -1.765625 -3.125q0 -1.15625 0.765625 -2.15625q0.78125 -0.984375 2.765625 -1.953125q-2.375 -0.640625 -2.375 -2.734375q0 -0.859375 0.546875 -1.796875q0.5625 -0.9375 1.890625 -2.203125q-1.296875 -0.71875 -2.03125 -1.96875q-0.734375 -1.265625 -0.734375 -3.09375q0 -2.859375 1.84375 -4.375q1.859375 -1.53125 4.671875 -1.53125q2.84375 0 4.578125 1.40625l4.0625 -1.40625l0.53125 0.359375l0 2.265625l-3.515625 0q0.828125 1.328125 0.828125 3.28125q0 2.84375 -1.859375 4.375q-1.859375 1.515625 -4.65625 1.515625zm-4.359375 9.4375q0 1.765625 1.25 2.515625q1.265625 0.765625 3.390625 0.765625q2.953125 0 4.5 -1.0625q1.546875 -1.0625 1.546875 -2.578125q0 -1.1875 -0.828125 -2.0q-0.828125 -0.8125 -2.765625 -0.8125l-4.21875 0q-0.359375 0 -0.734375 -0.015625q-0.375 -0.015625 -0.734375 -0.046875q-0.765625 0.78125 -1.09375 1.546875q-0.3125 0.78125 -0.3125 1.6875z" fill-rule="nonzero"/><path fill="#000000" fill-opacity="0.0" d="m535.88464 284.46442l-207.96848 17.73227" fill-rule="evenodd"/><path stroke="#351c75" stroke-width="3.0" stroke-linejoin="round" stroke-linecap="butt" stroke-dasharray="24.0,9.0" d="m517.94977 285.9936l-190.0336 16.203094" fill-rule="evenodd"/><path stroke="#351c75" stroke-width="3.0" stroke-linecap="butt" d="m518.3707 290.9309l13.144104 -6.0939026l-13.986023 -3.7806702z" fill-rule="evenodd"/><path fill="#000000" fill-opacity="0.0" d="m358.10934 288.95917l137.07089 -8.818909l4.0629883 62.897644l-137.07086 8.818909z" fill-rule="evenodd"/><path fill="#351c75" d="m405.02917 322.37247q1.7308044 -0.11135864 2.6139526 -1.4677429q0.8831482 -1.3563538 0.7562256 -3.3210144q-0.12387085 -1.9178772 -1.1213989 -3.0593262q-0.9819336 -1.1424255 -2.681549 -1.033081q-1.684021 0.1083374 -2.5701904 1.4179382q-0.8871765 1.2940063 -0.75927734 3.2742615q0.12792969 1.9802551 1.1108704 3.1382751q0.99853516 1.1570435 2.6513672 1.0506897zm0.17062378 1.4295044q-1.4033508 0.090270996 -2.6915283 -0.21826172q-0.81427 1.211029 -0.74072266 2.3492737q0.047332764 0.7328491 0.4809265 1.1433411q0.44821167 0.3939209 1.6956482 0.31365967l4.709015 -0.30297852q2.9782104 -0.19158936 4.4611206 0.94992065q1.4819031 1.1259155 1.6229248 3.3088684q0.09970093 1.5436707 -0.805542 3.042389q-0.88967896 1.4977112 -2.811554 2.52948q-1.9062805 1.0307617 -4.853302 1.2203674q-3.9137878 0.25180054 -5.7553406 -0.8666382q-1.8405457 -1.1028442 -1.9634094 -3.005127q-0.07455444 -1.1538391 0.6250305 -2.2009277q0.7161865 -1.0325012 2.6340332 -2.126648q-2.4114075 -0.4867859 -2.5463867 -2.5761719q-0.055389404 -0.857605 0.42993164 -1.8282776q0.500885 -0.97164917 1.74469 -2.3199158q-1.3405151 -0.6340027 -2.1539612 -1.8342285q-0.8144531 -1.2158508 -0.9322815 -3.0401611q-0.18432617 -2.8534546 1.5579224 -4.4842834q1.7568359 -1.6474609 4.563507 -1.8280334q2.8378906 -0.18258667 4.6593323 1.109375l3.9634705 -1.664154l0.5533142 0.32452393l0.14605713 2.2608948l-3.5083618 0.22573853q0.9120178 1.2721863 1.0379333 3.2212524q0.18331909 2.8378296 -1.5735168 4.4852905q-1.757843 1.6318359 -4.54895 1.8114319zm-3.7420044 9.697754q0.11380005 1.7619629 1.4095764 2.4301453q1.3123779 0.6827698 3.4329834 0.5463257q2.9470215 -0.18960571 4.4222107 -1.3492126q1.4752197 -1.1596069 1.3775024 -2.6720886q-0.076538086 -1.1850281 -0.9553528 -1.9426575q-0.8787842 -0.7576294 -2.8122864 -0.63323975l-4.2100525 0.27087402q-0.35861206 0.023071289 -0.7338562 0.031555176q-0.37524414 0.008483887 -0.73587036 3.6621094E-4q-0.7136841 0.8287964 -0.9917908 1.6138916q-0.26150513 0.7996826 -0.20306396 1.7040405z" fill-rule="nonzero"/><path fill="#351c75" d="m431.51392 313.93585q1.4969177 -0.09631348 2.9818115 0.5910034q1.5004883 0.68634033 2.4049683 2.084259q0.9035034 1.3823547 1.0042114 2.9416199q0.16116333 2.4947815 -1.4869995 4.370117q-1.6481628 1.8753052 -4.127411 2.0348206q-2.4948425 0.16049194 -4.370636 -1.4880981q-1.875824 -1.6485901 -2.0369568 -4.1433716q-0.100738525 -1.5592651 0.60183716 -3.0449219q0.7171631 -1.5022888 2.1169128 -2.3752136q1.3997803 -0.8729248 2.912262 -0.97021484zm0.067474365 1.0446777q-1.278595 0.08227539 -2.4223633 0.79782104q-1.1437378 0.71551514 -1.7366638 1.9592896q-0.592926 1.2437744 -0.51034546 2.5223389q0.13296509 2.0582275 1.6933594 3.429596q1.5603943 1.3713989 3.6186218 1.2389832q2.058258 -0.13241577 3.4136963 -1.6914062q1.3554688 -1.5589905 1.2225037 -3.617218q-0.08258057 -1.278595 -0.83062744 -2.4360657q-0.7480469 -1.1574707 -1.9743958 -1.72052q-1.2263489 -0.5630493 -2.4737854 -0.4828186z" fill-rule="nonzero"/><path fill="#351c75" d="m450.5022 326.66483l-0.083618164 -1.2941589l2.805664 -0.6815491q-0.06149292 -1.4365234 -0.1385498 -2.8720398q-0.0625 -1.4521179 -0.15515137 -2.8866272l-0.49154663 -7.609131l-2.993805 0.19262695l-0.10272217 -1.5904541l3.0310059 -0.5864258q0.06414795 -2.8850708 0.51065063 -4.6987305q0.4465332 -1.8136597 1.6852722 -3.2398987q1.0803528 -1.2124939 2.2995605 -1.7293396q1.2348328 -0.5178528 2.4510498 -0.59609985q1.263031 -0.08126831 2.2589722 0.30871582q0.9959717 0.38998413 1.3285217 1.417633q-0.0034484863 0.67349243 -0.5501709 1.1783752q-0.5467224 0.50491333 -1.5446472 0.5691223q-1.29422 0.08325195 -2.657898 -0.9093628l-1.0483093 -0.7154236q-0.14886475 0.11917114 -0.26657104 0.23635864q-0.11868286 0.1015625 -0.22079468 0.21774292q-0.8751221 0.99575806 -1.2366333 2.9135437q-0.36151123 1.9177856 -0.088134766 4.9377136l4.958496 -0.31903076l0.12289429 1.9023132l-4.8961487 0.31500244l0.49154663 7.609131q0.09265137 1.4345093 0.19992065 2.852417q0.12283325 1.4169312 0.24667358 2.8494263l3.26297 0.33807373l0.08358765 1.2941895l-9.262085 0.59588623z" fill-rule="nonzero"/><path fill="#b4a7d6" d="m197.38321 99.29921l0 0c0 -12.185051 9.87793 -22.062988 22.062988 -22.062988l0 0c5.851471 0 11.463272 2.3244858 15.600891 6.462097c4.1376038 4.137619 6.462097 9.749428 6.462097 15.600891l0 0c0 12.185059 -9.877945 22.062996 -22.062988 22.062996l0 0c-12.185059 0 -22.062988 -9.877937 -22.062988 -22.062996z" fill-rule="evenodd"/><path stroke="#351c75" stroke-width="3.0" stroke-linejoin="round" stroke-linecap="butt" stroke-dasharray="24.0,9.0" d="m197.38321 99.29921l0 0c0 -12.185051 9.87793 -22.062988 22.062988 -22.062988l0 0c5.851471 0 11.463272 2.3244858 15.600891 6.462097c4.1376038 4.137619 6.462097 9.749428 6.462097 15.600891l0 0c0 12.185059 -9.877945 22.062996 -22.062988 22.062996l0 0c-12.185059 0 -22.062988 -9.877937 -22.062988 -22.062996z" fill-rule="evenodd"/><path fill="#b4a7d6" d="m119.8399 201.47769l0 0c0 -9.314911 7.5512238 -16.86615 16.866142 -16.86615l0 0c4.473175 0 8.763138 1.7769775 11.926163 4.939987c3.1630096 3.1630096 4.939972 7.4529877 4.939972 11.926163l0 0c0 9.314911 -7.5512238 16.866135 -16.866135 16.866135l0 0c-9.3149185 0 -16.866142 -7.5512238 -16.866142 -16.866135z" fill-rule="evenodd"/><path stroke="#351c75" stroke-width="3.0" stroke-linejoin="round" stroke-linecap="butt" stroke-dasharray="24.0,9.0" d="m119.8399 201.47769l0 0c0 -9.314911 7.5512238 -16.86615 16.866142 -16.86615l0 0c4.473175 0 8.763138 1.7769775 11.926163 4.939987c3.1630096 3.1630096 4.939972 7.4529877 4.939972 11.926163l0 0c0 9.314911 -7.5512238 16.866135 -16.866135 16.866135l0 0c-9.3149185 0 -16.866142 -7.5512238 -16.866142 -16.866135z" fill-rule="evenodd"/><path fill="#000000" fill-opacity="0.0" d="m203.8453 114.9001l-55.2126 74.645676" fill-rule="evenodd"/><path stroke="#351c75" stroke-width="3.0" stroke-linejoin="round" stroke-linecap="butt" d="m193.14128 129.3716l-44.508575 60.174164" fill-rule="evenodd"/><path stroke="#351c75" stroke-width="3.0" stroke-linecap="butt" d="m197.12512 132.3183l4.112152 -13.892204l-12.079819 7.998802z" fill-rule="evenodd"/><path fill="#000000" fill-opacity="0.0" d="m290.26526 286.6012l-141.6378 -73.19684" fill-rule="evenodd"/><path stroke="#351c75" stroke-width="3.0" stroke-linejoin="round" stroke-linecap="butt" d="m274.27438 278.3373l-125.64693 -64.93295" fill-rule="evenodd"/><path stroke="#351c75" stroke-width="3.0" stroke-linecap="butt" d="m271.99942 282.7394l14.369659 1.8482971l-9.819733 -10.652496z" fill-rule="evenodd"/><path fill="#000000" fill-opacity="0.0" d="m709.93176 146.94751l-72.0 238.83466" fill-rule="evenodd"/><path stroke="#351c75" stroke-width="3.0" stroke-linejoin="round" stroke-linecap="butt" d="m704.7364 164.18143l-66.80463 221.60074" fill-rule="evenodd"/><path stroke="#351c75" stroke-width="3.0" stroke-linecap="butt" d="m709.48065 165.61165l-0.8147583 -14.465088l-8.673828 11.6046295z" fill-rule="evenodd"/><path fill="#b4a7d6" d="m600.2651 401.38846l0 0c0 -12.185059 9.87793 -22.062988 22.062988 -22.062988l0 0c5.8515015 0 11.463318 2.324463 15.600891 6.462097c4.1376343 4.1376038 6.462097 9.74942 6.462097 15.600891l0 0c0 12.185059 -9.87793 22.062988 -22.062988 22.062988l0 0c-12.185059 0 -22.062988 -9.87793 -22.062988 -22.062988z" fill-rule="evenodd"/><path stroke="#351c75" stroke-width="3.0" stroke-linejoin="round" stroke-linecap="butt" stroke-dasharray="24.0,9.0" d="m600.2651 401.38846l0 0c0 -12.185059 9.87793 -22.062988 22.062988 -22.062988l0 0c5.8515015 0 11.463318 2.324463 15.600891 6.462097c4.1376343 4.1376038 6.462097 9.74942 6.462097 15.600891l0 0c0 12.185059 -9.87793 22.062988 -22.062988 22.062988l0 0c-12.185059 0 -22.062988 -9.87793 -22.062988 -22.062988z" fill-rule="evenodd"/><path fill="#b4a7d6" d="m687.8688 124.884514l0 0c0 -12.185051 9.87793 -22.062988 22.062988 -22.062988l0 0c5.8514404 0 11.463257 2.3244858 15.600891 6.462097c4.1376343 4.1376114 6.462097 9.74942 6.462097 15.600891l0 0c0 12.185051 -9.87793 22.062996 -22.062988 22.062996l0 0c-12.185059 0 -22.062988 -9.877945 -22.062988 -22.062996z" fill-rule="evenodd"/><path stroke="#351c75" stroke-width="3.0" stroke-linejoin="round" stroke-linecap="butt" stroke-dasharray="24.0,9.0" d="m687.8688 124.884514l0 0c0 -12.185051 9.87793 -22.062988 22.062988 -22.062988l0 0c5.8514404 0 11.463257 2.3244858 15.600891 6.462097c4.1376343 4.1376114 6.462097 9.74942 6.462097 15.600891l0 0c0 12.185051 -9.87793 22.062996 -22.062988 22.062996l0 0c-12.185059 0 -22.062988 -9.877945 -22.062988 -22.062996z" fill-rule="evenodd"/><path fill="#b4a7d6" d="m191.10498 382.76117l0 0c0 -12.185059 9.877945 -22.063019 22.063004 -22.063019l0 0c5.851471 0 11.463272 2.3244934 15.600891 6.4621277c4.1376038 4.1376038 6.462097 9.74942 6.462097 15.600891l0 0c0 12.185028 -9.877945 22.062988 -22.062988 22.062988l0 0c-12.185059 0 -22.063004 -9.87796 -22.063004 -22.062988z" fill-rule="evenodd"/><path stroke="#351c75" stroke-width="3.0" stroke-linejoin="round" stroke-linecap="butt" stroke-dasharray="24.0,9.0" d="m191.10498 382.76117l0 0c0 -12.185059 9.877945 -22.063019 22.063004 -22.063019l0 0c5.851471 0 11.463272 2.3244934 15.600891 6.4621277c4.1376038 4.1376038 6.462097 9.74942 6.462097 15.600891l0 0c0 12.185028 -9.877945 22.062988 -22.062988 22.062988l0 0c-12.185059 0 -22.063004 -9.87796 -22.063004 -22.062988z" fill-rule="evenodd"/><path fill="#000000" fill-opacity="0.0" d="m389.7467 169.0105c-12.4999695 0 -25.844574 -15.365448 -24.99997 -31.812363c0.844635 -16.446907 15.878479 -33.975273 31.334656 -31.812363c15.456146 2.1629105 31.334625 24.01709 31.334625 48.03418" fill-rule="evenodd"/><path stroke="#351c75" stroke-width="3.0" stroke-linejoin="round" stroke-linecap="butt" stroke-dasharray="24.0,9.0" d="m389.7467 169.0105c-12.5 0 -25.844604 -15.365448 -24.999939 -31.812363c0.8446045 -16.446907 15.8784485 -33.975273 31.334595 -31.812363c7.728119 1.081459 15.561768 7.085724 21.463379 15.82177c1.4754333 2.1840057 2.8301086 4.5387573 4.0321655 7.0300064c0.6010132 1.2456207 1.1639099 2.5253754 1.6846619 3.834961c0.26037598 0.6548004 0.5102539 1.3170624 0.74905396 1.9862518c0.11941528 0.33459473 0.23605347 0.6709137 0.34991455 1.0088959c0.056915283 0.16899109 0.113098145 0.33840942 0.16860962 0.50823975l0.023590088 0.07324219" fill-rule="evenodd"/><path stroke="#351c75" stroke-width="3.0" stroke-linecap="butt" d="m419.6606 136.43738l7.05777 12.65271l2.7264404 -14.229172z" fill-rule="evenodd"/><path fill="#000000" fill-opacity="0.0" d="m338.0623 43.756096l137.13388 7.842518l-3.5905762 62.929134l-137.13385 -7.8425217z" fill-rule="evenodd"/><path fill="#351c75" d="m382.28323 89.91621l0.07388306 -1.2947693l2.7115784 -0.34574127q0.12512207 -1.3700943 0.23150635 -2.9603577q0.107299805 -1.6058731 0.17492676 -2.7914429l0.09613037 -1.684761q0.08456421 -1.4819641 0.12503052 -2.4656372q0.040496826 -0.98366547 0.023895264 -2.064499l-2.8516235 -0.491745l0.07211304 -1.2635651l5.6624146 -1.8672485l0.5099182 0.389122l-0.38778687 4.876442l-0.27056885 4.7422867q-0.06765747 1.1855698 -0.1437378 2.7932205q-0.059570312 1.5929489 -0.10671997 2.9674988l2.4830627 0.64282227l-0.07388306 1.2947693l-8.330139 -0.47639465zm5.469574 -21.253632q-1.013977 -0.0579834 -1.6794434 -0.7377167q-0.6646118 -0.69532776 -0.6076355 -1.6937027q0.059631348 -1.0451813 0.7972107 -1.6290207q0.73846436 -0.5994339 1.7524414 -0.5414505q0.99838257 0.05709839 1.6638489 0.73682404q0.66638184 0.66413116 0.6067505 1.7093124q-0.05697632 0.99837494 -0.7963257 1.613411q-0.73846436 0.5994415 -1.7368469 0.54234314zm9.310333 13.631943q-0.20025635 3.5099182 1.123169 5.275856q1.3243103 1.7503433 3.4770508 1.8734589q1.1855469 0.06780243 2.1335144 -0.36315155q0.94885254 -0.4465561 2.010437 -1.4970322l0.5678406 -9.952568q-1.1553345 -1.145958 -2.1002502 -1.5912552q-0.94403076 -0.46090698 -1.8488159 -0.51264954q-1.3259583 -0.07582855 -2.5065308 0.59223175q-1.1650085 0.6689453 -1.9412842 2.2052612q-0.7753906 1.5207062 -0.9151306 3.9698486zm8.873322 9.334351l-0.10809326 -2.4946136q-1.0054016 1.1632462 -2.2457275 1.7809372q-1.2402954 0.61769104 -2.9250488 0.5213394q-2.1995544 -0.12578583 -3.7898865 -1.3279266q-1.5894775 -1.2177353 -2.3959045 -3.267128q-0.79086304 -2.0484924 -0.6413269 -4.6692276q0.15756226 -2.761139 1.272522 -4.747589q1.1314392 -2.0011673 2.912384 -3.041809q1.7973938 -1.0553436 3.9813232 -0.93045044q1.2635803 0.072265625 2.4050598 0.63835907q1.1414795 0.5661011 2.1733704 1.9554062l0.4628601 -8.111809l-3.0370483 -0.53364563l0.07211304 -1.2635651l5.708374 -1.3012009l0.4822693 0.32494354l-0.431427 5.093048l-1.1090393 19.437134l2.8921814 0.6036148l-0.07388306 1.2947693l-5.605072 0.039413452z" fill-rule="nonzero"/><path fill="#351c75" d="m412.55756 90.06686l0.05606079 -0.9827728l6.754608 0.38628387l-0.05609131 0.9827728l-2.292633 0.13494873l2.923523 7.4603424l3.8292847 -7.0428543l-2.1358337 -0.4195099l0.05606079 -0.9827728l5.491028 0.31402588l-0.05606079 0.9827728l-2.1237488 0.19155884l-4.5529785 8.206558q-0.07922363 1.3883667 -0.15130615 2.6519318q-0.055633545 1.2488632 -0.09030151 2.4050217l2.418396 0.40436554l-0.05606079 0.9827728l-7.2225647 -0.4130478l0.05606079 -0.98278046l2.4486694 -0.12602234q0.11087036 -1.120491 0.18029785 -2.337265q0.0703125 -1.2323685 0.14953613 -2.6207352l-3.7508545 -8.869255l-1.8750916 -0.32633972z" fill-rule="nonzero"/><path fill="#000000" fill-opacity="0.0" d="m694.3309 140.48541l-72.0 238.83463" fill-rule="evenodd"/><path stroke="#351c75" stroke-width="3.0" stroke-linejoin="round" stroke-linecap="butt" d="m689.1355 157.71933l-66.80463 221.60071" fill-rule="evenodd"/><path stroke="#351c75" stroke-width="3.0" stroke-linecap="butt" d="m693.87976 159.14957l-0.8147583 -14.465103l-8.673828 11.6046295z" fill-rule="evenodd"/><path fill="#000000" fill-opacity="0.0" d="m749.4724 213.8937l43.212646 0l0 67.87402l-43.212646 0z" fill-rule="evenodd"/><path fill="#351c75" d="m782.1599 255.37183q0.3125 0 0.578125 0.265625l1.515625 1.65625q-1.765625 2.046875 -4.28125 3.1875q-2.5 1.125 -6.046875 1.125q-3.09375 0 -5.625 -1.0625q-2.515625 -1.0625 -4.296875 -3.0q-1.765625 -1.9375 -2.75 -4.625q-0.984375 -2.703125 -0.984375 -5.9375q0 -3.25 1.046875 -5.9375q1.0625 -2.703125 2.953125 -4.640625q1.90625 -1.953125 4.546875 -3.015625q2.65625 -1.078125 5.859375 -1.078125q3.15625 0 5.4375 0.984375q2.296875 0.984375 4.078125 2.65625l-1.265625 1.78125q-0.140625 0.203125 -0.328125 0.34375q-0.171875 0.125 -0.5 0.125q-0.265625 0 -0.5625 -0.1875q-0.28125 -0.203125 -0.6875 -0.484375q-0.390625 -0.28125 -0.9375 -0.59375q-0.53125 -0.328125 -1.28125 -0.59375q-0.734375 -0.28125 -1.71875 -0.46875q-0.984375 -0.203125 -2.25 -0.203125q-2.3125 0 -4.21875 0.796875q-1.90625 0.78125 -3.296875 2.25q-1.375 1.453125 -2.140625 3.5625q-0.765625 2.09375 -0.765625 4.703125q0 2.671875 0.765625 4.78125q0.765625 2.09375 2.09375 3.546875q1.328125 1.4375 3.140625 2.203125q1.828125 0.765625 3.9375 0.765625q1.28125 0 2.296875 -0.140625q1.015625 -0.15625 1.890625 -0.46875q0.875 -0.328125 1.625 -0.8125q0.75 -0.5 1.5 -1.1875q0.34375 -0.296875 0.671875 -0.296875z" fill-rule="nonzero"/></g></svg>