<svg version="1.1" viewBox="0.0 0.0 1955.4173228346456 665.6351706036745" fill="none" stroke="none" stroke-linecap="square" stroke-miterlimit="10" xmlns:xlink="http://www.w3.org/1999/xlink" xmlns="http://www.w3.org/2000/svg"><clipPath id="p.0"><path d="m0 0l1955.4174 0l0 665.6352l-1955.4174 0l0 -665.6352z" clip-rule="nonzero"/></clipPath><g clip-path="url(#p.0)"><path fill="#000000" fill-opacity="0.0" d="m0 0l1955.4174 0l0 665.6352l-1955.4174 0z" fill-rule="evenodd"/><path fill="#000000" fill-opacity="0.0" d="m798.0932 278.15222l43.212585 0l0 95.33859l-43.212585 0z" fill-rule="evenodd"/><path fill="#000000" d="m809.1557 309.53098l0 -3.390625l32.390625 0l0.453125 10.78125l-5.203125 0l-1.25 -7.265625l-10.90625 0q-0.0625 3.578125 -0.09375 7.21875q-0.03125 3.625 -0.03125 7.3125l6.953125 0l0.75 -4.875l3.640625 0l0 14.09375l-3.640625 0l-0.8125 -5.515625l-6.890625 0q0 4.203125 0.03125 8.0q0.03125 3.78125 0.09375 7.46875l5.578125 0.5625l0 3.390625l-21.0625 0l0 -3.390625l4.703125 -0.5q0.125 -3.8125 0.125 -7.6875q0 -3.890625 0 -7.84375l0 -2.3125q0 -3.890625 0 -7.796875q0 -3.921875 -0.125 -7.75l-4.703125 -0.5z" fill-rule="nonzero"/><path fill="#d393b0" fill-opacity="0.4367" d="m215.30139 385.3465l531.57965 0l0 0c69.63843 0 126.09143 49.057617 126.09143 109.57321c0 60.515656 -56.453003 109.57321 -126.09143 109.57321l-531.57965 0l0 0c-69.63837 0 -126.091415 -49.057556 -126.091415 -109.57321c0 -60.515594 56.45305 -109.57321 126.091415 -109.57321z" fill-rule="evenodd"/><path stroke="#ffffff" stroke-width="1.0" stroke-linejoin="round" stroke-linecap="butt" d="m215.30139 385.3465l531.57965 0l0 0c69.63843 0 126.09143 49.057617 126.09143 109.57321c0 60.515656 -56.453003 109.57321 -126.09143 109.57321l-531.57965 0l0 0c-69.63837 0 -126.091415 -49.057556 -126.091415 -109.57321c0 -60.515594 56.45305 -109.57321 126.091415 -109.57321z" fill-rule="evenodd"/><path fill="#000000" fill-opacity="0.0" d="m701.34503 447.99554l150.48822 0l0 79.18109l-150.48822 0z" fill-rule="evenodd"/><path fill="#741b47" d="m812.411 469.49615l13.015625 0l-4.71875 6.96875l0 27.703125l-7.546875 0l-15.1875 -24.125l0 17.109375l5.421875 7.015625l-13.015625 0l4.71875 -6.984375l0 -21.5l-3.90625 -6.1875l11.25 0l15.390625 24.140625l0 -17.140625l-5.421875 -7.0zm6.875 4.09375l0.796875 -1.21875l-1.796875 0l1.0 1.21875zm-4.5 27.6875l3.1875 0l-0.125 -2.453125l-17.015625 -26.453125l-4.53125 0l18.484375 28.90625zm-18.984375 0l1.78125 0l-0.921875 -1.203125l-0.859375 1.203125z" fill-rule="nonzero"/><path fill="#741b47" d="m841.8867 522.8555l-15.953125 0l0 -2.890625l15.953125 0l0 2.890625zm-15.59375 -10.21875l0 -2.234375l13.640625 -6.390625l1.1875 2.640625l-10.75 4.859375l10.75 4.875l-1.1875 2.65625l-13.640625 -6.40625z" fill-rule="nonzero"/><path fill="#d5a6bd" d="m140.87402 485.45404l0 0c0 -13.237427 21.123688 -23.968506 47.18109 -23.968506l0 0c26.057404 0 47.181107 10.731079 47.181107 23.968506l0 0c0 13.237457 -21.123703 23.968506 -47.181107 23.968506l0 0c-26.057404 0 -47.18109 -10.731049 -47.18109 -23.968506z" fill-rule="evenodd"/><path stroke="#741b47" stroke-width="3.0" stroke-linejoin="round" stroke-linecap="butt" stroke-dasharray="24.0,9.0" d="m140.87402 485.45404l0 0c0 -13.237427 21.123688 -23.968506 47.18109 -23.968506l0 0c26.057404 0 47.181107 10.731079 47.181107 23.968506l0 0c0 13.237457 -21.123703 23.968506 -47.181107 23.968506l0 0c-26.057404 0 -47.18109 -10.731049 -47.18109 -23.968506z" fill-rule="evenodd"/><path fill="#000000" d="m187.91937 472.63904q3.75 0 5.859375 2.671875q2.515625 3.15625 2.515625 10.5q0 7.3125 -2.53125 10.5q-2.09375 2.640625 -5.84375 2.640625q-3.75 0 -6.0625 -2.890625q-2.296875 -2.890625 -2.296875 -10.3125q0 -7.28125 2.53125 -10.46875q2.09375 -2.640625 5.828125 -2.640625zm0 4.09375q-0.890625 0 -1.59375 0.578125q-0.703125 0.5625 -1.09375 2.046875q-0.5 1.90625 -0.5 6.453125q0 4.53125 0.453125 6.234375q0.453125 1.6875 1.140625 2.25q0.703125 0.5625 1.59375 0.5625q0.90625 0 1.609375 -0.5625q0.703125 -0.578125 1.078125 -2.0625q0.515625 -1.890625 0.515625 -6.421875q0 -4.546875 -0.453125 -6.234375q-0.453125 -1.703125 -1.15625 -2.265625q-0.6875 -0.578125 -1.59375 -0.578125z" fill-rule="nonzero"/><path fill="#000000" fill-opacity="0.0" d="m310.53806 485.45404l-75.30708 0" fill-rule="evenodd"/><path stroke="#741b47" stroke-width="3.0" stroke-linejoin="round" stroke-linecap="butt" d="m292.53806 485.45407l-57.307083 0" fill-rule="evenodd"/><path stroke="#741b47" stroke-width="3.0" stroke-linecap="butt" d="m292.53806 490.40927l13.614288 -4.9552l-13.614288 -4.9552z" fill-rule="evenodd"/><path fill="#d5a6bd" d="m310.53806 485.45404l0 0c0 -13.237427 21.123688 -23.968506 47.18109 -23.968506l0 0c26.057404 0 47.18112 10.731079 47.18112 23.968506l0 0c0 13.237457 -21.123718 23.968506 -47.18112 23.968506l0 0c-26.057404 0 -47.18109 -10.731049 -47.18109 -23.968506z" fill-rule="evenodd"/><path stroke="#741b47" stroke-width="3.0" stroke-linejoin="round" stroke-linecap="butt" stroke-dasharray="24.0,9.0" d="m310.53806 485.45404l0 0c0 -13.237427 21.123688 -23.968506 47.18109 -23.968506l0 0c26.057404 0 47.18112 10.731079 47.18112 23.968506l0 0c0 13.237457 -21.123718 23.968506 -47.18112 23.968506l0 0c-26.057404 0 -47.18109 -10.731049 -47.18109 -23.968506z" fill-rule="evenodd"/><path fill="#000000" d="m361.88028 498.51404l-4.9375 0l0 -18.609375q-2.71875 2.53125 -6.390625 3.734375l0 -4.484375q1.9375 -0.625 4.203125 -2.390625q2.265625 -1.765625 3.109375 -4.125l4.015625 0l0 25.875z" fill-rule="nonzero"/><path fill="#d5a6bd" d="m480.2021 485.45404l0 0c0 -13.237427 21.123718 -23.968506 47.18109 -23.968506l0 0c26.057434 0 47.181152 10.731079 47.181152 23.968506l0 0c0 13.237457 -21.123718 23.968506 -47.181152 23.968506l0 0c-26.057373 0 -47.18109 -10.731049 -47.18109 -23.968506z" fill-rule="evenodd"/><path stroke="#741b47" stroke-width="3.0" stroke-linejoin="round" stroke-linecap="butt" stroke-dasharray="24.0,9.0" d="m480.2021 485.45404l0 0c0 -13.237427 21.123718 -23.968506 47.18109 -23.968506l0 0c26.057434 0 47.181152 10.731079 47.181152 23.968506l0 0c0 13.237457 -21.123718 23.968506 -47.181152 23.968506l0 0c-26.057373 0 -47.18109 -10.731049 -47.18109 -23.968506z" fill-rule="evenodd"/><path fill="#000000" d="m535.5912 493.9203l0 4.59375l-17.328125 0q0.28125 -2.609375 1.6875 -4.9375q1.40625 -2.328125 5.5625 -6.171875q3.34375 -3.109375 4.09375 -4.21875q1.015625 -1.53125 1.015625 -3.03125q0 -1.640625 -0.890625 -2.53125q-0.875 -0.890625 -2.4375 -0.890625q-1.546875 0 -2.46875 0.9375q-0.90625 0.921875 -1.046875 3.09375l-4.921875 -0.5q0.4375 -4.078125 2.75 -5.84375q2.328125 -1.78125 5.796875 -1.78125q3.828125 0 6.0 2.0625q2.1875 2.046875 2.1875 5.109375q0 1.734375 -0.625 3.3125q-0.625 1.578125 -1.984375 3.296875q-0.890625 1.140625 -3.234375 3.296875q-2.34375 2.140625 -2.96875 2.84375q-0.609375 0.703125 -1.0 1.359375l9.8125 0z" fill-rule="nonzero"/><path fill="#d5a6bd" d="m649.86615 485.45404l0 0c0 -13.237427 21.123718 -23.968506 47.18109 -23.968506l0 0c26.057434 0 47.18109 10.731079 47.18109 23.968506l0 0c0 13.237457 -21.123657 23.968506 -47.18109 23.968506l0 0c-26.057373 0 -47.18109 -10.731049 -47.18109 -23.968506z" fill-rule="evenodd"/><path stroke="#741b47" stroke-width="3.0" stroke-linejoin="round" stroke-linecap="butt" stroke-dasharray="24.0,9.0" d="m649.86615 485.45404l0 0c0 -13.237427 21.123718 -23.968506 47.18109 -23.968506l0 0c26.057434 0 47.18109 10.731079 47.18109 23.968506l0 0c0 13.237457 -21.123657 23.968506 -47.18109 23.968506l0 0c-26.057373 0 -47.18109 -10.731049 -47.18109 -23.968506z" fill-rule="evenodd"/><path fill="#000000" d="m688.3959 491.6703l4.78125 -0.578125q0.21875 1.828125 1.21875 2.796875q1.015625 0.96875 2.4375 0.96875q1.53125 0 2.5625 -1.15625q1.046875 -1.171875 1.046875 -3.140625q0 -1.859375 -1.0 -2.9375q-1.0 -1.09375 -2.4375 -1.09375q-0.953125 0 -2.265625 0.359375l0.546875 -4.015625q2.0 0.046875 3.046875 -0.875q1.0625 -0.921875 1.0625 -2.453125q0 -1.296875 -0.78125 -2.0625q-0.765625 -0.78125 -2.046875 -0.78125q-1.265625 0 -2.171875 0.875q-0.890625 0.875 -1.078125 2.5625l-4.5625 -0.765625q0.484375 -2.34375 1.4375 -3.734375q0.953125 -1.40625 2.671875 -2.203125q1.71875 -0.796875 3.84375 -0.796875q3.640625 0 5.828125 2.3125q1.8125 1.90625 1.8125 4.296875q0 3.390625 -3.703125 5.40625q2.21875 0.484375 3.53125 2.140625q1.328125 1.640625 1.328125 3.984375q0 3.390625 -2.484375 5.78125q-2.46875 2.390625 -6.15625 2.390625q-3.5 0 -5.8125 -2.015625q-2.296875 -2.015625 -2.65625 -5.265625z" fill-rule="nonzero"/><path fill="#000000" fill-opacity="0.0" d="m480.2021 485.45404l-75.30707 0" fill-rule="evenodd"/><path stroke="#741b47" stroke-width="3.0" stroke-linejoin="round" stroke-linecap="butt" d="m462.2021 485.45407l-57.307068 0" fill-rule="evenodd"/><path stroke="#741b47" stroke-width="3.0" stroke-linecap="butt" d="m462.2021 490.40927l13.614319 -4.9552l-13.614319 -4.9552z" fill-rule="evenodd"/><path fill="#000000" fill-opacity="0.0" d="m649.86615 485.45404l-75.30707 0" fill-rule="evenodd"/><path stroke="#741b47" stroke-width="3.0" stroke-linejoin="round" stroke-linecap="butt" d="m631.86615 485.45407l-57.307068 0" fill-rule="evenodd"/><path stroke="#741b47" stroke-width="3.0" stroke-linecap="butt" d="m631.86615 490.40927l13.614258 -4.9552l-13.614258 -4.9552z" fill-rule="evenodd"/><path fill="#000000" fill-opacity="0.0" d="m242.79263 474.1348l43.08661 0l0 66.26773l-43.08661 0z" fill-rule="evenodd"/><path fill="#434343" d="m271.902 513.9111l-18.984375 -8.2500305l0 -4.5625l18.984375 -8.21875l0 5.390625l-13.234375 5.046875l13.234375 5.265625l0 5.3281555zm-18.984375 6.34375l0 -4.96875l18.984375 0l0 4.96875l-18.984375 0z" fill-rule="nonzero"/><path fill="#000000" fill-opacity="0.0" d="m413.73752 474.1348l43.08661 0l0 66.26773l-43.08661 0z" fill-rule="evenodd"/><path fill="#434343" d="m442.8469 513.9111l-18.984375 -8.2500305l0 -4.5625l18.984375 -8.21875l0 5.390625l-13.234375 5.046875l13.234375 5.265625l0 5.3281555zm-18.984375 6.34375l0 -4.96875l18.984375 0l0 4.96875l-18.984375 0z" fill-rule="nonzero"/><path fill="#000000" fill-opacity="0.0" d="m584.6824 474.1348l43.08661 0l0 66.26773l-43.08661 0z" fill-rule="evenodd"/><path fill="#434343" d="m613.79175 513.9111l-18.984375 -8.2500305l0 -4.5625l18.984375 -8.21875l0 5.390625l-13.234375 5.046875l13.234375 5.265625l0 5.3281555zm-18.984375 6.34375l0 -4.96875l18.984375 0l0 4.96875l-18.984375 0z" fill-rule="nonzero"/><path fill="#000000" fill-opacity="0.0" d="m406.2992 139.48679l-48.566956 321.98425" fill-rule="evenodd"/><path stroke="#000000" stroke-width="3.0" stroke-linejoin="round" stroke-linecap="butt" d="m406.29916 139.48679l-47.03351 311.818" fill-rule="evenodd"/><path fill="#000000" stroke="#000000" stroke-width="3.0" stroke-linecap="butt" d="m359.2657 451.30478l-2.8328247 -3.839203l1.9534912 9.668823l4.7185364 -8.662445z" fill-rule="evenodd"/><path fill="#000000" fill-opacity="0.0" d="m406.3005 249.26353l-48.566956 212.22047" fill-rule="evenodd"/><path stroke="#000000" stroke-width="3.0" stroke-linejoin="round" stroke-linecap="butt" d="m406.30048 249.26353l-46.273315 202.19832" fill-rule="evenodd"/><path fill="#000000" stroke="#000000" stroke-width="3.0" stroke-linecap="butt" d="m360.02713 451.46185l-2.5361023 -4.041382l1.2209167 9.788361l5.3565674 -8.283081z" fill-rule="evenodd"/><path fill="#000000" fill-opacity="0.0" d="m602.6404 194.41182l-75.24414 267.0866" fill-rule="evenodd"/><path stroke="#000000" stroke-width="3.0" stroke-linejoin="round" stroke-linecap="butt" d="m602.6404 194.41183l-72.45618 257.19058" fill-rule="evenodd"/><path fill="#000000" stroke="#000000" stroke-width="3.0" stroke-linecap="butt" d="m530.1842 451.6024l-2.3324585 -4.1621704l0.73376465 9.836853l5.7609253 -8.007172z" fill-rule="evenodd"/><path fill="#000000" fill-opacity="0.0" d="m209.96062 194.41115l-21.889755 267.0866" fill-rule="evenodd"/><path stroke="#000000" stroke-width="3.0" stroke-linejoin="round" stroke-linecap="butt" d="m209.96063 194.41115l-21.049957 256.83978" fill-rule="evenodd"/><path fill="#000000" stroke="#000000" stroke-width="3.0" stroke-linecap="butt" d="m188.91068 451.2509l-3.0868988 -3.6380615l2.6053314 9.513916l4.119629 -8.962738z" fill-rule="evenodd"/><path fill="#9a86c8" fill-opacity="0.462" d="m214.38802 47.15358l531.5797 0l0 0c69.63837 0 126.09137 49.05761 126.09137 109.57323c0 60.515625 -56.453003 109.57324 -126.09137 109.57324l-531.5797 0l0 0c-69.63838 0 -126.09143 -49.057617 -126.09143 -109.57324c0 -60.515617 56.45305 -109.57323 126.09143 -109.57323z" fill-rule="evenodd"/><path stroke="#ffffff" stroke-width="1.0" stroke-linejoin="round" stroke-linecap="butt" d="m214.38802 47.15358l531.5797 0l0 0c69.63837 0 126.09137 49.05761 126.09137 109.57323c0 60.515625 -56.453003 109.57324 -126.09137 109.57324l-531.5797 0l0 0c-69.63838 0 -126.09143 -49.057617 -126.09143 -109.57324c0 -60.515617 56.45305 -109.57323 126.09143 -109.57323z" fill-rule="evenodd"/><path fill="#b4a7d6" d="m532.6404 158.85277l0 0c0 -19.638733 31.340027 -35.55906 70.0 -35.55906l0 0c38.659912 0 70.0 15.920326 70.0 35.55906l0 0c0 19.638718 -31.340088 35.55905 -70.0 35.55905l0 0c-38.659973 0 -70.0 -15.920334 -70.0 -35.55905z" fill-rule="evenodd"/><path stroke="#351c75" stroke-width="3.0" stroke-linejoin="round" stroke-linecap="butt" stroke-dasharray="24.0,9.0" d="m532.6404 158.85277l0 0c0 -19.638733 31.340027 -35.55906 70.0 -35.55906l0 0c38.659912 0 70.0 15.920326 70.0 35.55906l0 0c0 19.638718 -31.340088 35.55905 -70.0 35.55905l0 0c-38.659973 0 -70.0 -15.920334 -70.0 -35.55905z" fill-rule="evenodd"/><path fill="#000000" d="m564.67065 164.70964l0 -4.21875q1.28125 -0.078125 1.921875 -0.390625q0.65625 -0.3125 1.125 -1.0625q0.484375 -0.75 0.65625 -1.875q0.140625 -0.84375 0.140625 -2.9375q0 -3.40625 0.3125 -4.75q0.3125 -1.34375 1.140625 -2.15625q0.828125 -0.828125 2.40625 -1.296875q1.078125 -0.3125 3.375 -0.3125l0.9375 0l0 4.1875q-1.953125 0 -2.515625 0.234375q-0.546875 0.21875 -0.8125 0.671875q-0.25 0.4375 -0.25 1.53125q0 1.109375 -0.171875 4.203125q-0.078125 1.734375 -0.453125 2.8125q-0.359375 1.078125 -0.9375 1.78125q-0.578125 0.703125 -1.75 1.46875q1.03125 0.59375 1.6875 1.390625q0.671875 0.796875 1.015625 1.953125q0.359375 1.140625 0.46875 3.046875q0.109375 2.921875 0.109375 3.734375q0 1.15625 0.28125 1.609375q0.28125 0.46875 0.859375 0.703125q0.578125 0.234375 2.46875 0.234375l0 4.21875l-0.9375 0q-2.359375 0 -3.625 -0.375q-1.265625 -0.375 -2.140625 -1.265625q-0.875 -0.875 -1.171875 -2.171875q-0.296875 -1.28125 -0.296875 -4.0625q0 -3.234375 -0.28125 -4.203125q-0.390625 -1.40625 -1.171875 -2.015625q-0.78125 -0.609375 -2.390625 -0.6875zm27.11914 7.203125l-4.9375 0l0 -18.609375q-2.71875 2.53125 -6.390625 3.734375l0 -4.484375q1.9375 -0.625 4.203125 -2.390625q2.265625 -1.765625 3.109375 -4.125l4.015625 0l0 25.875zm8.318359 -4.9375l4.9375 0l0 3.53125q0 2.140625 -0.375 3.375q-0.375 1.25 -1.40625 2.234375q-1.015625 0.984375 -2.59375 1.546875l-0.96875 -2.046875q1.484375 -0.484375 2.109375 -1.34375q0.640625 -0.859375 0.6875 -2.359375l-2.390625 0l0 -4.9375zm25.751953 0.34375l0 4.59375l-17.328125 0q0.28125 -2.609375 1.6875 -4.9375q1.40625 -2.328125 5.5625 -6.171875q3.34375 -3.109375 4.09375 -4.21875q1.015625 -1.53125 1.015625 -3.03125q0 -1.640625 -0.890625 -2.53125q-0.875 -0.890625 -2.4375 -0.890625q-1.546875 0 -2.46875 0.9375q-0.90625 0.921875 -1.046875 3.09375l-4.921875 -0.5q0.4375 -4.078125 2.75 -5.84375q2.328125 -1.78125 5.796875 -1.78125q3.828125 0 6.0 2.0625q2.1875 2.046875 2.1875 5.109375q0 1.734375 -0.625 3.3125q-0.625 1.578125 -1.984375 3.296875q-0.890625 1.140625 -3.234375 3.296875q-2.34375 2.140625 -2.96875 2.84375q-0.609375 0.703125 -1.0 1.359375l9.8125 0zm14.615234 -2.609375q-1.28125 0.0625 -1.9375 0.390625q-0.640625 0.3125 -1.109375 1.0625q-0.46875 0.734375 -0.65625 1.859375q-0.140625 0.84375 -0.140625 2.921875q0 3.40625 -0.3125 4.765625q-0.3125 1.359375 -1.140625 2.171875q-0.8125 0.8125 -2.421875 1.296875q-1.0625 0.3125 -3.375 0.3125l-0.921875 0l0 -4.21875q1.875 0 2.453125 -0.234375q0.578125 -0.234375 0.84375 -0.6875q0.28125 -0.453125 0.28125 -1.53125q0.015625 -1.0625 0.15625 -4.09375q0.09375 -1.828125 0.46875 -2.921875q0.390625 -1.09375 1.03125 -1.859375q0.65625 -0.765625 1.65625 -1.34375q-1.3125 -0.84375 -1.90625 -1.65625q-0.828125 -1.15625 -1.125 -2.953125q-0.1875 -1.234375 -0.28125 -5.421875q-0.015625 -1.3125 -0.234375 -1.75q-0.21875 -0.4375 -0.796875 -0.671875q-0.5625 -0.25 -2.546875 -0.25l0 -4.1875l0.921875 0q2.375 0 3.640625 0.375q1.265625 0.359375 2.125 1.25q0.859375 0.875 1.171875 2.171875q0.3125 1.296875 0.3125 4.078125q0 3.203125 0.265625 4.1875q0.375 1.40625 1.171875 2.015625q0.796875 0.609375 2.40625 0.703125l0 4.21875z" fill-rule="nonzero"/><path fill="#000000" fill-opacity="0.0" d="m701.34375 122.7895l150.48816 0l0 67.874016l-150.48816 0z" fill-rule="evenodd"/><path fill="#351c75" d="m723.24646 159.47075l0 10.71875l-3.859375 0l0 -28.65625l8.46875 0q2.71875 0 4.71875 0.625q2.015625 0.625 3.328125 1.796875q1.328125 1.15625 1.96875 2.796875q0.65625 1.640625 0.65625 3.65625q0 2.0 -0.703125 3.671875q-0.6875 1.65625 -2.046875 2.859375q-1.34375 1.1875 -3.34375 1.859375q-2.0 0.671875 -4.578125 0.671875l-4.609375 0zm0 -3.078125l4.609375 0q1.65625 0 2.921875 -0.4375q1.28125 -0.453125 2.140625 -1.234375q0.859375 -0.796875 1.296875 -1.890625q0.4375 -1.09375 0.4375 -2.421875q0 -2.734375 -1.6875 -4.265625q-1.6875 -1.546875 -5.109375 -1.546875l-4.609375 0l0 11.796875zm22.486816 1.21875q0 4.28125 1.09375 8.3125q1.109375 4.03125 3.1875 7.6875q0.125 0.21875 0.15625 0.375q0.046875 0.15625 0.046875 0.328125q0 0.28125 -0.140625 0.453125q-0.140625 0.1875 -0.359375 0.328125l-1.578125 0.953125q-1.5 -2.296875 -2.5625 -4.5625q-1.046875 -2.25 -1.703125 -4.53125q-0.640625 -2.28125 -0.9375 -4.59375q-0.296875 -2.3125 -0.296875 -4.75q0 -2.421875 0.296875 -4.734375q0.296875 -2.328125 0.9375 -4.59375q0.65625 -2.28125 1.703125 -4.53125q1.0625 -2.265625 2.5625 -4.578125l1.578125 0.96875q0.21875 0.140625 0.359375 0.328125q0.140625 0.171875 0.140625 0.453125q0 0.3125 -0.203125 0.6875q-2.109375 3.640625 -3.203125 7.6875q-1.078125 4.03125 -1.078125 8.3125zm9.84375 4.078125q0 -1.265625 -0.703125 -2.0625q-0.703125 -0.8125 -2.046875 -0.8125l0 -2.140625q1.34375 0 2.046875 -0.796875q0.703125 -0.8125 0.703125 -2.09375q0 -1.0 -0.171875 -1.96875q-0.15625 -0.984375 -0.34375 -1.953125q-0.1875 -0.984375 -0.359375 -1.984375q-0.15625 -1.0 -0.15625 -2.046875q0 -1.375 0.40625 -2.53125q0.421875 -1.171875 1.25 -2.0q0.828125 -0.84375 2.0625 -1.296875q1.234375 -0.46875 2.875 -0.46875l1.046875 0l0 1.578125q0 0.390625 -0.28125 0.578125q-0.265625 0.1875 -0.515625 0.1875l-0.390625 0q-1.546875 0 -2.4375 1.015625q-0.890625 1.0 -0.890625 2.71875q0 1.125 0.140625 2.171875q0.140625 1.03125 0.3125 2.015625q0.1875 0.984375 0.328125 1.96875q0.140625 0.984375 0.140625 1.984375q0 0.75 -0.21875 1.40625q-0.21875 0.65625 -0.640625 1.171875q-0.40625 0.5 -0.953125 0.875q-0.546875 0.359375 -1.203125 0.546875q0.65625 0.171875 1.203125 0.546875q0.546875 0.375 0.953125 0.890625q0.421875 0.515625 0.640625 1.15625q0.21875 0.640625 0.21875 1.390625q0 1.0 -0.140625 1.984375q-0.140625 0.96875 -0.328125 1.96875q-0.171875 0.984375 -0.3125 2.03125q-0.140625 1.03125 -0.140625 2.15625q0 1.734375 0.890625 2.734375q0.890625 1.0 2.4375 1.0l0.390625 0q0.25 0 0.515625 0.171875q0.28125 0.1875 0.28125 0.59375l0 1.59375l-1.046875 0q-1.640625 0 -2.875 -0.46875q-1.234375 -0.46875 -2.0625 -1.3125q-0.828125 -0.84375 -1.25 -2.0q-0.40625 -1.15625 -0.40625 -2.546875q0 -1.03125 0.15625 -2.015625q0.171875 -1.0 0.359375 -1.984375q0.1875 -1.0 0.34375 -1.96875q0.171875 -0.984375 0.171875 -1.984375zm14.109375 5.78125l6.171875 0l0 -19.546875q0 -0.875 0.046875 -1.78125l-5.109375 4.390625q-0.203125 0.15625 -0.40625 0.234375q-0.203125 0.0625 -0.375 0.0625q-0.296875 0 -0.546875 -0.125q-0.234375 -0.140625 -0.359375 -0.3125l-1.109375 -1.546875l8.515625 -7.375l2.890625 0l0 26.0l5.640625 0l0 2.71875l-15.359375 0l0 -2.71875zm19.340576 0.265625q0 -0.46875 0.171875 -0.875q0.171875 -0.40625 0.484375 -0.71875q0.3125 -0.3125 0.75 -0.484375q0.4375 -0.1875 0.953125 -0.1875q0.609375 0 1.078125 0.21875q0.46875 0.21875 0.78125 0.609375q0.3125 0.390625 0.46875 0.90625q0.15625 0.5 0.15625 1.109375q0 0.890625 -0.265625 1.859375q-0.25 0.96875 -0.734375 1.921875q-0.484375 0.953125 -1.203125 1.84375q-0.703125 0.90625 -1.59375 1.671875l-0.609375 -0.578125q-0.25 -0.25 -0.25 -0.5625q0 -0.265625 0.28125 -0.546875q0.203125 -0.21875 0.5 -0.59375q0.3125 -0.359375 0.625 -0.84375q0.328125 -0.484375 0.59375 -1.0625q0.28125 -0.578125 0.390625 -1.234375l-0.25 0q-0.515625 0 -0.9375 -0.171875q-0.421875 -0.1875 -0.734375 -0.515625q-0.3125 -0.328125 -0.484375 -0.78125q-0.171875 -0.453125 -0.171875 -0.984375zm18.620605 -26.53125q1.828125 0 3.40625 0.546875q1.578125 0.53125 2.71875 1.5625q1.15625 1.03125 1.8125 2.515625q0.671875 1.484375 0.671875 3.359375q0 1.59375 -0.484375 2.953125q-0.484375 1.359375 -1.3125 2.609375q-0.8125 1.25 -1.890625 2.421875q-1.0625 1.171875 -2.25 2.390625l-7.546875 7.71875q0.796875 -0.21875 1.609375 -0.34375q0.828125 -0.125 1.59375 -0.125l9.59375 0q0.578125 0 0.921875 0.34375q0.34375 0.328125 0.34375 0.875l0 2.15625l-19.125 0l0 -1.21875q0 -0.375 0.140625 -0.78125q0.15625 -0.40625 0.5 -0.734375l9.1875 -9.21875q1.140625 -1.171875 2.078125 -2.234375q0.9375 -1.078125 1.609375 -2.15625q0.671875 -1.078125 1.03125 -2.1875q0.359375 -1.109375 0.359375 -2.375q0 -1.25 -0.40625 -2.203125q-0.390625 -0.953125 -1.09375 -1.5625q-0.703125 -0.625 -1.640625 -0.9375q-0.9375 -0.3125 -2.03125 -0.3125q-1.078125 0 -2.0 0.328125q-0.90625 0.3125 -1.625 0.890625q-0.703125 0.5625 -1.203125 1.34375q-0.484375 0.78125 -0.6875 1.71875q-0.15625 0.578125 -0.484375 0.84375q-0.3125 0.25 -0.828125 0.25q-0.109375 0 -0.21875 0q-0.109375 -0.015625 -0.25 -0.03125l-1.859375 -0.328125q0.28125 -1.953125 1.078125 -3.453125q0.8125 -1.515625 2.03125 -2.53125q1.234375 -1.03125 2.828125 -1.5625q1.59375 -0.53125 3.421875 -0.53125zm19.559387 20.484375q0 1.0 0.15625 1.984375q0.171875 0.96875 0.359375 1.96875q0.1875 0.984375 0.34375 1.984375q0.171875 0.984375 0.171875 2.015625q0 1.390625 -0.421875 2.546875q-0.421875 1.15625 -1.25 2.0q-0.8125 0.84375 -2.046875 1.3125q-1.234375 0.46875 -2.875 0.46875l-1.046875 0l0 -1.59375q0 -0.40625 0.265625 -0.59375q0.28125 -0.171875 0.53125 -0.171875l0.390625 0q1.546875 0 2.4375 -1.0q0.890625 -1.0 0.890625 -2.734375q0 -1.125 -0.140625 -2.15625q-0.140625 -1.046875 -0.328125 -2.03125q-0.171875 -1.0 -0.3125 -1.96875q-0.140625 -0.984375 -0.140625 -1.984375q0 -0.75 0.21875 -1.390625q0.21875 -0.640625 0.625 -1.15625q0.421875 -0.515625 0.96875 -0.890625q0.546875 -0.375 1.203125 -0.546875q-0.65625 -0.1875 -1.203125 -0.546875q-0.546875 -0.375 -0.96875 -0.875q-0.40625 -0.515625 -0.625 -1.171875q-0.21875 -0.65625 -0.21875 -1.40625q0 -1.0 0.140625 -1.984375q0.140625 -0.984375 0.3125 -1.96875q0.1875 -0.984375 0.328125 -2.015625q0.140625 -1.046875 0.140625 -2.171875q0 -1.71875 -0.890625 -2.71875q-0.890625 -1.015625 -2.4375 -1.015625l-0.390625 0q-0.25 0 -0.53125 -0.1875q-0.265625 -0.1875 -0.265625 -0.578125l0 -1.578125l1.046875 0q1.640625 0 2.875 0.46875q1.234375 0.453125 2.046875 1.296875q0.828125 0.828125 1.25 2.0q0.421875 1.15625 0.421875 2.53125q0 1.046875 -0.171875 2.046875q-0.15625 1.0 -0.34375 1.984375q-0.1875 0.96875 -0.359375 1.953125q-0.15625 0.96875 -0.15625 1.96875q0 1.28125 0.703125 2.09375q0.703125 0.796875 2.046875 0.796875l0 2.140625q-1.34375 0 -2.046875 0.8125q-0.703125 0.796875 -0.703125 2.0625zm9.578125 -4.078125q0 -4.28125 -1.09375 -8.3125q-1.078125 -4.046875 -3.171875 -7.6875q-0.203125 -0.375 -0.203125 -0.6875q0 -0.28125 0.140625 -0.453125q0.140625 -0.1875 0.359375 -0.328125l1.578125 -0.96875q1.5 2.3125 2.546875 4.578125q1.046875 2.25 1.6875 4.53125q0.65625 2.265625 0.953125 4.59375q0.3125 2.3125 0.3125 4.734375q0 2.4375 -0.3125 4.75q-0.296875 2.3125 -0.953125 4.59375q-0.640625 2.28125 -1.6875 4.53125q-1.046875 2.265625 -2.546875 4.5625l-1.578125 -0.953125q-0.21875 -0.140625 -0.359375 -0.328125q-0.140625 -0.171875 -0.140625 -0.453125q0 -0.171875 0.03125 -0.328125q0.046875 -0.15625 0.171875 -0.375q2.078125 -3.65625 3.171875 -7.6875q1.09375 -4.03125 1.09375 -8.3125z" fill-rule="nonzero"/><path fill="#b4a7d6" d="m139.96062 158.8521l0 0c0 -19.638718 31.340073 -35.55905 70.0 -35.55905l0 0c38.659943 0 70.000015 15.920334 70.000015 35.55905l0 0c0 19.638733 -31.340073 35.55905 -70.000015 35.55905l0 0c-38.659927 0 -70.0 -15.920319 -70.0 -35.55905z" fill-rule="evenodd"/><path stroke="#351c75" stroke-width="3.0" stroke-linejoin="round" stroke-linecap="butt" stroke-dasharray="24.0,9.0" d="m139.96062 158.8521l0 0c0 -19.638718 31.340073 -35.55905 70.0 -35.55905l0 0c38.659943 0 70.000015 15.920334 70.000015 35.55905l0 0c0 19.638733 -31.340073 35.55905 -70.000015 35.55905l0 0c-38.659927 0 -70.0 -15.920319 -70.0 -35.55905z" fill-rule="evenodd"/><path fill="#000000" d="m187.45085 164.70897l0 -4.21875q1.28125 -0.078125 1.921875 -0.390625q0.65625 -0.3125 1.125 -1.0625q0.484375 -0.75 0.65625 -1.875q0.140625 -0.84375 0.140625 -2.9375q0 -3.40625 0.3125 -4.75q0.3125 -1.34375 1.140625 -2.15625q0.828125 -0.828125 2.40625 -1.296875q1.078125 -0.3125 3.375 -0.3125l0.9375 0l0 4.1875q-1.953125 0 -2.515625 0.234375q-0.546875 0.21875 -0.8125 0.671875q-0.25 0.4375 -0.25 1.53125q0 1.109375 -0.171875 4.203125q-0.078125 1.734375 -0.453125 2.8125q-0.359375 1.078125 -0.9375 1.78125q-0.578125 0.703125 -1.75 1.46875q1.03125 0.59375 1.6875 1.390625q0.671875 0.796875 1.015625 1.953125q0.359375 1.140625 0.46875 3.046875q0.109375 2.921875 0.109375 3.734375q0 1.15625 0.28125 1.609375q0.28125 0.46875 0.859375 0.703125q0.578125 0.234375 2.46875 0.234375l0 4.21875l-0.9375 0q-2.359375 0 -3.625 -0.375q-1.265625 -0.375 -2.140625 -1.265625q-0.875 -0.875 -1.171875 -2.171875q-0.296875 -1.28125 -0.296875 -4.0625q0 -3.234375 -0.28125 -4.203125q-0.390625 -1.40625 -1.171875 -2.015625q-0.78125 -0.609375 -2.390625 -0.6875z" fill-rule="nonzero"/><path fill="#000000" d="m213.81999 153.44334q-1.171875 -1.359375 -3.859375 -1.359375q-2.71875 0 -4.53125 1.796875q-1.796875 1.8125 -1.796875 4.53125q0 1.921875 1.0625 3.375l9.125 -8.34375zm-3.859375 11.296875q2.71875 0 4.53125 -1.796875q1.796875 -1.8125 1.796875 -4.53125q0 -2.203125 -0.921875 -3.390625l-9.21875 8.453125q1.359375 1.265625 3.8125 1.265625zm0 2.109375q-3.171875 0 -5.34375 -1.921875l-2.140625 1.84375l-1.640625 -1.640625l2.140625 -1.859375q-1.453125 -1.703125 -1.453125 -4.859375q0 -3.609375 2.28125 -5.875q2.546875 -2.5625 6.15625 -2.5625q3.46875 0 5.375 1.90625l2.25 -1.96875l1.640625 1.640625l-2.296875 2.0q1.46875 1.84375 1.46875 4.859375q0 3.609375 -2.140625 5.734375q-2.6875 2.703125 -6.296875 2.703125z" fill-rule="nonzero"/><path fill="#000000" d="m232.33562 164.70897q-1.28125 0.0625 -1.9375 0.390625q-0.640625 0.3125 -1.109375 1.0625q-0.46875 0.734375 -0.65625 1.859375q-0.140625 0.84375 -0.140625 2.921875q0 3.40625 -0.3125 4.765625q-0.3125 1.359375 -1.140625 2.171875q-0.8125 0.8125 -2.421875 1.296875q-1.0625 0.3125 -3.375 0.3125l-0.921875 0l0 -4.21875q1.875 0 2.453125 -0.234375q0.578125 -0.234375 0.84375 -0.6875q0.28125 -0.453125 0.28125 -1.53125q0.015625 -1.0625 0.15625 -4.09375q0.09375 -1.828125 0.46875 -2.921875q0.390625 -1.09375 1.03125 -1.859375q0.65625 -0.765625 1.65625 -1.34375q-1.3125 -0.84375 -1.90625 -1.65625q-0.828125 -1.15625 -1.125 -2.953125q-0.1875 -1.234375 -0.28125 -5.421875q-0.015625 -1.3125 -0.234375 -1.75q-0.21875 -0.4375 -0.796875 -0.671875q-0.5625 -0.25 -2.546875 -0.25l0 -4.1875l0.921875 0q2.375 0 3.640625 0.375q1.265625 0.359375 2.125 1.25q0.859375 0.875 1.171875 2.171875q0.3125 1.296875 0.3125 4.078125q0 3.203125 0.265625 4.1875q0.375 1.40625 1.171875 2.015625q0.796875 0.609375 2.40625 0.703125l0 4.21875z" fill-rule="nonzero"/><path fill="#b4a7d6" d="m336.2992 103.92773l0 0c0 -19.638725 31.340057 -35.55905 70.0 -35.55905l0 0c38.659912 0 70.0 15.920326 70.0 35.55905l0 0c0 19.638725 -31.340088 35.55906 -70.0 35.55906l0 0c-38.659943 0 -70.0 -15.920334 -70.0 -35.55906z" fill-rule="evenodd"/><path stroke="#351c75" stroke-width="3.0" stroke-linejoin="round" stroke-linecap="butt" stroke-dasharray="24.0,9.0" d="m336.2992 103.92773l0 0c0 -19.638725 31.340057 -35.55905 70.0 -35.55905l0 0c38.659912 0 70.0 15.920326 70.0 35.55905l0 0c0 19.638725 -31.340088 35.55906 -70.0 35.55906l0 0c-38.659943 0 -70.0 -15.920334 -70.0 -35.55906z" fill-rule="evenodd"/><path fill="#000000" d="m383.3412 109.7846l0 -4.21875q1.28125 -0.078125 1.921875 -0.390625q0.65625 -0.3125 1.125 -1.0625q0.484375 -0.75 0.65625 -1.875q0.140625 -0.84375 0.140625 -2.9375q0 -3.40625 0.3125 -4.75q0.3125 -1.34375 1.140625 -2.15625q0.828125 -0.828125 2.40625 -1.296875q1.078125 -0.3125 3.375 -0.3125l0.9375 0l0 4.1875q-1.953125 0 -2.515625 0.234375q-0.546875 0.21875 -0.8125 0.671875q-0.25 0.4375 -0.25 1.53125q0 1.109375 -0.171875 4.203125q-0.078125 1.734375 -0.453125 2.8125q-0.359375 1.078125 -0.9375 1.78125q-0.578125 0.703125 -1.75 1.46875q1.03125 0.59375 1.6875 1.390625q0.671875 0.796875 1.015625 1.953125q0.359375 1.140625 0.46875 3.046875q0.109375 2.921875 0.109375 3.734375q0 1.15625 0.28125 1.609375q0.28125 0.46875 0.859375 0.703125q0.578125 0.234375 2.46875 0.234375l0 4.21875l-0.9375 0q-2.359375 0 -3.625 -0.375q-1.265625 -0.375 -2.140625 -1.265625q-0.875 -0.875 -1.171875 -2.171875q-0.296875 -1.28125 -0.296875 -4.0625q0 -3.234375 -0.28125 -4.203125q-0.390625 -1.40625 -1.171875 -2.015625q-0.78125 -0.609375 -2.390625 -0.6875zm27.11914 7.203125l-4.9375 0l0 -18.609375q-2.71875 2.53125 -6.390625 3.734375l0 -4.484375q1.9375 -0.625 4.203125 -2.390625q2.265625 -1.765625 3.109375 -4.125l4.015625 0l0 25.875zm18.66211 -7.203125q-1.28125 0.0625 -1.9375 0.390625q-0.640625 0.3125 -1.109375 1.0625q-0.46875 0.734375 -0.65625 1.859375q-0.140625 0.84375 -0.140625 2.921875q0 3.40625 -0.3125 4.765625q-0.3125 1.359375 -1.140625 2.171875q-0.8125 0.8125 -2.421875 1.296875q-1.0625 0.3125 -3.375 0.3125l-0.921875 0l0 -4.21875q1.875 0 2.453125 -0.234375q0.578125 -0.234375 0.84375 -0.6875q0.28125 -0.453125 0.28125 -1.53125q0.015625 -1.0625 0.15625 -4.09375q0.09375 -1.828125 0.46875 -2.921875q0.390625 -1.09375 1.03125 -1.859375q0.65625 -0.765625 1.65625 -1.34375q-1.3125 -0.84375 -1.90625 -1.65625q-0.828125 -1.15625 -1.125 -2.953125q-0.1875 -1.234375 -0.28125 -5.421875q-0.015625 -1.3125 -0.234375 -1.75q-0.21875 -0.4375 -0.796875 -0.671875q-0.5625 -0.25 -2.546875 -0.25l0 -4.1875l0.921875 0q2.375 0 3.640625 0.375q1.265625 0.359375 2.125 1.25q0.859375 0.875 1.171875 2.171875q0.3125 1.296875 0.3125 4.078125q0 3.203125 0.265625 4.1875q0.375 1.40625 1.171875 2.015625q0.796875 0.609375 2.40625 0.703125l0 4.21875z" fill-rule="nonzero"/><path fill="#b4a7d6" d="m336.3005 213.70447l0 0c0 -19.638718 31.340057 -35.55905 70.0 -35.55905l0 0c38.659912 0 70.0 15.920334 70.0 35.55905l0 0c0 19.638733 -31.340088 35.559067 -70.0 35.559067l0 0c-38.659943 0 -70.0 -15.920334 -70.0 -35.559067z" fill-rule="evenodd"/><path stroke="#351c75" stroke-width="3.0" stroke-linejoin="round" stroke-linecap="butt" stroke-dasharray="24.0,9.0" d="m336.3005 213.70447l0 0c0 -19.638718 31.340057 -35.55905 70.0 -35.55905l0 0c38.659912 0 70.0 15.920334 70.0 35.55905l0 0c0 19.638733 -31.340088 35.559067 -70.0 35.559067l0 0c-38.659943 0 -70.0 -15.920334 -70.0 -35.559067z" fill-rule="evenodd"/><path fill="#000000" d="m383.3425 219.56134l0 -4.21875q1.28125 -0.078125 1.921875 -0.390625q0.65625 -0.3125 1.125 -1.0625q0.484375 -0.75 0.65625 -1.875q0.140625 -0.84375 0.140625 -2.9375q0 -3.40625 0.3125 -4.75q0.3125 -1.34375 1.140625 -2.15625q0.828125 -0.828125 2.40625 -1.296875q1.078125 -0.3125 3.375 -0.3125l0.9375 0l0 4.1875q-1.953125 0 -2.515625 0.234375q-0.546875 0.21875 -0.8125 0.671875q-0.25 0.4375 -0.25 1.53125q0 1.109375 -0.171875 4.203125q-0.078125 1.734375 -0.453125 2.8125q-0.359375 1.078125 -0.9375 1.78125q-0.578125 0.703125 -1.75 1.46875q1.03125 0.59375 1.6875 1.390625q0.671875 0.796875 1.015625 1.953125q0.359375 1.140625 0.46875 3.046875q0.109375 2.921875 0.109375 3.734375q0 1.15625 0.28125 1.609375q0.28125 0.46875 0.859375 0.703125q0.578125 0.234375 2.46875 0.234375l0 4.21875l-0.9375 0q-2.359375 0 -3.625 -0.375q-1.265625 -0.375 -2.140625 -1.265625q-0.875 -0.875 -1.171875 -2.171875q-0.296875 -1.28125 -0.296875 -4.0625q0 -3.234375 -0.28125 -4.203125q-0.390625 -1.40625 -1.171875 -2.015625q-0.78125 -0.609375 -2.390625 -0.6875zm31.166016 2.609375l0 4.59375l-17.328125 0q0.28125 -2.609375 1.6875 -4.9375q1.40625 -2.328125 5.5625 -6.171875q3.34375 -3.109375 4.09375 -4.21875q1.015625 -1.53125 1.015625 -3.03125q0 -1.640625 -0.890625 -2.53125q-0.875 -0.890625 -2.4375 -0.890625q-1.546875 0 -2.46875 0.9375q-0.90625 0.921875 -1.046875 3.09375l-4.921875 -0.5q0.4375 -4.078125 2.75 -5.84375q2.328125 -1.78125 5.796875 -1.78125q3.828125 0 6.0 2.0625q2.1875 2.046875 2.1875 5.109375q0 1.734375 -0.625 3.3125q-0.625 1.578125 -1.984375 3.296875q-0.890625 1.140625 -3.234375 3.296875q-2.34375 2.140625 -2.96875 2.84375q-0.609375 0.703125 -1.0 1.359375l9.8125 0zm14.615234 -2.609375q-1.28125 0.0625 -1.9375 0.390625q-0.640625 0.3125 -1.109375 1.0625q-0.46875 0.734375 -0.65625 1.859375q-0.140625 0.84375 -0.140625 2.921875q0 3.40625 -0.3125 4.765625q-0.3125 1.359375 -1.140625 2.171875q-0.8125 0.8125 -2.421875 1.296875q-1.0625 0.3125 -3.375 0.3125l-0.921875 0l0 -4.21875q1.875 0 2.453125 -0.234375q0.578125 -0.234375 0.84375 -0.6875q0.28125 -0.453125 0.28125 -1.53125q0.015625 -1.0625 0.15625 -4.09375q0.09375 -1.828125 0.46875 -2.921875q0.390625 -1.09375 1.03125 -1.859375q0.65625 -0.765625 1.65625 -1.34375q-1.3125 -0.84375 -1.90625 -1.65625q-0.828125 -1.15625 -1.125 -2.953125q-0.1875 -1.234375 -0.28125 -5.421875q-0.015625 -1.3125 -0.234375 -1.75q-0.21875 -0.4375 -0.796875 -0.671875q-0.5625 -0.25 -2.546875 -0.25l0 -4.1875l0.921875 0q2.375 0 3.640625 0.375q1.265625 0.359375 2.125 1.25q0.859375 0.875 1.171875 2.171875q0.3125 1.296875 0.3125 4.078125q0 3.203125 0.265625 4.1875q0.375 1.40625 1.171875 2.015625q0.796875 0.609375 2.40625 0.703125l0 4.21875z" fill-rule="nonzero"/><path fill="#000000" fill-opacity="0.0" d="m336.2992 103.92773l-76.8504 29.79528" fill-rule="evenodd"/><path stroke="#351c75" stroke-width="3.0" stroke-linejoin="round" stroke-linecap="butt" d="m319.5164 110.434494l-60.067596 23.288513" fill-rule="evenodd"/><path stroke="#351c75" stroke-width="3.0" stroke-linecap="butt" d="m321.30762 115.05461l10.902435 -9.541504l-14.484894 0.30127716z" fill-rule="evenodd"/><path fill="#000000" fill-opacity="0.0" d="m336.3005 213.70447l-76.8504 -29.700775" fill-rule="evenodd"/><path stroke="#351c75" stroke-width="3.0" stroke-linejoin="round" stroke-linecap="butt" d="m319.51074 207.21565l-60.06064 -23.21196" fill-rule="evenodd"/><path stroke="#351c75" stroke-width="3.0" stroke-linecap="butt" d="m317.72446 211.83768l14.485199 0.28579712l-10.912598 -9.529846z" fill-rule="evenodd"/><path fill="#000000" fill-opacity="0.0" d="m553.1429 183.99681l-76.8504 29.70079" fill-rule="evenodd"/><path stroke="#351c75" stroke-width="3.0" stroke-linejoin="round" stroke-linecap="butt" d="m536.35315 190.48564l-60.06067 23.211975" fill-rule="evenodd"/><path stroke="#351c75" stroke-width="3.0" stroke-linecap="butt" d="m538.13947 195.10767l10.912598 -9.529846l-14.4852295 0.28579712z" fill-rule="evenodd"/><path fill="#000000" fill-opacity="0.0" d="m553.1429 133.70871l-76.8504 -29.795265" fill-rule="evenodd"/><path stroke="#351c75" stroke-width="3.0" stroke-linejoin="round" stroke-linecap="butt" d="m536.3601 127.20194l-60.067627 -23.288506" fill-rule="evenodd"/><path stroke="#351c75" stroke-width="3.0" stroke-linecap="butt" d="m534.56885 131.82205l14.484924 0.3012848l-10.902466 -9.541504z" fill-rule="evenodd"/><path fill="#000000" fill-opacity="0.0" d="m259.45142 62.791527l43.08661 0l0 66.26772l-43.08661 0z" fill-rule="evenodd"/><path fill="#434343" d="m285.35767 85.66152q-3.078125 0 -4.71875 1.640625q-1.78125 1.78125 -1.78125 4.25q0 2.625 1.78125 4.421875q1.640625 1.640625 4.71875 1.640625l16.4375 0l0 4.046875l-16.4375 0q-5.09375 0 -7.96875 -2.890625q-2.890625 -2.890625 -2.890625 -7.21875q0 -4.171875 2.890625 -7.0625q2.875 -2.890625 7.96875 -2.890625l16.4375 0l0 4.0625l-16.4375 0zm-10.5625 17.6875l27.0 0l0 4.046875l-27.0 0l0 -4.046875z" fill-rule="nonzero"/><path fill="#000000" fill-opacity="0.0" d="m259.45142 188.5705l43.08661 0l0 66.267715l-43.08661 0z" fill-rule="evenodd"/><path fill="#434343" d="m285.35767 211.44049q-3.078125 0 -4.71875 1.640625q-1.78125 1.78125 -1.78125 4.25q0 2.625 1.78125 4.421875q1.640625 1.640625 4.71875 1.640625l16.4375 0l0 4.046875l-16.4375 0q-5.09375 0 -7.96875 -2.890625q-2.890625 -2.890625 -2.890625 -7.21875q0 -4.171875 2.890625 -7.0625q2.875 -2.890625 7.96875 -2.890625l16.4375 0l0 4.0625l-16.4375 0zm-10.5625 17.6875l27.0 0l0 4.046875l-27.0 0l0 -4.046875z" fill-rule="nonzero"/><path fill="#000000" fill-opacity="0.0" d="m501.1732 62.791428l43.08658 0l0 66.267715l-43.08658 0z" fill-rule="evenodd"/><path fill="#434343" d="m527.0794 85.66143q-3.078125 0 -4.71875 1.640625q-1.78125 1.78125 -1.78125 4.25q0 2.625 1.78125 4.421875q1.640625 1.640625 4.71875 1.640625l16.4375 0l0 4.046875l-16.4375 0q-5.09375 0 -7.96875 -2.890625q-2.890625 -2.890625 -2.890625 -7.21875q0 -4.171875 2.890625 -7.0625q2.875 -2.890625 7.96875 -2.890625l16.4375 0l0 4.0625l-16.4375 0zm-10.5625 17.6875l27.0 0l0 4.046875l-27.0 0l0 -4.046875z" fill-rule="nonzero"/><path fill="#000000" fill-opacity="0.0" d="m501.1732 188.5705l43.08658 0l0 66.267715l-43.08658 0z" fill-rule="evenodd"/><path fill="#434343" d="m527.0794 211.44049q-3.078125 0 -4.71875 1.640625q-1.78125 1.78125 -1.78125 4.25q0 2.625 1.78125 4.421875q1.640625 1.640625 4.71875 1.640625l16.4375 0l0 4.046875l-16.4375 0q-5.09375 0 -7.96875 -2.890625q-2.890625 -2.890625 -2.890625 -7.21875q0 -4.171875 2.890625 -7.0625q2.875 -2.890625 7.96875 -2.890625l16.4375 0l0 4.0625l-16.4375 0zm-10.5625 17.6875l27.0 0l0 4.046875l-27.0 0l0 -4.046875z" fill-rule="nonzero"/><path fill="#000000" fill-opacity="0.0" d="m-14.586615 270.87665l218.55118 0l0 109.88977l-218.55118 0z" fill-rule="evenodd"/><path fill="#000000" d="m10.400324 315.71664l0 -26.71875l3.625 0l14.03125 20.984375l0 -20.984375l3.390625 0l0 26.71875l-3.625 0l-14.03125 -21.0l0 21.0l-3.390625 0zm39.25406 0l0 -2.84375q-2.25 3.28125 -6.140625 3.28125q-1.703125 0 -3.203125 -0.65625q-1.484375 -0.65625 -2.203125 -1.640625q-0.71875 -1.0 -1.0 -2.4375q-0.203125 -0.96875 -0.203125 -3.0625l0 -12.0l3.28125 0l0 10.734375q0 2.578125 0.203125 3.46875q0.296875 1.296875 1.296875 2.03125q1.015625 0.734375 2.484375 0.734375q1.484375 0 2.765625 -0.75q1.296875 -0.765625 1.828125 -2.0625q0.546875 -1.296875 0.546875 -3.78125l0 -10.375l3.28125 0l0 19.359375l-2.9375 0zm8.072632 0l0 -19.359375l2.9375 0l0 2.71875q0.921875 -1.421875 2.421875 -2.28125q1.5156212 -0.875 3.4531212 -0.875q2.15625 0 3.53125 0.890625q1.375 0.890625 1.9375 2.5q2.296875 -3.390625 5.96875 -3.390625q2.890625 0 4.4375 1.59375q1.546875 1.59375 1.546875 4.921875l0 13.28125l-3.265625 0l0 -12.1875q0 -1.96875 -0.328125 -2.828125q-0.3125 -0.875 -1.15625 -1.40625q-0.828125 -0.53125 -1.953125 -0.53125q-2.046875 0 -3.390625 1.359375q-1.34375 1.359375 -1.34375 4.34375l0 11.25l-3.28125 0l0 -12.578125q0 -2.1875 -0.8125 -3.28125q-0.796875 -1.09375 -2.625 -1.09375q-1.375 0 -2.5624962 0.734375q-1.171875 0.71875 -1.703125 2.125q-0.53125 1.40625 -0.53125 4.046875l0 10.046875l-3.28125 0zm34.125866 0l-3.046875 0l0 -26.71875l3.28125 0l0 9.53125q2.078125 -2.609375 5.3125 -2.609375q1.78125 0 3.375 0.71875q1.59375 0.71875 2.625 2.03125q1.03125 1.296875 1.609375 3.140625q0.59375 1.84375 0.59375 3.9375q0 4.96875 -2.46875 7.6875q-2.453125 2.71875 -5.90625 2.71875q-3.421875 0 -5.375 -2.859375l0 2.421875zm-0.03125 -9.828125q0 3.484375 0.9375 5.03125q1.5625 2.53125 4.203125 2.53125q2.140625 0 3.703125 -1.859375q1.578125 -1.875 1.578125 -5.578125q0 -3.78125 -1.5 -5.578125q-1.5 -1.8125 -3.640625 -1.8125q-2.15625 0 -3.71875 1.875q-1.5625 1.859375 -1.5625 5.390625zm31.025757 3.59375l3.375 0.421875q-0.796875 2.96875 -2.96875 4.609375q-2.15625 1.640625 -5.53125 1.640625q-4.25 0 -6.75 -2.609375q-2.484375 -2.625 -2.484375 -7.34375q0 -4.890625 2.515625 -7.578125q2.515625 -2.703125 6.53125 -2.703125q3.890625 0 6.34375 2.640625q2.453125 2.640625 2.453125 7.4375q0 0.296875 -0.015625 0.875l-14.4375 0q0.1875 3.1875 1.8125 4.890625q1.625 1.6875 4.046875 1.6875q1.796875 0 3.078125 -0.9375q1.28125 -0.953125 2.03125 -3.03125zm-10.78125 -5.296875l10.8125 0q-0.21875 -2.453125 -1.234375 -3.671875q-1.578125 -1.890625 -4.078125 -1.890625q-2.25 0 -3.796875 1.515625q-1.53125 1.5 -1.703125 4.046875zm18.244514 11.53125l0 -19.359375l2.953125 0l0 2.9375q1.125 -2.0625 2.078125 -2.71875q0.96875 -0.65625 2.109375 -0.65625q1.671875 0 3.375 1.0625l-1.125 3.046875q-1.203125 -0.71875 -2.40625 -0.71875q-1.078125 0 -1.9375 0.65625q-0.859375 0.640625 -1.21875 1.78125q-0.546875 1.75 -0.546875 3.828125l0 10.140625l-3.28125 0zm21.614014 -9.671875q0 -5.390625 3.0 -7.96875q2.484375 -2.15625 6.078125 -2.15625q4.0 0 6.53125 2.625q2.53125 2.609375 2.53125 7.21875q0 3.734375 -1.125 5.875q-1.109375 2.140625 -3.265625 3.328125q-2.140625 1.1875 -4.671875 1.1875q-4.0625 0 -6.578125 -2.609375q-2.5 -2.609375 -2.5 -7.5zm3.375 0q0 3.71875 1.625 5.5625q1.625 1.84375 4.078125 1.84375q2.453125 0 4.0625 -1.859375q1.625 -1.859375 1.625 -5.65625q0 -3.59375 -1.640625 -5.4375q-1.625 -1.859375 -4.046875 -1.859375q-2.453125 0 -4.078125 1.84375q-1.625 1.84375 -1.625 5.5625zm19.400757 9.671875l0 -16.8125l-2.90625 0l0 -2.546875l2.90625 0l0 -2.0625q0 -1.9375 0.34375 -2.890625q0.46875 -1.28125 1.65625 -2.0625q1.203125 -0.796875 3.359375 -0.796875q1.375 0 3.0625 0.328125l-0.5 2.859375q-1.015625 -0.1875 -1.9375 -0.1875q-1.484375 0 -2.109375 0.640625q-0.625 0.640625 -0.625 2.390625l0 1.78125l3.78125 0l0 2.546875l-3.78125 0l0 16.8125l-3.25 0z" fill-rule="nonzero"/><path fill="#000000" d="m34.676083 354.28226l3.375 0.421875q-0.796875 2.96875 -2.96875 4.609375q-2.15625 1.640625 -5.531252 1.640625q-4.25 0 -6.75 -2.609375q-2.484375 -2.625 -2.484375 -7.34375q0 -4.890625 2.515625 -7.578125q2.515625 -2.703125 6.53125 -2.703125q3.890627 0 6.343752 2.640625q2.453125 2.640625 2.453125 7.4375q0 0.296875 -0.015625 0.875l-14.437502 0q0.1875 3.1875 1.8125 4.890625q1.625 1.6875 4.046875 1.6875q1.796875 0 3.078127 -0.9375q1.28125 -0.953125 2.03125 -3.03125zm-10.781252 -5.296875l10.812502 0q-0.21875 -2.453125 -1.234375 -3.671875q-1.5781269 -1.890625 -4.078127 -1.890625q-2.25 0 -3.796875 1.515625q-1.53125 1.5 -1.703125 4.046875zm18.213259 11.53125l0 -26.71875l3.28125 0l0 26.71875l-3.28125 0zm21.621246 -6.234375l3.3749962 0.421875q-0.796875 2.96875 -2.96875 4.609375q-2.1562462 1.640625 -5.531246 1.640625q-4.25 0 -6.75 -2.609375q-2.484375 -2.625 -2.484375 -7.34375q0 -4.890625 2.515625 -7.578125q2.515625 -2.703125 6.53125 -2.703125q3.890625 0 6.343746 2.640625q2.453125 2.640625 2.453125 7.4375q0 0.296875 -0.015625 0.875l-14.437496 0q0.1875 3.1875 1.8125 4.890625q1.625 1.6875 4.046875 1.6875q1.796875 0 3.078125 -0.9375q1.28125 -0.953125 2.03125 -3.03125zm-10.78125 -5.296875l10.8125 0q-0.21875 -2.453125 -1.234375 -3.671875q-1.578125 -1.890625 -4.078125 -1.890625q-2.25 0 -3.796875 1.515625q-1.53125 1.5 -1.703125 4.046875zm18.275753 11.53125l0 -19.359375l2.9375 0l0 2.71875q0.921875 -1.421875 2.421875 -2.28125q1.515625 -0.875 3.453125 -0.875q2.15625 0 3.53125 0.890625q1.375 0.890625 1.9375 2.5q2.296875 -3.390625 5.96875 -3.390625q2.890625 0 4.4375 1.59375q1.546875 1.59375 1.546875 4.921875l0 13.28125l-3.265625 0l0 -12.1875q0 -1.96875 -0.328125 -2.828125q-0.3125 -0.875 -1.15625 -1.40625q-0.828125 -0.53125 -1.953125 -0.53125q-2.046875 0 -3.390625 1.359375q-1.34375 1.359375 -1.34375 4.34375l0 11.25l-3.28125 0l0 -12.578125q0 -2.1875 -0.8125 -3.28125q-0.796875 -1.09375 -2.625 -1.09375q-1.375 0 -2.5625 0.734375q-1.171875 0.71875 -1.703125 2.125q-0.53125 1.40625 -0.53125 4.046875l0 10.046875l-3.28125 0zm44.360245 -6.234375l3.375 0.421875q-0.796875 2.96875 -2.96875 4.609375q-2.15625 1.640625 -5.53125 1.640625q-4.25 0 -6.75 -2.609375q-2.484375 -2.625 -2.484375 -7.34375q0 -4.890625 2.515625 -7.578125q2.515625 -2.703125 6.53125 -2.703125q3.890625 0 6.34375 2.640625q2.453125 2.640625 2.453125 7.4375q0 0.296875 -0.015625 0.875l-14.4375 0q0.1875 3.1875 1.8125 4.890625q1.625 1.6875 4.046875 1.6875q1.796875 0 3.078125 -0.9375q1.28125 -0.953125 2.03125 -3.03125zm-10.78125 -5.296875l10.8125 0q-0.21875 -2.453125 -1.234375 -3.671875q-1.578125 -1.890625 -4.078125 -1.890625q-2.25 0 -3.796875 1.515625q-1.53125 1.5 -1.703125 4.046875zm18.275757 11.53125l0 -19.359375l2.953125 0l0 2.75q2.1406326 -3.1875 6.1718826 -3.1875q1.75 0 3.21875 0.640625q1.46875 0.625 2.1875 1.640625q0.734375 1.015625 1.03125 2.421875q0.171875 0.90625 0.171875 3.1875l0 11.90625l-3.28125 0l0 -11.78125q0 -2.0 -0.390625 -2.984375q-0.375 -1.0 -1.359375 -1.59375q-0.96875 -0.59375 -2.28125 -0.59375q-2.09375 0 -3.6250076 1.328125q-1.515625 1.328125 -1.515625 5.046875l0 10.578125l-3.28125 0zm27.932014 -2.9375l0.46875 2.90625q-1.375 0.28125 -2.46875 0.28125q-1.796875 0 -2.78125 -0.5625q-0.984375 -0.5625 -1.390625 -1.484375q-0.390625 -0.921875 -0.390625 -3.875l0 -11.140625l-2.40625 0l0 -2.546875l2.40625 0l0 -4.796875l3.265625 -1.96875l0 6.765625l3.296875 0l0 2.546875l-3.296875 0l0 11.328125q0 1.40625 0.171875 1.8125q0.171875 0.390625 0.5625 0.625q0.390625 0.234375 1.125 0.234375q0.546875 0 1.4375 -0.125zm1.8865814 -2.84375l3.25 -0.5q0.28125 1.9375 1.515625 2.984375q1.25 1.03125 3.5 1.03125q2.265625 0 3.359375 -0.90625q1.09375 -0.921875 1.09375 -2.171875q0 -1.109375 -0.96875 -1.75q-0.671875 -0.4375 -3.359375 -1.109375q-3.609375 -0.90625 -5.0 -1.5625q-1.390625 -0.671875 -2.125 -1.84375q-0.71875 -1.1875 -0.71875 -2.609375q0 -1.296875 0.59375 -2.390625q0.59375 -1.109375 1.625 -1.84375q0.765625 -0.5625 2.078125 -0.953125q1.328125 -0.390625 2.84375 -0.390625q2.265625 0 3.984375 0.65625q1.734375 0.65625 2.546875 1.78125q0.828125 1.125 1.140625 3.0l-3.21875 0.4375q-0.21875 -1.5 -1.265625 -2.328125q-1.046875 -0.84375 -2.953125 -0.84375q-2.265625 0 -3.234375 0.75q-0.96875 0.734375 -0.96875 1.75q0 0.625 0.40625 1.140625q0.40625 0.53125 1.265625 0.875q0.484375 0.1875 2.890625 0.84375q3.484375 0.921875 4.859375 1.515625q1.375 0.59375 2.15625 1.734375q0.78125 1.125 0.78125 2.796875q0 1.640625 -0.953125 3.09375q-0.953125 1.453125 -2.765625 2.25q-1.796875 0.78125 -4.078125 0.78125q-3.765625 0 -5.75 -1.5625q-1.984375 -1.578125 -2.53125 -4.65625z" fill-rule="nonzero"/><path fill="#000000" fill-opacity="0.0" d="m532.6404 158.85277l-252.69293 0" fill-rule="evenodd"/><path stroke="#351c75" stroke-width="3.0" stroke-linejoin="round" stroke-linecap="butt" stroke-dasharray="12.0,9.0" d="m514.6404 158.85277l-234.69293 0" fill-rule="evenodd"/><path stroke="#351c75" stroke-width="3.0" stroke-linecap="butt" d="m514.6404 163.80795l13.614319 -4.955185l-13.614319 -4.9552z" fill-rule="evenodd"/><path fill="#000000" fill-opacity="0.0" d="m83.25981 597.1837l783.7795 0l0 64.629944l-783.7795 0z" fill-rule="evenodd"/><path fill="#000000" d="m154.73631 632.64874l3.546875 0.90625q-1.109375 4.34375 -4.0 6.640625q-2.890625 2.28125 -7.0625 2.28125q-4.328125 0 -7.03125 -1.75q-2.703125 -1.765625 -4.125 -5.09375q-1.40625 -3.34375 -1.40625 -7.171875q0 -4.171875 1.59375 -7.28125q1.59375 -3.109375 4.53125 -4.71875q2.953125 -1.609375 6.484375 -1.609375q4.015625 0 6.75 2.046875q2.734375 2.03125 3.8125 5.734375l-3.484375 0.8125q-0.9375 -2.90625 -2.703125 -4.234375q-1.765625 -1.34375 -4.4375 -1.34375q-3.09375 0 -5.15625 1.484375q-2.0625 1.46875 -2.90625 3.96875q-0.84375 2.484375 -0.84375 5.125q0 3.40625 0.984375 5.953125q1.0 2.546875 3.09375 3.8125q2.109375 1.25 4.546875 1.25q2.96875 0 5.03125 -1.71875q2.0625 -1.71875 2.78125 -5.09375zm20.113434 6.984375q-1.828125 1.546875 -3.515625 2.1875q-1.6875 0.640625 -3.609375 0.640625q-3.1875 0 -4.90625 -1.546875q-1.71875 -1.5625 -1.71875 -4.0q0 -1.421875 0.640625 -2.59375q0.65625 -1.171875 1.703125 -1.875q1.046875 -0.71875 2.359375 -1.078125q0.96875 -0.265625 2.921875 -0.5q3.96875 -0.46875 5.84375 -1.125q0.03125 -0.671875 0.03125 -0.859375q0 -2.0 -0.9375 -2.828125q-1.25 -1.109375 -3.734375 -1.109375q-2.3125 0 -3.421875 0.8125q-1.09375 0.8125 -1.625 2.875l-3.21875 -0.4375q0.4375 -2.0625 1.4375 -3.328125q1.015625 -1.265625 2.90625 -1.953125q1.890625 -0.6875 4.390625 -0.6875q2.484375 0 4.03125 0.59375q1.546875 0.578125 2.28125 1.46875q0.734375 0.875 1.015625 2.21875q0.171875 0.84375 0.171875 3.03125l0 4.375q0 4.578125 0.203125 5.796875q0.21875 1.203125 0.828125 2.3125l-3.421875 0q-0.515625 -1.015625 -0.65625 -2.390625zm-0.28125 -7.328125q-1.78125 0.734375 -5.359375 1.25q-2.015625 0.28125 -2.859375 0.65625q-0.828125 0.359375 -1.296875 1.0625q-0.453125 0.703125 -0.453125 1.5625q0 1.3125 0.984375 2.1875q1.0 0.875 2.921875 0.875q1.890625 0 3.359375 -0.828125q1.484375 -0.84375 2.1875 -2.28125q0.515625 -1.109375 0.515625 -3.28125l0 -1.203125zm15.572632 6.78125l0.46875 2.90625q-1.375 0.28125 -2.46875 0.28125q-1.796875 0 -2.78125 -0.5625q-0.984375 -0.5625 -1.390625 -1.484375q-0.390625 -0.921875 -0.390625 -3.875l0 -11.140625l-2.40625 0l0 -2.546875l2.40625 0l0 -4.796875l3.265625 -1.96875l0 6.765625l3.296875 0l0 2.546875l-3.296875 0l0 11.328125q0 1.40625 0.171875 1.8125q0.171875 0.390625 0.5625 0.625q0.390625 0.234375 1.125 0.234375q0.546875 0 1.4375 -0.125zm16.464706 -3.296875l3.375 0.421875q-0.796875 2.96875 -2.96875 4.609375q-2.15625 1.640625 -5.53125 1.640625q-4.25 0 -6.75 -2.609375q-2.484375 -2.625 -2.484375 -7.34375q0 -4.890625 2.515625 -7.578125q2.515625 -2.703125 6.53125 -2.703125q3.890625 0 6.34375 2.640625q2.453125 2.640625 2.453125 7.4375q0 0.296875 -0.015625 0.875l-14.4375 0q0.1875 3.1875 1.8125 4.890625q1.625 1.6875 4.046875 1.6875q1.796875 0 3.078125 -0.9375q1.28125 -0.953125 2.03125 -3.03125zm-10.78125 -5.296875l10.8125 0q-0.21875 -2.453125 -1.234375 -3.671875q-1.578125 -1.890625 -4.078125 -1.890625q-2.25 0 -3.796875 1.515625q-1.53125 1.5 -1.703125 4.046875zm17.682007 13.140625l3.1875 0.46875q0.203125 1.46875 1.109375 2.15625q1.21875 0.90625 3.34375 0.90625q2.28125 0 3.515625 -0.921875q1.234375 -0.90625 1.671875 -2.546875q0.265625 -1.0 0.234375 -4.203125q-2.140625 2.53125 -5.359375 2.53125q-3.984375 0 -6.171875 -2.875q-2.1875 -2.890625 -2.1875 -6.90625q0 -2.78125 1.0 -5.125q1.0 -2.34375 2.90625 -3.609375q1.90625 -1.28125 4.484375 -1.28125q3.421875 0 5.640625 2.765625l0 -2.328125l3.03125 0l0 16.734375q0 4.515625 -0.921875 6.40625q-0.921875 1.890625 -2.921875 2.984375q-1.984375 1.09375 -4.90625 1.09375q-3.46875 0 -5.609375 -1.5625q-2.125 -1.5625 -2.046875 -4.6875zm2.71875 -11.640625q0 3.8125 1.5 5.5625q1.515625 1.75 3.796875 1.75q2.265625 0 3.796875 -1.734375q1.53125 -1.75 1.53125 -5.46875q0 -3.546875 -1.578125 -5.34375q-1.578125 -1.8125 -3.796875 -1.8125q-2.1875 0 -3.71875 1.78125q-1.53125 1.765625 -1.53125 5.265625zm17.416382 0.359375q0 -5.390625 3.0 -7.96875q2.484375 -2.15625 6.078125 -2.15625q4.0 0 6.53125 2.625q2.53125 2.609375 2.53125 7.21875q0 3.734375 -1.125 5.875q-1.109375 2.140625 -3.265625 3.328125q-2.140625 1.1875 -4.671875 1.1875q-4.0625 0 -6.578125 -2.609375q-2.5 -2.609375 -2.5 -7.5zm3.375 0q0 3.71875 1.625 5.5625q1.625 1.84375 4.078125 1.84375q2.453125 0 4.0625 -1.859375q1.625 -1.859375 1.625 -5.65625q0 -3.59375 -1.640625 -5.4375q-1.625 -1.859375 -4.046875 -1.859375q-2.453125 0 -4.078125 1.84375q-1.625 1.84375 -1.625 5.5625zm18.572632 9.671875l0 -19.359375l2.953125 0l0 2.9375q1.125 -2.0625 2.078125 -2.71875q0.96875 -0.65625 2.109375 -0.65625q1.671875 0 3.375 1.0625l-1.125 3.046875q-1.203125 -0.71875 -2.40625 -0.71875q-1.078125 0 -1.9375 0.65625q-0.859375 0.640625 -1.21875 1.78125q-0.546875 1.75 -0.546875 3.828125l0 10.140625l-3.28125 0zm12.321167 7.453125l-0.359375 -3.078125q1.078125 0.296875 1.875 0.296875q1.09375 0 1.75 -0.375q0.65625 -0.359375 1.078125 -1.015625q0.3125 -0.5 1.0 -2.4375q0.09375 -0.28125 0.296875 -0.8125l-7.359375 -19.390625l3.546875 0l4.03125 11.21875q0.78125 2.125 1.390625 4.484375q0.578125 -2.265625 1.359375 -4.421875l4.140625 -11.28125l3.28125 0l-7.375 19.6875q-1.1875 3.1875 -1.84375 4.390625q-0.875 1.625 -2.0 2.375q-1.125 0.765625 -2.703125 0.765625q-0.9375 0 -2.109375 -0.40625zm27.95691 -17.125q0 -5.390625 3.0 -7.96875q2.484375 -2.15625 6.078125 -2.15625q4.0 0 6.53125 2.625q2.53125 2.609375 2.53125 7.21875q0 3.734375 -1.125 5.875q-1.109375 2.140625 -3.265625 3.328125q-2.140625 1.1875 -4.671875 1.1875q-4.0625 0 -6.578125 -2.609375q-2.5 -2.609375 -2.5 -7.5zm3.375 0q0 3.71875 1.625 5.5625q1.625 1.84375 4.078125 1.84375q2.453125 0 4.0625 -1.859375q1.625 -1.859375 1.625 -5.65625q0 -3.59375 -1.640625 -5.4375q-1.625 -1.859375 -4.046875 -1.859375q-2.453125 0 -4.078125 1.84375q-1.625 1.84375 -1.625 5.5625zm19.400757 9.671875l0 -16.8125l-2.90625 0l0 -2.546875l2.90625 0l0 -2.0625q0 -1.9375 0.34375 -2.890625q0.46875 -1.28125 1.65625 -2.0625q1.203125 -0.796875 3.359375 -0.796875q1.375 0 3.0625 0.328125l-0.5 2.859375q-1.015625 -0.1875 -1.9375 -0.1875q-1.484375 0 -2.109375 0.640625q-0.625 0.640625 -0.625 2.390625l0 1.78125l3.78125 0l0 2.546875l-3.78125 0l0 16.8125l-3.25 0zm19.945038 7.421875l0 -26.78125l3.0 0l0 2.515625q1.046875 -1.46875 2.375 -2.203125q1.34375 -0.75 3.234375 -0.75q2.484375 0 4.375 1.28125q1.890625 1.265625 2.859375 3.59375q0.96875 2.328125 0.96875 5.09375q0 2.96875 -1.0625 5.359375q-1.0625 2.375 -3.109375 3.640625q-2.03125 1.265625 -4.265625 1.265625q-1.640625 0 -2.953125 -0.6875q-1.296875 -0.703125 -2.140625 -1.75l0 9.421875l-3.28125 0zm2.984375 -16.984375q0 3.734375 1.5 5.515625q1.515625 1.78125 3.671875 1.78125q2.1875 0 3.734375 -1.84375q1.5625 -1.84375 1.5625 -5.734375q0 -3.703125 -1.515625 -5.53125q-1.515625 -1.84375 -3.640625 -1.84375q-2.09375 0 -3.703125 1.953125q-1.609375 1.953125 -1.609375 5.703125zm17.744507 9.5625l0 -19.359375l2.953125 0l0 2.9375q1.125 -2.0625 2.078125 -2.71875q0.96875 -0.65625 2.109375 -0.65625q1.671875 0 3.375 1.0625l-1.125 3.046875q-1.203125 -0.71875 -2.40625 -0.71875q-1.078125 0 -1.9375 0.65625q-0.859375 0.640625 -1.21875 1.78125q-0.546875 1.75 -0.546875 3.828125l0 10.140625l-3.28125 0zm25.727417 -6.234375l3.375 0.421875q-0.796875 2.96875 -2.96875 4.609375q-2.15625 1.640625 -5.53125 1.640625q-4.25 0 -6.75 -2.609375q-2.484375 -2.625 -2.484375 -7.34375q0 -4.890625 2.515625 -7.578125q2.515625 -2.703125 6.53125 -2.703125q3.890625 0 6.34375 2.640625q2.453125 2.640625 2.453125 7.4375q0 0.296875 -0.015625 0.875l-14.4375 0q0.1875 3.1875 1.8125 4.890625q1.625 1.6875 4.046875 1.6875q1.796875 0 3.078125 -0.9375q1.28125 -0.953125 2.03125 -3.03125zm-10.78125 -5.296875l10.8125 0q-0.21875 -2.453125 -1.234375 -3.671875q-1.578125 -1.890625 -4.078125 -1.890625q-2.25 0 -3.796875 1.515625q-1.53125 1.5 -1.703125 4.046875zm17.057007 1.859375q0 -5.390625 3.0 -7.96875q2.484375 -2.15625 6.078125 -2.15625q4.0 0 6.53125 2.625q2.53125 2.609375 2.53125 7.21875q0 3.734375 -1.125 5.875q-1.109375 2.140625 -3.265625 3.328125q-2.140625 1.1875 -4.671875 1.1875q-4.0625 0 -6.578125 -2.609375q-2.5 -2.609375 -2.5 -7.5zm3.375 0q0 3.71875 1.625 5.5625q1.625 1.84375 4.078125 1.84375q2.453125 0 4.0625 -1.859375q1.625 -1.859375 1.625 -5.65625q0 -3.59375 -1.640625 -5.4375q-1.625 -1.859375 -4.046875 -1.859375q-2.453125 0 -4.078125 1.84375q-1.625 1.84375 -1.625 5.5625zm18.572632 9.671875l0 -19.359375l2.953125 0l0 2.9375q1.125 -2.0625 2.078125 -2.71875q0.96875 -0.65625 2.109375 -0.65625q1.671875 0 3.375 1.0625l-1.125 3.046875q-1.203125 -0.71875 -2.40625 -0.71875q-1.078125 0 -1.9375 0.65625q-0.859375 0.640625 -1.21875 1.78125q-0.546875 1.75 -0.546875 3.828125l0 10.140625l-3.28125 0zm25.024292 0l0 -2.4375q-1.84375 2.875 -5.40625 2.875q-2.3125 0 -4.265625 -1.265625q-1.9375 -1.28125 -3.0 -3.5625q-1.0625 -2.296875 -1.0625 -5.265625q0 -2.90625 0.953125 -5.265625q0.96875 -2.359375 2.90625 -3.609375q1.9375 -1.265625 4.3125 -1.265625q1.75 0 3.109375 0.75q1.375 0.734375 2.234375 1.90625l0 -9.578125l3.265625 0l0 26.71875l-3.046875 0zm-10.375 -9.65625q0 3.71875 1.5625 5.5625q1.578125 1.828125 3.71875 1.828125q2.140625 0 3.640625 -1.75q1.515625 -1.765625 1.515625 -5.375q0 -3.96875 -1.53125 -5.828125q-1.53125 -1.859375 -3.78125 -1.859375q-2.1875 0 -3.65625 1.796875q-1.46875 1.78125 -1.46875 5.625zm31.838257 3.421875l3.375 0.421875q-0.796875 2.96875 -2.96875 4.609375q-2.15625 1.640625 -5.53125 1.640625q-4.25 0 -6.75 -2.609375q-2.484375 -2.625 -2.484375 -7.34375q0 -4.890625 2.515625 -7.578125q2.515625 -2.703125 6.53125 -2.703125q3.890625 0 6.34375 2.640625q2.453125 2.640625 2.453125 7.4375q0 0.296875 -0.015625 0.875l-14.4375 0q0.1875 3.1875 1.8125 4.890625q1.625 1.6875 4.046875 1.6875q1.796875 0 3.078125 -0.9375q1.28125 -0.953125 2.03125 -3.03125zm-10.78125 -5.296875l10.8125 0q-0.21875 -2.453125 -1.234375 -3.671875q-1.578125 -1.890625 -4.078125 -1.890625q-2.25 0 -3.796875 1.515625q-1.53125 1.5 -1.703125 4.046875zm18.244507 11.53125l0 -19.359375l2.953125 0l0 2.9375q1.125 -2.0625 2.078125 -2.71875q0.96875 -0.65625 2.109375 -0.65625q1.671875 0 3.375 1.0625l-1.125 3.046875q-1.203125 -0.71875 -2.40625 -0.71875q-1.078125 0 -1.9375 0.65625q-0.859375 0.640625 -1.21875 1.78125q-0.546875 1.75 -0.546875 3.828125l0 10.140625l-3.28125 0zm11.149292 -5.78125l3.25 -0.5q0.28125 1.9375 1.515625 2.984375q1.25 1.03125 3.5 1.03125q2.265625 0 3.359375 -0.90625q1.09375 -0.921875 1.09375 -2.171875q0 -1.109375 -0.96875 -1.75q-0.671875 -0.4375 -3.359375 -1.109375q-3.609375 -0.90625 -5.0 -1.5625q-1.390625 -0.671875 -2.125 -1.84375q-0.71875 -1.1875 -0.71875 -2.609375q0 -1.296875 0.59375 -2.390625q0.59375 -1.109375 1.625 -1.84375q0.765625 -0.5625 2.078125 -0.953125q1.328125 -0.390625 2.84375 -0.390625q2.265625 0 3.984375 0.65625q1.734375 0.65625 2.546875 1.78125q0.828125 1.125 1.140625 3.0l-3.21875 0.4375q-0.21875 -1.5 -1.265625 -2.328125q-1.046875 -0.84375 -2.953125 -0.84375q-2.265625 0 -3.234375 0.75q-0.96875 0.734375 -0.96875 1.75q0 0.625 0.40625 1.140625q0.40625 0.53125 1.265625 0.875q0.484375 0.1875 2.890625 0.84375q3.484375 0.921875 4.859375 1.515625q1.375 0.59375 2.15625 1.734375q0.78125 1.125 0.78125 2.796875q0 1.640625 -0.953125 3.09375q-0.953125 1.453125 -2.765625 2.25q-1.796875 0.78125 -4.078125 0.78125q-3.765625 0 -5.75 -1.5625q-1.984375 -1.578125 -2.53125 -4.65625zm29.128784 -3.890625q0 -5.390625 3.0 -7.96875q2.4844055 -2.15625 6.0781555 -2.15625q4.0 0 6.53125 2.625q2.53125 2.609375 2.53125 7.21875q0 3.734375 -1.125 5.875q-1.109375 2.140625 -3.265625 3.328125q-2.140625 1.1875 -4.671875 1.1875q-4.0625 0 -6.5781555 -2.609375q-2.5 -2.609375 -2.5 -7.5zm3.375 0q0 3.71875 1.6250305 5.5625q1.625 1.84375 4.078125 1.84375q2.453125 0 4.0625 -1.859375q1.625 -1.859375 1.625 -5.65625q0 -3.59375 -1.640625 -5.4375q-1.625 -1.859375 -4.046875 -1.859375q-2.453125 0 -4.078125 1.84375q-1.6250305 1.84375 -1.6250305 5.5625zm19.400787 9.671875l0 -16.8125l-2.90625 0l0 -2.546875l2.90625 0l0 -2.0625q0 -1.9375 0.34375 -2.890625q0.46875 -1.28125 1.65625 -2.0625q1.203125 -0.796875 3.359375 -0.796875q1.375 0 3.0625 0.328125l-0.5 2.859375q-1.015625 -0.1875 -1.9375 -0.1875q-1.484375 0 -2.109375 0.640625q-0.625 0.640625 -0.625 2.390625l0 1.78125l3.78125 0l0 2.546875l-3.78125 0l0 16.8125l-3.25 0zm19.945068 0l0 -19.359375l2.953125 0l0 2.75q2.140625 -3.1875 6.171875 -3.1875q1.75 0 3.21875 0.640625q1.46875 0.625 2.1875 1.640625q0.734375 1.015625 1.03125 2.421875q0.171875 0.90625 0.171875 3.1875l0 11.90625l-3.28125 0l0 -11.78125q0 -2.0 -0.390625 -2.984375q-0.375 -1.0 -1.359375 -1.59375q-0.96875 -0.59375 -2.28125 -0.59375q-2.09375 0 -3.625 1.328125q-1.515625 1.328125 -1.515625 5.046875l0 10.578125l-3.28125 0zm33.400757 -2.390625q-1.828125 1.546875 -3.515625 2.1875q-1.6875 0.640625 -3.609375 0.640625q-3.1875 0 -4.90625 -1.546875q-1.71875 -1.5625 -1.71875 -4.0q0 -1.421875 0.640625 -2.59375q0.65625 -1.171875 1.703125 -1.875q1.046875 -0.71875 2.359375 -1.078125q0.96875 -0.265625 2.921875 -0.5q3.96875 -0.46875 5.84375 -1.125q0.03125 -0.671875 0.03125 -0.859375q0 -2.0 -0.9375 -2.828125q-1.25 -1.109375 -3.734375 -1.109375q-2.3125 0 -3.421875 0.8125q-1.09375 0.8125 -1.625 2.875l-3.21875 -0.4375q0.4375 -2.0625 1.4375 -3.328125q1.015625 -1.265625 2.90625 -1.953125q1.890625 -0.6875 4.390625 -0.6875q2.484375 0 4.03125 0.59375q1.546875 0.578125 2.28125 1.46875q0.734375 0.875 1.015625 2.21875q0.171875 0.84375 0.171875 3.03125l0 4.375q0 4.578125 0.203125 5.796875q0.21875 1.203125 0.828125 2.3125l-3.421875 0q-0.515625 -1.015625 -0.65625 -2.390625zm-0.28125 -7.328125q-1.78125 0.734375 -5.359375 1.25q-2.015625 0.28125 -2.859375 0.65625q-0.828125 0.359375 -1.296875 1.0625q-0.453125 0.703125 -0.453125 1.5625q0 1.3125 0.984375 2.1875q1.0 0.875 2.921875 0.875q1.890625 0 3.359375 -0.828125q1.484375 -0.84375 2.1875 -2.28125q0.515625 -1.109375 0.515625 -3.28125l0 -1.203125zm15.572632 6.78125l0.46875 2.90625q-1.375 0.28125 -2.46875 0.28125q-1.796875 0 -2.78125 -0.5625q-0.984375 -0.5625 -1.390625 -1.484375q-0.390625 -0.921875 -0.390625 -3.875l0 -11.140625l-2.40625 0l0 -2.546875l2.40625 0l0 -4.796875l3.265625 -1.96875l0 6.765625l3.296875 0l0 2.546875l-3.296875 0l0 11.328125q0 1.40625 0.171875 1.8125q0.171875 0.390625 0.5625 0.625q0.390625 0.234375 1.125 0.234375q0.546875 0 1.4375 -0.125zm15.886597 2.9375l0 -2.84375q-2.25 3.28125 -6.140625 3.28125q-1.703125 0 -3.203125 -0.65625q-1.484375 -0.65625 -2.203125 -1.640625q-0.71875 -1.0 -1.0 -2.4375q-0.203125 -0.96875 -0.203125 -3.0625l0 -12.0l3.28125 0l0 10.734375q0 2.578125 0.203125 3.46875q0.296875 1.296875 1.296875 2.03125q1.015625 0.734375 2.484375 0.734375q1.484375 0 2.765625 -0.75q1.296875 -0.765625 1.828125 -2.0625q0.546875 -1.296875 0.546875 -3.78125l0 -10.375l3.28125 0l0 19.359375l-2.9375 0zm8.041382 0l0 -19.359375l2.953125 0l0 2.9375q1.125 -2.0625 2.078125 -2.71875q0.96875 -0.65625 2.109375 -0.65625q1.671875 0 3.375 1.0625l-1.125 3.046875q-1.203125 -0.71875 -2.40625 -0.71875q-1.078125 0 -1.9375 0.65625q-0.859375 0.640625 -1.21875 1.78125q-0.546875 1.75 -0.546875 3.828125l0 10.140625l-3.28125 0zm25.102417 -2.390625q-1.828125 1.546875 -3.515625 2.1875q-1.6875 0.640625 -3.609375 0.640625q-3.1875 0 -4.90625 -1.546875q-1.71875 -1.5625 -1.71875 -4.0q0 -1.421875 0.640625 -2.59375q0.65625 -1.171875 1.703125 -1.875q1.046875 -0.71875 2.359375 -1.078125q0.96875 -0.265625 2.921875 -0.5q3.96875 -0.46875 5.84375 -1.125q0.03125 -0.671875 0.03125 -0.859375q0 -2.0 -0.9375 -2.828125q-1.25 -1.109375 -3.734375 -1.109375q-2.3125 0 -3.421875 0.8125q-1.09375 0.8125 -1.625 2.875l-3.21875 -0.4375q0.4375 -2.0625 1.4375 -3.328125q1.015625 -1.265625 2.90625 -1.953125q1.890625 -0.6875 4.390625 -0.6875q2.484375 0 4.03125 0.59375q1.546875 0.578125 2.28125 1.46875q0.734375 0.875 1.015625 2.21875q0.171875 0.84375 0.171875 3.03125l0 4.375q0 4.578125 0.203125 5.796875q0.21875 1.203125 0.828125 2.3125l-3.421875 0q-0.515625 -1.015625 -0.65625 -2.390625zm-0.28125 -7.328125q-1.78125 0.734375 -5.359375 1.25q-2.015625 0.28125 -2.859375 0.65625q-0.828125 0.359375 -1.296875 1.0625q-0.453125 0.703125 -0.453125 1.5625q0 1.3125 0.984375 2.1875q1.0 0.875 2.921875 0.875q1.890625 0 3.359375 -0.828125q1.484375 -0.84375 2.1875 -2.28125q0.515625 -1.109375 0.515625 -3.28125l0 -1.203125zm8.338257 9.71875l0 -26.71875l3.28125 0l0 26.71875l-3.28125 0zm18.726562 0l0 -19.359375l2.953125 0l0 2.75q2.140625 -3.1875 6.171875 -3.1875q1.75 0 3.21875 0.640625q1.46875 0.625 2.1875 1.640625q0.734375 1.015625 1.03125 2.421875q0.171875 0.90625 0.171875 3.1875l0 11.90625l-3.28125 0l0 -11.78125q0 -2.0 -0.390625 -2.984375q-0.375 -1.0 -1.359375 -1.59375q-0.96875 -0.59375 -2.28125 -0.59375q-2.09375 0 -3.625 1.328125q-1.515625 1.328125 -1.515625 5.046875l0 10.578125l-3.28125 0zm33.44763 0l0 -2.84375q-2.25 3.28125 -6.140625 3.28125q-1.703125 0 -3.203125 -0.65625q-1.484375 -0.65625 -2.203125 -1.640625q-0.71875 -1.0 -1.0 -2.4375q-0.203125 -0.96875 -0.203125 -3.0625l0 -12.0l3.28125 0l0 10.734375q0 2.578125 0.203125 3.46875q0.296875 1.296875 1.296875 2.03125q1.015625 0.734375 2.484375 0.734375q1.484375 0 2.765625 -0.75q1.296875 -0.765625 1.828125 -2.0625q0.546875 -1.296875 0.546875 -3.78125l0 -10.375l3.28125 0l0 19.359375l-2.9375 0zm8.072632 0l0 -19.359375l2.9375 0l0 2.71875q0.921875 -1.421875 2.421875 -2.28125q1.515625 -0.875 3.453125 -0.875q2.15625 0 3.53125 0.890625q1.375 0.890625 1.9375 2.5q2.296875 -3.390625 5.96875 -3.390625q2.890625 0 4.4375 1.59375q1.546875 1.59375 1.546875 4.921875l0 13.28125l-3.265625 0l0 -12.1875q0 -1.96875 -0.328125 -2.828125q-0.3125 -0.875 -1.15625 -1.40625q-0.828125 -0.53125 -1.953125 -0.53125q-2.046875 0 -3.390625 1.359375q-1.34375 1.359375 -1.34375 4.34375l0 11.25l-3.28125 0l0 -12.578125q0 -2.1875 -0.8125 -3.28125q-0.796875 -1.09375 -2.625 -1.09375q-1.375 0 -2.5625 0.734375q-1.171875 0.71875 -1.703125 2.125q-0.53125 1.40625 -0.53125 4.046875l0 10.046875l-3.28125 0zm34.125854 0l-3.046875 0l0 -26.71875l3.28125 0l0 9.53125q2.078125 -2.609375 5.3125 -2.609375q1.78125 0 3.375 0.71875q1.59375 0.71875 2.625 2.03125q1.03125 1.296875 1.609375 3.140625q0.59375 1.84375 0.59375 3.9375q0 4.96875 -2.46875 7.6875q-2.453125 2.71875 -5.90625 2.71875q-3.421875 0 -5.375 -2.859375l0 2.421875zm-0.03125 -9.828125q0 3.484375 0.9375 5.03125q1.5625 2.53125 4.203125 2.53125q2.140625 0 3.703125 -1.859375q1.578125 -1.875 1.578125 -5.578125q0 -3.78125 -1.5 -5.578125q-1.5 -1.8125 -3.640625 -1.8125q-2.15625 0 -3.71875 1.875q-1.5625 1.859375 -1.5625 5.390625zm31.025757 3.59375l3.375 0.421875q-0.796875 2.96875 -2.96875 4.609375q-2.15625 1.640625 -5.53125 1.640625q-4.25 0 -6.75 -2.609375q-2.484375 -2.625 -2.484375 -7.34375q0 -4.890625 2.515625 -7.578125q2.515625 -2.703125 6.53125 -2.703125q3.890625 0 6.34375 2.640625q2.453125 2.640625 2.453125 7.4375q0 0.296875 -0.015625 0.875l-14.4375 0q0.1875 3.1875 1.8125 4.890625q1.625 1.6875 4.046875 1.6875q1.796875 0 3.078125 -0.9375q1.28125 -0.953125 2.03125 -3.03125zm-10.78125 -5.296875l10.8125 0q-0.21875 -2.453125 -1.234375 -3.671875q-1.578125 -1.890625 -4.078125 -1.890625q-2.25 0 -3.796875 1.515625q-1.53125 1.5 -1.703125 4.046875zm18.244507 11.53125l0 -19.359375l2.953125 0l0 2.9375q1.125 -2.0625 2.078125 -2.71875q0.96875 -0.65625 2.109375 -0.65625q1.671875 0 3.375 1.0625l-1.125 3.046875q-1.203125 -0.71875 -2.40625 -0.71875q-1.078125 0 -1.9375 0.65625q-0.859375 0.640625 -1.21875 1.78125q-0.546875 1.75 -0.546875 3.828125l0 10.140625l-3.28125 0zm11.149292 -5.78125l3.25 -0.5q0.28125 1.9375 1.515625 2.984375q1.25 1.03125 3.5 1.03125q2.265625 0 3.359375 -0.90625q1.09375 -0.921875 1.09375 -2.171875q0 -1.109375 -0.96875 -1.75q-0.671875 -0.4375 -3.359375 -1.109375q-3.609375 -0.90625 -5.0 -1.5625q-1.390625 -0.671875 -2.125 -1.84375q-0.71875 -1.1875 -0.71875 -2.609375q0 -1.296875 0.59375 -2.390625q0.59375 -1.109375 1.625 -1.84375q0.765625 -0.5625 2.078125 -0.953125q1.328125 -0.390625 2.84375 -0.390625q2.265625 0 3.984375 0.65625q1.734375 0.65625 2.546875 1.78125q0.828125 1.125 1.140625 3.0l-3.21875 0.4375q-0.21875 -1.5 -1.265625 -2.328125q-1.046875 -0.84375 -2.953125 -0.84375q-2.265625 0 -3.234375 0.75q-0.96875 0.734375 -0.96875 1.75q0 0.625 0.40625 1.140625q0.40625 0.53125 1.265625 0.875q0.484375 0.1875 2.890625 0.84375q3.484375 0.921875 4.859375 1.515625q1.375 0.59375 2.15625 1.734375q0.78125 1.125 0.78125 2.796875q0 1.640625 -0.953125 3.09375q-0.953125 1.453125 -2.765625 2.25q-1.796875 0.78125 -4.078125 0.78125q-3.765625 0 -5.75 -1.5625q-1.984375 -1.578125 -2.53125 -4.65625z" fill-rule="nonzero"/><path fill="#000000" fill-opacity="0.0" d="m83.25981 -15.629921l783.7795 0l0 64.62992l-783.7795 0z" fill-rule="evenodd"/><path fill="#000000" d="m224.20708 19.835075l3.546875 0.90625q-1.109375 4.34375 -4.0 6.640625q-2.890625 2.28125 -7.0625 2.28125q-4.328125 0 -7.03125 -1.75q-2.703125 -1.765625 -4.125 -5.09375q-1.40625 -3.34375 -1.40625 -7.171875q0 -4.171875 1.59375 -7.28125q1.59375 -3.1093755 4.53125 -4.71875q2.953125 -1.609375 6.484375 -1.609375q4.015625 0 6.75 2.0468748q2.734375 2.03125 3.8125 5.7343755l-3.484375 0.8125q-0.9375 -2.9062505 -2.703125 -4.2343755q-1.765625 -1.34375 -4.4375 -1.34375q-3.09375 0 -5.15625 1.484375q-2.0625 1.4687505 -2.90625 3.9687505q-0.84375 2.484375 -0.84375 5.125q0 3.40625 0.984375 5.953125q1.0 2.546875 3.09375 3.8125q2.109375 1.25 4.546875 1.25q2.96875 0 5.03125 -1.71875q2.0625 -1.71875 2.78125 -5.09375zm20.113434 6.984375q-1.828125 1.546875 -3.515625 2.1875q-1.6875 0.640625 -3.609375 0.640625q-3.1875 0 -4.90625 -1.546875q-1.71875 -1.5625 -1.71875 -4.0q0 -1.421875 0.640625 -2.59375q0.65625 -1.171875 1.703125 -1.875q1.046875 -0.71875 2.359375 -1.078125q0.96875 -0.265625 2.921875 -0.5q3.96875 -0.46875 5.84375 -1.125q0.03125 -0.671875 0.03125 -0.859375q0 -2.0 -0.9375 -2.828125q-1.25 -1.109375 -3.734375 -1.109375q-2.3125 0 -3.421875 0.8125q-1.09375 0.8125 -1.625 2.875l-3.21875 -0.4375q0.4375 -2.0625 1.4375 -3.328125q1.015625 -1.265625 2.90625 -1.953125q1.890625 -0.6875 4.390625 -0.6875q2.484375 0 4.03125 0.59375q1.546875 0.578125 2.28125 1.46875q0.734375 0.875 1.015625 2.21875q0.171875 0.84375 0.171875 3.03125l0 4.375q0 4.578125 0.203125 5.796875q0.21875 1.203125 0.828125 2.3125l-3.421875 0q-0.515625 -1.015625 -0.65625 -2.390625zm-0.28125 -7.328125q-1.78125 0.734375 -5.359375 1.25q-2.015625 0.28125 -2.859375 0.65625q-0.828125 0.359375 -1.296875 1.0625q-0.453125 0.703125 -0.453125 1.5625q0 1.3125 0.984375 2.1875q1.0 0.875 2.921875 0.875q1.890625 0 3.359375 -0.828125q1.484375 -0.84375 2.1875 -2.28125q0.515625 -1.109375 0.515625 -3.28125l0 -1.203125zm15.572617 6.78125l0.46875 2.90625q-1.375 0.28125 -2.46875 0.28125q-1.7968597 0 -2.7812347 -0.5625q-0.984375 -0.5625 -1.390625 -1.484375q-0.390625 -0.921875 -0.390625 -3.875l0 -11.140625l-2.40625 0l0 -2.546875l2.40625 0l0 -4.7968755l3.2656097 -1.9687498l0 6.765625l3.296875 0l0 2.546875l-3.296875 0l0 11.328125q0 1.40625 0.171875 1.8125q0.171875 0.390625 0.5625 0.625q0.390625 0.234375 1.125 0.234375q0.546875 0 1.4375 -0.125zm16.464722 -3.296875l3.375 0.421875q-0.796875 2.96875 -2.96875 4.609375q-2.15625 1.640625 -5.53125 1.640625q-4.25 0 -6.75 -2.609375q-2.484375 -2.625 -2.484375 -7.34375q0 -4.890625 2.515625 -7.578125q2.515625 -2.703125 6.53125 -2.703125q3.890625 0 6.34375 2.640625q2.453125 2.640625 2.453125 7.4375q0 0.296875 -0.015625 0.875l-14.4375 0q0.1875 3.1875 1.8125 4.890625q1.625 1.6875 4.046875 1.6875q1.796875 0 3.078125 -0.9375q1.28125 -0.953125 2.03125 -3.03125zm-10.78125 -5.296875l10.8125 0q-0.21875 -2.453125 -1.234375 -3.671875q-1.578125 -1.890625 -4.078125 -1.890625q-2.25 0 -3.796875 1.515625q-1.53125 1.5 -1.703125 4.046875zm17.682007 13.140625l3.1875 0.46875q0.203125 1.46875 1.109375 2.15625q1.21875 0.90625 3.34375 0.90625q2.28125 0 3.515625 -0.921875q1.234375 -0.90625 1.671875 -2.546875q0.265625 -1.0 0.234375 -4.203125q-2.140625 2.53125 -5.359375 2.53125q-3.984375 0 -6.171875 -2.875q-2.1875 -2.890625 -2.1875 -6.90625q0 -2.78125 1.0 -5.125q1.0 -2.34375 2.90625 -3.609375q1.90625 -1.28125 4.484375 -1.28125q3.421875 0 5.640625 2.765625l0 -2.328125l3.03125 0l0 16.734375q0 4.515625 -0.921875 6.40625q-0.921875 1.890625 -2.921875 2.984375q-1.984375 1.09375 -4.90625 1.09375q-3.46875 0 -5.609375 -1.5625q-2.125 -1.5625 -2.046875 -4.6875zm2.71875 -11.640625q0 3.8125 1.5 5.5625q1.515625 1.75 3.796875 1.75q2.265625 0 3.796875 -1.734375q1.53125 -1.75 1.53125 -5.46875q0 -3.546875 -1.578125 -5.34375q-1.578125 -1.8125 -3.796875 -1.8125q-2.1875 0 -3.71875 1.78125q-1.53125 1.765625 -1.53125 5.265625zm17.416382 0.359375q0 -5.390625 3.0 -7.96875q2.484375 -2.15625 6.078125 -2.15625q4.0 0 6.53125 2.625q2.53125 2.609375 2.53125 7.21875q0 3.734375 -1.125 5.875q-1.109375 2.140625 -3.265625 3.328125q-2.140625 1.1875 -4.671875 1.1875q-4.0625 0 -6.578125 -2.609375q-2.5 -2.609375 -2.5 -7.5zm3.375 0q0 3.71875 1.625 5.5625q1.625 1.84375 4.078125 1.84375q2.453125 0 4.0625 -1.859375q1.625 -1.859375 1.625 -5.65625q0 -3.59375 -1.640625 -5.4375q-1.625 -1.859375 -4.046875 -1.859375q-2.453125 0 -4.078125 1.84375q-1.625 1.84375 -1.625 5.5625zm18.572632 9.671875l0 -19.359375l2.953125 0l0 2.9375q1.125 -2.0625 2.078125 -2.71875q0.96875 -0.65625 2.109375 -0.65625q1.671875 0 3.375 1.0625l-1.125 3.046875q-1.203125 -0.71875 -2.40625 -0.71875q-1.078125 0 -1.9375 0.65625q-0.859375 0.640625 -1.21875 1.78125q-0.546875 1.75 -0.546875 3.828125l0 10.140625l-3.28125 0zm12.321167 7.453125l-0.359375 -3.078125q1.078125 0.296875 1.875 0.296875q1.09375 0 1.75 -0.375q0.65625 -0.359375 1.078125 -1.015625q0.3125 -0.5 1.0 -2.4375q0.09375 -0.28125 0.296875 -0.8125l-7.359375 -19.390625l3.546875 0l4.03125 11.21875q0.78125 2.125 1.390625 4.484375q0.578125 -2.265625 1.359375 -4.421875l4.140625 -11.28125l3.28125 0l-7.375 19.6875q-1.1875 3.1875 -1.84375 4.390625q-0.875 1.625 -2.0 2.375q-1.125 0.765625 -2.703125 0.765625q-0.9375 0 -2.109375 -0.40625zm27.956879 -17.125q0 -5.390625 3.0 -7.96875q2.484375 -2.15625 6.078125 -2.15625q4.0 0 6.53125 2.625q2.53125 2.609375 2.53125 7.21875q0 3.734375 -1.125 5.875q-1.109375 2.140625 -3.265625 3.328125q-2.140625 1.1875 -4.671875 1.1875q-4.0625 0 -6.578125 -2.609375q-2.5 -2.609375 -2.5 -7.5zm3.375 0q0 3.71875 1.625 5.5625q1.625 1.84375 4.078125 1.84375q2.453125 0 4.0625 -1.859375q1.625 -1.859375 1.625 -5.65625q0 -3.59375 -1.640625 -5.4375q-1.625 -1.859375 -4.046875 -1.859375q-2.453125 0 -4.078125 1.84375q-1.625 1.84375 -1.625 5.5625zm19.400757 9.671875l0 -16.8125l-2.90625 0l0 -2.546875l2.90625 0l0 -2.0625005q0 -1.9375 0.34375 -2.890625q0.46875 -1.2812498 1.65625 -2.0624998q1.203125 -0.796875 3.359375 -0.796875q1.375 0 3.0625 0.328125l-0.5 2.8593748q-1.015625 -0.1875 -1.9375 -0.1875q-1.484375 0 -2.109375 0.640625q-0.625 0.640625 -0.625 2.3906255l0 1.78125l3.78125 0l0 2.546875l-3.78125 0l0 16.8125l-3.25 0zm27.116943 -2.9375l0.46875 2.90625q-1.375 0.28125 -2.46875 0.28125q-1.796875 0 -2.78125 -0.5625q-0.984375 -0.5625 -1.390625 -1.484375q-0.390625 -0.921875 -0.390625 -3.875l0 -11.140625l-2.40625 0l0 -2.546875l2.40625 0l0 -4.7968755l3.265625 -1.9687498l0 6.765625l3.296875 0l0 2.546875l-3.296875 0l0 11.328125q0 1.40625 0.171875 1.8125q0.171875 0.390625 0.5625 0.625q0.390625 0.234375 1.125 0.234375q0.546875 0 1.4375 -0.125zm3.1990662 2.9375l0 -26.71875l3.28125 0l0 9.578125q2.296875 -2.65625 5.796875 -2.65625q2.15625 0 3.734375 0.859375q1.59375 0.84375 2.28125 2.34375q0.6875 1.484375 0.6875 4.328125l0 12.265625l-3.28125 0l0 -12.265625q0 -2.46875 -1.078125 -3.578125q-1.0625 -1.125 -3.015625 -1.125q-1.453125 0 -2.75 0.765625q-1.28125 0.75 -1.828125 2.046875q-0.546875 1.28125 -0.546875 3.5625l0 10.59375l-3.28125 0zm34.025757 -6.234375l3.375 0.421875q-0.796875 2.96875 -2.96875 4.609375q-2.15625 1.640625 -5.53125 1.640625q-4.25 0 -6.75 -2.609375q-2.484375 -2.625 -2.484375 -7.34375q0 -4.890625 2.515625 -7.578125q2.515625 -2.703125 6.53125 -2.703125q3.890625 0 6.34375 2.640625q2.453125 2.640625 2.453125 7.4375q0 0.296875 -0.015625 0.875l-14.4375 0q0.1875 3.1875 1.8125 4.890625q1.625 1.6875 4.046875 1.6875q1.796875 0 3.078125 -0.9375q1.28125 -0.953125 2.03125 -3.03125zm-10.78125 -5.296875l10.8125 0q-0.21875 -2.453125 -1.234375 -3.671875q-1.578125 -1.890625 -4.078125 -1.890625q-2.25 0 -3.796875 1.515625q-1.53125 1.5 -1.703125 4.046875zm28.646698 18.953125l0 -26.78125l3.0 0l0 2.515625q1.046875 -1.46875 2.375 -2.203125q1.34375 -0.75 3.234375 -0.75q2.484375 0 4.375 1.28125q1.890625 1.265625 2.859375 3.59375q0.96875 2.328125 0.96875 5.09375q0 2.96875 -1.0625 5.359375q-1.0625 2.375 -3.109375 3.640625q-2.03125 1.265625 -4.265625 1.265625q-1.640625 0 -2.953125 -0.6875q-1.296875 -0.703125 -2.140625 -1.75l0 9.421875l-3.28125 0zm2.984375 -16.984375q0 3.734375 1.5 5.515625q1.515625 1.78125 3.671875 1.78125q2.1875 0 3.734375 -1.84375q1.5625 -1.84375 1.5625 -5.734375q0 -3.703125 -1.515625 -5.53125q-1.515625 -1.84375 -3.640625 -1.84375q-2.09375 0 -3.703125 1.953125q-1.609375 1.953125 -1.609375 5.703125zm16.557007 -0.109375q0 -5.390625 3.0 -7.96875q2.484375 -2.15625 6.078125 -2.15625q4.0 0 6.53125 2.625q2.53125 2.609375 2.53125 7.21875q0 3.734375 -1.125 5.875q-1.109375 2.140625 -3.265625 3.328125q-2.140625 1.1875 -4.671875 1.1875q-4.0625 0 -6.578125 -2.609375q-2.5 -2.609375 -2.5 -7.5zm3.375 0q0 3.71875 1.625 5.5625q1.625 1.84375 4.078125 1.84375q2.453125 0 4.0625 -1.859375q1.625 -1.859375 1.625 -5.65625q0 -3.59375 -1.640625 -5.4375q-1.625 -1.859375 -4.046875 -1.859375q-2.453125 0 -4.078125 1.84375q-1.625 1.84375 -1.625 5.5625zm22.182037 9.671875l-5.9219055 -19.359375l3.3906555 0l3.078125 11.171875l1.15625 4.15625q0.0625 -0.3125 1.0 -3.984375l3.078125 -11.34375l3.375 0l2.890625 11.234375l0.96875 3.703125l1.109375 -3.75l3.3125 -11.1875l3.203125 0l-6.0625 19.359375l-3.40625 0l-3.078125 -11.59375l-0.75 -3.296875l-3.921875 14.890625l-3.421875 0zm36.644653 -6.234375l3.375 0.421875q-0.796875 2.96875 -2.96875 4.609375q-2.15625 1.640625 -5.53125 1.640625q-4.25 0 -6.75 -2.609375q-2.484375 -2.625 -2.484375 -7.34375q0 -4.890625 2.515625 -7.578125q2.515625 -2.703125 6.53125 -2.703125q3.890625 0 6.34375 2.640625q2.453125 2.640625 2.453125 7.4375q0 0.296875 -0.015625 0.875l-14.4375 0q0.1875 3.1875 1.8125 4.890625q1.625 1.6875 4.046875 1.6875q1.796875 0 3.078125 -0.9375q1.28125 -0.953125 2.03125 -3.03125zm-10.78125 -5.296875l10.8125 0q-0.21875 -2.453125 -1.234375 -3.671875q-1.578125 -1.890625 -4.078125 -1.890625q-2.25 0 -3.796875 1.515625q-1.53125 1.5 -1.703125 4.046875zm18.244507 11.53125l0 -19.359375l2.953125 0l0 2.9375q1.125 -2.0625 2.078125 -2.71875q0.96875 -0.65625 2.109375 -0.65625q1.671875 0 3.375 1.0625l-1.125 3.046875q-1.203125 -0.71875 -2.40625 -0.71875q-1.078125 0 -1.9375 0.65625q-0.859375 0.640625 -1.21875 1.78125q-0.546875 1.75 -0.546875 3.828125l0 10.140625l-3.28125 0zm11.149353 -5.78125l3.25 -0.5q0.28125 1.9375 1.515625 2.984375q1.25 1.03125 3.5 1.03125q2.265625 0 3.359375 -0.90625q1.09375 -0.921875 1.09375 -2.171875q0 -1.109375 -0.96875 -1.75q-0.671875 -0.4375 -3.359375 -1.109375q-3.609375 -0.90625 -5.0 -1.5625q-1.390625 -0.671875 -2.125 -1.84375q-0.71875 -1.1875 -0.71875 -2.609375q0 -1.296875 0.59375 -2.390625q0.59375 -1.109375 1.625 -1.84375q0.765625 -0.5625 2.078125 -0.953125q1.328125 -0.390625 2.84375 -0.390625q2.265625 0 3.984375 0.65625q1.734375 0.65625 2.546875 1.78125q0.828125 1.125 1.140625 3.0l-3.21875 0.4375q-0.21875 -1.5 -1.265625 -2.328125q-1.046875 -0.84375 -2.953125 -0.84375q-2.265625 0 -3.234375 0.75q-0.96875 0.734375 -0.96875 1.75q0 0.625 0.40625 1.140625q0.40625 0.53125 1.265625 0.875q0.484375 0.1875 2.890625 0.84375q3.484375 0.921875 4.859375 1.515625q1.375 0.59375 2.15625 1.734375q0.78125 1.125 0.78125 2.796875q0 1.640625 -0.953125 3.09375q-0.953125 1.453125 -2.765625 2.25q-1.796875 0.78125 -4.078125 0.78125q-3.765625 0 -5.75 -1.5625q-1.984375 -1.578125 -2.53125 -4.65625zm33.242188 -0.453125l3.375 0.421875q-0.796875 2.96875 -2.96875 4.609375q-2.15625 1.640625 -5.53125 1.640625q-4.25 0 -6.75 -2.609375q-2.484375 -2.625 -2.484375 -7.34375q0 -4.890625 2.515625 -7.578125q2.515625 -2.703125 6.53125 -2.703125q3.890625 0 6.34375 2.640625q2.453125 2.640625 2.453125 7.4375q0 0.296875 -0.015625 0.875l-14.4375 0q0.1875 3.1875 1.8125 4.890625q1.625 1.6875 4.046875 1.6875q1.796875 0 3.078125 -0.9375q1.28125 -0.953125 2.03125 -3.03125zm-10.78125 -5.296875l10.8125 0q-0.21875 -2.453125 -1.234375 -3.671875q-1.578125 -1.890625 -4.078125 -1.890625q-2.25 0 -3.796875 1.515625q-1.53125 1.5 -1.703125 4.046875zm25.447632 8.59375l0.46875 2.90625q-1.375 0.28125 -2.46875 0.28125q-1.796875 0 -2.78125 -0.5625q-0.984375 -0.5625 -1.390625 -1.484375q-0.390625 -0.921875 -0.390625 -3.875l0 -11.140625l-2.40625 0l0 -2.546875l2.40625 0l0 -4.7968755l3.265625 -1.9687498l0 6.765625l3.296875 0l0 2.546875l-3.296875 0l0 11.328125q0 1.40625 0.171875 1.8125q0.171875 0.390625 0.5625 0.625q0.390625 0.234375 1.125 0.234375q0.546875 0 1.4375 -0.125zm12.351318 -6.734375q0 -5.390625 3.0 -7.96875q2.484375 -2.15625 6.078125 -2.15625q4.0 0 6.53125 2.625q2.53125 2.609375 2.53125 7.21875q0 3.734375 -1.125 5.875q-1.109375 2.140625 -3.265625 3.328125q-2.140625 1.1875 -4.671875 1.1875q-4.0625 0 -6.578125 -2.609375q-2.5 -2.609375 -2.5 -7.5zm3.375 0q0 3.71875 1.625 5.5625q1.625 1.84375 4.078125 1.84375q2.453125 0 4.0625 -1.859375q1.625 -1.859375 1.625 -5.65625q0 -3.59375 -1.640625 -5.4375q-1.625 -1.859375 -4.046875 -1.859375q-2.453125 0 -4.078125 1.84375q-1.625 1.84375 -1.625 5.5625zm19.400757 9.671875l0 -16.8125l-2.90625 0l0 -2.546875l2.90625 0l0 -2.0625005q0 -1.9375 0.34375 -2.890625q0.46875 -1.2812498 1.65625 -2.0624998q1.203125 -0.796875 3.359375 -0.796875q1.375 0 3.0625 0.328125l-0.5 2.8593748q-1.015625 -0.1875 -1.9375 -0.1875q-1.484375 0 -2.109375 0.640625q-0.625 0.640625 -0.625 2.3906255l0 1.78125l3.78125 0l0 2.546875l-3.78125 0l0 16.8125l-3.25 0zm18.523193 -11.15625q1.40625 -0.03125 2.28125 -0.75q0.890625 -0.71875 1.1875 -1.96875q0.296875 -1.265625 0.3125 -4.3125q0.015625 -3.0468755 0.109375 -4.0156255q0.15625 -1.53125 0.609375 -2.453125q0.453125 -0.93749976 1.109375 -1.4843748q0.65625 -0.5625 1.671875 -0.859375q0.6875 -0.171875 2.265625 -0.171875l1.015625 0l0 2.8593748l-0.5625 0q-1.90625 0 -2.53125 0.6875q-0.609375 0.671875 -0.609375 3.0468755q0 4.78125 -0.203125 6.03125q-0.328125 1.953125 -1.125 3.015625q-0.78125 1.046875 -2.484375 1.875q2.015625 0.828125 2.90625 2.5625q0.90625 1.71875 0.90625 5.640625q0 3.546875 0.078125 4.21875q0.140625 1.25 0.734375 1.734375q0.59375 0.5 2.328125 0.5l0.5625 0l0 2.859375l-1.015625 0q-1.796875 0 -2.59375 -0.296875q-1.171875 -0.421875 -1.9375 -1.359375q-0.765625 -0.9375 -1.0 -2.375q-0.21875 -1.4375 -0.234375 -4.71875q-0.015625 -3.28125 -0.3125 -4.53125q-0.296875 -1.265625 -1.1875 -1.984375q-0.875 -0.734375 -2.28125 -0.78125l0 -2.96875zm25.342041 11.15625l-3.28125 0l0 -20.90625q-1.1875 1.125 -3.109375 2.265625q-1.921875 1.125 -3.453125 1.6875l0 -3.171875q2.75 -1.2968755 4.8125 -3.1250005q2.0625 -1.84375 2.921875 -3.5781248l2.109375 0l0 26.828125zm10.166382 0l0 -3.734375l3.734375 0l0 3.734375q0 2.0625 -0.734375 3.328125q-0.71875 1.265625 -2.296875 1.953125l-0.921875 -1.40625q1.046875 -0.453125 1.53125 -1.34375q0.5 -0.875 0.546875 -2.53125l-1.859375 0zm25.855286 -3.15625l0 3.15625l-17.671875 0q-0.03125 -1.1875 0.390625 -2.28125q0.671875 -1.796875 2.15625 -3.546875q1.484375 -1.75 4.296875 -4.046875q4.359375 -3.578125 5.890625 -5.65625q1.53125 -2.09375 1.53125 -3.953125q0 -1.9531255 -1.40625 -3.2812505q-1.390625 -1.34375 -3.625 -1.34375q-2.375 0 -3.796875 1.421875q-1.421875 1.421875 -1.4375 3.9375005l-3.375 -0.34375q0.34375 -3.7812505 2.59375 -5.7500005q2.265625 -1.9843748 6.078125 -1.9843748q3.84375 0 6.078125 2.1406248q2.25 2.125 2.25 5.2812505q0 1.59375 -0.65625 3.15625q-0.65625 1.546875 -2.171875 3.265625q-1.515625 1.703125 -5.0625 4.6875q-2.953125 2.484375 -3.796875 3.375q-0.828125 0.875 -1.375 1.765625l13.109375 0zm13.369507 -8.0l0 2.96875q-1.40625 0.046875 -2.296875 0.78125q-0.875 0.71875 -1.171875 1.96875q-0.28125 1.25 -0.296875 4.296875q-0.015625 3.03125 -0.109375 4.0q-0.171875 1.546875 -0.625 2.46875q-0.4375 0.921875 -1.09375 1.46875q-0.65625 0.5625 -1.671875 0.859375q-0.703125 0.203125 -2.265625 0.203125l-1.015625 0l0 -2.859375l0.5625 0q1.890625 0 2.515625 -0.6875q0.625 -0.6875 0.625 -3.078125q0 -4.546875 0.15625 -5.765625q0.296875 -2.03125 1.171875 -3.234375q0.875 -1.21875 2.46875 -1.890625q-2.09375 -1.0 -2.953125 -2.65625q-0.84375 -1.65625 -0.84375 -5.5625q0 -3.5625005 -0.09375 -4.2500005q-0.125 -1.21875 -0.71875 -1.703125q-0.59375 -0.484375 -2.328125 -0.484375l-0.5625 0l0 -2.8593748l1.015625 0q1.78125 0 2.59375 0.28125q1.15625 0.40625 1.921875 1.359375q0.765625 0.93749976 1.0 2.3906248q0.234375 1.4375 0.25 4.7187505q0.015625 3.28125 0.296875 4.53125q0.296875 1.234375 1.171875 1.96875q0.890625 0.734375 2.296875 0.765625z" fill-rule="nonzero"/></g></svg>