<svg version="1.1" viewBox="0.0 0.0 1952.8792650918635 626.8162729658793" fill="none" stroke="none" stroke-linecap="square" stroke-miterlimit="10" xmlns:xlink="http://www.w3.org/1999/xlink" xmlns="http://www.w3.org/2000/svg"><clipPath id="p.0"><path d="m0 0l1952.8793 0l0 626.8163l-1952.8793 0l0 -626.8163z" clip-rule="nonzero"/></clipPath><g clip-path="url(#p.0)"><path fill="#000000" fill-opacity="0.0" d="m0 0l1952.8793 0l0 626.8163l-1952.8793 0z" fill-rule="evenodd"/><path fill="#d393b0" fill-opacity="0.4367" d="m1259.4169 366.43045l531.5797 0l0 0c69.638306 0 126.09143 50.363525 126.09143 112.49008c0 62.126587 -56.453125 112.49011 -126.09143 112.49011l-531.5797 0l0 0c-69.638306 0 -126.09143 -50.363525 -126.09143 -112.49011c0 -62.126556 56.453125 -112.49008 126.09143 -112.49008z" fill-rule="evenodd"/><path stroke="#ffffff" stroke-width="1.0" stroke-linejoin="round" stroke-linecap="butt" d="m1259.4169 366.43045l531.5797 0l0 0c69.638306 0 126.09143 50.363525 126.09143 112.49008c0 62.126587 -56.453125 112.49011 -126.09143 112.49011l-531.5797 0l0 0c-69.638306 0 -126.09143 -50.363525 -126.09143 -112.49011c0 -62.126556 56.453125 -112.49008 126.09143 -112.49008z" fill-rule="evenodd"/><path fill="#d5a6bd" d="m1728.4839 512.91785l0 0c0 -6.3578186 9.87793 -11.511841 22.062988 -11.511841l0 0c12.185059 0 22.062988 5.154022 22.062988 11.511841l0 0c0 6.357788 -9.87793 11.51178 -22.062988 11.51178l0 0c-12.185059 0 -22.062988 -5.1539917 -22.062988 -11.51178z" fill-rule="evenodd"/><path stroke="#741b47" stroke-width="3.0" stroke-linejoin="round" stroke-linecap="butt" stroke-dasharray="24.0,9.0" d="m1728.4839 512.91785l0 0c0 -6.3578186 9.87793 -11.511841 22.062988 -11.511841l0 0c12.185059 0 22.062988 5.154022 22.062988 11.511841l0 0c0 6.357788 -9.87793 11.51178 -22.062988 11.51178l0 0c-12.185059 0 -22.062988 -5.1539917 -22.062988 -11.51178z" fill-rule="evenodd"/><path fill="#d393b0" fill-opacity="0.4367" d="m215.30139 366.43045l531.57965 0l0 0c69.63843 0 126.09143 50.363525 126.09143 112.49008c0 62.126587 -56.453003 112.49011 -126.09143 112.49011l-531.57965 0l0 0c-69.63837 0 -126.091415 -50.363525 -126.091415 -112.49011c0 -62.126556 56.45305 -112.49008 126.091415 -112.49008z" fill-rule="evenodd"/><path stroke="#ffffff" stroke-width="1.0" stroke-linejoin="round" stroke-linecap="butt" d="m215.30139 366.43045l531.57965 0l0 0c69.63843 0 126.09143 50.363525 126.09143 112.49008c0 62.126587 -56.453003 112.49011 -126.09143 112.49011l-531.57965 0l0 0c-69.63837 0 -126.091415 -50.363525 -126.091415 -112.49011c0 -62.126556 56.45305 -112.49008 126.091415 -112.49008z" fill-rule="evenodd"/><path fill="#d5a6bd" d="m684.36835 512.91785l0 0c0 -6.3578186 9.87793 -11.511841 22.062988 -11.511841l0 0c12.185059 0 22.062988 5.154022 22.062988 11.511841l0 0c0 6.357788 -9.87793 11.51178 -22.062988 11.51178l0 0c-12.185059 0 -22.062988 -5.1539917 -22.062988 -11.51178z" fill-rule="evenodd"/><path stroke="#741b47" stroke-width="3.0" stroke-linejoin="round" stroke-linecap="butt" stroke-dasharray="24.0,9.0" d="m684.36835 512.91785l0 0c0 -6.3578186 9.87793 -11.511841 22.062988 -11.511841l0 0c12.185059 0 22.062988 5.154022 22.062988 11.511841l0 0c0 6.357788 -9.87793 11.51178 -22.062988 11.51178l0 0c-12.185059 0 -22.062988 -5.1539917 -22.062988 -11.51178z" fill-rule="evenodd"/><path fill="#000000" fill-opacity="0.0" d="m670.4287 232.32991l20.409485 288.72443" fill-rule="evenodd"/><path stroke="#000000" stroke-width="3.0" stroke-linejoin="round" stroke-linecap="butt" d="m670.4287 232.32991l19.684448 278.46875" fill-rule="evenodd"/><path fill="#000000" stroke="#000000" stroke-width="3.0" stroke-linecap="butt" d="m690.1132 510.7986l-3.6032715 -3.1274414l4.018982 9.008331l2.711731 -9.484131z" fill-rule="evenodd"/><path fill="#000000" fill-opacity="0.0" d="m758.03253 88.1286l1.102356 315.1811" fill-rule="evenodd"/><path stroke="#000000" stroke-width="3.0" stroke-linejoin="round" stroke-linecap="butt" d="m758.0326 88.1286l1.0664062 304.8999" fill-rule="evenodd"/><path fill="#000000" stroke="#000000" stroke-width="3.0" stroke-linecap="butt" d="m759.09894 393.0285l-3.385498 -3.361908l3.406128 9.257446l3.3413086 -9.281067z" fill-rule="evenodd"/><path fill="#d5a6bd" d="m226.27599 478.91888l0 0c0 -6.357788 9.87793 -11.51181 22.062988 -11.51181l0 0c12.185043 0 22.063004 5.154022 22.063004 11.51181l0 0c0 6.357788 -9.87796 11.51181 -22.063004 11.51181l0 0c-12.185059 0 -22.062988 -5.154022 -22.062988 -11.51181z" fill-rule="evenodd"/><path stroke="#741b47" stroke-width="3.0" stroke-linejoin="round" stroke-linecap="butt" stroke-dasharray="24.0,9.0" d="m226.27599 478.91888l0 0c0 -6.357788 9.87793 -11.51181 22.062988 -11.51181l0 0c12.185043 0 22.063004 5.154022 22.063004 11.51181l0 0c0 6.357788 -9.87796 11.51181 -22.063004 11.51181l0 0c-12.185059 0 -22.062988 -5.154022 -22.062988 -11.51181z" fill-rule="evenodd"/><path fill="#d5a6bd" d="m202.27599 398.76535l0 0c0 -6.3578186 9.87793 -11.51181 22.062988 -11.51181l0 0c12.185059 0 22.062988 5.1539917 22.062988 11.51181l0 0c0 6.357788 -9.87793 11.51181 -22.062988 11.51181l0 0c-12.185059 0 -22.062988 -5.154022 -22.062988 -11.51181z" fill-rule="evenodd"/><path stroke="#741b47" stroke-width="3.0" stroke-linejoin="round" stroke-linecap="butt" stroke-dasharray="24.0,9.0" d="m202.27599 398.76535l0 0c0 -6.3578186 9.87793 -11.51181 22.062988 -11.51181l0 0c12.185059 0 22.062988 5.1539917 22.062988 11.51181l0 0c0 6.357788 -9.87793 11.51181 -22.062988 11.51181l0 0c-12.185059 0 -22.062988 -5.154022 -22.062988 -11.51181z" fill-rule="evenodd"/><path fill="#000000" fill-opacity="0.0" d="m184.80591 125.36611l-22.393707 309.98425" fill-rule="evenodd"/><path stroke="#000000" stroke-width="3.0" stroke-linejoin="round" stroke-linecap="butt" d="m184.8059 125.36611l-21.652878 299.72968" fill-rule="evenodd"/><path fill="#000000" stroke="#000000" stroke-width="3.0" stroke-linecap="butt" d="m163.15302 425.09583l-3.1219025 -3.6080933l2.6970978 9.488312l4.0328674 -9.002106z" fill-rule="evenodd"/><path fill="#000000" fill-opacity="0.0" d="m267.54617 74.78545l-43.212585 312.47244" fill-rule="evenodd"/><path stroke="#000000" stroke-width="3.0" stroke-linejoin="round" stroke-linecap="butt" d="m267.54617 74.785446l-41.80417 302.2881" fill-rule="evenodd"/><path fill="#000000" stroke="#000000" stroke-width="3.0" stroke-linecap="butt" d="m225.74199 377.07355l-2.879776 -3.8041077l2.0721588 9.6440735l4.61174 -8.719757z" fill-rule="evenodd"/><path fill="#000000" fill-opacity="0.0" d="m599.58606 163.21599l25.102417 315.1811" fill-rule="evenodd"/><path stroke="#000000" stroke-width="3.0" stroke-linejoin="round" stroke-linecap="butt" d="m599.58606 163.21599l24.286133 304.9323" fill-rule="evenodd"/><path fill="#000000" stroke="#000000" stroke-width="3.0" stroke-linecap="butt" d="m623.8722 468.1483l-3.6309814 -3.0952454l4.09906 8.9721985l2.6271362 -9.507904z" fill-rule="evenodd"/><path fill="#000000" fill-opacity="0.0" d="m459.91 111.14102l-124.25195 277.25983" fill-rule="evenodd"/><path stroke="#000000" stroke-width="3.0" stroke-linejoin="round" stroke-linecap="butt" d="m459.91003 111.14102l-120.047455 267.87762" fill-rule="evenodd"/><path fill="#000000" stroke="#000000" stroke-width="3.0" stroke-linecap="butt" d="m339.8626 379.01868l-1.6990356 -4.4584656l-0.7119751 9.83847l6.869446 -7.0790405z" fill-rule="evenodd"/><path fill="#9a86c8" fill-opacity="0.4588" d="m214.20953 28.238865l531.57965 0l0 0c69.63837 0 126.09143 50.36352 126.09143 112.49008c0 62.126556 -56.453064 112.49008 -126.09143 112.49008l-531.57965 0l0 0c-69.63837 0 -126.09142 -50.363525 -126.09142 -112.49008c0 -62.126556 56.453056 -112.49008 126.09142 -112.49008z" fill-rule="evenodd"/><path stroke="#ffffff" stroke-width="1.0" stroke-linejoin="round" stroke-linecap="butt" d="m214.20953 28.238865l531.57965 0l0 0c69.63837 0 126.09143 50.36352 126.09143 112.49008c0 62.126556 -56.453064 112.49008 -126.09143 112.49008l-531.57965 0l0 0c-69.63837 0 -126.09142 -50.363525 -126.09142 -112.49008c0 -62.126556 56.453056 -112.49008 126.09142 -112.49008z" fill-rule="evenodd"/><path fill="#000000" fill-opacity="0.0" d="m353.96628 180.6026l-105.6378 286.80316" fill-rule="evenodd"/><path stroke="#000000" stroke-width="3.0" stroke-linejoin="round" stroke-linecap="butt" d="m353.96628 180.60262l-102.084305 277.15552" fill-rule="evenodd"/><path fill="#000000" stroke="#000000" stroke-width="3.0" stroke-linecap="butt" d="m251.88197 457.75812l-1.9997559 -4.331909l-0.03791809 9.864136l6.369568 -7.5319824z" fill-rule="evenodd"/><path fill="#b4a7d6" d="m331.9033 169.09079l0 0c0 -6.357788 9.87793 -11.51181 22.062988 -11.51181l0 0c12.185059 0 22.062988 5.154022 22.062988 11.51181l0 0c0 6.3578033 -9.87793 11.51181 -22.062988 11.51181l0 0c-12.185059 0 -22.062988 -5.154007 -22.062988 -11.51181z" fill-rule="evenodd"/><path stroke="#351c75" stroke-width="3.0" stroke-linejoin="round" stroke-linecap="butt" stroke-dasharray="24.0,9.0" d="m331.9033 169.09079l0 0c0 -6.357788 9.87793 -11.51181 22.062988 -11.51181l0 0c12.185059 0 22.062988 5.154022 22.062988 11.51181l0 0c0 6.3578033 -9.87793 11.51181 -22.062988 11.51181l0 0c-12.185059 0 -22.062988 -5.154007 -22.062988 -11.51181z" fill-rule="evenodd"/><path fill="#b4a7d6" d="m577.5231 151.70418l0 0c0 -6.357788 9.877991 -11.51181 22.062988 -11.51181l0 0c12.185059 0 22.06305 5.154022 22.06305 11.51181l0 0c0 6.3578033 -9.877991 11.51181 -22.06305 11.51181l0 0c-12.184998 0 -22.062988 -5.154007 -22.062988 -11.51181z" fill-rule="evenodd"/><path stroke="#351c75" stroke-width="3.0" stroke-linejoin="round" stroke-linecap="butt" stroke-dasharray="24.0,9.0" d="m577.5231 151.70418l0 0c0 -6.357788 9.877991 -11.51181 22.062988 -11.51181l0 0c12.185059 0 22.06305 5.154022 22.06305 11.51181l0 0c0 6.3578033 -9.877991 11.51181 -22.06305 11.51181l0 0c-12.184998 0 -22.062988 -5.154007 -22.062988 -11.51181z" fill-rule="evenodd"/><path fill="#b4a7d6" d="m437.84702 99.62921l0 0c0 -6.3578033 9.87793 -11.51181 22.062988 -11.51181l0 0c12.185059 0 22.062988 5.154007 22.062988 11.51181l0 0c0 6.3577957 -9.87793 11.51181 -22.062988 11.51181l0 0c-12.185059 0 -22.062988 -5.1540146 -22.062988 -11.51181z" fill-rule="evenodd"/><path stroke="#351c75" stroke-width="3.0" stroke-linejoin="round" stroke-linecap="butt" stroke-dasharray="24.0,9.0" d="m437.84702 99.62921l0 0c0 -6.3578033 9.87793 -11.51181 22.062988 -11.51181l0 0c12.185059 0 22.062988 5.154007 22.062988 11.51181l0 0c0 6.3577957 -9.87793 11.51181 -22.062988 11.51181l0 0c-12.185059 0 -22.062988 -5.1540146 -22.062988 -11.51181z" fill-rule="evenodd"/><path fill="#000000" fill-opacity="0.0" d="m444.3091 107.76929l-74.74014 53.196854" fill-rule="evenodd"/><path stroke="#351c75" stroke-width="3.0" stroke-linejoin="round" stroke-linecap="butt" d="m429.64444 118.207l-60.07547 42.75914" fill-rule="evenodd"/><path stroke="#351c75" stroke-width="3.0" stroke-linecap="butt" d="m432.5178 122.24403l8.218292 -11.931595l-13.965057 3.8575363z" fill-rule="evenodd"/><path fill="#000000" fill-opacity="0.0" d="m475.5109 107.76929l108.47244 35.779526" fill-rule="evenodd"/><path stroke="#351c75" stroke-width="3.0" stroke-linejoin="round" stroke-linecap="butt" d="m475.5109 107.76929l91.37839 30.141068" fill-rule="evenodd"/><path stroke="#351c75" stroke-width="3.0" stroke-linecap="butt" d="m565.33704 142.61615l14.481323 -0.44114685l-11.376892 -8.970459z" fill-rule="evenodd"/><path fill="#b4a7d6" d="m245.4832 63.27364l0 0c0 -6.3577995 9.87793 -11.51181 22.062973 -11.51181l0 0c12.185059 0 22.063019 5.154011 22.063019 11.51181l0 0c0 6.3577995 -9.87796 11.511814 -22.063019 11.511814l0 0c-12.185043 0 -22.062973 -5.1540146 -22.062973 -11.511814z" fill-rule="evenodd"/><path stroke="#351c75" stroke-width="3.0" stroke-linejoin="round" stroke-linecap="butt" stroke-dasharray="24.0,9.0" d="m245.4832 63.27364l0 0c0 -6.3577995 9.87793 -11.51181 22.062973 -11.51181l0 0c12.185059 0 22.063019 5.154011 22.063019 11.51181l0 0c0 6.3577995 -9.87796 11.511814 -22.063019 11.511814l0 0c-12.185043 0 -22.062973 -5.1540146 -22.062973 -11.511814z" fill-rule="evenodd"/><path fill="#b4a7d6" d="m167.93976 116.56296l0 0c0 -4.861847 7.551239 -8.803146 16.86615 -8.803146l0 0c9.314911 0 16.866135 3.9412994 16.866135 8.803146l0 0c0 4.861847 -7.5512238 8.803154 -16.866135 8.803154l0 0c-9.314911 0 -16.86615 -3.941307 -16.86615 -8.803154z" fill-rule="evenodd"/><path stroke="#351c75" stroke-width="3.0" stroke-linejoin="round" stroke-linecap="butt" stroke-dasharray="24.0,9.0" d="m167.93976 116.56296l0 0c0 -4.861847 7.551239 -8.803146 16.86615 -8.803146l0 0c9.314911 0 16.866135 3.9412994 16.866135 8.803146l0 0c0 4.861847 -7.5512238 8.803154 -16.866135 8.803154l0 0c-9.314911 0 -16.86615 -3.941307 -16.86615 -8.803154z" fill-rule="evenodd"/><path fill="#000000" fill-opacity="0.0" d="m251.9453 71.41372l-55.2126 38.92913" fill-rule="evenodd"/><path stroke="#351c75" stroke-width="3.0" stroke-linejoin="round" stroke-linecap="butt" d="m237.2343 81.7861l-40.501602 28.556747" fill-rule="evenodd"/><path stroke="#351c75" stroke-width="3.0" stroke-linecap="butt" d="m240.08969 85.83588l8.2712555 -11.89492l-13.982056 3.7953796z" fill-rule="evenodd"/><path fill="#000000" fill-opacity="0.0" d="m338.3654 160.95071l-141.6378 -38.173225" fill-rule="evenodd"/><path stroke="#351c75" stroke-width="3.0" stroke-linejoin="round" stroke-linecap="butt" d="m320.98553 156.26662l-124.25795 -33.48913" fill-rule="evenodd"/><path stroke="#351c75" stroke-width="3.0" stroke-linecap="butt" d="m319.69604 161.0511l14.434723 -1.2416687l-11.855743 -8.327286z" fill-rule="evenodd"/><path fill="#000000" fill-opacity="0.0" d="m758.03253 88.1286l-72.0 124.53543" fill-rule="evenodd"/><path stroke="#351c75" stroke-width="3.0" stroke-linejoin="round" stroke-linecap="butt" d="m749.0232 103.71166l-62.99066 108.952385" fill-rule="evenodd"/><path stroke="#351c75" stroke-width="3.0" stroke-linecap="butt" d="m753.31305 106.19183l2.524414 -14.266418l-11.104065 9.306084z" fill-rule="evenodd"/><path fill="#b4a7d6" d="m648.3657 220.8181l0 0c0 -6.3578033 9.87793 -11.511826 22.062988 -11.511826l0 0c12.185059 0 22.062988 5.154022 22.062988 11.511826l0 0c0 6.357788 -9.87793 11.51181 -22.062988 11.51181l0 0c-12.185059 0 -22.062988 -5.154022 -22.062988 -11.51181z" fill-rule="evenodd"/><path stroke="#351c75" stroke-width="3.0" stroke-linejoin="round" stroke-linecap="butt" stroke-dasharray="24.0,9.0" d="m648.3657 220.8181l0 0c0 -6.3578033 9.87793 -11.511826 22.062988 -11.511826l0 0c12.185059 0 22.062988 5.154022 22.062988 11.511826l0 0c0 6.357788 -9.87793 11.51181 -22.062988 11.51181l0 0c-12.185059 0 -22.062988 -5.154022 -22.062988 -11.51181z" fill-rule="evenodd"/><path fill="#b4a7d6" d="m735.96954 76.61679l0 0c0 -6.3577957 9.87793 -11.51181 22.062988 -11.51181l0 0c12.185059 0 22.062988 5.1540146 22.062988 11.51181l0 0c0 6.3577957 -9.87793 11.51181 -22.062988 11.51181l0 0c-12.185059 0 -22.062988 -5.1540146 -22.062988 -11.51181z" fill-rule="evenodd"/><path stroke="#351c75" stroke-width="3.0" stroke-linejoin="round" stroke-linecap="butt" stroke-dasharray="24.0,9.0" d="m735.96954 76.61679l0 0c0 -6.3577957 9.87793 -11.51181 22.062988 -11.51181l0 0c12.185059 0 22.062988 5.1540146 22.062988 11.51181l0 0c0 6.3577957 -9.87793 11.51181 -22.062988 11.51181l0 0c-12.185059 0 -22.062988 -5.1540146 -22.062988 -11.51181z" fill-rule="evenodd"/><path fill="#000000" fill-opacity="0.0" d="m742.43164 84.75687l-72.0 124.53543" fill-rule="evenodd"/><path stroke="#351c75" stroke-width="3.0" stroke-linejoin="round" stroke-linecap="butt" d="m733.4223 100.339935l-62.99066 108.95236" fill-rule="evenodd"/><path stroke="#351c75" stroke-width="3.0" stroke-linecap="butt" d="m737.71216 102.8201l2.524414 -14.266411l-11.104065 9.306076z" fill-rule="evenodd"/><path fill="#d5a6bd" d="m313.6067 399.91495l0 0c0 -6.357788 9.87793 -11.51181 22.062988 -11.51181l0 0c12.185059 0 22.062988 5.154022 22.062988 11.51181l0 0c0 6.357788 -9.87793 11.51181 -22.062988 11.51181l0 0c-12.185059 0 -22.062988 -5.154022 -22.062988 -11.51181z" fill-rule="evenodd"/><path stroke="#741b47" stroke-width="3.0" stroke-linejoin="round" stroke-linecap="butt" stroke-dasharray="24.0,9.0" d="m313.6067 399.91495l0 0c0 -6.357788 9.87793 -11.51181 22.062988 -11.51181l0 0c12.185059 0 22.062988 5.154022 22.062988 11.51181l0 0c0 6.357788 -9.87793 11.51181 -22.062988 11.51181l0 0c-12.185059 0 -22.062988 -5.154022 -22.062988 -11.51181z" fill-rule="evenodd"/><path fill="#d5a6bd" d="m602.615 489.89578l0 0c0 -6.357788 9.87793 -11.51181 22.062988 -11.51181l0 0c12.184998 0 22.062988 5.154022 22.062988 11.51181l0 0c0 6.357788 -9.877991 11.51181 -22.062988 11.51181l0 0c-12.185059 0 -22.062988 -5.154022 -22.062988 -11.51181z" fill-rule="evenodd"/><path stroke="#741b47" stroke-width="3.0" stroke-linejoin="round" stroke-linecap="butt" stroke-dasharray="24.0,9.0" d="m602.615 489.89578l0 0c0 -6.357788 9.87793 -11.51181 22.062988 -11.51181l0 0c12.184998 0 22.062988 5.154022 22.062988 11.51181l0 0c0 6.357788 -9.877991 11.51181 -22.062988 11.51181l0 0c-12.185059 0 -22.062988 -5.154022 -22.062988 -11.51181z" fill-rule="evenodd"/><path fill="#d5a6bd" d="m537.3339 399.91528l0 0c0 -6.357788 9.87793 -11.51181 22.062988 -11.51181l0 0c12.185059 0 22.062988 5.154022 22.062988 11.51181l0 0c0 6.3578186 -9.87793 11.511841 -22.062988 11.511841l0 0c-12.185059 0 -22.062988 -5.154022 -22.062988 -11.511841z" fill-rule="evenodd"/><path stroke="#741b47" stroke-width="3.0" stroke-linejoin="round" stroke-linecap="butt" stroke-dasharray="24.0,9.0" d="m537.3339 399.91528l0 0c0 -6.357788 9.87793 -11.51181 22.062988 -11.51181l0 0c12.185059 0 22.062988 5.154022 22.062988 11.51181l0 0c0 6.3578186 -9.87793 11.511841 -22.062988 11.511841l0 0c-12.185059 0 -22.062988 -5.154022 -22.062988 -11.511841z" fill-rule="evenodd"/><path fill="#000000" fill-opacity="0.0" d="m537.3339 399.91528l-179.59058 0" fill-rule="evenodd"/><path stroke="#741b47" stroke-width="3.0" stroke-linejoin="round" stroke-linecap="butt" d="m519.3339 399.9153l-161.59058 0" fill-rule="evenodd"/><path stroke="#741b47" stroke-width="3.0" stroke-linecap="butt" d="m519.3339 404.8705l13.614258 -4.9552l-13.614258 -4.9552z" fill-rule="evenodd"/><path fill="#000000" fill-opacity="0.0" d="m574.9978 408.0554l49.66925 70.33069" fill-rule="evenodd"/><path stroke="#741b47" stroke-width="3.0" stroke-linejoin="round" stroke-linecap="butt" d="m574.9978 408.05536l39.285645 55.627686" fill-rule="evenodd"/><path stroke="#741b47" stroke-width="3.0" stroke-linecap="butt" d="m610.23584 466.54153l11.901245 8.262146l-3.8060913 -13.9791565z" fill-rule="evenodd"/><path fill="#000000" fill-opacity="0.0" d="m759.1244 426.3202l-52.692932 75.08664" fill-rule="evenodd"/><path stroke="#741b47" stroke-width="3.0" stroke-linejoin="round" stroke-linecap="butt" d="m748.78467 441.05417l-42.35315 60.35266" fill-rule="evenodd"/><path stroke="#741b47" stroke-width="3.0" stroke-linecap="butt" d="m752.84076 443.9006l3.7644043 -13.990448l-11.876587 8.297607z" fill-rule="evenodd"/><path fill="#d5a6bd" d="m737.0614 414.80838l0 0c0 -6.357788 9.87793 -11.51181 22.062988 -11.51181l0 0c12.185059 0 22.062988 5.154022 22.062988 11.51181l0 0c0 6.3578186 -9.87793 11.51181 -22.062988 11.51181l0 0c-12.185059 0 -22.062988 -5.1539917 -22.062988 -11.51181z" fill-rule="evenodd"/><path stroke="#741b47" stroke-width="3.0" stroke-linejoin="round" stroke-linecap="butt" stroke-dasharray="24.0,9.0" d="m737.0614 414.80838l0 0c0 -6.357788 9.87793 -11.51181 22.062988 -11.51181l0 0c12.185059 0 22.062988 5.154022 22.062988 11.51181l0 0c0 6.3578186 -9.87793 11.51181 -22.062988 11.51181l0 0c-12.185059 0 -22.062988 -5.1539917 -22.062988 -11.51181z" fill-rule="evenodd"/><path fill="#d5a6bd" d="m200.96875 550.0354l0 0c0 -6.357788 9.87793 -11.51178 22.062988 -11.51178l0 0c12.185059 0 22.062988 5.1539917 22.062988 11.51178l0 0c0 6.357788 -9.87793 11.511841 -22.062988 11.511841l0 0c-12.185059 0 -22.062988 -5.1540527 -22.062988 -11.511841z" fill-rule="evenodd"/><path stroke="#741b47" stroke-width="3.0" stroke-linejoin="round" stroke-linecap="butt" stroke-dasharray="24.0,9.0" d="m200.96875 550.0354l0 0c0 -6.357788 9.87793 -11.51178 22.062988 -11.51178l0 0c12.185059 0 22.062988 5.1539917 22.062988 11.51178l0 0c0 6.357788 -9.87793 11.511841 -22.062988 11.511841l0 0c-12.185059 0 -22.062988 -5.1540527 -22.062988 -11.511841z" fill-rule="evenodd"/><path fill="#000000" fill-opacity="0.0" d="m320.0688 408.05502l-56.125977 62.70865" fill-rule="evenodd"/><path stroke="#741b47" stroke-width="3.0" stroke-linejoin="round" stroke-linecap="butt" d="m308.06433 421.46744l-44.12152 49.296265" fill-rule="evenodd"/><path stroke="#741b47" stroke-width="3.0" stroke-linecap="butt" d="m311.7566 424.77213l5.3872986 -13.449158l-12.771851 6.8397827z" fill-rule="evenodd"/><path fill="#000000" fill-opacity="0.0" d="m602.615 489.89578l-338.6772 -2.8346558" fill-rule="evenodd"/><path stroke="#741b47" stroke-width="3.0" stroke-linejoin="round" stroke-linecap="butt" stroke-dasharray="24.0,9.0" d="m584.61554 489.74515l-320.67776 -2.6839905" fill-rule="evenodd"/><path stroke="#741b47" stroke-width="3.0" stroke-linecap="butt" d="m584.5741 494.70016l13.655273 -4.8410645l-13.572327 -5.0689697z" fill-rule="evenodd"/><path fill="#000000" fill-opacity="0.0" d="m609.0771 481.7557l-257.7953 -73.700775" fill-rule="evenodd"/><path stroke="#741b47" stroke-width="3.0" stroke-linejoin="round" stroke-linecap="butt" stroke-dasharray="24.0,9.0" d="m591.77045 476.80795l-240.48868 -68.75305" fill-rule="evenodd"/><path stroke="#741b47" stroke-width="3.0" stroke-linecap="butt" d="m590.4084 481.57224l14.451904 -1.0220642l-11.727783 -8.506561z" fill-rule="evenodd"/><path fill="#d5a6bd" d="m140.35472 446.8572l0 0c0 -6.3578186 9.877945 -11.51181 22.062988 -11.51181l0 0c12.185059 0 22.063004 5.1539917 22.063004 11.51181l0 0c0 6.357788 -9.877945 11.51181 -22.063004 11.51181l0 0c-12.185043 0 -22.062988 -5.154022 -22.062988 -11.51181z" fill-rule="evenodd"/><path stroke="#741b47" stroke-width="3.0" stroke-linejoin="round" stroke-linecap="butt" stroke-dasharray="24.0,9.0" d="m140.35472 446.8572l0 0c0 -6.3578186 9.877945 -11.51181 22.062988 -11.51181l0 0c12.185059 0 22.063004 5.1539917 22.063004 11.51181l0 0c0 6.357788 -9.877945 11.51181 -22.063004 11.51181l0 0c-12.185043 0 -22.062988 -5.154022 -22.062988 -11.51181z" fill-rule="evenodd"/><path fill="#000000" fill-opacity="0.0" d="m232.73808 470.7788l-54.708664 -15.779541" fill-rule="evenodd"/><path stroke="#741b47" stroke-width="3.0" stroke-linejoin="round" stroke-linecap="butt" d="m215.44312 465.79044l-37.413696 -10.791168" fill-rule="evenodd"/><path stroke="#741b47" stroke-width="3.0" stroke-linecap="butt" d="m214.06987 470.55154l14.454285 -0.9881592l-11.707809 -8.534058z" fill-rule="evenodd"/><path fill="#000000" fill-opacity="0.0" d="m208.73808 406.90543l-30.708664 31.811005" fill-rule="evenodd"/><path stroke="#741b47" stroke-width="3.0" stroke-linejoin="round" stroke-linecap="butt" d="m196.23653 419.85577l-18.207108 18.860687" fill-rule="evenodd"/><path stroke="#741b47" stroke-width="3.0" stroke-linecap="butt" d="m199.8016 423.2973l5.8904724 -13.236511l-13.02063 6.353424z" fill-rule="evenodd"/><path fill="#000000" fill-opacity="0.0" d="m583.98517 159.84427l-207.96848 9.259842" fill-rule="evenodd"/><path stroke="#351c75" stroke-width="3.0" stroke-linejoin="round" stroke-linecap="butt" stroke-dasharray="24.0,9.0" d="m566.003 160.64493l-189.9863 8.459183" fill-rule="evenodd"/><path stroke="#351c75" stroke-width="3.0" stroke-linecap="butt" d="m566.22345 165.59521l13.380371 -5.5558777l-13.821228 -4.3447113z" fill-rule="evenodd"/><path fill="#000000" fill-opacity="0.0" d="m803.3753 106.79002l43.212646 0l0 67.87402l-43.212646 0z" fill-rule="evenodd"/><path fill="#351c75" d="m836.0628 148.26814q0.3125 0 0.578125 0.265625l1.515625 1.65625q-1.765625 2.046875 -4.28125 3.1875q-2.5 1.125 -6.046875 1.125q-3.09375 0 -5.625 -1.0625q-2.515625 -1.0625 -4.296875 -3.0q-1.765625 -1.9375 -2.75 -4.625q-0.984375 -2.703125 -0.984375 -5.9375q0 -3.25 1.046875 -5.9375q1.0625 -2.703125 2.953125 -4.640625q1.90625 -1.9531174 4.546875 -3.0156174q2.65625 -1.078125 5.859375 -1.078125q3.15625 0 5.4375 0.984375q2.296875 0.984375 4.078125 2.6562424l-1.265625 1.78125q-0.140625 0.203125 -0.328125 0.34375q-0.171875 0.125 -0.5 0.125q-0.265625 0 -0.5625 -0.1875q-0.28125 -0.203125 -0.6875 -0.484375q-0.390625 -0.28125 -0.9375 -0.59375q-0.53125 -0.328125 -1.28125 -0.59375q-0.734375 -0.28125 -1.71875 -0.46875q-0.984375 -0.203125 -2.25 -0.203125q-2.3125 0 -4.21875 0.796875q-1.90625 0.78125 -3.296875 2.25q-1.375 1.453125 -2.140625 3.5625q-0.765625 2.09375 -0.765625 4.703125q0 2.671875 0.765625 4.78125q0.765625 2.09375 2.09375 3.546875q1.328125 1.4375 3.140625 2.203125q1.828125 0.765625 3.9375 0.765625q1.28125 0 2.296875 -0.140625q1.015625 -0.15625 1.890625 -0.46875q0.875 -0.328125 1.625 -0.8125q0.75 -0.5 1.5 -1.1875q0.34375 -0.296875 0.671875 -0.296875z" fill-rule="nonzero"/><path fill="#000000" fill-opacity="0.0" d="m802.81366 444.98163l43.212585 0l0 67.87402l-43.212585 0z" fill-rule="evenodd"/><path fill="#741b47" d="m840.12616 478.06912q0 3.21875 -1.015625 5.859375q-1.015625 2.640625 -2.875 4.515625q-1.859375 1.875 -4.46875 2.90625q-2.59375 1.03125 -5.75 1.03125l-10.71875 0l0 -28.65625l10.71875 0q3.15625 0 5.75 1.03125q2.609375 1.03125 4.46875 2.921875q1.859375 1.890625 2.875 4.53125q1.015625 2.625 1.015625 5.859375zm-3.96875 0q0 -2.640625 -0.71875 -4.71875q-0.71875 -2.09375 -2.046875 -3.53125q-1.3125 -1.4375 -3.203125 -2.1875q-1.875 -0.765625 -4.171875 -0.765625l-6.828125 0l0 22.375l6.828125 0q2.296875 0 4.171875 -0.75q1.890625 -0.765625 3.203125 -2.1875q1.328125 -1.4375 2.046875 -3.515625q0.71875 -2.09375 0.71875 -4.71875z" fill-rule="nonzero"/><path fill="#000000" fill-opacity="0.0" d="m780.0945 275.88715l43.212585 0l0 67.87402l-43.212585 0z" fill-rule="evenodd"/><path fill="#000000" d="m790.407 299.16214l0 -2.15625l20.6875 0l0.28125 6.875l-3.328125 0l-0.796875 -4.640625l-6.953125 0q-0.046875 2.28125 -0.0625 4.609375q-0.015625 2.3125 -0.015625 4.671875l4.4375 0l0.484375 -3.109375l2.3125 0l0 9.0l-2.3125 0l-0.53125 -3.53125l-4.390625 0q0 2.6875 0.015625 5.109375q0.015625 2.421875 0.0625 4.78125l3.5625 0.359375l0 2.15625l-13.453125 0l0 -2.15625l3.0 -0.328125q0.09375 -2.4375 0.09375 -4.90625q0 -2.484375 0 -5.015625l0 -1.46875q0 -2.484375 0 -4.984375q0 -2.5 -0.09375 -4.9375l-3.0 -0.328125z" fill-rule="nonzero"/><path fill="#d393b0" fill-opacity="0.4367" d="m890.3949 438.24933l141.91528 0l0 -40.66928l83.59656 81.33859l-83.59656 81.33856l0 -40.66925l-141.91528 0z" fill-rule="evenodd"/><path stroke="#000000" stroke-width="3.0" stroke-linejoin="round" stroke-linecap="butt" d="m890.3949 438.24933l141.91528 0l0 -40.66928l83.59656 81.33859l-83.59656 81.33856l0 -40.66925l-141.91528 0z" fill-rule="evenodd"/><path fill="#000000" d="m907.29517 484.09363q0 4.953125 1.625 7.453125q1.640625 2.5 4.34375 2.5q2.109375 0 3.71875 -2.0q1.609375 -2.015625 1.796875 -5.5625l0.234375 -5.875q-0.890625 -2.953125 -2.578125 -4.203125q-1.671875 -1.265625 -3.484375 -1.265625q-2.4375 0 -4.046875 2.3125q-1.609375 2.3125 -1.609375 6.640625zm5.09375 12.234375q-2.578125 0 -4.65625 -1.28125q-2.0625 -1.28125 -3.3125 -3.84375q-1.234375 -2.578125 -1.234375 -6.3125q0 -3.734375 1.421875 -6.40625q1.4375 -2.6875 3.640625 -4.109375q2.21875 -1.421875 4.65625 -1.421875q2.0 0 3.609375 0.890625q1.609375 0.875 2.6875 3.03125l0.234375 -2.984375l3.625 -0.84375l0.703125 0.46875q-0.46875 2.9375 -0.859375 6.0q-0.390625 3.046875 -0.609375 5.75q-0.203125 2.703125 -0.203125 4.53125q0 1.859375 0.484375 2.59375q0.484375 0.71875 1.5625 0.71875q0.46875 0 0.984375 -0.109375q0.515625 -0.125 0.984375 -0.3125l0.40625 1.171875q-0.546875 1.0625 -1.578125 1.765625q-1.03125 0.703125 -2.234375 0.703125q-1.265625 0 -2.171875 -0.953125q-0.90625 -0.96875 -1.28125 -3.71875q-1.03125 2.421875 -2.828125 3.546875q-1.796875 1.125 -4.03125 1.125zm21.785217 -16.9375q-1.40625 0 -2.359375 -0.984375q-0.953125 -0.984375 -0.953125 -2.328125q0 -1.40625 0.953125 -2.375q0.953125 -0.984375 2.359375 -0.984375q1.390625 0 2.34375 0.984375q0.96875 0.96875 0.96875 2.375q0 1.34375 -0.96875 2.328125q-0.953125 0.984375 -2.34375 0.984375zm0 16.9375q-1.40625 0 -2.359375 -0.984375q-0.953125 -0.984375 -0.953125 -2.328125q0 -1.40625 0.953125 -2.375q0.953125 -0.984375 2.359375 -0.984375q1.390625 0 2.34375 0.984375q0.96875 0.96875 0.96875 2.375q0 1.34375 -0.96875 2.328125q-0.953125 0.984375 -2.34375 0.984375z" fill-rule="nonzero"/><path fill="#000000" d="m953.5887 467.578l0 -2.515625l24.109375 0l0.328125 8.03125l-3.875 0l-0.921875 -5.421875l-8.125 0q-0.046875 2.671875 -0.078125 5.375q-0.015625 2.703125 -0.015625 5.453125l5.1875 0l0.546875 -3.640625l2.71875 0l0 10.5l-2.71875 0l-0.59375 -4.109375l-5.140625 0q0 3.125 0.015625 5.953125q0.03125 2.828125 0.078125 5.578125l4.15625 0.421875l0 2.515625l-15.671875 0l0 -2.515625l3.484375 -0.375q0.09375 -2.84375 0.09375 -5.734375q0 -2.90625 0 -5.84375l0 -1.71875q0 -2.890625 0 -5.8125q0 -2.921875 -0.09375 -5.765625l-3.484375 -0.375z" fill-rule="nonzero"/><path fill="#000000" d="m1005.5514 495.90613l-1.203125 -1.21875l11.1875 -11.609375l-16.75 0.796875l-7.875 0l0 -3.359375l7.875 0l16.75 0.828125l-11.1875 -11.609375l1.203125 -1.21875l14.28125 13.15625l0 1.03125l-14.28125 13.203125z" fill-rule="nonzero"/><path fill="#000000" d="m1049.3716 496.60925q-4.8125 0 -8.453125 -1.953125q-3.640625 -1.96875 -5.671875 -5.609375q-2.015625 -3.640625 -2.015625 -8.71875q0 -4.90625 1.953125 -8.515625q1.953125 -3.625 5.703125 -5.625q3.765625 -2.015625 9.046875 -2.015625q2.28125 0 4.625 0.546875q2.359375 0.53125 4.375 1.609375l0.1875 7.28125l-3.59375 0l-1.359375 -6.078125q-1.671875 -0.6875 -3.359375 -0.6875q-2.515625 0 -4.640625 1.453125q-2.125 1.4375 -3.40625 4.40625q-1.28125 2.953125 -1.28125 7.625q0 4.609375 1.234375 7.640625q1.234375 3.03125 3.328125 4.515625q2.109375 1.46875 4.671875 1.46875q1.03125 0 1.78125 -0.1875l0 -2.015625q0 -2.046875 -0.03125 -4.046875q-0.015625 -2.015625 -0.0625 -4.015625l-4.203125 -0.5625l0 -2.515625l14.234375 0l0 2.515625l-2.4375 0.328125q-0.046875 2.09375 -0.0625 4.171875q-0.015625 2.078125 -0.015625 4.265625l0 1.96875q-2.4375 1.390625 -4.953125 2.0625q-2.515625 0.6875 -5.59375 0.6875z" fill-rule="nonzero"/><path fill="#000000" fill-opacity="0.0" d="m1714.5442 232.32991l20.409424 288.72443" fill-rule="evenodd"/><path stroke="#000000" stroke-width="3.0" stroke-linejoin="round" stroke-linecap="butt" d="m1714.5441 232.32991l19.68457 278.46875" fill-rule="evenodd"/><path fill="#000000" stroke="#000000" stroke-width="3.0" stroke-linecap="butt" d="m1734.2286 510.7986l-3.6032715 -3.1274414l4.018921 9.008331l2.711792 -9.484131z" fill-rule="evenodd"/><path fill="#000000" fill-opacity="0.0" d="m1802.1481 88.1286l1.1022949 315.1811" fill-rule="evenodd"/><path stroke="#000000" stroke-width="3.0" stroke-linejoin="round" stroke-linecap="butt" d="m1802.148 88.1286l1.0664062 304.8999" fill-rule="evenodd"/><path fill="#000000" stroke="#000000" stroke-width="3.0" stroke-linecap="butt" d="m1803.2144 393.0285l-3.385498 -3.361908l3.406128 9.257446l3.3413086 -9.281067z" fill-rule="evenodd"/><path fill="#d5a6bd" d="m1270.3915 478.91888l0 0c0 -6.357788 9.87793 -11.51181 22.062988 -11.51181l0 0c12.185059 0 22.062988 5.154022 22.062988 11.51181l0 0c0 6.357788 -9.87793 11.51181 -22.062988 11.51181l0 0c-12.185059 0 -22.062988 -5.154022 -22.062988 -11.51181z" fill-rule="evenodd"/><path stroke="#741b47" stroke-width="3.0" stroke-linejoin="round" stroke-linecap="butt" stroke-dasharray="24.0,9.0" d="m1270.3915 478.91888l0 0c0 -6.357788 9.87793 -11.51181 22.062988 -11.51181l0 0c12.185059 0 22.062988 5.154022 22.062988 11.51181l0 0c0 6.357788 -9.87793 11.51181 -22.062988 11.51181l0 0c-12.185059 0 -22.062988 -5.154022 -22.062988 -11.51181z" fill-rule="evenodd"/><path fill="#d5a6bd" d="m1246.3915 398.76535l0 0c0 -6.3578186 9.87793 -11.51181 22.062988 -11.51181l0 0c12.185059 0 22.062988 5.1539917 22.062988 11.51181l0 0c0 6.357788 -9.87793 11.51181 -22.062988 11.51181l0 0c-12.185059 0 -22.062988 -5.154022 -22.062988 -11.51181z" fill-rule="evenodd"/><path stroke="#741b47" stroke-width="3.0" stroke-linejoin="round" stroke-linecap="butt" stroke-dasharray="24.0,9.0" d="m1246.3915 398.76535l0 0c0 -6.3578186 9.87793 -11.51181 22.062988 -11.51181l0 0c12.185059 0 22.062988 5.1539917 22.062988 11.51181l0 0c0 6.357788 -9.87793 11.51181 -22.062988 11.51181l0 0c-12.185059 0 -22.062988 -5.154022 -22.062988 -11.51181z" fill-rule="evenodd"/><path fill="#000000" fill-opacity="0.0" d="m1228.9214 125.36611l-22.393677 309.98425" fill-rule="evenodd"/><path stroke="#000000" stroke-width="3.0" stroke-linejoin="round" stroke-linecap="butt" d="m1228.9214 125.36611l-21.652832 299.72968" fill-rule="evenodd"/><path fill="#000000" stroke="#000000" stroke-width="3.0" stroke-linecap="butt" d="m1207.2686 425.09583l-3.1219482 -3.6080933l2.6971436 9.488312l4.032837 -9.002106z" fill-rule="evenodd"/><path fill="#000000" fill-opacity="0.0" d="m1311.6616 74.78545l-43.212524 312.47244" fill-rule="evenodd"/><path stroke="#000000" stroke-width="3.0" stroke-linejoin="round" stroke-linecap="butt" d="m1311.6616 74.785446l-41.8042 302.2881" fill-rule="evenodd"/><path fill="#000000" stroke="#000000" stroke-width="3.0" stroke-linecap="butt" d="m1269.8574 377.07355l-2.8797607 -3.8041077l2.0721436 9.6440735l4.6118164 -8.719757z" fill-rule="evenodd"/><path fill="#000000" fill-opacity="0.0" d="m1643.7015 163.21599l25.102417 315.1811" fill-rule="evenodd"/><path stroke="#000000" stroke-width="3.0" stroke-linejoin="round" stroke-linecap="butt" d="m1643.7017 163.21599l24.28601 304.9323" fill-rule="evenodd"/><path fill="#000000" stroke="#000000" stroke-width="3.0" stroke-linecap="butt" d="m1667.9877 468.1483l-3.6308594 -3.0952454l4.098999 8.9721985l2.6271973 -9.507904z" fill-rule="evenodd"/><path fill="#000000" fill-opacity="0.0" d="m1504.0255 111.14102l99.49609 277.25983" fill-rule="evenodd"/><path stroke="#000000" stroke-width="3.0" stroke-linejoin="round" stroke-linecap="butt" d="m1504.0254 111.14102l96.02344 267.58282" fill-rule="evenodd"/><path fill="#000000" stroke="#000000" stroke-width="3.0" stroke-linecap="butt" d="m1600.0488 378.72385l-4.3149414 -2.0359497l6.3062744 7.585022l0.044677734 -9.864075z" fill-rule="evenodd"/><path fill="#9a86c8" fill-opacity="0.4588" d="m1258.3251 28.238865l531.5796 0l0 0c69.63843 0 126.09143 50.36352 126.09143 112.49008c0 62.126556 -56.453003 112.49008 -126.09143 112.49008l-531.5796 0l0 0c-69.63843 0 -126.09143 -50.363525 -126.09143 -112.49008c0 -62.126556 56.453003 -112.49008 126.09143 -112.49008z" fill-rule="evenodd"/><path stroke="#ffffff" stroke-width="1.0" stroke-linejoin="round" stroke-linecap="butt" d="m1258.3251 28.238865l531.5796 0l0 0c69.63843 0 126.09143 50.36352 126.09143 112.49008c0 62.126556 -56.453003 112.49008 -126.09143 112.49008l-531.5796 0l0 0c-69.63843 0 -126.09143 -50.363525 -126.09143 -112.49008c0 -62.126556 56.453003 -112.49008 126.09143 -112.49008z" fill-rule="evenodd"/><path fill="#000000" fill-opacity="0.0" d="m1398.0818 180.6026l-105.63782 286.80316" fill-rule="evenodd"/><path stroke="#000000" stroke-width="3.0" stroke-linejoin="round" stroke-linecap="butt" d="m1398.0817 180.60262l-102.08423 277.15552" fill-rule="evenodd"/><path fill="#000000" stroke="#000000" stroke-width="3.0" stroke-linecap="butt" d="m1295.9974 457.75812l-1.9997559 -4.331909l-0.037841797 9.864136l6.369507 -7.5319824z" fill-rule="evenodd"/><path fill="#b4a7d6" d="m1376.0188 169.09079l0 0c0 -6.357788 9.87793 -11.51181 22.062988 -11.51181l0 0c12.185059 0 22.062988 5.154022 22.062988 11.51181l0 0c0 6.3578033 -9.87793 11.51181 -22.062988 11.51181l0 0c-12.185059 0 -22.062988 -5.154007 -22.062988 -11.51181z" fill-rule="evenodd"/><path stroke="#351c75" stroke-width="3.0" stroke-linejoin="round" stroke-linecap="butt" stroke-dasharray="24.0,9.0" d="m1376.0188 169.09079l0 0c0 -6.357788 9.87793 -11.51181 22.062988 -11.51181l0 0c12.185059 0 22.062988 5.154022 22.062988 11.51181l0 0c0 6.3578033 -9.87793 11.51181 -22.062988 11.51181l0 0c-12.185059 0 -22.062988 -5.154007 -22.062988 -11.51181z" fill-rule="evenodd"/><path fill="#b4a7d6" d="m1621.6385 151.70418l0 0c0 -6.357788 9.87793 -11.51181 22.062988 -11.51181l0 0c12.185059 0 22.062988 5.154022 22.062988 11.51181l0 0c0 6.3578033 -9.87793 11.51181 -22.062988 11.51181l0 0c-12.185059 0 -22.062988 -5.154007 -22.062988 -11.51181z" fill-rule="evenodd"/><path stroke="#351c75" stroke-width="3.0" stroke-linejoin="round" stroke-linecap="butt" stroke-dasharray="24.0,9.0" d="m1621.6385 151.70418l0 0c0 -6.357788 9.87793 -11.51181 22.062988 -11.51181l0 0c12.185059 0 22.062988 5.154022 22.062988 11.51181l0 0c0 6.3578033 -9.87793 11.51181 -22.062988 11.51181l0 0c-12.185059 0 -22.062988 -5.154007 -22.062988 -11.51181z" fill-rule="evenodd"/><path fill="#b4a7d6" d="m1481.9625 99.62921l0 0c0 -6.3578033 9.87793 -11.51181 22.062988 -11.51181l0 0c12.185059 0 22.062988 5.154007 22.062988 11.51181l0 0c0 6.3577957 -9.87793 11.51181 -22.062988 11.51181l0 0c-12.185059 0 -22.062988 -5.1540146 -22.062988 -11.51181z" fill-rule="evenodd"/><path stroke="#351c75" stroke-width="3.0" stroke-linejoin="round" stroke-linecap="butt" stroke-dasharray="24.0,9.0" d="m1481.9625 99.62921l0 0c0 -6.3578033 9.87793 -11.51181 22.062988 -11.51181l0 0c12.185059 0 22.062988 5.154007 22.062988 11.51181l0 0c0 6.3577957 -9.87793 11.51181 -22.062988 11.51181l0 0c-12.185059 0 -22.062988 -5.1540146 -22.062988 -11.51181z" fill-rule="evenodd"/><path fill="#000000" fill-opacity="0.0" d="m1488.4246 107.76929l-74.74011 53.196854" fill-rule="evenodd"/><path stroke="#351c75" stroke-width="3.0" stroke-linejoin="round" stroke-linecap="butt" d="m1473.7599 118.207l-60.07556 42.75914" fill-rule="evenodd"/><path stroke="#351c75" stroke-width="3.0" stroke-linecap="butt" d="m1476.6332 122.24403l8.218262 -11.931595l-13.964966 3.8575363z" fill-rule="evenodd"/><path fill="#000000" fill-opacity="0.0" d="m1519.6263 107.76929l108.472534 35.779526" fill-rule="evenodd"/><path stroke="#351c75" stroke-width="3.0" stroke-linejoin="round" stroke-linecap="butt" d="m1519.6263 107.76929l91.378296 30.141068" fill-rule="evenodd"/><path stroke="#351c75" stroke-width="3.0" stroke-linecap="butt" d="m1609.4525 142.61615l14.481201 -0.44114685l-11.376831 -8.970459z" fill-rule="evenodd"/><path fill="#b4a7d6" d="m1289.5986 63.27364l0 0c0 -6.3577995 9.87793 -11.51181 22.062988 -11.51181l0 0c12.185059 0 22.062988 5.154011 22.062988 11.51181l0 0c0 6.3577995 -9.87793 11.511814 -22.062988 11.511814l0 0c-12.185059 0 -22.062988 -5.1540146 -22.062988 -11.511814z" fill-rule="evenodd"/><path stroke="#351c75" stroke-width="3.0" stroke-linejoin="round" stroke-linecap="butt" stroke-dasharray="24.0,9.0" d="m1289.5986 63.27364l0 0c0 -6.3577995 9.87793 -11.51181 22.062988 -11.51181l0 0c12.185059 0 22.062988 5.154011 22.062988 11.51181l0 0c0 6.3577995 -9.87793 11.511814 -22.062988 11.511814l0 0c-12.185059 0 -22.062988 -5.1540146 -22.062988 -11.511814z" fill-rule="evenodd"/><path fill="#b4a7d6" d="m1212.0553 116.56296l0 0c0 -4.861847 7.5511475 -8.803146 16.866089 -8.803146l0 0c9.314941 0 16.866089 3.9412994 16.866089 8.803146l0 0c0 4.861847 -7.5511475 8.803154 -16.866089 8.803154l0 0c-9.314941 0 -16.866089 -3.941307 -16.866089 -8.803154z" fill-rule="evenodd"/><path stroke="#351c75" stroke-width="3.0" stroke-linejoin="round" stroke-linecap="butt" stroke-dasharray="24.0,9.0" d="m1212.0553 116.56296l0 0c0 -4.861847 7.5511475 -8.803146 16.866089 -8.803146l0 0c9.314941 0 16.866089 3.9412994 16.866089 8.803146l0 0c0 4.861847 -7.5511475 8.803154 -16.866089 8.803154l0 0c-9.314941 0 -16.866089 -3.941307 -16.866089 -8.803154z" fill-rule="evenodd"/><path fill="#000000" fill-opacity="0.0" d="m1296.0608 71.41372l-55.212646 38.92913" fill-rule="evenodd"/><path stroke="#351c75" stroke-width="3.0" stroke-linejoin="round" stroke-linecap="butt" d="m1281.3497 81.7861l-40.501587 28.556747" fill-rule="evenodd"/><path stroke="#351c75" stroke-width="3.0" stroke-linecap="butt" d="m1284.2052 85.83588l8.27124 -11.89492l-13.982056 3.7953796z" fill-rule="evenodd"/><path fill="#000000" fill-opacity="0.0" d="m1382.4808 160.95071l-141.63782 -38.173225" fill-rule="evenodd"/><path stroke="#351c75" stroke-width="3.0" stroke-linejoin="round" stroke-linecap="butt" d="m1365.101 156.26662l-124.25781 -33.48913" fill-rule="evenodd"/><path stroke="#351c75" stroke-width="3.0" stroke-linecap="butt" d="m1363.8115 161.0511l14.434692 -1.2416687l-11.855835 -8.327286z" fill-rule="evenodd"/><path fill="#000000" fill-opacity="0.0" d="m1802.1481 88.1286l-72.0 124.53543" fill-rule="evenodd"/><path stroke="#351c75" stroke-width="3.0" stroke-linejoin="round" stroke-linecap="butt" d="m1793.1387 103.71166l-62.990723 108.952385" fill-rule="evenodd"/><path stroke="#351c75" stroke-width="3.0" stroke-linecap="butt" d="m1797.4285 106.19183l2.524414 -14.266411l-11.104126 9.306076z" fill-rule="evenodd"/><path fill="#b4a7d6" d="m1692.4812 220.8181l0 0c0 -6.3578033 9.87793 -11.511826 22.062988 -11.511826l0 0c12.185059 0 22.062988 5.154022 22.062988 11.511826l0 0c0 6.357788 -9.87793 11.51181 -22.062988 11.51181l0 0c-12.185059 0 -22.062988 -5.154022 -22.062988 -11.51181z" fill-rule="evenodd"/><path stroke="#351c75" stroke-width="3.0" stroke-linejoin="round" stroke-linecap="butt" stroke-dasharray="24.0,9.0" d="m1692.4812 220.8181l0 0c0 -6.3578033 9.87793 -11.511826 22.062988 -11.511826l0 0c12.185059 0 22.062988 5.154022 22.062988 11.511826l0 0c0 6.357788 -9.87793 11.51181 -22.062988 11.51181l0 0c-12.185059 0 -22.062988 -5.154022 -22.062988 -11.51181z" fill-rule="evenodd"/><path fill="#b4a7d6" d="m1780.0851 76.61679l0 0c0 -6.3577957 9.87793 -11.51181 22.062988 -11.51181l0 0c12.185059 0 22.062988 5.1540146 22.062988 11.51181l0 0c0 6.3577957 -9.87793 11.51181 -22.062988 11.51181l0 0c-12.185059 0 -22.062988 -5.1540146 -22.062988 -11.51181z" fill-rule="evenodd"/><path stroke="#351c75" stroke-width="3.0" stroke-linejoin="round" stroke-linecap="butt" stroke-dasharray="24.0,9.0" d="m1780.0851 76.61679l0 0c0 -6.3577957 9.87793 -11.51181 22.062988 -11.51181l0 0c12.185059 0 22.062988 5.1540146 22.062988 11.51181l0 0c0 6.3577957 -9.87793 11.51181 -22.062988 11.51181l0 0c-12.185059 0 -22.062988 -5.1540146 -22.062988 -11.51181z" fill-rule="evenodd"/><path fill="#000000" fill-opacity="0.0" d="m1786.5471 84.75687l-72.0 124.53543" fill-rule="evenodd"/><path stroke="#351c75" stroke-width="3.0" stroke-linejoin="round" stroke-linecap="butt" d="m1777.5377 100.339935l-62.9906 108.95236" fill-rule="evenodd"/><path stroke="#351c75" stroke-width="3.0" stroke-linecap="butt" d="m1781.8276 102.8201l2.524292 -14.266411l-11.104004 9.306084z" fill-rule="evenodd"/><path fill="#d5a6bd" d="m1357.7222 399.91495l0 0c0 -6.357788 9.87793 -11.51181 22.062988 -11.51181l0 0c12.185059 0 22.062988 5.154022 22.062988 11.51181l0 0c0 6.357788 -9.87793 11.51181 -22.062988 11.51181l0 0c-12.185059 0 -22.062988 -5.154022 -22.062988 -11.51181z" fill-rule="evenodd"/><path stroke="#741b47" stroke-width="3.0" stroke-linejoin="round" stroke-linecap="butt" stroke-dasharray="24.0,9.0" d="m1357.7222 399.91495l0 0c0 -6.357788 9.87793 -11.51181 22.062988 -11.51181l0 0c12.185059 0 22.062988 5.154022 22.062988 11.51181l0 0c0 6.357788 -9.87793 11.51181 -22.062988 11.51181l0 0c-12.185059 0 -22.062988 -5.154022 -22.062988 -11.51181z" fill-rule="evenodd"/><path fill="#d5a6bd" d="m1646.7305 489.89578l0 0c0 -6.357788 9.87793 -11.51181 22.062988 -11.51181l0 0c12.185059 0 22.062988 5.154022 22.062988 11.51181l0 0c0 6.357788 -9.87793 11.51181 -22.062988 11.51181l0 0c-12.185059 0 -22.062988 -5.154022 -22.062988 -11.51181z" fill-rule="evenodd"/><path stroke="#741b47" stroke-width="3.0" stroke-linejoin="round" stroke-linecap="butt" stroke-dasharray="24.0,9.0" d="m1646.7305 489.89578l0 0c0 -6.357788 9.87793 -11.51181 22.062988 -11.51181l0 0c12.185059 0 22.062988 5.154022 22.062988 11.51181l0 0c0 6.357788 -9.87793 11.51181 -22.062988 11.51181l0 0c-12.185059 0 -22.062988 -5.154022 -22.062988 -11.51181z" fill-rule="evenodd"/><path fill="#d5a6bd" d="m1581.4493 399.91528l0 0c0 -6.357788 9.87793 -11.51181 22.062988 -11.51181l0 0c12.185059 0 22.062988 5.154022 22.062988 11.51181l0 0c0 6.3578186 -9.87793 11.511841 -22.062988 11.511841l0 0c-12.185059 0 -22.062988 -5.154022 -22.062988 -11.511841z" fill-rule="evenodd"/><path stroke="#741b47" stroke-width="3.0" stroke-linejoin="round" stroke-linecap="butt" stroke-dasharray="24.0,9.0" d="m1581.4493 399.91528l0 0c0 -6.357788 9.87793 -11.51181 22.062988 -11.51181l0 0c12.185059 0 22.062988 5.154022 22.062988 11.51181l0 0c0 6.3578186 -9.87793 11.511841 -22.062988 11.511841l0 0c-12.185059 0 -22.062988 -5.154022 -22.062988 -11.511841z" fill-rule="evenodd"/><path fill="#000000" fill-opacity="0.0" d="m1581.4493 399.91528l-179.59045 0" fill-rule="evenodd"/><path stroke="#741b47" stroke-width="3.0" stroke-linejoin="round" stroke-linecap="butt" d="m1563.4493 399.9153l-161.59058 0" fill-rule="evenodd"/><path stroke="#741b47" stroke-width="3.0" stroke-linecap="butt" d="m1563.4493 404.8705l13.614258 -4.9552l-13.614258 -4.9552z" fill-rule="evenodd"/><path fill="#000000" fill-opacity="0.0" d="m1619.1133 408.0554l49.66931 70.33069" fill-rule="evenodd"/><path stroke="#741b47" stroke-width="3.0" stroke-linejoin="round" stroke-linecap="butt" d="m1619.1132 408.05536l39.285645 55.627686" fill-rule="evenodd"/><path stroke="#741b47" stroke-width="3.0" stroke-linecap="butt" d="m1654.3512 466.54153l11.901245 8.262146l-3.8060303 -13.9791565z" fill-rule="evenodd"/><path fill="#000000" fill-opacity="0.0" d="m1803.2399 426.3202l-52.69287 75.08664" fill-rule="evenodd"/><path stroke="#741b47" stroke-width="3.0" stroke-linejoin="round" stroke-linecap="butt" d="m1792.9001 441.05417l-42.35327 60.35266" fill-rule="evenodd"/><path stroke="#741b47" stroke-width="3.0" stroke-linecap="butt" d="m1796.9562 443.9006l3.7644043 -13.990448l-11.876587 8.297607z" fill-rule="evenodd"/><path fill="#d5a6bd" d="m1781.1769 414.80838l0 0c0 -6.357788 9.87793 -11.51181 22.062988 -11.51181l0 0c12.185059 0 22.062988 5.154022 22.062988 11.51181l0 0c0 6.3578186 -9.87793 11.51181 -22.062988 11.51181l0 0c-12.185059 0 -22.062988 -5.1539917 -22.062988 -11.51181z" fill-rule="evenodd"/><path stroke="#741b47" stroke-width="3.0" stroke-linejoin="round" stroke-linecap="butt" stroke-dasharray="24.0,9.0" d="m1781.1769 414.80838l0 0c0 -6.357788 9.87793 -11.51181 22.062988 -11.51181l0 0c12.185059 0 22.062988 5.154022 22.062988 11.51181l0 0c0 6.3578186 -9.87793 11.51181 -22.062988 11.51181l0 0c-12.185059 0 -22.062988 -5.1539917 -22.062988 -11.51181z" fill-rule="evenodd"/><path fill="#d5a6bd" d="m1245.0842 550.0354l0 0c0 -6.357788 9.87793 -11.51178 22.062988 -11.51178l0 0c12.185059 0 22.062988 5.1539917 22.062988 11.51178l0 0c0 6.357788 -9.87793 11.511841 -22.062988 11.511841l0 0c-12.185059 0 -22.062988 -5.1540527 -22.062988 -11.511841z" fill-rule="evenodd"/><path stroke="#741b47" stroke-width="3.0" stroke-linejoin="round" stroke-linecap="butt" stroke-dasharray="24.0,9.0" d="m1245.0842 550.0354l0 0c0 -6.357788 9.87793 -11.51178 22.062988 -11.51178l0 0c12.185059 0 22.062988 5.1539917 22.062988 11.51178l0 0c0 6.357788 -9.87793 11.511841 -22.062988 11.511841l0 0c-12.185059 0 -22.062988 -5.1540527 -22.062988 -11.511841z" fill-rule="evenodd"/><path fill="#000000" fill-opacity="0.0" d="m1364.1843 408.05502l-56.125977 62.70865" fill-rule="evenodd"/><path stroke="#741b47" stroke-width="3.0" stroke-linejoin="round" stroke-linecap="butt" d="m1352.1798 421.46744l-44.12146 49.296265" fill-rule="evenodd"/><path stroke="#741b47" stroke-width="3.0" stroke-linecap="butt" d="m1355.8721 424.77213l5.387329 -13.449158l-12.771851 6.8397827z" fill-rule="evenodd"/><path fill="#000000" fill-opacity="0.0" d="m1646.7305 489.89578l-338.67725 -2.8346558" fill-rule="evenodd"/><path stroke="#741b47" stroke-width="3.0" stroke-linejoin="round" stroke-linecap="butt" stroke-dasharray="24.0,9.0" d="m1628.7311 489.74515l-320.67773 -2.6839905" fill-rule="evenodd"/><path stroke="#741b47" stroke-width="3.0" stroke-linecap="butt" d="m1628.6897 494.70016l13.655273 -4.8410645l-13.572388 -5.0689697z" fill-rule="evenodd"/><path fill="#000000" fill-opacity="0.0" d="m1653.1925 481.7557l-257.7953 -73.700775" fill-rule="evenodd"/><path stroke="#741b47" stroke-width="3.0" stroke-linejoin="round" stroke-linecap="butt" stroke-dasharray="24.0,9.0" d="m1635.886 476.80795l-240.48865 -68.75305" fill-rule="evenodd"/><path stroke="#741b47" stroke-width="3.0" stroke-linecap="butt" d="m1634.5239 481.57224l14.451904 -1.0220642l-11.727783 -8.506561z" fill-rule="evenodd"/><path fill="#d5a6bd" d="m1184.4702 446.8572l0 0c0 -6.3578186 9.87793 -11.51181 22.062988 -11.51181l0 0c12.185059 0 22.062988 5.1539917 22.062988 11.51181l0 0c0 6.357788 -9.87793 11.51181 -22.062988 11.51181l0 0c-12.185059 0 -22.062988 -5.154022 -22.062988 -11.51181z" fill-rule="evenodd"/><path stroke="#741b47" stroke-width="3.0" stroke-linejoin="round" stroke-linecap="butt" stroke-dasharray="24.0,9.0" d="m1184.4702 446.8572l0 0c0 -6.3578186 9.87793 -11.51181 22.062988 -11.51181l0 0c12.185059 0 22.062988 5.1539917 22.062988 11.51181l0 0c0 6.357788 -9.87793 11.51181 -22.062988 11.51181l0 0c-12.185059 0 -22.062988 -5.154022 -22.062988 -11.51181z" fill-rule="evenodd"/><path fill="#000000" fill-opacity="0.0" d="m1276.8535 470.7788l-54.70862 -15.779541" fill-rule="evenodd"/><path stroke="#741b47" stroke-width="3.0" stroke-linejoin="round" stroke-linecap="butt" d="m1259.5586 465.79044l-37.413696 -10.791168" fill-rule="evenodd"/><path stroke="#741b47" stroke-width="3.0" stroke-linecap="butt" d="m1258.1854 470.55154l14.454224 -0.9881592l-11.707764 -8.534058z" fill-rule="evenodd"/><path fill="#000000" fill-opacity="0.0" d="m1252.8535 406.90543l-30.708618 31.811005" fill-rule="evenodd"/><path stroke="#741b47" stroke-width="3.0" stroke-linejoin="round" stroke-linecap="butt" d="m1240.352 419.85577l-18.207153 18.860687" fill-rule="evenodd"/><path stroke="#741b47" stroke-width="3.0" stroke-linecap="butt" d="m1243.9171 423.2973l5.890503 -13.236511l-13.02063 6.353424z" fill-rule="evenodd"/><path fill="#000000" fill-opacity="0.0" d="m1628.1007 159.84427l-207.9685 9.259842" fill-rule="evenodd"/><path stroke="#351c75" stroke-width="3.0" stroke-linejoin="round" stroke-linecap="butt" stroke-dasharray="24.0,9.0" d="m1610.1187 160.64493l-189.98645 8.459183" fill-rule="evenodd"/><path stroke="#351c75" stroke-width="3.0" stroke-linecap="butt" d="m1610.339 165.59521l13.380371 -5.5558777l-13.821289 -4.3447113z" fill-rule="evenodd"/><path fill="#000000" fill-opacity="0.0" d="m1847.4908 106.79002l43.212524 0l0 67.87402l-43.212524 0z" fill-rule="evenodd"/><path fill="#351c75" d="m1880.1783 148.26814q0.3125 0 0.578125 0.265625l1.515625 1.65625q-1.765625 2.046875 -4.28125 3.1875q-2.5 1.125 -6.046875 1.125q-3.09375 0 -5.625 -1.0625q-2.515625 -1.0625 -4.296875 -3.0q-1.765625 -1.9375 -2.75 -4.625q-0.984375 -2.703125 -0.984375 -5.9375q0 -3.25 1.046875 -5.9375q1.0625 -2.703125 2.953125 -4.640625q1.90625 -1.9531174 4.546875 -3.0156174q2.65625 -1.078125 5.859375 -1.078125q3.15625 0 5.4375 0.984375q2.296875 0.984375 4.078125 2.6562424l-1.265625 1.78125q-0.140625 0.203125 -0.328125 0.34375q-0.171875 0.125 -0.5 0.125q-0.265625 0 -0.5625 -0.1875q-0.28125 -0.203125 -0.6875 -0.484375q-0.390625 -0.28125 -0.9375 -0.59375q-0.53125 -0.328125 -1.28125 -0.59375q-0.734375 -0.28125 -1.71875 -0.46875q-0.984375 -0.203125 -2.25 -0.203125q-2.3125 0 -4.21875 0.796875q-1.90625 0.78125 -3.296875 2.25q-1.375 1.453125 -2.140625 3.5625q-0.765625 2.09375 -0.765625 4.703125q0 2.671875 0.765625 4.78125q0.765625 2.09375 2.09375 3.546875q1.328125 1.4375 3.140625 2.203125q1.828125 0.765625 3.9375 0.765625q1.28125 0 2.296875 -0.140625q1.015625 -0.15625 1.890625 -0.46875q0.875 -0.328125 1.625 -0.8125q0.75 -0.5 1.5 -1.1875q0.34375 -0.296875 0.671875 -0.296875z" fill-rule="nonzero"/><path fill="#000000" fill-opacity="0.0" d="m1846.9291 444.98163l43.212646 0l0 67.87402l-43.212646 0z" fill-rule="evenodd"/><path fill="#741b47" d="m1884.2416 478.06912q0 3.21875 -1.015625 5.859375q-1.015625 2.640625 -2.875 4.515625q-1.859375 1.875 -4.46875 2.90625q-2.59375 1.03125 -5.75 1.03125l-10.71875 0l0 -28.65625l10.71875 0q3.15625 0 5.75 1.03125q2.609375 1.03125 4.46875 2.921875q1.859375 1.890625 2.875 4.53125q1.015625 2.625 1.015625 5.859375zm-3.96875 0q0 -2.640625 -0.71875 -4.71875q-0.71875 -2.09375 -2.046875 -3.53125q-1.3125 -1.4375 -3.203125 -2.1875q-1.875 -0.765625 -4.171875 -0.765625l-6.828125 0l0 22.375l6.828125 0q2.296875 0 4.171875 -0.75q1.890625 -0.765625 3.203125 -2.1875q1.328125 -1.4375 2.046875 -3.515625q0.71875 -2.09375 0.71875 -4.71875z" fill-rule="nonzero"/><path fill="#000000" fill-opacity="0.0" d="m1152.5879 275.88715l43.212646 0l0 67.87402l-43.212646 0z" fill-rule="evenodd"/><path fill="#000000" d="m1176.791 324.05276q-4.125 0 -7.25 -1.671875q-3.109375 -1.6875 -4.859375 -4.8125q-1.734375 -3.125 -1.734375 -7.484375q0 -4.203125 1.671875 -7.296875q1.6875 -3.09375 4.90625 -4.8125q3.21875 -1.734375 7.75 -1.734375q1.953125 0 3.96875 0.46875q2.03125 0.453125 3.75 1.375l0.15625 6.25l-3.078125 0l-1.171875 -5.203125q-1.4375 -0.609375 -2.875 -0.609375q-2.15625 0 -3.984375 1.25q-1.8125 1.234375 -2.921875 3.78125q-1.09375 2.53125 -1.09375 6.53125q0 3.96875 1.0625 6.5625q1.0625 2.59375 2.859375 3.859375q1.796875 1.265625 4.0 1.265625q0.875 0 1.515625 -0.171875l0 -1.71875q0 -1.75 -0.015625 -3.46875q-0.015625 -1.71875 -0.0625 -3.4375l-3.59375 -0.484375l0 -2.15625l12.203125 0l0 2.15625l-2.09375 0.28125q-0.03125 1.796875 -0.0625 3.578125q-0.015625 1.78125 -0.015625 3.65625l0 1.6875q-2.078125 1.1875 -4.234375 1.765625q-2.15625 0.59375 -4.796875 0.59375z" fill-rule="nonzero"/><path fill="#000000" fill-opacity="0.0" d="m543.796 408.0554l-273.38586 70.86612" fill-rule="evenodd"/><path stroke="#741b47" stroke-width="3.0" stroke-linejoin="round" stroke-linecap="butt" stroke-dasharray="24.0,9.0" d="m526.3719 412.57196l-255.96173 66.34955" fill-rule="evenodd"/><path stroke="#741b47" stroke-width="3.0" stroke-linecap="butt" d="m527.61523 417.36865l11.935364 -8.212799l-14.422058 -1.3805237z" fill-rule="evenodd"/><path fill="#000000" fill-opacity="0.0" d="m1587.9115 408.0554l-273.38586 70.86612" fill-rule="evenodd"/><path stroke="#741b47" stroke-width="3.0" stroke-linejoin="round" stroke-linecap="butt" stroke-dasharray="24.0,9.0" d="m1570.4874 412.57196l-255.96179 66.34955" fill-rule="evenodd"/><path stroke="#741b47" stroke-width="3.0" stroke-linecap="butt" d="m1571.7307 417.36865l11.935303 -8.212799l-14.422119 -1.3805237z" fill-rule="evenodd"/></g></svg>