<svg version="1.1" viewBox="0.0 0.0 765.2965879265092 380.87664041994753" fill="none" stroke="none" stroke-linecap="square" stroke-miterlimit="10" xmlns:xlink="http://www.w3.org/1999/xlink" xmlns="http://www.w3.org/2000/svg"><clipPath id="p.0"><path d="m0 0l765.2966 0l0 380.87665l-765.2966 0l0 -380.87665z" clip-rule="nonzero"/></clipPath><g clip-path="url(#p.0)"><path fill="#000000" fill-opacity="0.0" d="m0 0l765.2966 0l0 380.87665l-765.2966 0z" fill-rule="evenodd"/><path fill="#000000" fill-opacity="0.0" d="m680.72095 227.79985l0 0c0 -17.0643 13.847412 -30.897644 30.929138 -30.897644l0 0c8.202881 0 16.069824 3.2552795 21.870178 9.049713c5.800354 5.7944336 9.058899 13.653366 9.058899 21.84793l0 0c0 17.064285 -13.847412 30.897629 -30.929077 30.897629l0 0c-17.081726 0 -30.929138 -13.8333435 -30.929138 -30.897629z" fill-rule="evenodd"/><path stroke="#000000" stroke-width="1.0" stroke-linejoin="round" stroke-linecap="butt" d="m680.72095 227.79985l0 0c0 -17.0643 13.847412 -30.897644 30.929138 -30.897644l0 0c8.202881 0 16.069824 3.2552795 21.870178 9.049713c5.800354 5.7944336 9.058899 13.653366 9.058899 21.84793l0 0c0 17.064285 -13.847412 30.897629 -30.929077 30.897629l0 0c-17.081726 0 -30.929138 -13.8333435 -30.929138 -30.897629z" fill-rule="evenodd"/><path fill="#000000" fill-opacity="0.0" d="m667.65967 213.37207l90.14172 0l0 28.125992l-90.14172 0z" fill-rule="evenodd"/><path fill="#000000" d="m685.3116 229.28407l0 -1.015625l5.6875 -15.15625l1.515625 0l5.65625 15.15625l0 1.015625l-12.859375 0zm1.515625 -1.9375l8.640625 0l-4.296875 -11.640625l-4.34375 11.640625z" fill-rule="nonzero"/><path fill="#000000" d="m699.57367 228.2372l0 -0.65625l7.96875 0l0.109375 2.828125l-0.90625 0l-0.359375 -2.03125l-3.75 0q-0.015625 1.03125 -0.03125 2.0625q0 1.015625 0 2.0l2.46875 0l0.234375 -1.515625l0.734375 0l0 3.9375l-0.734375 0l-0.234375 -1.671875l-2.46875 0q0 1.1875 0 2.234375q0.015625 1.03125 0.03125 2.03125l1.484375 0.171875l0 0.65625l-4.546875 0l0 -0.65625l1.46875 -0.171875q0.03125 -1.015625 0.03125 -2.046875q0 -1.046875 0 -2.078125l0 -0.796875q0 -1.03125 0 -2.0625q0 -1.03125 -0.03125 -2.0625l-1.46875 -0.171875z" fill-rule="nonzero"/><path fill="#000000" d="m711.97833 222.6122q0 1.921875 0.328125 3.59375q0.34375 1.65625 1.140625 3.375q0.8125 1.71875 2.21875 3.765625l-0.625 0.546875q-2.53125 -2.375 -3.765625 -5.1875q-1.21875 -2.8125 -1.21875 -6.09375q0 -3.28125 1.21875 -6.09375q1.234375 -2.8125 3.765625 -5.1875l0.625 0.546875q-1.40625 2.046875 -2.21875 3.765625q-0.796875 1.71875 -1.140625 3.390625q-0.328125 1.65625 -0.328125 3.578125z" fill-rule="nonzero"/><path fill="#3d85c6" d="m725.48926 229.64345q-2.40625 0 -4.234375 -1.09375q-1.8125 -1.09375 -2.84375 -2.984375q-1.015625 -1.890625 -1.015625 -4.328125q0 -2.421875 1.03125 -4.296875q1.03125 -1.890625 2.859375 -2.984375q1.84375 -1.09375 4.296875 -1.09375q1.484375 0 2.640625 0.28125q1.171875 0.28125 2.1875 0.859375l0.09375 3.5l-1.484375 0l-0.484375 -2.734375q-1.25 -0.703125 -2.734375 -0.703125q-1.65625 0 -2.96875 0.84375q-1.3125 0.84375 -2.0625 2.4375q-0.75 1.59375 -0.75 3.890625q0 3.4375 1.578125 5.3125q1.578125 1.875 4.34375 1.875q1.375 0 2.5625 -0.484375l0 -0.765625q0 -1.078125 -0.015625 -2.171875q0 -1.09375 -0.03125 -2.171875l-2.484375 -0.21875l0 -0.953125l6.3125 0l0 0.953125l-1.46875 0.140625q-0.03125 1.078125 -0.046875 2.1875q0 1.109375 0 2.234375l0 1.046875q-1.25 0.65625 -2.53125 1.046875q-1.265625 0.375 -2.75 0.375z" fill-rule="nonzero"/><path fill="#000000" d="m736.93536 222.6122q0 -1.921875 -0.34375 -3.578125q-0.328125 -1.671875 -1.140625 -3.390625q-0.796875 -1.71875 -2.21875 -3.765625l0.625 -0.546875q2.546875 2.375 3.765625 5.1875q1.234375 2.8125 1.234375 6.09375q0 3.28125 -1.234375 6.09375q-1.21875 2.8125 -3.765625 5.1875l-0.625 -0.546875q1.421875 -2.046875 2.21875 -3.765625q0.8125 -1.71875 1.140625 -3.375q0.34375 -1.671875 0.34375 -3.59375z" fill-rule="nonzero"/><path fill="#000000" fill-opacity="0.0" d="m691.10535 127.61697l0 0c0 -11.341408 9.194031 -20.53543 20.5354 -20.53543l0 0c5.44635 0 10.669617 2.1635437 14.520752 6.0146866c3.8511353 3.851143 6.0147095 9.0744095 6.0147095 14.520744l0 0c0 11.341408 -9.194031 20.535439 -20.535461 20.535439l0 0c-11.34137 0 -20.5354 -9.194031 -20.5354 -20.535439z" fill-rule="evenodd"/><path stroke="#000000" stroke-width="1.0" stroke-linejoin="round" stroke-linecap="butt" d="m691.10535 127.61697l0 0c0 -11.341408 9.194031 -20.53543 20.5354 -20.53543l0 0c5.44635 0 10.669617 2.1635437 14.520752 6.0146866c3.8511353 3.851143 6.0147095 9.0744095 6.0147095 14.520744l0 0c0 11.341408 -9.194031 20.535439 -20.535461 20.535439l0 0c-11.34137 0 -20.5354 -9.194031 -20.5354 -20.535439z" fill-rule="evenodd"/><path fill="#000000" fill-opacity="0.0" d="m546.4768 213.37207l105.82678 0l0 36.850403l-105.82678 0z" fill-rule="evenodd"/><path fill="#000000" d="m568.55927 229.28407l0 -1.015625l5.6875 -15.15625l1.515625 0l5.65625 15.15625l0 1.015625l-12.859375 0zm1.515625 -1.9375l8.640625 0l-4.296875 -11.640625l-4.34375 11.640625z" fill-rule="nonzero"/><path fill="#000000" d="m582.82135 228.2372l0 -0.65625l7.96875 0l0.109375 2.828125l-0.90625 0l-0.359375 -2.03125l-3.75 0q-0.015625 1.03125 -0.03125 2.0625q0 1.015625 0 2.0l2.46875 0l0.234375 -1.515625l0.734375 0l0 3.9375l-0.734375 0l-0.234375 -1.671875l-2.46875 0q0 1.1875 0 2.234375q0.015625 1.03125 0.03125 2.03125l1.484375 0.171875l0 0.65625l-4.546875 0l0 -0.65625l1.46875 -0.171875q0.03125 -1.015625 0.03125 -2.046875q0 -1.046875 0 -2.078125l0 -0.796875q0 -1.03125 0 -2.0625q0 -1.03125 -0.03125 -2.0625l-1.46875 -0.171875z" fill-rule="nonzero"/><path fill="#000000" d="m595.226 222.6122q0 1.921875 0.328125 3.59375q0.34375 1.65625 1.140625 3.375q0.8125 1.71875 2.21875 3.765625l-0.625 0.546875q-2.53125 -2.375 -3.765625 -5.1875q-1.21875 -2.8125 -1.21875 -6.09375q0 -3.28125 1.21875 -6.09375q1.234375 -2.8125 3.765625 -5.1875l0.625 0.546875q-1.40625 2.046875 -2.21875 3.765625q-0.796875 1.71875 -1.140625 3.390625q-0.328125 1.65625 -0.328125 3.578125z" fill-rule="nonzero"/><path fill="#3d85c6" d="m599.87756 214.20595l0 -0.984375l6.765625 0l0 0.984375l-2.28125 0.265625l3.34375 7.28125l3.421875 -7.25l-2.15625 -0.296875l0 -0.984375l5.5 0l0 0.984375l-2.109375 0.3125l-4.078125 8.453125q0 1.390625 0 2.65625q0.015625 1.25 0.046875 2.40625l2.4375 0.265625l0 0.984375l-7.234375 0l0 -0.984375l2.4375 -0.265625q0.046875 -1.125 0.046875 -2.34375q0 -1.234375 0 -2.625l-4.25 -8.640625l-1.890625 -0.21875z" fill-rule="nonzero"/><path fill="#3d85c6" d="m615.4914 238.28407l0 -1.046875q0.640625 -0.609375 1.234375 -1.21875q0.609375 -0.625 1.125 -1.171875q1.203125 -1.265625 1.75 -2.28125q0.5625 -1.03125 0.5625 -1.96875q0 -0.984375 -0.515625 -1.5625q-0.515625 -0.578125 -1.40625 -0.578125q-0.15625 0 -0.359375 0.015625q-0.1875 0.015625 -0.421875 0.0625l-0.296875 1.109375q-0.15625 0.59375 -0.375 0.84375q-0.21875 0.25 -0.5625 0.25q-0.515625 0 -0.8125 -0.515625q0.09375 -0.84375 0.5625 -1.390625q0.46875 -0.5625 1.171875 -0.828125q0.703125 -0.265625 1.5 -0.265625q1.546875 0 2.25 0.765625q0.71875 0.75 0.71875 1.953125q0 0.703125 -0.28125 1.375q-0.28125 0.65625 -0.96875 1.484375q-0.6875 0.828125 -1.921875 2.015625q-0.328125 0.3125 -0.78125 0.75q-0.453125 0.421875 -0.953125 0.890625l5.359375 0l0 1.3125l-6.578125 0z" fill-rule="nonzero"/><path fill="#000000" d="m627.0071 222.6122q0 -1.921875 -0.34375 -3.578125q-0.328125 -1.671875 -1.140625 -3.390625q-0.796875 -1.71875 -2.21875 -3.765625l0.625 -0.546875q2.546875 2.375 3.765625 5.1875q1.234375 2.8125 1.234375 6.09375q0 3.28125 -1.234375 6.09375q-1.21875 2.8125 -3.765625 5.1875l-0.625 -0.546875q1.421875 -2.046875 2.21875 -3.765625q0.8125 -1.71875 1.140625 -3.375q0.34375 -1.671875 0.34375 -3.59375z" fill-rule="nonzero"/><path fill="#000000" fill-opacity="0.0" d="m599.3927 247.24886l0 61.32283" fill-rule="evenodd"/><path stroke="#ffd966" stroke-width="2.0" stroke-linejoin="round" stroke-linecap="butt" stroke-dasharray="8.0,6.0" d="m599.3927 259.24884l0 49.322845" fill-rule="evenodd"/><path fill="#ffd966" stroke="#ffd966" stroke-width="2.0" stroke-linecap="butt" d="m602.69617 259.24884l-3.3034668 -9.076187l-3.3034668 9.076187z" fill-rule="evenodd"/><path fill="#000000" fill-opacity="0.0" d="m194.31815 247.54929l98.74017 0l0 48.472443l-98.74017 0z" fill-rule="evenodd"/><path fill="#000000" d="m209.6413 279.5893l0 -1.015625l5.6875 -15.15625l1.515625 0l5.65625 15.15625l0 1.015625l-12.859375 0zm1.515625 -1.9375l8.640625 0l-4.296875 -11.640625l-4.34375 11.640625z" fill-rule="nonzero"/><path fill="#000000" d="m223.90338 278.54242l0 -0.65625l7.96875 0l0.109375 2.828125l-0.90625 0l-0.359375 -2.03125l-3.75 0q-0.015625 1.03125 -0.03125 2.0625q0 1.015625 0 2.0l2.46875 0l0.234375 -1.515625l0.734375 0l0 3.9375l-0.734375 0l-0.234375 -1.671875l-2.46875 0q0 1.1875 0 2.234375q0.015625 1.03125 0.03125 2.03125l1.484375 0.171875l0 0.65625l-4.546875 0l0 -0.65625l1.46875 -0.171875q0.03125 -1.015625 0.03125 -2.046875q0 -1.046875 0 -2.078125l0 -0.796875q0 -1.03125 0 -2.0625q0 -1.03125 -0.03125 -2.0625l-1.46875 -0.171875z" fill-rule="nonzero"/><path fill="#000000" d="m236.30803 272.91742q0 1.921875 0.328125 3.59375q0.34375 1.65625 1.140625 3.375q0.8125 1.71875 2.21875 3.765625l-0.625 0.546875q-2.53125 -2.375 -3.765625 -5.1875q-1.21875 -2.8125 -1.21875 -6.09375q0 -3.28125 1.21875 -6.09375q1.234375 -2.8125 3.765625 -5.1875l0.625 0.546875q-1.40625 2.046875 -2.21875 3.765625q-0.796875 1.71875 -1.140625 3.390625q-0.328125 1.65625 -0.328125 3.578125z" fill-rule="nonzero"/><path fill="#3d85c6" d="m241.55338 279.5893l0 -0.859375l1.78125 -0.34375q0.03125 -0.90625 0.03125 -1.953125q0.015625 -1.0625 0.015625 -1.890625l0 -1.140625q0 -0.984375 -0.015625 -1.625q0 -0.65625 -0.046875 -1.375l-1.90625 -0.21875l0 -0.84375l3.359375 -1.46875l0.359375 0.25l0.203125 1.9375q0.828125 -0.953125 1.953125 -1.5625q1.140625 -0.625 2.234375 -0.625q1.140625 0 1.84375 0.53125q0.703125 0.53125 1.015625 1.734375q0.921875 -1.125 2.046875 -1.6875q1.125 -0.578125 2.296875 -0.578125q1.46875 0 2.265625 0.984375q0.8125 0.984375 0.8125 3.21875l0 2.46875q0 0.828125 0 1.890625q0.015625 1.046875 0.046875 1.953125l1.671875 0.34375l0 0.859375l-5.5625 0l0 -0.859375l1.78125 -0.34375q0.015625 -0.890625 0.03125 -1.953125q0.015625 -1.0625 0.015625 -1.890625l0 -2.078125q0 -1.6875 -0.484375 -2.265625q-0.484375 -0.59375 -1.53125 -0.59375q-0.75 0 -1.53125 0.34375q-0.78125 0.328125 -1.6875 1.171875q0.015625 0.265625 0.03125 0.5625q0.015625 0.296875 0.015625 0.640625l0 2.21875q0 0.828125 0.015625 1.890625q0.015625 1.046875 0.03125 1.953125l1.6875 0.34375l0 0.859375l-5.578125 0l0 -0.859375l1.78125 -0.34375q0.015625 -0.890625 0.03125 -1.953125q0.015625 -1.0625 0.015625 -1.890625l0 -2.03125q0 -1.640625 -0.453125 -2.265625q-0.453125 -0.640625 -1.515625 -0.640625q-0.8125 0 -1.5625 0.34375q-0.734375 0.328125 -1.625 1.09375l0 3.5q0 0.796875 0 1.875q0.015625 1.0625 0.046875 1.96875l1.65625 0.34375l0 0.859375l-5.578125 0z" fill-rule="nonzero"/><path fill="#3d85c6" d="m263.58356 278.97992l3.296875 -0.859375l0.21875 0.171875l-0.0625 2.28125l0 4.640625q0 0.59375 0 1.203125q0.015625 0.609375 0.03125 1.21875l2.28125 0.375l0 0.578125l-5.9375 0l0 -0.578125l2.25 -0.375q0.015625 -0.609375 0.015625 -1.21875q0.015625 -0.609375 0.015625 -1.203125l0 -5.765625l-2.109375 0.1875l0 -0.65625z" fill-rule="nonzero"/><path fill="#000000" d="m274.52106 272.91742q0 -1.921875 -0.34375 -3.578125q-0.328125 -1.671875 -1.140625 -3.390625q-0.796875 -1.71875 -2.21875 -3.765625l0.625 -0.546875q2.546875 2.375 3.765625 5.1875q1.234375 2.8125 1.234375 6.09375q0 3.28125 -1.234375 6.09375q-1.21875 2.8125 -3.765625 5.1875l-0.625 -0.546875q1.421875 -2.046875 2.21875 -3.765625q0.8125 -1.71875 1.140625 -3.375q0.34375 -1.671875 0.34375 -3.59375z" fill-rule="nonzero"/><path fill="#000000" fill-opacity="0.0" d="m347.4789 247.54929l98.74017 0l0 48.472443l-98.74017 0z" fill-rule="evenodd"/><path fill="#000000" d="m362.80206 279.5893l0 -1.015625l5.6875 -15.15625l1.515625 0l5.65625 15.15625l0 1.015625l-12.859375 0zm1.515625 -1.9375l8.640625 0l-4.296875 -11.640625l-4.34375 11.640625z" fill-rule="nonzero"/><path fill="#000000" d="m377.06415 278.54242l0 -0.65625l7.96875 0l0.109375 2.828125l-0.90625 0l-0.359375 -2.03125l-3.75 0q-0.015625 1.03125 -0.03125 2.0625q0 1.015625 0 2.0l2.46875 0l0.234375 -1.515625l0.734375 0l0 3.9375l-0.734375 0l-0.234375 -1.671875l-2.46875 0q0 1.1875 0 2.234375q0.015625 1.03125 0.03125 2.03125l1.484375 0.171875l0 0.65625l-4.546875 0l0 -0.65625l1.46875 -0.171875q0.03125 -1.015625 0.03125 -2.046875q0 -1.046875 0 -2.078125l0 -0.796875q0 -1.03125 0 -2.0625q0 -1.03125 -0.03125 -2.0625l-1.46875 -0.171875z" fill-rule="nonzero"/><path fill="#000000" d="m389.4688 272.91742q0 1.921875 0.328125 3.59375q0.34375 1.65625 1.140625 3.375q0.8125 1.71875 2.21875 3.765625l-0.625 0.546875q-2.53125 -2.375 -3.765625 -5.1875q-1.21875 -2.8125 -1.21875 -6.09375q0 -3.28125 1.21875 -6.09375q1.234375 -2.8125 3.765625 -5.1875l0.625 0.546875q-1.40625 2.046875 -2.21875 3.765625q-0.796875 1.71875 -1.140625 3.390625q-0.328125 1.65625 -0.328125 3.578125z" fill-rule="nonzero"/><path fill="#3d85c6" d="m394.71414 279.5893l0 -0.859375l1.78125 -0.34375q0.03125 -0.90625 0.03125 -1.953125q0.015625 -1.0625 0.015625 -1.890625l0 -1.140625q0 -0.984375 -0.015625 -1.625q0 -0.65625 -0.046875 -1.375l-1.90625 -0.21875l0 -0.84375l3.359375 -1.46875l0.359375 0.25l0.203125 1.9375q0.828125 -0.953125 1.953125 -1.5625q1.140625 -0.625 2.234375 -0.625q1.140625 0 1.84375 0.53125q0.703125 0.53125 1.015625 1.734375q0.921875 -1.125 2.046875 -1.6875q1.125 -0.578125 2.296875 -0.578125q1.46875 0 2.265625 0.984375q0.8125 0.984375 0.8125 3.21875l0 2.46875q0 0.828125 0 1.890625q0.015625 1.046875 0.046875 1.953125l1.671875 0.34375l0 0.859375l-5.5625 0l0 -0.859375l1.78125 -0.34375q0.015625 -0.890625 0.03125 -1.953125q0.015625 -1.0625 0.015625 -1.890625l0 -2.078125q0 -1.6875 -0.484375 -2.265625q-0.484375 -0.59375 -1.53125 -0.59375q-0.75 0 -1.53125 0.34375q-0.78125 0.328125 -1.6875 1.171875q0.015625 0.265625 0.03125 0.5625q0.015625 0.296875 0.015625 0.640625l0 2.21875q0 0.828125 0.015625 1.890625q0.015625 1.046875 0.03125 1.953125l1.6875 0.34375l0 0.859375l-5.578125 0l0 -0.859375l1.78125 -0.34375q0.015625 -0.890625 0.03125 -1.953125q0.015625 -1.0625 0.015625 -1.890625l0 -2.03125q0 -1.640625 -0.453125 -2.265625q-0.453125 -0.640625 -1.515625 -0.640625q-0.8125 0 -1.5625 0.34375q-0.734375 0.328125 -1.625 1.09375l0 3.5q0 0.796875 0 1.875q0.015625 1.0625 0.046875 1.96875l1.65625 0.34375l0 0.859375l-5.578125 0z" fill-rule="nonzero"/><path fill="#3d85c6" d="m416.1662 288.5893l0 -1.046875q0.640625 -0.609375 1.234375 -1.21875q0.609375 -0.625 1.125 -1.171875q1.203125 -1.265625 1.75 -2.28125q0.5625 -1.03125 0.5625 -1.96875q0 -0.984375 -0.515625 -1.5625q-0.515625 -0.578125 -1.40625 -0.578125q-0.15625 0 -0.359375 0.015625q-0.1875 0.015625 -0.421875 0.0625l-0.296875 1.109375q-0.15625 0.59375 -0.375 0.84375q-0.21875 0.25 -0.5625 0.25q-0.515625 0 -0.8125 -0.515625q0.09375 -0.84375 0.5625 -1.390625q0.46875 -0.5625 1.171875 -0.828125q0.703125 -0.265625 1.5 -0.265625q1.546875 0 2.25 0.765625q0.71875 0.75 0.71875 1.953125q0 0.703125 -0.28125 1.375q-0.28125 0.65625 -0.96875 1.484375q-0.6875 0.828125 -1.921875 2.015625q-0.328125 0.3125 -0.78125 0.75q-0.453125 0.421875 -0.953125 0.890625l5.359375 0l0 1.3125l-6.578125 0z" fill-rule="nonzero"/><path fill="#000000" d="m427.68185 272.91742q0 -1.921875 -0.34375 -3.578125q-0.328125 -1.671875 -1.140625 -3.390625q-0.796875 -1.71875 -2.21875 -3.765625l0.625 -0.546875q2.546875 2.375 3.765625 5.1875q1.234375 2.8125 1.234375 6.09375q0 3.28125 -1.234375 6.09375q-1.21875 2.8125 -3.765625 5.1875l-0.625 -0.546875q1.421875 -2.046875 2.21875 -3.765625q0.8125 -1.71875 1.140625 -3.375q0.34375 -1.671875 0.34375 -3.59375z" fill-rule="nonzero"/><path fill="#000000" fill-opacity="0.0" d="m500.6397 247.54929l98.74017 0l0 48.472443l-98.74017 0z" fill-rule="evenodd"/><path fill="#000000" d="m515.9628 279.5893l0 -1.015625l5.6875 -15.15625l1.515625 0l5.65625 15.15625l0 1.015625l-12.859375 0zm1.515625 -1.9375l8.640625 0l-4.296875 -11.640625l-4.34375 11.640625z" fill-rule="nonzero"/><path fill="#000000" d="m530.2249 278.54242l0 -0.65625l7.96875 0l0.109375 2.828125l-0.90625 0l-0.359375 -2.03125l-3.75 0q-0.015625 1.03125 -0.03125 2.0625q0 1.015625 0 2.0l2.46875 0l0.234375 -1.515625l0.734375 0l0 3.9375l-0.734375 0l-0.234375 -1.671875l-2.46875 0q0 1.1875 0 2.234375q0.015625 1.03125 0.03125 2.03125l1.484375 0.171875l0 0.65625l-4.546875 0l0 -0.65625l1.46875 -0.171875q0.03125 -1.015625 0.03125 -2.046875q0 -1.046875 0 -2.078125l0 -0.796875q0 -1.03125 0 -2.0625q0 -1.03125 -0.03125 -2.0625l-1.46875 -0.171875z" fill-rule="nonzero"/><path fill="#000000" d="m542.6296 272.91742q0 1.921875 0.328125 3.59375q0.34375 1.65625 1.140625 3.375q0.8125 1.71875 2.21875 3.765625l-0.625 0.546875q-2.53125 -2.375 -3.765625 -5.1875q-1.21875 -2.8125 -1.21875 -6.09375q0 -3.28125 1.21875 -6.09375q1.234375 -2.8125 3.765625 -5.1875l0.625 0.546875q-1.40625 2.046875 -2.21875 3.765625q-0.796875 1.71875 -1.140625 3.390625q-0.328125 1.65625 -0.328125 3.578125z" fill-rule="nonzero"/><path fill="#3d85c6" d="m547.87494 279.5893l0 -0.859375l1.78125 -0.34375q0.03125 -0.90625 0.03125 -1.953125q0.015625 -1.0625 0.015625 -1.890625l0 -1.140625q0 -0.984375 -0.015625 -1.625q0 -0.65625 -0.046875 -1.375l-1.90625 -0.21875l0 -0.84375l3.359375 -1.46875l0.359375 0.25l0.203125 1.9375q0.828125 -0.953125 1.953125 -1.5625q1.140625 -0.625 2.234375 -0.625q1.140625 0 1.84375 0.53125q0.703125 0.53125 1.015625 1.734375q0.921875 -1.125 2.046875 -1.6875q1.125 -0.578125 2.296875 -0.578125q1.46875 0 2.265625 0.984375q0.8125 0.984375 0.8125 3.21875l0 2.46875q0 0.828125 0 1.890625q0.015625 1.046875 0.046875 1.953125l1.671875 0.34375l0 0.859375l-5.5625 0l0 -0.859375l1.78125 -0.34375q0.015625 -0.890625 0.03125 -1.953125q0.015625 -1.0625 0.015625 -1.890625l0 -2.078125q0 -1.6875 -0.484375 -2.265625q-0.484375 -0.59375 -1.53125 -0.59375q-0.75 0 -1.53125 0.34375q-0.78125 0.328125 -1.6875 1.171875q0.015625 0.265625 0.03125 0.5625q0.015625 0.296875 0.015625 0.640625l0 2.21875q0 0.828125 0.015625 1.890625q0.015625 1.046875 0.03125 1.953125l1.6875 0.34375l0 0.859375l-5.578125 0l0 -0.859375l1.78125 -0.34375q0.015625 -0.890625 0.03125 -1.953125q0.015625 -1.0625 0.015625 -1.890625l0 -2.03125q0 -1.640625 -0.453125 -2.265625q-0.453125 -0.640625 -1.515625 -0.640625q-0.8125 0 -1.5625 0.34375q-0.734375 0.328125 -1.625 1.09375l0 3.5q0 0.796875 0 1.875q0.015625 1.0625 0.046875 1.96875l1.65625 0.34375l0 0.859375l-5.578125 0z" fill-rule="nonzero"/><path fill="#3d85c6" d="m571.26447 282.74554l0.640625 0q1.078125 0 1.671875 -0.546875q0.609375 -0.5625 0.609375 -1.59375q0 -0.875 -0.5 -1.359375q-0.5 -0.484375 -1.453125 -0.484375q-0.15625 0 -0.328125 0.015625q-0.171875 0.015625 -0.40625 0.046875l-0.203125 0.8125q-0.125 0.484375 -0.328125 0.734375q-0.1875 0.25 -0.59375 0.25q-0.265625 0 -0.46875 -0.125q-0.203125 -0.125 -0.3125 -0.4375q0.21875 -1.0 1.015625 -1.5q0.796875 -0.515625 1.90625 -0.515625q1.40625 0 2.234375 0.703125q0.828125 0.6875 0.828125 1.8125q0 0.859375 -0.546875 1.546875q-0.546875 0.671875 -1.546875 1.03125q1.234375 0.234375 1.828125 0.921875q0.59375 0.6875 0.59375 1.6875q0 0.859375 -0.453125 1.546875q-0.4375 0.6875 -1.25 1.09375q-0.796875 0.40625 -1.890625 0.40625q-1.15625 0 -2.0 -0.53125q-0.84375 -0.53125 -1.0625 -1.734375q0.265625 -0.53125 0.8125 -0.53125q0.421875 0 0.59375 0.28125q0.1875 0.265625 0.359375 0.875l0.203125 0.828125q0.265625 0.0625 0.484375 0.078125q0.234375 0.015625 0.40625 0.015625q1.1875 0 1.78125 -0.609375q0.59375 -0.625 0.59375 -1.6875q0 -1.046875 -0.609375 -1.640625q-0.609375 -0.59375 -1.84375 -0.59375l-0.765625 0l0 -0.796875z" fill-rule="nonzero"/><path fill="#000000" d="m580.84265 272.91742q0 -1.921875 -0.34375 -3.578125q-0.328125 -1.671875 -1.140625 -3.390625q-0.796875 -1.71875 -2.21875 -3.765625l0.625 -0.546875q2.546875 2.375 3.765625 5.1875q1.234375 2.8125 1.234375 6.09375q0 3.28125 -1.234375 6.09375q-1.21875 2.8125 -3.765625 5.1875l-0.625 -0.546875q1.421875 -2.046875 2.21875 -3.765625q0.8125 -1.71875 1.140625 -3.375q0.34375 -1.671875 0.34375 -3.59375z" fill-rule="nonzero"/><path fill="#000000" fill-opacity="0.0" d="m353.66986 247.74956l-59.8425 60.094498" fill-rule="evenodd"/><path stroke="#ffd966" stroke-width="2.0" stroke-linejoin="round" stroke-linecap="butt" stroke-dasharray="8.0,6.0" d="m345.20242 256.25266l-51.37509 51.5914" fill-rule="evenodd"/><path fill="#ffd966" stroke="#ffd966" stroke-width="2.0" stroke-linecap="butt" d="m347.54324 258.58365l4.0635376 -8.762299l-8.745148 4.1003113z" fill-rule="evenodd"/><path fill="#000000" fill-opacity="0.0" d="m293.80054 66.813644l60.503937 49.007874" fill-rule="evenodd"/><path stroke="#9fc5e8" stroke-width="2.0" stroke-linejoin="round" stroke-linecap="butt" stroke-dasharray="8.0,6.0" d="m293.80054 66.81365l51.179108 41.454834" fill-rule="evenodd"/><path fill="#9fc5e8" stroke="#9fc5e8" stroke-width="2.0" stroke-linecap="butt" d="m342.90042 110.8355l9.13205 3.1457214l-4.9735413 -8.279747z" fill-rule="evenodd"/><path fill="#000000" fill-opacity="0.0" d="m446.59982 66.813644l60.503937 49.007874" fill-rule="evenodd"/><path stroke="#9fc5e8" stroke-width="2.0" stroke-linejoin="round" stroke-linecap="butt" stroke-dasharray="8.0,6.0" d="m446.59982 66.81365l51.17914 41.45484" fill-rule="evenodd"/><path fill="#9fc5e8" stroke="#9fc5e8" stroke-width="2.0" stroke-linecap="butt" d="m495.6997 110.8355l9.13205 3.1457214l-4.9735107 -8.279739z" fill-rule="evenodd"/><path fill="#000000" fill-opacity="0.0" d="m599.3927 66.80994l0 48.787407" fill-rule="evenodd"/><path stroke="#9fc5e8" stroke-width="2.0" stroke-linejoin="round" stroke-linecap="butt" stroke-dasharray="8.0,6.0" d="m599.3927 66.80994l0 36.7874" fill-rule="evenodd"/><path fill="#9fc5e8" stroke="#9fc5e8" stroke-width="2.0" stroke-linecap="butt" d="m596.08923 103.597336l3.3034668 9.076195l3.3034668 -9.076195z" fill-rule="evenodd"/><path fill="#9fc5e8" d="m176.63048 9.857466l138.58269 0l0 56.34645l-138.58269 0z" fill-rule="evenodd"/><path stroke="#3d85c6" stroke-width="2.0" stroke-linejoin="round" stroke-linecap="butt" d="m176.63048 9.857466l138.58269 0l0 56.34645l-138.58269 0z" fill-rule="evenodd"/><path fill="#3d85c6" d="m244.92711 49.203815q-2.78125 0 -3.515625 -2.3125q-1.03125 1.09375 -1.984375 1.71875q-0.9375 0.625 -2.59375 0.625q-1.859375 0 -3.03125 -1.046875q-1.171875 -1.0625 -1.171875 -3.046875q0 -1.15625 0.515625 -2.078125q0.515625 -0.9375 1.859375 -1.734375q1.34375 -0.796875 3.8125 -1.5q0.46875 -0.171875 1.109375 -0.328125q0.640625 -0.15625 1.3125 -0.3125l0 -1.0625q0 -2.140625 -0.53125 -2.90625q-0.515625 -0.765625 -2.046875 -0.765625q-0.234375 0 -0.421875 0q-0.1875 0 -0.453125 0.03125l-0.15625 1.40625q-0.03125 1.5625 -0.71875 2.265625q-0.6875 0.703125 -1.625 0.703125q-1.75 0 -2.140625 -1.59375q0.125 -1.984375 2.015625 -3.234375q1.890625 -1.25 5.34375 -1.25q3.078125 0 4.40625 1.40625q1.328125 1.40625 1.328125 4.640625l0 7.171875q0 0.921875 0.703125 0.921875q0.25 0 0.46875 -0.140625q0.234375 -0.140625 0.484375 -0.5625l0.875 0.578125q-0.578125 1.28125 -1.5 1.84375q-0.90625 0.5625 -2.34375 0.5625zm-7.546875 -4.90625q0 1.1875 0.546875 1.765625q0.5625 0.578125 1.359375 0.578125q0.359375 0 0.734375 -0.15625q0.390625 -0.171875 1.21875 -0.75l0 -5.171875q-0.40625 0.125 -0.8125 0.265625q-0.390625 0.140625 -0.6875 0.28125q-1.078125 0.4375 -1.71875 1.265625q-0.640625 0.8125 -0.640625 1.921875z" fill-rule="nonzero"/><path fill="#3d85c6" d="m250.73164 48.25069l5.3125153 -1.171875l0.296875 0.21875l-0.09375 3.03125l0 5.984375q0 0.703125 0 1.40625q0 0.703125 0.03125 1.4375l2.46875 0.59375l0 1.0l-8.54689 0l0 -1.0l2.59375 -0.59375q0.03125 -0.703125 0.03125 -1.421875q0 -0.71875 0 -1.421875l0 -7.015625l-2.09375 0.1875l0 -1.234375z" fill-rule="nonzero"/><path fill="#000000" fill-opacity="0.0" d="m183.56168 115.82152l35.65355 0l0 38.23622l-35.65355 0z" fill-rule="evenodd"/><path fill="#3d85c6" d="m194.0656 128.25162l0 -0.984375l6.75 0l0 0.984375l-2.109375 0.25l3.0625 5.125l3.203125 -5.078125l-2.046875 -0.296875l0 -0.984375l5.5 0l0 0.984375l-2.109375 0.265625l-3.9375 6.09375l4.5 7.5l2.078125 0.234375l0 0.984375l-6.796875 0l0 -0.984375l2.203125 -0.265625l-3.359375 -5.5625l-3.53125 5.5625l1.875 0.265625l0 0.984375l-5.5 0l0 -0.984375l2.28125 -0.28125l4.296875 -6.515625l-4.25 -7.046875l-2.109375 -0.25z" fill-rule="nonzero"/><path fill="#000000" fill-opacity="0.0" d="m201.38846 65.74278l0 50.078735" fill-rule="evenodd"/><path stroke="#3d85c6" stroke-width="2.0" stroke-linejoin="round" stroke-linecap="butt" d="m201.38846 65.74278l0 38.078743" fill-rule="evenodd"/><path fill="#3d85c6" stroke="#3d85c6" stroke-width="2.0" stroke-linecap="butt" d="m198.08499 103.821526l3.3034668 9.076195l3.3034515 -9.076195z" fill-rule="evenodd"/><path fill="#000000" fill-opacity="0.0" d="m325.3596 115.82152l57.88977 0l0 38.23622l-57.88977 0z" fill-rule="evenodd"/><path fill="#3d85c6" d="m343.06787 128.25162l0 -0.984375l6.765625 0l0 0.984375l-2.28125 0.265625l3.34375 7.28125l3.421875 -7.25l-2.15625 -0.296875l0 -0.984375l5.5 0l0 0.984375l-2.109375 0.3125l-4.078125 8.453125q0 1.390625 0 2.65625q0.015625 1.25 0.046875 2.40625l2.4375 0.265625l0 0.984375l-7.234375 0l0 -0.984375l2.4375 -0.265625q0.046875 -1.125 0.046875 -2.34375q0 -1.234375 0 -2.625l-4.25 -8.640625l-1.890625 -0.21875z" fill-rule="nonzero"/><path fill="#3d85c6" d="m359.25983 142.72037l3.296875 -0.859375l0.21875 0.171875l-0.0625 2.28125l0 4.640625q0 0.59375 0 1.203125q0.015625 0.609375 0.03125 1.21875l2.28125 0.375l0 0.578125l-5.9375 0l0 -0.578125l2.25 -0.375q0.015625 -0.609375 0.015625 -1.21875q0.015625 -0.609375 0.015625 -1.203125l0 -5.765625l-2.109375 0.1875l0 -0.65625z" fill-rule="nonzero"/><path fill="#9fc5e8" d="m329.43002 9.871772l138.58267 0l0 56.34646l-138.58267 0z" fill-rule="evenodd"/><path stroke="#3d85c6" stroke-width="2.0" stroke-linejoin="round" stroke-linecap="butt" d="m329.43002 9.871772l138.58267 0l0 56.34646l-138.58267 0z" fill-rule="evenodd"/><path fill="#3d85c6" d="m397.72665 49.218124q-2.78125 0 -3.515625 -2.3125q-1.03125 1.09375 -1.984375 1.71875q-0.9375 0.625 -2.59375 0.625q-1.859375 0 -3.03125 -1.046875q-1.171875 -1.0625 -1.171875 -3.046875q0 -1.15625 0.515625 -2.078125q0.515625 -0.9375 1.859375 -1.734375q1.34375 -0.796875 3.8125 -1.5q0.46875 -0.171875 1.109375 -0.328125q0.640625 -0.15625 1.3125 -0.3125l0 -1.0625q0 -2.140625 -0.53125 -2.90625q-0.515625 -0.765625 -2.046875 -0.765625q-0.234375 0 -0.421875 0q-0.1875 0 -0.453125 0.03125l-0.15625 1.40625q-0.03125 1.5625 -0.71875 2.265625q-0.6875 0.703125 -1.625 0.703125q-1.75 0 -2.140625 -1.59375q0.125 -1.984375 2.015625 -3.234375q1.890625 -1.25 5.34375 -1.25q3.078125 0 4.40625 1.40625q1.328125 1.40625 1.328125 4.640625l0 7.171875q0 0.921875 0.703125 0.921875q0.25 0 0.46875 -0.140625q0.234375 -0.140625 0.484375 -0.5625l0.875 0.578125q-0.578125 1.28125 -1.5 1.84375q-0.90625 0.5625 -2.34375 0.5625zm-7.546875 -4.90625q0 1.1875 0.546875 1.765625q0.5625 0.578125 1.359375 0.578125q0.359375 0 0.734375 -0.15625q0.390625 -0.171875 1.21875 -0.75l0 -5.171875q-0.40625 0.125 -0.8125 0.265625q-0.390625 0.140625 -0.6875 0.28125q-1.078125 0.4375 -1.71875 1.265625q-0.640625 0.8125 -0.640625 1.921875z" fill-rule="nonzero"/><path fill="#3d85c6" d="m402.5468 60.765l0 -1.890625q0.734375 -0.734375 1.453125 -1.4375q0.71875 -0.703125 1.359375 -1.359375q1.015625 -1.03125 1.6875 -1.875q0.671875 -0.859375 1.015625 -1.703125q0.34375 -0.84375 0.34375 -1.796875q0 -1.234375 -0.59375 -1.921875q-0.578125 -0.6875 -1.578125 -0.6875q-0.125 0 -0.265625 0q-0.140625 0 -0.265625 0.03125l-0.28125 1.5q-0.15625 1.109375 -0.625 1.46875q-0.46875 0.34375 -0.953125 0.34375q-0.453125 0 -0.828125 -0.234375q-0.359375 -0.234375 -0.5625 -0.625q0.046875 -1.1875 0.71875 -1.984375q0.6875 -0.796875 1.796875 -1.203125q1.109375 -0.40625 2.4375 -0.40625q1.5625 0 2.53125 0.5q0.96875 0.484375 1.4375 1.3125q0.46875 0.828125 0.46875 1.875q0 1.03125 -0.53125 2.0q-0.53125 0.953125 -1.671875 1.953125q-1.125 1.0 -2.890625 2.21875q-0.4375 0.296875 -0.90625 0.625q-0.46875 0.3125 -0.953125 0.671875l7.234375 0l0 2.625l-9.578125 0z" fill-rule="nonzero"/><path fill="#000000" fill-opacity="0.0" d="m354.1785 65.74278l0.12597656 50.078735" fill-rule="evenodd"/><path stroke="#3d85c6" stroke-width="2.0" stroke-linejoin="round" stroke-linecap="butt" d="m354.17847 65.74278l0.095825195 38.07878" fill-rule="evenodd"/><path fill="#3d85c6" stroke="#3d85c6" stroke-width="2.0" stroke-linecap="butt" d="m350.97083 103.82987l3.326294 9.067856l3.2806091 -9.08448z" fill-rule="evenodd"/><path fill="#000000" fill-opacity="0.0" d="m478.15887 115.82152l57.88977 0l0 38.23622l-57.88977 0z" fill-rule="evenodd"/><path fill="#3d85c6" d="m495.86713 128.25162l0 -0.984375l6.765625 0l0 0.984375l-2.28125 0.265625l3.34375 7.28125l3.421875 -7.25l-2.15625 -0.296875l0 -0.984375l5.5 0l0 0.984375l-2.109375 0.3125l-4.078125 8.453125q0 1.390625 0 2.65625q0.015625 1.25 0.046875 2.40625l2.4375 0.265625l0 0.984375l-7.234375 0l0 -0.984375l2.4375 -0.265625q0.046875 -1.125 0.046875 -2.34375q0 -1.234375 0 -2.625l-4.25 -8.640625l-1.890625 -0.21875z" fill-rule="nonzero"/><path fill="#3d85c6" d="m511.48096 152.32974l0 -1.046875q0.640625 -0.609375 1.234375 -1.21875q0.609375 -0.625 1.125 -1.171875q1.203125 -1.265625 1.75 -2.28125q0.5625 -1.03125 0.5625 -1.96875q0 -0.984375 -0.515625 -1.5625q-0.515625 -0.578125 -1.40625 -0.578125q-0.15625 0 -0.359375 0.015625q-0.1875 0.015625 -0.421875 0.0625l-0.296875 1.109375q-0.15625 0.59375 -0.375 0.84375q-0.21875 0.25 -0.5625 0.25q-0.515625 0 -0.8125 -0.515625q0.09375 -0.84375 0.5625 -1.390625q0.46875 -0.5625 1.171875 -0.828125q0.703125 -0.265625 1.5 -0.265625q1.546875 0 2.25 0.765625q0.71875 0.75 0.71875 1.953125q0 0.703125 -0.28125 1.375q-0.28125 0.65625 -0.96875 1.484375q-0.6875 0.828125 -1.921875 2.015625q-0.328125 0.3125 -0.78125 0.75q-0.453125 0.421875 -0.953125 0.890625l5.359375 0l0 1.3125l-6.578125 0z" fill-rule="nonzero"/><path fill="#9fc5e8" d="m482.22958 9.857466l138.58267 0l0 56.34645l-138.58267 0z" fill-rule="evenodd"/><path stroke="#3d85c6" stroke-width="2.0" stroke-linejoin="round" stroke-linecap="butt" d="m482.22958 9.857466l138.58267 0l0 56.34645l-138.58267 0z" fill-rule="evenodd"/><path fill="#3d85c6" d="m550.5262 49.203815q-2.78125 0 -3.515625 -2.3125q-1.03125 1.09375 -1.984375 1.71875q-0.9375 0.625 -2.59375 0.625q-1.859375 0 -3.03125 -1.046875q-1.171875 -1.0625 -1.171875 -3.046875q0 -1.15625 0.515625 -2.078125q0.515625 -0.9375 1.859375 -1.734375q1.34375 -0.796875 3.8125 -1.5q0.46875 -0.171875 1.109375 -0.328125q0.640625 -0.15625 1.3125 -0.3125l0 -1.0625q0 -2.140625 -0.53125 -2.90625q-0.515625 -0.765625 -2.046875 -0.765625q-0.234375 0 -0.421875 0q-0.1875 0 -0.453125 0.03125l-0.15625 1.40625q-0.03125 1.5625 -0.71875 2.265625q-0.6875 0.703125 -1.625 0.703125q-1.75 0 -2.140625 -1.59375q0.125 -1.984375 2.015625 -3.234375q1.890625 -1.25 5.34375 -1.25q3.078125 0 4.40625 1.40625q1.328125 1.40625 1.328125 4.640625l0 7.171875q0 0.921875 0.703125 0.921875q0.25 0 0.46875 -0.140625q0.234375 -0.140625 0.484375 -0.5625l0.875 0.578125q-0.578125 1.28125 -1.5 1.84375q-0.90625 0.5625 -2.34375 0.5625zm-7.546875 -4.90625q0 1.1875 0.546875 1.765625q0.5625 0.578125 1.359375 0.578125q0.359375 0 0.734375 -0.15625q0.390625 -0.171875 1.21875 -0.75l0 -5.171875q-0.40625 0.125 -0.8125 0.265625q-0.390625 0.140625 -0.6875 0.28125q-1.078125 0.4375 -1.71875 1.265625q-0.640625 0.8125 -0.640625 1.921875z" fill-rule="nonzero"/><path fill="#3d85c6" d="m558.1276 53.15694l0.609375 0q1.21875 0 1.90625 -0.625q0.703125 -0.625 0.703125 -2.015625q0 -1.21875 -0.578125 -1.828125q-0.5625 -0.609375 -1.609375 -0.609375q-0.078125 0 -0.1875 0q-0.109375 0 -0.203125 0.03125l-0.21875 1.375q-0.125 0.8125 -0.5625 1.140625q-0.4375 0.328125 -1.015625 0.328125q-0.8125 0 -1.203125 -0.671875q0.078125 -1.171875 0.65625 -1.890625q0.59375 -0.734375 1.53125 -1.078125q0.953125 -0.34375 2.046875 -0.34375q2.359375 0 3.515625 0.984375q1.171875 0.984375 1.171875 2.4375q0 1.0 -0.703125 1.921875q-0.703125 0.90625 -2.328125 1.328125q1.875 0.34375 2.65625 1.25q0.78125 0.90625 0.78125 2.296875q0 1.109375 -0.640625 2.0q-0.625 0.875 -1.8125 1.375q-1.171875 0.5 -2.859375 0.5q-2.21875 0 -3.390625 -0.90625q-1.171875 -0.921875 -1.265625 -2.609375q0.203125 -0.515625 0.578125 -0.734375q0.375 -0.21875 0.75 -0.21875q0.65625 0 1.046875 0.40625q0.390625 0.40625 0.53125 1.484375l0.1875 1.4375q0.140625 0.015625 0.25 0.03125q0.125 0 0.25 0q2.875 0 2.875 -2.875q0 -1.3125 -0.703125 -2.015625q-0.703125 -0.71875 -2.03125 -0.71875l-0.734375 0l0 -1.1875z" fill-rule="nonzero"/><path fill="#000000" fill-opacity="0.0" d="m506.97775 65.74278l0.12600708 50.078735" fill-rule="evenodd"/><path stroke="#3d85c6" stroke-width="2.0" stroke-linejoin="round" stroke-linecap="butt" d="m506.97778 65.74278l0.09579468 38.07878" fill-rule="evenodd"/><path fill="#3d85c6" stroke="#3d85c6" stroke-width="2.0" stroke-linecap="butt" d="m503.7701 103.82987l3.326294 9.067856l3.2806091 -9.08448z" fill-rule="evenodd"/><path fill="#000000" fill-opacity="0.0" d="m192.9412 54.55679l61.85826 0l0 48.47244l-61.85826 0z" fill-rule="evenodd"/><path fill="#3d85c6" d="m210.01147 86.59679l0 -0.859375l1.78125 -0.34375q0.03125 -0.90625 0.03125 -1.953125q0.015625 -1.0625 0.015625 -1.890625l0 -1.140625q0 -0.984375 -0.015625 -1.625q0 -0.65625 -0.046875 -1.375l-1.90625 -0.21875l0 -0.84375l3.359375 -1.46875l0.359375 0.25l0.203125 1.9375q0.828125 -0.953125 1.953125 -1.5625q1.140625 -0.625 2.234375 -0.625q1.140625 0 1.84375 0.53125q0.703125 0.53125 1.015625 1.734375q0.921875 -1.125 2.046875 -1.6875q1.125 -0.578125 2.296875 -0.578125q1.46875 0 2.265625 0.984375q0.8125 0.984375 0.8125 3.21875l0 2.46875q0 0.828125 0 1.890625q0.015625 1.046875 0.046875 1.953125l1.671875 0.34375l0 0.859375l-5.5625 0l0 -0.859375l1.78125 -0.34375q0.015625 -0.890625 0.03125 -1.953125q0.015625 -1.0625 0.015625 -1.890625l0 -2.078125q0 -1.6875 -0.484375 -2.265625q-0.484375 -0.59375 -1.53125 -0.59375q-0.75 0 -1.53125 0.34375q-0.78125 0.328125 -1.6875 1.171875q0.015625 0.265625 0.03125 0.5625q0.015625 0.296875 0.015625 0.640625l0 2.21875q0 0.828125 0.015625 1.890625q0.015625 1.046875 0.03125 1.953125l1.6875 0.34375l0 0.859375l-5.578125 0l0 -0.859375l1.78125 -0.34375q0.015625 -0.890625 0.03125 -1.953125q0.015625 -1.0625 0.015625 -1.890625l0 -2.03125q0 -1.640625 -0.453125 -2.265625q-0.453125 -0.640625 -1.515625 -0.640625q-0.8125 0 -1.5625 0.34375q-0.734375 0.328125 -1.625 1.09375l0 3.5q0 0.796875 0 1.875q0.015625 1.0625 0.046875 1.96875l1.65625 0.34375l0 0.859375l-5.578125 0z" fill-rule="nonzero"/><path fill="#3d85c6" d="m232.04166 85.98741l3.296875 -0.859375l0.21875 0.171875l-0.0625 2.28125l0 4.640625q0 0.59375 0 1.203125q0.015625 0.609375 0.03125 1.21875l2.28125 0.375l0 0.578125l-5.9375 0l0 -0.578125l2.25 -0.375q0.015625 -0.609375 0.015625 -1.21875q0.015625 -0.609375 0.015625 -1.203125l0 -5.765625l-2.109375 0.1875l0 -0.65625z" fill-rule="nonzero"/><path fill="#000000" fill-opacity="0.0" d="m348.74097 54.55679l61.858246 0l0 48.47244l-61.858246 0z" fill-rule="evenodd"/><path fill="#3d85c6" d="m365.81125 86.59679l0 -0.859375l1.78125 -0.34375q0.03125 -0.90625 0.03125 -1.953125q0.015625 -1.0625 0.015625 -1.890625l0 -1.140625q0 -0.984375 -0.015625 -1.625q0 -0.65625 -0.046875 -1.375l-1.90625 -0.21875l0 -0.84375l3.359375 -1.46875l0.359375 0.25l0.203125 1.9375q0.828125 -0.953125 1.953125 -1.5625q1.140625 -0.625 2.234375 -0.625q1.140625 0 1.84375 0.53125q0.703125 0.53125 1.015625 1.734375q0.921875 -1.125 2.046875 -1.6875q1.125 -0.578125 2.296875 -0.578125q1.46875 0 2.265625 0.984375q0.8125 0.984375 0.8125 3.21875l0 2.46875q0 0.828125 0 1.890625q0.015625 1.046875 0.046875 1.953125l1.671875 0.34375l0 0.859375l-5.5625 0l0 -0.859375l1.78125 -0.34375q0.015625 -0.890625 0.03125 -1.953125q0.015625 -1.0625 0.015625 -1.890625l0 -2.078125q0 -1.6875 -0.484375 -2.265625q-0.484375 -0.59375 -1.53125 -0.59375q-0.75 0 -1.53125 0.34375q-0.78125 0.328125 -1.6875 1.171875q0.015625 0.265625 0.03125 0.5625q0.015625 0.296875 0.015625 0.640625l0 2.21875q0 0.828125 0.015625 1.890625q0.015625 1.046875 0.03125 1.953125l1.6875 0.34375l0 0.859375l-5.578125 0l0 -0.859375l1.78125 -0.34375q0.015625 -0.890625 0.03125 -1.953125q0.015625 -1.0625 0.015625 -1.890625l0 -2.03125q0 -1.640625 -0.453125 -2.265625q-0.453125 -0.640625 -1.515625 -0.640625q-0.8125 0 -1.5625 0.34375q-0.734375 0.328125 -1.625 1.09375l0 3.5q0 0.796875 0 1.875q0.015625 1.0625 0.046875 1.96875l1.65625 0.34375l0 0.859375l-5.578125 0z" fill-rule="nonzero"/><path fill="#3d85c6" d="m387.2633 95.59679l0 -1.046875q0.640625 -0.609375 1.234375 -1.21875q0.609375 -0.625 1.125 -1.171875q1.203125 -1.265625 1.75 -2.28125q0.5625 -1.03125 0.5625 -1.96875q0 -0.984375 -0.515625 -1.5625q-0.515625 -0.578125 -1.40625 -0.578125q-0.15625 0 -0.359375 0.015625q-0.1875 0.015625 -0.421875 0.0625l-0.296875 1.109375q-0.15625 0.59375 -0.375 0.84375q-0.21875 0.25 -0.5625 0.25q-0.515625 0 -0.8125 -0.515625q0.09375 -0.84375 0.5625 -1.390625q0.46875 -0.5625 1.171875 -0.828125q0.703125 -0.265625 1.5 -0.265625q1.546875 0 2.25 0.765625q0.71875 0.75 0.71875 1.953125q0 0.703125 -0.28125 1.375q-0.28125 0.65625 -0.96875 1.484375q-0.6875 0.828125 -1.921875 2.015625q-0.328125 0.3125 -0.78125 0.75q-0.453125 0.421875 -0.953125 0.890625l5.359375 0l0 1.3125l-6.578125 0z" fill-rule="nonzero"/><path fill="#000000" fill-opacity="0.0" d="m503.5715 54.55679l61.858246 0l0 48.47244l-61.858246 0z" fill-rule="evenodd"/><path fill="#3d85c6" d="m520.6418 86.59679l0 -0.859375l1.78125 -0.34375q0.03125 -0.90625 0.03125 -1.953125q0.015625 -1.0625 0.015625 -1.890625l0 -1.140625q0 -0.984375 -0.015625 -1.625q0 -0.65625 -0.046875 -1.375l-1.90625 -0.21875l0 -0.84375l3.359375 -1.46875l0.359375 0.25l0.203125 1.9375q0.828125 -0.953125 1.953125 -1.5625q1.140625 -0.625 2.234375 -0.625q1.140625 0 1.84375 0.53125q0.703125 0.53125 1.015625 1.734375q0.921875 -1.125 2.046875 -1.6875q1.125 -0.578125 2.296875 -0.578125q1.46875 0 2.265625 0.984375q0.8125 0.984375 0.8125 3.21875l0 2.46875q0 0.828125 0 1.890625q0.015625 1.046875 0.046875 1.953125l1.671875 0.34375l0 0.859375l-5.5625 0l0 -0.859375l1.78125 -0.34375q0.015625 -0.890625 0.03125 -1.953125q0.015625 -1.0625 0.015625 -1.890625l0 -2.078125q0 -1.6875 -0.484375 -2.265625q-0.484375 -0.59375 -1.53125 -0.59375q-0.75 0 -1.53125 0.34375q-0.78125 0.328125 -1.6875 1.171875q0.015625 0.265625 0.03125 0.5625q0.015625 0.296875 0.015625 0.640625l0 2.21875q0 0.828125 0.015625 1.890625q0.015625 1.046875 0.03125 1.953125l1.6875 0.34375l0 0.859375l-5.578125 0l0 -0.859375l1.78125 -0.34375q0.015625 -0.890625 0.03125 -1.953125q0.015625 -1.0625 0.015625 -1.890625l0 -2.03125q0 -1.640625 -0.453125 -2.265625q-0.453125 -0.640625 -1.515625 -0.640625q-0.8125 0 -1.5625 0.34375q-0.734375 0.328125 -1.625 1.09375l0 3.5q0 0.796875 0 1.875q0.015625 1.0625 0.046875 1.96875l1.65625 0.34375l0 0.859375l-5.578125 0z" fill-rule="nonzero"/><path fill="#3d85c6" d="m544.0313 89.75304l0.640625 0q1.078125 0 1.671875 -0.546875q0.609375 -0.5625 0.609375 -1.59375q0 -0.875 -0.5 -1.359375q-0.5 -0.484375 -1.453125 -0.484375q-0.15625 0 -0.328125 0.015625q-0.171875 0.015625 -0.40625 0.046875l-0.203125 0.8125q-0.125 0.484375 -0.328125 0.734375q-0.1875 0.25 -0.59375 0.25q-0.265625 0 -0.46875 -0.125q-0.203125 -0.125 -0.3125 -0.4375q0.21875 -1.0 1.015625 -1.5q0.796875 -0.515625 1.90625 -0.515625q1.40625 0 2.234375 0.703125q0.828125 0.6875 0.828125 1.8125q0 0.859375 -0.546875 1.546875q-0.546875 0.671875 -1.546875 1.03125q1.234375 0.234375 1.828125 0.921875q0.59375 0.6875 0.59375 1.6875q0 0.859375 -0.453125 1.546875q-0.4375 0.6875 -1.25 1.09375q-0.796875 0.40625 -1.890625 0.40625q-1.15625 0 -2.0 -0.53125q-0.84375 -0.53125 -1.0625 -1.734375q0.265625 -0.53125 0.8125 -0.53125q0.421875 0 0.59375 0.28125q0.1875 0.265625 0.359375 0.875l0.203125 0.828125q0.265625 0.0625 0.484375 0.078125q0.234375 0.015625 0.40625 0.015625q1.1875 0 1.78125 -0.609375q0.59375 -0.625 0.59375 -1.6875q0 -1.046875 -0.609375 -1.640625q-0.609375 -0.59375 -1.84375 -0.59375l-0.765625 0l0 -0.796875z" fill-rule="nonzero"/><path fill="#000000" fill-opacity="0.0" d="m570.44354 116.347l57.88977 0l0 38.23622l-57.88977 0z" fill-rule="evenodd"/><path fill="#3d85c6" d="m588.15186 128.7771l0 -0.984375l6.765625 0l0 0.984375l-2.28125 0.265625l3.34375 7.28125l3.421875 -7.25l-2.15625 -0.296875l0 -0.984375l5.5 0l0 0.984375l-2.109375 0.3125l-4.078125 8.453125q0 1.390625 0 2.65625q0.015625 1.25 0.046875 2.40625l2.4375 0.265625l0 0.984375l-7.234375 0l0 -0.984375l2.4375 -0.265625q0.046875 -1.125 0.046875 -2.34375q0 -1.234375 0 -2.625l-4.25 -8.640625l-1.890625 -0.21875z" fill-rule="nonzero"/><path fill="#3d85c6" d="m605.7032 147.01147l0.640625 0q1.078125 0 1.671875 -0.546875q0.609375 -0.5625 0.609375 -1.59375q0 -0.875 -0.5 -1.359375q-0.5 -0.484375 -1.453125 -0.484375q-0.15625 0 -0.328125 0.015625q-0.171875 0.015625 -0.40625 0.046875l-0.203125 0.8125q-0.125 0.484375 -0.328125 0.734375q-0.1875 0.25 -0.59375 0.25q-0.265625 0 -0.46875 -0.125q-0.203125 -0.125 -0.3125 -0.4375q0.21875 -1.0 1.015625 -1.5q0.796875 -0.515625 1.90625 -0.515625q1.40625 0 2.234375 0.703125q0.828125 0.6875 0.828125 1.8125q0 0.859375 -0.546875 1.546875q-0.546875 0.671875 -1.546875 1.03125q1.234375 0.234375 1.828125 0.921875q0.59375 0.6875 0.59375 1.6875q0 0.859375 -0.453125 1.546875q-0.4375 0.6875 -1.25 1.09375q-0.796875 0.40625 -1.890625 0.40625q-1.15625 0 -2.0 -0.53125q-0.84375 -0.53125 -1.0625 -1.734375q0.265625 -0.53125 0.8125 -0.53125q0.421875 0 0.59375 0.28125q0.1875 0.265625 0.359375 0.875l0.203125 0.828125q0.265625 0.0625 0.484375 0.078125q0.234375 0.015625 0.40625 0.015625q1.1875 0 1.78125 -0.609375q0.59375 -0.625 0.59375 -1.6875q0 -1.046875 -0.609375 -1.640625q-0.609375 -0.59375 -1.84375 -0.59375l-0.765625 0l0 -0.796875z" fill-rule="nonzero"/><path fill="#000000" fill-opacity="0.0" d="m691.10535 127.61697l-72.315 0" fill-rule="evenodd"/><path stroke="#000000" stroke-width="1.0" stroke-linejoin="round" stroke-linecap="butt" d="m691.1053 127.61696l-66.31494 0" fill-rule="evenodd"/><path fill="#000000" stroke="#000000" stroke-width="1.0" stroke-linecap="butt" d="m624.79034 125.96523l-4.538086 1.6517258l4.538086 1.6517334z" fill-rule="evenodd"/><path fill="#000000" fill-opacity="0.0" d="m693.81366 121.554825l35.653564 0l0 28.125992l-35.653564 0z" fill-rule="evenodd"/><path fill="#3d85c6" d="m712.67523 137.8262q-2.40625 0 -4.234375 -1.09375q-1.8125 -1.09375 -2.84375 -2.984375q-1.015625 -1.890625 -1.015625 -4.328125q0 -2.421875 1.03125 -4.296875q1.03125 -1.890625 2.859375 -2.984375q1.84375 -1.09375 4.296875 -1.09375q1.484375 0 2.640625 0.28125q1.171875 0.28125 2.1875 0.859375l0.09375 3.5l-1.484375 0l-0.484375 -2.734375q-1.25 -0.703125 -2.734375 -0.703125q-1.65625 0 -2.96875 0.84375q-1.3125 0.84375 -2.0625 2.4375q-0.75 1.59375 -0.75 3.890625q0 3.4375 1.578125 5.3125q1.578125 1.875 4.34375 1.875q1.375 0 2.5625 -0.484375l0 -0.765625q0 -1.078125 -0.015625 -2.171875q0 -1.09375 -0.03125 -2.171875l-2.484375 -0.21875l0 -0.953125l6.3125 0l0 0.953125l-1.46875 0.140625q-0.03125 1.078125 -0.046875 2.1875q0 1.109375 0 2.234375l0 1.046875q-1.25 0.65625 -2.53125 1.046875q-1.265625 0.375 -2.75 0.375z" fill-rule="nonzero"/><path fill="#ffe599" d="m176.63048 308.60043l138.58269 0l0 56.346466l-138.58269 0z" fill-rule="evenodd"/><path stroke="#f1c232" stroke-width="2.0" stroke-linejoin="round" stroke-linecap="butt" d="m176.63048 308.60043l138.58269 0l0 56.346466l-138.58269 0z" fill-rule="evenodd"/><path fill="#000000" d="m205.99544 347.49368l0 -1.34375l7.59375 -20.21875l2.015625 0l7.546875 20.21875l0 1.34375l-17.15625 0zm2.015625 -2.59375l11.53125 0l-5.734375 -15.515625l-5.796875 15.515625z" fill-rule="nonzero"/><path fill="#000000" d="m225.01685 346.10306l0 -0.875l10.625 0l0.140625 3.765625l-1.203125 0l-0.46875 -2.703125l-5.015625 0q-0.03125 1.359375 -0.046875 2.734375q0 1.359375 0 2.6875l3.3125 0l0.296875 -2.03125l0.984375 0l0 5.25l-0.984375 0l-0.296875 -2.21875l-3.3125 0q0 1.578125 0 2.96875q0.015625 1.375 0.046875 2.703125l1.984375 0.234375l0 0.875l-6.0625 0l0 -0.875l1.96875 -0.234375q0.03125 -1.34375 0.03125 -2.71875q0 -1.390625 0 -2.78125l0 -1.046875q0 -1.390625 0 -2.765625q0 -1.375 -0.03125 -2.734375l-1.96875 -0.234375z" fill-rule="nonzero"/><path fill="#000000" d="m241.55336 338.60306q0 2.546875 0.4375 4.78125q0.453125 2.21875 1.515625 4.5q1.078125 2.296875 2.96875 5.015625l-0.828125 0.734375q-3.390625 -3.171875 -5.0312347 -6.90625q-1.625 -3.75 -1.625 -8.125q0 -4.390625 1.625 -8.125q1.6406097 -3.75 5.0312347 -6.921875l0.828125 0.734375q-1.890625 2.71875 -2.96875 5.015625q-1.0625 2.28125 -1.515625 4.515625q-0.4375 2.21875 -0.4375 4.78125z" fill-rule="nonzero"/><path fill="#3d85c6" d="m260.55765 347.9468q-2.78125 0 -3.515625 -2.3125q-1.03125 1.09375 -1.9843903 1.71875q-0.9375 0.625 -2.59375 0.625q-1.859375 0 -3.03125 -1.046875q-1.171875 -1.0625 -1.171875 -3.046875q0 -1.15625 0.515625 -2.078125q0.515625 -0.9375 1.859375 -1.734375q1.34375 -0.796875 3.8125 -1.5q0.46875 -0.171875 1.109375 -0.328125q0.64064026 -0.15625 1.3125153 -0.3125l0 -1.0625q0 -2.140625 -0.53125 -2.90625q-0.51564026 -0.765625 -2.0468903 -0.765625q-0.234375 0 -0.421875 0q-0.1875 0 -0.453125 0.03125l-0.15625 1.40625q-0.03125 1.5625 -0.71875 2.265625q-0.6875 0.703125 -1.625 0.703125q-1.75 0 -2.140625 -1.59375q0.125 -1.984375 2.015625 -3.234375q1.890625 -1.25 5.3437653 -1.25q3.078125 0 4.40625 1.40625q1.328125 1.40625 1.328125 4.640625l0 7.171875q0 0.921875 0.703125 0.921875q0.25 0 0.46875 -0.140625q0.234375 -0.140625 0.484375 -0.5625l0.875 0.578125q-0.578125 1.28125 -1.5 1.84375q-0.90625 0.5625 -2.34375 0.5625zm-7.5468903 -4.90625q0 1.1875 0.546875 1.765625q0.5625 0.578125 1.359375 0.578125q0.359375 0 0.734375 -0.15625q0.39064026 -0.171875 1.2187653 -0.75l0 -5.171875q-0.40625 0.125 -0.8125 0.265625q-0.39064026 0.140625 -0.68751526 0.28125q-1.078125 0.4375 -1.71875 1.265625q-0.640625 0.8125 -0.640625 1.921875z" fill-rule="nonzero"/><path fill="#3d85c6" d="m266.36218 346.99368l5.3125 -1.171875l0.296875 0.21875l-0.09375 3.03125l0 5.984375q0 0.703125 0 1.40625q0 0.703125 0.03125 1.4375l2.46875 0.59375l0 1.0l-8.546875 0l0 -1.0l2.59375 -0.59375q0.03125 -0.703125 0.03125 -1.421875q0 -0.71875 0 -1.421875l0 -7.015625l-2.09375 0.1875l0 -1.234375z" fill-rule="nonzero"/><path fill="#000000" d="m281.56268 338.60306q0 -2.5625 -0.453125 -4.78125q-0.453125 -2.234375 -1.53125 -4.515625q-1.0625 -2.296875 -2.953125 -5.015625l0.828125 -0.734375q3.40625 3.171875 5.03125 6.921875q1.625 3.734375 1.625 8.125q0 4.375 -1.625 8.125q-1.625 3.734375 -5.03125 6.90625l-0.828125 -0.734375q1.890625 -2.71875 2.953125 -5.015625q1.078125 -2.28125 1.53125 -4.5q0.453125 -2.234375 0.453125 -4.78125z" fill-rule="nonzero"/><path fill="#ffe599" d="m329.43002 308.61475l138.58267 0l0 56.346466l-138.58267 0z" fill-rule="evenodd"/><path stroke="#f1c232" stroke-width="2.0" stroke-linejoin="round" stroke-linecap="butt" d="m329.43002 308.61475l138.58267 0l0 56.346466l-138.58267 0z" fill-rule="evenodd"/><path fill="#000000" d="m358.79498 347.50797l0 -1.34375l7.59375 -20.21875l2.015625 0l7.546875 20.21875l0 1.34375l-17.15625 0zm2.015625 -2.59375l11.53125 0l-5.734375 -15.515625l-5.796875 15.515625z" fill-rule="nonzero"/><path fill="#000000" d="m377.81638 346.11734l0 -0.875l10.625 0l0.140625 3.765625l-1.203125 0l-0.46875 -2.703125l-5.015625 0q-0.03125 1.359375 -0.046875 2.734375q0 1.359375 0 2.6875l3.3125 0l0.296875 -2.03125l0.984375 0l0 5.25l-0.984375 0l-0.296875 -2.21875l-3.3125 0q0 1.578125 0 2.96875q0.015625 1.375 0.046875 2.703125l1.984375 0.234375l0 0.875l-6.0625 0l0 -0.875l1.96875 -0.234375q0.03125 -1.34375 0.03125 -2.71875q0 -1.390625 0 -2.78125l0 -1.046875q0 -1.390625 0 -2.765625q0 -1.375 -0.03125 -2.734375l-1.96875 -0.234375z" fill-rule="nonzero"/><path fill="#000000" d="m394.3529 338.61734q0 2.546875 0.4375 4.78125q0.453125 2.21875 1.515625 4.5q1.078125 2.296875 2.96875 5.015625l-0.828125 0.734375q-3.390625 -3.171875 -5.03125 -6.90625q-1.625 -3.75 -1.625 -8.125q0 -4.390625 1.625 -8.125q1.640625 -3.75 5.03125 -6.921875l0.828125 0.734375q-1.890625 2.71875 -2.96875 5.015625q-1.0625 2.28125 -1.515625 4.515625q-0.4375 2.21875 -0.4375 4.78125z" fill-rule="nonzero"/><path fill="#3d85c6" d="m413.35718 347.9611q-2.78125 0 -3.515625 -2.3125q-1.03125 1.09375 -1.984375 1.71875q-0.9375 0.625 -2.59375 0.625q-1.859375 0 -3.03125 -1.046875q-1.171875 -1.0625 -1.171875 -3.046875q0 -1.15625 0.515625 -2.078125q0.515625 -0.9375 1.859375 -1.734375q1.34375 -0.796875 3.8125 -1.5q0.46875 -0.171875 1.109375 -0.328125q0.640625 -0.15625 1.3125 -0.3125l0 -1.0625q0 -2.140625 -0.53125 -2.90625q-0.515625 -0.765625 -2.046875 -0.765625q-0.234375 0 -0.421875 0q-0.1875 0 -0.453125 0.03125l-0.15625 1.40625q-0.03125 1.5625 -0.71875 2.265625q-0.6875 0.703125 -1.625 0.703125q-1.75 0 -2.140625 -1.59375q0.125 -1.984375 2.015625 -3.234375q1.890625 -1.25 5.34375 -1.25q3.078125 0 4.40625 1.40625q1.328125 1.40625 1.328125 4.640625l0 7.171875q0 0.921875 0.703125 0.921875q0.25 0 0.46875 -0.140625q0.234375 -0.140625 0.484375 -0.5625l0.875 0.578125q-0.578125 1.28125 -1.5 1.84375q-0.90625 0.5625 -2.34375 0.5625zm-7.546875 -4.90625q0 1.1875 0.546875 1.765625q0.5625 0.578125 1.359375 0.578125q0.359375 0 0.734375 -0.15625q0.390625 -0.171875 1.21875 -0.75l0 -5.171875q-0.40625 0.125 -0.8125 0.265625q-0.390625 0.140625 -0.6875 0.28125q-1.078125 0.4375 -1.71875 1.265625q-0.640625 0.8125 -0.640625 1.921875z" fill-rule="nonzero"/><path fill="#3d85c6" d="m418.17734 359.50797l0 -1.890625q0.734375 -0.734375 1.453125 -1.4375q0.71875 -0.703125 1.359375 -1.359375q1.015625 -1.03125 1.6875 -1.875q0.671875 -0.859375 1.015625 -1.703125q0.34375 -0.84375 0.34375 -1.796875q0 -1.234375 -0.59375 -1.921875q-0.578125 -0.6875 -1.578125 -0.6875q-0.125 0 -0.265625 0q-0.140625 0 -0.265625 0.03125l-0.28125 1.5q-0.15625 1.109375 -0.625 1.46875q-0.46875 0.34375 -0.953125 0.34375q-0.453125 0 -0.828125 -0.234375q-0.359375 -0.234375 -0.5625 -0.625q0.046875 -1.1875 0.71875 -1.984375q0.6875 -0.796875 1.796875 -1.203125q1.109375 -0.40625 2.4375 -0.40625q1.5625 0 2.53125 0.5q0.96875 0.484375 1.4375 1.3125q0.46875 0.828125 0.46875 1.875q0 1.03125 -0.53125 2.0q-0.53125 0.953125 -1.671875 1.953125q-1.125 1.0 -2.890625 2.21875q-0.4375 0.296875 -0.90625 0.625q-0.46875 0.3125 -0.953125 0.671875l7.234375 0l0 2.625l-9.578125 0z" fill-rule="nonzero"/><path fill="#000000" d="m434.36224 338.61734q0 -2.5625 -0.453125 -4.78125q-0.453125 -2.234375 -1.53125 -4.515625q-1.0625 -2.296875 -2.953125 -5.015625l0.828125 -0.734375q3.40625 3.171875 5.03125 6.921875q1.625 3.734375 1.625 8.125q0 4.375 -1.625 8.125q-1.625 3.734375 -5.03125 6.90625l-0.828125 -0.734375q1.890625 -2.71875 2.953125 -5.015625q1.078125 -2.28125 1.53125 -4.5q0.453125 -2.234375 0.453125 -4.78125z" fill-rule="nonzero"/><path fill="#ffe599" d="m482.22958 308.60043l138.58267 0l0 56.346466l-138.58267 0z" fill-rule="evenodd"/><path stroke="#f1c232" stroke-width="2.0" stroke-linejoin="round" stroke-linecap="butt" d="m482.22958 308.60043l138.58267 0l0 56.346466l-138.58267 0z" fill-rule="evenodd"/><path fill="#000000" d="m511.5945 347.49368l0 -1.34375l7.5937805 -20.21875l2.015625 0l7.546875 20.21875l0 1.34375l-17.15628 0zm2.0156555 -2.59375l11.53125 0l-5.734375 -15.515625l-5.796875 15.515625z" fill-rule="nonzero"/><path fill="#000000" d="m530.6159 346.10306l0 -0.875l10.625 0l0.140625 3.765625l-1.203125 0l-0.46875 -2.703125l-5.015625 0q-0.03125 1.359375 -0.046875 2.734375q0 1.359375 0 2.6875l3.3125 0l0.296875 -2.03125l0.984375 0l0 5.25l-0.984375 0l-0.296875 -2.21875l-3.3125 0q0 1.578125 0 2.96875q0.015625 1.375 0.046875 2.703125l1.984375 0.234375l0 0.875l-6.0625 0l0 -0.875l1.96875 -0.234375q0.03125 -1.34375 0.03125 -2.71875q0 -1.390625 0 -2.78125l0 -1.046875q0 -1.390625 0 -2.765625q0 -1.375 -0.03125 -2.734375l-1.96875 -0.234375z" fill-rule="nonzero"/><path fill="#000000" d="m547.15247 338.60306q0 2.546875 0.4375 4.78125q0.453125 2.21875 1.515625 4.5q1.078125 2.296875 2.96875 5.015625l-0.828125 0.734375q-3.390625 -3.171875 -5.03125 -6.90625q-1.625 -3.75 -1.625 -8.125q0 -4.390625 1.625 -8.125q1.640625 -3.75 5.03125 -6.921875l0.828125 0.734375q-1.890625 2.71875 -2.96875 5.015625q-1.0625 2.28125 -1.515625 4.515625q-0.4375 2.21875 -0.4375 4.78125z" fill-rule="nonzero"/><path fill="#3d85c6" d="m566.15674 347.9468q-2.78125 0 -3.515625 -2.3125q-1.03125 1.09375 -1.984375 1.71875q-0.9375 0.625 -2.59375 0.625q-1.859375 0 -3.03125 -1.046875q-1.171875 -1.0625 -1.171875 -3.046875q0 -1.15625 0.515625 -2.078125q0.515625 -0.9375 1.859375 -1.734375q1.34375 -0.796875 3.8125 -1.5q0.46875 -0.171875 1.109375 -0.328125q0.640625 -0.15625 1.3125 -0.3125l0 -1.0625q0 -2.140625 -0.53125 -2.90625q-0.515625 -0.765625 -2.046875 -0.765625q-0.234375 0 -0.421875 0q-0.1875 0 -0.453125 0.03125l-0.15625 1.40625q-0.03125 1.5625 -0.71875 2.265625q-0.6875 0.703125 -1.625 0.703125q-1.75 0 -2.140625 -1.59375q0.125 -1.984375 2.015625 -3.234375q1.890625 -1.25 5.34375 -1.25q3.078125 0 4.40625 1.40625q1.328125 1.40625 1.328125 4.640625l0 7.171875q0 0.921875 0.703125 0.921875q0.25 0 0.46875 -0.140625q0.234375 -0.140625 0.484375 -0.5625l0.875 0.578125q-0.578125 1.28125 -1.5 1.84375q-0.90625 0.5625 -2.34375 0.5625zm-7.546875 -4.90625q0 1.1875 0.546875 1.765625q0.5625 0.578125 1.359375 0.578125q0.359375 0 0.734375 -0.15625q0.390625 -0.171875 1.21875 -0.75l0 -5.171875q-0.40625 0.125 -0.8125 0.265625q-0.390625 0.140625 -0.6875 0.28125q-1.078125 0.4375 -1.71875 1.265625q-0.640625 0.8125 -0.640625 1.921875z" fill-rule="nonzero"/><path fill="#3d85c6" d="m573.7581 351.89993l0.609375 0q1.21875 0 1.90625 -0.625q0.703125 -0.625 0.703125 -2.015625q0 -1.21875 -0.578125 -1.828125q-0.5625 -0.609375 -1.609375 -0.609375q-0.078125 0 -0.1875 0q-0.109375 0 -0.203125 0.03125l-0.21875 1.375q-0.125 0.8125 -0.5625 1.140625q-0.4375 0.328125 -1.015625 0.328125q-0.8125 0 -1.203125 -0.671875q0.078125 -1.171875 0.65625 -1.890625q0.59375 -0.734375 1.53125 -1.078125q0.953125 -0.34375 2.046875 -0.34375q2.359375 0 3.515625 0.984375q1.171875 0.984375 1.171875 2.4375q0 1.0 -0.703125 1.921875q-0.703125 0.90625 -2.328125 1.328125q1.875 0.34375 2.65625 1.25q0.78125 0.90625 0.78125 2.296875q0 1.109375 -0.640625 2.0q-0.625 0.875 -1.8125 1.375q-1.171875 0.5 -2.859375 0.5q-2.21875 0 -3.390625 -0.90625q-1.171875 -0.921875 -1.265625 -2.609375q0.203125 -0.515625 0.578125 -0.734375q0.375 -0.21875 0.75 -0.21875q0.65625 0 1.046875 0.40625q0.390625 0.40625 0.53125 1.484375l0.1875 1.4375q0.140625 0.015625 0.25 0.03125q0.125 0 0.25 0q2.875 0 2.875 -2.875q0 -1.3125 -0.703125 -2.015625q-0.703125 -0.71875 -2.03125 -0.71875l-0.734375 0l0 -1.1875z" fill-rule="nonzero"/><path fill="#000000" d="m587.1618 338.60306q0 -2.5625 -0.453125 -4.78125q-0.453125 -2.234375 -1.53125 -4.515625q-1.0625 -2.296875 -2.953125 -5.015625l0.828125 -0.734375q3.40625 3.171875 5.03125 6.921875q1.625 3.734375 1.625 8.125q0 4.375 -1.625 8.125q-1.625 3.734375 -5.03125 6.90625l-0.828125 -0.734375q1.890625 -2.71875 2.953125 -5.015625q1.078125 -2.28125 1.53125 -4.5q0.453125 -2.234375 0.453125 -4.78125z" fill-rule="nonzero"/><path fill="#000000" fill-opacity="0.0" d="m158.76224 212.06306l93.22835 0l0 28.125992l-93.22835 0z" fill-rule="evenodd"/><path fill="#000000" d="m178.36546 227.97507l0 -1.015625l5.6875 -15.15625l1.515625 0l5.65625 15.15625l0 1.015625l-12.859375 0zm1.515625 -1.9375l8.640625 0l-4.296875 -11.640625l-4.34375 11.640625z" fill-rule="nonzero"/><path fill="#000000" d="m192.62755 226.92819l0 -0.65625l7.96875 0l0.109375 2.828125l-0.90625 0l-0.359375 -2.03125l-3.75 0q-0.015625 1.03125 -0.03125 2.0625q0 1.015625 0 2.0l2.46875 0l0.234375 -1.515625l0.734375 0l0 3.9375l-0.734375 0l-0.234375 -1.671875l-2.46875 0q0 1.1875 0 2.234375q0.015625 1.03125 0.03125 2.03125l1.484375 0.171875l0 0.65625l-4.546875 0l0 -0.65625l1.46875 -0.171875q0.03125 -1.015625 0.03125 -2.046875q0 -1.046875 0 -2.078125l0 -0.796875q0 -1.03125 0 -2.0625q0 -1.03125 -0.03125 -2.0625l-1.46875 -0.171875z" fill-rule="nonzero"/><path fill="#000000" d="m205.0322 221.30319q0 1.921875 0.328125 3.59375q0.34375 1.65625 1.140625 3.375q0.8125 1.71875 2.21875 3.765625l-0.625 0.546875q-2.53125 -2.375 -3.765625 -5.1875q-1.21875 -2.8125 -1.21875 -6.09375q0 -3.28125 1.21875 -6.09375q1.234375 -2.8125 3.765625 -5.1875l0.625 0.546875q-1.40625 2.046875 -2.21875 3.765625q-0.796875 1.71875 -1.140625 3.390625q-0.328125 1.65625 -0.328125 3.578125z" fill-rule="nonzero"/><path fill="#3d85c6" d="m209.77754 212.89694l0 -0.984375l6.75 0l0 0.984375l-2.109375 0.25l3.0625 5.125l3.203125 -5.078125l-2.046875 -0.296875l0 -0.984375l5.5 0l0 0.984375l-2.109375 0.265625l-3.9375 6.09375l4.5 7.5l2.078125 0.234375l0 0.984375l-6.796875 0l0 -0.984375l2.203125 -0.265625l-3.359375 -5.5625l-3.53125 5.5625l1.875 0.265625l0 0.984375l-5.5 0l0 -0.984375l2.28125 -0.28125l4.296875 -6.515625l-4.25 -7.046875l-2.109375 -0.25z" fill-rule="nonzero"/><path fill="#000000" d="m229.17325 221.30319q0 -1.921875 -0.34375 -3.578125q-0.328125 -1.671875 -1.140625 -3.390625q-0.796875 -1.71875 -2.21875 -3.765625l0.625 -0.546875q2.546875 2.375 3.765625 5.1875q1.234375 2.8125 1.234375 6.09375q0 3.28125 -1.234375 6.09375q-1.21875 2.8125 -3.765625 5.1875l-0.625 -0.546875q1.421875 -2.046875 2.21875 -3.765625q0.8125 -1.71875 1.140625 -3.375q0.34375 -1.671875 0.34375 -3.59375z" fill-rule="nonzero"/><path fill="#000000" fill-opacity="0.0" d="m201.39429 247.61366l0 59.307083" fill-rule="evenodd"/><path stroke="#f1c232" stroke-width="2.0" stroke-linejoin="round" stroke-linecap="butt" d="m201.3943 259.61365l0 47.3071" fill-rule="evenodd"/><path fill="#f1c232" stroke="#f1c232" stroke-width="2.0" stroke-linecap="butt" d="m204.69775 259.61365l-3.3034515 -9.076187l-3.3034668 9.076187z" fill-rule="evenodd"/><path fill="#000000" fill-opacity="0.0" d="m281.45615 213.37207l162.17322 0l0 36.850403l-162.17322 0z" fill-rule="evenodd"/><path fill="#000000" d="m331.7118 229.28407l0 -1.015625l5.6875 -15.15625l1.515625 0l5.65625 15.15625l0 1.015625l-12.859375 0zm1.515625 -1.9375l8.640625 0l-4.296875 -11.640625l-4.34375 11.640625z" fill-rule="nonzero"/><path fill="#000000" d="m345.97388 228.2372l0 -0.65625l7.96875 0l0.109375 2.828125l-0.90625 0l-0.359375 -2.03125l-3.75 0q-0.015625 1.03125 -0.03125 2.0625q0 1.015625 0 2.0l2.46875 0l0.234375 -1.515625l0.734375 0l0 3.9375l-0.734375 0l-0.234375 -1.671875l-2.46875 0q0 1.1875 0 2.234375q0.015625 1.03125 0.03125 2.03125l1.484375 0.171875l0 0.65625l-4.546875 0l0 -0.65625l1.46875 -0.171875q0.03125 -1.015625 0.03125 -2.046875q0 -1.046875 0 -2.078125l0 -0.796875q0 -1.03125 0 -2.0625q0 -1.03125 -0.03125 -2.0625l-1.46875 -0.171875z" fill-rule="nonzero"/><path fill="#000000" d="m358.37854 222.6122q0 1.921875 0.328125 3.59375q0.34375 1.65625 1.140625 3.375q0.8125 1.71875 2.21875 3.765625l-0.625 0.546875q-2.53125 -2.375 -3.765625 -5.1875q-1.21875 -2.8125 -1.21875 -6.09375q0 -3.28125 1.21875 -6.09375q1.234375 -2.8125 3.765625 -5.1875l0.625 0.546875q-1.40625 2.046875 -2.21875 3.765625q-0.796875 1.71875 -1.140625 3.390625q-0.328125 1.65625 -0.328125 3.578125z" fill-rule="nonzero"/><path fill="#3d85c6" d="m363.03012 214.20595l0 -0.984375l6.765625 0l0 0.984375l-2.28125 0.265625l3.34375 7.28125l3.421875 -7.25l-2.15625 -0.296875l0 -0.984375l5.5 0l0 0.984375l-2.109375 0.3125l-4.078125 8.453125q0 1.390625 0 2.65625q0.015625 1.25 0.046875 2.40625l2.4375 0.265625l0 0.984375l-7.234375 0l0 -0.984375l2.4375 -0.265625q0.046875 -1.125 0.046875 -2.34375q0 -1.234375 0 -2.625l-4.25 -8.640625l-1.890625 -0.21875z" fill-rule="nonzero"/><path fill="#3d85c6" d="m379.22208 228.6747l3.296875 -0.859375l0.21875 0.171875l-0.0625 2.28125l0 4.640625q0 0.59375 0 1.203125q0.015625 0.609375 0.03125 1.21875l2.28125 0.375l0 0.578125l-5.9375 0l0 -0.578125l2.25 -0.375q0.015625 -0.609375 0.015625 -1.21875q0.015625 -0.609375 0.015625 -1.203125l0 -5.765625l-2.109375 0.1875l0 -0.65625z" fill-rule="nonzero"/><path fill="#000000" d="m390.1596 222.6122q0 -1.921875 -0.34375 -3.578125q-0.328125 -1.671875 -1.140625 -3.390625q-0.796875 -1.71875 -2.21875 -3.765625l0.625 -0.546875q2.546875 2.375 3.765625 5.1875q1.234375 2.8125 1.234375 6.09375q0 3.28125 -1.234375 6.09375q-1.21875 2.8125 -3.765625 5.1875l-0.625 -0.546875q1.421875 -2.046875 2.21875 -3.765625q0.8125 -1.71875 1.140625 -3.375q0.34375 -1.671875 0.34375 -3.59375z" fill-rule="nonzero"/><path fill="#000000" fill-opacity="0.0" d="m354.3083 247.61366l0 62.362198" fill-rule="evenodd"/><path stroke="#f1c232" stroke-width="2.0" stroke-linejoin="round" stroke-linecap="butt" d="m354.3083 259.61365l0 50.362213" fill-rule="evenodd"/><path fill="#f1c232" stroke="#f1c232" stroke-width="2.0" stroke-linecap="butt" d="m357.61176 259.61365l-3.3034668 -9.076187l-3.3034668 9.076187z" fill-rule="evenodd"/><path fill="#000000" fill-opacity="0.0" d="m461.767 213.37207l105.82681 0l0 36.850403l-105.82681 0z" fill-rule="evenodd"/><path fill="#000000" d="m483.84946 229.28407l0 -1.015625l5.6875 -15.15625l1.515625 0l5.65625 15.15625l0 1.015625l-12.859375 0zm1.515625 -1.9375l8.640625 0l-4.296875 -11.640625l-4.34375 11.640625z" fill-rule="nonzero"/><path fill="#000000" d="m498.11154 228.2372l0 -0.65625l7.96875 0l0.109375 2.828125l-0.90625 0l-0.359375 -2.03125l-3.75 0q-0.015625 1.03125 -0.03125 2.0625q0 1.015625 0 2.0l2.46875 0l0.234375 -1.515625l0.734375 0l0 3.9375l-0.734375 0l-0.234375 -1.671875l-2.46875 0q0 1.1875 0 2.234375q0.015625 1.03125 0.03125 2.03125l1.484375 0.171875l0 0.65625l-4.546875 0l0 -0.65625l1.46875 -0.171875q0.03125 -1.015625 0.03125 -2.046875q0 -1.046875 0 -2.078125l0 -0.796875q0 -1.03125 0 -2.0625q0 -1.03125 -0.03125 -2.0625l-1.46875 -0.171875z" fill-rule="nonzero"/><path fill="#000000" d="m510.51617 222.6122q0 1.921875 0.328125 3.59375q0.34375 1.65625 1.140625 3.375q0.8125 1.71875 2.21875 3.765625l-0.625 0.546875q-2.53125 -2.375 -3.765625 -5.1875q-1.21875 -2.8125 -1.21875 -6.09375q0 -3.28125 1.21875 -6.09375q1.234375 -2.8125 3.765625 -5.1875l0.625 0.546875q-1.40625 2.046875 -2.21875 3.765625q-0.796875 1.71875 -1.140625 3.390625q-0.328125 1.65625 -0.328125 3.578125z" fill-rule="nonzero"/><path fill="#3d85c6" d="m515.1678 214.20595l0 -0.984375l6.765625 0l0 0.984375l-2.28125 0.265625l3.34375 7.28125l3.421875 -7.25l-2.15625 -0.296875l0 -0.984375l5.5 0l0 0.984375l-2.109375 0.3125l-4.078125 8.453125q0 1.390625 0 2.65625q0.015625 1.25 0.046875 2.40625l2.4375 0.265625l0 0.984375l-7.234375 0l0 -0.984375l2.4375 -0.265625q0.046875 -1.125 0.046875 -2.34375q0 -1.234375 0 -2.625l-4.25 -8.640625l-1.890625 -0.21875z" fill-rule="nonzero"/><path fill="#3d85c6" d="m530.7816 238.28407l0 -1.046875q0.640625 -0.609375 1.234375 -1.21875q0.609375 -0.625 1.125 -1.171875q1.203125 -1.265625 1.75 -2.28125q0.5625 -1.03125 0.5625 -1.96875q0 -0.984375 -0.515625 -1.5625q-0.515625 -0.578125 -1.40625 -0.578125q-0.15625 0 -0.359375 0.015625q-0.1875 0.015625 -0.421875 0.0625l-0.296875 1.109375q-0.15625 0.59375 -0.375 0.84375q-0.21875 0.25 -0.5625 0.25q-0.515625 0 -0.8125 -0.515625q0.09375 -0.84375 0.5625 -1.390625q0.46875 -0.5625 1.171875 -0.828125q0.703125 -0.265625 1.5 -0.265625q1.546875 0 2.25 0.765625q0.71875 0.75 0.71875 1.953125q0 0.703125 -0.28125 1.375q-0.28125 0.65625 -0.96875 1.484375q-0.6875 0.828125 -1.921875 2.015625q-0.328125 0.3125 -0.78125 0.75q-0.453125 0.421875 -0.953125 0.890625l5.359375 0l0 1.3125l-6.578125 0z" fill-rule="nonzero"/><path fill="#000000" d="m542.29724 222.6122q0 -1.921875 -0.34375 -3.578125q-0.328125 -1.671875 -1.140625 -3.390625q-0.796875 -1.71875 -2.21875 -3.765625l0.625 -0.546875q2.546875 2.375 3.765625 5.1875q1.234375 2.8125 1.234375 6.09375q0 3.28125 -1.234375 6.09375q-1.21875 2.8125 -3.765625 5.1875l-0.625 -0.546875q1.421875 -2.046875 2.21875 -3.765625q0.8125 -1.71875 1.140625 -3.375q0.34375 -1.671875 0.34375 -3.59375z" fill-rule="nonzero"/><path fill="#000000" fill-opacity="0.0" d="m506.27985 248.32896l-62.173218 59.0551" fill-rule="evenodd"/><path stroke="#ffd966" stroke-width="2.0" stroke-linejoin="round" stroke-linecap="butt" stroke-dasharray="8.0,6.0" d="m497.5792 256.59326l-53.472565 50.790833" fill-rule="evenodd"/><path fill="#ffd966" stroke="#ffd966" stroke-width="2.0" stroke-linecap="butt" d="m499.85428 258.98846l4.305664 -8.645905l-8.855804 3.8555145z" fill-rule="evenodd"/><path fill="#000000" fill-opacity="0.0" d="m507.04346 247.61366l0 61.448807" fill-rule="evenodd"/><path stroke="#f1c232" stroke-width="2.0" stroke-linejoin="round" stroke-linecap="butt" d="m507.04343 259.61365l0 49.448822" fill-rule="evenodd"/><path fill="#f1c232" stroke="#f1c232" stroke-width="2.0" stroke-linecap="butt" d="m510.3469 259.61365l-3.3034668 -9.076187l-3.3034668 9.076187z" fill-rule="evenodd"/><path fill="#000000" fill-opacity="0.0" d="m680.72095 227.79985l-41.259888 0" fill-rule="evenodd"/><path stroke="#000000" stroke-width="1.0" stroke-linejoin="round" stroke-linecap="butt" d="m680.72095 227.79985l-35.259888 0" fill-rule="evenodd"/><path fill="#000000" stroke="#000000" stroke-width="1.0" stroke-linecap="butt" d="m645.46106 226.14812l-4.538086 1.6517334l4.538086 1.6517334z" fill-rule="evenodd"/><path fill="#000000" fill-opacity="0.0" d="m9.848305 9.406824l116.661415 0l0 48.472443l-116.661415 0z" fill-rule="evenodd"/><path fill="#000000" d="m31.506855 47.181202l0 -0.84375l1.921875 -0.328125q0.015625 -0.984375 0.03125 -1.96875q0.015625 -0.96875 0.015625 -1.921875l0 -6.859375q0 -0.984375 -0.015625 -1.625q-0.015625 -0.65625 -0.0625 -1.375l-1.890625 -0.21875l0 -0.8437519l3.359375 -1.46875l0.359375 0.25l0.140625 1.5625q1.703125 -1.8125 3.625 -1.8125q1.296875 0 2.328125 0.734375q1.03125 0.71875 1.640625 2.046877q0.609375 1.328125 0.609375 3.203125q0 1.84375 -0.65625 3.203125q-0.640625 1.359375 -1.75 2.109375q-1.109375 0.734375 -2.53125 0.734375q-0.8125 0 -1.625 -0.328125q-0.796875 -0.34375 -1.5625 -1.234375l0 1.890625q0 0.96875 0 1.9375q0.015625 0.96875 0.046875 1.953125l2.1875 0.359375l0 0.84375l-6.171875 0zm6.90625 -16.078127q-0.546875 0 -1.265625 0.28125q-0.71875 0.265625 -1.640625 1.0312519l0 6.75q0.671875 0.65625 1.3125 0.9375q0.65625 0.28125 1.328125 0.28125q1.34375 0 2.296875 -1.078125q0.96875 -1.078125 0.96875 -3.40625q0 -2.296875 -0.84375 -3.546875q-0.828125 -1.2500019 -2.15625 -1.2500019zm6.595703 10.343752l0 -0.859375l1.921875 -0.34375q0.03125 -0.984375 0.03125 -1.921875q0.015625 -0.953125 0.015625 -1.921875l0 -10.531252l-1.96875 -0.234375l0 -0.84375l3.75 -1.078125l0.34375 0.1875l-0.109375 3.40625l0 9.093752q0 0.96875 0.015625 1.9375q0.015625 0.953125 0.03125 1.90625l1.921875 0.34375l0 0.859375l-5.953125 0zm16.302597 0.234375q-0.859375 0 -1.4375 -0.5q-0.578125 -0.5 -0.71875 -1.34375q-0.984375 0.96875 -1.734375 1.453125q-0.734375 0.46875 -1.796875 0.46875q-1.328125 0 -2.28125 -0.75q-0.9375 -0.765625 -0.9375 -2.25q0 -0.703125 0.328125 -1.296875q0.328125 -0.59375 1.1875 -1.171875q0.859375 -0.578125 2.46875 -1.15625q0.546875 -0.1875 1.265625 -0.40625q0.734375 -0.21875 1.453125 -0.390625l0 -0.59375q0 -1.7500019 -0.53125 -2.328127q-0.53125 -0.578125 -1.734375 -0.578125q-0.265625 0 -0.59375 0.03125q-0.3125 0.015625 -0.703125 0.109375l-0.453125 1.5625019q-0.328125 1.15625 -1.25 1.15625q-1.0 0 -1.125 -0.984375q0.34375 -1.3750019 1.59375 -2.171877q1.265625 -0.8125 3.09375 -0.8125q1.890625 0 2.796875 0.953125q0.921875 0.953125 0.921875 3.234377l0 5.109375q0 0.765625 0.234375 1.09375q0.234375 0.3125 0.625 0.3125q0.3125 0 0.53125 -0.140625q0.21875 -0.140625 0.40625 -0.375l0.484375 0.515625q-0.4375 0.703125 -0.953125 0.984375q-0.515625 0.265625 -1.140625 0.265625zm-6.765625 -3.28125q0 0.953125 0.546875 1.375q0.546875 0.40625 1.375 0.40625q0.359375 0 0.671875 -0.09375q0.328125 -0.109375 0.78125 -0.375q0.46875 -0.28125 1.1875 -0.8125l0 -3.671875q-0.625 0.171875 -1.234375 0.375q-0.59375 0.203125 -0.984375 0.34375q-1.03125 0.40625 -1.53125 0.84375q-0.5 0.4375 -0.65625 0.84375q-0.15625 0.40625 -0.15625 0.765625zm9.830334 3.046875l0 -0.859375l1.78125 -0.34375q0.03125 -0.90625 0.03125 -1.953125q0.015625 -1.0625 0.015625 -1.890625l0 -1.140625q0 -0.984375 -0.015625 -1.625q0 -0.65625 -0.046875 -1.375l-1.90625 -0.21875l0 -0.8437519l3.359375 -1.46875l0.359375 0.25l0.203125 1.921875q0.875 -0.96875 2.03125 -1.5625q1.15625 -0.609375 2.265625 -0.609375q1.5468826 0 2.2968826 1.046875q0.765625 1.046875 0.765625 3.406252l0 2.21875q0 0.828125 0.015625 1.890625q0.015625 1.046875 0.03125 1.953125l1.6875 0.34375l0 0.859375l-5.5781326 0l0 -0.859375l1.78125 -0.34375q0.03125 -0.890625 0.03125 -1.953125q0.015625 -1.0625 0.015625 -1.890625l0 -2.03125q0 -1.65625 -0.46875 -2.28125q-0.46875 -0.6250019 -1.515625 -0.6250019q-0.828125 0 -1.59375 0.34375q-0.765625 0.3281269 -1.671875 1.0937519l0 3.5q0 0.796875 0 1.875q0.015625 1.0625 0.046875 1.96875l1.65625 0.34375l0 0.859375l-5.578125 0z" fill-rule="nonzero"/><path fill="#3d85c6" d="m84.19956 32.212452l-0.1875 -0.8906269q0.609375 -0.484375 1.1875 -0.75q0.59375 -0.28125 1.375 -0.40625q0.796875 -0.125 2.046875 -0.125l8.40625 0l0.09375 1.734375l-3.09375 -0.09375l0.1875 6.406252q0.046875 1.203125 0.40625 1.609375q0.359375 0.40625 1.0625 0.40625q0.234375 0 0.515625 -0.0625q0.296875 -0.0625 0.53125 -0.15625l0.203125 0.609375q-0.4375 0.640625 -0.9375 0.953125q-0.484375 0.3125 -1.203125 0.3125q-1.25 0 -1.84375 -0.734375q-0.578125 -0.734375 -0.578125 -2.21875q0 -1.484375 0.078125 -3.390625q0.078125 -1.90625 0.1875 -3.765627l-3.875 0q-0.015625 1.8281269 -0.0625 3.656252q-0.03125 1.828125 -0.15625 3.578125q-0.109375 1.53125 -0.734375 2.203125q-0.625 0.671875 -1.6875 0.671875q-0.640625 0 -1.046875 -0.328125q-0.40625 -0.328125 -0.40625 -0.875q0 -0.421875 0.125 -0.671875q0.140625 -0.265625 0.375 -0.453125q0.90625 -0.171875 2.109375 -0.28125q0.1875 -1.859375 0.265625 -3.71875q0.09375 -1.859375 0.140625 -3.734377l-3.484375 0.5156269z" fill-rule="nonzero"/><path fill="#3d85c6" d="m98.337776 49.962452l0.296875 -2.265625l0.921875 0l0.1875 2.0q0.65625 0.1875 1.359375 0.1875q1.203125 0 1.765625 -0.53125q0.578125 -0.546875 0.578125 -1.390625q0 -0.359375 -0.109375 -0.6875q-0.109375 -0.34375 -0.46875 -0.75q-0.34375 -0.421875 -1.0625 -0.953125q-0.8125 -0.625 -1.265625 -1.15625q-0.453125 -0.53125 -0.625 -1.015625q-0.171875 -0.484375 -0.171875 -0.984375q0 -0.84375 0.4375 -1.5q0.453125 -0.671875 1.25 -1.046875q0.796875 -0.375 1.796875 -0.375q0.65625 0 1.3125 0.15625q0.671875 0.15625 1.34375 0.5625l-0.359375 2.234375l-0.953125 0l-0.09375 -1.96875q-0.3125 -0.125 -0.5625 -0.15625q-0.25 -0.03125 -0.5 -0.03125q-1.15625 0 -1.8125 0.4375q-0.640625 0.4375 -0.640625 1.328125q0 0.640625 0.359375 1.171875q0.359375 0.515625 1.203125 1.171875q0.90625 0.703125 1.375 1.25q0.484375 0.546875 0.65625 1.015625q0.171875 0.453125 0.171875 0.953125q0 0.921875 -0.453125 1.609375q-0.4375 0.6875 -1.234375 1.078125q-0.796875 0.375 -1.875 0.375q-0.71875 0 -1.515625 -0.1875q-0.796875 -0.1875 -1.3125 -0.53125z" fill-rule="nonzero"/><path fill="#000000" fill-opacity="0.0" d="m3.453661 305.95383l121.85827 0l0 48.472443l-121.85827 0z" fill-rule="evenodd"/><path fill="#000000" d="m27.11064 343.72818l0 -0.84375l1.921875 -0.328125q0.015625 -0.984375 0.03125 -1.96875q0.015625 -0.96875 0.015625 -1.921875l0 -6.859375q0 -0.984375 -0.015625 -1.625q-0.015625 -0.65625 -0.0625 -1.375l-1.890625 -0.21875l0 -0.84375l3.359375 -1.46875l0.359375 0.25l0.140625 1.5625q1.7031231 -1.8125 3.624998 -1.8125q1.296875 0 2.328125 0.734375q1.03125 0.71875 1.640625 2.046875q0.609375 1.328125 0.609375 3.203125q0 1.84375 -0.65625 3.203125q-0.640625 1.359375 -1.75 2.109375q-1.109375 0.734375 -2.53125 0.734375q-0.8125 0 -1.625 -0.328125q-0.7968731 -0.34375 -1.5624981 -1.234375l0 1.890625q0 0.96875 0 1.9375q0.015625 0.96875 0.046875 1.953125l2.187498 0.359375l0 0.84375l-6.171873 0zm6.906248 -16.078125q-0.546875 0 -1.265625 0.28125q-0.71875 0.265625 -1.6406231 1.03125l0 6.75q0.671875 0.65625 1.3124981 0.9375q0.65625 0.28125 1.328125 0.28125q1.34375 0 2.296875 -1.078125q0.96875 -1.078125 0.96875 -3.40625q0 -2.296875 -0.84375 -3.546875q-0.828125 -1.25 -2.15625 -1.25zm6.595703 10.34375l0 -0.859375l1.921875 -0.34375q0.03125 -0.984375 0.03125 -1.921875q0.015625 -0.953125 0.015625 -1.921875l0 -10.53125l-1.96875 -0.234375l0 -0.84375l3.75 -1.078125l0.34375 0.1875l-0.109375 3.40625l0 9.09375q0 0.96875 0.015625 1.9375q0.015625 0.953125 0.03125 1.90625l1.921875 0.34375l0 0.859375l-5.953125 0zm16.302597 0.234375q-0.859375 0 -1.4375 -0.5q-0.578125 -0.5 -0.71875 -1.34375q-0.984375 0.96875 -1.734375 1.453125q-0.734375 0.46875 -1.796875 0.46875q-1.328125 0 -2.28125 -0.75q-0.9375 -0.765625 -0.9375 -2.25q0 -0.703125 0.328125 -1.296875q0.328125 -0.59375 1.1875 -1.171875q0.859375 -0.578125 2.46875 -1.15625q0.546875 -0.1875 1.265625 -0.40625q0.734375 -0.21875 1.453125 -0.390625l0 -0.59375q0 -1.75 -0.53125 -2.328125q-0.53125 -0.578125 -1.734375 -0.578125q-0.265625 0 -0.59375 0.03125q-0.3125 0.015625 -0.703125 0.109375l-0.453125 1.5625q-0.328125 1.15625 -1.25 1.15625q-1.0 0 -1.125 -0.984375q0.34375 -1.375 1.59375 -2.171875q1.265625 -0.8125 3.09375 -0.8125q1.890625 0 2.796875 0.953125q0.921875 0.953125 0.921875 3.234375l0 5.109375q0 0.765625 0.234375 1.09375q0.234375 0.3125 0.625 0.3125q0.3125 0 0.53125 -0.140625q0.21875 -0.140625 0.40625 -0.375l0.484375 0.515625q-0.4375 0.703125 -0.953125 0.984375q-0.515625 0.265625 -1.140625 0.265625zm-6.765625 -3.28125q0 0.953125 0.546875 1.375q0.546875 0.40625 1.375 0.40625q0.359375 0 0.671875 -0.09375q0.328125 -0.109375 0.78125 -0.375q0.46875 -0.28125 1.1875 -0.8125l0 -3.671875q-0.625 0.171875 -1.234375 0.375q-0.59375 0.203125 -0.984375 0.34375q-1.03125 0.40625 -1.53125 0.84375q-0.5 0.4375 -0.65625 0.84375q-0.15625 0.40625 -0.15625 0.765625zm9.830338 3.046875l0 -0.859375l1.78125 -0.34375q0.03125 -0.90625 0.03125 -1.953125q0.015625 -1.0625 0.015625 -1.890625l0 -1.140625q0 -0.984375 -0.015625 -1.625q0 -0.65625 -0.046875 -1.375l-1.90625 -0.21875l0 -0.84375l3.359375 -1.46875l0.359375 0.25l0.203125 1.921875q0.8750038 -0.96875 2.0312538 -1.5625q1.15625 -0.609375 2.265625 -0.609375q1.546875 0 2.296875 1.046875q0.765625 1.046875 0.765625 3.40625l0 2.21875q0 0.828125 0.015625 1.890625q0.015625 1.046875 0.03125 1.953125l1.6875 0.34375l0 0.859375l-5.578125 0l0 -0.859375l1.78125 -0.34375q0.03125 -0.890625 0.03125 -1.953125q0.015625 -1.0625 0.015625 -1.890625l0 -2.03125q0 -1.65625 -0.46875 -2.28125q-0.46875 -0.625 -1.515625 -0.625q-0.828125 0 -1.59375 0.34375q-0.765625 0.328125 -1.6718788 1.09375l0 3.5q0 0.796875 0 1.875q0.015625 1.0625 0.046875 1.96875l1.6562538 0.34375l0 0.859375l-5.578129 0z" fill-rule="nonzero"/><path fill="#bf9000" d="m79.803345 328.75943l-0.1875 -0.890625q0.609375 -0.484375 1.1875 -0.75q0.59375 -0.28125 1.375 -0.40625q0.796875 -0.125 2.046875 -0.125l8.40625 0l0.09375 1.734375l-3.09375 -0.09375l0.1875 6.40625q0.046875 1.203125 0.40625 1.609375q0.359375 0.40625 1.0625 0.40625q0.234375 0 0.515625 -0.0625q0.296875 -0.0625 0.53125 -0.15625l0.203125 0.609375q-0.4375 0.640625 -0.9375 0.953125q-0.484375 0.3125 -1.203125 0.3125q-1.25 0 -1.84375 -0.734375q-0.578125 -0.734375 -0.578125 -2.21875q0 -1.484375 0.078125 -3.390625q0.078125 -1.90625 0.1875 -3.765625l-3.875 0q-0.015625 1.828125 -0.0625 3.65625q-0.03125 1.828125 -0.15625 3.578125q-0.109375 1.53125 -0.734375 2.203125q-0.625 0.671875 -1.6875 0.671875q-0.640625 0 -1.046875 -0.328125q-0.40625 -0.328125 -0.40625 -0.875q0 -0.421875 0.125 -0.671875q0.140625 -0.265625 0.375 -0.453125q0.90625 -0.171875 2.109375 -0.28125q0.1875 -1.859375 0.265625 -3.71875q0.09375 -1.859375 0.140625 -3.734375l-3.484375 0.515625z" fill-rule="nonzero"/><path fill="#bf9000" d="m94.613434 339.13443l0.578125 -2.859375l8.34375 0l-0.453125 2.859375l-0.828125 0l0 -2.046875l-2.296875 0l-0.9375 4.953125q-0.375 2.0625 -0.71875 4.125l1.625 0.1875l-0.125 0.640625l-4.5625 0l0.125 -0.640625l1.546875 -0.171875l0.9375 -4.953125q0.1875 -1.03125 0.375 -2.0625q0.1875 -1.046875 0.34375 -2.078125l-2.40625 0l-0.734375 2.046875l-0.8125 0z" fill-rule="nonzero"/><path fill="#000000" fill-opacity="0.0" d="m68.179016 57.879265l-3.8110275 248.06299" fill-rule="evenodd"/><path stroke="#000000" stroke-width="1.0" stroke-linejoin="round" stroke-linecap="butt" d="m68.17901 57.879265l-3.7188568 242.06369" fill-rule="evenodd"/><path fill="#000000" stroke="#000000" stroke-width="1.0" stroke-linecap="butt" d="m62.808617 299.9176l1.5818253 4.5629272l1.7212524 -4.5121765z" fill-rule="evenodd"/><path fill="#000000" fill-opacity="0.0" d="m-6.0940123 160.97072l82.01575 0l0 31.02362l-82.01575 0z" fill-rule="evenodd"/><path fill="#000000" d="m20.111454 179.18672l0 -1.34375l7.59375 -20.21875l2.015625 0l7.546875 20.21875l0 1.34375l-17.15625 0zm2.015625 -2.59375l11.53125 0l-5.734375 -15.515625l-5.796875 15.515625z" fill-rule="nonzero"/><path fill="#000000" d="m39.132862 177.7961l0 -0.875l10.625 0l0.140625 3.765625l-1.203125 0l-0.46875 -2.703125l-5.015625 0q-0.03125 1.359375 -0.046875 2.734375q0 1.359375 0 2.6875l3.3125 0l0.296875 -2.03125l0.984375 0l0 5.25l-0.984375 0l-0.296875 -2.21875l-3.3125 0q0 1.578125 0 2.96875q0.015625 1.375 0.046875 2.703125l1.984375 0.234375l0 0.875l-6.0625 0l0 -0.875l1.96875 -0.234375q0.03125 -1.34375 0.03125 -2.71875q0 -1.390625 0 -2.78125l0 -1.046875q0 -1.390625 0 -2.765625q0 -1.375 -0.03125 -2.734375l-1.96875 -0.234375z" fill-rule="nonzero"/><path fill="#000000" fill-opacity="0.0" d="m64.37589 252.06999l116.661415 0l0 48.472458l-116.661415 0z" fill-rule="evenodd"/><path fill="#999999" d="m89.32902 275.3756q0 2.890625 -1.0625 4.84375q-1.046875 1.9375 -3.046875 2.921875q-2.0 0.96875 -4.84375 0.96875l-4.65625 0l0 -17.140625l5.171875 0q2.609375 0 4.5 0.96875q1.890625 0.953125 2.90625 2.828125q1.03125 1.859375 1.03125 4.609375zm-2.09375 0.078125q0 -2.3125 -0.78125 -3.8125q-0.765625 -1.5 -2.25 -2.234375q-1.46875 -0.734375 -3.625 -0.734375l-2.859375 0l0 13.71875l2.421875 0q3.53125 0 5.3125 -1.734375q1.78125 -1.75 1.78125 -5.203125z" fill-rule="nonzero"/><path fill="#999999" d="m92.008705 285.2506l0.578125 -2.859375l8.34375 0l-0.453125 2.859375l-0.828125 0l0 -2.046875l-2.296875 0l-0.9375 4.953125q-0.375 2.0625 -0.71875 4.125l1.625 0.1875l-0.125 0.640625l-4.5625 0l0.125 -0.640625l1.546875 -0.171875l0.9375 -4.953125q0.1875 -1.03125 0.375 -2.0625q0.1875 -1.046875 0.34375 -2.078125l-2.40625 0l-0.734375 2.046875l-0.8125 0z" fill-rule="nonzero"/><path fill="#999999" d="m100.8471 278.8756l0 -1.578125l5.578125 0l0 1.578125l-5.578125 0z" fill-rule="nonzero"/><path fill="#999999" d="m119.397575 279.5475q0 1.53125 -0.765625 2.609375q-0.75 1.0625 -2.109375 1.625q-1.359375 0.5625 -3.203125 0.5625q-0.96875 0 -1.84375 -0.09375q-0.859375 -0.09375 -1.59375 -0.265625q-0.71875 -0.1875 -1.265625 -0.4375l0 -1.90625q0.875 0.359375 2.140625 0.671875q1.265625 0.3125 2.65625 0.3125q1.28125 0 2.171875 -0.34375q0.890625 -0.359375 1.34375 -1.0q0.46875 -0.65625 0.46875 -1.5625q0 -0.890625 -0.390625 -1.46875q-0.375 -0.59375 -1.28125 -1.078125q-0.890625 -0.5 -2.4375 -1.046875q-1.09375 -0.390625 -1.921875 -0.84375q-0.828125 -0.46875 -1.390625 -1.046875q-0.5625 -0.59375 -0.859375 -1.359375q-0.28125 -0.78125 -0.28125 -1.78125q0 -1.359375 0.6875 -2.34375q0.703125 -0.984375 1.9375 -1.5q1.25 -0.515625 2.84375 -0.515625q1.375 0 2.53125 0.265625q1.171875 0.25 2.15625 0.671875l-0.625 1.71875q-0.921875 -0.390625 -1.96875 -0.640625q-1.03125 -0.265625 -2.140625 -0.265625q-1.09375 0 -1.859375 0.328125q-0.75 0.3125 -1.15625 0.90625q-0.390625 0.578125 -0.390625 1.390625q0 0.90625 0.375 1.5q0.390625 0.59375 1.21875 1.0625q0.84375 0.46875 2.234375 0.96875q1.5 0.546875 2.546875 1.171875q1.0625 0.609375 1.609375 1.5q0.5625 0.875 0.5625 2.234375zm8.144531 -8.515625q1.6406326 0 2.8125076 0.734375q1.171875 0.71875 1.78125 2.03125q0.625 1.296875 0.625 3.046875l0 1.203125l-8.859383 0q0.03125 2.265625 1.109375 3.453125q1.09375 1.171875 3.0781326 1.171875q1.21875 0 2.15625 -0.21875q0.9375 -0.21875 1.953125 -0.65625l0 1.71875q-0.984375 0.421875 -1.9375 0.625q-0.953125 0.203125 -2.25 0.203125q-1.8593826 0 -3.2343826 -0.75q-1.375 -0.765625 -2.140625 -2.21875q-0.75 -1.46875 -0.75 -3.59375q0 -2.078125 0.6875 -3.59375q0.703125 -1.515625 1.96875 -2.328125q1.28125 -0.828125 3.0 -0.828125zm-0.03125 1.59375q-1.546875 0 -2.484375 1.015625q-0.921875 1.015625 -1.09375 2.84375l6.7968826 0q-0.015625 -1.140625 -0.359375 -2.015625q-0.34375 -0.875 -1.046875 -1.359375q-0.703125 -0.484375 -1.8125076 -0.484375zm12.710945 10.125q0.484375 0 0.984375 -0.078125q0.5 -0.09375 0.8125 -0.203125l0 1.515625q-0.328125 0.15625 -0.9375 0.25q-0.609375 0.109375 -1.171875 0.109375q-1.03125 0 -1.859375 -0.359375q-0.828125 -0.359375 -1.328125 -1.203125q-0.5 -0.859375 -0.5 -2.375l0 -7.625l-1.828125 0l0 -0.9375l1.84375 -0.765625l0.765625 -2.796875l1.171875 0l0 2.984375l3.765625 0l0 1.515625l-3.765625 0l0 7.5625q0 1.203125 0.5625 1.8125q0.5625 0.59375 1.484375 0.59375z" fill-rule="nonzero"/><path fill="#000000" fill-opacity="0.0" d="m64.37589 66.57389l116.661415 0l0 48.472443l-116.661415 0z" fill-rule="evenodd"/><path fill="#999999" d="m89.32902 89.87952q0 2.890625 -1.0625 4.84375q-1.046875 1.9375 -3.046875 2.921875q-2.0 0.96875 -4.84375 0.96875l-4.65625 0l0 -17.140625l5.171875 0q2.609375 0 4.5 0.96875q1.890625 0.953125 2.90625 2.828125q1.03125 1.859375 1.03125 4.609375zm-2.09375 0.078125q0 -2.3125 -0.78125 -3.8125q-0.765625 -1.5 -2.25 -2.234375q-1.46875 -0.734375 -3.625 -0.734375l-2.859375 0l0 13.71875l2.421875 0q3.53125 0 5.3125 -1.734375q1.78125 -1.75 1.78125 -5.203125z" fill-rule="nonzero"/><path fill="#999999" d="m91.33683 107.12952l0.296875 -2.265625l0.921875 0l0.1875 2.0q0.65625 0.1875 1.359375 0.1875q1.203125 0 1.765625 -0.53125q0.578125 -0.546875 0.578125 -1.390625q0 -0.359375 -0.109375 -0.6875q-0.109375 -0.34375 -0.46875 -0.75q-0.34375 -0.421875 -1.0625 -0.953125q-0.8125 -0.625 -1.265625 -1.15625q-0.453125 -0.53125 -0.625 -1.015625q-0.171875 -0.484375 -0.171875 -0.984375q0 -0.84375 0.4375 -1.5q0.453125 -0.671875 1.25 -1.046875q0.796875 -0.375 1.796875 -0.375q0.65625 0 1.3125 0.15625q0.671875 0.15625 1.34375 0.5625l-0.359375 2.234375l-0.953125 0l-0.09375 -1.96875q-0.3125 -0.125 -0.5625 -0.15625q-0.25 -0.03125 -0.5 -0.03125q-1.15625 0 -1.8125 0.4375q-0.640625 0.4375 -0.640625 1.328125q0 0.640625 0.359375 1.171875q0.359375 0.515625 1.203125 1.171875q0.90625 0.703125 1.375 1.25q0.484375 0.546875 0.65625 1.015625q0.171875 0.453125 0.171875 0.953125q0 0.921875 -0.453125 1.609375q-0.4375 0.6875 -1.234375 1.078125q-0.796875 0.375 -1.875 0.375q-0.71875 0 -1.515625 -0.1875q-0.796875 -0.1875 -1.3125 -0.53125z" fill-rule="nonzero"/><path fill="#999999" d="m99.6471 93.37952l0 -1.578125l5.578125 0l0 1.578125l-5.578125 0z" fill-rule="nonzero"/><path fill="#999999" d="m118.19758 94.05139q0 1.53125 -0.765625 2.609375q-0.75 1.0625 -2.109375 1.625q-1.359375 0.5625 -3.203125 0.5625q-0.96875 0 -1.84375 -0.09375q-0.859375 -0.09375 -1.59375 -0.265625q-0.71875 -0.1875 -1.265625 -0.4375l0 -1.90625q0.875 0.359375 2.140625 0.671875q1.265625 0.3125 2.65625 0.3125q1.28125 0 2.171875 -0.34375q0.890625 -0.359375 1.34375 -1.0q0.46875 -0.65625 0.46875 -1.5625q0 -0.890625 -0.390625 -1.46875q-0.375 -0.59375 -1.28125 -1.078125q-0.890625 -0.5 -2.4375 -1.046875q-1.09375 -0.390625 -1.921875 -0.84375q-0.828125 -0.46875 -1.390625 -1.046875q-0.5625 -0.59375 -0.859375 -1.359375q-0.28125 -0.78125 -0.28125 -1.78125q0 -1.359375 0.6875 -2.34375q0.703125 -0.984375 1.9375 -1.5q1.25 -0.515625 2.84375 -0.515625q1.375 0 2.53125 0.265625q1.171875 0.25 2.15625 0.671875l-0.625 1.71875q-0.921875 -0.390625 -1.96875 -0.640625q-1.03125 -0.265625 -2.140625 -0.265625q-1.09375 0 -1.859375 0.328125q-0.75 0.3125 -1.15625 0.90625q-0.390625 0.578125 -0.390625 1.390625q0 0.90625 0.375 1.5q0.390625 0.59375 1.21875 1.0625q0.84375 0.46875 2.234375 0.96875q1.5 0.546875 2.546875 1.171875q1.0625 0.609375 1.609375 1.5q0.5625 0.875 0.5625 2.234375zm8.144531 -8.515625q1.640625 0 2.8125076 0.734375q1.171875 0.71875 1.78125 2.03125q0.625 1.296875 0.625 3.046875l0 1.203125l-8.859383 0q0.03125 2.265625 1.109375 3.453125q1.09375 1.171875 3.078125 1.171875q1.2187576 0 2.1562576 -0.21875q0.9375 -0.21875 1.953125 -0.65625l0 1.71875q-0.984375 0.421875 -1.9375 0.625q-0.953125 0.203125 -2.2500076 0.203125q-1.859375 0 -3.234375 -0.75q-1.375 -0.765625 -2.140625 -2.21875q-0.75 -1.46875 -0.75 -3.59375q0 -2.078125 0.6875 -3.59375q0.703125 -1.515625 1.96875 -2.328125q1.28125 -0.828125 3.0 -0.828125zm-0.03125 1.59375q-1.546875 0 -2.484375 1.015625q-0.921875 1.015625 -1.09375 2.84375l6.7968826 0q-0.015625 -1.140625 -0.359375 -2.015625q-0.34375 -0.875 -1.046875 -1.359375q-0.7031326 -0.484375 -1.8125076 -0.484375zm12.710945 10.125q0.484375 0 0.984375 -0.078125q0.5 -0.09375 0.8125 -0.203125l0 1.515625q-0.328125 0.15625 -0.9375 0.25q-0.609375 0.109375 -1.171875 0.109375q-1.03125 0 -1.859375 -0.359375q-0.828125 -0.359375 -1.328125 -1.203125q-0.5 -0.859375 -0.5 -2.375l0 -7.625l-1.828125 0l0 -0.9375l1.84375 -0.765625l0.765625 -2.796875l1.171875 0l0 2.984375l3.765625 0l0 1.515625l-3.765625 0l0 7.5625q0 1.203125 0.5625 1.8125q0.5625 0.59375 1.484375 0.59375z" fill-rule="nonzero"/></g></svg>