<svg version="1.1" viewBox="0.0 0.0 677.3753280839895 222.76377952755905" fill="none" stroke="none" stroke-linecap="square" stroke-miterlimit="10" xmlns:xlink="http://www.w3.org/1999/xlink" xmlns="http://www.w3.org/2000/svg"><clipPath id="p.0"><path d="m0 0l677.3753 0l0 222.76378l-677.3753 0l0 -222.76378z" clip-rule="nonzero"/></clipPath><g clip-path="url(#p.0)"><path fill="#000000" fill-opacity="0.0" d="m0 0l677.3753 0l0 222.76378l-677.3753 0z" fill-rule="evenodd"/><path fill="#000000" fill-opacity="0.0" d="m595.68243 91.03412l9.51178 0l0 11.716537l-9.51178 0z" fill-rule="evenodd"/><path fill="#000000" fill-opacity="0.0" d="m605.1942 91.03412l9.511841 0l0 11.716537l-9.511841 0z" fill-rule="evenodd"/><path fill="#000000" fill-opacity="0.0" d="m348.04987 91.03412l9.51181 0l0 11.716537l-9.51181 0z" fill-rule="evenodd"/><path fill="#000000" fill-opacity="0.0" d="m357.56168 91.03412l9.51181 0l0 11.716537l-9.51181 0z" fill-rule="evenodd"/><path fill="#000000" fill-opacity="0.0" d="m109.47244 91.03412l9.51181 0l0 11.716537l-9.51181 0z" fill-rule="evenodd"/><path fill="#000000" fill-opacity="0.0" d="m118.98425 91.03412l9.51181 0l0 11.716537l-9.51181 0z" fill-rule="evenodd"/><path fill="#ffffff" d="m12.6692915 52.85302l160.72441 0l0 141.32285l-160.72441 0z" fill-rule="evenodd"/><path stroke="#000000" stroke-width="2.0" stroke-linejoin="round" stroke-linecap="butt" stroke-dasharray="8.0,6.0" d="m12.6692915 52.85302l160.72441 0l0 141.32285l-160.72441 0z" fill-rule="evenodd"/><path fill="#ffffff" d="m254.73491 52.85302l160.72441 0l0 141.32285l-160.72441 0z" fill-rule="evenodd"/><path stroke="#000000" stroke-width="2.0" stroke-linejoin="round" stroke-linecap="butt" stroke-dasharray="8.0,6.0" d="m254.73491 52.85302l160.72441 0l0 141.32285l-160.72441 0z" fill-rule="evenodd"/><path fill="#ffffff" d="m496.80054 52.85302l160.72443 0l0 141.32285l-160.72443 0z" fill-rule="evenodd"/><path stroke="#000000" stroke-width="2.0" stroke-linejoin="round" stroke-linecap="butt" stroke-dasharray="8.0,6.0" d="m496.80054 52.85302l160.72443 0l0 141.32285l-160.72443 0z" fill-rule="evenodd"/><path fill="#0000ff" d="m109.47244 105.03412l8.141731 -16.283463l8.141731 16.283463z" fill-rule="evenodd"/><path fill="#159c00" d="m75.57218 121.34908l16.283463 0l0 16.28347l-16.283463 0z" fill-rule="evenodd"/><path fill="#000000" fill-opacity="0.0" d="m91.855644 129.49081l17.6063 -24.440948" fill-rule="evenodd"/><path stroke="#000000" stroke-width="2.0" stroke-linejoin="round" stroke-linecap="butt" d="m91.855644 129.49081l10.592323 -14.704201" fill-rule="evenodd"/><path fill="#000000" stroke="#000000" stroke-width="2.0" stroke-linecap="butt" d="m105.12839 116.71748l2.6245956 -9.29525l-7.985428 5.4335175z" fill-rule="evenodd"/><path fill="#9900ff" d="m141.4042 129.49081l0 0c0 -4.4965515 3.645172 -8.141731 8.141724 -8.141731l0 0c2.159317 0 4.2302094 0.8577881 5.75708 2.3846588c1.5268707 1.5268707 2.3846588 3.5977478 2.3846588 5.7570724l0 0c0 4.4965515 -3.6451874 8.141739 -8.141739 8.141739l0 0c-4.4965515 0 -8.141724 -3.6451874 -8.141724 -8.141739z" fill-rule="evenodd"/><path fill="#000000" fill-opacity="0.0" d="m143.78886 123.73374l-20.062996 -20.97638" fill-rule="evenodd"/><path stroke="#000000" stroke-width="2.0" stroke-linejoin="round" stroke-linecap="butt" d="m143.78886 123.73374l-11.768631 -12.30439" fill-rule="evenodd"/><path fill="#000000" stroke="#000000" stroke-width="2.0" stroke-linecap="butt" d="m134.40755 109.145996l-8.660751 -4.2757034l3.886139 8.8424z" fill-rule="evenodd"/><path fill="#0000ff" d="m348.04987 105.03412l8.141724 -16.283463l8.141754 16.283463z" fill-rule="evenodd"/><path fill="#159c00" d="m314.1496 121.34908l16.283478 0l0 16.28347l-16.283478 0z" fill-rule="evenodd"/><path fill="#000000" fill-opacity="0.0" d="m330.43307 129.49081l17.606293 -24.440948" fill-rule="evenodd"/><path stroke="#000000" stroke-width="2.0" stroke-linejoin="round" stroke-linecap="butt" d="m330.43307 129.49081l10.592346 -14.704201" fill-rule="evenodd"/><path fill="#000000" stroke="#000000" stroke-width="2.0" stroke-linecap="butt" d="m343.7058 116.71748l2.6246033 -9.29525l-7.985443 5.4335175z" fill-rule="evenodd"/><path fill="#0000ff" d="m595.68243 105.03412l8.141724 -16.283463l8.141724 16.283463z" fill-rule="evenodd"/><path fill="#159c00" d="m561.78217 121.34908l16.283447 0l0 16.28347l-16.283447 0z" fill-rule="evenodd"/><path fill="#000000" fill-opacity="0.0" d="m578.0656 129.49081l17.606323 -24.440948" fill-rule="evenodd"/><path stroke="#000000" stroke-width="2.0" stroke-linejoin="round" stroke-linecap="butt" d="m578.0656 129.49081l10.592346 -14.704201" fill-rule="evenodd"/><path fill="#000000" stroke="#000000" stroke-width="2.0" stroke-linecap="butt" d="m591.3384 116.71748l2.6245728 -9.29525l-7.9854126 5.4335175z" fill-rule="evenodd"/><path fill="#ffd300" d="m627.6142 137.63255l4.070862 -16.28347l8.141724 0l4.070862 16.28347z" fill-rule="evenodd"/><path fill="#000000" fill-opacity="0.0" d="m629.6496 129.49081l-19.685059 -26.740158" fill-rule="evenodd"/><path stroke="#000000" stroke-width="2.0" stroke-linejoin="round" stroke-linecap="butt" d="m629.6496 129.49081l-12.570923 -17.07634" fill-rule="evenodd"/><path fill="#000000" stroke="#000000" stroke-width="2.0" stroke-linecap="butt" d="m619.739 110.45604l-8.041077 -5.350792l2.720398 9.267662z" fill-rule="evenodd"/><path fill="#000000" fill-opacity="0.0" d="m254.73491 123.514435l-81.354324 0" fill-rule="evenodd"/><path stroke="#000000" stroke-width="2.0" stroke-linejoin="round" stroke-linecap="butt" stroke-dasharray="8.0,6.0" d="m254.73491 123.514435l-74.50017 0" fill-rule="evenodd"/><path fill="#000000" stroke="#000000" stroke-width="2.0" stroke-linecap="butt" d="m180.23476 123.514435l2.2491608 -2.2491684l-6.179535 2.2491684l6.179535 2.2491684z" fill-rule="evenodd"/><path fill="#000000" fill-opacity="0.0" d="m415.45932 123.514435l81.35434 0" fill-rule="evenodd"/><path stroke="#000000" stroke-width="2.0" stroke-linejoin="round" stroke-linecap="butt" stroke-dasharray="8.0,6.0" d="m415.45932 123.514435l74.50015 0" fill-rule="evenodd"/><path fill="#000000" stroke="#000000" stroke-width="2.0" stroke-linecap="butt" d="m489.95947 123.514435l-2.249176 2.2491684l6.179535 -2.2491684l-6.179535 -2.2491684z" fill-rule="evenodd"/><path fill="#000000" fill-opacity="0.0" d="m20.82677 12.790027l144.40945 0l0 42.015747l-144.40945 0z" fill-rule="evenodd"/><path fill="#000000" d="m39.52426 39.710026l-2.75 0l2.796875 -13.359377l5.4375 0q1.453125 0 2.28125 0.34375q0.84375 0.34375 1.328125 1.140625q0.5 0.78125 0.5 1.875q0 1.015625 -0.390625 1.96875q-0.390625 0.9531269 -0.96875 1.5312519q-0.5625 0.5625 -1.21875 0.859375q-0.65625 0.296875 -1.765625 0.453125q-0.640625 0.09375 -2.421875 0.09375l-1.75 0l-1.078125 5.09375zm1.53125 -7.3125l0.84375 0q2.171875 0 2.90625 -0.265625q0.734375 -0.2812519 1.140625 -0.8750019q0.421875 -0.609375 0.421875 -1.328125q0 -0.46875 -0.21875 -0.78125q-0.203125 -0.3125 -0.59375 -0.453125q-0.390625 -0.140625 -1.71875 -0.140625l-1.96875 0l-0.8125 3.843752zm10.037323 -2.359377l2.4375 0l-0.390625 1.875q1.375 -2.109375 2.96875 -2.109375q0.5625 0 1.203125 0.28125l-1.0 2.140627q-0.359375 -0.125 -0.75 -0.125q-0.6875 0 -1.390625 0.515625q-0.6875 0.5 -1.078125 1.359375q-0.390625 0.859375 -0.765625 2.703125l-0.640625 3.03125l-2.625 0l2.03125 -9.671877zm14.807144 5.640627l-6.5625 0q-0.015625 0.15625 -0.015625 0.234375q0 0.96875 0.546875 1.5625q0.5625 0.59375 1.359375 0.59375q1.296875 0 2.03125 -1.34375l2.328125 0.390625q-0.671875 1.40625 -1.828125 2.125q-1.140625 0.703125 -2.5625 0.703125q-1.9375 0 -3.171875 -1.234375q-1.21875 -1.234375 -1.21875 -3.265625q0 -2.0 1.109375 -3.546877q1.5 -2.09375 4.296875 -2.09375q1.765625 0 2.8125 1.109375q1.046875 1.0937519 1.046875 3.062502q0 0.953125 -0.171875 1.703125zm-2.203125 -1.59375q0 -0.171875 0 -0.265625q0 -1.0625 -0.484375 -1.59375q-0.484375 -0.5468769 -1.296875 -0.5468769q-0.796875 0 -1.453125 0.6093769q-0.640625 0.609375 -0.859375 1.796875l4.09375 0zm9.719467 1.984375l2.53125 0.40625q-0.625 1.6875 -1.859375 2.578125q-1.21875 0.890625 -2.84375 0.890625q-1.859375 0 -2.9375 -1.109375q-1.078125 -1.109375 -1.078125 -3.03125q0 -1.578125 0.65625 -2.984375q0.65625 -1.4062519 1.96875 -2.203127q1.328125 -0.8125 2.90625 -0.8125q1.703125 0 2.71875 0.90625q1.03125 0.890625 1.15625 2.343752l-2.484375 0.265625q-0.09375 -0.8125 -0.5 -1.1875q-0.40625 -0.3906269 -1.0625 -0.3906269q-0.75 0 -1.40625 0.5625019q-0.65625 0.5625 -1.015625 1.6875q-0.34375 1.125 -0.34375 2.109375q0 0.859375 0.421875 1.328125q0.421875 0.453125 1.046875 0.453125q0.625 0 1.203125 -0.453125q0.59375 -0.453125 0.921875 -1.359375zm4.188217 -0.375q0 -2.6875 1.515625 -4.281252q1.515625 -1.609375 3.984375 -1.609375q2.1406326 0 3.3437576 1.1875q1.203125 1.1718769 1.203125 3.171877q0 2.34375 -1.5 4.0625q-1.5000076 1.71875 -4.0312576 1.71875q-1.359375 0 -2.421875 -0.546875q-1.046875 -0.546875 -1.578125 -1.546875q-0.515625 -1.015625 -0.515625 -2.15625zm7.4531326 -1.875q0 -0.921875 -0.5468826 -1.484375q-0.53125 -0.5625019 -1.390625 -0.5625019q-0.84375 0 -1.5 0.5312519q-0.65625 0.515625 -1.03125 1.515625q-0.359375 1.0 -0.359375 1.84375q0 1.03125 0.5625 1.640625q0.5625 0.609375 1.421875 0.609375q1.078125 0 1.8125 -0.921875q1.0312576 -1.296875 1.0312576 -3.171875zm5.630356 -3.781252l2.46875 0l-0.25 1.25q0.921875 -0.796875 1.71875 -1.140625q0.8125 -0.34375 1.71875 -0.34375q1.1875 0 1.875 0.6875q0.6875 0.6875 0.6875 1.8125019q0 0.515625 -0.296875 1.9375l-1.140625 5.46875l-2.609375 0l1.140625 -5.5q0.25 -1.21875 0.25 -1.453125q0 -0.5 -0.296875 -0.7812519q-0.296875 -0.296875 -0.8125 -0.296875q-0.578125 0 -1.28125 0.4843769q-0.703125 0.484375 -1.109375 1.265625q-0.28125 0.5625 -0.640625 2.3125l-0.84375 3.96875l-2.609375 0l2.03125 -9.671877zm18.27098 9.671877l-2.484375 0l0.21875 -1.046875q-0.703125 0.6875 -1.390625 0.984375q-0.6875 0.296875 -1.5625 0.296875q-1.5 0 -2.4375 -1.03125q-0.921875 -1.03125 -0.921875 -3.03125q0 -2.328125 1.296875 -4.203127q1.3125 -1.875 3.484375 -1.875q1.9375 0 2.921875 1.546875l1.046875 -5.0l2.609375 0l-2.78125 13.359377zm-6.046875 -3.9375q0 1.046875 0.515625 1.625q0.53125 0.578125 1.296875 0.578125q0.71875 0 1.328125 -0.484375q0.609375 -0.484375 0.984375 -1.484375q0.375 -1.0 0.375 -1.921875q0 -1.046875 -0.578125 -1.6875q-0.5625 -0.6562519 -1.296875 -0.6562519q-1.140625 0 -1.890625 1.2812519q-0.734375 1.265625 -0.734375 2.75zm11.286606 -9.421877l2.625 0l-0.5 2.375l-2.609375 0l0.484375 -2.375zm-0.765625 3.6875l2.625 0l-2.03125 9.671877l-2.609375 0l2.015625 -9.671877zm3.8239288 1.9375l0.390625 -1.9375l1.28125 0l0.3125 -1.546875l3.0 -1.8125l-0.703125 3.359375l1.59375 0l-0.390625 1.9375l-1.609375 0l-0.84375 4.046877q-0.234375 1.109375 -0.234375 1.265625q0 0.296875 0.1875 0.46875q0.203125 0.171875 0.703125 0.171875q0.171875 0 0.859375 -0.0625l-0.40625 1.9375q-0.671875 0.140625 -1.390625 0.140625q-1.375 0 -2.015625 -0.53125q-0.625 -0.546875 -0.625 -1.484375q0 -0.453125 0.34375 -2.0625l0.8125 -3.890627l-1.265625 0zm8.337677 -5.625l2.6249924 0l-0.49999237 2.375l-2.609375 0l0.484375 -2.375zm-0.765625 3.6875l2.625 0l-2.03125 9.671877l-2.609375 0l2.015625 -9.671877zm3.5426712 5.656252q0 -2.6875 1.515625 -4.281252q1.515625 -1.609375 3.984375 -1.609375q2.140625 0 3.34375 1.1875q1.203125 1.1718769 1.203125 3.171877q0 2.34375 -1.5 4.0625q-1.5 1.71875 -4.03125 1.71875q-1.359375 0 -2.421875 -0.546875q-1.046875 -0.546875 -1.578125 -1.546875q-0.515625 -1.015625 -0.515625 -2.15625zm7.453125 -1.875q0 -0.921875 -0.546875 -1.484375q-0.53125 -0.5625019 -1.390625 -0.5625019q-0.84375 0 -1.5 0.5312519q-0.65625 0.515625 -1.03125 1.515625q-0.359375 1.0 -0.359375 1.84375q0 1.03125 0.5625 1.640625q0.5625 0.609375 1.421875 0.609375q1.078125 0 1.8125 -0.921875q1.03125 -1.296875 1.03125 -3.171875zm5.630356 -3.781252l2.46875 0l-0.25 1.25q0.921875 -0.796875 1.71875 -1.140625q0.8125 -0.34375 1.71875 -0.34375q1.1875 0 1.875 0.6875q0.6875 0.6875 0.6875 1.8125019q0 0.515625 -0.296875 1.9375l-1.140625 5.46875l-2.609375 0l1.140625 -5.5q0.25 -1.21875 0.25 -1.453125q0 -0.5 -0.296875 -0.7812519q-0.296875 -0.296875 -0.8125 -0.296875q-0.578125 0 -1.28125 0.4843769q-0.703125 0.484375 -1.109375 1.265625q-0.28125 0.5625 -0.640625 2.3125l-0.84375 3.96875l-2.609375 0l2.03125 -9.671877z" fill-rule="nonzero"/><path fill="#000000" fill-opacity="0.0" d="m504.958 12.790027l144.40942 0l0 42.015747l-144.40942 0z" fill-rule="evenodd"/><path fill="#000000" d="m552.1805 39.710026l2.78125 -13.359377l9.90625 0l-0.46875 2.234375l-7.140625 0l-0.640625 3.03125l6.90625 0l-0.453125 2.234377l-6.921875 0l-0.828125 3.625l7.765625 0l-0.46875 2.234375l-10.4375 0zm19.162292 -9.671877l-0.390625 1.90625l-1.859375 0l-1.625 7.765627l-2.609375 0l1.625 -7.765627l-1.453125 0l0.390625 -1.90625l1.46875 0l0.203125 -1.0q0.25 -1.21875 0.484375 -1.640625q0.3125 -0.59375 0.921875 -0.921875q0.609375 -0.34375 1.609375 -0.34375q1.203125 0 2.53125 0.4375l-0.515625 1.859375q-0.9375 -0.3125 -1.515625 -0.3125q-0.453125 0 -0.671875 0.28125q-0.140625 0.1875 -0.296875 0.953125l-0.140625 0.6875l1.84375 0zm5.8754272 0l-0.390625 1.90625l-1.859375 0l-1.625 7.765627l-2.609375 0l1.625 -7.765627l-1.453125 0l0.390625 -1.90625l1.46875 0l0.203125 -1.0q0.25 -1.21875 0.484375 -1.640625q0.3125 -0.59375 0.921875 -0.921875q0.609375 -0.34375 1.609375 -0.34375q1.203125 0 2.53125 0.4375l-0.515625 1.859375q-0.9375 -0.3125 -1.515625 -0.3125q-0.453125 0 -0.671875 0.28125q-0.140625 0.1875 -0.296875 0.953125l-0.140625 0.6875l1.84375 0zm8.9002075 5.640627l-6.5625 0q-0.015625 0.15625 -0.015625 0.234375q0 0.96875 0.546875 1.5625q0.5625 0.59375 1.359375 0.59375q1.296875 0 2.03125 -1.34375l2.328125 0.390625q-0.671875 1.40625 -1.828125 2.125q-1.140625 0.703125 -2.5625 0.703125q-1.9375 0 -3.171875 -1.234375q-1.21875 -1.234375 -1.21875 -3.265625q0 -2.0 1.109375 -3.546877q1.5 -2.09375 4.296875 -2.09375q1.765625 0 2.8125 1.109375q1.046875 1.0937519 1.046875 3.062502q0 0.953125 -0.171875 1.703125zm-2.203125 -1.59375q0 -0.171875 0 -0.265625q0 -1.0625 -0.484375 -1.59375q-0.484375 -0.5468769 -1.296875 -0.5468769q-0.796875 0 -1.453125 0.6093769q-0.640625 0.609375 -0.859375 1.796875l4.09375 0zm9.719421 1.984375l2.53125 0.40625q-0.625 1.6875 -1.859375 2.578125q-1.21875 0.890625 -2.84375 0.890625q-1.859375 0 -2.9375 -1.109375q-1.078125 -1.109375 -1.078125 -3.03125q0 -1.578125 0.65625 -2.984375q0.65625 -1.4062519 1.96875 -2.203127q1.328125 -0.8125 2.90625 -0.8125q1.703125 0 2.71875 0.90625q1.03125 0.890625 1.15625 2.343752l-2.484375 0.265625q-0.09375 -0.8125 -0.5 -1.1875q-0.40625 -0.3906269 -1.0625 -0.3906269q-0.75 0 -1.40625 0.5625019q-0.65625 0.5625 -1.015625 1.6875q-0.34375 1.125 -0.34375 2.109375q0 0.859375 0.421875 1.328125q0.421875 0.453125 1.046875 0.453125q0.625 0 1.203125 -0.453125q0.59375 -0.453125 0.921875 -1.359375zm4.4694824 -4.093752l0.390625 -1.9375l1.28125 0l0.3125 -1.546875l3.0 -1.8125l-0.703125 3.359375l1.59375 0l-0.390625 1.9375l-1.609375 0l-0.84375 4.046877q-0.234375 1.109375 -0.234375 1.265625q0 0.296875 0.1875 0.46875q0.203125 0.171875 0.703125 0.171875q0.171875 0 0.859375 -0.0625l-0.40625 1.9375q-0.671875 0.140625 -1.390625 0.140625q-1.375 0 -2.015625 -0.53125q-0.625 -0.546875 -0.625 -1.484375q0 -0.453125 0.34375 -2.0625l0.8125 -3.890627l-1.265625 0z" fill-rule="nonzero"/><path fill="#000000" fill-opacity="0.0" d="m263.35434 12.790027l144.40945 0l0 42.015747l-144.40945 0z" fill-rule="evenodd"/><path fill="#000000" d="m323.02896 32.585026l5.96875 0l-1.203125 5.71875q-1.046875 0.6875 -2.59375 1.171875q-1.53125 0.46875 -3.125 0.46875q-2.484375 0 -3.796875 -1.125q-1.796875 -1.53125 -1.796875 -4.4375q0 -1.953125 0.765625 -3.734377q0.9375 -2.15625 2.640625 -3.328125q1.71875 -1.1875 4.03125 -1.1875q2.3125 0 3.703125 1.078125q1.40625 1.0625 1.859375 3.125l-2.5625 0.296875q-0.328125 -1.140625 -1.09375 -1.703125q-0.75 -0.578125 -1.875 -0.578125q-1.34375 0 -2.453125 0.703125q-1.109375 0.6875 -1.734375 2.140625q-0.625 1.4375019 -0.625 3.156252q0 1.671875 0.765625 2.484375q0.765625 0.8125 2.234375 0.8125q0.890625 0 1.8125 -0.25q0.9375 -0.25 1.609375 -0.609375l0.40625 -1.984375l-3.40625 0l0.46875 -2.21875zm7.042694 7.125l2.796875 -13.359377l2.59375 0l-2.78125 13.359377l-2.609375 0zm7.1989136 -9.671877l2.609375 0l-1.1875 5.734377q-0.21875 1.015625 -0.21875 1.28125q0 0.421875 0.3125 0.71875q0.3125 0.296875 0.796875 0.296875q0.34375 0 0.671875 -0.125q0.34375 -0.140625 0.6875 -0.40625q0.359375 -0.265625 0.640625 -0.609375q0.28125 -0.359375 0.53125 -0.921875q0.171875 -0.421875 0.375 -1.359375l0.96875 -4.609377l2.609375 0l-2.015625 9.671877l-2.4375 0l0.265625 -1.3125q-1.609375 1.546875 -3.484375 1.546875q-1.203125 0 -1.890625 -0.6875q-0.671875 -0.6875 -0.671875 -1.828125q0 -0.5 0.3125 -2.0l1.125 -5.390627zm18.817871 5.640627l-6.5625 0q-0.015625 0.15625 -0.015625 0.234375q0 0.96875 0.546875 1.5625q0.5625 0.59375 1.359375 0.59375q1.296875 0 2.03125 -1.34375l2.328125 0.390625q-0.671875 1.40625 -1.828125 2.125q-1.140625 0.703125 -2.5625 0.703125q-1.9375 0 -3.171875 -1.234375q-1.21875 -1.234375 -1.21875 -3.265625q0 -2.0 1.109375 -3.546877q1.5 -2.09375 4.296875 -2.09375q1.765625 0 2.8125 1.109375q1.046875 1.0937519 1.046875 3.062502q0 0.953125 -0.171875 1.703125zm-2.203125 -1.59375q0 -0.171875 0 -0.265625q0 -1.0625 -0.484375 -1.59375q-0.484375 -0.5468769 -1.296875 -0.5468769q-0.796875 0 -1.453125 0.6093769q-0.640625 0.609375 -0.859375 1.796875l4.09375 0z" fill-rule="nonzero"/><path fill="#000000" fill-opacity="0.0" d="m608.34906 96.46719c3.40094 0 7.380005 -5.5448074 6.80188 -11.091866c-0.578125 -5.547058 -5.71344 -11.096367 -10.846497 -11.091866c-5.1329956 0.004501343 -10.263733 5.562805 -10.846497 11.12336c-0.58270264 5.5605545 3.3825684 11.12336 6.7651367 11.12336" fill-rule="evenodd"/><path stroke="#000000" stroke-width="2.0" stroke-linejoin="round" stroke-linecap="butt" d="m615.2058 86.61907l0.0014038086 -0.2050476c-0.0018310547 -0.34532166 -0.020141602 -0.69200134 -0.056274414 -1.0386963c-0.578125 -5.547058 -5.71344 -11.096367 -10.846497 -11.091866c-5.1329956 0.004501343 -10.263733 5.562805 -10.846497 11.12336c-0.58270264 5.5605545 3.3826294 11.12336 6.7651367 11.12336" fill-rule="evenodd"/><path fill="#000000" stroke="#000000" stroke-width="2.0" stroke-linecap="butt" d="m612.4947 84.73149l-2.4749756 9.336205l7.897156 -5.5610504z" fill-rule="evenodd"/><path fill="#000000" fill-opacity="0.0" d="m360.23883 96.46719c3.40094 0 7.380005 -5.5448074 6.80188 -11.091866c-0.5781555 -5.547058 -5.7134705 -11.096367 -10.846497 -11.091866c-5.133026 0.004501343 -10.263763 5.562805 -10.846466 11.12336c-0.58273315 5.5605545 3.3825378 11.12336 6.765106 11.12336" fill-rule="evenodd"/><path stroke="#000000" stroke-width="2.0" stroke-linejoin="round" stroke-linecap="butt" d="m367.09555 86.61907l0.0014038086 -0.2050476c-0.0018005371 -0.34532166 -0.020141602 -0.69200134 -0.056274414 -1.0386963c-0.578125 -5.547058 -5.7134094 -11.096367 -10.846466 -11.091866c-5.133026 0.004501343 -10.263763 5.562805 -10.846497 11.12336c-0.58270264 5.5605545 3.3825989 11.12336 6.7651367 11.12336" fill-rule="evenodd"/><path fill="#000000" stroke="#000000" stroke-width="2.0" stroke-linecap="butt" d="m364.3845 84.73149l-2.475006 9.336205l7.897156 -5.5610504z" fill-rule="evenodd"/><path fill="#000000" fill-opacity="0.0" d="m122.097115 96.46719c3.4009247 0 7.379982 -5.5448074 6.801857 -11.091866c-0.57814026 -5.547058 -5.713455 -11.096367 -10.846489 -11.091866c-5.133026 0.004501343 -10.263756 5.562805 -10.846481 11.12336c-0.5827179 5.5605545 3.3825607 11.12336 6.765129 11.12336" fill-rule="evenodd"/><path stroke="#000000" stroke-width="2.0" stroke-linejoin="round" stroke-linecap="butt" d="m128.95383 86.61907l0.0013885498 -0.2050476c-0.0017852783 -0.34532166 -0.020111084 -0.69200134 -0.056243896 -1.0386963c-0.57814026 -5.547058 -5.713463 -11.096367 -10.846489 -11.091866c-5.133026 0.004501343 -10.263756 5.562805 -10.846474 11.12336c-0.58273315 5.5605545 3.382553 11.12336 6.7651215 11.12336" fill-rule="evenodd"/><path fill="#000000" stroke="#000000" stroke-width="2.0" stroke-linecap="butt" d="m126.24276 84.7315l-2.475006 9.336197l7.8971634 -5.561043z" fill-rule="evenodd"/><path fill="#ea9999" d="m83.71391 167.86876c3.3923874 -9.498688 16.622704 0 0 12.212601c-16.622704 -12.212601 -3.3923874 -21.711288 0 -12.212601z" fill-rule="evenodd"/><path fill="#000000" fill-opacity="0.0" d="m83.71391 137.63255l0 30.236206" fill-rule="evenodd"/><path stroke="#cccccc" stroke-width="2.0" stroke-linejoin="round" stroke-linecap="butt" d="m83.71391 137.63255l0 18.236206" fill-rule="evenodd"/><path fill="#cccccc" stroke="#cccccc" stroke-width="2.0" stroke-linecap="butt" d="m80.410446 155.86877l3.3034668 9.076187l3.3034592 -9.076187z" fill-rule="evenodd"/><path fill="#ea9999" d="m322.29135 167.86876c3.3923645 -9.498688 16.62268 0 0 12.212601c-16.622711 -12.212601 -3.392395 -21.711288 0 -12.212601z" fill-rule="evenodd"/><path fill="#000000" fill-opacity="0.0" d="m322.29135 137.63255l0 30.236206" fill-rule="evenodd"/><path stroke="#cccccc" stroke-width="2.0" stroke-linejoin="round" stroke-linecap="butt" d="m322.29135 137.63255l0 18.236206" fill-rule="evenodd"/><path fill="#cccccc" stroke="#cccccc" stroke-width="2.0" stroke-linecap="butt" d="m318.98788 155.86877l3.3034668 9.076187l3.3034668 -9.076187z" fill-rule="evenodd"/><path fill="#ea9999" d="m569.9239 167.86876c3.392395 -9.498688 16.62268 0 0 12.212601c-16.62268 -12.212601 -3.392395 -21.711288 0 -12.212601z" fill-rule="evenodd"/><path fill="#000000" fill-opacity="0.0" d="m569.9239 137.63255l0 30.236206" fill-rule="evenodd"/><path stroke="#cccccc" stroke-width="2.0" stroke-linejoin="round" stroke-linecap="butt" d="m569.9239 137.63255l0 18.236206" fill-rule="evenodd"/><path fill="#cccccc" stroke="#cccccc" stroke-width="2.0" stroke-linecap="butt" d="m566.6204 155.86877l3.3034668 9.076187l3.3034668 -9.076187z" fill-rule="evenodd"/></g></svg>