<svg version="1.1" viewBox="0.0 0.0 248.1758530183727 139.33333333333334" fill="none" stroke="none" stroke-linecap="square" stroke-miterlimit="10" xmlns:xlink="http://www.w3.org/1999/xlink" xmlns="http://www.w3.org/2000/svg"><clipPath id="p.0"><path d="m0 0l248.17586 0l0 139.33333l-248.17586 0l0 -139.33333z" clip-rule="nonzero"/></clipPath><g clip-path="url(#p.0)"><path fill="#000000" fill-opacity="0.0" d="m0 0l248.17586 0l0 139.33333l-248.17586 0z" fill-rule="evenodd"/><path fill="#ffffff" d="m94.573494 25.052608l0 0c0 -3.1659164 2.5664825 -5.732399 5.7323914 -5.732399l40.629692 0c1.5203247 0 2.9783936 0.6039486 4.053421 1.6789818c1.0750275 1.0750332 1.6789856 2.5330906 1.6789856 4.053417l0 22.928905c0 3.1659164 -2.5664825 5.732395 -5.7324066 5.732395l-40.629692 0c-3.1659088 0 -5.7323914 -2.5664787 -5.7323914 -5.732395z" fill-rule="evenodd"/><path stroke="#000000" stroke-width="4.0" stroke-linejoin="round" stroke-linecap="butt" d="m94.573494 25.052608l0 0c0 -3.1659164 2.5664825 -5.732399 5.7323914 -5.732399l40.629692 0c1.5203247 0 2.9783936 0.6039486 4.053421 1.6789818c1.0750275 1.0750332 1.6789856 2.5330906 1.6789856 4.053417l0 22.928905c0 3.1659164 -2.5664825 5.732395 -5.7324066 5.732395l-40.629692 0c-3.1659088 0 -5.7323914 -2.5664787 -5.7323914 -5.732395z" fill-rule="evenodd"/><path fill="#cccccc" d="m164.43701 25.052608l0 0c0 -3.1659164 2.5664825 -5.732399 5.7323914 -5.732399l40.6297 0c1.5203247 0 2.9783783 0.6039486 4.053406 1.6789818c1.0750427 1.0750332 1.6789856 2.5330906 1.6789856 4.053417l0 22.928905c0 3.1659164 -2.5664825 5.732395 -5.7323914 5.732395l-40.6297 0c-3.1659088 0 -5.7323914 -2.5664787 -5.7323914 -5.732395z" fill-rule="evenodd"/><path stroke="#000000" stroke-width="4.0" stroke-linejoin="round" stroke-linecap="butt" d="m164.43701 25.052608l0 0c0 -3.1659164 2.5664825 -5.732399 5.7323914 -5.732399l40.6297 0c1.5203247 0 2.9783783 0.6039486 4.053406 1.6789818c1.0750427 1.0750332 1.6789856 2.5330906 1.6789856 4.053417l0 22.928905c0 3.1659164 -2.5664825 5.732395 -5.7323914 5.732395l-40.6297 0c-3.1659088 0 -5.7323914 -2.5664787 -5.7323914 -5.732395z" fill-rule="evenodd"/><path fill="#000000" d="m185.45267 36.249557l-0.140625 -0.6875q0.46875 -0.375 0.921875 -0.578125q0.453125 -0.21875 1.0625 -0.3125q0.625 -0.09375 1.59375 -0.09375l6.53125 0l0.078125 1.34375l-2.40625 -0.078125l0.140625 4.984375q0.046875 0.9375 0.3125 1.25q0.28125 0.3125 0.828125 0.3125q0.1875 0 0.40625 -0.046875q0.234375 -0.046875 0.421875 -0.125l0.140625 0.46875q-0.328125 0.5 -0.71875 0.75q-0.375 0.25 -0.9375 0.25q-0.96875 0 -1.4375 -0.5625q-0.453125 -0.578125 -0.453125 -1.734375q0 -1.15625 0.0625 -2.640625q0.078125 -1.484375 0.140625 -2.921875l-3.0 0q-0.015625 1.421875 -0.046875 2.84375q-0.03125 1.40625 -0.125 2.765625q-0.09375 1.203125 -0.578125 1.734375q-0.484375 0.515625 -1.296875 0.515625q-0.5 0 -0.828125 -0.25q-0.3125 -0.265625 -0.3125 -0.6875q0 -0.34375 0.09375 -0.53125q0.109375 -0.203125 0.296875 -0.34375q0.703125 -0.140625 1.640625 -0.234375q0.15625 -1.4375 0.21875 -2.875q0.0625 -1.453125 0.09375 -2.90625l-2.703125 0.390625z" fill-rule="nonzero"/><path fill="#ffffff" d="m24.711287 25.052608l0 0c0 -3.1659164 2.5664825 -5.732399 5.732397 -5.732399l40.629696 0c1.5203247 0 2.9783783 0.6039486 4.0534134 1.6789818c1.0750351 1.0750332 1.678978 2.5330906 1.678978 4.053417l0 22.928905c0 3.1659164 -2.566475 5.732395 -5.7323914 5.732395l-40.629696 0c-3.1659145 0 -5.732397 -2.5664787 -5.732397 -5.732395z" fill-rule="evenodd"/><path stroke="#000000" stroke-width="4.0" stroke-linejoin="round" stroke-linecap="butt" d="m24.711287 25.052608l0 0c0 -3.1659164 2.5664825 -5.732399 5.732397 -5.732399l40.629696 0c1.5203247 0 2.9783783 0.6039486 4.0534134 1.6789818c1.0750351 1.0750332 1.678978 2.5330906 1.678978 4.053417l0 22.928905c0 3.1659164 -2.566475 5.732395 -5.7323914 5.732395l-40.629696 0c-3.1659145 0 -5.732397 -2.5664787 -5.732397 -5.732395z" fill-rule="evenodd"/><path fill="#cccccc" d="m164.43701 95.000114l0 0c0 -3.1659164 2.5664825 -5.732399 5.7323914 -5.732399l40.6297 0c1.5203247 0 2.9783783 0.6039505 4.053406 1.678978c1.0750427 1.0750351 1.6789856 2.5330963 1.6789856 4.053421l0 22.928902c0 3.1659164 -2.5664825 5.732399 -5.7323914 5.732399l-40.6297 0c-3.1659088 0 -5.7323914 -2.5664825 -5.7323914 -5.732399z" fill-rule="evenodd"/><path stroke="#000000" stroke-width="4.0" stroke-linejoin="round" stroke-linecap="butt" d="m164.43701 95.000114l0 0c0 -3.1659164 2.5664825 -5.732399 5.7323914 -5.732399l40.6297 0c1.5203247 0 2.9783783 0.6039505 4.053406 1.678978c1.0750427 1.0750351 1.6789856 2.5330963 1.6789856 4.053421l0 22.928902c0 3.1659164 -2.5664825 5.732399 -5.7323914 5.732399l-40.6297 0c-3.1659088 0 -5.7323914 -2.5664825 -5.7323914 -5.732399z" fill-rule="evenodd"/><path fill="#000000" d="m185.45267 106.19707l-0.140625 -0.6875q0.46875 -0.375 0.921875 -0.578125q0.453125 -0.21875 1.0625 -0.3125q0.625 -0.09375 1.59375 -0.09375l6.53125 0l0.078125 1.34375l-2.40625 -0.078125l0.140625 4.984375q0.046875 0.9375 0.3125 1.25q0.28125 0.3125 0.828125 0.3125q0.1875 0 0.40625 -0.046875q0.234375 -0.046875 0.421875 -0.125l0.140625 0.46875q-0.328125 0.5 -0.71875 0.75q-0.375 0.25 -0.9375 0.25q-0.96875 0 -1.4375 -0.5625q-0.453125 -0.578125 -0.453125 -1.734375q0 -1.15625 0.0625 -2.640625q0.078125 -1.484375 0.140625 -2.921875l-3.0 0q-0.015625 1.421875 -0.046875 2.84375q-0.03125 1.40625 -0.125 2.765625q-0.09375 1.203125 -0.578125 1.734375q-0.484375 0.515625 -1.296875 0.515625q-0.5 0 -0.828125 -0.25q-0.3125 -0.265625 -0.3125 -0.6875q0 -0.34375 0.09375 -0.53125q0.109375 -0.203125 0.296875 -0.34375q0.703125 -0.140625 1.640625 -0.234375q0.15625 -1.4375 0.21875 -2.875q0.0625 -1.453125 0.09375 -2.90625l-2.703125 0.390625z" fill-rule="nonzero"/><path fill="#cccccc" d="m186.9029 84.16535l0 -18.59842l-3.5826874 0l7.1653595 -7.1653595l7.1653595 7.1653595l-3.5826874 0l0 18.59842z" fill-rule="evenodd"/><path stroke="#000000" stroke-width="4.0" stroke-linejoin="round" stroke-linecap="butt" d="m186.9029 84.16535l0 -18.59842l-3.5826874 0l7.1653595 -7.1653595l7.1653595 7.1653595l-3.5826874 0l0 18.59842z" fill-rule="evenodd"/><path fill="#000000" fill-opacity="0.0" d="m76.80577 36.51706l17.763786 0" fill-rule="evenodd"/><path stroke="#000000" stroke-width="1.0" stroke-linejoin="round" stroke-linecap="butt" stroke-dasharray="4.0,3.0" d="m76.80577 36.51706l14.3367 0" fill-rule="evenodd"/><path fill="#000000" stroke="#000000" stroke-width="1.0" stroke-linecap="butt" d="m91.14246 36.51706l-1.1245804 1.1245842l3.0897675 -1.1245842l-3.0897675 -1.1245842z" fill-rule="evenodd"/><path fill="#000000" fill-opacity="0.0" d="m146.66798 36.51706l17.763779 0" fill-rule="evenodd"/><path stroke="#000000" stroke-width="1.0" stroke-linejoin="round" stroke-linecap="butt" stroke-dasharray="4.0,3.0" d="m146.66798 36.51706l14.336685 0" fill-rule="evenodd"/><path fill="#000000" stroke="#000000" stroke-width="1.0" stroke-linecap="butt" d="m161.00467 36.51706l-1.124588 1.1245842l3.0897827 -1.1245842l-3.0897827 -1.1245842z" fill-rule="evenodd"/></g></svg>