<svg version="1.1" viewBox="0.0 0.0 2174.9212598425197 955.8188976377953" fill="none" stroke="none" stroke-linecap="square" stroke-miterlimit="10" xmlns:xlink="http://www.w3.org/1999/xlink" xmlns="http://www.w3.org/2000/svg"><clipPath id="p.0"><path d="m0 0l2174.9211 0l0 955.8189l-2174.9211 0l0 -955.8189z" clip-rule="nonzero"/></clipPath><g clip-path="url(#p.0)"><path fill="#000000" fill-opacity="0.0" d="m0 0l2174.9211 0l0 955.8189l-2174.9211 0z" fill-rule="evenodd"/><path fill="#ffffff" d="m68.58793 56.63517l955.99994 0l0 728.0l-955.99994 0z" fill-rule="evenodd"/><path stroke="#000000" stroke-width="8.0" stroke-linejoin="round" stroke-linecap="butt" d="m68.58793 56.63517l955.99994 0l0 728.0l-955.99994 0z" fill-rule="evenodd"/><path fill="#cfe2f3" d="m492.76675 478.9667l114.74014 0l0 114.74014l-114.74014 0z" fill-rule="evenodd"/><path stroke="#000000" stroke-width="4.0" stroke-linejoin="round" stroke-linecap="butt" d="m492.76675 478.9667l114.74014 0l0 114.74014l-114.74014 0z" fill-rule="evenodd"/><path fill="#000000" d="m532.05444 525.7743l9.734375 0l8.265625 24.53125l8.078125 -24.53125l9.46875 0l-12.203125 33.265625l-2.1875 6.015625q-1.203125 3.03125 -2.296875 4.625q-1.09375 1.59375 -2.515625 2.578125q-1.40625 1.0 -3.46875 1.546875q-2.0625 0.5625 -4.671875 0.5625q-2.640625 0 -5.171875 -0.5625l-0.8125 -7.15625q2.140625 0.421875 3.875 0.421875q3.1875 0 4.71875 -1.875q1.53125 -1.859375 2.34375 -4.765625l-13.15625 -34.65625z" fill-rule="nonzero"/><path fill="#cfe2f3" d="m552.1841 314.99042l114.74017 0l0 114.74017l-114.74017 0z" fill-rule="evenodd"/><path stroke="#000000" stroke-width="4.0" stroke-linejoin="round" stroke-linecap="butt" d="m552.1841 314.99042l114.74017 0l0 114.74017l-114.74017 0z" fill-rule="evenodd"/><path fill="#000000" d="m591.40924 396.3605l12.46875 -17.796875l-11.953125 -16.765625l11.171875 0l6.109375 9.5l6.453125 -9.5l10.734375 0l-11.71875 16.375l12.796875 18.1875l-11.234375 0l-7.03125 -10.703125l-7.09375 10.703125l-10.703125 0z" fill-rule="nonzero"/><path fill="#cfe2f3" d="m137.96886 153.58623l114.74016 0l0 114.74016l-114.74016 0z" fill-rule="evenodd"/><path stroke="#000000" stroke-width="4.0" stroke-linejoin="round" stroke-linecap="butt" d="m137.96886 153.58623l114.74016 0l0 114.74016l-114.74016 0z" fill-rule="evenodd"/><path fill="#000000" d="m176.93208 230.1563l-7.3125 0l0 -14.109375q0 -4.484375 -0.46875 -5.796875q-0.46875 -1.3125 -1.53125 -2.046875q-1.046875 -0.734375 -2.53125 -0.734375q-1.90625 0 -3.421875 1.046875q-1.5 1.046875 -2.0625 2.765625q-0.5625 1.71875 -0.5625 6.34375l0 12.53125l-7.3125 0l0 -27.65625l6.796875 0l0 4.0625q3.609375 -4.6875 9.109375 -4.6875q2.421875 0 4.421875 0.875q2.015625 0.875 3.03125 2.234375q1.03125 1.34375 1.4375 3.0625q0.40625 1.71875 0.40625 4.921875l0 17.1875zm25.621826 0l0 -4.140625q-1.515625 2.21875 -3.984375 3.5q-2.453125 1.265625 -5.1875 1.265625q-2.78125 0 -5.0 -1.21875q-2.203125 -1.234375 -3.203125 -3.4375q-0.984375 -2.21875 -0.984375 -6.125l0 -17.5l7.3125 0l0 12.703125q0 5.84375 0.40625 7.15625q0.40625 1.3125 1.46875 2.078125q1.078125 0.765625 2.71875 0.765625q1.875 0 3.359375 -1.015625q1.484375 -1.03125 2.03125 -2.546875q0.546875 -1.53125 0.546875 -7.46875l0 -11.671875l7.3125 0l0 27.65625l-6.796875 0zm14.371826 0l0 -38.171875l7.3125 0l0 38.171875l-7.3125 0zm14.816269 0l0 -38.171875l7.3125 0l0 38.171875l-7.3125 0z" fill-rule="nonzero"/><path fill="#000000" fill-opacity="0.0" d="m622.46716 486.24146l176.0 0l0 100.188965l-176.0 0z" fill-rule="evenodd"/><path fill="#000000" d="m658.4203 546.5852l5.75 0.75q-0.9375 5.953125 -4.828125 9.328125q-3.890625 3.359375 -9.546875 3.359375q-7.09375 0 -11.40625 -4.640625q-4.3125 -4.640625 -4.3125 -13.296875q0 -5.59375 1.84375 -9.78125q1.859375 -4.203125 5.640625 -6.296875q3.796875 -2.109375 8.265625 -2.109375q5.625 0 9.203125 2.84375q3.578125 2.84375 4.59375 8.09375l-5.703125 0.875q-0.8125 -3.484375 -2.875 -5.234375q-2.0625 -1.765625 -5.0 -1.765625q-4.421875 0 -7.1875 3.171875q-2.765625 3.171875 -2.765625 10.046875q0 6.96875 2.671875 10.125q2.671875 3.15625 6.96875 3.15625q3.4375 0 5.75 -2.109375q2.3125 -2.125 2.9375 -6.515625zm10.640625 12.65625l0 -47.71875l5.859375 0l0 47.71875l-5.859375 0zm38.605774 -11.125l6.046875 0.75q-1.4375 5.296875 -5.3125 8.234375q-3.859375 2.921875 -9.890625 2.921875q-7.578125 0 -12.03125 -4.671875q-4.4375 -4.671875 -4.4375 -13.09375q0 -8.734375 4.484375 -13.546875q4.5 -4.8125 11.65625 -4.8125q6.9375 0 11.328125 4.71875q4.390625 4.71875 4.390625 13.28125q0 0.515625 -0.03125 1.5625l-25.765625 0q0.3125 5.6875 3.203125 8.71875q2.90625 3.03125 7.234375 3.03125q3.234375 0 5.5 -1.6875q2.28125 -1.703125 3.625 -5.40625zm-19.25 -9.484375l19.3125 0q-0.390625 -4.359375 -2.21875 -6.53125q-2.796875 -3.390625 -7.25 -3.390625q-4.046875 0 -6.796875 2.703125q-2.75 2.703125 -3.046875 7.21875zm55.21167 16.34375q-3.265625 2.765625 -6.28125 3.90625q-3.0 1.140625 -6.453125 1.140625q-5.6875 0 -8.75 -2.78125q-3.0625 -2.78125 -3.0625 -7.109375q0 -2.546875 1.15625 -4.640625q1.15625 -2.09375 3.03125 -3.359375q1.875 -1.28125 4.21875 -1.9375q1.71875 -0.453125 5.203125 -0.875q7.09375 -0.84375 10.4375 -2.015625q0.046875 -1.203125 0.046875 -1.53125q0 -3.578125 -1.671875 -5.046875q-2.234375 -1.984375 -6.671875 -1.984375q-4.125 0 -6.09375 1.453125q-1.96875 1.453125 -2.921875 5.125l-5.71875 -0.78125q0.78125 -3.671875 2.5625 -5.9375q1.796875 -2.265625 5.171875 -3.484375q3.390625 -1.21875 7.84375 -1.21875q4.4375 0 7.203125 1.046875q2.765625 1.03125 4.0625 2.609375q1.3125 1.578125 1.828125 3.984375q0.296875 1.5 0.296875 5.40625l0 7.8125q0 8.171875 0.375 10.34375q0.375 2.15625 1.46875 4.140625l-6.109375 0q-0.921875 -1.828125 -1.171875 -4.265625zm-0.5 -13.078125q-3.1875 1.296875 -9.5625 2.203125q-3.609375 0.53125 -5.109375 1.1875q-1.5 0.640625 -2.3125 1.890625q-0.8125 1.25 -0.8125 2.78125q0 2.34375 1.765625 3.90625q1.78125 1.5625 5.203125 1.5625q3.375 0 6.015625 -1.46875q2.640625 -1.484375 3.875 -4.0625q0.9375 -1.984375 0.9375 -5.859375l0 -2.140625zm14.946045 17.34375l0 -34.5625l5.265625 0l0 5.234375q2.03125 -3.671875 3.734375 -4.84375q1.703125 -1.171875 3.765625 -1.171875q2.953125 0 6.015625 1.890625l-2.015625 5.4375q-2.15625 -1.28125 -4.296875 -1.28125q-1.921875 0 -3.453125 1.15625q-1.53125 1.15625 -2.1875 3.203125q-0.96875 3.125 -0.96875 6.84375l0 18.09375l-5.859375 0z" fill-rule="nonzero"/><path fill="#e69138" d="m584.042 254.90552l54.015747 0l0 55.811005l-54.015747 0z" fill-rule="evenodd"/><path stroke="#000000" stroke-width="4.0" stroke-linejoin="round" stroke-linecap="butt" d="m584.042 254.90552l54.015747 0l0 55.811005l-54.015747 0z" fill-rule="evenodd"/><path fill="#e69138" d="m523.04987 370.5328l0 0c0 -44.21756 39.398926 -80.06299 88.0 -80.06299c48.601074 0 88.0 35.84543 88.0 80.06299l-40.031494 0l0 0c0 -22.108795 -21.476257 -40.031494 -47.968506 -40.031494c-26.492249 0 -47.968506 17.922699 -47.968506 40.031494z" fill-rule="evenodd"/><path stroke="#000000" stroke-width="4.0" stroke-linejoin="round" stroke-linecap="butt" d="m523.04987 370.5328l0 0c0 -44.21756 39.398926 -80.06299 88.0 -80.06299c48.601074 0 88.0 35.84543 88.0 80.06299l-40.031494 0l0 0c0 -22.108795 -21.476257 -40.031494 -47.968506 -40.031494c-26.492249 0 -47.968506 17.922699 -47.968506 40.031494z" fill-rule="evenodd"/><path fill="#ffffff" d="m1151.5511 56.63517l956.0001 0l0 728.0l-956.0001 0z" fill-rule="evenodd"/><path stroke="#000000" stroke-width="8.0" stroke-linejoin="round" stroke-linecap="butt" d="m1151.5511 56.63517l956.0001 0l0 728.0l-956.0001 0z" fill-rule="evenodd"/><path fill="#76a5af" d="m1651.9325 553.0894l167.65356 0l0 77.22839l-167.65356 0z" fill-rule="evenodd"/><path fill="#000000" fill-opacity="0.0" d="m1672.8892 553.0894l0 77.22839m125.74011 -77.22839l0 77.22839" fill-rule="evenodd"/><path fill="#000000" fill-opacity="0.0" d="m1651.9325 553.0894l167.65356 0l0 77.22839l-167.65356 0z" fill-rule="evenodd"/><path stroke="#000000" stroke-width="4.0" stroke-linejoin="round" stroke-linecap="butt" d="m1672.8892 553.0894l0 77.22839m125.74011 -77.22839l0 77.22839" fill-rule="evenodd"/><path stroke="#000000" stroke-width="4.0" stroke-linejoin="round" stroke-linecap="butt" d="m1651.9325 553.0894l167.65356 0l0 77.22839l-167.65356 0z" fill-rule="evenodd"/><path fill="#000000" d="m1719.7917 605.3178l0 -47.71875l9.15625 0l0 17.1875q4.21875 -4.8125 10.015625 -4.8125q6.3125 0 10.4375 4.578125q4.140625 4.5625 4.140625 13.125q0 8.859375 -4.21875 13.640625q-4.203125 4.78125 -10.234375 4.78125q-2.953125 0 -5.84375 -1.484375q-2.875 -1.484375 -4.953125 -4.375l0 5.078125l-8.5 0zm9.078125 -18.03125q0 5.375 1.703125 7.9375q2.375 3.65625 6.3125 3.65625q3.03125 0 5.15625 -2.59375q2.125 -2.59375 2.125 -8.15625q0 -5.921875 -2.15625 -8.53125q-2.140625 -2.625 -5.484375 -2.625q-3.296875 0 -5.484375 2.5625q-2.171875 2.546875 -2.171875 7.75z" fill-rule="nonzero"/><path fill="#76a5af" d="m1738.7267 442.69308l167.65344 0l0 77.22836l-167.65344 0z" fill-rule="evenodd"/><path fill="#000000" fill-opacity="0.0" d="m1759.6833 442.69308l0 77.22836m125.74011 -77.22836l0 77.22836" fill-rule="evenodd"/><path fill="#000000" fill-opacity="0.0" d="m1738.7267 442.69308l167.65344 0l0 77.22836l-167.65344 0z" fill-rule="evenodd"/><path stroke="#000000" stroke-width="4.0" stroke-linejoin="round" stroke-linecap="butt" d="m1759.6833 442.69308l0 77.22836m125.74011 -77.22836l0 77.22836" fill-rule="evenodd"/><path stroke="#000000" stroke-width="4.0" stroke-linejoin="round" stroke-linecap="butt" d="m1738.7267 442.69308l167.65344 0l0 77.22836l-167.65344 0z" fill-rule="evenodd"/><path fill="#000000" d="m1815.643 470.90582l-8.3125 -1.5q1.40625 -5.015625 4.8125 -7.421875q3.421875 -2.40625 10.171875 -2.40625q6.109375 0 9.109375 1.453125q3.0 1.4375 4.21875 3.671875q1.21875 2.234375 1.21875 8.1875l-0.09375 10.671875q0 4.5625 0.4375 6.734375q0.4375 2.15625 1.640625 4.625l-9.046875 0q-0.359375 -0.90625 -0.875 -2.703125q-0.234375 -0.8125 -0.328125 -1.078125q-2.34375 2.28125 -5.015625 3.421875q-2.671875 1.140625 -5.703125 1.140625q-5.328125 0 -8.40625 -2.890625q-3.078125 -2.90625 -3.078125 -7.328125q0 -2.9375 1.390625 -5.21875q1.40625 -2.296875 3.921875 -3.515625q2.53125 -1.21875 7.28125 -2.140625q6.421875 -1.203125 8.890625 -2.25l0 -0.90625q0 -2.640625 -1.3125 -3.75q-1.296875 -1.125 -4.90625 -1.125q-2.4375 0 -3.8125 0.96875q-1.359375 0.953125 -2.203125 3.359375zm12.234375 7.421875q-1.765625 0.578125 -5.578125 1.390625q-3.796875 0.8125 -4.96875 1.59375q-1.796875 1.28125 -1.796875 3.234375q0 1.90625 1.4375 3.3125q1.4375 1.40625 3.640625 1.40625q2.484375 0 4.71875 -1.640625q1.671875 -1.234375 2.1875 -3.015625q0.359375 -1.171875 0.359375 -4.46875l0 -1.8125z" fill-rule="nonzero"/><path fill="#76a5af" d="m1197.9318 153.5853l167.65356 0l0 77.22835l-167.65356 0z" fill-rule="evenodd"/><path fill="#000000" fill-opacity="0.0" d="m1218.8884 153.5853l0 77.22835m125.740234 -77.22835l0 77.22835" fill-rule="evenodd"/><path fill="#000000" fill-opacity="0.0" d="m1197.9318 153.5853l167.65356 0l0 77.22835l-167.65356 0z" fill-rule="evenodd"/><path stroke="#000000" stroke-width="4.0" stroke-linejoin="round" stroke-linecap="butt" d="m1218.8884 153.5853l0 77.22835m125.740234 -77.22835l0 77.22835" fill-rule="evenodd"/><path stroke="#000000" stroke-width="4.0" stroke-linejoin="round" stroke-linecap="butt" d="m1197.9318 153.5853l167.65356 0l0 77.22835l-167.65356 0z" fill-rule="evenodd"/><path fill="#000000" d="m1263.3517 209.01364l-7.3125 0l0 -14.109375q0 -4.484375 -0.46875 -5.796875q-0.46875 -1.3125 -1.53125 -2.046875q-1.046875 -0.734375 -2.53125 -0.734375q-1.90625 0 -3.421875 1.046875q-1.5 1.046875 -2.0625 2.765625q-0.5625 1.71875 -0.5625 6.34375l0 12.53125l-7.3125 0l0 -27.65625l6.796875 0l0 4.0625q3.609375 -4.6875 9.109375 -4.6875q2.421875 0 4.421875 0.875q2.015625 0.875 3.03125 2.234375q1.03125 1.34375 1.4375 3.0625q0.40625 1.71875 0.40625 4.921875l0 17.1875zm25.621826 0l0 -4.140625q-1.515625 2.21875 -3.984375 3.5q-2.453125 1.265625 -5.1875 1.265625q-2.78125 0 -5.0 -1.21875q-2.203125 -1.234375 -3.203125 -3.4375q-0.984375 -2.21875 -0.984375 -6.125l0 -17.5l7.3125 0l0 12.703125q0 5.84375 0.40625 7.15625q0.40625 1.3125 1.46875 2.078125q1.078125 0.765625 2.71875 0.765625q1.875 0 3.359375 -1.015625q1.484375 -1.03125 2.03125 -2.546875q0.546875 -1.53125 0.546875 -7.46875l0 -11.671875l7.3125 0l0 27.65625l-6.796875 0zm14.371826 0l0 -38.171875l7.3125 0l0 38.171875l-7.3125 0zm14.816284 0l0 -38.171875l7.3125 0l0 38.171875l-7.3125 0z" fill-rule="nonzero"/><path fill="#000000" fill-opacity="0.0" d="m1852.3832 541.60895l176.0 0l0 100.188965l-176.0 0z" fill-rule="evenodd"/><path fill="#000000" d="m1888.3363 601.9527l5.75 0.75q-0.9375 5.953125 -4.828125 9.328125q-3.890625 3.359375 -9.546875 3.359375q-7.09375 0 -11.40625 -4.640625q-4.3125 -4.640625 -4.3125 -13.296875q0 -5.59375 1.84375 -9.78125q1.859375 -4.203125 5.640625 -6.296875q3.796875 -2.109375 8.265625 -2.109375q5.625 0 9.203125 2.84375q3.578125 2.84375 4.59375 8.09375l-5.703125 0.875q-0.8125 -3.484375 -2.875 -5.234375q-2.0625 -1.765625 -5.0 -1.765625q-4.421875 0 -7.1875 3.171875q-2.765625 3.171875 -2.765625 10.046875q0 6.96875 2.671875 10.125q2.671875 3.15625 6.96875 3.15625q3.4375 0 5.75 -2.109375q2.3125 -2.125 2.9375 -6.515625zm10.640625 12.65625l0 -47.71875l5.859375 0l0 47.71875l-5.859375 0zm38.605835 -11.125l6.046875 0.75q-1.4375 5.296875 -5.3125 8.234375q-3.859375 2.921875 -9.890625 2.921875q-7.578125 0 -12.03125 -4.671875q-4.4375 -4.671875 -4.4375 -13.09375q0 -8.734375 4.484375 -13.546875q4.5 -4.8125 11.65625 -4.8125q6.9375 0 11.328125 4.71875q4.390625 4.71875 4.390625 13.28125q0 0.515625 -0.03125 1.5625l-25.765625 0q0.3125 5.6875 3.203125 8.71875q2.90625 3.03125 7.234375 3.03125q3.234375 0 5.5 -1.6875q2.28125 -1.703125 3.625 -5.40625zm-19.25 -9.484375l19.3125 0q-0.390625 -4.359375 -2.21875 -6.53125q-2.796875 -3.390625 -7.25 -3.390625q-4.046875 0 -6.796875 2.703125q-2.75 2.703125 -3.046875 7.21875zm55.211548 16.34375q-3.265625 2.765625 -6.28125 3.90625q-3.0 1.140625 -6.453125 1.140625q-5.6875 0 -8.75 -2.78125q-3.0625 -2.78125 -3.0625 -7.109375q0 -2.546875 1.15625 -4.640625q1.15625 -2.09375 3.03125 -3.359375q1.875 -1.28125 4.21875 -1.9375q1.71875 -0.453125 5.203125 -0.875q7.09375 -0.84375 10.4375 -2.015625q0.046875 -1.203125 0.046875 -1.53125q0 -3.578125 -1.671875 -5.046875q-2.234375 -1.984375 -6.671875 -1.984375q-4.125 0 -6.09375 1.453125q-1.96875 1.453125 -2.921875 5.125l-5.71875 -0.78125q0.78125 -3.671875 2.5625 -5.9375q1.796875 -2.265625 5.171875 -3.484375q3.390625 -1.21875 7.84375 -1.21875q4.4375 0 7.203125 1.046875q2.765625 1.03125 4.0625 2.609375q1.3125 1.578125 1.828125 3.984375q0.296875 1.5 0.296875 5.40625l0 7.8125q0 8.171875 0.375 10.34375q0.375 2.15625 1.46875 4.140625l-6.109375 0q-0.921875 -1.828125 -1.171875 -4.265625zm-0.5 -13.078125q-3.1875 1.296875 -9.5625 2.203125q-3.609375 0.53125 -5.109375 1.1875q-1.5 0.640625 -2.3125 1.890625q-0.8125 1.25 -0.8125 2.78125q0 2.34375 1.765625 3.90625q1.78125 1.5625 5.203125 1.5625q3.375 0 6.015625 -1.46875q2.640625 -1.484375 3.875 -4.0625q0.9375 -1.984375 0.9375 -5.859375l0 -2.140625zm14.946045 17.34375l0 -34.5625l5.265625 0l0 5.234375q2.03125 -3.671875 3.734375 -4.84375q1.703125 -1.171875 3.765625 -1.171875q2.953125 0 6.015625 1.890625l-2.015625 5.4375q-2.15625 -1.28125 -4.296875 -1.28125q-1.921875 0 -3.453125 1.15625q-1.53125 1.15625 -2.1875 3.203125q-0.96875 3.125 -0.96875 6.84375l0 18.09375l-5.859375 0z" fill-rule="nonzero"/><path fill="#e69138" d="m1795.5459 356.32285l54.015747 0l0 55.811005l-54.015747 0z" fill-rule="evenodd"/><path stroke="#000000" stroke-width="4.0" stroke-linejoin="round" stroke-linecap="butt" d="m1795.5459 356.32285l54.015747 0l0 55.811005l-54.015747 0z" fill-rule="evenodd"/><path fill="#e69138" d="m1699.6089 473.02625l0 0c0 -44.21756 55.04431 -80.06299 122.94495 -80.06299c67.90051 0 122.944824 35.84543 122.944824 80.06299l-40.031494 0l0 0c0 -22.108795 -37.121582 -40.031494 -82.91333 -40.031494c-45.79187 0 -82.91345 17.922699 -82.91345 40.031494z" fill-rule="evenodd"/><path stroke="#000000" stroke-width="4.0" stroke-linejoin="round" stroke-linecap="butt" d="m1699.6089 473.02625l0 0c0 -44.21756 55.04431 -80.06299 122.94495 -80.06299c67.90051 0 122.944824 35.84543 122.944824 80.06299l-40.031494 0l0 0c0 -22.108795 -37.121582 -40.031494 -82.91333 -40.031494c-45.79187 0 -82.91345 17.922699 -82.91345 40.031494z" fill-rule="evenodd"/><path fill="#000000" fill-opacity="0.0" d="m246.80708 804.09186l599.5591 0l0 121.19684l-599.5591 0z" fill-rule="evenodd"/><path fill="#000000" d="m308.9944 884.6225q3.28125 0 5.859375 -1.09375q2.578125 -1.09375 4.359375 -3.0625q1.796875 -1.984375 2.734375 -4.796875q0.953125 -2.8125 0.953125 -6.296875l0 -36.375l11.296875 0l0 36.375q0 5.421875 -1.75 10.015625q-1.734375 4.59375 -5.015625 7.9375q-3.28125 3.34375 -7.953125 5.21875q-4.65625 1.859375 -10.484375 1.859375q-5.84375 0 -10.515625 -1.859375q-4.65625 -1.875 -7.90625 -5.21875q-3.25 -3.34375 -5.0 -7.9375q-1.734375 -4.59375 -1.734375 -10.015625l0 -36.375l11.296875 0l0 36.328125q0 3.484375 0.9375 6.3125q0.953125 2.8125 2.71875 4.8125q1.765625 1.984375 4.34375 3.078125q2.578125 1.09375 5.859375 1.09375zm36.12082 9.109375l0 -43.09375l6.34375 0q2.015625 0 2.640625 1.890625l0.71875 3.40625q1.296875 -1.34375 2.75 -2.4375q1.453125 -1.09375 3.0625 -1.890625q1.625 -0.796875 3.46875 -1.21875q1.84375 -0.421875 4.03125 -0.421875q3.53125 0 6.25 1.203125q2.734375 1.1875 4.5625 3.359375q1.828125 2.15625 2.765625 5.171875q0.953125 3.0 0.953125 6.609375l0 27.421875l-10.375 0l0 -27.421875q0 -3.953125 -1.828125 -6.109375q-1.828125 -2.171875 -5.484375 -2.171875q-2.6875 0 -5.046875 1.21875q-2.34375 1.21875 -4.4375 3.328125l0 31.15625l-10.375 0zm73.332184 -34.6875q-0.421875 0.671875 -0.890625 0.953125q-0.453125 0.265625 -1.171875 0.265625q-0.75 0 -1.609375 -0.421875q-0.859375 -0.421875 -2.0 -0.9375q-1.140625 -0.53125 -2.59375 -0.953125q-1.4375 -0.421875 -3.40625 -0.421875q-3.078125 0 -4.84375 1.3125q-1.75 1.296875 -1.75 3.390625q0 1.390625 0.890625 2.34375q0.90625 0.9375 2.390625 1.65625q1.5 0.703125 3.390625 1.28125q1.890625 0.5625 3.859375 1.234375q1.984375 0.671875 3.859375 1.53125q1.890625 0.859375 3.375 2.1875q1.5 1.3125 2.40625 3.171875q0.90625 1.84375 0.90625 4.4375q0 3.109375 -1.140625 5.734375q-1.125 2.625 -3.3125 4.546875q-2.1875 1.90625 -5.40625 2.984375q-3.203125 1.0625 -7.359375 1.0625q-2.234375 0 -4.359375 -0.40625q-2.109375 -0.390625 -4.0625 -1.09375q-1.953125 -0.71875 -3.609375 -1.6875q-1.65625 -0.96875 -2.921875 -2.109375l2.390625 -3.9375q0.46875 -0.71875 1.09375 -1.09375q0.625 -0.375 1.59375 -0.375q0.96875 0 1.828125 0.546875q0.859375 0.53125 1.984375 1.171875q1.140625 0.625 2.671875 1.171875q1.546875 0.546875 3.890625 0.546875q1.84375 0 3.171875 -0.4375q1.328125 -0.4375 2.1875 -1.15625q0.859375 -0.71875 1.25 -1.65625q0.40625 -0.953125 0.40625 -1.953125q0 -1.515625 -0.90625 -2.484375q-0.90625 -0.96875 -2.390625 -1.671875q-1.484375 -0.71875 -3.40625 -1.28125q-1.90625 -0.578125 -3.90625 -1.25q-1.984375 -0.671875 -3.90625 -1.5625q-1.90625 -0.90625 -3.40625 -2.296875q-1.484375 -1.390625 -2.390625 -3.40625q-0.890625 -2.015625 -0.890625 -4.875q0 -2.640625 1.046875 -5.03125q1.046875 -2.390625 3.078125 -4.171875q2.046875 -1.796875 5.078125 -2.859375q3.046875 -1.078125 7.046875 -1.078125q4.453125 0 8.09375 1.46875q3.65625 1.46875 6.09375 3.859375l-2.34375 3.75zm25.286194 35.359375q-5.59375 0 -8.625 -3.171875q-3.015625 -3.171875 -3.015625 -8.75l0 -24.078125l-4.359375 0q-0.84375 0 -1.453125 -0.53125q-0.609375 -0.546875 -0.609375 -1.640625l0 -4.125l6.921875 -1.125l2.1875 -11.765625q0.171875 -0.84375 0.78125 -1.296875q0.609375 -0.46875 1.53125 -0.46875l5.375 0l0 13.5625l11.34375 0l0 7.390625l-11.34375 0l0 23.359375q0 2.015625 1.0 3.15625q1.015625 1.125 2.703125 1.125q0.953125 0 1.609375 -0.21875q0.65625 -0.234375 1.140625 -0.484375q0.484375 -0.265625 0.859375 -0.484375q0.375 -0.234375 0.75 -0.234375q0.46875 0 0.75 0.234375q0.296875 0.21875 0.640625 0.6875l3.109375 5.03125q-2.265625 1.890625 -5.21875 2.859375q-2.9375 0.96875 -6.078125 0.96875zm52.1174 -0.671875l-4.65625 0q-1.46875 0 -2.3125 -0.4375q-0.84375 -0.4375 -1.265625 -1.78125l-0.921875 -3.078125q-1.640625 1.46875 -3.21875 2.59375q-1.5625 1.109375 -3.25 1.875q-1.671875 0.75 -3.5625 1.125q-1.890625 0.375 -4.203125 0.375q-2.734375 0 -5.046875 -0.734375q-2.3125 -0.734375 -3.96875 -2.203125q-1.65625 -1.46875 -2.578125 -3.65625q-0.921875 -2.1875 -0.921875 -5.078125q0 -2.4375 1.28125 -4.8125q1.28125 -2.375 4.25 -4.28125q2.984375 -1.921875 7.9375 -3.171875q4.96875 -1.265625 12.3125 -1.4375l0 -2.515625q0 -4.328125 -1.828125 -6.40625q-1.828125 -2.078125 -5.3125 -2.078125q-2.515625 0 -4.203125 0.59375q-1.671875 0.578125 -2.921875 1.328125q-1.234375 0.734375 -2.28125 1.328125q-1.046875 0.578125 -2.3125 0.578125q-1.046875 0 -1.8125 -0.546875q-0.75 -0.546875 -1.203125 -1.34375l-1.890625 -3.328125q7.4375 -6.796875 17.9375 -6.796875q3.765625 0 6.71875 1.25q2.96875 1.234375 5.03125 3.4375q2.0625 2.203125 3.125 5.265625q1.078125 3.0625 1.078125 6.71875l0 27.21875zm-20.15625 -6.46875q1.59375 0 2.9375 -0.296875q1.34375 -0.296875 2.53125 -0.875q1.203125 -0.59375 2.3125 -1.453125q1.125 -0.859375 2.25 -2.03125l0 -7.265625q-4.53125 0.203125 -7.578125 0.78125q-3.046875 0.5625 -4.890625 1.453125q-1.84375 0.875 -2.625 2.046875q-0.78125 1.171875 -0.78125 2.5625q0 2.734375 1.609375 3.90625q1.625 1.171875 4.234375 1.171875zm60.645905 -27.515625q-0.46875 0.59375 -0.90625 0.9375q-0.4375 0.328125 -1.28125 0.328125q-0.796875 0 -1.5625 -0.484375q-0.75 -0.484375 -1.796875 -1.09375q-1.046875 -0.609375 -2.5 -1.09375q-1.453125 -0.484375 -3.59375 -0.484375q-2.71875 0 -4.78125 1.0q-2.0625 0.984375 -3.4375 2.828125q-1.359375 1.84375 -2.03125 4.46875q-0.671875 2.625 -0.671875 5.953125q0 3.4375 0.734375 6.125q0.734375 2.6875 2.125 4.515625q1.390625 1.828125 3.359375 2.78125q1.984375 0.9375 4.453125 0.9375q2.484375 0 4.015625 -0.609375q1.53125 -0.609375 2.578125 -1.34375q1.046875 -0.734375 1.828125 -1.34375q0.78125 -0.609375 1.75 -0.609375q1.25 0 1.890625 0.96875l2.96875 3.78125q-1.71875 2.015625 -3.734375 3.375q-2.015625 1.359375 -4.1875 2.1875q-2.15625 0.8125 -4.46875 1.140625q-2.296875 0.34375 -4.5625 0.34375q-4.0 0 -7.53125 -1.484375q-3.5155945 -1.5 -6.1405945 -4.34375q-2.625 -2.859375 -4.171875 -7.0q-1.53125 -4.140625 -1.53125 -9.421875q0 -4.75 1.359375 -8.796875q1.375 -4.0625 4.015625 -7.015625q2.65625 -2.96875 6.5624695 -4.640625q3.90625 -1.6875 8.984375 -1.6875q4.828125 0 8.453125 1.5625q3.640625 1.546875 6.546875 4.4375l-2.734375 3.78125zm20.286865 -28.421875l0 35.734375l1.921875 0q1.0625 0 1.640625 -0.296875q0.59375 -0.296875 1.265625 -1.09375l10.703125 -13.21875q0.71875 -0.84375 1.515625 -1.328125q0.796875 -0.484375 2.109375 -0.484375l9.484375 0l-13.390625 16.0q-0.71875 0.890625 -1.484375 1.625q-0.75 0.734375 -1.625 1.28125q0.875 0.625 1.546875 1.46875q0.671875 0.84375 1.34375 1.796875l14.359375 20.921875l-9.359375 0q-1.21875 0 -2.0625 -0.421875q-0.828125 -0.421875 -1.5 -1.421875l-10.96875 -16.34375q-0.625 -0.96875 -1.265625 -1.25q-0.625 -0.296875 -1.890625 -0.296875l-2.34375 0l0 19.734375l-10.375 0l0 -62.40625l10.375 0zm52.61621 62.40625l0 -60.734375l20.96875 0q5.953125 0 10.171875 1.140625q4.234375 1.125 6.9375 3.234375q2.703125 2.09375 3.96875 5.078125q1.265625 2.984375 1.265625 6.71875q0 2.140625 -0.640625 4.09375q-0.625 1.953125 -1.953125 3.65625q-1.3125 1.703125 -3.359375 3.09375q-2.03125 1.375 -4.84375 2.34375q12.515625 2.8125 12.515625 13.53125q0 3.859375 -1.46875 7.140625q-1.46875 3.265625 -4.28125 5.640625q-2.8125 2.375 -6.9375 3.71875q-4.109375 1.34375 -9.40625 1.34375l-22.9375 0zm11.3125 -26.625l0 17.8125l11.453125 0q3.15625 0 5.265625 -0.75q2.125 -0.765625 3.40625 -2.03125q1.28125 -1.265625 1.84375 -2.9375q0.578125 -1.6875 0.578125 -3.578125q0 -1.96875 -0.640625 -3.53125q-0.625 -1.578125 -1.96875 -2.6875q-1.34375 -1.125 -3.4375 -1.703125q-2.09375 -0.59375 -5.078125 -0.59375l-11.421875 0zm0 -7.8125l9.015625 0q5.765625 0 8.734375 -2.09375q2.984375 -2.109375 2.984375 -6.6875q0 -4.75 -2.6875 -6.765625q-2.6875 -2.015625 -8.390625 -2.015625l-9.65625 0l0 17.5625zm53.882324 -27.96875l0 62.40625l-10.375 0l0 -62.40625l10.375 0zm30.107788 18.640625q4.828125 0 8.75 1.5625q3.9375 1.546875 6.703125 4.40625q2.78125 2.859375 4.28125 6.96875q1.515625 4.109375 1.515625 9.203125q0 5.125 -1.515625 9.234375q-1.5 4.109375 -4.28125 7.015625q-2.765625 2.890625 -6.703125 4.453125q-3.921875 1.546875 -8.75 1.546875q-4.828125 0 -8.78125 -1.546875q-3.9375 -1.5625 -6.734375 -4.453125q-2.796875 -2.90625 -4.328125 -7.015625q-1.53125 -4.109375 -1.53125 -9.234375q0 -5.09375 1.53125 -9.203125q1.53125 -4.109375 4.328125 -6.96875q2.796875 -2.859375 6.734375 -4.40625q3.953125 -1.5625 8.78125 -1.5625zm0 36.421875q5.375 0 7.953125 -3.609375q2.59375 -3.625 2.59375 -10.59375q0 -6.96875 -2.59375 -10.625q-2.578125 -3.65625 -7.953125 -3.65625q-5.453125 0 -8.0625 3.6875q-2.609375 3.671875 -2.609375 10.59375q0 6.9375 2.609375 10.578125q2.609375 3.625 8.0625 3.625zm59.644653 -26.640625q-0.46875 0.59375 -0.90625 0.9375q-0.4375 0.328125 -1.28125 0.328125q-0.796875 0 -1.5625 -0.484375q-0.75 -0.484375 -1.796875 -1.09375q-1.046875 -0.609375 -2.5 -1.09375q-1.453125 -0.484375 -3.59375 -0.484375q-2.71875 0 -4.78125 1.0q-2.0625 0.984375 -3.4375 2.828125q-1.359375 1.84375 -2.03125 4.46875q-0.671875 2.625 -0.671875 5.953125q0 3.4375 0.734375 6.125q0.734375 2.6875 2.125 4.515625q1.390625 1.828125 3.359375 2.78125q1.984375 0.9375 4.453125 0.9375q2.484375 0 4.015625 -0.609375q1.53125 -0.609375 2.578125 -1.34375q1.046875 -0.734375 1.828125 -1.34375q0.78125 -0.609375 1.75 -0.609375q1.25 0 1.890625 0.96875l2.96875 3.78125q-1.71875 2.015625 -3.734375 3.375q-2.015625 1.359375 -4.1875 2.1875q-2.15625 0.8125 -4.46875 1.140625q-2.296875 0.34375 -4.5625 0.34375q-4.0 0 -7.53125 -1.484375q-3.515625 -1.5 -6.140625 -4.34375q-2.625 -2.859375 -4.171875 -7.0q-1.53125 -4.140625 -1.53125 -9.421875q0 -4.75 1.359375 -8.796875q1.375 -4.0625 4.015625 -7.015625q2.65625 -2.96875 6.5625 -4.640625q3.90625 -1.6875 8.984375 -1.6875q4.828125 0 8.453125 1.5625q3.640625 1.546875 6.546875 4.4375l-2.734375 3.78125zm20.286804 -28.421875l0 35.734375l1.921875 0q1.0625 0 1.640625 -0.296875q0.59375 -0.296875 1.265625 -1.09375l10.703125 -13.21875q0.71875 -0.84375 1.515625 -1.328125q0.796875 -0.484375 2.109375 -0.484375l9.484375 0l-13.390625 16.0q-0.71875 0.890625 -1.484375 1.625q-0.75 0.734375 -1.625 1.28125q0.875 0.625 1.546875 1.46875q0.671875 0.84375 1.34375 1.796875l14.359375 20.921875l-9.359375 0q-1.21875 0 -2.0625 -0.421875q-0.828125 -0.421875 -1.5 -1.421875l-10.96875 -16.34375q-0.625 -0.96875 -1.265625 -1.25q-0.625 -0.296875 -1.890625 -0.296875l-2.34375 0l0 19.734375l-10.375 0l0 -62.40625l10.375 0z" fill-rule="nonzero"/><path fill="#000000" fill-opacity="0.0" d="m1329.7708 804.09186l599.5591 0l0 121.19684l-599.5591 0z" fill-rule="evenodd"/><path fill="#000000" d="m1399.4971 884.6225q3.28125 0 5.859375 -1.09375q2.578125 -1.09375 4.359375 -3.0625q1.796875 -1.984375 2.734375 -4.796875q0.953125 -2.8125 0.953125 -6.296875l0 -36.375l11.296875 0l0 36.375q0 5.421875 -1.75 10.015625q-1.734375 4.59375 -5.015625 7.9375q-3.28125 3.34375 -7.953125 5.21875q-4.65625 1.859375 -10.484375 1.859375q-5.84375 0 -10.515625 -1.859375q-4.65625 -1.875 -7.90625 -5.21875q-3.25 -3.34375 -5.0 -7.9375q-1.734375 -4.59375 -1.734375 -10.015625l0 -36.375l11.296875 0l0 36.328125q0 3.484375 0.9375 6.3125q0.953125 2.8125 2.71875 4.8125q1.765625 1.984375 4.34375 3.078125q2.578125 1.09375 5.859375 1.09375zm36.12085 9.109375l0 -43.09375l6.34375 0q2.015625 0 2.640625 1.890625l0.71875 3.40625q1.296875 -1.34375 2.75 -2.4375q1.453125 -1.09375 3.0625 -1.890625q1.625 -0.796875 3.46875 -1.21875q1.84375 -0.421875 4.03125 -0.421875q3.53125 0 6.25 1.203125q2.734375 1.1875 4.5625 3.359375q1.828125 2.15625 2.765625 5.171875q0.953125 3.0 0.953125 6.609375l0 27.421875l-10.375 0l0 -27.421875q0 -3.953125 -1.828125 -6.109375q-1.828125 -2.171875 -5.484375 -2.171875q-2.6875 0 -5.046875 1.21875q-2.34375 1.21875 -4.4375 3.328125l0 31.15625l-10.375 0zm73.33215 -34.6875q-0.421875 0.671875 -0.890625 0.953125q-0.453125 0.265625 -1.171875 0.265625q-0.75 0 -1.609375 -0.421875q-0.859375 -0.421875 -2.0 -0.9375q-1.140625 -0.53125 -2.59375 -0.953125q-1.4375 -0.421875 -3.40625 -0.421875q-3.078125 0 -4.84375 1.3125q-1.75 1.296875 -1.75 3.390625q0 1.390625 0.890625 2.34375q0.90625 0.9375 2.390625 1.65625q1.5 0.703125 3.390625 1.28125q1.890625 0.5625 3.859375 1.234375q1.984375 0.671875 3.859375 1.53125q1.890625 0.859375 3.375 2.1875q1.5 1.3125 2.40625 3.171875q0.90625 1.84375 0.90625 4.4375q0 3.109375 -1.140625 5.734375q-1.125 2.625 -3.3125 4.546875q-2.1875 1.90625 -5.40625 2.984375q-3.203125 1.0625 -7.359375 1.0625q-2.234375 0 -4.359375 -0.40625q-2.109375 -0.390625 -4.0625 -1.09375q-1.953125 -0.71875 -3.609375 -1.6875q-1.65625 -0.96875 -2.921875 -2.109375l2.390625 -3.9375q0.46875 -0.71875 1.09375 -1.09375q0.625 -0.375 1.59375 -0.375q0.96875 0 1.828125 0.546875q0.859375 0.53125 1.984375 1.171875q1.140625 0.625 2.671875 1.171875q1.546875 0.546875 3.890625 0.546875q1.84375 0 3.171875 -0.4375q1.328125 -0.4375 2.1875 -1.15625q0.859375 -0.71875 1.25 -1.65625q0.40625 -0.953125 0.40625 -1.953125q0 -1.515625 -0.90625 -2.484375q-0.90625 -0.96875 -2.390625 -1.671875q-1.484375 -0.71875 -3.40625 -1.28125q-1.90625 -0.578125 -3.90625 -1.25q-1.984375 -0.671875 -3.90625 -1.5625q-1.90625 -0.90625 -3.40625 -2.296875q-1.484375 -1.390625 -2.390625 -3.40625q-0.890625 -2.015625 -0.890625 -4.875q0 -2.640625 1.046875 -5.03125q1.046875 -2.390625 3.078125 -4.171875q2.046875 -1.796875 5.078125 -2.859375q3.046875 -1.078125 7.046875 -1.078125q4.453125 0 8.09375 1.46875q3.65625 1.46875 6.09375 3.859375l-2.34375 3.75zm25.286133 35.359375q-5.59375 0 -8.625 -3.171875q-3.015625 -3.171875 -3.015625 -8.75l0 -24.078125l-4.359375 0q-0.84375 0 -1.453125 -0.53125q-0.609375 -0.546875 -0.609375 -1.640625l0 -4.125l6.921875 -1.125l2.1875 -11.765625q0.171875 -0.84375 0.78125 -1.296875q0.609375 -0.46875 1.53125 -0.46875l5.375 0l0 13.5625l11.34375 0l0 7.390625l-11.34375 0l0 23.359375q0 2.015625 1.0 3.15625q1.015625 1.125 2.703125 1.125q0.953125 0 1.609375 -0.21875q0.65625 -0.234375 1.140625 -0.484375q0.484375 -0.265625 0.859375 -0.484375q0.375 -0.234375 0.75 -0.234375q0.46875 0 0.75 0.234375q0.296875 0.21875 0.640625 0.6875l3.109375 5.03125q-2.265625 1.890625 -5.21875 2.859375q-2.9375 0.96875 -6.078125 0.96875zm52.11743 -0.671875l-4.65625 0q-1.46875 0 -2.3125 -0.4375q-0.84375 -0.4375 -1.265625 -1.78125l-0.921875 -3.078125q-1.640625 1.46875 -3.21875 2.59375q-1.5625 1.109375 -3.25 1.875q-1.671875 0.75 -3.5625 1.125q-1.890625 0.375 -4.203125 0.375q-2.734375 0 -5.046875 -0.734375q-2.3125 -0.734375 -3.96875 -2.203125q-1.65625 -1.46875 -2.578125 -3.65625q-0.921875 -2.1875 -0.921875 -5.078125q0 -2.4375 1.28125 -4.8125q1.28125 -2.375 4.25 -4.28125q2.984375 -1.921875 7.9375 -3.171875q4.96875 -1.265625 12.3125 -1.4375l0 -2.515625q0 -4.328125 -1.828125 -6.40625q-1.828125 -2.078125 -5.3125 -2.078125q-2.515625 0 -4.203125 0.59375q-1.671875 0.578125 -2.921875 1.328125q-1.234375 0.734375 -2.28125 1.328125q-1.046875 0.578125 -2.3125 0.578125q-1.046875 0 -1.8125 -0.546875q-0.75 -0.546875 -1.203125 -1.34375l-1.890625 -3.328125q7.4375 -6.796875 17.9375 -6.796875q3.765625 0 6.71875 1.25q2.96875 1.234375 5.03125 3.4375q2.0625 2.203125 3.125 5.265625q1.078125 3.0625 1.078125 6.71875l0 27.21875zm-20.15625 -6.46875q1.59375 0 2.9375 -0.296875q1.34375 -0.296875 2.53125 -0.875q1.203125 -0.59375 2.3125 -1.453125q1.125 -0.859375 2.25 -2.03125l0 -7.265625q-4.53125 0.203125 -7.578125 0.78125q-3.046875 0.5625 -4.890625 1.453125q-1.84375 0.875 -2.625 2.046875q-0.78125 1.171875 -0.78125 2.5625q0 2.734375 1.609375 3.90625q1.625 1.171875 4.234375 1.171875zm60.645996 -27.515625q-0.46875 0.59375 -0.90625 0.9375q-0.4375 0.328125 -1.28125 0.328125q-0.796875 0 -1.5625 -0.484375q-0.75 -0.484375 -1.796875 -1.09375q-1.046875 -0.609375 -2.5 -1.09375q-1.453125 -0.484375 -3.59375 -0.484375q-2.71875 0 -4.78125 1.0q-2.0625 0.984375 -3.4375 2.828125q-1.359375 1.84375 -2.03125 4.46875q-0.671875 2.625 -0.671875 5.953125q0 3.4375 0.734375 6.125q0.734375 2.6875 2.125 4.515625q1.390625 1.828125 3.359375 2.78125q1.984375 0.9375 4.453125 0.9375q2.484375 0 4.015625 -0.609375q1.53125 -0.609375 2.578125 -1.34375q1.046875 -0.734375 1.828125 -1.34375q0.78125 -0.609375 1.75 -0.609375q1.25 0 1.890625 0.96875l2.96875 3.78125q-1.71875 2.015625 -3.734375 3.375q-2.015625 1.359375 -4.1875 2.1875q-2.15625 0.8125 -4.46875 1.140625q-2.296875 0.34375 -4.5625 0.34375q-4.0 0 -7.53125 -1.484375q-3.515625 -1.5 -6.140625 -4.34375q-2.625 -2.859375 -4.171875 -7.0q-1.53125 -4.140625 -1.53125 -9.421875q0 -4.75 1.359375 -8.796875q1.375 -4.0625 4.015625 -7.015625q2.65625 -2.96875 6.5625 -4.640625q3.90625 -1.6875 8.984375 -1.6875q4.828125 0 8.453125 1.5625q3.640625 1.546875 6.546875 4.4375l-2.734375 3.78125zm20.286743 -28.421875l0 35.734375l1.921875 0q1.0625 0 1.640625 -0.296875q0.59375 -0.296875 1.265625 -1.09375l10.703125 -13.21875q0.71875 -0.84375 1.515625 -1.328125q0.796875 -0.484375 2.109375 -0.484375l9.484375 0l-13.390625 16.0q-0.71875 0.890625 -1.484375 1.625q-0.75 0.734375 -1.625 1.28125q0.875 0.625 1.546875 1.46875q0.671875 0.84375 1.34375 1.796875l14.359375 20.921875l-9.359375 0q-1.21875 0 -2.0625 -0.421875q-0.828125 -0.421875 -1.5 -1.421875l-10.96875 -16.34375q-0.625 -0.96875 -1.265625 -1.25q-0.625 -0.296875 -1.890625 -0.296875l-2.34375 0l0 19.734375l-10.375 0l0 -62.40625l10.375 0zm52.61621 62.40625l0 -60.734375l20.96875 0q5.953125 0 10.171875 1.140625q4.234375 1.125 6.9375 3.234375q2.703125 2.09375 3.96875 5.078125q1.265625 2.984375 1.265625 6.71875q0 2.140625 -0.640625 4.09375q-0.625 1.953125 -1.953125 3.65625q-1.3125 1.703125 -3.359375 3.09375q-2.03125 1.375 -4.84375 2.34375q12.515625 2.8125 12.515625 13.53125q0 3.859375 -1.46875 7.140625q-1.46875 3.265625 -4.28125 5.640625q-2.8125 2.375 -6.9375 3.71875q-4.109375 1.34375 -9.40625 1.34375l-22.9375 0zm11.3125 -26.625l0 17.8125l11.453125 0q3.15625 0 5.265625 -0.75q2.125 -0.765625 3.40625 -2.03125q1.28125 -1.265625 1.84375 -2.9375q0.578125 -1.6875 0.578125 -3.578125q0 -1.96875 -0.640625 -3.53125q-0.625 -1.578125 -1.96875 -2.6875q-1.34375 -1.125 -3.4375 -1.703125q-2.09375 -0.59375 -5.078125 -0.59375l-11.421875 0zm0 -7.8125l9.015625 0q5.765625 0 8.734375 -2.09375q2.984375 -2.109375 2.984375 -6.6875q0 -4.75 -2.6875 -6.765625q-2.6875 -2.015625 -8.390625 -2.015625l-9.65625 0l0 17.5625zm61.226074 -9.328125q4.828125 0 8.75 1.5625q3.9375 1.546875 6.703125 4.40625q2.78125 2.859375 4.28125 6.96875q1.515625 4.109375 1.515625 9.203125q0 5.125 -1.515625 9.234375q-1.5 4.109375 -4.28125 7.015625q-2.765625 2.890625 -6.703125 4.453125q-3.921875 1.546875 -8.75 1.546875q-4.828125 0 -8.78125 -1.546875q-3.9375 -1.5625 -6.734375 -4.453125q-2.796875 -2.90625 -4.328125 -7.015625q-1.53125 -4.109375 -1.53125 -9.234375q0 -5.09375 1.53125 -9.203125q1.53125 -4.109375 4.328125 -6.96875q2.796875 -2.859375 6.734375 -4.40625q3.953125 -1.5625 8.78125 -1.5625zm0 36.421875q5.375 0 7.953125 -3.609375q2.59375 -3.625 2.59375 -10.59375q0 -6.96875 -2.59375 -10.625q-2.578125 -3.65625 -7.953125 -3.65625q-5.453125 0 -8.0625 3.6875q-2.609375 3.671875 -2.609375 10.59375q0 6.9375 2.609375 10.578125q2.609375 3.625 8.0625 3.625zm47.75415 -36.421875q4.828125 0 8.75 1.5625q3.9375 1.546875 6.703125 4.40625q2.78125 2.859375 4.28125 6.96875q1.515625 4.109375 1.515625 9.203125q0 5.125 -1.515625 9.234375q-1.5 4.109375 -4.28125 7.015625q-2.765625 2.890625 -6.703125 4.453125q-3.921875 1.546875 -8.75 1.546875q-4.828125 0 -8.78125 -1.546875q-3.9375 -1.5625 -6.734375 -4.453125q-2.796875 -2.90625 -4.328125 -7.015625q-1.53125 -4.109375 -1.53125 -9.234375q0 -5.09375 1.53125 -9.203125q1.53125 -4.109375 4.328125 -6.96875q2.796875 -2.859375 6.734375 -4.40625q3.953125 -1.5625 8.78125 -1.5625zm0 36.421875q5.375 0 7.953125 -3.609375q2.59375 -3.625 2.59375 -10.59375q0 -6.96875 -2.59375 -10.625q-2.578125 -3.65625 -7.953125 -3.65625q-5.453125 0 -8.0625 3.6875q-2.609375 3.671875 -2.609375 10.59375q0 6.9375 2.609375 10.578125q2.609375 3.625 8.0625 3.625zm39.863403 -55.0625l0 35.734375l1.921875 0q1.0625 0 1.640625 -0.296875q0.59375 -0.296875 1.265625 -1.09375l10.703125 -13.21875q0.71875 -0.84375 1.515625 -1.328125q0.796875 -0.484375 2.109375 -0.484375l9.484375 0l-13.390625 16.0q-0.71875 0.890625 -1.484375 1.625q-0.75 0.734375 -1.625 1.28125q0.875 0.625 1.546875 1.46875q0.671875 0.84375 1.34375 1.796875l14.359375 20.921875l-9.359375 0q-1.21875 0 -2.0625 -0.421875q-0.828125 -0.421875 -1.5 -1.421875l-10.96875 -16.34375q-0.625 -0.96875 -1.265625 -1.25q-0.625 -0.296875 -1.890625 -0.296875l-2.34375 0l0 19.734375l-10.375 0l0 -62.40625l10.375 0z" fill-rule="nonzero"/></g></svg>