<svg version="1.1" viewBox="0.0 0.0 3383.283464566929 1721.2152230971128" fill="none" stroke="none" stroke-linecap="square" stroke-miterlimit="10" xmlns:xlink="http://www.w3.org/1999/xlink" xmlns="http://www.w3.org/2000/svg"><clipPath id="p.0"><path d="m0 0l3383.2834 0l0 1721.2152l-3383.2834 0l0 -1721.2152z" clip-rule="nonzero"/></clipPath><g clip-path="url(#p.0)"><path fill="#000000" fill-opacity="0.0" d="m0 0l3383.2834 0l0 1721.2152l-3383.2834 0z" fill-rule="evenodd"/><path fill="#efefef" d="m2387.1077 23.301838l956.0 0l0 728.0l-956.0 0z" fill-rule="evenodd"/><path stroke="#000000" stroke-width="8.0" stroke-linejoin="round" stroke-linecap="butt" d="m2387.1077 23.301838l956.0 0l0 728.0l-956.0 0z" fill-rule="evenodd"/><path fill="#ffffff" d="m2811.2864 445.6334l114.740234 0l0 114.74014l-114.740234 0z" fill-rule="evenodd"/><path stroke="#000000" stroke-width="4.0" stroke-linejoin="round" stroke-linecap="butt" d="m2811.2864 445.6334l114.740234 0l0 114.74014l-114.740234 0z" fill-rule="evenodd"/><path fill="#000000" d="m2850.5742 492.44095l9.734375 0l8.265625 24.53128l8.078125 -24.53128l9.46875 0l-12.203125 33.265656l-2.1875 6.015625q-1.203125 3.03125 -2.296875 4.625q-1.09375 1.59375 -2.515625 2.578125q-1.40625 1.0 -3.46875 1.546875q-2.0625 0.5625 -4.671875 0.5625q-2.640625 0 -5.171875 -0.5625l-0.8125 -7.15625q2.140625 0.421875 3.875 0.421875q3.1875 0 4.71875 -1.875q1.53125 -1.859375 2.34375 -4.765625l-13.15625 -34.65628z" fill-rule="nonzero"/><path fill="#ffffff" d="m2870.7039 281.6571l114.73999 0l0 114.74014l-114.73999 0z" fill-rule="evenodd"/><path stroke="#000000" stroke-width="4.0" stroke-linejoin="round" stroke-linecap="butt" d="m2870.7039 281.6571l114.73999 0l0 114.74014l-114.73999 0z" fill-rule="evenodd"/><path fill="#000000" d="m2909.929 363.02716l12.46875 -17.796875l-11.953125 -16.765625l11.171875 0l6.109375 9.5l6.453125 -9.5l10.734375 0l-11.71875 16.375l12.796875 18.1875l-11.234375 0l-7.03125 -10.703125l-7.09375 10.703125l-10.703125 0z" fill-rule="nonzero"/><path fill="#efefef" d="m75.55905 23.301838l956.0 0l0 728.0l-956.0 0z" fill-rule="evenodd"/><path stroke="#000000" stroke-width="8.0" stroke-linejoin="round" stroke-linecap="butt" d="m75.55905 23.301838l956.0 0l0 728.0l-956.0 0z" fill-rule="evenodd"/><path fill="#efefef" d="m2383.559 952.8058l956.0 0l0 728.0l-956.0 0z" fill-rule="evenodd"/><path stroke="#000000" stroke-width="8.0" stroke-linejoin="round" stroke-linecap="butt" d="m2383.559 952.8058l956.0 0l0 728.0l-956.0 0z" fill-rule="evenodd"/><path fill="#efefef" d="m76.36483 952.8058l956.00006 0l0 728.0l-956.00006 0z" fill-rule="evenodd"/><path stroke="#000000" stroke-width="8.0" stroke-linejoin="round" stroke-linecap="butt" d="m76.36483 952.8058l956.00006 0l0 728.0l-956.00006 0z" fill-rule="evenodd"/><path fill="#7f6000" d="m116.48819 1606.2205l874.1417 0l0 27.590576l-874.1417 0z" fill-rule="evenodd"/><path stroke="#000000" stroke-width="4.0" stroke-linejoin="round" stroke-linecap="butt" d="m116.48819 1606.2205l874.1417 0l0 27.590576l-874.1417 0z" fill-rule="evenodd"/><path fill="#cc0000" d="m335.85828 1489.8197l114.74014 0l0 114.740234l-114.74014 0z" fill-rule="evenodd"/><path stroke="#000000" stroke-width="4.0" stroke-linejoin="round" stroke-linecap="butt" d="m335.85828 1489.8197l114.74014 0l0 114.740234l-114.74014 0z" fill-rule="evenodd"/><path fill="#000000" d="m374.03485 1523.4711l19.078125 0q5.671875 0 8.453125 0.484375q2.78125 0.46875 4.96875 1.96875q2.203125 1.484375 3.65625 3.984375q1.46875 2.484375 1.46875 5.578125q0 3.34375 -1.8125 6.15625q-1.796875 2.796875 -4.890625 4.1875q4.359375 1.28125 6.703125 4.34375q2.34375 3.046875 2.34375 7.1875q0 3.25 -1.515625 6.328125q-1.5 3.078125 -4.125 4.921875q-2.625 1.828125 -6.453125 2.25q-2.421875 0.265625 -11.625 0.328125l-16.25 0l0 -47.71875zm9.640625 7.953125l0 11.03125l6.3125 0q5.625 0 7.0 -0.171875q2.46875 -0.28125 3.890625 -1.703125q1.421875 -1.421875 1.421875 -3.734375q0 -2.203125 -1.234375 -3.578125q-1.21875 -1.390625 -3.625 -1.6875q-1.4375 -0.15625 -8.234375 -0.15625l-5.53125 0zm0 18.96875l0 12.75l8.921875 0q5.203125 0 6.609375 -0.28125q2.140625 -0.390625 3.484375 -1.90625q1.359375 -1.515625 1.359375 -4.046875q0 -2.15625 -1.046875 -3.65625q-1.03125 -1.5 -3.0 -2.171875q-1.96875 -0.6875 -8.546875 -0.6875l-7.78125 0z" fill-rule="nonzero"/><path fill="#6aa84f" d="m163.5105 1489.8198l114.74017 0l0 114.74011l-114.74017 0z" fill-rule="evenodd"/><path stroke="#000000" stroke-width="4.0" stroke-linejoin="round" stroke-linecap="butt" d="m163.5105 1489.8198l114.74017 0l0 114.74011l-114.74017 0z" fill-rule="evenodd"/><path fill="#000000" d="m244.68707 1571.19l-10.484375 0l-4.15625 -10.84375l-19.078125 0l-3.9375 10.84375l-10.21875 0l18.578125 -47.71875l10.1875 0l19.109375 47.71875zm-17.734375 -18.875l-6.578125 -17.703125l-6.4375 17.703125l13.015625 0z" fill-rule="nonzero"/><path fill="#f1c232" d="m499.73788 1489.8191l114.74014 0l0 114.74011l-114.74014 0z" fill-rule="evenodd"/><path stroke="#000000" stroke-width="4.0" stroke-linejoin="round" stroke-linecap="butt" d="m499.73788 1489.8191l114.74014 0l0 114.74011l-114.74014 0z" fill-rule="evenodd"/><path fill="#000000" d="m568.4144 1553.6422l9.34375 2.96875q-2.140625 7.8125 -7.140625 11.609375q-5.0 3.78125 -12.671875 3.78125q-9.515625 0 -15.640625 -6.484375q-6.109375 -6.5 -6.109375 -17.765625q0 -11.90625 6.140625 -18.5q6.15625 -6.59375 16.1875 -6.59375q8.75 0 14.21875 5.171875q3.265625 3.0625 4.890625 8.796875l-9.546875 2.28125q-0.84375 -3.71875 -3.53125 -5.859375q-2.671875 -2.15625 -6.515625 -2.15625q-5.3125 0 -8.625 3.8125q-3.296875 3.8125 -3.296875 12.328125q0 9.046875 3.25 12.890625q3.265625 3.84375 8.46875 3.84375q3.84375 0 6.609375 -2.4375q2.765625 -2.4375 3.96875 -7.6875z" fill-rule="nonzero"/><path fill="#674ea7" d="m499.73788 1377.6334l114.74014 0l0 114.74011l-114.74014 0z" fill-rule="evenodd"/><path stroke="#000000" stroke-width="12.0" stroke-linejoin="round" stroke-linecap="butt" d="m499.73788 1377.6334l114.74014 0l0 114.74011l-114.74014 0z" fill-rule="evenodd"/><path fill="#000000" d="m537.8519 1411.2847l17.609375 0q5.953125 0 9.078125 0.921875q4.203125 1.234375 7.1875 4.390625q3.0 3.15625 4.5625 7.734375q1.5625 4.5625 1.5625 11.265625q0 5.890625 -1.453125 10.15625q-1.796875 5.203125 -5.109375 8.4375q-2.515625 2.4375 -6.78125 3.796875q-3.1875 1.015625 -8.515625 1.015625l-18.140625 0l0 -47.71875zm9.640625 8.078125l0 31.59375l7.1875 0q4.03125 0 5.828125 -0.453125q2.34375 -0.578125 3.890625 -1.96875q1.546875 -1.40625 2.515625 -4.609375q0.984375 -3.21875 0.984375 -8.75q0 -5.53125 -0.984375 -8.484375q-0.96875 -2.96875 -2.734375 -4.625q-1.75 -1.65625 -4.453125 -2.25q-2.015625 -0.453125 -7.90625 -0.453125l-4.328125 0z" fill-rule="nonzero"/><path fill="#674ea7" d="m499.73788 1261.9327l114.74014 0l0 114.74011l-114.74014 0z" fill-rule="evenodd"/><path stroke="#000000" stroke-width="12.0" stroke-linejoin="round" stroke-linecap="butt" d="m499.73788 1261.9327l114.74014 0l0 114.74011l-114.74014 0z" fill-rule="evenodd"/><path fill="#000000" d="m539.7221 1343.3027l0 -47.71875l35.390625 0l0 8.078125l-25.75 0l0 10.578125l23.953125 0l0 8.03125l-23.953125 0l0 12.984375l26.65625 0l0 8.046875l-36.296875 0z" fill-rule="nonzero"/><path fill="#3d85c6" d="m663.6168 1489.8198l114.74011 0l0 114.740234l-114.74011 0z" fill-rule="evenodd"/><path stroke="#000000" stroke-width="4.0" stroke-linejoin="round" stroke-linecap="butt" d="m663.6168 1489.8198l114.74011 0l0 114.740234l-114.74011 0z" fill-rule="evenodd"/><path fill="#000000" d="m705.5506 1571.19l0 -47.71875l32.703125 0l0 8.078125l-23.078125 0l0 11.296875l19.921875 0l0 8.0625l-19.921875 0l0 20.28125l-9.625 0z" fill-rule="nonzero"/><path fill="#ffffff" d="m148.48854 1052.2529l114.74016 0l0 114.74011l-114.74016 0z" fill-rule="evenodd"/><path stroke="#000000" stroke-width="12.0" stroke-linejoin="round" stroke-linecap="butt" d="m148.48854 1052.2529l114.74016 0l0 114.74011l-114.74016 0z" fill-rule="evenodd"/><path fill="#000000" d="m187.45177 1128.823l-7.3125 0l0 -14.109375q0 -4.484375 -0.46875 -5.796875q-0.46875 -1.3125 -1.53125 -2.046875q-1.046875 -0.734375 -2.53125 -0.734375q-1.90625 0 -3.421875 1.046875q-1.5 1.046875 -2.0625 2.765625q-0.5625 1.71875 -0.5625 6.34375l0 12.53125l-7.3125 0l0 -27.65625l6.796875 0l0 4.0625q3.609375 -4.6875 9.109375 -4.6875q2.421875 0 4.421875 0.875q2.015625 0.875 3.03125 2.234375q1.03125 1.34375 1.4375 3.0625q0.40625 1.71875 0.40625 4.921875l0 17.1875zm25.621826 0l0 -4.140625q-1.515625 2.21875 -3.984375 3.5q-2.453125 1.265625 -5.1875 1.265625q-2.78125 0 -5.0 -1.21875q-2.203125 -1.234375 -3.203125 -3.4375q-0.984375 -2.21875 -0.984375 -6.125l0 -17.5l7.3125 0l0 12.703125q0 5.84375 0.40625 7.15625q0.40625 1.3125 1.46875 2.078125q1.078125 0.765625 2.71875 0.765625q1.875 0 3.359375 -1.015625q1.484375 -1.03125 2.03125 -2.546875q0.546875 -1.53125 0.546875 -7.46875l0 -11.671875l7.3125 0l0 27.65625l-6.796875 0zm14.371826 0l0 -38.171875l7.3125 0l0 38.171875l-7.3125 0zm14.816269 0l0 -38.171875l7.3125 0l0 38.171875l-7.3125 0z" fill-rule="nonzero"/><path fill="#7f6000" d="m2424.4883 1598.4908l874.1416 0l0 27.590576l-874.1416 0z" fill-rule="evenodd"/><path stroke="#000000" stroke-width="4.0" stroke-linejoin="round" stroke-linecap="butt" d="m2424.4883 1598.4908l874.1416 0l0 27.590576l-874.1416 0z" fill-rule="evenodd"/><path fill="#cc0000" d="m2643.8582 1482.0901l114.740234 0l0 114.74011l-114.740234 0z" fill-rule="evenodd"/><path stroke="#000000" stroke-width="4.0" stroke-linejoin="round" stroke-linecap="butt" d="m2643.8582 1482.0901l114.740234 0l0 114.74011l-114.740234 0z" fill-rule="evenodd"/><path fill="#000000" d="m2682.035 1515.7413l19.078125 0q5.671875 0 8.453125 0.484375q2.78125 0.46875 4.96875 1.96875q2.203125 1.484375 3.65625 3.984375q1.46875 2.484375 1.46875 5.578125q0 3.34375 -1.8125 6.15625q-1.796875 2.796875 -4.890625 4.1875q4.359375 1.28125 6.703125 4.34375q2.34375 3.046875 2.34375 7.1875q0 3.25 -1.515625 6.328125q-1.5 3.078125 -4.125 4.921875q-2.625 1.828125 -6.453125 2.25q-2.421875 0.265625 -11.625 0.328125l-16.25 0l0 -47.71875zm9.640625 7.953125l0 11.03125l6.3125 0q5.625 0 7.0 -0.171875q2.46875 -0.28125 3.890625 -1.703125q1.421875 -1.421875 1.421875 -3.734375q0 -2.203125 -1.234375 -3.578125q-1.21875 -1.390625 -3.625 -1.6875q-1.4375 -0.15625 -8.234375 -0.15625l-5.53125 0zm0 18.96875l0 12.75l8.921875 0q5.203125 0 6.609375 -0.28125q2.140625 -0.390625 3.484375 -1.90625q1.359375 -1.515625 1.359375 -4.046875q0 -2.15625 -1.046875 -3.65625q-1.03125 -1.5 -3.0 -2.171875q-1.96875 -0.6875 -8.546875 -0.6875l-7.78125 0z" fill-rule="nonzero"/><path fill="#6aa84f" d="m2471.5105 1482.0902l114.740234 0l0 114.74011l-114.740234 0z" fill-rule="evenodd"/><path stroke="#000000" stroke-width="4.0" stroke-linejoin="round" stroke-linecap="butt" d="m2471.5105 1482.0902l114.740234 0l0 114.74011l-114.740234 0z" fill-rule="evenodd"/><path fill="#000000" d="m2552.687 1563.4602l-10.484375 0l-4.15625 -10.84375l-19.078125 0l-3.9375 10.84375l-10.21875 0l18.578125 -47.71875l10.1875 0l19.109375 47.71875zm-17.734375 -18.875l-6.578125 -17.703125l-6.4375 17.703125l13.015625 0z" fill-rule="nonzero"/><path fill="#f1c232" d="m2807.7378 1482.0894l114.740234 0l0 114.740234l-114.740234 0z" fill-rule="evenodd"/><path stroke="#000000" stroke-width="4.0" stroke-linejoin="round" stroke-linecap="butt" d="m2807.7378 1482.0894l114.740234 0l0 114.740234l-114.740234 0z" fill-rule="evenodd"/><path fill="#000000" d="m2876.4146 1545.9126l9.34375 2.96875q-2.140625 7.8125 -7.140625 11.609375q-5.0 3.78125 -12.671875 3.78125q-9.515625 0 -15.640625 -6.484375q-6.109375 -6.5 -6.109375 -17.765625q0 -11.90625 6.140625 -18.5q6.15625 -6.59375 16.1875 -6.59375q8.75 0 14.21875 5.171875q3.265625 3.0625 4.890625 8.796875l-9.546875 2.28125q-0.84375 -3.71875 -3.53125 -5.859375q-2.671875 -2.15625 -6.515625 -2.15625q-5.3125 0 -8.625 3.8125q-3.296875 3.8125 -3.296875 12.328125q0 9.046875 3.25 12.890625q3.265625 3.84375 8.46875 3.84375q3.84375 0 6.609375 -2.4375q2.765625 -2.4375 3.96875 -7.6875z" fill-rule="nonzero"/><path fill="#674ea7" d="m2807.7378 1369.9037l114.740234 0l0 114.740234l-114.740234 0z" fill-rule="evenodd"/><path stroke="#000000" stroke-width="12.0" stroke-linejoin="round" stroke-linecap="butt" d="m2807.7378 1369.9037l114.740234 0l0 114.740234l-114.740234 0z" fill-rule="evenodd"/><path fill="#000000" d="m2845.852 1403.555l17.609375 0q5.953125 0 9.078125 0.921875q4.203125 1.234375 7.1875 4.390625q3.0 3.15625 4.5625 7.734375q1.5625 4.5625 1.5625 11.265625q0 5.890625 -1.453125 10.15625q-1.796875 5.203125 -5.109375 8.4375q-2.515625 2.4375 -6.78125 3.796875q-3.1875 1.015625 -8.515625 1.015625l-18.140625 0l0 -47.71875zm9.640625 8.078125l0 31.59375l7.1875 0q4.03125 0 5.828125 -0.453125q2.34375 -0.578125 3.890625 -1.96875q1.546875 -1.40625 2.515625 -4.609375q0.984375 -3.21875 0.984375 -8.75q0 -5.53125 -0.984375 -8.484375q-0.96875 -2.96875 -2.734375 -4.625q-1.75 -1.65625 -4.453125 -2.25q-2.015625 -0.453125 -7.90625 -0.453125l-4.328125 0z" fill-rule="nonzero"/><path fill="#674ea7" d="m2867.1553 1205.9275l114.73999 0l0 114.74011l-114.73999 0z" fill-rule="evenodd"/><path stroke="#000000" stroke-width="12.0" stroke-linejoin="round" stroke-linecap="butt" d="m2867.1553 1205.9275l114.73999 0l0 114.74011l-114.73999 0z" fill-rule="evenodd"/><path fill="#000000" d="m2907.1394 1287.2975l0 -47.71875l35.390625 0l0 8.078125l-25.75 0l0 10.578125l23.953125 0l0 8.03125l-23.953125 0l0 12.984375l26.65625 0l0 8.046875l-36.296875 0z" fill-rule="nonzero"/><path fill="#3d85c6" d="m2971.6167 1482.0902l114.740234 0l0 114.74011l-114.740234 0z" fill-rule="evenodd"/><path stroke="#000000" stroke-width="4.0" stroke-linejoin="round" stroke-linecap="butt" d="m2971.6167 1482.0902l114.740234 0l0 114.74011l-114.740234 0z" fill-rule="evenodd"/><path fill="#000000" d="m3013.5505 1563.4603l0 -47.71875l32.703125 0l0 8.078125l-23.078125 0l0 11.296875l19.921875 0l0 8.0625l-19.921875 0l0 20.28125l-9.625 0z" fill-rule="nonzero"/><path fill="#ffffff" d="m2456.4885 1044.5232l114.740234 0l0 114.740234l-114.740234 0z" fill-rule="evenodd"/><path stroke="#000000" stroke-width="12.0" stroke-linejoin="round" stroke-linecap="butt" d="m2456.4885 1044.5232l114.740234 0l0 114.740234l-114.740234 0z" fill-rule="evenodd"/><path fill="#000000" d="m2495.4517 1121.0933l-7.3125 0l0 -14.109375q0 -4.484375 -0.46875 -5.796875q-0.46875 -1.3125 -1.53125 -2.046875q-1.046875 -0.734375 -2.53125 -0.734375q-1.90625 0 -3.421875 1.046875q-1.5 1.046875 -2.0625 2.765625q-0.5625 1.71875 -0.5625 6.34375l0 12.53125l-7.3125 0l0 -27.65625l6.796875 0l0 4.0625q3.609375 -4.6875 9.109375 -4.6875q2.421875 0 4.421875 0.875q2.015625 0.875 3.03125 2.234375q1.03125 1.34375 1.4375 3.0625q0.40625 1.71875 0.40625 4.921875l0 17.1875zm25.621826 0l0 -4.140625q-1.515625 2.21875 -3.984375 3.5q-2.453125 1.265625 -5.1875 1.265625q-2.78125 0 -5.0 -1.21875q-2.203125 -1.234375 -3.203125 -3.4375q-0.984375 -2.21875 -0.984375 -6.125l0 -17.5l7.3125 0l0 12.703125q0 5.84375 0.40625 7.15625q0.40625 1.3125 1.46875 2.078125q1.078125 0.765625 2.71875 0.765625q1.875 0 3.359375 -1.015625q1.484375 -1.03125 2.03125 -2.546875q0.546875 -1.53125 0.546875 -7.46875l0 -11.671875l7.3125 0l0 27.65625l-6.796875 0zm14.371826 0l0 -38.171875l7.3125 0l0 38.171875l-7.3125 0zm14.816406 0l0 -38.171875l7.3125 0l0 38.171875l-7.3125 0z" fill-rule="nonzero"/><path fill="#ffffff" d="m499.73788 445.6334l114.74014 0l0 114.74014l-114.74014 0z" fill-rule="evenodd"/><path stroke="#000000" stroke-width="4.0" stroke-linejoin="round" stroke-linecap="butt" d="m499.73788 445.6334l114.74014 0l0 114.74014l-114.74014 0z" fill-rule="evenodd"/><path fill="#000000" d="m539.0256 492.44095l9.734375 0l8.265625 24.53128l8.078125 -24.53128l9.46875 0l-12.203125 33.265656l-2.1875 6.015625q-1.203125 3.03125 -2.296875 4.625q-1.09375 1.59375 -2.515625 2.578125q-1.40625 1.0 -3.46875 1.546875q-2.0625 0.5625 -4.671875 0.5625q-2.640625 0 -5.171875 -0.5625l-0.8125 -7.15625q2.140625 0.421875 3.875 0.421875q3.1875 0 4.71875 -1.875q1.53125 -1.859375 2.34375 -4.765625l-13.15625 -34.65628z" fill-rule="nonzero"/><path fill="#ffffff" d="m499.73788 329.93268l114.74014 0l0 114.74017l-114.74014 0z" fill-rule="evenodd"/><path stroke="#000000" stroke-width="4.0" stroke-linejoin="round" stroke-linecap="butt" d="m499.73788 329.93268l114.74014 0l0 114.74017l-114.74014 0z" fill-rule="evenodd"/><path fill="#000000" d="m538.9631 411.30276l12.46875 -17.796875l-11.953125 -16.765625l11.171875 0l6.109375 9.5l6.453125 -9.5l10.734375 0l-11.71875 16.375l12.796875 18.1875l-11.234375 0l-7.03125 -10.703125l-7.09375 10.703125l-10.703125 0z" fill-rule="nonzero"/><path fill="#ffffff" d="m148.48854 120.25289l114.74016 0l0 114.740166l-114.74016 0z" fill-rule="evenodd"/><path stroke="#000000" stroke-width="4.0" stroke-linejoin="round" stroke-linecap="butt" d="m148.48854 120.25289l114.74016 0l0 114.740166l-114.74016 0z" fill-rule="evenodd"/><path fill="#000000" d="m187.45177 196.82297l-7.3125 0l0 -14.109375q0 -4.484375 -0.46875 -5.796875q-0.46875 -1.3125 -1.53125 -2.046875q-1.046875 -0.734375 -2.53125 -0.734375q-1.90625 0 -3.421875 1.046875q-1.5 1.046875 -2.0625 2.765625q-0.5625 1.71875 -0.5625 6.34375l0 12.53125l-7.3125 0l0 -27.65625l6.796875 0l0 4.0625q3.609375 -4.6875 9.109375 -4.6875q2.421875 0 4.421875 0.875q2.015625 0.875 3.03125 2.234375q1.03125 1.34375 1.4375 3.0625q0.40625 1.71875 0.40625 4.921875l0 17.1875zm25.621826 0l0 -4.140625q-1.515625 2.21875 -3.984375 3.5q-2.453125 1.265625 -5.1875 1.265625q-2.78125 0 -5.0 -1.21875q-2.203125 -1.234375 -3.203125 -3.4375q-0.984375 -2.21875 -0.984375 -6.125l0 -17.5l7.3125 0l0 12.703125q0 5.84375 0.40625 7.15625q0.40625 1.3125 1.46875 2.078125q1.078125 0.765625 2.71875 0.765625q1.875 0 3.359375 -1.015625q1.484375 -1.03125 2.03125 -2.546875q0.546875 -1.53125 0.546875 -7.46875l0 -11.671875l7.3125 0l0 27.65625l-6.796875 0zm14.371826 0l0 -38.171875l7.3125 0l0 38.171875l-7.3125 0zm14.816269 0l0 -38.171875l7.3125 0l0 38.171875l-7.3125 0z" fill-rule="nonzero"/><path fill="#ffffff" d="m2456.4885 120.25289l114.740234 0l0 114.740166l-114.740234 0z" fill-rule="evenodd"/><path stroke="#000000" stroke-width="4.0" stroke-linejoin="round" stroke-linecap="butt" d="m2456.4885 120.25289l114.740234 0l0 114.740166l-114.740234 0z" fill-rule="evenodd"/><path fill="#000000" d="m2495.4517 196.82297l-7.3125 0l0 -14.109375q0 -4.484375 -0.46875 -5.796875q-0.46875 -1.3125 -1.53125 -2.046875q-1.046875 -0.734375 -2.53125 -0.734375q-1.90625 0 -3.421875 1.046875q-1.5 1.046875 -2.0625 2.765625q-0.5625 1.71875 -0.5625 6.34375l0 12.53125l-7.3125 0l0 -27.65625l6.796875 0l0 4.0625q3.609375 -4.6875 9.109375 -4.6875q2.421875 0 4.421875 0.875q2.015625 0.875 3.03125 2.234375q1.03125 1.34375 1.4375 3.0625q0.40625 1.71875 0.40625 4.921875l0 17.1875zm25.621826 0l0 -4.140625q-1.515625 2.21875 -3.984375 3.5q-2.453125 1.265625 -5.1875 1.265625q-2.78125 0 -5.0 -1.21875q-2.203125 -1.234375 -3.203125 -3.4375q-0.984375 -2.21875 -0.984375 -6.125l0 -17.5l7.3125 0l0 12.703125q0 5.84375 0.40625 7.15625q0.40625 1.3125 1.46875 2.078125q1.078125 0.765625 2.71875 0.765625q1.875 0 3.359375 -1.015625q1.484375 -1.03125 2.03125 -2.546875q0.546875 -1.53125 0.546875 -7.46875l0 -11.671875l7.3125 0l0 27.65625l-6.796875 0zm14.371826 0l0 -38.171875l7.3125 0l0 38.171875l-7.3125 0zm14.816406 0l0 -38.171875l7.3125 0l0 38.171875l-7.3125 0z" fill-rule="nonzero"/><path fill="#efefef" d="m1250.0237 23.301838l956.0 0l0 728.0l-956.0 0z" fill-rule="evenodd"/><path stroke="#000000" stroke-width="8.0" stroke-linejoin="round" stroke-linecap="butt" d="m1250.0237 23.301838l956.0 0l0 728.0l-956.0 0z" fill-rule="evenodd"/><path fill="#ffffff" d="m1674.2024 492.94833l114.740234 0l0 114.74014l-114.740234 0z" fill-rule="evenodd"/><path stroke="#000000" stroke-width="4.0" stroke-linejoin="round" stroke-linecap="butt" d="m1674.2024 492.94833l114.740234 0l0 114.74014l-114.740234 0z" fill-rule="evenodd"/><path fill="#000000" d="m1713.4901 539.7559l9.734375 0l8.265625 24.53125l8.078125 -24.53125l9.46875 0l-12.203125 33.265625l-2.1875 6.015625q-1.203125 3.03125 -2.296875 4.625q-1.09375 1.59375 -2.515625 2.578125q-1.40625 1.0 -3.46875 1.546875q-2.0625 0.5625 -4.671875 0.5625q-2.640625 0 -5.171875 -0.5625l-0.8125 -7.15625q2.140625 0.421875 3.875 0.421875q3.1875 0 4.71875 -1.875q1.53125 -1.859375 2.34375 -4.765625l-13.15625 -34.65625z" fill-rule="nonzero"/><path fill="#ffffff" d="m1674.2024 329.93268l114.740234 0l0 114.74017l-114.740234 0z" fill-rule="evenodd"/><path stroke="#000000" stroke-width="4.0" stroke-linejoin="round" stroke-linecap="butt" d="m1674.2024 329.93268l114.740234 0l0 114.74017l-114.740234 0z" fill-rule="evenodd"/><path fill="#000000" d="m1713.4276 411.30276l12.46875 -17.796875l-11.953125 -16.765625l11.171875 0l6.109375 9.5l6.453125 -9.5l10.734375 0l-11.71875 16.375l12.796875 18.1875l-11.234375 0l-7.03125 -10.703125l-7.09375 10.703125l-10.703125 0z" fill-rule="nonzero"/><path fill="#ffffff" d="m1674.2024 166.91693l114.740234 0l0 114.74017l-114.740234 0z" fill-rule="evenodd"/><path stroke="#000000" stroke-width="4.0" stroke-linejoin="round" stroke-linecap="butt" d="m1674.2024 166.91693l114.740234 0l0 114.74017l-114.740234 0z" fill-rule="evenodd"/><path fill="#000000" d="m1713.1656 243.48701l-7.3125 0l0 -14.109375q0 -4.484375 -0.46875 -5.796875q-0.46875 -1.3125 -1.53125 -2.046875q-1.046875 -0.734375 -2.53125 -0.734375q-1.90625 0 -3.421875 1.046875q-1.5 1.046875 -2.0625 2.765625q-0.5625 1.71875 -0.5625 6.34375l0 12.53125l-7.3125 0l0 -27.65625l6.796875 0l0 4.0625q3.609375 -4.6875 9.109375 -4.6875q2.421875 0 4.421875 0.875q2.015625 0.875 3.03125 2.234375q1.03125 1.34375 1.4375 3.0625q0.40625 1.71875 0.40625 4.921875l0 17.1875zm25.621826 0l0 -4.140625q-1.515625 2.21875 -3.984375 3.5q-2.453125 1.265625 -5.1875 1.265625q-2.78125 0 -5.0 -1.21875q-2.203125 -1.234375 -3.203125 -3.4375q-0.984375 -2.21875 -0.984375 -6.125l0 -17.5l7.3125 0l0 12.703125q0 5.84375 0.40625 7.15625q0.40625 1.3125 1.46875 2.078125q1.078125 0.765625 2.71875 0.765625q1.875 0 3.359375 -1.015625q1.484375 -1.03125 2.03125 -2.546875q0.546875 -1.53125 0.546875 -7.46875l0 -11.671875l7.3125 0l0 27.65625l-6.796875 0zm14.371826 0l0 -38.171875l7.3125 0l0 38.171875l-7.3125 0zm14.816284 0l0 -38.171875l7.3125 0l0 38.171875l-7.3125 0z" fill-rule="nonzero"/><path fill="#efefef" d="m1250.4265 955.3018l956.0 0l0 728.00006l-956.0 0z" fill-rule="evenodd"/><path stroke="#000000" stroke-width="8.0" stroke-linejoin="round" stroke-linecap="butt" d="m1250.4265 955.3018l956.0 0l0 728.00006l-956.0 0z" fill-rule="evenodd"/><path fill="#000000" fill-opacity="0.0" d="m814.62994 47.301838l176.0 0l0 135.74803l-176.0 0z" fill-rule="evenodd"/><path fill="#000000" d="m865.7505 88.64933l-5.75 0q-0.09375 6.15625 -0.140625 12.546875q-0.046875 6.375 -0.046875 12.796875l0 4.609375l6.328125 0q8.734375 0 12.46875 -4.265625q3.75 -4.28125 3.75 -11.0q0 -7.0 -3.984375 -10.84375q-3.984375 -3.84375 -12.625 -3.84375zm-24.09375 -0.46875l0 -3.9375l25.828125 0q12.1875 0 18.28125 5.328125q6.109375 5.328125 6.109375 13.765625q0 5.375 -2.6875 9.890625q-2.6875 4.515625 -8.59375 7.203125q-5.90625 2.6875 -15.796875 2.6875l-4.984375 0q0 5.1875076 0.046875 10.187508q0.046875 4.984375 0.140625 10.171875l8.921875 1.046875l0 3.9375l-27.265625 0l0 -3.9375l8.84375 -1.046875q0.1875 -6.0625 0.1875 -12.296875q0 -6.2343826 0 -12.484383l0 -4.703125q0 -6.234375 0 -12.421875q0 -6.203125 -0.1875 -12.34375l-8.84375 -1.046875zm55.396484 60.281258l0 -3.453125l6.90625 -1.25q0.109375 -3.65625 0.15625 -7.921875q0.046875 -4.265625 0.046875 -7.53125l0 -4.6093826q0 -3.9375 -0.046875 -6.53125q-0.046875 -2.59375 -0.25 -5.46875l-7.578125 -0.859375l0 -3.359375l13.4375 -5.859375l1.4375 0.953125l1.0625 11.328125q2.390625 -5.75 6.1875 -9.015625q3.796875 -3.265625 7.640625 -3.265625q2.203125 0 4.125 0.96875q1.921875 0.953125 2.78125 2.578125q0 7.015625 -5.671875 7.015625q-1.625 0 -3.0625 -0.625q-1.4375 -0.625 -2.78125 -1.78125l-1.15625 -1.0625q-2.875 2.125 -4.796875 5.203125q-1.921875 3.0625 -3.171875 7.1875l0 7.2031326q0 3.171875 0.046875 7.390625q0.046875 4.21875 0.140625 7.875l7.875 1.4375l0 3.453125l-23.328125 0zm61.444824 -42.437508q-2.6875 0 -5.4375 1.546875q-2.734375 1.53125 -4.703125 4.890625q-1.953125 3.359375 -2.53125 8.921875l17.46875 0q3.453125 0 4.546875 -1.4375q1.109375 -1.4375 1.109375 -3.546875q0 -2.78125 -1.390625 -5.125q-1.390625 -2.359375 -3.75 -3.796875q-2.34375 -1.453125 -5.3125 -1.453125zm-0.09375 43.687508q-9.703125 0 -15.5625 -6.28125q-5.859375 -6.296875 -5.859375 -17.343758q0 -7.390625 3.03125 -12.859375q3.03125 -5.46875 8.0625 -8.53125q5.046875 -3.078125 11.0 -3.078125q4.984375 0 9.015625 2.203125q4.03125 2.203125 6.421875 6.296875q2.40625 4.078125 2.40625 9.921875q0 1.640625 -0.1875 3.03125q-0.1875 1.390625 -0.484375 2.34375l-30.625 0q0.203125 8.843758 4.421875 13.453133q4.21875 4.609375 11.140625 4.609375q4.609375 0 7.671875 -1.875q3.078125 -1.875 5.671875 -4.859375l2.296875 1.828125q-2.6875 5.09375 -7.296875 8.125q-4.609375 3.015625 -11.125 3.015625z" fill-rule="nonzero"/><path fill="#000000" fill-opacity="0.0" d="m814.62994 963.68506l176.0 0l0 135.74805l-176.0 0z" fill-rule="evenodd"/><path fill="#000000" d="m963.3927 1004.4544l0.671875 -3.921875l23.234375 0l-0.671875 3.921875l-8.84375 1.15625l-20.921875 24.968811l12.671875 29.28125l9.3125 1.140625l-0.765625 3.84375l-26.015625 0l0.859375 -3.84375l7.875 -0.859375l-9.984375 -22.9375l-17.859375 22.546875l9.125 1.25l-0.671875 3.84375l-23.421875 0l0.671875 -3.84375l8.640625 -1.046875l21.890625 -26.5l-12.203125 -28.031311l-7.671875 -0.96875l0.765625 -3.921875l25.53125 0l-0.859375 3.921875l-8.828125 1.0625l9.203125 21.312561l17.09375 -21.125061l-8.828125 -1.25z" fill-rule="nonzero"/><path fill="#000000" fill-opacity="0.0" d="m1996.6785 963.68506l176.0 0l0 135.74805l-176.0 0z" fill-rule="evenodd"/><path fill="#000000" d="m2120.6733 1017.7044l3.265625 -17.171875l44.734375 0l-0.671875 3.453125l-44.828125 56.06256l28.796875 0l4.3125 -12.296875l5.671875 0l-3.359375 17.09375l-46.375 0l0.671875 -3.359375l44.640625 -56.06256l-26.96875 0l-4.328125 12.28125l-5.5625 0z" fill-rule="nonzero"/><path fill="#000000" fill-opacity="0.0" d="m3136.9934 963.68506l176.0 0l0 135.74805l-176.0 0z" fill-rule="evenodd"/><path fill="#000000" d="m3256.7627 1004.4544l0.765625 -3.921875l25.4375 0l-0.765625 3.921875l-8.453125 1.0625l8.75 27.750061l17.84375 -27.562561l-8.0625 -1.25l0.765625 -3.921875l21.40625 0l-0.765625 3.921875l-8.640625 1.25l-21.3125 32.453186q-0.953125 5.375 -1.921875 10.84375q-0.953125 5.46875 -1.8125 10.859375l9.6875 1.140625l-0.765625 3.84375l-27.359375 0l0.765625 -3.84375l9.21875 -0.953125l4.125 -22.078125l-11.234375 -32.546936l-7.671875 -0.96875z" fill-rule="nonzero"/><path fill="#000000" fill-opacity="0.0" d="m1884.6171 47.301838l288.0631 0l0 135.74803l-288.0631 0z" fill-rule="evenodd"/><path fill="#000000" d="m1952.859 88.18058l0 -3.9375l27.078125 0l0 3.9375l-9.125 1.046875q-0.09375 6.140625 -0.140625 12.34375q-0.046875 6.1875 -0.046875 12.421875l0 6.046875l24.953125 -30.515625l-6.90625 -1.34375l0 -3.9375l22.078125 0l0 3.9375l-9.3125 1.234375l-16.03125 19.296875l19.390625 34.859383l7.390625 0.953125l0 3.9375l-24.671875 0l0 -3.9375l7.875 -0.953125l-15.265625 -28.515633l-9.5 11.421875q0 3.8437576 0.046875 8.171883q0.046875 4.3125 0.140625 8.828125l9.125 1.046875l0 3.9375l-27.078125 0l0 -3.9375l8.84375 -1.046875q0.1875 -6.0625 0.1875 -12.296875q0 -6.2343826 0 -12.484383l0 -4.703125q0 -6.234375 0 -12.421875q0 -6.203125 -0.1875 -12.34375l-8.84375 -1.046875zm83.72131 17.84375q-2.6875 0 -5.4375 1.546875q-2.734375 1.53125 -4.703125 4.890625q-1.953125 3.359375 -2.53125 8.921875l17.46875 0q3.453125 0 4.546875 -1.4375q1.109375 -1.4375 1.109375 -3.546875q0 -2.78125 -1.390625 -5.125q-1.390625 -2.359375 -3.75 -3.796875q-2.34375 -1.453125 -5.3125 -1.453125zm-0.09375 43.687508q-9.703125 0 -15.5625 -6.28125q-5.859375 -6.296875 -5.859375 -17.343758q0 -7.390625 3.03125 -12.859375q3.03125 -5.46875 8.0625 -8.53125q5.046875 -3.078125 11.0 -3.078125q4.984375 0 9.015625 2.203125q4.03125 2.203125 6.421875 6.296875q2.40625 4.078125 2.40625 9.921875q0 1.640625 -0.1875 3.03125q-0.1875 1.390625 -0.484375 2.34375l-30.625 0q0.203125 8.843758 4.421875 13.453133q4.21875 4.609375 11.140625 4.609375q4.609375 0 7.671875 -1.875q3.078125 -1.875 5.671875 -4.859375l2.296875 1.828125q-2.6875 5.09375 -7.296875 8.125q-4.609375 3.015625 -11.125 3.015625zm49.05371 -43.687508q-2.6875 0 -5.4375 1.546875q-2.734375 1.53125 -4.703125 4.890625q-1.953125 3.359375 -2.53125 8.921875l17.46875 0q3.453125 0 4.546875 -1.4375q1.109375 -1.4375 1.109375 -3.546875q0 -2.78125 -1.390625 -5.125q-1.390625 -2.359375 -3.75 -3.796875q-2.34375 -1.453125 -5.3125 -1.453125zm-0.09375 43.687508q-9.703125 0 -15.5625 -6.28125q-5.859375 -6.296875 -5.859375 -17.343758q0 -7.390625 3.03125 -12.859375q3.03125 -5.46875 8.0625 -8.53125q5.046875 -3.078125 11.0 -3.078125q4.984375 0 9.015625 2.203125q4.03125 2.203125 6.421875 6.296875q2.40625 4.078125 2.40625 9.921875q0 1.640625 -0.1875 3.03125q-0.1875 1.390625 -0.484375 2.34375l-30.625 0q0.203125 8.843758 4.421875 13.453133q4.21875 4.609375 11.140625 4.609375q4.609375 0 7.671875 -1.875q3.078125 -1.875 5.671875 -4.859375l2.296875 1.828125q-2.6875 5.09375 -7.296875 8.125q-4.609375 3.015625 -11.125 3.015625zm25.625 21.6875l0 -3.359375l7.6875 -1.34375q0.09375 -3.9375 0.140625 -7.828125q0.046875 -3.875 0.046875 -7.71875l0 -27.453133q0 -3.9375 -0.046875 -6.53125q-0.046875 -2.59375 -0.25 -5.46875l-7.578125 -0.859375l0 -3.359375l13.4375 -5.859375l1.4375 0.953125l0.578125 6.25q6.8125 -7.203125 14.5 -7.203125q5.1875 0 9.3125 2.875q4.125 2.875 6.5625 8.203125q2.453125 5.328125 2.453125 12.828125q0 7.3906326 -2.59375 12.812508q-2.578125 5.421875 -7.046875 8.40625q-4.46875 2.96875 -10.125 2.96875q-3.265625 0 -6.484375 -1.34375q-3.21875 -1.34375 -6.28125 -4.890625l0 7.578125q0 3.84375 0.046875 7.71875q0.046875 3.890625 0.140625 7.828125l8.734375 1.4375l0 3.359375l-24.671875 0zm27.65625 -64.31251q-2.21875 0 -5.09375 1.109375q-2.875 1.09375 -6.53125 4.171875l0 26.968758q2.6875 2.59375 5.28125 3.75q2.59375 1.15625 5.28125 1.15625q5.375 0 9.21875 -4.3125q3.84375 -4.328125 3.84375 -13.640633q0 -9.21875 -3.375 -14.203125q-3.359375 -5.0 -8.625 -5.0z" fill-rule="nonzero"/><path fill="#000000" fill-opacity="0.0" d="m3025.7378 47.301838l288.063 0l0 135.74803l-288.063 0z" fill-rule="evenodd"/><path fill="#000000" d="m3187.9636 88.18058l0 -3.9375l47.8125 0l0.671875 16.984375l-5.46875 0l-2.109375 -12.1875l-22.5625 0q-0.09375 6.140625 -0.140625 12.296875q-0.046875 6.140625 -0.046875 12.078125l14.109375 0l1.34375 -9.109375l4.40625 0l0 22.65625l-4.40625 0l-1.25 -9.03125l-14.203125 0q0 7.203125 0.046875 13.500008q0.046875 6.28125 0.140625 12.234375l24.484375 0l2.109375 -12.296875l5.46875 0l-0.671875 17.09375l-49.734375 0l0 -3.9375l8.84375 -1.046875q0.1875 -6.0625 0.1875 -12.296875q0 -6.2343826 0 -12.484383l0 -4.703125q0 -6.234375 0 -12.421875q0 -6.203125 -0.1875 -12.34375l-8.84375 -1.046875zm57.122314 60.281258l0 -3.453125l7.59375 -1.34375q0.09375 -3.84375 0.140625 -7.671875q0.046875 -3.84375 0.046875 -7.6875l0 -20.359383l-7.96875 0l0 -4.21875l8.0625 -1.0625q0.765625 -7.96875 2.34375 -12.71875q1.59375 -4.75 4.953125 -8.109375q2.96875 -2.96875 6.375 -4.125q3.421875 -1.15625 6.578125 -1.15625q3.46875 0 6.0 1.203125q2.546875 1.203125 3.3125 3.984375q-0.09375 1.828125 -1.625 3.078125q-1.53125 1.234375 -4.21875 1.234375q-1.828125 0 -3.515625 -0.765625q-1.671875 -0.765625 -3.40625 -2.109375l-2.59375 -2.109375q-0.28125 0.1875 -0.578125 0.4375q-0.28125 0.234375 -0.5625 0.515625q-2.6875 2.6875 -4.03125 7.390625q-1.34375 4.703125 -1.15625 13.453125l19.765625 0l1.640625 -0.203125q0.671875 -7.671875 2.15625 -12.421875q1.484375 -4.75 5.046875 -8.3125q3.0625 -3.0625 6.421875 -4.21875q3.359375 -1.15625 6.625 -1.15625q3.359375 0 5.953125 1.203125q2.59375 1.203125 3.265625 3.984375q-0.09375 1.828125 -1.640625 3.078125q-1.53125 1.234375 -4.21875 1.234375q-3.453125 0 -6.90625 -2.875l-2.6875 -2.109375q-0.390625 0.28125 -0.734375 0.578125q-0.328125 0.28125 -0.609375 0.578125q-2.5 2.484375 -3.796875 7.53125q-1.296875 5.046875 -1.09375 13.109375l13.234375 0l0 5.078125l-13.046875 0l0 20.359383q0 3.84375 0.046875 7.640625q0.046875 3.78125 0.140625 7.625l8.640625 1.4375l0 3.453125l-24.765625 0l0 -3.453125l7.578125 -1.34375q0.09375 -3.84375 0.140625 -7.671875q0.0625 -3.84375 0.0625 -7.6875l0 -20.359383l-21.03125 0l0 20.359383q0 3.84375 0.046875 7.640625q0.046875 3.78125 0.140625 7.625l8.546875 1.4375l0 3.453125l-24.671875 0z" fill-rule="nonzero"/><path fill="#000000" fill-opacity="0.0" d="m1250.0237 387.30185l-218.45679 0" fill-rule="evenodd"/><path stroke="#000000" stroke-width="8.0" stroke-linejoin="round" stroke-linecap="butt" d="m1250.0237 387.30185l-191.04004 0" fill-rule="evenodd"/><path fill="#000000" stroke="#000000" stroke-width="8.0" stroke-linecap="butt" d="m1058.9836 387.30185l8.996704 -8.996674l-24.71814 8.996674l24.71814 8.996643z" fill-rule="evenodd"/><path fill="#000000" fill-opacity="0.0" d="m2206.0237 387.30185l181.0708 0" fill-rule="evenodd"/><path stroke="#000000" stroke-width="8.0" stroke-linejoin="round" stroke-linecap="butt" d="m2206.0237 387.30185l153.65405 0" fill-rule="evenodd"/><path fill="#000000" stroke="#000000" stroke-width="8.0" stroke-linecap="butt" d="m2359.6777 387.30185l-8.996582 8.996643l24.718018 -8.996643l-24.718018 -8.996674z" fill-rule="evenodd"/><path fill="#000000" fill-opacity="0.0" d="m1728.0237 751.3018l0.40942383 204.0" fill-rule="evenodd"/><path stroke="#000000" stroke-width="8.0" stroke-linejoin="round" stroke-linecap="butt" d="m1728.0237 751.3018l0.3544922 176.58337" fill-rule="evenodd"/><path fill="#000000" stroke="#000000" stroke-width="8.0" stroke-linecap="butt" d="m1728.378 927.8852l-9.0147705 -8.978577l9.046265 24.700012l8.947144 -24.736145z" fill-rule="evenodd"/><path fill="#000000" fill-opacity="0.0" d="m553.5591 751.3018l0.81884766 201.51184" fill-rule="evenodd"/><path stroke="#000000" stroke-width="8.0" stroke-linejoin="round" stroke-linecap="butt" d="m553.5591 751.3018l0.7074585 174.09534" fill-rule="evenodd"/><path fill="#000000" stroke="#000000" stroke-width="8.0" stroke-linecap="butt" d="m554.26654 925.39716l-9.033142 -8.960022l9.097046 24.681396l8.896118 -24.754517z" fill-rule="evenodd"/><path fill="#000000" fill-opacity="0.0" d="m1250.4265 1319.3019l-218.04724 -2.4882812" fill-rule="evenodd"/><path stroke="#000000" stroke-width="8.0" stroke-linejoin="round" stroke-linecap="butt" d="m1250.4265 1319.3019l-190.63232 -2.175415" fill-rule="evenodd"/><path fill="#000000" stroke="#000000" stroke-width="8.0" stroke-linecap="butt" d="m1059.7942 1317.1265l9.098755 -8.893433l-24.819214 8.714111l24.613892 9.278076z" fill-rule="evenodd"/><path fill="#000000" fill-opacity="0.0" d="m2206.4265 1319.3019l177.13379 -2.4882812" fill-rule="evenodd"/><path stroke="#000000" stroke-width="8.0" stroke-linejoin="round" stroke-linecap="butt" d="m2206.4265 1319.3019l149.71973 -2.1031494" fill-rule="evenodd"/><path fill="#000000" stroke="#000000" stroke-width="8.0" stroke-linecap="butt" d="m2356.1465 1317.1987l-8.869629 9.122192l24.589355 -9.343018l-24.842041 -8.64856z" fill-rule="evenodd"/><path fill="#000000" fill-opacity="0.0" d="m2865.1077 751.3018l-3.559082 201.51184" fill-rule="evenodd"/><path stroke="#000000" stroke-width="8.0" stroke-linejoin="round" stroke-linecap="butt" d="m2865.1077 751.3018l-3.0749512 174.09943" fill-rule="evenodd"/><path fill="#000000" stroke="#000000" stroke-width="8.0" stroke-linecap="butt" d="m2862.0327 925.40125l-8.836426 -9.154175l8.558838 24.873169l9.431641 -24.55542z" fill-rule="evenodd"/><path fill="#000000" fill-opacity="0.0" d="m834.36597 784.17847l613.6693 0l0 135.74805l-613.6693 0z" fill-rule="evenodd"/><path fill="#b7b7b7" d="m891.70844 835.55725l12.28125 0l0 7.3125q2.390625 -3.75 6.46875 -6.09375q4.078125 -2.34375 9.046875 -2.34375q8.671875 0 14.71875 6.796875q6.046875 6.796875 6.046875 18.9375q0 12.46875 -6.09375 19.390625q-6.09375 6.90625 -14.765625 6.90625q-4.125 0 -7.484375 -1.640625q-3.34375 -1.640625 -7.046875 -5.625l0 25.078125l-13.171875 0l0 -68.71875zm13.03125 24.046875q0 8.390625 3.328125 12.40625q3.328125 4.0 8.109375 4.0q4.59375 0 7.640625 -3.671875q3.046875 -3.6875 3.046875 -12.078125q0 -7.828125 -3.140625 -11.625q-3.140625 -3.796875 -7.78125 -3.796875q-4.828125 0 -8.015625 3.734375q-3.1875 3.71875 -3.1875 11.03125zm78.75 25.734375l0 -7.453125q-2.71875 3.984375 -7.15625 6.28125q-4.421875 2.296875 -9.34375 2.296875q-5.015625 0 -9.0 -2.203125q-3.984375 -2.203125 -5.765625 -6.1875q-1.78125 -3.984375 -1.78125 -11.015625l0 -31.5l13.171875 0l0 22.875q0 10.5 0.71875 12.875q0.734375 2.359375 2.65625 3.75q1.921875 1.375 4.875 1.375q3.375 0 6.046875 -1.84375q2.671875 -1.859375 3.65625 -4.59375q0.984375 -2.75 0.984375 -13.4375l0 -21.0l13.171875 0l0 49.78125l-12.234375 0zm21.234375 -14.203125l13.21875 -2.015625q0.84375 3.84375 3.421875 5.84375q2.578125 1.984375 7.218689 1.984375q5.109375 0 7.6875 -1.875q1.734375 -1.3125 1.734375 -3.515625q0 -1.5 -0.9375 -2.484375q-0.984375 -0.9375 -4.40625 -1.734375q-15.937439 -3.515625 -20.203064 -6.421875q-5.90625 -4.03125 -5.90625 -11.203125q0 -6.46875 5.109375 -10.875q5.109375 -4.40625 15.843689 -4.40625q10.21875 0 15.1875 3.328125q4.96875 3.328125 6.84375 9.84375l-12.421875 2.296875q-0.796875 -2.90625 -3.03125 -4.453125q-2.21875 -1.546875 -6.34375 -1.546875q-5.203064 0 -7.453064 1.453125q-1.5 1.03125 -1.5 2.671875q0 1.40625 1.3125 2.390625q1.78125 1.3125 12.296814 3.703125q10.53125 2.390625 14.703125 5.859375q4.125 3.515625 4.125 9.796875q0 6.84375 -5.71875 11.765625q-5.71875 4.921875 -16.921875 4.921875q-10.171814 0 -16.109314 -4.125q-5.921875 -4.125 -7.75 -11.203125zm71.15619 -54.515625l0 25.265625q6.375 -7.453125 15.234375 -7.453125q4.546875 0 8.203125 1.6875q3.65625 1.6875 5.5 4.3125q1.859375 2.625 2.53125 5.8125q0.6875 3.1875 0.6875 9.890625l0 29.203125l-13.171875 0l0 -26.296875q0 -7.828125 -0.75 -9.9375q-0.75 -2.109375 -2.65625 -3.34375q-1.890625 -1.25 -4.75 -1.25q-3.28125 0 -5.859375 1.59375q-2.578125 1.59375 -3.78125 4.8125q-1.1875 3.203125 -1.1875 9.484375l0 24.9375l-13.171875 0l0 -68.71875l13.171875 0zm42.46875 43.125q0 -6.5625 3.234375 -12.703125q3.234375 -6.140625 9.15625 -9.375q5.9375 -3.234375 13.25 -3.234375q11.296875 0 18.515625 7.34375q7.21875 7.328125 7.21875 18.53125q0 11.296875 -7.296875 18.734375q-7.28125 7.421875 -18.34375 7.421875q-6.84375 0 -13.0625 -3.09375q-6.203125 -3.09375 -9.4375 -9.0625q-3.234375 -5.984375 -3.234375 -14.5625zm13.5 0.703125q0 7.40625 3.515625 11.34375q3.515625 3.9375 8.671875 3.9375q5.15625 0 8.640625 -3.9375q3.5 -3.9375 3.5 -11.4375q0 -7.3125 -3.5 -11.25q-3.484375 -3.9375 -8.640625 -3.9375q-5.15625 0 -8.671875 3.9375q-3.515625 3.9375 -3.515625 11.34375zm80.953125 24.890625l0 -7.453125q-2.71875 3.984375 -7.15625 6.28125q-4.421875 2.296875 -9.34375 2.296875q-5.015625 0 -9.0 -2.203125q-3.984375 -2.203125 -5.765625 -6.1875q-1.78125 -3.984375 -1.78125 -11.015625l0 -31.5l13.171875 0l0 22.875q0 10.5 0.71875 12.875q0.734375 2.359375 2.65625 3.75q1.921875 1.375 4.875 1.375q3.375 0 6.046875 -1.84375q2.671875 -1.859375 3.65625 -4.59375q0.984375 -2.75 0.984375 -13.4375l0 -21.0l13.171875 0l0 49.78125l-12.234375 0zm48.703125 -49.78125l0 10.5l-9.0 0l0 20.0625q0 6.09375 0.25 7.109375q0.265625 1.0 1.171875 1.65625q0.921875 0.65625 2.234375 0.65625q1.828125 0 5.296875 -1.265625l1.125 10.21875q-4.59375 1.96875 -10.40625 1.96875q-3.5625 0 -6.421875 -1.1875q-2.859375 -1.203125 -4.203125 -3.09375q-1.328125 -1.90625 -1.84375 -5.140625q-0.421875 -2.296875 -0.421875 -9.28125l0 -21.703125l-6.046875 0l0 -10.5l6.046875 0l0 -9.890625l13.21875 -7.6875l0 17.578125l9.0 0zm36.140625 32.671875l-6.375 0l0 -10.3125l8.4375 0l2.8125 -13.828125l-11.25 0l0 -10.359375l13.359375 0l3.703125 -18.28125l10.5 0l-3.703125 18.28125l10.359375 0l3.609375 -18.28125l10.875 0l-3.75 18.28125l6.46875 0l0 10.359375l-8.578125 0l-2.8125 13.828125l11.390625 0l0 10.3125l-13.5 0l-3.703125 18.28125l-10.453125 0l3.609375 -18.28125l-10.40625 0l-3.703125 18.28125l-10.59375 0l3.703125 -18.28125zm15.421875 -24.140625l-2.765625 13.828125l10.40625 0l2.71875 -13.828125l-10.359375 0zm68.53125 41.25l-13.171875 0l0 -49.640625q-7.21875 6.75 -17.015625 9.984375l0 -11.953125q5.15625 -1.6875 11.203125 -6.390625q6.046875 -4.71875 8.296875 -11.0l10.6875 0l0 69.0z" fill-rule="nonzero"/><path fill="#000000" fill-opacity="0.0" d="m1988.1572 784.1798l613.66943 0l0 135.74799l-613.66943 0z" fill-rule="evenodd"/><path fill="#b7b7b7" d="m2045.4998 835.55853l12.28125 0l0 7.3125q2.390625 -3.75 6.46875 -6.09375q4.078125 -2.34375 9.046875 -2.34375q8.671875 0 14.71875 6.796875q6.046875 6.796875 6.046875 18.9375q0 12.46875 -6.09375 19.390625q-6.09375 6.90625 -14.765625 6.90625q-4.125 0 -7.484375 -1.640625q-3.34375 -1.640625 -7.046875 -5.625l0 25.078125l-13.171875 0l0 -68.71875zm13.03125 24.046875q0 8.390625 3.328125 12.40625q3.328125 4.0 8.109375 4.0q4.59375 0 7.640625 -3.671875q3.046875 -3.6875 3.046875 -12.078125q0 -7.828125 -3.140625 -11.625q-3.140625 -3.796875 -7.78125 -3.796875q-4.828125 0 -8.015625 3.734375q-3.1875 3.71875 -3.1875 11.03125zm78.75 25.734375l0 -7.453125q-2.71875 3.984375 -7.15625 6.28125q-4.421875 2.296875 -9.34375 2.296875q-5.015625 0 -9.0 -2.203125q-3.984375 -2.203125 -5.765625 -6.1875q-1.78125 -3.984375 -1.78125 -11.015625l0 -31.5l13.171875 0l0 22.875q0 10.5 0.71875 12.875q0.734375 2.359375 2.65625 3.75q1.921875 1.375 4.875 1.375q3.375 0 6.046875 -1.84375q2.671875 -1.859375 3.65625 -4.59375q0.984375 -2.75 0.984375 -13.4375l0 -21.0l13.171875 0l0 49.78125l-12.234375 0zm21.234375 -14.203125l13.21875 -2.015625q0.84375 3.84375 3.421875 5.84375q2.578125 1.984375 7.21875 1.984375q5.109375 0 7.6875 -1.875q1.734375 -1.3125 1.734375 -3.515625q0 -1.5 -0.9375 -2.484375q-0.984375 -0.9375 -4.40625 -1.734375q-15.9375 -3.515625 -20.203125 -6.421875q-5.90625 -4.03125 -5.90625 -11.203125q0 -6.46875 5.109375 -10.875q5.109375 -4.40625 15.84375 -4.40625q10.21875 0 15.1875 3.328125q4.96875 3.328125 6.84375 9.84375l-12.421875 2.296875q-0.796875 -2.90625 -3.03125 -4.453125q-2.21875 -1.546875 -6.34375 -1.546875q-5.203125 0 -7.453125 1.453125q-1.5 1.03125 -1.5 2.671875q0 1.40625 1.3125 2.390625q1.78125 1.3125 12.296875 3.703125q10.53125 2.390625 14.703125 5.859375q4.125 3.515625 4.125 9.796875q0 6.84375 -5.71875 11.765625q-5.71875 4.921875 -16.921875 4.921875q-10.171875 0 -16.109375 -4.125q-5.921875 -4.125 -7.75 -11.203125zm71.15625 -54.515625l0 25.265625q6.375 -7.453125 15.234375 -7.453125q4.546875 0 8.203125 1.6875q3.65625 1.6875 5.5 4.3125q1.859375 2.625 2.53125 5.8125q0.6875 3.1875 0.6875 9.890625l0 29.203125l-13.171875 0l0 -26.296875q0 -7.828125 -0.75 -9.9375q-0.75 -2.109375 -2.65625 -3.34375q-1.890625 -1.25 -4.75 -1.25q-3.28125 0 -5.859375 1.59375q-2.578125 1.59375 -3.78125 4.8125q-1.1875 3.203125 -1.1875 9.484375l0 24.9375l-13.171875 0l0 -68.71875l13.171875 0zm42.46875 43.125q0 -6.5625 3.234375 -12.703125q3.234375 -6.140625 9.15625 -9.375q5.9375 -3.234375 13.25 -3.234375q11.296875 0 18.515625 7.34375q7.21875 7.328125 7.21875 18.53125q0 11.296875 -7.296875 18.734375q-7.28125 7.421875 -18.34375 7.421875q-6.84375 0 -13.0625 -3.09375q-6.203125 -3.09375 -9.4375 -9.0625q-3.234375 -5.984375 -3.234375 -14.5625zm13.5 0.703125q0 7.40625 3.515625 11.34375q3.515625 3.9375 8.671875 3.9375q5.15625 0 8.640625 -3.9375q3.5 -3.9375 3.5 -11.4375q0 -7.3125 -3.5 -11.25q-3.484375 -3.9375 -8.640625 -3.9375q-5.15625 0 -8.671875 3.9375q-3.515625 3.9375 -3.515625 11.34375zm80.953125 24.890625l0 -7.453125q-2.71875 3.984375 -7.15625 6.28125q-4.421875 2.296875 -9.34375 2.296875q-5.015625 0 -9.0 -2.203125q-3.984375 -2.203125 -5.765625 -6.1875q-1.78125 -3.984375 -1.78125 -11.015625l0 -31.5l13.171875 0l0 22.875q0 10.5 0.71875 12.875q0.734375 2.359375 2.65625 3.75q1.921875 1.375 4.875 1.375q3.375 0 6.046875 -1.84375q2.671875 -1.859375 3.65625 -4.59375q0.984375 -2.75 0.984375 -13.4375l0 -21.0l13.171875 0l0 49.78125l-12.234375 0zm48.703125 -49.78125l0 10.5l-9.0 0l0 20.0625q0 6.09375 0.25 7.109375q0.265625 1.0 1.171875 1.65625q0.921875 0.65625 2.234375 0.65625q1.828125 0 5.296875 -1.265625l1.125 10.21875q-4.59375 1.96875 -10.40625 1.96875q-3.5625 0 -6.421875 -1.1875q-2.859375 -1.203125 -4.203125 -3.09375q-1.328125 -1.90625 -1.84375 -5.140625q-0.421875 -2.296875 -0.421875 -9.28125l0 -21.703125l-6.046875 0l0 -10.5l6.046875 0l0 -9.890625l13.21875 -7.6875l0 17.578125l9.0 0zm36.140625 32.671875l-6.375 0l0 -10.3125l8.4375 0l2.8125 -13.828125l-11.25 0l0 -10.359375l13.359375 0l3.703125 -18.28125l10.5 0l-3.703125 18.28125l10.359375 0l3.609375 -18.28125l10.875 0l-3.75 18.28125l6.46875 0l0 10.359375l-8.578125 0l-2.8125 13.828125l11.390625 0l0 10.3125l-13.5 0l-3.703125 18.28125l-10.453125 0l3.609375 -18.28125l-10.40625 0l-3.703125 18.28125l-10.59375 0l3.703125 -18.28125zm15.421875 -24.140625l-2.765625 13.828125l10.40625 0l2.71875 -13.828125l-10.359375 0zm79.3125 29.015625l0 12.234375l-46.171875 0q0.75 -6.9375 4.5 -13.140625q3.75 -6.21875 14.8125 -16.484375q8.90625 -8.296875 10.921875 -11.25q2.71875 -4.078125 2.71875 -8.0625q0 -4.40625 -2.375 -6.765625q-2.359375 -2.375 -6.53125 -2.375q-4.125 0 -6.5625 2.484375q-2.4375 2.484375 -2.8125 8.25l-13.125 -1.3125q1.171875 -10.875 7.359375 -15.609375q6.1875 -4.734375 15.46875 -4.734375q10.171875 0 15.984375 5.484375q5.8125 5.484375 5.8125 13.640625q0 4.640625 -1.671875 8.84375q-1.65625 4.1875 -5.265625 8.78125q-2.390625 3.046875 -8.625 8.765625q-6.234375 5.71875 -7.90625 7.59375q-1.65625 1.875 -2.6875 3.65625l26.15625 0z" fill-rule="nonzero"/><path fill="#000000" fill-opacity="0.0" d="m632.9869 337.20734l176.0 0l0 100.188995l-176.0 0z" fill-rule="evenodd"/><path fill="#000000" d="m668.94 397.5511l5.75 0.75q-0.9375 5.953125 -4.828125 9.328125q-3.890625 3.359375 -9.546875 3.359375q-7.09375 0 -11.40625 -4.640625q-4.3125 -4.640625 -4.3125 -13.296875q0 -5.59375 1.84375 -9.78125q1.859375 -4.203125 5.640625 -6.296875q3.796875 -2.109375 8.265625 -2.109375q5.625 0 9.203125 2.84375q3.578125 2.84375 4.59375 8.09375l-5.703125 0.875q-0.8125 -3.484375 -2.875 -5.234375q-2.0625 -1.765625 -5.0 -1.765625q-4.421875 0 -7.1875 3.171875q-2.765625 3.171875 -2.765625 10.046875q0 6.96875 2.671875 10.125q2.671875 3.15625 6.96875 3.15625q3.4375 0 5.75 -2.109375q2.3125 -2.125 2.9375 -6.515625zm10.640625 12.65625l0 -47.71875l5.859375 0l0 47.71875l-5.859375 0zm38.605774 -11.125l6.046875 0.75q-1.4375 5.296875 -5.3125 8.234375q-3.859375 2.921875 -9.890625 2.921875q-7.578125 0 -12.03125 -4.671875q-4.4375 -4.671875 -4.4375 -13.09375q0 -8.734375 4.484375 -13.546875q4.5 -4.8125 11.65625 -4.8125q6.9375 0 11.328125 4.71875q4.390625 4.71875 4.390625 13.28125q0 0.515625 -0.03125 1.5625l-25.765625 0q0.3125 5.6875 3.203125 8.71875q2.90625 3.03125 7.234375 3.03125q3.234375 0 5.5 -1.6875q2.28125 -1.703125 3.625 -5.40625zm-19.25 -9.484375l19.3125 0q-0.390625 -4.359375 -2.21875 -6.53125q-2.796875 -3.390625 -7.25 -3.390625q-4.046875 0 -6.796875 2.703125q-2.75 2.703125 -3.046875 7.21875zm55.21161 16.34375q-3.265625 2.765625 -6.28125 3.90625q-3.0 1.140625 -6.453125 1.140625q-5.6875 0 -8.75 -2.78125q-3.0625 -2.78125 -3.0625 -7.109375q0 -2.546875 1.15625 -4.640625q1.15625 -2.09375 3.03125 -3.359375q1.875 -1.28125 4.21875 -1.9375q1.71875 -0.453125 5.203125 -0.875q7.09375 -0.84375 10.4375 -2.015625q0.046875 -1.203125 0.046875 -1.53125q0 -3.578125 -1.671875 -5.046875q-2.234375 -1.984375 -6.671875 -1.984375q-4.125 0 -6.09375 1.453125q-1.96875 1.453125 -2.921875 5.125l-5.71875 -0.78125q0.78125 -3.671875 2.5625 -5.9375q1.796875 -2.265625 5.171875 -3.484375q3.390625 -1.21875 7.84375 -1.21875q4.4375 0 7.203125 1.046875q2.765625 1.03125 4.0625 2.609375q1.3125 1.578125 1.828125 3.984375q0.296875 1.5 0.296875 5.40625l0 7.8125q0 8.171875 0.375 10.34375q0.375 2.15625 1.46875 4.140625l-6.109375 0q-0.921875 -1.828125 -1.171875 -4.265625zm-0.5 -13.078125q-3.1875 1.296875 -9.5625 2.203125q-3.609375 0.53125 -5.109375 1.1875q-1.5 0.640625 -2.3125 1.890625q-0.8125 1.25 -0.8125 2.78125q0 2.34375 1.765625 3.90625q1.78125 1.5625 5.203125 1.5625q3.375 0 6.015625 -1.46875q2.640625 -1.484375 3.875 -4.0625q0.9375 -1.984375 0.9375 -5.859375l0 -2.140625zm14.946045 17.34375l0 -34.5625l5.265625 0l0 5.234375q2.03125 -3.671875 3.734375 -4.84375q1.703125 -1.171875 3.765625 -1.171875q2.953125 0 6.015625 1.890625l-2.015625 5.4375q-2.15625 -1.28125 -4.296875 -1.28125q-1.921875 0 -3.453125 1.15625q-1.53125 1.15625 -2.1875 3.203125q-0.96875 3.125 -0.96875 6.84375l0 18.09375l-5.859375 0z" fill-rule="nonzero"/><path fill="#000000" fill-opacity="0.0" d="m2940.9868 452.90814l176.0 0l0 100.188965l-176.0 0z" fill-rule="evenodd"/><path fill="#000000" d="m2976.94 513.2519l5.75 0.75q-0.9375 5.953125 -4.828125 9.328125q-3.890625 3.359375 -9.546875 3.359375q-7.09375 0 -11.40625 -4.640625q-4.3125 -4.640625 -4.3125 -13.296875q0 -5.59375 1.84375 -9.78125q1.859375 -4.203125 5.640625 -6.296875q3.796875 -2.109375 8.265625 -2.109375q5.625 0 9.203125 2.84375q3.578125 2.84375 4.59375 8.09375l-5.703125 0.875q-0.8125 -3.484375 -2.875 -5.234375q-2.0625 -1.765625 -5.0 -1.765625q-4.421875 0 -7.1875 3.171875q-2.765625 3.171875 -2.765625 10.046875q0 6.96875 2.671875 10.125q2.671875 3.15625 6.96875 3.15625q3.4375 0 5.75 -2.109375q2.3125 -2.125 2.9375 -6.515625zm10.640625 12.65625l0 -47.71875l5.859375 0l0 47.71875l-5.859375 0zm38.605713 -11.125l6.046875 0.75q-1.4375 5.296875 -5.3125 8.234375q-3.859375 2.921875 -9.890625 2.921875q-7.578125 0 -12.03125 -4.671875q-4.4375 -4.671875 -4.4375 -13.09375q0 -8.734375 4.484375 -13.546875q4.5 -4.8125 11.65625 -4.8125q6.9375 0 11.328125 4.71875q4.390625 4.71875 4.390625 13.28125q0 0.515625 -0.03125 1.5625l-25.765625 0q0.3125 5.6875 3.203125 8.71875q2.90625 3.03125 7.234375 3.03125q3.234375 0 5.5 -1.6875q2.28125 -1.703125 3.625 -5.40625zm-19.25 -9.484375l19.3125 0q-0.390625 -4.359375 -2.21875 -6.53125q-2.796875 -3.390625 -7.25 -3.390625q-4.046875 0 -6.796875 2.703125q-2.75 2.703125 -3.046875 7.21875zm55.21167 16.34375q-3.265625 2.765625 -6.28125 3.90625q-3.0 1.140625 -6.453125 1.140625q-5.6875 0 -8.75 -2.78125q-3.0625 -2.78125 -3.0625 -7.109375q0 -2.546875 1.15625 -4.640625q1.15625 -2.09375 3.03125 -3.359375q1.875 -1.28125 4.21875 -1.9375q1.71875 -0.453125 5.203125 -0.875q7.09375 -0.84375 10.4375 -2.015625q0.046875 -1.203125 0.046875 -1.53125q0 -3.578125 -1.671875 -5.046875q-2.234375 -1.984375 -6.671875 -1.984375q-4.125 0 -6.09375 1.453125q-1.96875 1.453125 -2.921875 5.125l-5.71875 -0.78125q0.78125 -3.671875 2.5625 -5.9375q1.796875 -2.265625 5.171875 -3.484375q3.390625 -1.21875 7.84375 -1.21875q4.4375 0 7.203125 1.046875q2.765625 1.03125 4.0625 2.609375q1.3125 1.578125 1.828125 3.984375q0.296875 1.5 0.296875 5.40625l0 7.8125q0 8.171875 0.375 10.34375q0.375 2.15625 1.46875 4.140625l-6.109375 0q-0.921875 -1.828125 -1.171875 -4.265625zm-0.5 -13.078125q-3.1875 1.296875 -9.5625 2.203125q-3.609375 0.53125 -5.109375 1.1875q-1.5 0.640625 -2.3125 1.890625q-0.8125 1.25 -0.8125 2.78125q0 2.34375 1.765625 3.90625q1.78125 1.5625 5.203125 1.5625q3.375 0 6.015625 -1.46875q2.640625 -1.484375 3.875 -4.0625q0.9375 -1.984375 0.9375 -5.859375l0 -2.140625zm14.946045 17.34375l0 -34.5625l5.265625 0l0 5.234375q2.03125 -3.671875 3.734375 -4.84375q1.703125 -1.171875 3.765625 -1.171875q2.953125 0 6.015625 1.890625l-2.015625 5.4375q-2.15625 -1.28125 -4.296875 -1.28125q-1.921875 0 -3.453125 1.15625q-1.53125 1.15625 -2.1875 3.203125q-0.96875 3.125 -0.96875 6.84375l0 18.09375l-5.859375 0z" fill-rule="nonzero"/><path fill="#000000" fill-opacity="0.0" d="m1113.7821 251.5433l54.015747 0l0 135.74805l-54.015747 0z" fill-rule="evenodd"/><path fill="#000000" d="m1128.8923 352.7033l0 -3.453125l7.671875 -1.34375q0.09375 -3.9375 0.140625 -7.71875q0.046875 -3.796875 0.046875 -7.640625l0 -42.140625l-7.859375 -0.96875l0 -3.359375l14.96875 -4.3125l1.34375 0.765625l-0.375 13.625l0 36.390625q0 3.84375 0.046875 7.6875q0.046875 3.828125 0.140625 7.671875l7.671875 1.34375l0 3.453125l-23.796875 0z" fill-rule="nonzero"/><path fill="#000000" fill-opacity="0.0" d="m2257.605 251.54855l54.01587 0l0 135.74805l-54.01587 0z" fill-rule="evenodd"/><path fill="#000000" d="m2270.6362 352.70856l0 -3.453125l6.90625 -1.25q0.109375 -3.65625 0.15625 -7.921875q0.046875 -4.265625 0.046875 -7.53125l0 -4.609375q0 -3.9375 -0.046875 -6.53125q-0.046875 -2.59375 -0.25 -5.46875l-7.578125 -0.859375l0 -3.359375l13.4375 -5.859375l1.4375 0.953125l1.0625 11.328125q2.390625 -5.75 6.1875 -9.015625q3.796875 -3.265625 7.640625 -3.265625q2.203125 0 4.125 0.96875q1.921875 0.953125 2.78125 2.578125q0 7.015625 -5.671875 7.015625q-1.625 0 -3.0625 -0.625q-1.4375 -0.625 -2.78125 -1.78125l-1.15625 -1.0625q-2.875 2.125 -4.796875 5.203125q-1.921875 3.0625 -3.171875 7.1875l0 7.203125q0 3.171875 0.046875 7.390625q0.046875 4.21875 0.140625 7.875l7.875 1.4375l0 3.453125l-23.328125 0z" fill-rule="nonzero"/><path fill="#000000" fill-opacity="0.0" d="m1632.1207 767.17847l54.015747 0l0 135.74805l-54.015747 0z" fill-rule="evenodd"/><path fill="#000000" d="m1645.5897 868.3385l0 -3.453125l7.59375 -1.34375q0.09375 -3.84375 0.140625 -7.671875q0.046875 -3.84375 0.046875 -7.6875l0 -20.359375l-7.96875 0l0 -4.21875l8.15625 -1.0625q0.671875 -7.671875 2.15625 -12.421875q1.5 -4.75 5.046875 -8.3125q3.078125 -3.0625 6.4375 -4.21875q3.359375 -1.15625 6.625 -1.15625q3.359375 0 5.9375 1.203125q2.59375 1.203125 3.265625 3.984375q-0.09375 1.828125 -1.625 3.078125q-1.53125 1.234375 -4.21875 1.234375q-3.46875 0 -6.921875 -2.875l-2.6875 -2.109375q-0.375 0.28125 -0.71875 0.578125q-0.328125 0.28125 -0.625 0.578125q-2.5 2.484375 -3.796875 7.53125q-1.28125 5.046875 -1.09375 13.109375l13.25 0l0 5.078125l-13.0625 0l0 20.359375q0 3.84375 0.046875 7.640625q0.046875 3.78125 0.140625 7.625l8.640625 1.4375l0 3.453125l-24.765625 0z" fill-rule="nonzero"/><path fill="#000000" fill-opacity="0.0" d="m425.98425 767.17847l54.015747 0l0 135.74805l-54.015747 0z" fill-rule="evenodd"/><path fill="#000000" d="m438.828 868.3385l0 -3.453125l7.09375 -1.34375q0.109375 -3.65625 0.15625 -7.875q0.046875 -4.21875 0.046875 -7.484375l0 -4.609375q0 -3.9375 -0.046875 -6.53125q-0.046875 -2.59375 -0.25 -5.46875l-7.578125 -0.859375l0 -3.359375l13.4375 -5.859375l1.4375 0.953125l0.765625 7.78125q3.359375 -3.84375 7.875 -6.28125q4.515625 -2.453125 8.9375 -2.453125q4.5 0 7.328125 2.109375q2.84375 2.109375 4.09375 6.90625q3.640625 -4.515625 8.15625 -6.765625q4.515625 -2.25 9.21875 -2.25q5.859375 0 9.0625 3.9375q3.21875 3.9375 3.21875 12.859375l0 9.890625q0 3.265625 0.046875 7.484375q0.046875 4.21875 0.140625 7.875l6.734375 1.34375l0 3.453125l-22.28125 0l0 -3.453125l7.109375 -1.34375q0.09375 -3.5625 0.140625 -7.828125q0.046875 -4.265625 0.046875 -7.53125l0 -8.359375q0 -6.71875 -1.921875 -9.0625q-1.921875 -2.359375 -6.140625 -2.359375q-2.96875 0 -6.09375 1.34375q-3.125 1.34375 -6.765625 4.703125q0.09375 1.0625 0.140625 2.265625q0.046875 1.1875 0.046875 2.53125l0 8.9375q0 3.265625 0.046875 7.484375q0.046875 4.21875 0.140625 7.875l6.71875 1.34375l0 3.453125l-22.265625 0l0 -3.453125l7.109375 -1.34375q0.09375 -3.5625 0.140625 -7.828125q0.046875 -4.265625 0.046875 -7.53125l0 -8.15625q0 -6.53125 -1.828125 -9.078125q-1.828125 -2.546875 -6.046875 -2.546875q-3.265625 0 -6.25 1.34375q-2.96875 1.34375 -6.515625 4.421875l0 14.015625q0 3.171875 0.046875 7.4375q0.046875 4.265625 0.140625 7.921875l6.625 1.34375l0 3.453125l-22.265625 0z" fill-rule="nonzero"/><path fill="#7f6000" d="m1291.2113 1608.7166l874.1417 0l0 27.590576l-874.1417 0z" fill-rule="evenodd"/><path stroke="#000000" stroke-width="4.0" stroke-linejoin="round" stroke-linecap="butt" d="m1291.2113 1608.7166l874.1417 0l0 27.590576l-874.1417 0z" fill-rule="evenodd"/><path fill="#cc0000" d="m1510.5814 1492.3158l114.74011 0l0 114.74011l-114.74011 0z" fill-rule="evenodd"/><path stroke="#000000" stroke-width="4.0" stroke-linejoin="round" stroke-linecap="butt" d="m1510.5814 1492.3158l114.74011 0l0 114.74011l-114.74011 0z" fill-rule="evenodd"/><path fill="#000000" d="m1548.7579 1525.9672l19.078125 0q5.671875 0 8.453125 0.484375q2.78125 0.46875 4.96875 1.96875q2.203125 1.484375 3.65625 3.984375q1.46875 2.484375 1.46875 5.578125q0 3.34375 -1.8125 6.15625q-1.796875 2.796875 -4.890625 4.1875q4.359375 1.28125 6.703125 4.34375q2.34375 3.046875 2.34375 7.1875q0 3.25 -1.515625 6.328125q-1.5 3.078125 -4.125 4.921875q-2.625 1.828125 -6.453125 2.25q-2.421875 0.265625 -11.625 0.328125l-16.25 0l0 -47.71875zm9.640625 7.953125l0 11.03125l6.3125 0q5.625 0 7.0 -0.171875q2.46875 -0.28125 3.890625 -1.703125q1.421875 -1.421875 1.421875 -3.734375q0 -2.203125 -1.234375 -3.578125q-1.21875 -1.390625 -3.625 -1.6875q-1.4375 -0.15625 -8.234375 -0.15625l-5.53125 0zm0 18.96875l0 12.75l8.921875 0q5.203125 0 6.609375 -0.28125q2.140625 -0.390625 3.484375 -1.90625q1.359375 -1.515625 1.359375 -4.046875q0 -2.15625 -1.046875 -3.65625q-1.03125 -1.5 -3.0 -2.171875q-1.96875 -0.6875 -8.546875 -0.6875l-7.78125 0z" fill-rule="nonzero"/><path fill="#6aa84f" d="m1338.2336 1492.3159l114.74011 0l0 114.74011l-114.74011 0z" fill-rule="evenodd"/><path stroke="#000000" stroke-width="4.0" stroke-linejoin="round" stroke-linecap="butt" d="m1338.2336 1492.3159l114.74011 0l0 114.74011l-114.74011 0z" fill-rule="evenodd"/><path fill="#000000" d="m1419.4102 1573.6859l-10.484375 0l-4.15625 -10.84375l-19.078125 0l-3.9375 10.84375l-10.21875 0l18.578125 -47.71875l10.1875 0l19.109375 47.71875zm-17.734375 -18.875l-6.578125 -17.703125l-6.4375 17.703125l13.015625 0z" fill-rule="nonzero"/><path fill="#f1c232" d="m1674.4609 1492.3151l114.740234 0l0 114.740234l-114.740234 0z" fill-rule="evenodd"/><path stroke="#000000" stroke-width="4.0" stroke-linejoin="round" stroke-linecap="butt" d="m1674.4609 1492.3151l114.740234 0l0 114.740234l-114.740234 0z" fill-rule="evenodd"/><path fill="#000000" d="m1743.1376 1556.1383l9.34375 2.96875q-2.140625 7.8125 -7.140625 11.609375q-5.0 3.78125 -12.671875 3.78125q-9.515625 0 -15.640625 -6.484375q-6.109375 -6.5 -6.109375 -17.765625q0 -11.90625 6.140625 -18.5q6.15625 -6.59375 16.1875 -6.59375q8.75 0 14.21875 5.171875q3.265625 3.0625 4.890625 8.796875l-9.546875 2.28125q-0.84375 -3.71875 -3.53125 -5.859375q-2.671875 -2.15625 -6.515625 -2.15625q-5.3125 0 -8.625 3.8125q-3.296875 3.8125 -3.296875 12.328125q0 9.046875 3.25 12.890625q3.265625 3.84375 8.46875 3.84375q3.84375 0 6.609375 -2.4375q2.765625 -2.4375 3.96875 -7.6875z" fill-rule="nonzero"/><path fill="#674ea7" d="m1674.4609 1380.1294l114.740234 0l0 114.740234l-114.740234 0z" fill-rule="evenodd"/><path stroke="#000000" stroke-width="12.0" stroke-linejoin="round" stroke-linecap="butt" d="m1674.4609 1380.1294l114.740234 0l0 114.740234l-114.740234 0z" fill-rule="evenodd"/><path fill="#000000" d="m1712.5751 1413.7808l17.609375 0q5.953125 0 9.078125 0.921875q4.203125 1.234375 7.1875 4.390625q3.0 3.15625 4.5625 7.734375q1.5625 4.5625 1.5625 11.265625q0 5.890625 -1.453125 10.15625q-1.796875 5.203125 -5.109375 8.4375q-2.515625 2.4375 -6.78125 3.796875q-3.1875 1.015625 -8.515625 1.015625l-18.140625 0l0 -47.71875zm9.640625 8.078125l0 31.59375l7.1875 0q4.03125 0 5.828125 -0.453125q2.34375 -0.578125 3.890625 -1.96875q1.546875 -1.40625 2.515625 -4.609375q0.984375 -3.21875 0.984375 -8.75q0 -5.53125 -0.984375 -8.484375q-0.96875 -2.96875 -2.734375 -4.625q-1.75 -1.65625 -4.453125 -2.25q-2.015625 -0.453125 -7.90625 -0.453125l-4.328125 0z" fill-rule="nonzero"/><path fill="#674ea7" d="m1674.4609 1264.4287l114.740234 0l0 114.740234l-114.740234 0z" fill-rule="evenodd"/><path stroke="#000000" stroke-width="12.0" stroke-linejoin="round" stroke-linecap="butt" d="m1674.4609 1264.4287l114.740234 0l0 114.740234l-114.740234 0z" fill-rule="evenodd"/><path fill="#000000" d="m1714.4452 1345.7988l0 -47.71875l35.390625 0l0 8.078125l-25.75 0l0 10.578125l23.953125 0l0 8.03125l-23.953125 0l0 12.984375l26.65625 0l0 8.046875l-36.296875 0z" fill-rule="nonzero"/><path fill="#3d85c6" d="m1838.3398 1492.3159l114.740234 0l0 114.740234l-114.740234 0z" fill-rule="evenodd"/><path stroke="#000000" stroke-width="4.0" stroke-linejoin="round" stroke-linecap="butt" d="m1838.3398 1492.3159l114.740234 0l0 114.740234l-114.740234 0z" fill-rule="evenodd"/><path fill="#000000" d="m1880.2737 1573.686l0 -47.71875l32.703125 0l0 8.078125l-23.078125 0l0 11.296875l19.921875 0l0 8.0625l-19.921875 0l0 20.28125l-9.625 0z" fill-rule="nonzero"/><path fill="#ffffff" d="m1323.2129 1044.5232l114.740234 0l0 114.740234l-114.740234 0z" fill-rule="evenodd"/><path stroke="#000000" stroke-width="12.0" stroke-linejoin="round" stroke-linecap="butt" d="m1323.2129 1044.5232l114.740234 0l0 114.740234l-114.740234 0z" fill-rule="evenodd"/><path fill="#000000" d="m1362.1761 1121.0933l-7.3125 0l0 -14.109375q0 -4.484375 -0.46875 -5.796875q-0.46875 -1.3125 -1.53125 -2.046875q-1.046875 -0.734375 -2.53125 -0.734375q-1.90625 0 -3.421875 1.046875q-1.5 1.046875 -2.0625 2.765625q-0.5625 1.71875 -0.5625 6.34375l0 12.53125l-7.3125 0l0 -27.65625l6.796875 0l0 4.0625q3.609375 -4.6875 9.109375 -4.6875q2.421875 0 4.421875 0.875q2.015625 0.875 3.03125 2.234375q1.03125 1.34375 1.4375 3.0625q0.40625 1.71875 0.40625 4.921875l0 17.1875zm25.621826 0l0 -4.140625q-1.515625 2.21875 -3.984375 3.5q-2.453125 1.265625 -5.1875 1.265625q-2.78125 0 -5.0 -1.21875q-2.203125 -1.234375 -3.203125 -3.4375q-0.984375 -2.21875 -0.984375 -6.125l0 -17.5l7.3125 0l0 12.703125q0 5.84375 0.40625 7.15625q0.40625 1.3125 1.46875 2.078125q1.078125 0.765625 2.71875 0.765625q1.875 0 3.359375 -1.015625q1.484375 -1.03125 2.03125 -2.546875q0.546875 -1.53125 0.546875 -7.46875l0 -11.671875l7.3125 0l0 27.65625l-6.796875 0zm14.371826 0l0 -38.171875l7.3125 0l0 38.171875l-7.3125 0zm14.816284 0l0 -38.171875l7.3125 0l0 38.171875l-7.3125 0z" fill-rule="nonzero"/><path fill="#e69138" d="m178.85039 47.301838l54.015747 0l0 55.811024l-54.015747 0z" fill-rule="evenodd"/><path stroke="#000000" stroke-width="4.0" stroke-linejoin="round" stroke-linecap="butt" d="m178.85039 47.301838l54.015747 0l0 55.811024l-54.015747 0z" fill-rule="evenodd"/><path fill="#e69138" d="m117.85827 162.92914l0 0c0 -44.217575 39.398933 -80.062996 87.99999 -80.062996c48.60106 0 88.000015 35.84542 88.000015 80.062996l-40.03151 0l0 0c0 -22.108795 -21.476227 -40.0315 -47.968506 -40.0315c-26.492264 0 -47.96849 17.922707 -47.96849 40.0315z" fill-rule="evenodd"/><path stroke="#000000" stroke-width="4.0" stroke-linejoin="round" stroke-linecap="butt" d="m117.85827 162.92914l0 0c0 -44.217575 39.398933 -80.062996 87.99999 -80.062996c48.60106 0 88.000015 35.84542 88.000015 80.062996l-40.03151 0l0 0c0 -22.108795 -21.476227 -40.0315 -47.968506 -40.0315c-26.492264 0 -47.96849 17.922707 -47.96849 40.0315z" fill-rule="evenodd"/><path fill="#e69138" d="m178.85039 978.9265l54.015747 0l0 55.811035l-54.015747 0z" fill-rule="evenodd"/><path stroke="#000000" stroke-width="12.0" stroke-linejoin="round" stroke-linecap="butt" d="m178.85039 978.9265l54.015747 0l0 55.811035l-54.015747 0z" fill-rule="evenodd"/><path fill="#e69138" d="m117.85827 1094.5538l0 0c0 -44.21765 39.398933 -80.06305 87.99999 -80.06305c48.60106 0 88.000015 35.845398 88.000015 80.06305l-40.03151 0l0 0c0 -22.108765 -21.476227 -40.031494 -47.968506 -40.031494c-26.492264 0 -47.96849 17.92273 -47.96849 40.031494z" fill-rule="evenodd"/><path stroke="#000000" stroke-width="12.0" stroke-linejoin="round" stroke-linecap="butt" d="m117.85827 1094.5538l0 0c0 -44.21765 39.398933 -80.06305 87.99999 -80.06305c48.60106 0 88.000015 35.845398 88.000015 80.06305l-40.03151 0l0 0c0 -22.108765 -21.476227 -40.031494 -47.968506 -40.031494c-26.492264 0 -47.96849 17.92273 -47.96849 40.031494z" fill-rule="evenodd"/><path fill="#e69138" d="m1353.5748 978.9265l54.015747 0l0 55.811035l-54.015747 0z" fill-rule="evenodd"/><path stroke="#000000" stroke-width="4.0" stroke-linejoin="round" stroke-linecap="butt" d="m1353.5748 978.9265l54.015747 0l0 55.811035l-54.015747 0z" fill-rule="evenodd"/><path fill="#e69138" d="m1292.5826 1094.5538l0 0c0 -44.21765 39.398926 -80.06305 88.0 -80.06305c48.601074 0 88.0 35.845398 88.0 80.06305l-40.031494 0l0 0c0 -22.108765 -21.476196 -40.031494 -47.968506 -40.031494c-26.492188 0 -47.968506 17.92273 -47.968506 40.031494z" fill-rule="evenodd"/><path stroke="#000000" stroke-width="4.0" stroke-linejoin="round" stroke-linecap="butt" d="m1292.5826 1094.5538l0 0c0 -44.21765 39.398926 -80.06305 88.0 -80.06305c48.601074 0 88.0 35.845398 88.0 80.06305l-40.031494 0l0 0c0 -22.108765 -21.476196 -40.031494 -47.968506 -40.031494c-26.492188 0 -47.968506 17.92273 -47.968506 40.031494z" fill-rule="evenodd"/><path fill="#e69138" d="m2895.37 1135.6063l54.015625 0l0 55.811035l-54.015625 0z" fill-rule="evenodd"/><path stroke="#000000" stroke-width="12.0" stroke-linejoin="round" stroke-linecap="butt" d="m2895.37 1135.6063l54.015625 0l0 55.811035l-54.015625 0z" fill-rule="evenodd"/><path fill="#e69138" d="m2834.378 1251.2336l0 0c0 -44.21765 39.398926 -80.06299 88.0 -80.06299c48.601074 0 88.0 35.845337 88.0 80.06299l-40.031494 0l0 0c0 -22.108887 -21.476318 -40.031494 -47.968506 -40.031494c-26.492188 0 -47.968506 17.922607 -47.968506 40.031494z" fill-rule="evenodd"/><path stroke="#000000" stroke-width="12.0" stroke-linejoin="round" stroke-linecap="butt" d="m2834.378 1251.2336l0 0c0 -44.21765 39.398926 -80.06299 88.0 -80.06299c48.601074 0 88.0 35.845337 88.0 80.06299l-40.031494 0l0 0c0 -22.108887 -21.476318 -40.031494 -47.968506 -40.031494c-26.492188 0 -47.968506 17.922607 -47.968506 40.031494z" fill-rule="evenodd"/><path fill="#e69138" d="m2902.5618 221.57217l54.015625 0l0 55.811035l-54.015625 0z" fill-rule="evenodd"/><path stroke="#000000" stroke-width="4.0" stroke-linejoin="round" stroke-linecap="butt" d="m2902.5618 221.57217l54.015625 0l0 55.811035l-54.015625 0z" fill-rule="evenodd"/><path fill="#e69138" d="m2841.5696 337.19946l0 0c0 -44.21756 39.398926 -80.06299 88.0 -80.06299c48.601074 0 88.0 35.84543 88.0 80.06299l-40.031494 0l0 0c0 -22.108765 -21.476318 -40.031494 -47.968506 -40.031494c-26.492188 0 -47.968506 17.92273 -47.968506 40.031494z" fill-rule="evenodd"/><path stroke="#000000" stroke-width="4.0" stroke-linejoin="round" stroke-linecap="butt" d="m2841.5696 337.19946l0 0c0 -44.21756 39.398926 -80.06299 88.0 -80.06299c48.601074 0 88.0 35.84543 88.0 80.06299l-40.031494 0l0 0c0 -22.108765 -21.476318 -40.031494 -47.968506 -40.031494c-26.492188 0 -47.968506 17.92273 -47.968506 40.031494z" fill-rule="evenodd"/></g></svg>