<svg version="1.1" viewBox="0.0 0.0 846.9002624671916 527.5879265091863" fill="none" stroke="none" stroke-linecap="square" stroke-miterlimit="10" xmlns:xlink="http://www.w3.org/1999/xlink" xmlns="http://www.w3.org/2000/svg"><clipPath id="p.0"><path d="m0 0l846.90027 0l0 527.58795l-846.90027 0l0 -527.58795z" clip-rule="nonzero"/></clipPath><g clip-path="url(#p.0)"><path fill="#000000" fill-opacity="0.0" d="m0 0l846.90027 0l0 527.58795l-846.90027 0z" fill-rule="evenodd"/><path fill="#9fc5e8" d="m105.93426 48.94402l0 0c0 -17.603535 45.59646 -31.874018 101.84252 -31.874018l0 0c56.24608 0 101.842514 14.270483 101.842514 31.874018l0 0c0 17.603535 -45.596436 31.874012 -101.842514 31.874012l0 0c-56.246063 0 -101.84252 -14.270477 -101.84252 -31.874012z" fill-rule="evenodd"/><path stroke="#3d85c6" stroke-width="4.0" stroke-linejoin="round" stroke-linecap="butt" d="m105.93426 48.94402l0 0c0 -17.603535 45.59646 -31.874018 101.84252 -31.874018l0 0c56.24608 0 101.842514 14.270483 101.842514 31.874018l0 0c0 17.603535 -45.596436 31.874012 -101.842514 31.874012l0 0c-56.246063 0 -101.84252 -14.270477 -101.84252 -31.874012z" fill-rule="evenodd"/><path fill="#000000" d="m178.52744 63.06402l0 -27.484375l8.984375 0q4.46875 0 6.71875 1.859375q2.265625 1.84375 2.265625 5.46875q0 1.921875 -1.09375 3.40625q-1.09375 1.484375 -2.984375 2.296875q2.234375 0.625 3.515625 2.375q1.296875 1.734375 1.296875 4.15625q0 3.6875 -2.40625 5.8125q-2.390625 2.109375 -6.765625 2.109375l-9.53125 0zm3.625 -12.859375l0 9.890625l5.984375 0q2.53125 0 3.984375 -1.3125q1.46875 -1.3125 1.46875 -3.609375q0 -4.96875 -5.390625 -4.96875l-6.046875 0zm0 -2.90625l5.46875 0q2.390625 0 3.8125 -1.1875q1.421875 -1.1875 1.421875 -3.21875q0 -2.265625 -1.328125 -3.296875q-1.3125 -1.03125 -4.015625 -1.03125l-5.359375 0l0 8.734375zm18.97203 5.359375q0 -3.0 1.171875 -5.390625q1.1875 -2.40625 3.28125 -3.703125q2.109375 -1.296875 4.8125 -1.296875q4.171875 0 6.75 2.890625q2.578125 2.875 2.578125 7.671875l0 0.25q0 2.984375 -1.140625 5.359375q-1.140625 2.359375 -3.265625 3.6875q-2.125 1.3125 -4.890625 1.3125q-4.140625 0 -6.71875 -2.875q-2.578125 -2.890625 -2.578125 -7.65625l0 -0.25zm3.515625 0.421875q0 3.390625 1.5625 5.453125q1.578125 2.0625 4.21875 2.0625q2.671875 0 4.234375 -2.078125q1.5625 -2.09375 1.5625 -5.859375q0 -3.359375 -1.59375 -5.4375q-1.59375 -2.09375 -4.234375 -2.09375q-2.578125 0 -4.171875 2.0625q-1.578125 2.0625 -1.578125 5.890625zm25.915283 -2.984375l4.53125 -7.453125l4.0625 0l-6.671875 10.09375l6.890625 10.328125l-4.046875 0l-4.71875 -7.640625l-4.71875 7.640625l-4.046875 0l6.875 -10.328125l-6.671875 -10.09375l4.03125 0l4.484375 7.453125z" fill-rule="nonzero"/><path fill="#9fc5e8" d="m531.933 48.94357l0 0c0 -17.603533 50.05945 -31.874016 111.810974 -31.874016l0 0c61.751526 0 111.811035 14.270483 111.811035 31.874016l0 0c0 17.603535 -50.05951 31.87402 -111.811035 31.87402l0 0c-61.751526 0 -111.810974 -14.270485 -111.810974 -31.87402z" fill-rule="evenodd"/><path stroke="#3d85c6" stroke-width="4.0" stroke-linejoin="round" stroke-linecap="butt" d="m531.933 48.94357l0 0c0 -17.603533 50.05945 -31.874016 111.810974 -31.874016l0 0c61.751526 0 111.811035 14.270483 111.811035 31.874016l0 0c0 17.603535 -50.05951 31.87402 -111.811035 31.87402l0 0c-61.751526 0 -111.810974 -14.270485 -111.810974 -31.87402z" fill-rule="evenodd"/><path fill="#000000" d="m588.64136 50.81357q-4.65625 -1.34375 -6.78125 -3.296875q-2.125 -1.953125 -2.125 -4.8125q0 -3.25 2.59375 -5.375q2.59375 -2.125 6.75 -2.125q2.828125 0 5.046875 1.09375q2.21875 1.09375 3.4375 3.03125q1.21875 1.921875 1.21875 4.203125l-3.640625 0q0 -2.5 -1.59375 -3.921875q-1.578125 -1.421875 -4.46875 -1.421875q-2.671875 0 -4.171875 1.1875q-1.5 1.171875 -1.5 3.265625q0 1.671875 1.421875 2.84375q1.421875 1.15625 4.84375 2.125q3.421875 0.953125 5.359375 2.125q1.9375 1.15625 2.875 2.703125q0.9375 1.546875 0.9375 3.640625q0 3.34375 -2.609375 5.359375q-2.609375 2.0 -6.96875 2.0q-2.828125 0 -5.28125 -1.078125q-2.453125 -1.09375 -3.78125 -2.96875q-1.328125 -1.890625 -1.328125 -4.296875l3.640625 0q0 2.5 1.828125 3.953125q1.84375 1.4375 4.921875 1.4375q2.875 0 4.40625 -1.171875q1.53125 -1.171875 1.53125 -3.1875q0 -2.03125 -1.421875 -3.125q-1.421875 -1.109375 -5.140625 -2.1875zm26.902039 10.234375q-2.03125 2.390625 -5.984375 2.390625q-3.265625 0 -4.984375 -1.890625q-1.703125 -1.90625 -1.71875 -5.625l0 -13.28125l3.5 0l0 13.1875q0 4.65625 3.765625 4.65625q4.0 0 5.328125 -2.984375l0 -14.859375l3.5 0l0 20.421875l-3.328125 0l-0.078125 -2.015625zm18.575623 -15.28125q-0.796875 -0.125 -1.71875 -0.125q-3.4375 0 -4.65625 2.921875l0 14.5l-3.5 0l0 -20.421875l3.40625 0l0.046875 2.359375q1.71875 -2.734375 4.875 -2.734375q1.015625 0 1.546875 0.265625l0 3.234375zm5.2074585 17.296875l0 -17.71875l-3.234375 0l0 -2.703125l3.234375 0l0 -2.09375q0 -3.28125 1.75 -5.078125q1.765625 -1.796875 4.96875 -1.796875q1.203125 0 2.40625 0.328125l-0.203125 2.828125q-0.875 -0.171875 -1.875 -0.171875q-1.703125 0 -2.625 1.0q-0.921875 0.984375 -0.921875 2.828125l0 2.15625l4.359375 0l0 2.703125l-4.359375 0l0 17.71875l-3.5 0zm24.310791 0q-0.296875 -0.609375 -0.484375 -2.15625q-2.4375 2.53125 -5.8125 2.53125q-3.03125 0 -4.96875 -1.703125q-1.921875 -1.703125 -1.921875 -4.328125q0 -3.203125 2.421875 -4.953125q2.421875 -1.765625 6.828125 -1.765625l3.390625 0l0 -1.609375q0 -1.828125 -1.09375 -2.90625q-1.09375 -1.09375 -3.234375 -1.09375q-1.859375 0 -3.125 0.953125q-1.265625 0.9375 -1.265625 2.265625l-3.515625 0q0 -1.53125 1.078125 -2.953125q1.09375 -1.421875 2.953125 -2.25q1.859375 -0.828125 4.09375 -0.828125q3.53125 0 5.53125 1.765625q2.0 1.765625 2.078125 4.859375l0 9.390625q0 2.8125 0.703125 4.484375l0 0.296875l-3.65625 0zm-5.796875 -2.65625q1.640625 0 3.109375 -0.84375q1.484375 -0.859375 2.140625 -2.21875l0 -4.1875l-2.734375 0q-6.421875 0 -6.421875 3.75q0 1.640625 1.09375 2.578125q1.09375 0.921875 2.8125 0.921875zm22.401917 0.1875q1.875 0 3.265625 -1.125q1.40625 -1.140625 1.546875 -2.84375l3.3125 0q-0.09375 1.75 -1.21875 3.34375q-1.109375 1.578125 -2.96875 2.53125q-1.859375 0.9375 -3.9375 0.9375q-4.171875 0 -6.640625 -2.78125q-2.453125 -2.78125 -2.453125 -7.609375l0 -0.59375q0 -2.984375 1.09375 -5.296875q1.09375 -2.328125 3.140625 -3.609375q2.046875 -1.28125 4.84375 -1.28125q3.4375 0 5.703125 2.0625q2.28125 2.046875 2.4375 5.328125l-3.3125 0q-0.140625 -1.984375 -1.5 -3.25q-1.34375 -1.28125 -3.328125 -1.28125q-2.65625 0 -4.125 1.921875q-1.453125 1.921875 -1.453125 5.546875l0 0.65625q0 3.53125 1.453125 5.4375q1.453125 1.90625 4.140625 1.90625zm20.531006 2.84375q-4.15625 0 -6.765625 -2.71875q-2.609375 -2.734375 -2.609375 -7.296875l0 -0.640625q0 -3.046875 1.15625 -5.421875q1.171875 -2.390625 3.25 -3.734375q2.09375 -1.359375 4.53125 -1.359375q3.984375 0 6.1875 2.625q2.203125 2.625 2.203125 7.5l0 1.453125l-13.828125 0q0.078125 3.03125 1.765625 4.890625q1.6875 1.859375 4.296875 1.859375q1.84375 0 3.125 -0.75q1.28125 -0.765625 2.25 -2.015625l2.125 1.671875q-2.5625 3.9375 -7.6875 3.9375zm-0.4375 -18.3125q-2.125 0 -3.5625 1.546875q-1.421875 1.53125 -1.765625 4.3125l10.234375 0l0 -0.265625q-0.15625 -2.65625 -1.4375 -4.125q-1.28125 -1.46875 -3.46875 -1.46875z" fill-rule="nonzero"/><path fill="#000000" fill-opacity="0.0" d="m309.6193 48.94402l222.29922 0" fill-rule="evenodd"/><path stroke="#3d85c6" stroke-width="4.0" stroke-linejoin="round" stroke-linecap="butt" d="m309.6193 48.94402l198.29922 0" fill-rule="evenodd"/><path fill="#3d85c6" stroke="#3d85c6" stroke-width="4.0" stroke-linecap="butt" d="m507.91852 55.55095l18.152405 -6.60693l-18.152405 -6.60693z" fill-rule="evenodd"/><path fill="#000000" fill-opacity="0.0" d="m325.79922 48.94357l169.29132 0l0 53.322834l-169.29132 0z" fill-rule="evenodd"/><path fill="#000000" d="m379.48004 64.91732l0 3.109375l3.78125 0l0 13.703125l-3.78125 0l0 3.09375l11.515625 0l0 -3.09375l-3.890625 0l0 -13.703125l3.890625 0l0 -3.109375l-11.515625 0zm25.63086 15.84375q0 0.34375 -0.171875 0.640625q-0.171875 0.28125 -0.515625 0.5q-0.34375 0.21875 -0.90625 0.34375q-0.546875 0.125 -1.28125 0.125q-0.625 0 -1.203125 -0.109375q-0.578125 -0.125 -1.03125 -0.40625q-0.453125 -0.265625 -0.75 -0.6875q-0.28125 -0.4375 -0.3125 -1.03125l-3.625 0q0 0.90625 0.4375 1.796875q0.453125 0.890625 1.3125 1.59375q0.859375 0.703125 2.140625 1.140625q1.28125 0.4375 2.9375 0.4375q1.515625 0 2.75 -0.328125q1.234375 -0.34375 2.109375 -0.9375q0.859375 -0.609375 1.328125 -1.421875q0.46875 -0.828125 0.46875 -1.8125q0 -1.078125 -0.46875 -1.84375q-0.46875 -0.78125 -1.296875 -1.328125q-0.84375 -0.53125 -2.0 -0.859375q-1.140625 -0.34375 -2.46875 -0.5625q-0.9375 -0.140625 -1.546875 -0.328125q-0.59375 -0.1875 -0.9375 -0.421875q-0.359375 -0.21875 -0.5 -0.5q-0.125 -0.28125 -0.125 -0.609375q0 -0.328125 0.15625 -0.609375q0.15625 -0.296875 0.453125 -0.515625q0.328125 -0.25 0.84375 -0.375q0.53125 -0.140625 1.21875 -0.140625q0.828125 0 1.40625 0.203125q0.578125 0.203125 0.921875 0.546875q0.25 0.25 0.375 0.578125q0.125 0.3125 0.125 0.6875l3.796875 0q0 -1.03125 -0.453125 -1.90625q-0.453125 -0.875 -1.296875 -1.515625q-0.859375 -0.625 -2.09375 -0.984375q-1.234375 -0.359375 -2.78125 -0.359375q-1.46875 0 -2.65625 0.375q-1.171875 0.359375 -1.984375 0.984375q-0.828125 0.625 -1.265625 1.46875q-0.4375 0.828125 -0.4375 1.75q0 0.9375 0.4375 1.671875q0.4375 0.71875 1.203125 1.265625q0.765625 0.5625 1.828125 0.953125q1.078125 0.390625 2.375 0.640625q1.03125 0.203125 1.6875 0.390625q0.671875 0.1875 1.09375 0.40625q0.390625 0.234375 0.546875 0.5q0.15625 0.25 0.15625 0.59375zm21.021484 -4.421875l0 -2.90625q0 -1.359375 -0.265625 -2.5625q-0.25 -1.203125 -0.71875 -2.203125q-0.4375 -0.890625 -1.046875 -1.625q-0.609375 -0.75 -1.421875 -1.265625q-0.796875 -0.546875 -1.8125 -0.84375q-1.0 -0.296875 -2.15625 -0.296875q-1.125 0 -2.09375 0.296875q-0.96875 0.28125 -1.75 0.8125q-0.796875 0.546875 -1.40625 1.3125q-0.609375 0.765625 -1.03125 1.71875q-0.4375 1.0 -0.671875 2.171875q-0.21875 1.171875 -0.21875 2.484375l0 2.90625q0 1.21875 0.1875 2.328125q0.203125 1.109375 0.59375 2.046875q0.421875 1.03125 1.046875 1.84375q0.640625 0.8125 1.421875 1.390625q0.8125 0.546875 1.796875 0.859375q0.984375 0.296875 2.140625 0.296875q1.09375 0 2.046875 -0.28125q0.953125 -0.265625 1.75 -0.734375q0.875 -0.546875 1.546875 -1.359375q0.6875 -0.828125 1.15625 -1.8125q0.4375 -0.984375 0.671875 -2.140625q0.234375 -1.15625 0.234375 -2.4375zm-3.90625 -2.9375l0 2.9375q0 0.734375 -0.078125 1.421875q-0.0625 0.671875 -0.21875 1.25q-0.1875 0.734375 -0.515625 1.328125q-0.3125 0.578125 -0.78125 0.953125q-0.375 0.3125 -0.859375 0.484375q-0.46875 0.15625 -1.046875 0.15625q-0.59375 0 -1.078125 -0.171875q-0.46875 -0.171875 -0.828125 -0.5q-0.40625 -0.375 -0.703125 -0.96875q-0.28125 -0.59375 -0.4375 -1.328125q-0.140625 -0.5625 -0.203125 -1.234375q-0.046875 -0.671875 -0.046875 -1.390625l0 -2.9375q0 -0.765625 0.0625 -1.453125q0.0625 -0.703125 0.203125 -1.296875q0.171875 -0.765625 0.5 -1.328125q0.328125 -0.578125 0.78125 -0.96875q0.34375 -0.25 0.765625 -0.390625q0.4375 -0.140625 0.96875 -0.140625q0.5625 0 1.015625 0.15625q0.46875 0.15625 0.84375 0.421875q0.453125 0.375 0.796875 0.953125q0.34375 0.578125 0.546875 1.3125q0.171875 0.59375 0.234375 1.28125q0.078125 0.6875 0.078125 1.453125zm6.9433594 11.421875l3.828125 0l0 -10.515625q0.1875 -0.296875 0.421875 -0.546875q0.234375 -0.25 0.515625 -0.421875q0.359375 -0.25 0.8125 -0.375q0.453125 -0.125 1.0 -0.125q0.65625 0 1.171875 0.140625q0.53125 0.125 0.890625 0.453125q0.375 0.328125 0.5625 0.90625q0.203125 0.5625 0.203125 1.4375l0 9.046875l3.8125 0l0 -9.109375q0 -1.609375 -0.375 -2.734375q-0.375 -1.125 -1.046875 -1.859375q-0.6875 -0.703125 -1.625 -1.03125q-0.921875 -0.328125 -2.046875 -0.328125q-0.875 0 -1.65625 0.25q-0.78125 0.234375 -1.4375 0.703125q-0.375 0.265625 -0.71875 0.609375q-0.34375 0.34375 -0.625 0.75l-0.234375 -2.046875l-3.453125 0l0 14.796875z" fill-rule="nonzero"/><path shape-rendering="crispEdges" fill="#ffffff" d="m220.44751 156.44751l203.00262 0l0 65.595795l-203.00262 0l0 -65.595795z" fill-rule="nonzero"/><path shape-rendering="crispEdges" fill="#ffffff" d="m423.45013 156.44751l203.00262 0l0 65.595795l-203.00262 0l0 -65.595795z" fill-rule="nonzero"/><path shape-rendering="crispEdges" fill="#ffffff" d="m220.44751 222.0433l203.00262 0l0 65.595795l-203.00262 0l0 -65.595795z" fill-rule="nonzero"/><path shape-rendering="crispEdges" fill="#ffffff" d="m423.45013 222.0433l203.00262 0l0 65.595795l-203.00262 0l0 -65.595795z" fill-rule="nonzero"/><path shape-rendering="crispEdges" fill="#ffffff" d="m220.44751 287.6391l203.00262 0l0 65.595795l-203.00262 0l0 -65.595795z" fill-rule="nonzero"/><path shape-rendering="crispEdges" fill="#ffffff" d="m423.45013 287.6391l203.00262 0l0 65.595795l-203.00262 0l0 -65.595795z" fill-rule="nonzero"/><path stroke="#000000" stroke-width="2.0" stroke-linecap="butt" d="m220.44751 155.44751l0 198.78738" fill-rule="nonzero"/><path stroke="#000000" stroke-width="2.0" stroke-linecap="butt" d="m423.45013 155.44751l0 198.78738" fill-rule="nonzero"/><path stroke="#000000" stroke-width="2.0" stroke-linecap="butt" d="m626.45276 155.44751l0 198.78738" fill-rule="nonzero"/><path stroke="#000000" stroke-width="2.0" stroke-linecap="butt" d="m219.44751 156.44751l408.00525 0" fill-rule="nonzero"/><path stroke="#000000" stroke-width="2.0" stroke-linecap="butt" d="m219.44751 222.0433l408.00525 0" fill-rule="nonzero"/><path stroke="#000000" stroke-width="2.0" stroke-linecap="butt" d="m219.44751 287.6391l408.00525 0" fill-rule="nonzero"/><path stroke="#000000" stroke-width="2.0" stroke-linecap="butt" d="m219.44751 353.2349l408.00525 0" fill-rule="nonzero"/><path fill="#000000" d="m299.96555 190.3175l-1.3125 0q0 2.703125 0.015625 5.15625q0.03125 2.453125 0.0625 4.859375l1.234375 0q2.71875 0 4.203125 -1.234375q1.484375 -1.25 1.484375 -3.71875q0 -2.625 -1.40625 -3.84375q-1.40625 -1.21875 -4.28125 -1.21875zm0.125 -10.90625l-1.359375 0q-0.03125 2.171875 -0.0625 4.390625q-0.015625 2.21875 -0.015625 4.46875l1.09375 0q2.46875 0 3.625 -1.171875q1.15625 -1.1875 1.15625 -3.46875q0 -4.21875 -4.4375 -4.21875zm-10.78125 -0.15625l0 -2.078125l12.484375 0q3.28125 0 5.25 0.796875q1.96875 0.78125 2.859375 2.140625q0.890625 1.34375 0.890625 3.046875q0 1.3125 -0.578125 2.453125q-0.578125 1.140625 -2.015625 2.015625q-1.421875 0.859375 -3.96875 1.328125q4.328125 0.5 6.203125 2.1875q1.875 1.6875 1.875 4.3125q0 1.1875 -0.546875 2.453125q-0.546875 1.25 -1.859375 2.296875q-1.3125 1.046875 -3.65625 1.703125q-2.328125 0.65625 -5.921875 0.65625l-11.015625 0l0 -2.09375l2.890625 -0.296875q0.078125 -2.40625 0.078125 -4.828125q0 -2.4375 0 -4.921875l0 -1.125q0 -2.390625 0 -4.84375q0 -2.453125 -0.078125 -4.890625l-2.890625 -0.3125zm35.092102 23.890625q-3.015625 0 -5.21875 -1.25q-2.203125 -1.265625 -3.40625 -3.515625q-1.1875 -2.265625 -1.1875 -5.25q0 -2.96875 1.296875 -5.171875q1.296875 -2.203125 3.53125 -3.4375q2.234375 -1.25 4.984375 -1.25q2.75 0 4.96875 1.203125q2.21875 1.203125 3.53125 3.421875q1.328125 2.21875 1.328125 5.234375q0 3.015625 -1.203125 5.265625q-1.203125 2.234375 -3.40625 3.5q-2.203125 1.25 -5.21875 1.25zm0 -2.015625q1.625 0 2.4375 -1.890625q0.8125 -1.890625 0.8125 -5.984375q0 -4.140625 -0.8125 -6.03125q-0.8125 -1.890625 -2.4375 -1.890625q-1.65625 0 -2.46875 1.890625q-0.8125 1.890625 -0.8125 6.03125q0 4.09375 0.8125 5.984375q0.8125 1.890625 2.46875 1.890625zm23.614319 -15.53125l0 -1.703125l6.765625 0l0 1.703125l-2.203125 0.421875l-4.484375 6.078125l5.1875 8.265625l2.203125 0.390625l0 1.8125l-11.0625 0l0 -1.8125l1.78125 -0.28125l-2.859375 -4.625l-3.015625 4.546875l1.890625 0.359375l0 1.8125l-7.296875 0l0 -1.8125l2.65625 -0.421875l4.640625 -6.3125l-5.015625 -8.109375l-2.171875 -0.3125l0 -1.703125l10.859375 0l0 1.703125l-1.703125 0.265625l2.828125 4.484375l2.859375 -4.328125l-1.859375 -0.421875z" fill-rule="nonzero"/><path fill="#000000" d="m484.71597 179.255l0 -2.078125l12.4375 0l0 2.078125l-2.890625 0.3125q-0.046875 2.359375 -0.0625 4.765625q-0.015625 2.390625 -0.015625 4.828125l0 1.390625q0 2.390625 0.015625 4.8125q0.015625 2.40625 0.0625 4.8125l2.890625 0.296875l0 2.09375l-12.4375 0l0 -2.09375l2.890625 -0.296875q0.078125 -2.359375 0.078125 -4.75q0 -2.40625 0 -4.84375l0 -1.421875q0 -2.40625 0 -4.8125q0 -2.421875 -0.078125 -4.78125l-2.890625 -0.3125zm21.105316 23.890625q-3.671875 0 -6.734375 -1.78125l0.125 -4.71875l3.09375 0l0.65625 3.828125q0.6875 0.28125 1.375 0.421875q0.703125 0.125 1.515625 0.125q1.671875 0 2.546875 -0.5625q0.890625 -0.5625 0.890625 -1.71875q0 -0.890625 -0.65625 -1.546875q-0.65625 -0.65625 -2.578125 -1.203125l-2.09375 -0.609375q-2.25 -0.65625 -3.46875 -2.125q-1.203125 -1.46875 -1.203125 -3.640625q0 -2.65625 2.078125 -4.5q2.09375 -1.84375 6.0 -1.84375q1.703125 0 3.140625 0.40625q1.453125 0.40625 2.96875 1.1875l-0.28125 4.21875l-3.09375 0l-0.765625 -3.328125q-0.8125 -0.3125 -2.125 -0.3125q-1.3125 0 -2.109375 0.546875q-0.796875 0.53125 -0.796875 1.625q0 0.765625 0.609375 1.375q0.625 0.59375 2.640625 1.203125l1.890625 0.546875q2.75 0.8125 3.9375 2.328125q1.203125 1.5 1.203125 3.65625q0 3.0625 -2.34375 4.75q-2.328125 1.671875 -6.421875 1.671875zm23.260498 0.15625q-2.390625 0 -4.59375 -0.828125q-2.203125 -0.828125 -3.921875 -2.515625q-1.71875 -1.6875 -2.734375 -4.1875q-1.0 -2.515625 -1.0 -5.921875q0 -3.328125 1.0 -5.828125q1.015625 -2.515625 2.75 -4.203125q1.734375 -1.6875 3.9375 -2.53125q2.203125 -0.84375 4.5625 -0.84375q2.40625 0 4.578125 0.828125q2.1875 0.828125 3.921875 2.5q1.75 1.65625 2.75 4.1875q1.015625 2.53125 1.015625 5.890625q0 3.359375 -1.015625 5.875q-1.0 2.515625 -2.71875 4.203125q-1.71875 1.671875 -3.921875 2.53125q-2.203125 0.84375 -4.609375 0.84375zm0 -2.234375q1.984375 0 3.15625 -1.46875q1.171875 -1.484375 1.71875 -4.015625q0.546875 -2.53125 0.546875 -5.734375q0 -3.203125 -0.546875 -5.71875q-0.546875 -2.515625 -1.71875 -3.984375q-1.171875 -1.46875 -3.15625 -1.46875q-1.921875 0 -3.125 1.46875q-1.203125 1.46875 -1.75 3.984375q-0.53125 2.515625 -0.53125 5.71875q0 3.203125 0.53125 5.734375q0.546875 2.53125 1.75 4.015625q1.203125 1.46875 3.125 1.46875zm14.652283 1.5l0 -1.8125l2.09375 -0.46875q0.03125 -1.390625 0.03125 -3.015625q0 -1.625 0 -2.828125l0 -2.234375q0 -1.578125 -0.015625 -2.453125q-0.015625 -0.875 -0.09375 -2.03125l-2.359375 -0.34375l0 -1.515625l7.609375 -2.59375l0.703125 0.4375l0.234375 2.78125q1.5 -1.78125 2.984375 -2.5q1.5 -0.71875 3.203125 -0.71875q2.5 0 4.03125 1.671875q1.53125 1.65625 1.53125 4.984375l0 4.515625q0 1.28125 0 2.890625q0 1.59375 0.03125 3.03125l1.9375 0.390625l0 1.8125l-10.203125 0l0 -1.8125l2.015625 -0.421875q0.03125 -1.4375 0.03125 -3.03125q0 -1.609375 0 -2.859375l0 -4.046875q0 -1.859375 -0.5 -2.609375q-0.5 -0.765625 -1.625 -0.765625q-1.515625 0 -3.328125 1.40625l0 6.015625q0 1.203125 0 2.84375q0 1.640625 0.046875 3.078125l1.8125 0.390625l0 1.8125l-10.171875 0z" fill-rule="nonzero"/><path fill="#000000" d="m328.18893 268.55392q-1.390625 0 -2.328125 -0.8125q-0.921875 -0.8125 -1.140625 -2.171875q-1.59375 1.546875 -2.796875 2.328125q-1.1875 0.765625 -2.890625 0.765625q-2.125 0 -3.65625 -1.21875q-1.53125 -1.21875 -1.53125 -3.609375q0 -1.125 0.515625 -2.09375q0.53125 -0.96875 1.921875 -1.890625q1.390625 -0.921875 3.984375 -1.859375q0.890625 -0.296875 2.046875 -0.640625q1.15625 -0.359375 2.328125 -0.625l0 -0.96875q0 -2.828125 -0.859375 -3.75q-0.84375 -0.9375 -2.78125 -0.9375q-0.421875 0 -0.953125 0.046875q-0.515625 0.03125 -1.140625 0.1875l-0.734375 2.515625q-0.53125 1.859375 -2.0 1.859375q-1.625 0 -1.828125 -1.59375q0.546875 -2.203125 2.578125 -3.484375q2.03125 -1.296875 4.96875 -1.296875q3.046875 0 4.515625 1.53125q1.46875 1.515625 1.46875 5.1875l0 8.234375q0 1.234375 0.390625 1.765625q0.390625 0.515625 1.0 0.515625q0.515625 0 0.859375 -0.234375q0.34375 -0.234375 0.65625 -0.609375l0.765625 0.84375q-0.6875 1.125 -1.515625 1.578125q-0.828125 0.4375 -1.84375 0.4375zm-10.890625 -5.296875q0 1.546875 0.875 2.203125q0.890625 0.65625 2.203125 0.65625q0.59375 0 1.109375 -0.15625q0.515625 -0.15625 1.25 -0.59375q0.734375 -0.453125 1.90625 -1.296875l0 -5.921875q-1.015625 0.28125 -1.984375 0.609375q-0.953125 0.328125 -1.578125 0.546875q-1.65625 0.671875 -2.46875 1.375q-0.8125 0.6875 -1.0625 1.34375q-0.25 0.65625 -0.25 1.234375z" fill-rule="nonzero"/><path fill="#000000" d="m490.17755 268.6633q-2.0 0 -3.203125 -1.078125q-1.203125 -1.078125 -1.203125 -3.328125q0 -0.734375 0.015625 -1.4375q0.03125 -0.71875 0.03125 -1.84375l0 -9.125l-3.21875 0l0 -1.703125l3.4375 -0.421875l1.015625 -5.1875l2.3125 0l-0.234375 5.265625l5.21875 0l0 2.046875l-5.25 0l0 11.984375q0 1.46875 0.578125 2.15625q0.578125 0.671875 1.546875 0.671875q0.65625 0 1.25 -0.265625q0.609375 -0.28125 1.34375 -0.78125l0.921875 1.0q-1.578125 2.046875 -4.5625 2.046875zm20.719543 -0.109375q-1.390625 0 -2.328125 -0.8125q-0.921875 -0.8125 -1.140625 -2.171875q-1.59375 1.546875 -2.796875 2.328125q-1.1875 0.765625 -2.890625 0.765625q-2.125 0 -3.65625 -1.21875q-1.53125 -1.21875 -1.53125 -3.609375q0 -1.125 0.515625 -2.09375q0.53125 -0.96875 1.921875 -1.890625q1.390625 -0.921875 3.984375 -1.859375q0.890625 -0.296875 2.046875 -0.640625q1.15625 -0.359375 2.328125 -0.625l0 -0.96875q0 -2.828125 -0.859375 -3.75q-0.84375 -0.9375 -2.78125 -0.9375q-0.421875 0 -0.953125 0.046875q-0.515625 0.03125 -1.140625 0.1875l-0.734375 2.515625q-0.53125 1.859375 -2.0 1.859375q-1.625 0 -1.828125 -1.59375q0.546875 -2.203125 2.578125 -3.484375q2.03125 -1.296875 4.96875 -1.296875q3.046875 0 4.515625 1.53125q1.46875 1.515625 1.46875 5.1875l0 8.234375q0 1.234375 0.390625 1.765625q0.390625 0.515625 1.0 0.515625q0.515625 0 0.859375 -0.234375q0.34375 -0.234375 0.65625 -0.609375l0.765625 0.84375q-0.6875 1.125 -1.515625 1.578125q-0.828125 0.4375 -1.84375 0.4375zm-10.890625 -5.296875q0 1.546875 0.875 2.203125q0.890625 0.65625 2.203125 0.65625q0.59375 0 1.109375 -0.15625q0.515625 -0.15625 1.25 -0.59375q0.734375 -0.453125 1.90625 -1.296875l0 -5.921875q-1.015625 0.28125 -1.984375 0.609375q-0.953125 0.328125 -1.578125 0.546875q-1.65625 0.671875 -2.46875 1.375q-0.8125 0.6875 -1.0625 1.34375q-0.25 0.65625 -0.25 1.234375zm15.644775 4.90625l0 -1.390625l2.90625 -0.5q0.03125 -1.46875 0.046875 -3.1875q0.03125 -1.71875 0.03125 -3.046875l0 -16.96875l-3.171875 -0.375l0 -1.359375l5.90625 -1.734375l0.546875 0.3125l-0.15625 5.484375l0 6.875q1.390625 -1.546875 2.875 -2.25q1.5 -0.71875 3.078125 -0.71875q2.046875 0 3.703125 1.125q1.671875 1.109375 2.65625 3.234375q0.984375 2.125 0.984375 5.140625q0 2.984375 -1.046875 5.203125q-1.03125 2.21875 -2.84375 3.4375q-1.796875 1.21875 -4.0625 1.21875q-1.359375 0 -2.71875 -0.578125q-1.34375 -0.578125 -2.625 -2.15625l-0.3125 2.625l-5.796875 -0.390625zm11.015625 -16.65625q-0.890625 0 -2.046875 0.46875q-1.15625 0.453125 -2.734375 1.765625l0 10.59375q1.1875 1.125 2.34375 1.625q1.171875 0.5 2.25 0.5q2.046875 0 3.578125 -1.796875q1.53125 -1.796875 1.53125 -5.546875q0 -3.703125 -1.375 -5.65625q-1.375 -1.953125 -3.546875 -1.953125zm10.714844 16.65625l0 -1.390625l3.09375 -0.546875q0.03125 -1.578125 0.046875 -3.109375q0.03125 -1.53125 0.03125 -3.078125l0 -16.96875l-3.171875 -0.375l0 -1.359375l6.03125 -1.734375l0.53125 0.3125l-0.140625 5.484375l0 14.640625q0 1.546875 0.015625 3.09375q0.015625 1.546875 0.046875 3.09375l3.09375 0.546875l0 1.390625l-9.578125 0zm20.957031 -17.09375q-1.09375 0 -2.203125 0.625q-1.09375 0.625 -1.890625 1.984375q-0.78125 1.34375 -1.015625 3.578125l7.03125 0q1.390625 0 1.828125 -0.578125q0.453125 -0.578125 0.453125 -1.421875q0 -1.125 -0.5625 -2.0625q-0.5625 -0.953125 -1.515625 -1.53125q-0.9375 -0.59375 -2.125 -0.59375zm-0.046875 17.59375q-3.90625 0 -6.265625 -2.53125q-2.359375 -2.53125 -2.359375 -6.96875q0 -2.984375 1.21875 -5.1875q1.21875 -2.203125 3.25 -3.4375q2.03125 -1.234375 4.421875 -1.234375q2.015625 0 3.640625 0.890625q1.625 0.875 2.59375 2.53125q0.96875 1.640625 0.96875 4.0q0 0.65625 -0.078125 1.21875q-0.078125 0.5625 -0.203125 0.9375l-12.328125 0q0.078125 3.5625 1.78125 5.421875q1.703125 1.84375 4.484375 1.84375q1.859375 0 3.09375 -0.75q1.234375 -0.75 2.28125 -1.953125l0.921875 0.734375q-1.078125 2.046875 -2.9375 3.265625q-1.859375 1.21875 -4.484375 1.21875z" fill-rule="nonzero"/><path fill="#000000" d="m311.95276 333.7591l0 -1.390625l2.90625 -0.5q0.03125 -1.46875 0.046875 -3.1875q0.03125 -1.71875 0.03125 -3.046875l0 -16.96875l-3.171875 -0.375l0 -1.359375l5.90625 -1.734375l0.546875 0.3125l-0.15625 5.484375l0 6.875q1.390625 -1.546875 2.875 -2.25q1.5 -0.71875 3.078125 -0.71875q2.046875 0 3.703125 1.125q1.671875 1.109375 2.65625 3.234375q0.984375 2.125 0.984375 5.140625q0 2.984375 -1.046875 5.203125q-1.03125 2.21875 -2.84375 3.4375q-1.796875 1.21875 -4.0625 1.21875q-1.359375 0 -2.71875 -0.578125q-1.34375 -0.578125 -2.625 -2.15625l-0.3125 2.625l-5.796875 -0.390625zm11.015625 -16.65625q-0.890625 0 -2.046875 0.46875q-1.15625 0.453125 -2.734375 1.765625l0 10.59375q1.1875 1.125 2.34375 1.625q1.171875 0.5 2.25 0.5q2.046875 0 3.578125 -1.796875q1.53125 -1.796875 1.53125 -5.546875q0 -3.703125 -1.375 -5.65625q-1.375 -1.953125 -3.546875 -1.953125z" fill-rule="nonzero"/><path fill="#000000" d="m490.67032 334.2591q-3.984375 0 -6.34375 -2.578125q-2.359375 -2.59375 -2.359375 -7.046875q0 -3.046875 1.25 -5.234375q1.265625 -2.1875 3.3125 -3.34375q2.046875 -1.15625 4.359375 -1.15625q1.75 0 3.21875 0.65625q1.46875 0.65625 2.421875 1.796875q0.96875 1.140625 1.203125 2.5625q-0.265625 1.46875 -1.78125 1.46875q-0.953125 0 -1.4375 -0.515625q-0.484375 -0.515625 -0.6875 -1.328125l-0.6875 -2.5625q-0.546875 -0.1875 -1.078125 -0.25q-0.515625 -0.0625 -1.015625 -0.0625q-2.46875 0 -4.078125 1.9375q-1.59375 1.9375 -1.59375 5.640625q0 3.640625 1.734375 5.578125q1.734375 1.921875 4.4375 1.921875q1.671875 0 3.0625 -0.75q1.390625 -0.75 2.28125 -2.1875l0.96875 0.5q-0.8125 2.40625 -2.640625 3.6875q-1.8125 1.265625 -4.546875 1.265625zm9.267029 -0.5l0 -1.390625l2.90625 -0.546875q0.03125 -1.46875 0.046875 -3.1875q0.03125 -1.71875 0.03125 -3.0l0 -16.96875l-3.171875 -0.375l0 -1.359375l5.90625 -1.734375l0.546875 0.3125l-0.15625 5.484375l0 7.453125q1.4375 -1.578125 3.328125 -2.5625q1.890625 -0.984375 3.7500305 -0.984375q2.515625 0 3.734375 1.6875q1.21875 1.671875 1.21875 5.453125l0 3.59375q0 1.328125 0.015625 3.03125q0.015625 1.6875 0.046875 3.15625l2.71875 0.546875l0 1.390625l-8.9687805 0l0 -1.390625l2.8125305 -0.5q0.046875 -1.46875 0.0625 -3.1875q0.015625 -1.71875 0.015625 -3.046875l0 -3.28125q0 -2.671875 -0.734375 -3.671875q-0.734375 -1.0 -2.4375305 -1.0q-1.421875 0 -2.703125 0.578125q-1.265625 0.578125 -2.734375 1.9375l0 5.4375q0 1.28125 0.015625 3.0q0.015625 1.71875 0.046875 3.1875l2.671875 0.546875l0 1.390625l-8.96875 0zm38.154266 0.390625q-1.390625 0 -2.328125 -0.8125q-0.921875 -0.8125 -1.140625 -2.171875q-1.59375 1.546875 -2.796875 2.328125q-1.1875 0.765625 -2.890625 0.765625q-2.125 0 -3.65625 -1.21875q-1.53125 -1.21875 -1.53125 -3.609375q0 -1.125 0.515625 -2.09375q0.53125 -0.96875 1.921875 -1.890625q1.390625 -0.921875 3.984375 -1.859375q0.890625 -0.296875 2.046875 -0.640625q1.15625 -0.359375 2.328125 -0.625l0 -0.96875q0 -2.828125 -0.859375 -3.75q-0.84375 -0.9375 -2.78125 -0.9375q-0.421875 0 -0.953125 0.046875q-0.515625 0.03125 -1.140625 0.1875l-0.734375 2.515625q-0.53125 1.859375 -2.0 1.859375q-1.625 0 -1.828125 -1.59375q0.546875 -2.203125 2.578125 -3.484375q2.03125 -1.296875 4.96875 -1.296875q3.046875 0 4.515625 1.53125q1.46875 1.515625 1.46875 5.1875l0 8.234375q0 1.234375 0.390625 1.765625q0.390625 0.515625 1.0 0.515625q0.515625 0 0.859375 -0.234375q0.34375 -0.234375 0.65625 -0.609375l0.765625 0.84375q-0.6875 1.125 -1.515625 1.578125q-0.828125 0.4375 -1.84375 0.4375zm-10.890625 -5.296875q0 1.546875 0.875 2.203125q0.890625 0.65625 2.203125 0.65625q0.59375 0 1.109375 -0.15625q0.515625 -0.15625 1.25 -0.59375q0.734375 -0.453125 1.90625 -1.296875l0 -5.921875q-1.015625 0.28125 -1.984375 0.609375q-0.953125 0.328125 -1.578125 0.546875q-1.65625 0.671875 -2.46875 1.375q-0.8125 0.6875 -1.0625 1.34375q-0.25 0.65625 -0.25 1.234375zm15.8479 4.90625l0 -1.390625l2.890625 -0.546875q0.046875 -1.46875 0.0625 -3.1875q0.015625 -1.71875 0.015625 -3.0l0 -1.8125q0 -1.578125 -0.015625 -2.640625q-0.015625 -1.0625 -0.09375 -2.234375l-3.09375 -0.34375l0 -1.34375l5.953125 -2.359375l0.578125 0.375l-0.125 5.265625l0 5.09375q0 1.28125 0.015625 3.0q0.03125 1.71875 0.0625 3.1875l2.71875 0.546875l0 1.390625l-8.96875 0zm4.5625 -23.109375q-1.09375 0 -1.84375 -0.703125q-0.75 -0.703125 -0.75 -1.78125q0 -1.125 0.75 -1.796875q0.75 -0.671875 1.84375 -0.671875q1.078125 0 1.828125 0.671875q0.75 0.671875 0.75 1.796875q0 1.078125 -0.75 1.78125q-0.75 0.703125 -1.828125 0.703125zm7.2227173 23.109375l0 -1.390625l2.78125 -0.5q0.046875 -1.46875 0.0625 -3.1875q0.015625 -1.71875 0.015625 -3.046875l0 -1.84375q0 -1.59375 -0.015625 -2.625q-0.015625 -1.046875 -0.09375 -2.21875l-3.0625 -0.34375l0 -1.34375l5.40625 -2.359375l0.59375 0.375l0.421875 4.5625q0.96875 -2.3125 2.484375 -3.625q1.53125 -1.3125 3.078125 -1.3125q0.890625 0 1.65625 0.390625q0.78125 0.375 1.125 1.03125q0 2.828125 -2.28125 2.828125q-0.65625 0 -1.234375 -0.25q-0.578125 -0.25 -1.125 -0.71875l-0.453125 -0.421875q-1.171875 0.84375 -1.953125 2.09375q-0.765625 1.234375 -1.265625 2.890625l0 2.890625q0 1.28125 0.015625 2.984375q0.03125 1.703125 0.0625 3.171875l3.171875 0.578125l0 1.390625l-9.390625 0z" fill-rule="nonzero"/><path fill="#000000" fill-opacity="0.0" d="m-5.053806 397.41602l857.0079 0l0 113.102356l-857.0079 0z" fill-rule="evenodd"/><path fill="#000000" d="m59.024258 432.37976l0 0.1875q0 2.703125 0.421875 5.078125q0.4375 2.375 1.15625 4.40625q0.6875 2.03125 1.625 3.703125q0.9375 1.671875 1.9687538 2.96875q1.015625 1.328125 2.0625 2.234375q1.0625 0.921875 2.0 1.453125l0.734375 -2.140625q-0.765625 -0.625 -1.53125 -1.5q-0.765625 -0.875 -1.484375 -2.0q-0.703125 -1.203125 -1.34375 -2.703125q-0.6406288 -1.5 -1.1250038 -3.25q-0.453125 -1.734375 -0.71875 -3.78125q-0.265625 -2.0625 -0.265625 -4.421875l0 -0.265625q0 -2.453125 0.28125 -4.578125q0.28125 -2.140625 0.796875 -3.921875q0.5156288 -1.96875 1.3125038 -3.609375q0.796875 -1.65625 1.65625 -2.890625q0.59375 -0.78125 1.203125 -1.421875q0.609375 -0.640625 1.21875 -1.09375l-0.734375 -2.3125q-0.9375 0.53125 -1.984375 1.453125q-1.03125 0.921875 -2.0625 2.234375q-1.0312538 1.296875 -1.9687538 2.984375q-0.9375 1.671875 -1.640625 3.6875q-0.71875 2.046875 -1.15625 4.421875q-0.421875 2.375 -0.421875 5.078125zm33.16628 11.15625l3.640625 0l0 -0.296875q-0.34375 -0.859375 -0.53125 -2.0q-0.1875 -1.140625 -0.1875 -2.15625l0 -9.5q0 -1.71875 -0.625 -3.0q-0.609375 -1.28125 -1.6875 -2.15625q-1.09375 -0.84375 -2.59375 -1.265625q-1.484375 -0.421875 -3.21875 -0.421875q-1.90625 0 -3.40625 0.53125q-1.5 0.515625 -2.546875 1.375q-1.046875 0.859375 -1.609375 1.9375q-0.5625 1.078125 -0.578125 2.1875l3.515625 0q0 -0.640625 0.3125 -1.234375q0.3125 -0.59375 0.875 -1.03125q0.5625 -0.421875 1.375 -0.6875q0.828125 -0.265625 1.875 -0.265625q1.109375 0 2.0 0.28125q0.90625 0.28125 1.515625 0.796875q0.625 0.515625 0.96875 1.265625q0.34375 0.734375 0.34375 1.65625l0 1.609375l-3.8125 0q-2.140625 0 -3.875 0.421875q-1.71875 0.40625 -2.9375 1.234375q-1.234375 0.84375 -1.90625 2.109375q-0.671875 1.265625 -0.671875 2.953125q0 1.28125 0.5 2.390625q0.5 1.09375 1.4375 1.890625q0.90625 0.8125 2.21875 1.28125q1.3125 0.46875 2.921875 0.46875q1.0 0 1.890625 -0.203125q0.890625 -0.203125 1.6875 -0.5625q0.765625 -0.359375 1.421875 -0.828125q0.65625 -0.484375 1.171875 -1.015625q0.0625 0.65625 0.1875 1.25q0.125 0.59375 0.328125 0.984375zm-6.171875 -2.65625q-1.015625 0 -1.796875 -0.265625q-0.765625 -0.265625 -1.28125 -0.734375q-0.5 -0.453125 -0.765625 -1.09375q-0.25 -0.640625 -0.25 -1.40625q0 -0.796875 0.28125 -1.40625q0.296875 -0.625 0.875 -1.078125q0.78125 -0.640625 2.125 -0.953125q1.359375 -0.3125 3.171875 -0.3125l3.25 0l0 4.125q-0.296875 0.609375 -0.828125 1.171875q-0.53125 0.546875 -1.25 0.984375q-0.734375 0.4375 -1.625 0.703125q-0.890625 0.265625 -1.90625 0.265625zm22.96315 0.390625q0 1.09375 0.6875 1.859375q0.6875 0.765625 2.046875 0.765625q1.34375 0 2.0625 -0.75q0.71875 -0.765625 0.71875 -1.875q0 -1.125 -0.71875 -1.90625q-0.703125 -0.796875 -2.0625 -0.796875q-1.375 0 -2.0625 0.796875q-0.671875 0.796875 -0.671875 1.90625zm0 -16.53125q0 1.09375 0.6875 1.859375q0.6875 0.765625 2.046875 0.765625q1.34375 0 2.0625 -0.75q0.71875 -0.765625 0.71875 -1.875q0 -1.125 -0.71875 -1.90625q-0.703125 -0.796875 -2.0625 -0.796875q-1.375 0 -2.0625 0.796875q-0.671875 0.796875 -0.671875 1.90625zm23.197525 16.53125q0 1.09375 0.6875 1.859375q0.6875 0.765625 2.046875 0.765625q1.34375 0 2.0625 -0.75q0.71875 -0.765625 0.71875 -1.875q0 -1.125 -0.71875 -1.90625q-0.703125 -0.796875 -2.0625 -0.796875q-1.375 0 -2.0625 0.796875q-0.671875 0.796875 -0.671875 1.90625zm0 -16.53125q0 1.09375 0.6875 1.859375q0.6875 0.765625 2.046875 0.765625q1.34375 0 2.0625 -0.75q0.71875 -0.765625 0.71875 -1.875q0 -1.125 -0.71875 -1.90625q-0.703125 -0.796875 -2.0625 -0.796875q-1.375 0 -2.0625 0.796875q-0.671875 0.796875 -0.671875 1.90625zm16.15065 18.796875l8.796875 0q1.75 -0.015625 3.390625 -0.546875q1.65625 -0.53125 2.921875 -1.53125q1.265625 -0.984375 2.015625 -2.453125q0.765625 -1.46875 0.75 -3.390625q0 -1.234375 -0.375 -2.28125q-0.359375 -1.0625 -1.03125 -1.921875q-0.609375 -0.765625 -1.578125 -1.40625q-0.96875 -0.640625 -2.0 -0.890625l0 -0.0625q1.0 -0.421875 1.703125 -0.90625q0.703125 -0.5 1.296875 -1.21875q0.5625 -0.703125 0.890625 -1.578125q0.328125 -0.890625 0.359375 -1.96875q0.015625 -1.921875 -0.75 -3.296875q-0.75 -1.390625 -2.015625 -2.28125q-1.265625 -0.875 -2.890625 -1.296875q-1.609375 -0.4375 -3.3125 -0.453125l-8.171875 0l0 27.484375zm3.5 -12.859375l5.578125 0q1.109375 0.046875 2.0625 0.390625q0.96875 0.328125 1.6875 0.953125q0.71875 0.640625 1.125 1.546875q0.40625 0.90625 0.390625 2.078125q0 1.15625 -0.453125 2.0625q-0.4375 0.90625 -1.1875 1.53125q-0.765625 0.609375 -1.75 0.96875q-0.96875 0.34375 -2.0625 0.359375l-5.390625 0l0 -9.890625zm0 -2.90625l0 -8.734375l4.78125 0q1.015625 0.015625 1.984375 0.265625q0.984375 0.25 1.734375 0.75q0.734375 0.53125 1.171875 1.34375q0.453125 0.8125 0.453125 1.96875q0 1.0625 -0.453125 1.875q-0.453125 0.8125 -1.1875 1.359375q-0.734375 0.578125 -1.6875 0.875q-0.9375 0.28125 -1.921875 0.296875l-4.875 0zm18.7444 5.359375l0 0.421875q0 2.203125 0.640625 4.09375q0.65625 1.890625 1.859375 3.28125q1.1875 1.40625 2.90625 2.203125q1.734375 0.78125 3.90625 0.78125q2.15625 0 3.859375 -0.78125q1.71875 -0.796875 2.9375 -2.203125q1.1875 -1.390625 1.828125 -3.28125q0.640625 -1.890625 0.640625 -4.09375l0 -0.421875q0 -2.203125 -0.640625 -4.09375q-0.640625 -1.90625 -1.828125 -3.296875q-1.21875 -1.40625 -2.953125 -2.203125q-1.71875 -0.796875 -3.875 -0.796875q-2.15625 0 -3.875 0.796875q-1.71875 0.796875 -2.90625 2.203125q-1.203125 1.390625 -1.859375 3.296875q-0.640625 1.890625 -0.640625 4.09375zm3.5 0.421875l0 -0.421875q0 -1.484375 0.359375 -2.84375q0.359375 -1.375 1.09375 -2.421875q0.71875 -1.03125 1.78125 -1.640625q1.078125 -0.625 2.546875 -0.625q1.453125 0 2.53125 0.625q1.078125 0.609375 1.828125 1.640625q0.703125 1.046875 1.078125 2.421875q0.375 1.359375 0.375 2.84375l0 0.421875q0 1.515625 -0.359375 2.890625q-0.359375 1.359375 -1.078125 2.390625q-0.734375 1.046875 -1.828125 1.65625q-1.078125 0.59375 -2.515625 0.59375q-1.453125 0 -2.546875 -0.59375q-1.09375 -0.609375 -1.8125 -1.65625q-0.734375 -1.03125 -1.09375 -2.390625q-0.359375 -1.375 -0.359375 -2.890625zm29.1194 -2.875l-5.390625 -7.5625l-4.046875 0l7.609375 10.09375l-7.8125 10.328125l4.078125 0l5.640625 -7.78125l5.640625 7.78125l4.046875 0l-7.8125 -10.328125l7.59375 -10.09375l-4.09375 0l-5.453125 7.5625zm23.6194 12.046875l0 -3.328125l-3.796875 0l0 3.390625q0 1.59375 -0.375 3.078125q-0.375 1.5 -1.28125 2.828125l2.171875 1.1875q1.5 -1.34375 2.390625 -3.3125q0.890625 -1.953125 0.890625 -3.84375zm44.551285 -1.453125q0 1.09375 0.6875 1.859375q0.6875 0.765625 2.046875 0.765625q1.34375 0 2.0625 -0.75q0.71875 -0.765625 0.71875 -1.875q0 -1.125 -0.71875 -1.90625q-0.703125 -0.796875 -2.0625 -0.796875q-1.375 0 -2.0625 0.796875q-0.671875 0.796875 -0.671875 1.90625zm0 -16.53125q0 1.09375 0.6875 1.859375q0.6875 0.765625 2.046875 0.765625q1.34375 0 2.0625 -0.75q0.71875 -0.765625 0.71875 -1.875q0 -1.125 -0.71875 -1.90625q-0.703125 -0.796875 -2.0625 -0.796875q-1.375 0 -2.0625 0.796875q-0.671875 0.796875 -0.671875 1.90625zm23.19754 16.53125q0 1.09375 0.6875 1.859375q0.6875 0.765625 2.046875 0.765625q1.34375 0 2.0625 -0.75q0.71875 -0.765625 0.71875 -1.875q0 -1.125 -0.71875 -1.90625q-0.703125 -0.796875 -2.0625 -0.796875q-1.375 0 -2.0625 0.796875q-0.671875 0.796875 -0.671875 1.90625zm0 -16.53125q0 1.09375 0.6875 1.859375q0.6875 0.765625 2.046875 0.765625q1.34375 0 2.0625 -0.75q0.71875 -0.765625 0.71875 -1.875q0 -1.125 -0.71875 -1.90625q-0.703125 -0.796875 -2.0625 -0.796875q-1.375 0 -2.0625 0.796875q-0.671875 0.796875 -0.671875 1.90625zm16.181915 -8.6875l0 3.046875l6.4375 0l0 21.421875l-6.4375 0l0 3.015625l16.609375 0l0 -3.015625l-6.578125 0l0 -21.421875l6.578125 0l0 -3.046875l-16.609375 0zm36.775635 22.0625q0 0.5 -0.1875 0.9375q-0.1875 0.421875 -0.546875 0.78125q-0.59375 0.59375 -1.640625 0.921875q-1.03125 0.328125 -2.421875 0.328125q-0.890625 0 -1.796875 -0.1875q-0.90625 -0.1875 -1.640625 -0.640625q-0.75 -0.453125 -1.25 -1.1875q-0.5 -0.734375 -0.578125 -1.8125l-3.5 0q0 1.296875 0.59375 2.515625q0.609375 1.203125 1.734375 2.109375q1.109375 0.921875 2.734375 1.484375q1.625 0.546875 3.703125 0.546875q1.8125 0 3.34375 -0.421875q1.53125 -0.4375 2.625 -1.234375q1.09375 -0.796875 1.703125 -1.90625q0.609375 -1.109375 0.609375 -2.46875q0 -1.265625 -0.546875 -2.234375q-0.53125 -0.96875 -1.546875 -1.703125q-1.015625 -0.71875 -2.515625 -1.234375q-1.484375 -0.515625 -3.375 -0.90625q-1.4375 -0.296875 -2.375 -0.59375q-0.921875 -0.296875 -1.46875 -0.671875q-0.5625 -0.375 -0.796875 -0.84375q-0.21875 -0.484375 -0.21875 -1.09375q0 -0.578125 0.28125 -1.125q0.28125 -0.546875 0.84375 -0.96875q0.546875 -0.40625 1.390625 -0.65625q0.84375 -0.25 1.953125 -0.25q1.078125 0 1.9375 0.3125q0.859375 0.296875 1.453125 0.78125q0.609375 0.5 0.9375 1.140625q0.34375 0.625 0.34375 1.28125l3.5 0q0 -1.34375 -0.578125 -2.5q-0.578125 -1.15625 -1.625 -2.03125q-1.0625 -0.859375 -2.578125 -1.34375q-1.5 -0.5 -3.390625 -0.5q-1.75 0 -3.21875 0.46875q-1.46875 0.46875 -2.515625 1.28125q-1.0625 0.8125 -1.65625 1.90625q-0.578125 1.078125 -0.578125 2.328125q0 1.265625 0.5625 2.21875q0.578125 0.953125 1.609375 1.640625q1.015625 0.71875 2.453125 1.234375q1.453125 0.5 3.203125 0.859375q1.4375 0.296875 2.390625 0.640625q0.96875 0.34375 1.5625 0.765625q0.578125 0.40625 0.828125 0.90625q0.25 0.5 0.25 1.125zm27.494385 -6.734375l0 -3.125q-0.015625 -1.484375 -0.25 -2.984375q-0.234375 -1.515625 -0.734375 -2.90625q-0.5 -1.40625 -1.265625 -2.625q-0.765625 -1.21875 -1.828125 -2.125q-1.046875 -0.90625 -2.4375 -1.421875q-1.375 -0.515625 -3.0625 -0.515625q-1.703125 0 -3.078125 0.515625q-1.359375 0.515625 -2.421875 1.421875q-1.0625 0.9375 -1.828125 2.15625q-0.765625 1.203125 -1.25 2.609375q-0.515625 1.390625 -0.75 2.890625q-0.234375 1.5 -0.25 2.984375l0 3.125q0.015625 1.46875 0.265625 2.96875q0.25 1.484375 0.75 2.890625q0.5 1.390625 1.265625 2.609375q0.78125 1.21875 1.828125 2.125q1.0625 0.90625 2.421875 1.421875q1.375 0.515625 3.078125 0.515625q1.703125 0 3.0625 -0.515625q1.375 -0.515625 2.421875 -1.421875q1.0625 -0.90625 1.828125 -2.109375q0.765625 -1.21875 1.25 -2.609375q0.5 -1.40625 0.734375 -2.90625q0.234375 -1.5 0.25 -2.96875zm-3.453125 -3.171875l0 3.171875q-0.015625 0.984375 -0.125 2.0625q-0.09375 1.078125 -0.359375 2.109375q-0.28125 1.0625 -0.734375 2.015625q-0.4375 0.953125 -1.09375 1.671875q-0.6875 0.734375 -1.625 1.171875q-0.9375 0.421875 -2.15625 0.421875q-1.234375 0 -2.15625 -0.421875q-0.921875 -0.4375 -1.59375 -1.171875q-0.6875 -0.71875 -1.140625 -1.6875q-0.453125 -0.96875 -0.734375 -2.015625q-0.28125 -1.046875 -0.40625 -2.109375q-0.125 -1.078125 -0.140625 -2.046875l0 -3.171875q0.015625 -0.96875 0.140625 -2.03125q0.125 -1.0625 0.40625 -2.125q0.265625 -1.03125 0.71875 -1.984375q0.453125 -0.953125 1.125 -1.6875q0.6875 -0.71875 1.609375 -1.15625q0.921875 -0.4375 2.140625 -0.4375q1.21875 0 2.140625 0.4375q0.921875 0.421875 1.609375 1.140625q0.671875 0.734375 1.125 1.6875q0.453125 0.953125 0.734375 1.984375q0.265625 1.0625 0.375 2.125q0.125 1.0625 0.140625 2.046875zm8.775635 15.328125l3.5 0l0 -14.640625q0.359375 -0.671875 0.828125 -1.21875q0.484375 -0.546875 1.046875 -0.953125q0.703125 -0.484375 1.53125 -0.75q0.828125 -0.28125 1.796875 -0.28125q1.109375 0 1.96875 0.265625q0.859375 0.265625 1.46875 0.859375q0.578125 0.578125 0.875 1.53125q0.3125 0.9375 0.3125 2.296875l0 12.890625l3.5 0l0 -12.96875q0 -2.03125 -0.5 -3.515625q-0.5 -1.484375 -1.4375 -2.453125q-0.921875 -0.953125 -2.234375 -1.40625q-1.3125 -0.453125 -2.90625 -0.453125q-1.203125 0.015625 -2.265625 0.34375q-1.0625 0.328125 -1.96875 0.9375q-0.609375 0.390625 -1.15625 0.9375q-0.53125 0.53125 -0.984375 1.171875l-0.234375 -3.015625l-3.140625 0l0 20.421875zm32.056885 -0.8125l0 -3.328125l-3.796875 0l0 3.390625q0 1.59375 -0.375 3.078125q-0.375 1.5 -1.28125 2.828125l2.171875 1.1875q1.5 -1.34375 2.390625 -3.3125q0.890625 -1.953125 0.890625 -3.84375zm45.80127 -24.5625l-3.5 0l0 4.953125l-5.359375 0l0 2.703125l5.359375 0l0 11.09375q0 1.890625 0.5 3.21875q0.5 1.328125 1.359375 2.15625q0.875 0.859375 2.046875 1.25q1.1875 0.375 2.546875 0.375q0.8125 0 1.625 -0.078125q0.828125 -0.078125 1.5625 -0.21875q0.734375 -0.140625 1.359375 -0.328125q0.625 -0.203125 1.0625 -0.46875l-0.5 -2.46875q-0.3125 0.078125 -0.8125 0.1875q-0.5 0.09375 -1.078125 0.1875q-0.578125 0.09375 -1.1875 0.171875q-0.59375 0.0625 -1.171875 0.0625q-0.765625 0 -1.453125 -0.1875q-0.6875 -0.203125 -1.21875 -0.671875q-0.53125 -0.453125 -0.84375 -1.21875q-0.296875 -0.78125 -0.296875 -1.96875l0 -11.09375l7.78125 0l0 -2.703125l-7.78125 0l0 -4.953125zm28.35376 25.375l3.640625 0l0 -0.296875q-0.34375 -0.859375 -0.53125 -2.0q-0.1875 -1.140625 -0.1875 -2.15625l0 -9.5q0 -1.71875 -0.625 -3.0q-0.609375 -1.28125 -1.6875 -2.15625q-1.09375 -0.84375 -2.59375 -1.265625q-1.484375 -0.421875 -3.21875 -0.421875q-1.90625 0 -3.40625 0.53125q-1.5 0.515625 -2.546875 1.375q-1.046875 0.859375 -1.609375 1.9375q-0.5625 1.078125 -0.578125 2.1875l3.515625 0q0 -0.640625 0.3125 -1.234375q0.3125 -0.59375 0.875 -1.03125q0.5625 -0.421875 1.375 -0.6875q0.828125 -0.265625 1.875 -0.265625q1.109375 0 2.0 0.28125q0.90625 0.28125 1.515625 0.796875q0.625 0.515625 0.96875 1.265625q0.34375 0.734375 0.34375 1.65625l0 1.609375l-3.8125 0q-2.140625 0 -3.875 0.421875q-1.71875 0.40625 -2.9375 1.234375q-1.234375 0.84375 -1.90625 2.109375q-0.671875 1.265625 -0.671875 2.953125q0 1.28125 0.5 2.390625q0.5 1.09375 1.4375 1.890625q0.90625 0.8125 2.21875 1.28125q1.3125 0.46875 2.921875 0.46875q1.0 0 1.890625 -0.203125q0.890625 -0.203125 1.6875 -0.5625q0.765625 -0.359375 1.421875 -0.828125q0.65625 -0.484375 1.171875 -1.015625q0.0625 0.65625 0.1875 1.25q0.125 0.59375 0.328125 0.984375zm-6.171875 -2.65625q-1.015625 0 -1.796875 -0.265625q-0.765625 -0.265625 -1.28125 -0.734375q-0.5 -0.453125 -0.765625 -1.09375q-0.25 -0.640625 -0.25 -1.40625q0 -0.796875 0.28125 -1.40625q0.296875 -0.625 0.875 -1.078125q0.78125 -0.640625 2.125 -0.953125q1.359375 -0.3125 3.171875 -0.3125l3.25 0l0 4.125q-0.296875 0.609375 -0.828125 1.171875q-0.53125 0.546875 -1.25 0.984375q-0.734375 0.4375 -1.625 0.703125q-0.890625 0.265625 -1.90625 0.265625zm33.25998 -7.328125l0 -0.390625q0 -1.609375 -0.265625 -3.046875q-0.265625 -1.453125 -0.78125 -2.640625q-0.484375 -1.0625 -1.1249695 -1.921875q-0.640625 -0.859375 -1.453125 -1.453125q-0.90625 -0.640625 -2.03125 -1.0q-1.109375 -0.359375 -2.421875 -0.359375q-1.0625 0 -1.96875 0.203125q-0.90625 0.203125 -1.65625 0.609375q-0.609375 0.3125 -1.140625 0.765625q-0.515625 0.4375 -0.953125 0.984375l0 -10.765625l-3.5 0l0 29.0l3.21875 0l0.171875 -2.328125q0.328125 0.4375 0.703125 0.796875q0.390625 0.359375 0.796875 0.65625q0.875 0.609375 1.953125 0.921875q1.09375 0.328125 2.40625 0.328125q1.15625 0 2.140625 -0.28125q1.0 -0.28125 1.828125 -0.796875q1.15625 -0.734375 1.96875 -1.859375q0.8280945 -1.125 1.3280945 -2.53125q0.390625 -1.078125 0.578125 -2.3125q0.203125 -1.234375 0.203125 -2.578125zm-3.4999695 -0.390625l0 0.390625q0 0.90625 -0.109375 1.78125q-0.109375 0.859375 -0.359375 1.609375q-0.296875 1.0 -0.8125 1.8125q-0.5 0.8125 -1.265625 1.34375q-0.5625 0.421875 -1.28125 0.640625q-0.71875 0.21875 -1.578125 0.21875q-0.90625 0 -1.671875 -0.234375q-0.75 -0.25 -1.359375 -0.671875q-0.59375 -0.4375 -1.0625 -1.015625q-0.453125 -0.578125 -0.796875 -1.25l0 -8.9375q0.3125 -0.671875 0.78125 -1.25q0.46875 -0.578125 1.0625 -1.015625q0.59375 -0.40625 1.34375 -0.640625q0.75 -0.25 1.65625 -0.25q0.828125 0 1.5 0.203125q0.6875 0.1875 1.25 0.515625q0.78125 0.484375 1.328125 1.3125q0.546875 0.828125 0.890625 1.828125q0.25 0.8125 0.359375 1.734375q0.125 0.90625 0.125 1.875zm9.931854 -18.625l0 3.046875l6.953125 0l0 22.9375l-6.953125 0l0 3.015625l17.109375 0l0 -3.015625l-6.671875 0l0 -25.984375l-10.4375 0zm31.681885 29.375q2.96875 0 5.0 -1.1875q2.03125 -1.203125 3.046875 -2.75l-2.125 -1.671875q-0.96875 1.25 -2.421875 2.015625q-1.453125 0.75 -3.3125 0.75q-1.421875 0 -2.59375 -0.53125q-1.171875 -0.53125 -2.0 -1.453125q-0.8125 -0.875 -1.28125 -2.0q-0.453125 -1.140625 -0.578125 -2.625l0 -0.140625l14.578125 0l0 -1.5625q0 -2.125 -0.546875 -3.953125q-0.53125 -1.84375 -1.625 -3.203125q-1.09375 -1.328125 -2.75 -2.09375q-1.640625 -0.765625 -3.84375 -0.765625q-1.765625 0 -3.4375 0.71875q-1.671875 0.71875 -2.96875 2.046875q-1.3125 1.359375 -2.109375 3.3125q-0.796875 1.953125 -0.796875 4.4375l0 0.78125q0 2.140625 0.71875 3.953125q0.71875 1.8125 2.0 3.125q1.28125 1.328125 3.078125 2.0625q1.8125 0.734375 3.96875 0.734375zm-0.453125 -18.3125q1.328125 0 2.296875 0.5q0.984375 0.484375 1.625 1.28125q0.640625 0.796875 1.0 1.890625q0.359375 1.078125 0.359375 2.015625l0 0.171875l-10.984375 0q0.203125 -1.421875 0.71875 -2.5q0.53125 -1.09375 1.28125 -1.84375q0.75 -0.734375 1.6875 -1.125q0.953125 -0.390625 2.015625 -0.390625zm21.63501 15.671875q0 1.09375 0.6875 1.859375q0.6875 0.765625 2.046875 0.765625q1.34375 0 2.0625 -0.75q0.71875 -0.765625 0.71875 -1.875q0 -1.125 -0.71875 -1.90625q-0.703125 -0.796875 -2.0625 -0.796875q-1.375 0 -2.0625 0.796875q-0.671875 0.796875 -0.671875 1.90625zm0 -16.53125q0 1.09375 0.6875 1.859375q0.6875 0.765625 2.046875 0.765625q1.34375 0 2.0625 -0.75q0.71875 -0.765625 0.71875 -1.875q0 -1.125 -0.71875 -1.90625q-0.703125 -0.796875 -2.0625 -0.796875q-1.375 0 -2.0625 0.796875q-0.671875 0.796875 -0.671875 1.90625zm23.19751 16.53125q0 1.09375 0.6875 1.859375q0.6875 0.765625 2.046875 0.765625q1.34375 0 2.0625 -0.75q0.71875 -0.765625 0.71875 -1.875q0 -1.125 -0.71875 -1.90625q-0.703125 -0.796875 -2.0625 -0.796875q-1.375 0 -2.0625 0.796875q-0.671875 0.796875 -0.671875 1.90625zm0 -16.53125q0 1.09375 0.6875 1.859375q0.6875 0.765625 2.046875 0.765625q1.34375 0 2.0625 -0.75q0.71875 -0.765625 0.71875 -1.875q0 -1.125 -0.71875 -1.90625q-0.703125 -0.796875 -2.0625 -0.796875q-1.375 0 -2.0625 0.796875q-0.671875 0.796875 -0.671875 1.90625zm30.57251 11.84375q0 1.140625 -0.5 1.96875q-0.484375 0.8125 -1.265625 1.34375q-0.765625 0.546875 -1.765625 0.8125q-0.984375 0.25 -2.0 0.25q-1.28125 0 -2.375 -0.34375q-1.078125 -0.359375 -1.90625 -1.0625q-0.84375 -0.671875 -1.375 -1.65625q-0.515625 -1.0 -0.6875 -2.28125l-3.5625 0q0.046875 1.765625 0.765625 3.21875q0.734375 1.4375 1.984375 2.515625q1.390625 1.25 3.28125 1.90625q1.90625 0.65625 3.875 0.65625q1.640625 0 3.28125 -0.453125q1.640625 -0.46875 2.9375 -1.390625q1.3125 -0.90625 2.125 -2.28125q0.828125 -1.390625 0.828125 -3.234375q0 -1.828125 -0.765625 -3.21875q-0.765625 -1.40625 -2.015625 -2.375q-1.265625 -1.03125 -2.796875 -1.703125q-1.515625 -0.671875 -3.046875 -1.140625q-0.921875 -0.28125 -1.96875 -0.65625q-1.046875 -0.375 -1.9375 -0.953125q-0.90625 -0.5625 -1.5 -1.375q-0.578125 -0.828125 -0.59375 -2.015625q0 -1.09375 0.4375 -1.921875q0.4375 -0.828125 1.203125 -1.40625q0.734375 -0.5625 1.6875 -0.84375q0.953125 -0.28125 1.953125 -0.28125q1.25 0 2.234375 0.390625q0.984375 0.375 1.703125 1.078125q0.71875 0.703125 1.15625 1.671875q0.4375 0.96875 0.578125 2.15625l3.59375 0q-0.03125 -1.890625 -0.8125 -3.40625q-0.765625 -1.53125 -2.0625 -2.609375q-1.28125 -1.078125 -2.9375 -1.671875q-1.65625 -0.59375 -3.453125 -0.59375q-1.625 0 -3.234375 0.5q-1.59375 0.5 -2.859375 1.46875q-1.265625 0.953125 -2.0625 2.359375q-0.78125 1.390625 -0.78125 3.171875q0 1.765625 0.78125 3.078125q0.796875 1.3125 2.03125 2.28125q1.234375 0.9375 2.734375 1.609375q1.5 0.671875 2.953125 1.140625q1.0 0.328125 2.078125 0.71875q1.09375 0.390625 2.0 0.984375q0.90625 0.59375 1.484375 1.46875q0.578125 0.875 0.578125 2.125zm22.275635 6.953125l3.15625 0l0 -20.421875l-3.5 0l0 14.640625q-0.28125 0.671875 -0.71875 1.234375q-0.421875 0.546875 -0.984375 0.9375q-0.671875 0.5 -1.609375 0.78125q-0.921875 0.265625 -2.09375 0.265625q-1.0 0 -1.765625 -0.265625q-0.765625 -0.265625 -1.28125 -0.921875q-0.53125 -0.640625 -0.796875 -1.734375q-0.265625 -1.109375 -0.265625 -2.765625l0 -12.171875l-3.5 0l0 12.140625q0 2.28125 0.5 3.921875q0.5 1.625 1.4375 2.671875q0.921875 1.0625 2.21875 1.5625q1.3125 0.5 2.90625 0.5q2.0 0 3.53125 -0.828125q1.53125 -0.84375 2.546875 -2.359375l0.21875 2.8125zm23.119385 -20.796875q-2.234375 0 -3.984375 0.96875q-1.734375 0.96875 -2.984375 2.65625l-0.015625 -0.515625l-0.15625 -2.734375l-3.328125 0l0 20.421875l3.515625 0l0 -13.09375q0.34375 -0.953125 0.859375 -1.71875q0.515625 -0.765625 1.21875 -1.28125q0.78125 -0.609375 1.8125 -0.921875q1.03125 -0.3125 2.328125 -0.3125q1.0 0 1.90625 0.109375q0.921875 0.09375 1.9375 0.328125l0.46875 -3.421875q-0.53125 -0.21875 -1.578125 -0.34375q-1.046875 -0.140625 -2.0 -0.140625zm15.025635 20.796875l3.5 0l0 -17.71875l7.875 0l0 -2.703125l-7.875 0l0 -1.4375q0 -1.28125 0.328125 -2.234375q0.34375 -0.96875 0.984375 -1.578125q0.59375 -0.578125 1.5 -0.875q0.921875 -0.296875 2.125 -0.296875q1.15625 0 2.1875 0.203125q1.03125 0.203125 1.8125 0.453125l0.40625 -2.875q-0.484375 -0.140625 -0.96875 -0.234375q-0.46875 -0.109375 -0.9375 -0.203125q-0.71875 -0.140625 -1.453125 -0.21875q-0.734375 -0.078125 -1.484375 -0.078125q-1.8125 0 -3.296875 0.515625q-1.46875 0.5 -2.5 1.5q-1.0625 1.0 -1.640625 2.484375q-0.5625 1.46875 -0.5625 3.4375l0 1.4375l-5.625 0l0 2.703125l5.625 0l0 17.71875zm31.400635 0l3.640625 0l0 -0.296875q-0.34375 -0.859375 -0.53125 -2.0q-0.1875 -1.140625 -0.1875 -2.15625l0 -9.5q0 -1.71875 -0.625 -3.0q-0.609375 -1.28125 -1.6875 -2.15625q-1.09375 -0.84375 -2.59375 -1.265625q-1.484375 -0.421875 -3.21875 -0.421875q-1.90625 0 -3.40625 0.53125q-1.5 0.515625 -2.546875 1.375q-1.046875 0.859375 -1.609375 1.9375q-0.5625 1.078125 -0.578125 2.1875l3.515625 0q0 -0.640625 0.3125 -1.234375q0.3125 -0.59375 0.875 -1.03125q0.5625 -0.421875 1.375 -0.6875q0.828125 -0.265625 1.875 -0.265625q1.109375 0 2.0 0.28125q0.90625 0.28125 1.515625 0.796875q0.625 0.515625 0.96875 1.265625q0.34375 0.734375 0.34375 1.65625l0 1.609375l-3.8125 0q-2.140625 0 -3.875 0.421875q-1.71875 0.40625 -2.9375 1.234375q-1.234375 0.84375 -1.90625 2.109375q-0.671875 1.265625 -0.671875 2.953125q0 1.28125 0.5 2.390625q0.5 1.09375 1.4375 1.890625q0.90625 0.8125 2.21875 1.28125q1.3125 0.46875 2.921875 0.46875q1.0 0 1.890625 -0.203125q0.890625 -0.203125 1.6875 -0.5625q0.765625 -0.359375 1.421875 -0.828125q0.65625 -0.484375 1.171875 -1.015625q0.0625 0.65625 0.1875 1.25q0.125 0.59375 0.328125 0.984375zm-6.171875 -2.65625q-1.015625 0 -1.796875 -0.265625q-0.765625 -0.265625 -1.28125 -0.734375q-0.5 -0.453125 -0.765625 -1.09375q-0.25 -0.640625 -0.25 -1.40625q0 -0.796875 0.28125 -1.40625q0.296875 -0.625 0.875 -1.078125q0.78125 -0.640625 2.125 -0.953125q1.359375 -0.3125 3.171875 -0.3125l3.25 0l0 4.125q-0.296875 0.609375 -0.828125 1.171875q-0.53125 0.546875 -1.25 0.984375q-0.734375 0.4375 -1.625 0.703125q-0.890625 0.265625 -1.90625 0.265625zm24.650635 0.203125q-1.640625 0 -2.75 -0.640625q-1.09375 -0.65625 -1.765625 -1.71875q-0.671875 -1.03125 -0.96875 -2.34375q-0.296875 -1.3125 -0.296875 -2.65625l0 -0.796875q0 -1.3125 0.296875 -2.609375q0.296875 -1.3125 0.96875 -2.375q0.6875 -1.03125 1.78125 -1.6875q1.109375 -0.65625 2.734375 -0.65625q1.0625 0 1.96875 0.359375q0.921875 0.359375 1.578125 0.984375q0.65625 0.625 1.046875 1.453125q0.390625 0.8125 0.40625 1.734375l3.3125 0q0 -1.546875 -0.625 -2.90625q-0.625 -1.359375 -1.71875 -2.359375q-1.109375 -0.984375 -2.640625 -1.546875q-1.515625 -0.578125 -3.328125 -0.578125q-2.3125 0 -4.0625 0.828125q-1.734375 0.828125 -2.875 2.21875q-1.171875 1.421875 -1.765625 3.28125q-0.578125 1.84375 -0.578125 3.859375l0 0.796875q0 2.03125 0.578125 3.875q0.59375 1.84375 1.765625 3.234375q1.140625 1.421875 2.875 2.25q1.75 0.828125 4.0625 0.828125q1.625 0 3.109375 -0.546875q1.5 -0.5625 2.65625 -1.515625q1.140625 -0.921875 1.828125 -2.15625q0.6875 -1.234375 0.71875 -2.59375l-3.3125 0q-0.015625 0.84375 -0.4375 1.578125q-0.421875 0.71875 -1.125 1.25q-0.703125 0.546875 -1.609375 0.859375q-0.890625 0.296875 -1.828125 0.296875zm23.525635 2.828125q2.96875 0 5.0 -1.1875q2.03125 -1.203125 3.046875 -2.75l-2.125 -1.671875q-0.96875 1.25 -2.421875 2.015625q-1.453125 0.75 -3.3125 0.75q-1.421875 0 -2.59375 -0.53125q-1.171875 -0.53125 -2.0 -1.453125q-0.8125 -0.875 -1.28125 -2.0q-0.453125 -1.140625 -0.578125 -2.625l0 -0.140625l14.578125 0l0 -1.5625q0 -2.125 -0.546875 -3.953125q-0.53125 -1.84375 -1.625 -3.203125q-1.09375 -1.328125 -2.75 -2.09375q-1.640625 -0.765625 -3.84375 -0.765625q-1.765625 0 -3.4375 0.71875q-1.671875 0.71875 -2.96875 2.046875q-1.3125 1.359375 -2.109375 3.3125q-0.796875 1.953125 -0.796875 4.4375l0 0.78125q0 2.140625 0.71875 3.953125q0.71875 1.8125 2.0 3.125q1.28125 1.328125 3.078125 2.0625q1.8125 0.734375 3.96875 0.734375zm-0.453125 -18.3125q1.328125 0 2.296875 0.5q0.984375 0.484375 1.625 1.28125q0.640625 0.796875 1.0 1.890625q0.359375 1.078125 0.359375 2.015625l0 0.171875l-10.984375 0q0.203125 -1.421875 0.71875 -2.5q0.53125 -1.09375 1.28125 -1.84375q0.75 -0.734375 1.6875 -1.125q0.953125 -0.390625 2.015625 -0.390625zm27.369385 6.96875l0 -0.1875q0 -2.890625 -0.453125 -5.203125q-0.4375 -2.3125 -1.125 -4.296875q-0.6875 -2.046875 -1.625 -3.6875q-0.921875 -1.640625 -1.96875 -2.984375q-1.03125 -1.3125 -2.09375 -2.234375q-1.046875 -0.921875 -1.984375 -1.453125l-0.734375 2.140625q0.609375 0.5 1.265625 1.234375q0.671875 0.71875 1.296875 1.6875q0.8125 1.234375 1.578125 2.890625q0.78125 1.640625 1.328125 3.71875q0.375 1.453125 0.6875 3.53125q0.3125 2.078125 0.3125 4.625l0 0.265625q0 2.234375 -0.234375 4.21875q-0.234375 1.96875 -0.671875 3.671875q-0.421875 1.828125 -1.078125 3.359375q-0.640625 1.546875 -1.34375 2.765625q-0.734375 1.203125 -1.546875 2.125q-0.8125 0.9375 -1.59375 1.515625l0.734375 2.140625q0.9375 -0.53125 1.984375 -1.453125q1.046875 -0.90625 2.09375 -2.234375q1.015625 -1.296875 1.9375 -2.96875q0.9375 -1.671875 1.65625 -3.703125q0.71875 -2.03125 1.140625 -4.40625q0.4375 -2.375 0.4375 -5.078125z" fill-rule="nonzero"/><path fill="#000000" d="m59.024258 478.77975l0 0.1875q0 2.703125 0.421875 5.078125q0.4375 2.375 1.15625 4.40625q0.6875 2.03125 1.625 3.703125q0.9375 1.671875 1.9687538 2.96875q1.015625 1.328125 2.0625 2.234375q1.0625 0.921875 2.0 1.453125l0.734375 -2.140625q-0.765625 -0.625 -1.53125 -1.5q-0.765625 -0.875 -1.484375 -2.0q-0.703125 -1.203125 -1.34375 -2.703125q-0.6406288 -1.5 -1.1250038 -3.25q-0.453125 -1.734375 -0.71875 -3.78125q-0.265625 -2.0625 -0.265625 -4.421875l0 -0.265625q0 -2.453125 0.28125 -4.578125q0.28125 -2.140625 0.796875 -3.921875q0.5156288 -1.96875 1.3125038 -3.609375q0.796875 -1.65625 1.65625 -2.890625q0.59375 -0.78125 1.203125 -1.421875q0.609375 -0.640625 1.21875 -1.09375l-0.734375 -2.3125q-0.9375 0.53125 -1.984375 1.453125q-1.03125 0.921875 -2.0625 2.234375q-1.0312538 1.296875 -1.9687538 2.984375q-0.9375 1.671875 -1.640625 3.6875q-0.71875 2.046875 -1.15625 4.421875q-0.421875 2.375 -0.421875 5.078125zm37.056904 1.171875l0 -0.390625q0 -1.609375 -0.265625 -3.046875q-0.265625 -1.453125 -0.78125 -2.640625q-0.484375 -1.0625 -1.125 -1.921875q-0.640625 -0.859375 -1.453125 -1.453125q-0.90625 -0.640625 -2.03125 -1.0q-1.109375 -0.359375 -2.421875 -0.359375q-1.0625 0 -1.96875 0.203125q-0.90625 0.203125 -1.65625 0.609375q-0.609375 0.3125 -1.140625 0.765625q-0.515625 0.4375 -0.953125 0.984375l0 -10.765625l-3.5 0l0 29.0l3.21875 0l0.171875 -2.328125q0.328125 0.4375 0.703125 0.796875q0.390625 0.359375 0.796875 0.65625q0.875 0.609375 1.953125 0.921875q1.09375 0.328125 2.40625 0.328125q1.15625 0 2.140625 -0.28125q1.0 -0.28125 1.828125 -0.796875q1.15625 -0.734375 1.96875 -1.859375q0.828125 -1.125 1.328125 -2.53125q0.390625 -1.078125 0.578125 -2.3125q0.203125 -1.234375 0.203125 -2.578125zm-3.5 -0.390625l0 0.390625q0 0.90625 -0.109375 1.78125q-0.109375 0.859375 -0.359375 1.609375q-0.296875 1.0 -0.8125 1.8125q-0.5 0.8125 -1.265625 1.34375q-0.5625 0.421875 -1.28125 0.640625q-0.71875 0.21875 -1.578125 0.21875q-0.90625 0 -1.671875 -0.234375q-0.75 -0.25 -1.359375 -0.671875q-0.59375 -0.4375 -1.0625 -1.015625q-0.453125 -0.578125 -0.796875 -1.25l0 -8.9375q0.3125 -0.671875 0.78125 -1.25q0.46875 -0.578125 1.0625 -1.015625q0.59375 -0.40625 1.34375 -0.640625q0.75 -0.25 1.65625 -0.25q0.828125 0 1.5 0.203125q0.6875 0.1875 1.25 0.515625q0.78125 0.484375 1.328125 1.3125q0.546875 0.828125 0.890625 1.828125q0.25 0.8125 0.359375 1.734375q0.125 0.90625 0.125 1.875zm16.40065 8.109375q0 1.09375 0.6875 1.859375q0.6875 0.765625 2.046875 0.765625q1.34375 0 2.0625 -0.75q0.71875 -0.765625 0.71875 -1.875q0 -1.125 -0.71875 -1.90625q-0.703125 -0.796875 -2.0625 -0.796875q-1.375 0 -2.0625 0.796875q-0.671875 0.796875 -0.671875 1.90625zm0 -16.53125q0 1.09375 0.6875 1.859375q0.6875 0.765625 2.046875 0.765625q1.34375 0 2.0625 -0.75q0.71875 -0.765625 0.71875 -1.875q0 -1.125 -0.71875 -1.90625q-0.703125 -0.796875 -2.0625 -0.796875q-1.375 0 -2.0625 0.796875q-0.671875 0.796875 -0.671875 1.90625zm23.197525 16.53125q0 1.09375 0.6875 1.859375q0.6875 0.765625 2.046875 0.765625q1.34375 0 2.0625 -0.75q0.71875 -0.765625 0.71875 -1.875q0 -1.125 -0.71875 -1.90625q-0.703125 -0.796875 -2.0625 -0.796875q-1.375 0 -2.0625 0.796875q-0.671875 0.796875 -0.671875 1.90625zm0 -16.53125q0 1.09375 0.6875 1.859375q0.6875 0.765625 2.046875 0.765625q1.34375 0 2.0625 -0.75q0.71875 -0.765625 0.71875 -1.875q0 -1.125 -0.71875 -1.90625q-0.703125 -0.796875 -2.0625 -0.796875q-1.375 0 -2.0625 0.796875q-0.671875 0.796875 -0.671875 1.90625zm16.15065 18.796875l8.796875 0q1.75 -0.015625 3.390625 -0.546875q1.65625 -0.53125 2.921875 -1.53125q1.265625 -0.984375 2.015625 -2.453125q0.765625 -1.46875 0.75 -3.390625q0 -1.234375 -0.375 -2.28125q-0.359375 -1.0625 -1.03125 -1.921875q-0.609375 -0.765625 -1.578125 -1.40625q-0.96875 -0.640625 -2.0 -0.890625l0 -0.0625q1.0 -0.421875 1.703125 -0.90625q0.703125 -0.5 1.296875 -1.21875q0.5625 -0.703125 0.890625 -1.578125q0.328125 -0.890625 0.359375 -1.96875q0.015625 -1.921875 -0.75 -3.296875q-0.75 -1.390625 -2.015625 -2.28125q-1.265625 -0.875 -2.890625 -1.296875q-1.609375 -0.4375 -3.3125 -0.453125l-8.171875 0l0 27.484375zm3.5 -12.859375l5.578125 0q1.109375 0.046875 2.0625 0.390625q0.96875 0.328125 1.6875 0.953125q0.71875 0.640625 1.125 1.546875q0.40625 0.90625 0.390625 2.078125q0 1.15625 -0.453125 2.0625q-0.4375 0.90625 -1.1875 1.53125q-0.765625 0.609375 -1.75 0.96875q-0.96875 0.34375 -2.0625 0.359375l-5.390625 0l0 -9.890625zm0 -2.90625l0 -8.734375l4.78125 0q1.015625 0.015625 1.984375 0.265625q0.984375 0.25 1.734375 0.75q0.734375 0.53125 1.171875 1.34375q0.453125 0.8125 0.453125 1.96875q0 1.0625 -0.453125 1.875q-0.453125 0.8125 -1.1875 1.359375q-0.734375 0.578125 -1.6875 0.875q-0.9375 0.28125 -1.921875 0.296875l-4.875 0zm18.7444 5.359375l0 0.421875q0 2.203125 0.640625 4.09375q0.65625 1.890625 1.859375 3.28125q1.1875 1.40625 2.90625 2.203125q1.734375 0.78125 3.90625 0.78125q2.15625 0 3.859375 -0.78125q1.71875 -0.796875 2.9375 -2.203125q1.1875 -1.390625 1.828125 -3.28125q0.640625 -1.890625 0.640625 -4.09375l0 -0.421875q0 -2.203125 -0.640625 -4.09375q-0.640625 -1.90625 -1.828125 -3.296875q-1.21875 -1.40625 -2.953125 -2.203125q-1.71875 -0.796875 -3.875 -0.796875q-2.15625 0 -3.875 0.796875q-1.71875 0.796875 -2.90625 2.203125q-1.203125 1.390625 -1.859375 3.296875q-0.640625 1.890625 -0.640625 4.09375zm3.5 0.421875l0 -0.421875q0 -1.484375 0.359375 -2.84375q0.359375 -1.375 1.09375 -2.421875q0.71875 -1.03125 1.78125 -1.640625q1.078125 -0.625 2.546875 -0.625q1.453125 0 2.53125 0.625q1.078125 0.609375 1.828125 1.640625q0.703125 1.046875 1.078125 2.421875q0.375 1.359375 0.375 2.84375l0 0.421875q0 1.515625 -0.359375 2.890625q-0.359375 1.359375 -1.078125 2.390625q-0.734375 1.046875 -1.828125 1.65625q-1.078125 0.59375 -2.515625 0.59375q-1.453125 0 -2.546875 -0.59375q-1.09375 -0.609375 -1.8125 -1.65625q-0.734375 -1.03125 -1.09375 -2.390625q-0.359375 -1.375 -0.359375 -2.890625zm29.1194 -2.875l-5.390625 -7.5625l-4.046875 0l7.609375 10.09375l-7.8125 10.328125l4.078125 0l5.640625 -7.78125l5.640625 7.78125l4.046875 0l-7.8125 -10.328125l7.59375 -10.09375l-4.09375 0l-5.453125 7.5625zm23.6194 12.046875l0 -3.328125l-3.796875 0l0 3.390625q0 1.59375 -0.375 3.078125q-0.375 1.5 -1.28125 2.828125l2.171875 1.1875q1.5 -1.34375 2.390625 -3.3125q0.890625 -1.953125 0.890625 -3.84375zm44.551285 -1.453125q0 1.09375 0.6875 1.859375q0.6875 0.765625 2.046875 0.765625q1.34375 0 2.0625 -0.75q0.71875 -0.765625 0.71875 -1.875q0 -1.125 -0.71875 -1.90625q-0.703125 -0.796875 -2.0625 -0.796875q-1.375 0 -2.0625 0.796875q-0.671875 0.796875 -0.671875 1.90625zm0 -16.53125q0 1.09375 0.6875 1.859375q0.6875 0.765625 2.046875 0.765625q1.34375 0 2.0625 -0.75q0.71875 -0.765625 0.71875 -1.875q0 -1.125 -0.71875 -1.90625q-0.703125 -0.796875 -2.0625 -0.796875q-1.375 0 -2.0625 0.796875q-0.671875 0.796875 -0.671875 1.90625zm23.19754 16.53125q0 1.09375 0.6875 1.859375q0.6875 0.765625 2.046875 0.765625q1.34375 0 2.0625 -0.75q0.71875 -0.765625 0.71875 -1.875q0 -1.125 -0.71875 -1.90625q-0.703125 -0.796875 -2.0625 -0.796875q-1.375 0 -2.0625 0.796875q-0.671875 0.796875 -0.671875 1.90625zm0 -16.53125q0 1.09375 0.6875 1.859375q0.6875 0.765625 2.046875 0.765625q1.34375 0 2.0625 -0.75q0.71875 -0.765625 0.71875 -1.875q0 -1.125 -0.71875 -1.90625q-0.703125 -0.796875 -2.0625 -0.796875q-1.375 0 -2.0625 0.796875q-0.671875 0.796875 -0.671875 1.90625zm16.181915 -8.6875l0 3.046875l6.4375 0l0 21.421875l-6.4375 0l0 3.015625l16.609375 0l0 -3.015625l-6.578125 0l0 -21.421875l6.578125 0l0 -3.046875l-16.609375 0zm36.775635 22.0625q0 0.5 -0.1875 0.9375q-0.1875 0.421875 -0.546875 0.78125q-0.59375 0.59375 -1.640625 0.921875q-1.03125 0.328125 -2.421875 0.328125q-0.890625 0 -1.796875 -0.1875q-0.90625 -0.1875 -1.640625 -0.640625q-0.75 -0.453125 -1.25 -1.1875q-0.5 -0.734375 -0.578125 -1.8125l-3.5 0q0 1.296875 0.59375 2.515625q0.609375 1.203125 1.734375 2.109375q1.109375 0.921875 2.734375 1.484375q1.625 0.546875 3.703125 0.546875q1.8125 0 3.34375 -0.421875q1.53125 -0.4375 2.625 -1.234375q1.09375 -0.796875 1.703125 -1.90625q0.609375 -1.109375 0.609375 -2.46875q0 -1.265625 -0.546875 -2.234375q-0.53125 -0.96875 -1.546875 -1.703125q-1.015625 -0.71875 -2.515625 -1.234375q-1.484375 -0.515625 -3.375 -0.90625q-1.4375 -0.296875 -2.375 -0.59375q-0.921875 -0.296875 -1.46875 -0.671875q-0.5625 -0.375 -0.796875 -0.84375q-0.21875 -0.484375 -0.21875 -1.09375q0 -0.578125 0.28125 -1.125q0.28125 -0.546875 0.84375 -0.96875q0.546875 -0.40625 1.390625 -0.65625q0.84375 -0.25 1.953125 -0.25q1.078125 0 1.9375 0.3125q0.859375 0.296875 1.453125 0.78125q0.609375 0.5 0.9375 1.140625q0.34375 0.625 0.34375 1.28125l3.5 0q0 -1.34375 -0.578125 -2.5q-0.578125 -1.15625 -1.625 -2.03125q-1.0625 -0.859375 -2.578125 -1.34375q-1.5 -0.5 -3.390625 -0.5q-1.75 0 -3.21875 0.46875q-1.46875 0.46875 -2.515625 1.28125q-1.0625 0.8125 -1.65625 1.90625q-0.578125 1.078125 -0.578125 2.328125q0 1.265625 0.5625 2.21875q0.578125 0.953125 1.609375 1.640625q1.015625 0.71875 2.453125 1.234375q1.453125 0.5 3.203125 0.859375q1.4375 0.296875 2.390625 0.640625q0.96875 0.34375 1.5625 0.765625q0.578125 0.40625 0.828125 0.90625q0.25 0.5 0.25 1.125zm27.494385 -6.734375l0 -3.125q-0.015625 -1.484375 -0.25 -2.984375q-0.234375 -1.515625 -0.734375 -2.90625q-0.5 -1.40625 -1.265625 -2.625q-0.765625 -1.21875 -1.828125 -2.125q-1.046875 -0.90625 -2.4375 -1.421875q-1.375 -0.515625 -3.0625 -0.515625q-1.703125 0 -3.078125 0.515625q-1.359375 0.515625 -2.421875 1.421875q-1.0625 0.9375 -1.828125 2.15625q-0.765625 1.203125 -1.25 2.609375q-0.515625 1.390625 -0.75 2.890625q-0.234375 1.5 -0.25 2.984375l0 3.125q0.015625 1.46875 0.265625 2.96875q0.25 1.484375 0.75 2.890625q0.5 1.390625 1.265625 2.609375q0.78125 1.21875 1.828125 2.125q1.0625 0.90625 2.421875 1.421875q1.375 0.515625 3.078125 0.515625q1.703125 0 3.0625 -0.515625q1.375 -0.515625 2.421875 -1.421875q1.0625 -0.90625 1.828125 -2.109375q0.765625 -1.21875 1.25 -2.609375q0.5 -1.40625 0.734375 -2.90625q0.234375 -1.5 0.25 -2.96875zm-3.453125 -3.171875l0 3.171875q-0.015625 0.984375 -0.125 2.0625q-0.09375 1.078125 -0.359375 2.109375q-0.28125 1.0625 -0.734375 2.015625q-0.4375 0.953125 -1.09375 1.671875q-0.6875 0.734375 -1.625 1.171875q-0.9375 0.421875 -2.15625 0.421875q-1.234375 0 -2.15625 -0.421875q-0.921875 -0.4375 -1.59375 -1.171875q-0.6875 -0.71875 -1.140625 -1.6875q-0.453125 -0.96875 -0.734375 -2.015625q-0.28125 -1.046875 -0.40625 -2.109375q-0.125 -1.078125 -0.140625 -2.046875l0 -3.171875q0.015625 -0.96875 0.140625 -2.03125q0.125 -1.0625 0.40625 -2.125q0.265625 -1.03125 0.71875 -1.984375q0.453125 -0.953125 1.125 -1.6875q0.6875 -0.71875 1.609375 -1.15625q0.921875 -0.4375 2.140625 -0.4375q1.21875 0 2.140625 0.4375q0.921875 0.421875 1.609375 1.140625q0.671875 0.734375 1.125 1.6875q0.453125 0.953125 0.734375 1.984375q0.265625 1.0625 0.375 2.125q0.125 1.0625 0.140625 2.046875zm8.775635 15.328125l3.5 0l0 -14.640625q0.359375 -0.671875 0.828125 -1.21875q0.484375 -0.546875 1.046875 -0.953125q0.703125 -0.484375 1.53125 -0.75q0.828125 -0.28125 1.796875 -0.28125q1.109375 0 1.96875 0.265625q0.859375 0.265625 1.46875 0.859375q0.578125 0.578125 0.875 1.53125q0.3125 0.9375 0.3125 2.296875l0 12.890625l3.5 0l0 -12.96875q0 -2.03125 -0.5 -3.515625q-0.5 -1.484375 -1.4375 -2.453125q-0.921875 -0.953125 -2.234375 -1.40625q-1.3125 -0.453125 -2.90625 -0.453125q-1.203125 0.015625 -2.265625 0.34375q-1.0625 0.328125 -1.96875 0.9375q-0.609375 0.390625 -1.15625 0.9375q-0.53125 0.53125 -0.984375 1.171875l-0.234375 -3.015625l-3.140625 0l0 20.421875zm32.056885 -0.8125l0 -3.328125l-3.796875 0l0 3.390625q0 1.59375 -0.375 3.078125q-0.375 1.5 -1.28125 2.828125l2.171875 1.1875q1.5 -1.34375 2.390625 -3.3125q0.890625 -1.953125 0.890625 -3.84375zm46.23877 -1.640625q-1.640625 0 -2.75 -0.640625q-1.09375 -0.65625 -1.765625 -1.71875q-0.671875 -1.03125 -0.96875 -2.34375q-0.296875 -1.3125 -0.296875 -2.65625l0 -0.796875q0 -1.3125 0.296875 -2.609375q0.296875 -1.3125 0.96875 -2.375q0.6875 -1.03125 1.78125 -1.6875q1.109375 -0.65625 2.734375 -0.65625q1.0625 0 1.96875 0.359375q0.921875 0.359375 1.578125 0.984375q0.65625 0.625 1.046875 1.453125q0.390625 0.8125 0.40625 1.734375l3.3125 0q0 -1.546875 -0.625 -2.90625q-0.625 -1.359375 -1.71875 -2.359375q-1.109375 -0.984375 -2.640625 -1.546875q-1.515625 -0.578125 -3.328125 -0.578125q-2.3125 0 -4.0625 0.828125q-1.734375 0.828125 -2.875 2.21875q-1.171875 1.421875 -1.765625 3.28125q-0.578125 1.84375 -0.578125 3.859375l0 0.796875q0 2.03125 0.578125 3.875q0.59375 1.84375 1.765625 3.234375q1.140625 1.421875 2.875 2.25q1.75 0.828125 4.0625 0.828125q1.625 0 3.109375 -0.546875q1.5 -0.5625 2.65625 -1.515625q1.140625 -0.921875 1.828125 -2.15625q0.6875 -1.234375 0.71875 -2.59375l-3.3125 0q-0.015625 0.84375 -0.4375 1.578125q-0.421875 0.71875 -1.125 1.25q-0.703125 0.546875 -1.609375 0.859375q-0.890625 0.296875 -1.828125 0.296875zm17.994385 -14.9375l0 -11.609375l-3.5 0l0 29.0l3.5 0l0 -14.828125q0.375 -0.609375 0.84375 -1.109375q0.484375 -0.5 1.0625 -0.875q0.71875 -0.5 1.5625 -0.765625q0.84375 -0.265625 1.796875 -0.265625q1.140625 -0.015625 2.03125 0.328125q0.890625 0.328125 1.46875 0.984375q0.546875 0.59375 0.828125 1.515625q0.296875 0.921875 0.296875 2.125l0 12.890625l3.484375 0l0 -12.859375q0 -2.046875 -0.5 -3.546875q-0.5 -1.5 -1.421875 -2.484375q-0.921875 -0.984375 -2.234375 -1.4375q-1.3125 -0.46875 -2.921875 -0.46875q-1.21875 0.015625 -2.3125 0.359375q-1.078125 0.328125 -1.984375 1.0q-0.578125 0.390625 -1.09375 0.921875q-0.5 0.515625 -0.90625 1.125zm33.119385 17.390625l3.6405945 0l0 -0.296875q-0.34375 -0.859375 -0.53125 -2.0q-0.1875 -1.140625 -0.1875 -2.15625l0 -9.5q0 -1.71875 -0.625 -3.0q-0.6093445 -1.28125 -1.6874695 -2.15625q-1.09375 -0.84375 -2.59375 -1.265625q-1.484375 -0.421875 -3.21875 -0.421875q-1.90625 0 -3.40625 0.53125q-1.5 0.515625 -2.546875 1.375q-1.046875 0.859375 -1.609375 1.9375q-0.5625 1.078125 -0.578125 2.1875l3.515625 0q0 -0.640625 0.3125 -1.234375q0.3125 -0.59375 0.875 -1.03125q0.5625 -0.421875 1.375 -0.6875q0.828125 -0.265625 1.875 -0.265625q1.109375 0 2.0 0.28125q0.90625 0.28125 1.515625 0.796875q0.625 0.515625 0.96875 1.265625q0.34375 0.734375 0.34375 1.65625l0 1.609375l-3.8125 0q-2.140625 0 -3.875 0.421875q-1.71875 0.40625 -2.9375 1.234375q-1.234375 0.84375 -1.90625 2.109375q-0.671875 1.265625 -0.671875 2.953125q0 1.28125 0.5 2.390625q0.5 1.09375 1.4375 1.890625q0.90625 0.8125 2.21875 1.28125q1.3125 0.46875 2.921875 0.46875q1.0 0 1.890625 -0.203125q0.890625 -0.203125 1.6875 -0.5625q0.765625 -0.359375 1.421875 -0.828125q0.65625 -0.484375 1.171875 -1.015625q0.0625 0.65625 0.1875 1.25q0.125 0.59375 0.328125 0.984375zm-6.171875 -2.65625q-1.015625 0 -1.796875 -0.265625q-0.765625 -0.265625 -1.28125 -0.734375q-0.5 -0.453125 -0.765625 -1.09375q-0.25 -0.640625 -0.25 -1.40625q0 -0.796875 0.28125 -1.40625q0.296875 -0.625 0.875 -1.078125q0.78125 -0.640625 2.125 -0.953125q1.359375 -0.3125 3.171875 -0.3125l3.25 0l0 4.125q-0.296875 0.609375 -0.828125 1.171875q-0.53125 0.546875 -1.25 0.984375q-0.734375 0.4375 -1.625 0.703125q-0.890625 0.265625 -1.90625 0.265625zm16.494354 -17.765625l0 3.03125l6.953125 0l0 14.375l-6.953125 0l0 3.015625l17.109375 0l0 -3.015625l-6.671875 0l0 -17.40625l-10.4375 0zm6.5 -5.359375q0 0.84375 0.515625 1.421875q0.515625 0.5625 1.578125 0.5625q1.03125 0 1.5625 -0.5625q0.53125 -0.578125 0.53125 -1.421875q0 -0.46875 -0.15625 -0.859375q-0.140625 -0.40625 -0.453125 -0.671875q-0.234375 -0.25 -0.625 -0.390625q-0.375 -0.140625 -0.859375 -0.140625q-0.5 0 -0.890625 0.140625q-0.375 0.140625 -0.625 0.390625q-0.296875 0.28125 -0.4375 0.6875q-0.140625 0.390625 -0.140625 0.84375zm29.54126 4.984375q-2.234375 0 -3.984375 0.96875q-1.734375 0.96875 -2.984375 2.65625l-0.015625 -0.515625l-0.15625 -2.734375l-3.328125 0l0 20.421875l3.515625 0l0 -13.09375q0.34375 -0.953125 0.859375 -1.71875q0.515625 -0.765625 1.21875 -1.28125q0.78125 -0.609375 1.8125 -0.921875q1.03125 -0.3125 2.328125 -0.3125q1.0 0 1.90625 0.109375q0.921875 0.09375 1.9375 0.328125l0.46875 -3.421875q-0.53125 -0.21875 -1.578125 -0.34375q-1.046875 -0.140625 -2.0 -0.140625zm16.82251 18.53125q0 1.09375 0.6875 1.859375q0.6875 0.765625 2.046875 0.765625q1.34375 0 2.0625 -0.75q0.71875 -0.765625 0.71875 -1.875q0 -1.125 -0.71875 -1.90625q-0.703125 -0.796875 -2.0625 -0.796875q-1.375 0 -2.0625 0.796875q-0.671875 0.796875 -0.671875 1.90625zm0 -16.53125q0 1.09375 0.6875 1.859375q0.6875 0.765625 2.046875 0.765625q1.34375 0 2.0625 -0.75q0.71875 -0.765625 0.71875 -1.875q0 -1.125 -0.71875 -1.90625q-0.703125 -0.796875 -2.0625 -0.796875q-1.375 0 -2.0625 0.796875q-0.671875 0.796875 -0.671875 1.90625zm23.19751 16.53125q0 1.09375 0.6875 1.859375q0.6875 0.765625 2.046875 0.765625q1.34375 0 2.0625 -0.75q0.71875 -0.765625 0.71875 -1.875q0 -1.125 -0.71875 -1.90625q-0.703125 -0.796875 -2.0625 -0.796875q-1.375 0 -2.0625 0.796875q-0.671875 0.796875 -0.671875 1.90625zm0 -16.53125q0 1.09375 0.6875 1.859375q0.6875 0.765625 2.046875 0.765625q1.34375 0 2.0625 -0.75q0.71875 -0.765625 0.71875 -1.875q0 -1.125 -0.71875 -1.90625q-0.703125 -0.796875 -2.0625 -0.796875q-1.375 0 -2.0625 0.796875q-0.671875 0.796875 -0.671875 1.90625zm30.57251 11.84375q0 1.140625 -0.5 1.96875q-0.484375 0.8125 -1.265625 1.34375q-0.765625 0.546875 -1.765625 0.8125q-0.984375 0.25 -2.0 0.25q-1.28125 0 -2.375 -0.34375q-1.078125 -0.359375 -1.90625 -1.0625q-0.84375 -0.671875 -1.375 -1.65625q-0.515625 -1.0 -0.6875 -2.28125l-3.5625 0q0.046875 1.765625 0.765625 3.21875q0.734375 1.4375 1.984375 2.515625q1.390625 1.25 3.28125 1.90625q1.90625 0.65625 3.875 0.65625q1.640625 0 3.28125 -0.453125q1.640625 -0.46875 2.9375 -1.390625q1.3125 -0.90625 2.125 -2.28125q0.828125 -1.390625 0.828125 -3.234375q0 -1.828125 -0.765625 -3.21875q-0.765625 -1.40625 -2.015625 -2.375q-1.265625 -1.03125 -2.796875 -1.703125q-1.515625 -0.671875 -3.046875 -1.140625q-0.921875 -0.28125 -1.96875 -0.65625q-1.046875 -0.375 -1.9375 -0.953125q-0.90625 -0.5625 -1.5 -1.375q-0.578125 -0.828125 -0.59375 -2.015625q0 -1.09375 0.4375 -1.921875q0.4375 -0.828125 1.203125 -1.40625q0.734375 -0.5625 1.6875 -0.84375q0.953125 -0.28125 1.953125 -0.28125q1.25 0 2.234375 0.390625q0.984375 0.375 1.703125 1.078125q0.71875 0.703125 1.15625 1.671875q0.4375 0.96875 0.578125 2.15625l3.59375 0q-0.03125 -1.890625 -0.8125 -3.40625q-0.765625 -1.53125 -2.0625 -2.609375q-1.28125 -1.078125 -2.9375 -1.671875q-1.65625 -0.59375 -3.453125 -0.59375q-1.625 0 -3.234375 0.5q-1.59375 0.5 -2.859375 1.46875q-1.265625 0.953125 -2.0625 2.359375q-0.78125 1.390625 -0.78125 3.171875q0 1.765625 0.78125 3.078125q0.796875 1.3125 2.03125 2.28125q1.234375 0.9375 2.734375 1.609375q1.5 0.671875 2.953125 1.140625q1.0 0.328125 2.078125 0.71875q1.09375 0.390625 2.0 0.984375q0.90625 0.59375 1.484375 1.46875q0.578125 0.875 0.578125 2.125zm22.275635 6.953125l3.15625 0l0 -20.421875l-3.5 0l0 14.640625q-0.28125 0.671875 -0.71875 1.234375q-0.421875 0.546875 -0.984375 0.9375q-0.671875 0.5 -1.609375 0.78125q-0.921875 0.265625 -2.09375 0.265625q-1.0 0 -1.765625 -0.265625q-0.765625 -0.265625 -1.28125 -0.921875q-0.53125 -0.640625 -0.796875 -1.734375q-0.265625 -1.109375 -0.265625 -2.765625l0 -12.171875l-3.5 0l0 12.140625q0 2.28125 0.5 3.921875q0.5 1.625 1.4375 2.671875q0.921875 1.0625 2.21875 1.5625q1.3125 0.5 2.90625 0.5q2.0 0 3.53125 -0.828125q1.53125 -0.84375 2.546875 -2.359375l0.21875 2.8125zm23.119385 -20.796875q-2.234375 0 -3.984375 0.96875q-1.734375 0.96875 -2.984375 2.65625l-0.015625 -0.515625l-0.15625 -2.734375l-3.328125 0l0 20.421875l3.515625 0l0 -13.09375q0.34375 -0.953125 0.859375 -1.71875q0.515625 -0.765625 1.21875 -1.28125q0.78125 -0.609375 1.8125 -0.921875q1.03125 -0.3125 2.328125 -0.3125q1.0 0 1.90625 0.109375q0.921875 0.09375 1.9375 0.328125l0.46875 -3.421875q-0.53125 -0.21875 -1.578125 -0.34375q-1.046875 -0.140625 -2.0 -0.140625zm15.025635 20.796875l3.5 0l0 -17.71875l7.875 0l0 -2.703125l-7.875 0l0 -1.4375q0 -1.28125 0.328125 -2.234375q0.34375 -0.96875 0.984375 -1.578125q0.59375 -0.578125 1.5 -0.875q0.921875 -0.296875 2.125 -0.296875q1.15625 0 2.1875 0.203125q1.03125 0.203125 1.8125 0.453125l0.40625 -2.875q-0.484375 -0.140625 -0.96875 -0.234375q-0.46875 -0.109375 -0.9375 -0.203125q-0.71875 -0.140625 -1.453125 -0.21875q-0.734375 -0.078125 -1.484375 -0.078125q-1.8125 0 -3.296875 0.515625q-1.46875 0.5 -2.5 1.5q-1.0625 1.0 -1.640625 2.484375q-0.5625 1.46875 -0.5625 3.4375l0 1.4375l-5.625 0l0 2.703125l5.625 0l0 17.71875zm31.400635 0l3.640625 0l0 -0.296875q-0.34375 -0.859375 -0.53125 -2.0q-0.1875 -1.140625 -0.1875 -2.15625l0 -9.5q0 -1.71875 -0.625 -3.0q-0.609375 -1.28125 -1.6875 -2.15625q-1.09375 -0.84375 -2.59375 -1.265625q-1.484375 -0.421875 -3.21875 -0.421875q-1.90625 0 -3.40625 0.53125q-1.5 0.515625 -2.546875 1.375q-1.046875 0.859375 -1.609375 1.9375q-0.5625 1.078125 -0.578125 2.1875l3.515625 0q0 -0.640625 0.3125 -1.234375q0.3125 -0.59375 0.875 -1.03125q0.5625 -0.421875 1.375 -0.6875q0.828125 -0.265625 1.875 -0.265625q1.109375 0 2.0 0.28125q0.90625 0.28125 1.515625 0.796875q0.625 0.515625 0.96875 1.265625q0.34375 0.734375 0.34375 1.65625l0 1.609375l-3.8125 0q-2.140625 0 -3.875 0.421875q-1.71875 0.40625 -2.9375 1.234375q-1.234375 0.84375 -1.90625 2.109375q-0.671875 1.265625 -0.671875 2.953125q0 1.28125 0.5 2.390625q0.5 1.09375 1.4375 1.890625q0.90625 0.8125 2.21875 1.28125q1.3125 0.46875 2.921875 0.46875q1.0 0 1.890625 -0.203125q0.890625 -0.203125 1.6875 -0.5625q0.765625 -0.359375 1.421875 -0.828125q0.65625 -0.484375 1.171875 -1.015625q0.0625 0.65625 0.1875 1.25q0.125 0.59375 0.328125 0.984375zm-6.171875 -2.65625q-1.015625 0 -1.796875 -0.265625q-0.765625 -0.265625 -1.28125 -0.734375q-0.5 -0.453125 -0.765625 -1.09375q-0.25 -0.640625 -0.25 -1.40625q0 -0.796875 0.28125 -1.40625q0.296875 -0.625 0.875 -1.078125q0.78125 -0.640625 2.125 -0.953125q1.359375 -0.3125 3.171875 -0.3125l3.25 0l0 4.125q-0.296875 0.609375 -0.828125 1.171875q-0.53125 0.546875 -1.25 0.984375q-0.734375 0.4375 -1.625 0.703125q-0.890625 0.265625 -1.90625 0.265625zm24.650635 0.203125q-1.640625 0 -2.75 -0.640625q-1.09375 -0.65625 -1.765625 -1.71875q-0.671875 -1.03125 -0.96875 -2.34375q-0.296875 -1.3125 -0.296875 -2.65625l0 -0.796875q0 -1.3125 0.296875 -2.609375q0.296875 -1.3125 0.96875 -2.375q0.6875 -1.03125 1.78125 -1.6875q1.109375 -0.65625 2.734375 -0.65625q1.0625 0 1.96875 0.359375q0.921875 0.359375 1.578125 0.984375q0.65625 0.625 1.046875 1.453125q0.390625 0.8125 0.40625 1.734375l3.3125 0q0 -1.546875 -0.625 -2.90625q-0.625 -1.359375 -1.71875 -2.359375q-1.109375 -0.984375 -2.640625 -1.546875q-1.515625 -0.578125 -3.328125 -0.578125q-2.3125 0 -4.0625 0.828125q-1.734375 0.828125 -2.875 2.21875q-1.171875 1.421875 -1.765625 3.28125q-0.578125 1.84375 -0.578125 3.859375l0 0.796875q0 2.03125 0.578125 3.875q0.59375 1.84375 1.765625 3.234375q1.140625 1.421875 2.875 2.25q1.75 0.828125 4.0625 0.828125q1.625 0 3.109375 -0.546875q1.5 -0.5625 2.65625 -1.515625q1.140625 -0.921875 1.828125 -2.15625q0.6875 -1.234375 0.71875 -2.59375l-3.3125 0q-0.015625 0.84375 -0.4375 1.578125q-0.421875 0.71875 -1.125 1.25q-0.703125 0.546875 -1.609375 0.859375q-0.890625 0.296875 -1.828125 0.296875zm23.525635 2.828125q2.96875 0 5.0 -1.1875q2.03125 -1.203125 3.046875 -2.75l-2.125 -1.671875q-0.96875 1.25 -2.421875 2.015625q-1.453125 0.75 -3.3125 0.75q-1.421875 0 -2.59375 -0.53125q-1.171875 -0.53125 -2.0 -1.453125q-0.8125 -0.875 -1.28125 -2.0q-0.453125 -1.140625 -0.578125 -2.625l0 -0.140625l14.578125 0l0 -1.5625q0 -2.125 -0.546875 -3.953125q-0.53125 -1.84375 -1.625 -3.203125q-1.09375 -1.328125 -2.75 -2.09375q-1.640625 -0.765625 -3.84375 -0.765625q-1.765625 0 -3.4375 0.71875q-1.671875 0.71875 -2.96875 2.046875q-1.3125 1.359375 -2.109375 3.3125q-0.796875 1.953125 -0.796875 4.4375l0 0.78125q0 2.140625 0.71875 3.953125q0.71875 1.8125 2.0 3.125q1.28125 1.328125 3.078125 2.0625q1.8125 0.734375 3.96875 0.734375zm-0.453125 -18.3125q1.328125 0 2.296875 0.5q0.984375 0.484375 1.625 1.28125q0.640625 0.796875 1.0 1.890625q0.359375 1.078125 0.359375 2.015625l0 0.171875l-10.984375 0q0.203125 -1.421875 0.71875 -2.5q0.53125 -1.09375 1.28125 -1.84375q0.75 -0.734375 1.6875 -1.125q0.953125 -0.390625 2.015625 -0.390625zm27.369385 6.96875l0 -0.1875q0 -2.890625 -0.453125 -5.203125q-0.4375 -2.3125 -1.125 -4.296875q-0.6875 -2.046875 -1.625 -3.6875q-0.921875 -1.640625 -1.96875 -2.984375q-1.03125 -1.3125 -2.09375 -2.234375q-1.046875 -0.921875 -1.984375 -1.453125l-0.734375 2.140625q0.609375 0.5 1.265625 1.234375q0.671875 0.71875 1.296875 1.6875q0.8125 1.234375 1.578125 2.890625q0.78125 1.640625 1.328125 3.71875q0.375 1.453125 0.6875 3.53125q0.3125 2.078125 0.3125 4.625l0 0.265625q0 2.234375 -0.234375 4.21875q-0.234375 1.96875 -0.671875 3.671875q-0.421875 1.828125 -1.078125 3.359375q-0.640625 1.546875 -1.34375 2.765625q-0.734375 1.203125 -1.546875 2.125q-0.8125 0.9375 -1.59375 1.515625l0.734375 2.140625q0.9375 -0.53125 1.984375 -1.453125q1.046875 -0.90625 2.09375 -2.234375q1.015625 -1.296875 1.9375 -2.96875q0.9375 -1.671875 1.65625 -3.703125q0.71875 -2.03125 1.140625 -4.40625q0.4375 -2.375 0.4375 -5.078125z" fill-rule="nonzero"/></g></svg>