<svg version="1.1" viewBox="0.0 0.0 868.3569553805775 504.03937007874015" fill="none" stroke="none" stroke-linecap="square" stroke-miterlimit="10" xmlns:xlink="http://www.w3.org/1999/xlink" xmlns="http://www.w3.org/2000/svg"><clipPath id="p.0"><path d="m0 0l868.35693 0l0 504.03937l-868.35693 0l0 -504.03937z" clip-rule="nonzero"/></clipPath><g clip-path="url(#p.0)"><path fill="#ffffff" d="m0 0l868.35693 0l0 504.03937l-868.35693 0z" fill-rule="evenodd"/><path fill="#9a86c8" fill-opacity="0.462" d="m166.1098 32.131275l531.57965 0l0 0c69.63837 0 126.09143 96.571976 126.09143 215.69952c0 119.12758 -56.453064 215.69954 -126.09143 215.69954l-531.57965 0l0 0c-69.638374 0 -126.09143 -96.57196 -126.09143 -215.69954c0 -119.12755 56.453056 -215.69952 126.09143 -215.69952z" fill-rule="evenodd"/><path stroke="#ffffff" stroke-width="1.0" stroke-linejoin="round" stroke-linecap="butt" d="m166.1098 32.131275l531.57965 0l0 0c69.63837 0 126.09143 96.571976 126.09143 215.69952c0 119.12758 -56.453064 215.69954 -126.09143 215.69954l-531.57965 0l0 0c-69.638374 0 -126.09143 -96.57196 -126.09143 -215.69954c0 -119.12755 56.453056 -215.69952 126.09143 -215.69952z" fill-rule="evenodd"/><path fill="#b4a7d6" d="m484.3622 252.01968l0 0c0 -38.659927 31.340057 -70.0 69.99997 -70.0l0 0c18.565186 0 36.369934 7.3749847 49.497498 20.502533c13.127563 13.127533 20.502502 30.932312 20.502502 49.497467l0 0c0 38.659943 -31.340027 70.0 -70.0 70.0l0 0c-38.659912 0 -69.99997 -31.340057 -69.99997 -70.0z" fill-rule="evenodd"/><path stroke="#351c75" stroke-width="3.0" stroke-linejoin="round" stroke-linecap="butt" stroke-dasharray="24.0,9.0" d="m484.3622 252.01968l0 0c0 -38.659927 31.340057 -70.0 69.99997 -70.0l0 0c18.565186 0 36.369934 7.3749847 49.497498 20.502533c13.127563 13.127533 20.502502 30.932312 20.502502 49.497467l0 0c0 38.659943 -31.340027 70.0 -70.0 70.0l0 0c-38.659912 0 -69.99997 -31.340057 -69.99997 -70.0z" fill-rule="evenodd"/><path fill="#000000" d="m516.39246 257.87656l0 -4.21875q1.28125 -0.078125 1.921875 -0.390625q0.65625 -0.3125 1.125 -1.0625q0.484375 -0.75 0.65625 -1.875q0.140625 -0.84375 0.140625 -2.9375q0 -3.40625 0.3125 -4.75q0.3125 -1.34375 1.140625 -2.15625q0.828125 -0.828125 2.40625 -1.296875q1.078125 -0.3125 3.375 -0.3125l0.9375 0l0 4.1875q-1.953125 0 -2.515625 0.234375q-0.546875 0.21875 -0.8125 0.671875q-0.25 0.4375 -0.25 1.53125q0 1.109375 -0.171875 4.203125q-0.078125 1.734375 -0.453125 2.8125q-0.359375 1.078125 -0.9375 1.78125q-0.578125 0.703125 -1.75 1.46875q1.03125 0.59375 1.6875 1.390625q0.671875 0.796875 1.015625 1.953125q0.359375 1.140625 0.46875 3.046875q0.109375 2.921875 0.109375 3.734375q0 1.15625 0.28125 1.609375q0.28125 0.46875 0.859375 0.703125q0.578125 0.234375 2.46875 0.234375l0 4.21875l-0.9375 0q-2.359375 0 -3.625 -0.375q-1.265625 -0.375 -2.140625 -1.265625q-0.875 -0.875 -1.171875 -2.171875q-0.296875 -1.28125 -0.296875 -4.0625q0 -3.234375 -0.28125 -4.203125q-0.390625 -1.40625 -1.171875 -2.015625q-0.78125 -0.609375 -2.390625 -0.6875zm27.11914 7.203125l-4.9375 0l0 -18.609375q-2.71875 2.53125 -6.390625 3.734375l0 -4.484375q1.9375 -0.625 4.203125 -2.390625q2.265625 -1.765625 3.109375 -4.125l4.015625 0l0 25.875zm8.318359 -4.9375l4.9375 0l0 3.53125q0 2.140625 -0.375 3.375q-0.375 1.25 -1.40625 2.234375q-1.015625 0.984375 -2.59375 1.546875l-0.96875 -2.046875q1.484375 -0.484375 2.109375 -1.34375q0.640625 -0.859375 0.6875 -2.359375l-2.390625 0l0 -4.9375zm25.751953 0.34375l0 4.59375l-17.328125 0q0.28125 -2.609375 1.6875 -4.9375q1.40625 -2.328125 5.5625 -6.171875q3.34375 -3.109375 4.09375 -4.21875q1.015625 -1.53125 1.015625 -3.03125q0 -1.640625 -0.890625 -2.53125q-0.875 -0.890625 -2.4375 -0.890625q-1.546875 0 -2.46875 0.9375q-0.90625 0.921875 -1.046875 3.09375l-4.921875 -0.5q0.4375 -4.078125 2.75 -5.84375q2.328125 -1.78125 5.796875 -1.78125q3.828125 0 6.0 2.0625q2.1875 2.046875 2.1875 5.109375q0 1.734375 -0.625 3.3125q-0.625 1.578125 -1.984375 3.296875q-0.890625 1.140625 -3.234375 3.296875q-2.34375 2.140625 -2.96875 2.84375q-0.609375 0.703125 -1.0 1.359375l9.8125 0zm14.615234 -2.609375q-1.28125 0.0625 -1.9375 0.390625q-0.640625 0.3125 -1.109375 1.0625q-0.46875 0.734375 -0.65625 1.859375q-0.140625 0.84375 -0.140625 2.921875q0 3.40625 -0.3125 4.765625q-0.3125 1.359375 -1.140625 2.171875q-0.8125 0.8125 -2.421875 1.296875q-1.0625 0.3125 -3.375 0.3125l-0.921875 0l0 -4.21875q1.875 0 2.453125 -0.234375q0.578125 -0.234375 0.84375 -0.6875q0.28125 -0.453125 0.28125 -1.53125q0.015625 -1.0625 0.15625 -4.09375q0.09375 -1.828125 0.46875 -2.921875q0.390625 -1.09375 1.03125 -1.859375q0.65625 -0.765625 1.65625 -1.34375q-1.3125 -0.84375 -1.90625 -1.65625q-0.828125 -1.15625 -1.125 -2.953125q-0.1875 -1.234375 -0.28125 -5.421875q-0.015625 -1.3125 -0.234375 -1.75q-0.21875 -0.4375 -0.796875 -0.671875q-0.5625 -0.25 -2.546875 -0.25l0 -4.1875l0.921875 0q2.375 0 3.640625 0.375q1.265625 0.359375 2.125 1.25q0.859375 0.875 1.171875 2.171875q0.3125 1.296875 0.3125 4.078125q0 3.203125 0.265625 4.1875q0.375 1.40625 1.171875 2.015625q0.796875 0.609375 2.40625 0.703125l0 4.21875z" fill-rule="nonzero"/><path fill="#000000" fill-opacity="0.0" d="m653.0656 213.8937l150.48822 0l0 67.87402l-150.48822 0z" fill-rule="evenodd"/><path fill="#351c75" d="m672.38416 250.57495l0 10.71875l-3.859375 0l0 -28.65625l8.46875 0q2.71875 0 4.71875 0.625q2.015625 0.625 3.328125 1.796875q1.328125 1.15625 1.96875 2.796875q0.65625 1.640625 0.65625 3.65625q0 2.0 -0.703125 3.671875q-0.6875 1.65625 -2.046875 2.859375q-1.34375 1.1875 -3.34375 1.859375q-2.0 0.671875 -4.578125 0.671875l-4.609375 0zm0 -3.078125l4.609375 0q1.65625 0 2.921875 -0.4375q1.28125 -0.453125 2.140625 -1.234375q0.859375 -0.796875 1.296875 -1.890625q0.4375 -1.09375 0.4375 -2.421875q0 -2.734375 -1.6875 -4.265625q-1.6875 -1.546875 -5.109375 -1.546875l-4.609375 0l0 11.796875zm22.486816 1.21875q0 4.28125 1.09375 8.3125q1.109375 4.03125 3.1875 7.6875q0.125 0.21875 0.15625 0.375q0.046875 0.15625 0.046875 0.328125q0 0.28125 -0.140625 0.453125q-0.140625 0.1875 -0.359375 0.328125l-1.578125 0.953125q-1.5 -2.296875 -2.5625 -4.5625q-1.046875 -2.25 -1.703125 -4.53125q-0.640625 -2.28125 -0.9375 -4.59375q-0.296875 -2.3125 -0.296875 -4.75q0 -2.421875 0.296875 -4.734375q0.296875 -2.328125 0.9375 -4.59375q0.65625 -2.28125 1.703125 -4.53125q1.0625 -2.265625 2.5625 -4.578125l1.578125 0.96875q0.21875 0.140625 0.359375 0.328125q0.140625 0.171875 0.140625 0.453125q0 0.3125 -0.203125 0.6875q-2.109375 3.640625 -3.203125 7.6875q-1.078125 4.03125 -1.078125 8.3125zm9.84375 4.078125q0 -1.265625 -0.703125 -2.0625q-0.703125 -0.8125 -2.046875 -0.8125l0 -2.140625q1.34375 0 2.046875 -0.796875q0.703125 -0.8125 0.703125 -2.09375q0 -1.0 -0.171875 -1.96875q-0.15625 -0.984375 -0.34375 -1.953125q-0.1875 -0.984375 -0.359375 -1.984375q-0.15625 -1.0 -0.15625 -2.046875q0 -1.375 0.40625 -2.53125q0.421875 -1.171875 1.25 -2.0q0.828125 -0.84375 2.0625 -1.296875q1.234375 -0.46875 2.875 -0.46875l1.046875 0l0 1.578125q0 0.390625 -0.28125 0.578125q-0.265625 0.1875 -0.515625 0.1875l-0.390625 0q-1.546875 0 -2.4375 1.015625q-0.890625 1.0 -0.890625 2.71875q0 1.125 0.140625 2.171875q0.140625 1.03125 0.3125 2.015625q0.1875 0.984375 0.328125 1.96875q0.140625 0.984375 0.140625 1.984375q0 0.75 -0.21875 1.40625q-0.21875 0.65625 -0.640625 1.171875q-0.40625 0.5 -0.953125 0.875q-0.546875 0.359375 -1.203125 0.546875q0.65625 0.171875 1.203125 0.546875q0.546875 0.375 0.953125 0.890625q0.421875 0.515625 0.640625 1.15625q0.21875 0.640625 0.21875 1.390625q0 1.0 -0.140625 1.984375q-0.140625 0.96875 -0.328125 1.96875q-0.171875 0.984375 -0.3125 2.03125q-0.140625 1.03125 -0.140625 2.15625q0 1.734375 0.890625 2.734375q0.890625 1.0 2.4375 1.0l0.390625 0q0.25 0 0.515625 0.171875q0.28125 0.1875 0.28125 0.59375l0 1.59375l-1.046875 0q-1.640625 0 -2.875 -0.46875q-1.234375 -0.46875 -2.0625 -1.3125q-0.828125 -0.84375 -1.25 -2.0q-0.40625 -1.15625 -0.40625 -2.546875q0 -1.03125 0.15625 -2.015625q0.171875 -1.0 0.359375 -1.984375q0.1875 -1.0 0.34375 -1.96875q0.171875 -0.984375 0.171875 -1.984375zm14.109375 5.78125l6.171875 0l0 -19.546875q0 -0.875 0.046875 -1.78125l-5.109375 4.390625q-0.203125 0.15625 -0.40625 0.234375q-0.203125 0.0625 -0.375 0.0625q-0.296875 0 -0.546875 -0.125q-0.234375 -0.140625 -0.359375 -0.3125l-1.109375 -1.546875l8.515625 -7.375l2.890625 0l0 26.0l5.640625 0l0 2.71875l-15.359375 0l0 -2.71875zm19.340576 0.265625q0 -0.46875 0.171875 -0.875q0.171875 -0.40625 0.484375 -0.71875q0.3125 -0.3125 0.75 -0.484375q0.4375 -0.1875 0.953125 -0.1875q0.609375 0 1.078125 0.21875q0.46875 0.21875 0.78125 0.609375q0.3125 0.390625 0.46875 0.90625q0.15625 0.5 0.15625 1.109375q0 0.890625 -0.265625 1.859375q-0.25 0.96875 -0.734375 1.921875q-0.484375 0.953125 -1.203125 1.84375q-0.703125 0.90625 -1.59375 1.671875l-0.609375 -0.578125q-0.25 -0.25 -0.25 -0.5625q0 -0.265625 0.28125 -0.546875q0.203125 -0.21875 0.5 -0.59375q0.3125 -0.359375 0.625 -0.84375q0.328125 -0.484375 0.59375 -1.0625q0.28125 -0.578125 0.390625 -1.234375l-0.25 0q-0.515625 0 -0.9375 -0.171875q-0.421875 -0.1875 -0.734375 -0.515625q-0.3125 -0.328125 -0.484375 -0.78125q-0.171875 -0.453125 -0.171875 -0.984375zm18.620667 -26.53125q1.828125 0 3.40625 0.546875q1.578125 0.53125 2.71875 1.5625q1.15625 1.03125 1.8125 2.515625q0.671875 1.484375 0.671875 3.359375q0 1.59375 -0.484375 2.953125q-0.484375 1.359375 -1.3125 2.609375q-0.8125 1.25 -1.890625 2.421875q-1.0625 1.171875 -2.25 2.390625l-7.546875 7.71875q0.796875 -0.21875 1.609375 -0.34375q0.828125 -0.125 1.59375 -0.125l9.59375 0q0.578125 0 0.921875 0.34375q0.34375 0.328125 0.34375 0.875l0 2.15625l-19.125 0l0 -1.21875q0 -0.375 0.140625 -0.78125q0.15625 -0.40625 0.5 -0.734375l9.1875 -9.21875q1.140625 -1.171875 2.078125 -2.234375q0.9375 -1.078125 1.609375 -2.15625q0.671875 -1.078125 1.03125 -2.1875q0.359375 -1.109375 0.359375 -2.375q0 -1.25 -0.40625 -2.203125q-0.390625 -0.953125 -1.09375 -1.5625q-0.703125 -0.625 -1.640625 -0.9375q-0.9375 -0.3125 -2.03125 -0.3125q-1.078125 0 -2.0 0.328125q-0.90625 0.3125 -1.625 0.890625q-0.703125 0.5625 -1.203125 1.34375q-0.484375 0.78125 -0.6875 1.71875q-0.15625 0.578125 -0.484375 0.84375q-0.3125 0.25 -0.828125 0.25q-0.109375 0 -0.21875 0q-0.109375 -0.015625 -0.25 -0.03125l-1.859375 -0.328125q0.28125 -1.953125 1.078125 -3.453125q0.8125 -1.515625 2.03125 -2.53125q1.234375 -1.03125 2.828125 -1.5625q1.59375 -0.53125 3.421875 -0.53125zm19.559326 20.484375q0 1.0 0.15625 1.984375q0.171875 0.96875 0.359375 1.96875q0.1875 0.984375 0.34375 1.984375q0.171875 0.984375 0.171875 2.015625q0 1.390625 -0.421875 2.546875q-0.421875 1.15625 -1.25 2.0q-0.8125 0.84375 -2.046875 1.3125q-1.234375 0.46875 -2.875 0.46875l-1.046875 0l0 -1.59375q0 -0.40625 0.265625 -0.59375q0.28125 -0.171875 0.53125 -0.171875l0.390625 0q1.546875 0 2.4375 -1.0q0.890625 -1.0 0.890625 -2.734375q0 -1.125 -0.140625 -2.15625q-0.140625 -1.046875 -0.328125 -2.03125q-0.171875 -1.0 -0.3125 -1.96875q-0.140625 -0.984375 -0.140625 -1.984375q0 -0.75 0.21875 -1.390625q0.21875 -0.640625 0.625 -1.15625q0.421875 -0.515625 0.96875 -0.890625q0.546875 -0.375 1.203125 -0.546875q-0.65625 -0.1875 -1.203125 -0.546875q-0.546875 -0.375 -0.96875 -0.875q-0.40625 -0.515625 -0.625 -1.171875q-0.21875 -0.65625 -0.21875 -1.40625q0 -1.0 0.140625 -1.984375q0.140625 -0.984375 0.3125 -1.96875q0.1875 -0.984375 0.328125 -2.015625q0.140625 -1.046875 0.140625 -2.171875q0 -1.71875 -0.890625 -2.71875q-0.890625 -1.015625 -2.4375 -1.015625l-0.390625 0q-0.25 0 -0.53125 -0.1875q-0.265625 -0.1875 -0.265625 -0.578125l0 -1.578125l1.046875 0q1.640625 0 2.875 0.46875q1.234375 0.453125 2.046875 1.296875q0.828125 0.828125 1.25 2.0q0.421875 1.15625 0.421875 2.53125q0 1.046875 -0.171875 2.046875q-0.15625 1.0 -0.34375 1.984375q-0.1875 0.96875 -0.359375 1.953125q-0.15625 0.96875 -0.15625 1.96875q0 1.28125 0.703125 2.09375q0.703125 0.796875 2.046875 0.796875l0 2.140625q-1.34375 0 -2.046875 0.8125q-0.703125 0.796875 -0.703125 2.0625zm9.578125 -4.078125q0 -4.28125 -1.09375 -8.3125q-1.078125 -4.046875 -3.171875 -7.6875q-0.203125 -0.375 -0.203125 -0.6875q0 -0.28125 0.140625 -0.453125q0.140625 -0.1875 0.359375 -0.328125l1.578125 -0.96875q1.5 2.3125 2.546875 4.578125q1.046875 2.25 1.6875 4.53125q0.65625 2.265625 0.953125 4.59375q0.3125 2.3125 0.3125 4.734375q0 2.4375 -0.3125 4.75q-0.296875 2.3125 -0.953125 4.59375q-0.640625 2.28125 -1.6875 4.53125q-1.046875 2.265625 -2.546875 4.5625l-1.578125 -0.953125q-0.21875 -0.140625 -0.359375 -0.328125q-0.140625 -0.171875 -0.140625 -0.453125q0 -0.171875 0.03125 -0.328125q0.046875 -0.15625 0.171875 -0.375q2.078125 -3.65625 3.171875 -7.6875q1.09375 -4.03125 1.09375 -8.3125z" fill-rule="nonzero"/><path fill="#b4a7d6" d="m91.68241 252.01837l0 0c0 -38.659927 31.340073 -70.0 70.00001 -70.0l0 0c18.565155 0 36.36992 7.3749847 49.497467 20.502533c13.127548 13.127533 20.502533 30.932312 20.502533 49.497467l0 0c0 38.659943 -31.340073 70.0 -70.0 70.0l0 0c-38.659935 0 -70.00001 -31.340057 -70.00001 -70.0z" fill-rule="evenodd"/><path stroke="#351c75" stroke-width="3.0" stroke-linejoin="round" stroke-linecap="butt" stroke-dasharray="24.0,9.0" d="m91.68241 252.01837l0 0c0 -38.659927 31.340073 -70.0 70.00001 -70.0l0 0c18.565155 0 36.36992 7.3749847 49.497467 20.502533c13.127548 13.127533 20.502533 30.932312 20.502533 49.497467l0 0c0 38.659943 -31.340073 70.0 -70.0 70.0l0 0c-38.659935 0 -70.00001 -31.340057 -70.00001 -70.0z" fill-rule="evenodd"/><path fill="#000000" d="m165.5418 246.60962q-1.171875 -1.359375 -3.859375 -1.359375q-2.71875 0 -4.53125 1.796875q-1.796875 1.8125 -1.796875 4.53125q0 1.921875 1.0625 3.375l9.125 -8.34375zm-3.859375 11.296875q2.71875 0 4.53125 -1.796875q1.796875 -1.8125 1.796875 -4.53125q0 -2.203125 -0.921875 -3.390625l-9.21875 8.453125q1.359375 1.265625 3.8125 1.265625zm0 2.109375q-3.171875 0 -5.34375 -1.921875l-2.140625 1.84375l-1.640625 -1.640625l2.140625 -1.859375q-1.453125 -1.703125 -1.453125 -4.859375q0 -3.609375 2.28125 -5.875q2.546875 -2.5625 6.15625 -2.5625q3.46875 0 5.375 1.90625l2.25 -1.96875l1.640625 1.640625l-2.296875 2.0q1.46875 1.84375 1.46875 4.859375q0 3.609375 -2.140625 5.734375q-2.6875 2.703125 -6.296875 2.703125z" fill-rule="nonzero"/><path fill="#b4a7d6" d="m288.021 143.89502l0 0c0 -38.659943 31.340057 -70.00001 70.0 -70.00001l0 0c18.565155 0 36.369934 7.374977 49.497467 20.502525c13.127563 13.127548 20.502533 30.93232 20.502533 49.497482l0 0c0 38.659927 -31.340057 70.0 -70.0 70.0l0 0c-38.659943 0 -70.0 -31.340073 -70.0 -70.0z" fill-rule="evenodd"/><path stroke="#351c75" stroke-width="3.0" stroke-linejoin="round" stroke-linecap="butt" stroke-dasharray="24.0,9.0" d="m288.021 143.89502l0 0c0 -38.659943 31.340057 -70.00001 70.0 -70.00001l0 0c18.565155 0 36.369934 7.374977 49.497467 20.502525c13.127563 13.127548 20.502533 30.93232 20.502533 49.497482l0 0c0 38.659927 -31.340057 70.0 -70.0 70.0l0 0c-38.659943 0 -70.0 -31.340073 -70.0 -70.0z" fill-rule="evenodd"/><path fill="#000000" d="m335.063 149.75189l0 -4.21875q1.28125 -0.078125 1.921875 -0.390625q0.65625 -0.3125 1.125 -1.0625q0.484375 -0.75 0.65625 -1.875q0.140625 -0.84375 0.140625 -2.9375q0 -3.40625 0.3125 -4.75q0.3125 -1.34375 1.140625 -2.15625q0.828125 -0.828125 2.40625 -1.296875q1.078125 -0.3125 3.375 -0.3125l0.9375 0l0 4.1875q-1.953125 0 -2.515625 0.234375q-0.546875 0.21875 -0.8125 0.671875q-0.25 0.4375 -0.25 1.53125q0 1.109375 -0.171875 4.203125q-0.078125 1.734375 -0.453125 2.8125q-0.359375 1.078125 -0.9375 1.78125q-0.578125 0.703125 -1.75 1.46875q1.03125 0.59375 1.6875 1.390625q0.671875 0.796875 1.015625 1.953125q0.359375 1.140625 0.46875 3.046875q0.109375 2.921875 0.109375 3.734375q0 1.15625 0.28125 1.609375q0.28125 0.46875 0.859375 0.703125q0.578125 0.234375 2.46875 0.234375l0 4.21875l-0.9375 0q-2.359375 0 -3.625 -0.375q-1.265625 -0.375 -2.140625 -1.265625q-0.875 -0.875 -1.171875 -2.171875q-0.296875 -1.28125 -0.296875 -4.0625q0 -3.234375 -0.28125 -4.203125q-0.390625 -1.40625 -1.171875 -2.015625q-0.78125 -0.609375 -2.390625 -0.6875zm27.11914 7.203125l-4.9375 0l0 -18.609375q-2.71875 2.53125 -6.390625 3.734375l0 -4.484375q1.9375 -0.625 4.203125 -2.390625q2.265625 -1.765625 3.109375 -4.125l4.015625 0l0 25.875zm18.66211 -7.203125q-1.28125 0.0625 -1.9375 0.390625q-0.640625 0.3125 -1.109375 1.0625q-0.46875 0.734375 -0.65625 1.859375q-0.140625 0.84375 -0.140625 2.921875q0 3.40625 -0.3125 4.765625q-0.3125 1.359375 -1.140625 2.171875q-0.8125 0.8125 -2.421875 1.296875q-1.0625 0.3125 -3.375 0.3125l-0.921875 0l0 -4.21875q1.875 0 2.453125 -0.234375q0.578125 -0.234375 0.84375 -0.6875q0.28125 -0.453125 0.28125 -1.53125q0.015625 -1.0625 0.15625 -4.09375q0.09375 -1.828125 0.46875 -2.921875q0.390625 -1.09375 1.03125 -1.859375q0.65625 -0.765625 1.65625 -1.34375q-1.3125 -0.84375 -1.90625 -1.65625q-0.828125 -1.15625 -1.125 -2.953125q-0.1875 -1.234375 -0.28125 -5.421875q-0.015625 -1.3125 -0.234375 -1.75q-0.21875 -0.4375 -0.796875 -0.671875q-0.5625 -0.25 -2.546875 -0.25l0 -4.1875l0.921875 0q2.375 0 3.640625 0.375q1.265625 0.359375 2.125 1.25q0.859375 0.875 1.171875 2.171875q0.3125 1.296875 0.3125 4.078125q0 3.203125 0.265625 4.1875q0.375 1.40625 1.171875 2.015625q0.796875 0.609375 2.40625 0.703125l0 4.21875z" fill-rule="nonzero"/><path fill="#b4a7d6" d="m288.0223 360.0l0 0c0 -38.659943 31.340057 -70.0 70.0 -70.0l0 0c18.565155 0 36.369934 7.3749695 49.497467 20.502533c13.127563 13.127533 20.502533 30.932312 20.502533 49.497467l0 0c0 38.659943 -31.340057 70.0 -70.0 70.0l0 0c-38.659943 0 -70.0 -31.340057 -70.0 -70.0z" fill-rule="evenodd"/><path stroke="#351c75" stroke-width="3.0" stroke-linejoin="round" stroke-linecap="butt" stroke-dasharray="24.0,9.0" d="m288.0223 360.0l0 0c0 -38.659943 31.340057 -70.0 70.0 -70.0l0 0c18.565155 0 36.369934 7.3749695 49.497467 20.502533c13.127563 13.127533 20.502533 30.932312 20.502533 49.497467l0 0c0 38.659943 -31.340057 70.0 -70.0 70.0l0 0c-38.659943 0 -70.0 -31.340057 -70.0 -70.0z" fill-rule="evenodd"/><path fill="#000000" d="m335.0643 365.85687l0 -4.21875q1.28125 -0.078125 1.921875 -0.390625q0.65625 -0.3125 1.125 -1.0625q0.484375 -0.75 0.65625 -1.875q0.140625 -0.84375 0.140625 -2.9375q0 -3.40625 0.3125 -4.75q0.3125 -1.34375 1.140625 -2.15625q0.828125 -0.828125 2.40625 -1.296875q1.078125 -0.3125 3.375 -0.3125l0.9375 0l0 4.1875q-1.953125 0 -2.515625 0.234375q-0.546875 0.21875 -0.8125 0.671875q-0.25 0.4375 -0.25 1.53125q0 1.109375 -0.171875 4.203125q-0.078125 1.734375 -0.453125 2.8125q-0.359375 1.078125 -0.9375 1.78125q-0.578125 0.703125 -1.75 1.46875q1.03125 0.59375 1.6875 1.390625q0.671875 0.796875 1.015625 1.953125q0.359375 1.140625 0.46875 3.046875q0.109375 2.921875 0.109375 3.734375q0 1.15625 0.28125 1.609375q0.28125 0.46875 0.859375 0.703125q0.578125 0.234375 2.46875 0.234375l0 4.21875l-0.9375 0q-2.359375 0 -3.625 -0.375q-1.265625 -0.375 -2.140625 -1.265625q-0.875 -0.875 -1.171875 -2.171875q-0.296875 -1.28125 -0.296875 -4.0625q0 -3.234375 -0.28125 -4.203125q-0.390625 -1.40625 -1.171875 -2.015625q-0.78125 -0.609375 -2.390625 -0.6875zm31.166016 2.609375l0 4.59375l-17.328125 0q0.28125 -2.609375 1.6875 -4.9375q1.40625 -2.328125 5.5625 -6.171875q3.34375 -3.109375 4.09375 -4.21875q1.015625 -1.53125 1.015625 -3.03125q0 -1.640625 -0.890625 -2.53125q-0.875 -0.890625 -2.4375 -0.890625q-1.546875 0 -2.46875 0.9375q-0.90625 0.921875 -1.046875 3.09375l-4.921875 -0.5q0.4375 -4.078125 2.75 -5.84375q2.328125 -1.78125 5.796875 -1.78125q3.828125 0 6.0 2.0625q2.1875 2.046875 2.1875 5.109375q0 1.734375 -0.625 3.3125q-0.625 1.578125 -1.984375 3.296875q-0.890625 1.140625 -3.234375 3.296875q-2.34375 2.140625 -2.96875 2.84375q-0.609375 0.703125 -1.0 1.359375l9.8125 0zm14.615234 -2.609375q-1.28125 0.0625 -1.9375 0.390625q-0.640625 0.3125 -1.109375 1.0625q-0.46875 0.734375 -0.65625 1.859375q-0.140625 0.84375 -0.140625 2.921875q0 3.40625 -0.3125 4.765625q-0.3125 1.359375 -1.140625 2.171875q-0.8125 0.8125 -2.421875 1.296875q-1.0625 0.3125 -3.375 0.3125l-0.921875 0l0 -4.21875q1.875 0 2.453125 -0.234375q0.578125 -0.234375 0.84375 -0.6875q0.28125 -0.453125 0.28125 -1.53125q0.015625 -1.0625 0.15625 -4.09375q0.09375 -1.828125 0.46875 -2.921875q0.390625 -1.09375 1.03125 -1.859375q0.65625 -0.765625 1.65625 -1.34375q-1.3125 -0.84375 -1.90625 -1.65625q-0.828125 -1.15625 -1.125 -2.953125q-0.1875 -1.234375 -0.28125 -5.421875q-0.015625 -1.3125 -0.234375 -1.75q-0.21875 -0.4375 -0.796875 -0.671875q-0.5625 -0.25 -2.546875 -0.25l0 -4.1875l0.921875 0q2.375 0 3.640625 0.375q1.265625 0.359375 2.125 1.25q0.859375 0.875 1.171875 2.171875q0.3125 1.296875 0.3125 4.078125q0 3.203125 0.265625 4.1875q0.375 1.40625 1.171875 2.015625q0.796875 0.609375 2.40625 0.703125l0 4.21875z" fill-rule="nonzero"/><path fill="#000000" fill-opacity="0.0" d="m288.021 143.89502l-76.85039 58.614166" fill-rule="evenodd"/><path stroke="#351c75" stroke-width="3.0" stroke-linejoin="round" stroke-linecap="butt" d="m273.70874 154.81104l-62.53813 47.69815" fill-rule="evenodd"/><path stroke="#351c75" stroke-width="3.0" stroke-linecap="butt" d="m276.7138 158.75104l7.8200073 -12.196335l-13.830109 4.31633z" fill-rule="evenodd"/><path fill="#000000" fill-opacity="0.0" d="m288.0223 360.0l-76.85039 -58.48819" fill-rule="evenodd"/><path stroke="#351c75" stroke-width="3.0" stroke-linejoin="round" stroke-linecap="butt" d="m273.69873 349.09885l-62.52681 -47.587036" fill-rule="evenodd"/><path stroke="#351c75" stroke-width="3.0" stroke-linecap="butt" d="m270.69778 353.04193l13.834595 4.302002l-7.832672 -12.188232z" fill-rule="evenodd"/><path fill="#000000" fill-opacity="0.0" d="m504.86472 301.51715l-76.85037 58.48819" fill-rule="evenodd"/><path stroke="#351c75" stroke-width="3.0" stroke-linejoin="round" stroke-linecap="butt" d="m490.54117 312.41833l-62.526825 47.587006" fill-rule="evenodd"/><path stroke="#351c75" stroke-width="3.0" stroke-linecap="butt" d="m493.54214 316.36145l7.832672 -12.188202l-13.834595 4.3019714z" fill-rule="evenodd"/><path fill="#000000" fill-opacity="0.0" d="m504.86472 202.52222l-76.85037 -58.61418" fill-rule="evenodd"/><path stroke="#351c75" stroke-width="3.0" stroke-linejoin="round" stroke-linecap="butt" d="m490.5525 191.60617l-62.538147 -47.698135" fill-rule="evenodd"/><path stroke="#351c75" stroke-width="3.0" stroke-linecap="butt" d="m487.54745 195.54619l13.830109 4.31633l-7.8200073 -12.196335z" fill-rule="evenodd"/><path fill="#000000" fill-opacity="0.0" d="m203.17323 110.902885l43.08661 0l0 66.26772l-43.08661 0z" fill-rule="evenodd"/><path fill="#434343" d="m229.07948 133.77289q-3.078125 0 -4.71875 1.640625q-1.78125 1.78125 -1.78125 4.25q0 2.625 1.78125 4.421875q1.640625 1.640625 4.71875 1.640625l16.4375 0l0 4.046875l-16.4375 0q-5.09375 0 -7.96875 -2.890625q-2.890625 -2.890625 -2.890625 -7.21875q0 -4.171875 2.890625 -7.0625q2.875 -2.890625 7.96875 -2.890625l16.4375 0l0 4.0625l-16.4375 0zm-10.5625 17.6875l27.0 0l0 4.046875l-27.0 0l0 -4.046875z" fill-rule="nonzero"/><path fill="#000000" fill-opacity="0.0" d="m484.3622 252.01968l-252.69292 0" fill-rule="evenodd"/><path stroke="#351c75" stroke-width="3.0" stroke-linejoin="round" stroke-linecap="butt" stroke-dasharray="12.0,9.0" d="m466.3622 252.01968l-234.69292 0" fill-rule="evenodd"/><path stroke="#351c75" stroke-width="3.0" stroke-linecap="butt" d="m466.3622 256.97488l13.614288 -4.9552l-13.614288 -4.9552z" fill-rule="evenodd"/><path fill="#000000" fill-opacity="0.0" d="m40.010464 -14.887139l783.77954 0l0 54.929134l-783.77954 0z" fill-rule="evenodd"/><path fill="#000000" d="m234.73701 14.913486l2.78125 0.703125q-0.875 3.421876 -3.140625 5.218751q-2.265625 1.796875 -5.546875 1.796875q-3.390625 0 -5.515625 -1.375q-2.125 -1.390625 -3.25 -4.0q-1.109375 -2.625001 -1.109375 -5.640626q0 -3.28125 1.25 -5.71875q1.265625 -2.4374998 3.578125 -3.7031248q2.3125 -1.28125 5.09375 -1.28125q3.140625 0 5.28125 1.609375q2.15625 1.6093748 3.0 4.515625l-2.734375 0.640625q-0.71875 -2.296875 -2.109375 -3.328125q-1.390625 -1.0468748 -3.5 -1.0468748q-2.421875 0 -4.046875 1.1562498q-1.625 1.15625 -2.28125 3.109375q-0.65625 1.953125 -0.65625 4.03125q0 2.6875 0.78125 4.687501q0.78125 1.984375 2.421875 2.984375q1.640625 0.984375 3.5625 0.984375q2.34375 0 3.953125 -1.34375q1.625 -1.359375 2.1875 -4.000001zm15.80484 5.484376q-1.4375 1.21875 -2.765625 1.71875q-1.3125 0.5 -2.828125 0.5q-2.515625 0 -3.859375 -1.21875q-1.34375 -1.234375 -1.34375 -3.140625q0 -1.109375 0.5 -2.03125q0.515625 -0.92187595 1.328125 -1.484376q0.828125 -0.5625 1.859375 -0.84375q0.765625 -0.203125 2.296875 -0.390625q3.125 -0.375 4.59375 -0.890625q0.015625 -0.53125 0.015625 -0.671875q0 -1.578125 -0.734375 -2.21875q-0.984375 -0.875 -2.9375 -0.875q-1.8125 0 -2.6875 0.640625q-0.859375 0.640625 -1.265625 2.25l-2.53125 -0.34375q0.34375 -1.609375 1.125 -2.609375q0.796875 -1.0 2.28125 -1.53125q1.5 -0.53125 3.453125 -0.53125q1.953125 0 3.171875 0.453125q1.21875 0.453125 1.78125 1.15625q0.578125 0.6875 0.8125 1.75q0.125 0.65625 0.125 2.375l0 3.4375q0 3.593751 0.15625 4.546876q0.171875 0.953125 0.65625 1.828125l-2.6875 0q-0.40625 -0.796875 -0.515625 -1.875zm-0.21875 -5.750001q-1.40625 0.5625 -4.203125 0.96875q-1.59375 0.21875 -2.25 0.51562595q-0.65625 0.28125 -1.015625 0.84375q-0.359375 0.546875 -0.359375 1.21875q0 1.03125 0.78125 1.71875q0.78125 0.6875 2.28125 0.6875q1.484375 0 2.640625 -0.65625q1.171875 -0.65625 1.71875 -1.78125q0.40625 -0.875 0.40625 -2.578126l0 -0.9375zm12.232773 5.312501l0.375 2.28125q-1.09375 0.234375 -1.953125 0.234375q-1.40625 0 -2.1875 -0.4375q-0.765625 -0.453125 -1.078125 -1.171875q-0.3125 -0.734375 -0.3125 -3.046875l0 -8.750001l-1.8906097 0l0 -2.0l1.8906097 0l0 -3.7656248l2.5625 -1.546875l0 5.3125l2.59375 0l0 2.0l-2.59375 0l0 8.890626q0 1.109375 0.125 1.421875q0.140625 0.3125 0.453125 0.5q0.3125 0.1875 0.890625 0.1875q0.421875 0 1.125 -0.109375zm12.929565 -2.578125l2.65625 0.328125q-0.625 2.328125 -2.328125 3.625q-1.703125 1.28125 -4.359375 1.28125q-3.328125 0 -5.28125 -2.046875q-1.953125 -2.0625 -1.953125 -5.765626q0 -3.84375 1.96875 -5.953125q1.984375 -2.125 5.125 -2.125q3.0625 0 4.984375 2.078125q1.9375 2.0625 1.9375 5.84375q0 0.21875 -0.015625 0.671875l-11.34375 0q0.140625 2.515626 1.421875 3.843751q1.28125 1.328125 3.171875 1.328125q1.421875 0 2.421875 -0.734375q1.0 -0.75 1.59375 -2.375zm-8.46875 -4.171876l8.5 0q-0.171875 -1.921875 -0.96875 -2.875q-1.234375 -1.5 -3.203125 -1.5q-1.765625 0 -2.984375 1.1875q-1.203125 1.1875 -1.34375 3.1875zm13.889038 10.328126l2.515625 0.359375q0.15625 1.171875 0.875 1.703125q0.953125 0.703125 2.609375 0.703125q1.796875 0 2.765625 -0.71875q0.984375 -0.703125 1.328125 -2.0q0.203125 -0.78125 0.1875 -3.296875q-1.703125 1.984375 -4.21875 1.984375q-3.140625 0 -4.859375 -2.265625q-1.71875 -2.265625 -1.71875 -5.421876q0 -2.171875 0.78125 -4.015625q0.796875 -1.84375 2.296875 -2.84375q1.5 -1.0 3.515625 -1.0q2.6875 0 4.4375 2.171875l0 -1.828125l2.375 0l0 13.140626q0 3.546875 -0.71875 5.03125q-0.71875 1.484375 -2.296875 2.34375q-1.5625 0.859375 -3.859375 0.859375q-2.71875 0 -4.390625 -1.234375q-1.671875 -1.21875 -1.625 -3.671875zm2.140625 -9.140626q0 2.984376 1.1875 4.359376q1.1875 1.375 2.984375 1.375q1.765625 0 2.96875 -1.359375q1.203125 -1.375 1.203125 -4.296876q0 -2.78125 -1.234375 -4.203125q-1.234375 -1.421875 -2.984375 -1.421875q-1.71875 0 -2.921875 1.40625q-1.203125 1.390625 -1.203125 4.140625zm13.685913 0.265625q0 -4.21875 2.359375 -6.25q1.953125 -1.6875 4.78125 -1.6875q3.125 0 5.109375 2.0625q2.0 2.046875 2.0 5.671875q0 2.921876 -0.875 4.609376q-0.875 1.6875 -2.5625 2.625q-1.6875 0.921875 -3.671875 0.921875q-3.203125 0 -5.171875 -2.046875q-1.96875 -2.046875 -1.96875 -5.906251zm2.65625 0q0 2.921876 1.265625 4.375001q1.28125 1.453125 3.21875 1.453125q1.921875 0 3.1875 -1.453125q1.28125 -1.46875 1.28125 -4.453126q0 -2.828125 -1.28125 -4.28125q-1.28125 -1.453125 -3.1875 -1.453125q-1.9375 0 -3.21875 1.453125q-1.265625 1.4375 -1.265625 4.359375zm14.592163 7.609376l0 -15.203126l2.3125 0l0 2.296875q0.890625 -1.609375 1.640625 -2.125q0.75 -0.515625 1.65625 -0.515625q1.3125 0 2.65625 0.828125l-0.890625 2.390625q-0.953125 -0.5625 -1.890625 -0.5625q-0.84375 0 -1.515625 0.515625q-0.671875 0.5 -0.96875 1.40625q-0.421875 1.375 -0.421875 3.0l0 7.968751l-2.578125 0zm9.6727295 5.859375l-0.28125 -2.421875q0.84375 0.234375 1.46875 0.234375q0.859375 0 1.375 -0.296875q0.515625 -0.28125 0.859375 -0.796875q0.234375 -0.390625 0.78125 -1.921875q0.078125 -0.21875 0.234375 -0.625l-5.78125 -15.234376l2.78125 0l3.171875 8.796875q0.609375 1.687501 1.09375 3.531251q0.453125 -1.78125 1.0625 -3.468751l3.25 -8.859375l2.578125 0l-5.78125 15.453126q-0.9375 2.515625 -1.453125 3.453125q-0.6875 1.28125 -1.578125 1.875q-0.875 0.59375 -2.109375 0.59375q-0.75 0 -1.671875 -0.3125zm21.968628 -13.468751q0 -4.21875 2.359375 -6.25q1.953125 -1.6875 4.78125 -1.6875q3.125 0 5.109375 2.0625q2.0 2.046875 2.0 5.671875q0 2.921876 -0.875 4.609376q-0.875 1.6875 -2.5625 2.625q-1.6875 0.921875 -3.671875 0.921875q-3.203125 0 -5.171875 -2.046875q-1.96875 -2.046875 -1.96875 -5.906251zm2.65625 0q0 2.921876 1.265625 4.375001q1.28125 1.453125 3.21875 1.453125q1.921875 0 3.1875 -1.453125q1.28125 -1.46875 1.28125 -4.453126q0 -2.828125 -1.28125 -4.28125q-1.28125 -1.453125 -3.1875 -1.453125q-1.9375 0 -3.21875 1.453125q-1.265625 1.4375 -1.265625 4.359375zm15.232788 7.609376l0 -13.203126l-2.28125 0l0 -2.0l2.28125 0l0 -1.625q0 -1.5312498 0.28125 -2.2812498q0.359375 -1.0 1.296875 -1.625q0.9375 -0.625 2.640625 -0.625q1.078125 0 2.40625 0.265625l-0.390625 2.25q-0.8125 -0.140625 -1.515625 -0.140625q-1.171875 0 -1.671875 0.5q-0.484375 0.49999976 -0.484375 1.8749998l0 1.40625l2.96875 0l0 2.0l-2.96875 0l0 13.203126l-2.5625 0zm21.312225 -2.3125l0.375 2.28125q-1.09375 0.234375 -1.953125 0.234375q-1.40625 0 -2.1875 -0.4375q-0.765625 -0.453125 -1.078125 -1.171875q-0.3125 -0.734375 -0.3125 -3.046875l0 -8.750001l-1.890625 0l0 -2.0l1.890625 0l0 -3.7656248l2.5625 -1.546875l0 5.3125l2.59375 0l0 2.0l-2.59375 0l0 8.890626q0 1.109375 0.125 1.421875q0.140625 0.3125 0.453125 0.5q0.3125 0.1875 0.890625 0.1875q0.421875 0 1.125 -0.109375zm2.523285 2.3125l0 -21.0l2.578125 0l0 7.53125q1.796875 -2.078125 4.546875 -2.078125q1.6875 0 2.9375 0.671875q1.25 0.65625 1.78125 1.828125q0.546875 1.171875 0.546875 3.40625l0 9.640626l-2.578125 0l0 -9.640626q0 -1.9375 -0.84375 -2.8125q-0.84375 -0.875 -2.375 -0.875q-1.140625 0 -2.15625 0.59375q-1.0 0.59375 -1.4375 1.609375q-0.421875 1.015625 -0.421875 2.8125l0 8.312501l-2.578125 0zm26.717163 -4.890625l2.65625 0.328125q-0.625 2.328125 -2.328125 3.625q-1.703125 1.28125 -4.359375 1.28125q-3.328125 0 -5.28125 -2.046875q-1.953125 -2.0625 -1.953125 -5.765626q0 -3.84375 1.96875 -5.953125q1.984375 -2.125 5.125 -2.125q3.0625 0 4.984375 2.078125q1.9375 2.0625 1.9375 5.84375q0 0.21875 -0.015625 0.671875l-11.34375 0q0.140625 2.515626 1.421875 3.843751q1.28125 1.328125 3.171875 1.328125q1.421875 0 2.421875 -0.734375q1.0 -0.75 1.59375 -2.375zm-8.46875 -4.171876l8.5 0q-0.171875 -1.921875 -0.96875 -2.875q-1.234375 -1.5 -3.203125 -1.5q-1.765625 0 -2.984375 1.1875q-1.203125 1.1875 -1.34375 3.1875zm22.521729 14.890626l0 -21.03125l2.34375 0l0 1.96875q0.828125 -1.15625 1.875 -1.734375q1.046875 -0.578125 2.53125 -0.578125q1.953125 0 3.4375 1.0q1.5 1.0 2.25 2.828125q0.765625 1.828125 0.765625 4.0q0 2.328126 -0.84375 4.203126q-0.828125 1.875 -2.4375 2.875q-1.59375 0.984375 -3.359375 0.984375q-1.28125 0 -2.3125 -0.546875q-1.015625 -0.546875 -1.671875 -1.375l0 7.40625l-2.578125 0zm2.328125 -13.343751q0 2.937501 1.1875 4.343751q1.1875 1.390625 2.875 1.390625q1.71875 0 2.9375 -1.453125q1.234375 -1.453125 1.234375 -4.500001q0 -2.90625 -1.203125 -4.34375q-1.1875 -1.453125 -2.84375 -1.453125q-1.65625 0 -2.921875 1.546875q-1.265625 1.53125 -1.265625 4.46875zm13.014038 -0.09375q0 -4.21875 2.359375 -6.25q1.953125 -1.6875 4.78125 -1.6875q3.125 0 5.109375 2.0625q2.0 2.046875 2.0 5.671875q0 2.921876 -0.875 4.609376q-0.875 1.6875 -2.5625 2.625q-1.6875 0.921875 -3.671875 0.921875q-3.203125 0 -5.171875 -2.046875q-1.96875 -2.046875 -1.96875 -5.906251zm2.65625 0q0 2.921876 1.265625 4.375001q1.28125 1.453125 3.21875 1.453125q1.921875 0 3.1875 -1.453125q1.28125 -1.46875 1.28125 -4.453126q0 -2.828125 -1.28125 -4.28125q-1.28125 -1.453125 -3.1875 -1.453125q-1.9375 0 -3.21875 1.453125q-1.265625 1.4375 -1.265625 4.359375zm17.420288 7.609376l-4.65625 -15.203126l2.671875 0l2.421875 8.765625l0.90625 3.265626q0.046875 -0.234375 0.78125 -3.125001l2.421875 -8.90625l2.640625 0l2.28125 8.8125l0.765625 2.906251l0.875 -2.937501l2.59375 -8.78125l2.515625 0l-4.75 15.203126l-2.6875 0l-2.421875 -9.109376l-0.578125 -2.59375l-3.078125 11.703126l-2.703125 0zm28.789246 -4.890625l2.65625 0.328125q-0.625 2.328125 -2.328125 3.625q-1.703125 1.28125 -4.359375 1.28125q-3.328125 0 -5.28125 -2.046875q-1.953125 -2.0625 -1.953125 -5.765626q0 -3.84375 1.96875 -5.953125q1.984375 -2.125 5.125 -2.125q3.0625 0 4.984375 2.078125q1.9375 2.0625 1.9375 5.84375q0 0.21875 -0.015625 0.671875l-11.34375 0q0.140625 2.515626 1.421875 3.843751q1.28125 1.328125 3.171875 1.328125q1.421875 0 2.421875 -0.734375q1.0 -0.75 1.59375 -2.375zm-8.46875 -4.171876l8.5 0q-0.171875 -1.921875 -0.96875 -2.875q-1.234375 -1.5 -3.203125 -1.5q-1.765625 0 -2.984375 1.1875q-1.203125 1.1875 -1.34375 3.1875zm14.342163 9.062501l0 -15.203126l2.3125 0l0 2.296875q0.890625 -1.609375 1.640625 -2.125q0.75 -0.515625 1.65625 -0.515625q1.3125 0 2.65625 0.828125l-0.890625 2.390625q-0.953125 -0.5625 -1.890625 -0.5625q-0.84375 0 -1.515625 0.515625q-0.671875 0.5 -0.96875 1.40625q-0.421875 1.375 -0.421875 3.0l0 7.968751l-2.578125 0zm8.7664795 -4.546875l2.546875 -0.390625q0.21875 1.53125 1.1875 2.34375q0.984375 0.8125 2.7499695 0.8125q1.78125 0 2.640625 -0.71875q0.859375 -0.71875 0.859375 -1.703125q0 -0.859375 -0.765625 -1.375q-0.53125 -0.34375 -2.640625 -0.85937595q-2.8280945 -0.71875 -3.9218445 -1.234375q-1.09375 -0.53125 -1.671875 -1.453125q-0.5625 -0.921875 -0.5625 -2.046875q0 -1.015625 0.46875 -1.875q0.46875 -0.875 1.265625 -1.453125q0.609375 -0.4375 1.640625 -0.734375q1.046875 -0.3125 2.2343445 -0.3125q1.78125 0 3.125 0.515625q1.359375 0.515625 2.0 1.390625q0.65625 0.875 0.890625 2.359375l-2.515625 0.34375q-0.171875 -1.171875 -1.0 -1.828125q-0.8125 -0.671875 -2.3125 -0.671875q-1.7812195 0 -2.5468445 0.59375q-0.75 0.578125 -0.75 1.375q0 0.5 0.3125 0.90625q0.3125 0.40625 0.984375 0.6875q0.390625 0.140625 2.2812195 0.65625q2.734375 0.734375 3.8125 1.203125q1.078125 0.453125 1.6875 1.34375q0.625 0.89062595 0.625 2.203126q0 1.296875 -0.75 2.4375q-0.75 1.125 -2.171875 1.75q-1.421875 0.625 -3.203125 0.625q-2.9687195 0 -4.5312195 -1.234375q-1.546875 -1.234375 -1.96875 -3.65625zm26.101532 -0.34375l2.65625 0.328125q-0.625 2.328125 -2.328125 3.625q-1.703125 1.28125 -4.359375 1.28125q-3.328125 0 -5.28125 -2.046875q-1.953125 -2.0625 -1.953125 -5.765626q0 -3.84375 1.96875 -5.953125q1.984375 -2.125 5.125 -2.125q3.0625 0 4.984375 2.078125q1.9375 2.0625 1.9375 5.84375q0 0.21875 -0.015625 0.671875l-11.34375 0q0.140625 2.515626 1.421875 3.843751q1.28125 1.328125 3.171875 1.328125q1.421875 0 2.421875 -0.734375q1.0 -0.75 1.59375 -2.375zm-8.46875 -4.171876l8.5 0q-0.171875 -1.921875 -0.96875 -2.875q-1.234375 -1.5 -3.203125 -1.5q-1.765625 0 -2.984375 1.1875q-1.203125 1.1875 -1.34375 3.1875zm19.998413 6.750001l0.375 2.28125q-1.09375 0.234375 -1.953125 0.234375q-1.40625 0 -2.1875 -0.4375q-0.765625 -0.453125 -1.078125 -1.171875q-0.3125 -0.734375 -0.3125 -3.046875l0 -8.750001l-1.890625 0l0 -2.0l1.890625 0l0 -3.7656248l2.5625 -1.546875l0 5.3125l2.59375 0l0 2.0l-2.59375 0l0 8.890626q0 1.109375 0.125 1.421875q0.140625 0.3125 0.453125 0.5q0.3125 0.1875 0.890625 0.1875q0.421875 0 1.125 -0.109375zm9.702881 -5.296876q0 -4.21875 2.359375 -6.25q1.953125 -1.6875 4.78125 -1.6875q3.125 0 5.109375 2.0625q2.0 2.046875 2.0 5.671875q0 2.921876 -0.875 4.609376q-0.875 1.6875 -2.5625 2.625q-1.6875 0.921875 -3.671875 0.921875q-3.203125 0 -5.171875 -2.046875q-1.96875 -2.046875 -1.96875 -5.906251zm2.65625 0q0 2.921876 1.265625 4.375001q1.28125 1.453125 3.21875 1.453125q1.921875 0 3.1875 -1.453125q1.28125 -1.46875 1.28125 -4.453126q0 -2.828125 -1.28125 -4.28125q-1.28125 -1.453125 -3.1875 -1.453125q-1.9375 0 -3.21875 1.453125q-1.265625 1.4375 -1.265625 4.359375zm15.232788 7.609376l0 -13.203126l-2.28125 0l0 -2.0l2.28125 0l0 -1.625q0 -1.5312498 0.28125 -2.2812498q0.359375 -1.0 1.296875 -1.625q0.9375 -0.625 2.640625 -0.625q1.078125 0 2.40625 0.265625l-0.390625 2.25q-0.8125 -0.140625 -1.515625 -0.140625q-1.171875 0 -1.671875 0.5q-0.484375 0.49999976 -0.484375 1.8749998l0 1.40625l2.96875 0l0 2.0l-2.96875 0l0 13.203126l-2.5625 0zm14.562256 -8.765626q1.109375 -0.03125 1.796875 -0.59375q0.703125 -0.5625 0.921875 -1.546875q0.234375 -1.0 0.25 -3.390625q0.015625 -2.390625 0.078125 -3.140625q0.140625 -1.2031248 0.484375 -1.9374998q0.359375 -0.734375 0.875 -1.171875q0.515625 -0.4375 1.3125 -0.65625q0.546875 -0.15625 1.78125 -0.15625l0.796875 0l0 2.25l-0.453125 0q-1.484375 0 -1.96875 0.546875q-0.484375 0.53124976 -0.484375 2.3906248q0 3.75 -0.15625 4.75q-0.265625 1.53125 -0.890625 2.359375q-0.609375 0.828125 -1.953125 1.46875q1.578125 0.65625 2.28125 2.015626q0.71875 1.359375 0.71875 4.4375q0 2.78125 0.0625 3.3125q0.109375 0.984375 0.5625 1.359375q0.46875 0.390625 1.828125 0.390625l0.453125 0l0 2.25l-0.796875 0q-1.40625 0 -2.046875 -0.234375q-0.90625 -0.328125 -1.515625 -1.0625q-0.59375 -0.734375 -0.78125 -1.875q-0.171875 -1.125 -0.1875 -3.703125q-0.015625 -2.578125 -0.25 -3.5625q-0.21875 -0.984375 -0.921875 -1.5625q-0.6875 -0.57812595 -1.796875 -0.60937595l0 -2.328125zm19.90448 8.765626l-2.578125 0l0 -16.421875q-0.921875 0.890625 -2.4375 1.78125q-1.515625 0.875 -2.71875 1.328125l0 -2.5q2.171875 -1.015625 3.78125 -2.453125q1.625 -1.4531248 2.296875 -2.8124998l1.65625 0l0 21.078125zm7.998413 0l0 -2.9375l2.9375 0l0 2.9375q0 1.625 -0.578125 2.609375q-0.578125 1.0 -1.8125 1.546875l-0.71875 -1.109375q0.8125 -0.359375 1.203125 -1.0625q0.390625 -0.6875 0.421875 -1.984375l-1.453125 0zm20.304565 -2.484375l0 2.484375l-13.875 0q-0.03125 -0.9375 0.296875 -1.796875q0.53125 -1.40625 1.6875 -2.78125q1.171875 -1.375 3.390625 -3.187501q3.421875 -2.796875 4.625 -4.4375q1.203125 -1.640625 1.203125 -3.109375q0 -1.53125 -1.109375 -2.578125q-1.09375 -1.0624998 -2.84375 -1.0624998q-1.875 0 -3.0 1.1249998q-1.109375 1.109375 -1.109375 3.09375l-2.65625 -0.265625q0.265625 -2.96875 2.046875 -4.515625q1.78125 -1.5625 4.765625 -1.5625q3.03125 0 4.78125 1.671875q1.765625 1.6718748 1.765625 4.15625q0 1.265625 -0.515625 2.484375q-0.515625 1.203125 -1.71875 2.5625q-1.1875 1.34375 -3.96875 3.6875q-2.3125 1.953126 -2.984375 2.656251q-0.65625 0.6875 -1.078125 1.375l10.296875 0zm10.514038 -6.281251l0 2.328125q-1.109375 0.03125 -1.8125 0.60937595q-0.6875 0.578125 -0.921875 1.5625q-0.21875 0.96875 -0.234375 3.359375q-0.015625 2.390625 -0.078125 3.15625q-0.140625 1.21875 -0.5 1.9375q-0.34375 0.71875 -0.859375 1.15625q-0.515625 0.4375 -1.3125 0.671875q-0.546875 0.15625 -1.78125 0.15625l-0.796875 0l0 -2.25l0.4375 0q1.5 0 1.984375 -0.546875q0.484375 -0.53125 0.484375 -2.40625q0 -3.578125 0.125 -4.53125q0.234375 -1.59375 0.921875 -2.546875q0.6875 -0.95312595 1.953125 -1.484376q-1.65625 -0.78125 -2.328125 -2.078125q-0.671875 -1.296875 -0.671875 -4.375q0 -2.796875 -0.0625 -3.34375q-0.109375 -0.95312476 -0.578125 -1.3281248q-0.453125 -0.390625 -1.828125 -0.390625l-0.4375 0l0 -2.25l0.796875 0q1.40625 0 2.046875 0.234375q0.90625 0.3125 1.5 1.0625q0.609375 0.75 0.78125 1.8749998q0.1875 1.125 0.203125 3.703125q0.015625 2.578125 0.234375 3.5625q0.234375 0.984375 0.921875 1.5625q0.703125 0.5625 1.8125 0.59375z" fill-rule="nonzero"/></g></svg>