<svg version="1.1" viewBox="0.0 0.0 225.25721784776903 243.9475065616798" fill="none" stroke="none" stroke-linecap="square" stroke-miterlimit="10" xmlns:xlink="http://www.w3.org/1999/xlink" xmlns="http://www.w3.org/2000/svg"><clipPath id="p.0"><path d="m0 0l225.25722 0l0 243.94751l-225.25722 0l0 -243.94751z" clip-rule="nonzero"/></clipPath><g clip-path="url(#p.0)"><path fill="#000000" fill-opacity="0.0" d="m0 0l225.25722 0l0 243.94751l-225.25722 0z" fill-rule="evenodd"/><path fill="#ffffff" d="m16.906824 133.92662l0 0c0 -3.1659088 2.5664825 -5.7323914 5.732399 -5.7323914l40.629692 0c1.5203247 0 2.978386 0.6039429 4.053421 1.6789703c1.0750275 1.0750427 1.678978 2.5330963 1.678978 4.053421l0 22.92891c0 3.1659088 -2.5664825 5.7323914 -5.732399 5.7323914l-40.629692 0c-3.1659164 0 -5.732399 -2.5664825 -5.732399 -5.7323914z" fill-rule="evenodd"/><path stroke="#000000" stroke-width="4.0" stroke-linejoin="round" stroke-linecap="butt" d="m16.906824 133.92662l0 0c0 -3.1659088 2.5664825 -5.7323914 5.732399 -5.7323914l40.629692 0c1.5203247 0 2.978386 0.6039429 4.053421 1.6789703c1.0750275 1.0750427 1.678978 2.5330963 1.678978 4.053421l0 22.92891c0 3.1659088 -2.5664825 5.7323914 -5.732399 5.7323914l-40.629692 0c-3.1659164 0 -5.732399 -2.5664825 -5.732399 -5.7323914z" fill-rule="evenodd"/><path fill="#cccccc" d="m87.279526 133.92662l0 0c0 -3.1659088 2.5664825 -5.7323914 5.732399 -5.7323914l40.629692 0c1.5203247 0 2.9783783 0.6039429 4.053421 1.6789703c1.0750275 1.0750427 1.6789703 2.5330963 1.6789703 4.053421l0 22.92891c0 3.1659088 -2.5664673 5.7323914 -5.7323914 5.7323914l-40.629692 0c-3.1659164 0 -5.732399 -2.5664825 -5.732399 -5.7323914z" fill-rule="evenodd"/><path stroke="#000000" stroke-width="4.0" stroke-linejoin="round" stroke-linecap="butt" d="m87.279526 133.92662l0 0c0 -3.1659088 2.5664825 -5.7323914 5.732399 -5.7323914l40.629692 0c1.5203247 0 2.9783783 0.6039429 4.053421 1.6789703c1.0750275 1.0750427 1.6789703 2.5330963 1.6789703 4.053421l0 22.92891c0 3.1659088 -2.5664673 5.7323914 -5.7323914 5.7323914l-40.629692 0c-3.1659164 0 -5.732399 -2.5664825 -5.732399 -5.7323914z" fill-rule="evenodd"/><path fill="#000000" d="m108.2952 145.12358l-0.140625 -0.6875q0.46875 -0.375 0.921875 -0.578125q0.453125 -0.21875 1.0625 -0.3125q0.625 -0.09375 1.59375 -0.09375l6.53125 0l0.078125 1.34375l-2.40625 -0.078125l0.140625 4.984375q0.046875 0.9375 0.3125 1.25q0.28125 0.3125 0.828125 0.3125q0.1875 0 0.40625 -0.046875q0.234375 -0.046875 0.421875 -0.125l0.140625 0.46875q-0.328125 0.5 -0.71875 0.75q-0.375 0.25 -0.9375 0.25q-0.96875 0 -1.4375 -0.5625q-0.453125 -0.578125 -0.453125 -1.734375q0 -1.15625 0.0625 -2.640625q0.078125 -1.484375 0.140625 -2.921875l-3.0 0q-0.015625 1.421875 -0.046875 2.84375q-0.03125 1.40625 -0.125 2.765625q-0.09375 1.203125 -0.578125 1.734375q-0.484375 0.515625 -1.296875 0.515625q-0.5 0 -0.828125 -0.25q-0.3125 -0.265625 -0.3125 -0.6875q0 -0.34375 0.09375 -0.53125q0.109375 -0.203125 0.296875 -0.34375q0.703125 -0.140625 1.640625 -0.234375q0.15625 -1.4375 0.21875 -2.875q0.0625 -1.453125 0.09375 -2.90625l-2.703125 0.390625z" fill-rule="nonzero"/><path fill="#cccccc" d="m87.279526 204.28883l0 0c0 -3.165924 2.5664825 -5.7324066 5.732399 -5.7324066l40.629692 0c1.5203247 0 2.9783783 0.60395813 4.053421 1.6789856c1.0750275 1.0750275 1.6789703 2.5330963 1.6789703 4.053421l0 22.928894c0 3.165924 -2.5664673 5.7324066 -5.7323914 5.7324066l-40.629692 0c-3.1659164 0 -5.732399 -2.5664825 -5.732399 -5.7324066z" fill-rule="evenodd"/><path stroke="#000000" stroke-width="4.0" stroke-linejoin="round" stroke-linecap="butt" d="m87.279526 204.28883l0 0c0 -3.165924 2.5664825 -5.7324066 5.732399 -5.7324066l40.629692 0c1.5203247 0 2.9783783 0.60395813 4.053421 1.6789856c1.0750275 1.0750275 1.6789703 2.5330963 1.6789703 4.053421l0 22.928894c0 3.165924 -2.5664673 5.7324066 -5.7323914 5.7324066l-40.629692 0c-3.1659164 0 -5.732399 -2.5664825 -5.732399 -5.7324066z" fill-rule="evenodd"/><path fill="#000000" d="m108.2952 215.48578l-0.140625 -0.6875q0.46875 -0.375 0.921875 -0.578125q0.453125 -0.21875 1.0625 -0.3125q0.625 -0.09375 1.59375 -0.09375l6.53125 0l0.078125 1.34375l-2.40625 -0.078125l0.140625 4.984375q0.046875 0.9375 0.3125 1.25q0.28125 0.3125 0.828125 0.3125q0.1875 0 0.40625 -0.046875q0.234375 -0.046875 0.421875 -0.125l0.140625 0.46875q-0.328125 0.5 -0.71875 0.75q-0.375 0.25 -0.9375 0.25q-0.96875 0 -1.4375 -0.5625q-0.453125 -0.578125 -0.453125 -1.734375q0 -1.15625 0.0625 -2.640625q0.078125 -1.484375 0.140625 -2.921875l-3.0 0q-0.015625 1.421875 -0.046875 2.84375q-0.03125 1.40625 -0.125 2.765625q-0.09375 1.203125 -0.578125 1.734375q-0.484375 0.515625 -1.296875 0.515625q-0.5 0 -0.828125 -0.25q-0.3125 -0.265625 -0.3125 -0.6875q0 -0.34375 0.09375 -0.53125q0.109375 -0.203125 0.296875 -0.34375q0.703125 -0.140625 1.640625 -0.234375q0.15625 -1.4375 0.21875 -2.875q0.0625 -1.453125 0.09375 -2.90625l-2.703125 0.390625z" fill-rule="nonzero"/><path fill="#ffffff" d="m87.2021 22.838697l0 0c0 -3.1659164 2.5664825 -5.732399 5.732399 -5.732399l40.629692 0c1.5203247 0 2.9783783 0.6039486 4.053421 1.6789818c1.0750275 1.0750332 1.6789703 2.5330906 1.6789703 4.053417l0 22.928904c0 3.1659164 -2.5664825 5.732399 -5.7323914 5.732399l-40.629692 0c-3.1659164 0 -5.732399 -2.5664825 -5.732399 -5.732399z" fill-rule="evenodd"/><path stroke="#000000" stroke-width="4.0" stroke-linejoin="round" stroke-linecap="butt" d="m87.2021 22.838697l0 0c0 -3.1659164 2.5664825 -5.732399 5.732399 -5.732399l40.629692 0c1.5203247 0 2.9783783 0.6039486 4.053421 1.6789818c1.0750275 1.0750332 1.6789703 2.5330906 1.6789703 4.053417l0 22.928904c0 3.1659164 -2.5664825 5.732399 -5.7323914 5.732399l-40.629692 0c-3.1659164 0 -5.732399 -2.5664825 -5.732399 -5.732399z" fill-rule="evenodd"/><path fill="#ffffff" d="m51.86483 74.382l0 0c0 -3.1659164 2.5664825 -5.732399 5.732399 -5.732399l40.629692 0c1.5203247 0 2.978386 0.6039505 4.0534134 1.6789856c1.0750351 1.0750275 1.6789856 2.5330887 1.6789856 4.0534134l0 22.928902c0 3.1659164 -2.5664825 5.732399 -5.732399 5.732399l-40.629692 0c-3.1659164 0 -5.732399 -2.5664825 -5.732399 -5.732399z" fill-rule="evenodd"/><path stroke="#000000" stroke-width="4.0" stroke-linejoin="round" stroke-linecap="butt" d="m51.86483 74.382l0 0c0 -3.1659164 2.5664825 -5.732399 5.732399 -5.732399l40.629692 0c1.5203247 0 2.978386 0.6039505 4.0534134 1.6789856c1.0750351 1.0750275 1.6789856 2.5330887 1.6789856 4.0534134l0 22.928902c0 3.1659164 -2.5664825 5.732399 -5.732399 5.732399l-40.629692 0c-3.1659164 0 -5.732399 -2.5664825 -5.732399 -5.732399z" fill-rule="evenodd"/><path fill="#ffffff" d="m157.49606 133.92662l0 0c0 -3.1659088 2.5664825 -5.7323914 5.7323914 -5.7323914l40.6297 0c1.5203247 0 2.9783783 0.6039429 4.053421 1.6789703c1.0750275 1.0750427 1.6789703 2.5330963 1.6789703 4.053421l0 22.92891c0 3.1659088 -2.5664825 5.7323914 -5.7323914 5.7323914l-40.6297 0c-3.1659088 0 -5.7323914 -2.5664825 -5.7323914 -5.7323914z" fill-rule="evenodd"/><path stroke="#000000" stroke-width="4.0" stroke-linejoin="round" stroke-linecap="butt" d="m157.49606 133.92662l0 0c0 -3.1659088 2.5664825 -5.7323914 5.7323914 -5.7323914l40.6297 0c1.5203247 0 2.9783783 0.6039429 4.053421 1.6789703c1.0750275 1.0750427 1.6789703 2.5330963 1.6789703 4.053421l0 22.92891c0 3.1659088 -2.5664825 5.7323914 -5.7323914 5.7323914l-40.6297 0c-3.1659088 0 -5.7323914 -2.5664825 -5.7323914 -5.7323914z" fill-rule="evenodd"/><path fill="#ffffff" d="m122.69554 74.383316l0 0c0 -3.1659164 2.5664825 -5.732399 5.7323914 -5.732399l40.6297 0c1.5203247 0 2.9783783 0.6039505 4.053406 1.6789856c1.0750427 1.0750275 1.6789856 2.5330887 1.6789856 4.0534134l0 22.928902c0 3.1659164 -2.5664825 5.732399 -5.7323914 5.732399l-40.6297 0c-3.1659088 0 -5.7323914 -2.5664825 -5.7323914 -5.732399z" fill-rule="evenodd"/><path stroke="#000000" stroke-width="4.0" stroke-linejoin="round" stroke-linecap="butt" d="m122.69554 74.383316l0 0c0 -3.1659164 2.5664825 -5.732399 5.7323914 -5.732399l40.6297 0c1.5203247 0 2.9783783 0.6039505 4.053406 1.6789856c1.0750427 1.0750275 1.6789856 2.5330887 1.6789856 4.0534134l0 22.928902c0 3.1659164 -2.5664825 5.732399 -5.7323914 5.732399l-40.6297 0c-3.1659088 0 -5.7323914 -2.5664825 -5.7323914 -5.732399z" fill-rule="evenodd"/><path fill="#000000" fill-opacity="0.0" d="m113.249344 51.5l-35.338585 17.165352" fill-rule="evenodd"/><path stroke="#000000" stroke-width="2.0" stroke-linejoin="round" stroke-linecap="butt" d="m113.249344 51.5l-29.173256 14.170616" fill-rule="evenodd"/><path fill="#000000" stroke="#000000" stroke-width="2.0" stroke-linecap="butt" d="m84.07608 65.67061l1.0404129 -3.0058327l-4.575775 4.7231026l6.5411987 -0.676857z" fill-rule="evenodd"/><path fill="#000000" fill-opacity="0.0" d="m113.249344 51.5l35.496063 17.165352" fill-rule="evenodd"/><path stroke="#000000" stroke-width="2.0" stroke-linejoin="round" stroke-linecap="butt" d="m113.249344 51.5l29.325516 14.181374" fill-rule="evenodd"/><path fill="#000000" stroke="#000000" stroke-width="2.0" stroke-linecap="butt" d="m142.57486 65.68137l-3.004013 1.0456543l6.5423737 0.6654434l-4.584015 -4.715111z" fill-rule="evenodd"/><path fill="#000000" fill-opacity="0.0" d="m77.91207 103.043304l35.40158 25.16536" fill-rule="evenodd"/><path stroke="#000000" stroke-width="2.0" stroke-linejoin="round" stroke-linecap="butt" d="m77.91207 103.043304l29.815056 21.194153" fill-rule="evenodd"/><path fill="#000000" stroke="#000000" stroke-width="2.0" stroke-linecap="butt" d="m107.72713 124.23746l-3.1363297 0.5300598l6.3397903 1.747139l-3.7335205 -5.413521z" fill-rule="evenodd"/><path fill="#000000" fill-opacity="0.0" d="m77.91207 103.043304l-34.96063 25.16536" fill-rule="evenodd"/><path stroke="#000000" stroke-width="2.0" stroke-linejoin="round" stroke-linecap="butt" d="m77.91207 103.043304l-29.397755 21.161095" fill-rule="evenodd"/><path fill="#000000" stroke="#000000" stroke-width="2.0" stroke-linecap="butt" d="m48.514317 124.2044l0.5114479 -3.1394196l-3.7013512 5.43557l6.329315 -1.7847061z" fill-rule="evenodd"/><path fill="#000000" fill-opacity="0.0" d="m148.74278 103.04462l34.803146 25.16536" fill-rule="evenodd"/><path stroke="#000000" stroke-width="2.0" stroke-linejoin="round" stroke-linecap="butt" d="m148.74278 103.04462l29.24887 21.149185" fill-rule="evenodd"/><path fill="#000000" stroke="#000000" stroke-width="2.0" stroke-linecap="butt" d="m177.99165 124.1938l-3.140503 0.5047226l6.32547 1.7982559l-3.6896973 -5.4434814z" fill-rule="evenodd"/><path fill="#cccccc" d="m109.74541 193.45407l0 -18.598434l-3.5826797 0l7.1653595 -7.165344l7.165352 7.165344l-3.5826797 0l0 18.598434z" fill-rule="evenodd"/><path stroke="#000000" stroke-width="4.0" stroke-linejoin="round" stroke-linecap="butt" d="m109.74541 193.45407l0 -18.598434l-3.5826797 0l7.1653595 -7.165344l7.165352 7.165344l-3.5826797 0l0 18.598434z" fill-rule="evenodd"/><path fill="#000000" fill-opacity="0.0" d="m103.95932 85.84646l18.740158 0" fill-rule="evenodd"/><path stroke="#000000" stroke-width="1.0" stroke-linejoin="round" stroke-linecap="butt" stroke-dasharray="4.0,3.0" d="m103.95932 85.84646l15.313072 0" fill-rule="evenodd"/><path fill="#000000" stroke="#000000" stroke-width="1.0" stroke-linecap="butt" d="m119.27239 85.84646l-1.124588 1.1245804l3.0897675 -1.1245804l-3.0897675 -1.124588z" fill-rule="evenodd"/><path fill="#000000" fill-opacity="0.0" d="m69.00131 145.39108l18.267715 0" fill-rule="evenodd"/><path stroke="#000000" stroke-width="1.0" stroke-linejoin="round" stroke-linecap="butt" stroke-dasharray="4.0,3.0" d="m69.00131 145.39108l14.84063 0" fill-rule="evenodd"/><path fill="#000000" stroke="#000000" stroke-width="1.0" stroke-linecap="butt" d="m83.84194 145.39108l-1.1245804 1.1245728l3.0897675 -1.1245728l-3.0897675 -1.124588z" fill-rule="evenodd"/></g></svg>