<svg version="1.1" viewBox="0.0 0.0 708.2047244094488 287.1443569553806" fill="none" stroke="none" stroke-linecap="square" stroke-miterlimit="10" xmlns:xlink="http://www.w3.org/1999/xlink" xmlns="http://www.w3.org/2000/svg"><clipPath id="p.0"><path d="m0 0l708.2047 0l0 287.14435l-708.2047 0l0 -287.14435z" clip-rule="nonzero"/></clipPath><g clip-path="url(#p.0)"><path fill="#000000" fill-opacity="0.0" d="m0 0l708.2047 0l0 287.14435l-708.2047 0z" fill-rule="evenodd"/><path fill="#ffffff" d="m270.88583 176.1576l0 0c0 -3.1659088 2.5664673 -5.7323914 5.7323914 -5.7323914l40.6297 0c1.5203247 0 2.978363 0.6039429 4.053406 1.6789703c1.0750427 1.0750427 1.6789856 2.5330963 1.6789856 4.053421l0 22.92891c0 3.1659088 -2.5664978 5.7323914 -5.7323914 5.7323914l-40.6297 0c-3.165924 0 -5.7323914 -2.5664825 -5.7323914 -5.7323914z" fill-rule="evenodd"/><path stroke="#000000" stroke-width="4.0" stroke-linejoin="round" stroke-linecap="butt" d="m270.88583 176.1576l0 0c0 -3.1659088 2.5664673 -5.7323914 5.7323914 -5.7323914l40.6297 0c1.5203247 0 2.978363 0.6039429 4.053406 1.6789703c1.0750427 1.0750427 1.6789856 2.5330963 1.6789856 4.053421l0 22.92891c0 3.1659088 -2.5664978 5.7323914 -5.7323914 5.7323914l-40.6297 0c-3.165924 0 -5.7323914 -2.5664825 -5.7323914 -5.7323914z" fill-rule="evenodd"/><path fill="#ffffff" d="m97.37139 65.070984l0 0c0 -3.1659203 2.5664825 -5.732403 5.732399 -5.732403l40.629684 0c1.52034 0 2.9783936 0.6039505 4.053421 1.6789818c1.0750427 1.0750351 1.6789856 2.5330925 1.6789856 4.053421l0 22.928902c0 3.1659164 -2.5664825 5.732399 -5.7324066 5.732399l-40.629684 0c-3.1659164 0 -5.732399 -2.5664825 -5.732399 -5.732399z" fill-rule="evenodd"/><path stroke="#000000" stroke-width="4.0" stroke-linejoin="round" stroke-linecap="butt" d="m97.37139 65.070984l0 0c0 -3.1659203 2.5664825 -5.732403 5.732399 -5.732403l40.629684 0c1.52034 0 2.9783936 0.6039505 4.053421 1.6789818c1.0750427 1.0750351 1.6789856 2.5330925 1.6789856 4.053421l0 22.928902c0 3.1659164 -2.5664825 5.732399 -5.7324066 5.732399l-40.629684 0c-3.1659164 0 -5.732399 -2.5664825 -5.732399 -5.732399z" fill-rule="evenodd"/><path fill="#cccccc" d="m167.23491 65.070984l0 0c0 -3.1659203 2.5664825 -5.732403 5.7323914 -5.732403l40.6297 0c1.5203247 0 2.9783783 0.6039505 4.053421 1.6789818c1.0750275 1.0750351 1.6789703 2.5330925 1.6789703 4.053421l0 22.928902c0 3.1659164 -2.5664825 5.732399 -5.7323914 5.732399l-40.6297 0c-3.1659088 0 -5.7323914 -2.5664825 -5.7323914 -5.732399z" fill-rule="evenodd"/><path stroke="#000000" stroke-width="4.0" stroke-linejoin="round" stroke-linecap="butt" d="m167.23491 65.070984l0 0c0 -3.1659203 2.5664825 -5.732403 5.7323914 -5.732403l40.6297 0c1.5203247 0 2.9783783 0.6039505 4.053421 1.6789818c1.0750275 1.0750351 1.6789703 2.5330925 1.6789703 4.053421l0 22.928902c0 3.1659164 -2.5664825 5.732399 -5.7323914 5.732399l-40.6297 0c-3.1659088 0 -5.7323914 -2.5664825 -5.7323914 -5.732399z" fill-rule="evenodd"/><path fill="#000000" d="m188.25058 76.26793l-0.140625 -0.6875q0.46875 -0.375 0.921875 -0.578125q0.453125 -0.21875 1.0625 -0.3125q0.625 -0.09375 1.59375 -0.09375l6.53125 0l0.078125 1.34375l-2.40625 -0.078125l0.140625 4.984375q0.046875 0.9375 0.3125 1.25q0.28125 0.3125 0.828125 0.3125q0.1875 0 0.40625 -0.046875q0.234375 -0.046875 0.421875 -0.125l0.140625 0.46875q-0.328125 0.5 -0.71875 0.75q-0.375 0.25 -0.9375 0.25q-0.96875 0 -1.4375 -0.5625q-0.453125 -0.578125 -0.453125 -1.734375q0 -1.15625 0.0625 -2.640625q0.078125 -1.484375 0.140625 -2.921875l-3.0 0q-0.015625 1.421875 -0.046875 2.84375q-0.03125 1.40625 -0.125 2.765625q-0.09375 1.203125 -0.578125 1.734375q-0.484375 0.515625 -1.296875 0.515625q-0.5 0 -0.828125 -0.25q-0.3125 -0.265625 -0.3125 -0.6875q0 -0.34375 0.09375 -0.53125q0.109375 -0.203125 0.296875 -0.34375q0.703125 -0.140625 1.640625 -0.234375q0.15625 -1.4375 0.21875 -2.875q0.0625 -1.453125 0.09375 -2.90625l-2.703125 0.390625z" fill-rule="nonzero"/><path fill="#cccccc" d="m341.25854 176.1576l0 0c0 -3.1659088 2.5664673 -5.7323914 5.7323914 -5.7323914l40.62967 0c1.5203552 0 2.9783936 0.6039429 4.0534363 1.6789703c1.0750427 1.0750427 1.6789856 2.5330963 1.6789856 4.053421l0 22.92891c0 3.1659088 -2.5664978 5.7323914 -5.732422 5.7323914l-40.62967 0c-3.165924 0 -5.7323914 -2.5664825 -5.7323914 -5.7323914z" fill-rule="evenodd"/><path stroke="#000000" stroke-width="4.0" stroke-linejoin="round" stroke-linecap="butt" d="m341.25854 176.1576l0 0c0 -3.1659088 2.5664673 -5.7323914 5.7323914 -5.7323914l40.62967 0c1.5203552 0 2.9783936 0.6039429 4.0534363 1.6789703c1.0750427 1.0750427 1.6789856 2.5330963 1.6789856 4.053421l0 22.92891c0 3.1659088 -2.5664978 5.7323914 -5.732422 5.7323914l-40.62967 0c-3.165924 0 -5.7323914 -2.5664825 -5.7323914 -5.7323914z" fill-rule="evenodd"/><path fill="#000000" d="m362.2742 187.35455l-0.140625 -0.6875q0.46875 -0.375 0.921875 -0.578125q0.453125 -0.21875 1.0625 -0.3125q0.625 -0.09375 1.59375 -0.09375l6.53125 0l0.078125 1.34375l-2.40625 -0.078125l0.140625 4.984375q0.046875 0.9375 0.3125 1.25q0.28125 0.3125 0.828125 0.3125q0.1875 0 0.40625 -0.046875q0.234375 -0.046875 0.421875 -0.125l0.140625 0.46875q-0.328125 0.5 -0.71875 0.75q-0.375 0.25 -0.9375 0.25q-0.96875 0 -1.4375 -0.5625q-0.453125 -0.578125 -0.453125 -1.734375q0 -1.15625 0.0625 -2.640625q0.078125 -1.484375 0.140625 -2.921875l-3.0 0q-0.015625 1.421875 -0.046875 2.84375q-0.03125 1.40625 -0.125 2.765625q-0.09375 1.203125 -0.578125 1.734375q-0.484375 0.515625 -1.296875 0.515625q-0.5 0 -0.828125 -0.25q-0.3125 -0.265625 -0.3125 -0.6875q0 -0.34375 0.09375 -0.53125q0.109375 -0.203125 0.296875 -0.34375q0.703125 -0.140625 1.640625 -0.234375q0.15625 -1.4375 0.21875 -2.875q0.0625 -1.453125 0.09375 -2.90625l-2.703125 0.390625z" fill-rule="nonzero"/><path fill="#cccccc" d="m341.25854 246.5198l0 0c0 -3.165924 2.5664673 -5.7324066 5.7323914 -5.7324066l40.62967 0c1.5203552 0 2.9783936 0.6039429 4.0534363 1.6789856c1.0750427 1.0750275 1.6789856 2.533081 1.6789856 4.053421l0 22.928894c0 3.165924 -2.5664978 5.7323914 -5.732422 5.7323914l-40.62967 0c-3.165924 0 -5.7323914 -2.5664673 -5.7323914 -5.7323914z" fill-rule="evenodd"/><path stroke="#000000" stroke-width="4.0" stroke-linejoin="round" stroke-linecap="butt" d="m341.25854 246.5198l0 0c0 -3.165924 2.5664673 -5.7324066 5.7323914 -5.7324066l40.62967 0c1.5203552 0 2.9783936 0.6039429 4.0534363 1.6789856c1.0750427 1.0750275 1.6789856 2.533081 1.6789856 4.053421l0 22.928894c0 3.165924 -2.5664978 5.7323914 -5.732422 5.7323914l-40.62967 0c-3.165924 0 -5.7323914 -2.5664673 -5.7323914 -5.7323914z" fill-rule="evenodd"/><path fill="#000000" d="m362.2742 257.71674l-0.140625 -0.6875q0.46875 -0.375 0.921875 -0.578125q0.453125 -0.21875 1.0625 -0.3125q0.625 -0.09375 1.59375 -0.09375l6.53125 0l0.078125 1.34375l-2.40625 -0.078125l0.140625 4.984375q0.046875 0.9375 0.3125 1.25q0.28125 0.3125 0.828125 0.3125q0.1875 0 0.40625 -0.046875q0.234375 -0.046875 0.421875 -0.125l0.140625 0.46875q-0.328125 0.5 -0.71875 0.75q-0.375 0.25 -0.9375 0.25q-0.96875 0 -1.4375 -0.5625q-0.453125 -0.578125 -0.453125 -1.734375q0 -1.15625 0.0625 -2.640625q0.078125 -1.484375 0.140625 -2.921875l-3.0 0q-0.015625 1.421875 -0.046875 2.84375q-0.03125 1.40625 -0.125 2.765625q-0.09375 1.203125 -0.578125 1.734375q-0.484375 0.515625 -1.296875 0.515625q-0.5 0 -0.828125 -0.25q-0.3125 -0.265625 -0.3125 -0.6875q0 -0.34375 0.09375 -0.53125q0.109375 -0.203125 0.296875 -0.34375q0.703125 -0.140625 1.640625 -0.234375q0.15625 -1.4375 0.21875 -2.875q0.0625 -1.453125 0.09375 -2.90625l-2.703125 0.390625z" fill-rule="nonzero"/><path fill="#c9daf8" d="m618.08923 94.12085l0 0c0 -3.1659164 2.5664673 -5.732399 5.732422 -5.732399l40.6297 0c1.5203247 0 2.9783325 0.6039505 4.053406 1.678978c1.0750122 1.0750351 1.6789551 2.5330963 1.6789551 4.053421l0 22.928902c0 3.1659164 -2.5664673 5.732399 -5.732361 5.732399l-40.6297 0c-3.1659546 0 -5.732422 -2.5664825 -5.732422 -5.732399z" fill-rule="evenodd"/><path stroke="#000000" stroke-width="4.0" stroke-linejoin="round" stroke-linecap="butt" d="m618.08923 94.12085l0 0c0 -3.1659164 2.5664673 -5.732399 5.732422 -5.732399l40.6297 0c1.5203247 0 2.9783325 0.6039505 4.053406 1.678978c1.0750122 1.0750351 1.6789551 2.5330963 1.6789551 4.053421l0 22.928902c0 3.1659164 -2.5664673 5.732399 -5.732361 5.732399l-40.6297 0c-3.1659546 0 -5.732422 -2.5664825 -5.732422 -5.732399z" fill-rule="evenodd"/><path fill="#000000" d="m636.7822 105.3178l-0.140625 -0.6875q0.46875 -0.375 0.921875 -0.578125q0.453125 -0.21875 1.0625 -0.3125q0.625 -0.09375 1.59375 -0.09375l6.53125 0l0.078125 1.34375l-2.40625 -0.078125l0.140625 4.984375q0.046875 0.9375 0.3125 1.25q0.28125 0.3125 0.828125 0.3125q0.1875 0 0.40625 -0.046875q0.234375 -0.046875 0.421875 -0.125l0.140625 0.46875q-0.328125 0.5 -0.71875 0.75q-0.375 0.25 -0.9375 0.25q-0.96875 0 -1.4375 -0.5625q-0.453125 -0.578125 -0.453125 -1.734375q0 -1.15625 0.0625 -2.640625q0.078125 -1.484375 0.140625 -2.921875l-3.0 0q-0.015625 1.421875 -0.046875 2.84375q-0.03125 1.40625 -0.125 2.765625q-0.09375 1.203125 -0.578125 1.734375q-0.484375 0.515625 -1.296875 0.515625q-0.5 0 -0.828125 -0.25q-0.3125 -0.265625 -0.3125 -0.6875q0 -0.34375 0.09375 -0.53125q0.109375 -0.203125 0.296875 -0.34375q0.703125 -0.140625 1.640625 -0.234375q0.15625 -1.4375 0.21875 -2.875q0.0625 -1.453125 0.09375 -2.90625l-2.703125 0.390625zm11.78186 -0.921875l0.296875 -5.359375q0.21875 -0.15625 0.4375 -0.21875q0.234375 -0.0625 0.46875 -0.0625q0.4375 0 0.6875 0.28125q0.25 0.28125 0.25 0.6875q0 0.53125 -0.296875 1.453125q-0.28125 0.90625 -0.65625 2.0q-0.125 0.3125 -0.25 0.65625q-0.109375 0.328125 -0.234375 0.671875l-0.703125 -0.109375z" fill-rule="nonzero"/><path fill="#cccccc" d="m527.8084 94.12085l0 0c0 -3.1659164 2.5664673 -5.732399 5.732361 -5.732399l40.6297 0c1.5203247 0 2.9783936 0.6039505 4.053406 1.678978c1.0750732 1.0750351 1.6790161 2.5330963 1.6790161 4.053421l0 22.928902c0 3.1659164 -2.5664673 5.732399 -5.732422 5.732399l-40.6297 0c-3.1658936 0 -5.732361 -2.5664825 -5.732361 -5.732399z" fill-rule="evenodd"/><path stroke="#000000" stroke-width="4.0" stroke-linejoin="round" stroke-linecap="butt" d="m527.8084 94.12085l0 0c0 -3.1659164 2.5664673 -5.732399 5.732361 -5.732399l40.6297 0c1.5203247 0 2.9783936 0.6039505 4.053406 1.678978c1.0750732 1.0750351 1.6790161 2.5330963 1.6790161 4.053421l0 22.928902c0 3.1659164 -2.5664673 5.732399 -5.732422 5.732399l-40.6297 0c-3.1658936 0 -5.732361 -2.5664825 -5.732361 -5.732399z" fill-rule="evenodd"/><path fill="#000000" d="m548.82404 105.3178l-0.140625 -0.6875q0.46875 -0.375 0.921875 -0.578125q0.453125 -0.21875 1.0625 -0.3125q0.625 -0.09375 1.59375 -0.09375l6.53125 0l0.078125 1.34375l-2.40625 -0.078125l0.140625 4.984375q0.046875 0.9375 0.3125 1.25q0.28125 0.3125 0.828125 0.3125q0.1875 0 0.40625 -0.046875q0.234375 -0.046875 0.421875 -0.125l0.140625 0.46875q-0.328125 0.5 -0.71875 0.75q-0.375 0.25 -0.9375 0.25q-0.96875 0 -1.4375 -0.5625q-0.453125 -0.578125 -0.453125 -1.734375q0 -1.15625 0.0625 -2.640625q0.078125 -1.484375 0.140625 -2.921875l-3.0 0q-0.015625 1.421875 -0.046875 2.84375q-0.03125 1.40625 -0.125 2.765625q-0.09375 1.203125 -0.578125 1.734375q-0.484375 0.515625 -1.296875 0.515625q-0.5 0 -0.828125 -0.25q-0.3125 -0.265625 -0.3125 -0.6875q0 -0.34375 0.09375 -0.53125q0.109375 -0.203125 0.296875 -0.34375q0.703125 -0.140625 1.640625 -0.234375q0.15625 -1.4375 0.21875 -2.875q0.0625 -1.453125 0.09375 -2.90625l-2.703125 0.390625z" fill-rule="nonzero"/><defs><linearGradient id="p.1" gradientUnits="userSpaceOnUse" gradientTransform="matrix(5.075803338148461 0.0 0.0 5.075803338148461 0.0 0.0)" spreadMethod="pad" x1="115.47245756335909" y1="22.21336183783431" x2="120.54826090150755" y2="22.21336183783431"><stop offset="0.0" stop-color="#bfbfbf"/><stop offset="1.0" stop-color="#cfe2f3"/></linearGradient></defs><path fill="url(#p.1)" d="m586.1155 102.002625l18.59845 0l0 -3.5826797l7.165344 7.1653595l-7.165344 7.165352l0 -3.5826797l-18.59845 0z" fill-rule="evenodd"/><path stroke="#000000" stroke-width="4.0" stroke-linejoin="round" stroke-linecap="butt" d="m586.1155 102.002625l18.59845 0l0 -3.5826797l7.165344 7.1653595l-7.165344 7.165352l0 -3.5826797l-18.59845 0z" fill-rule="evenodd"/><path fill="#000000" fill-opacity="0.0" d="m27.24672 9.931759l192.34645 0l0 42.015747l-192.34645 0z" fill-rule="evenodd"/><path fill="#000000" d="m39.59668 32.508007l2.625 -0.25q0.234375 1.3125 0.953125 1.9375q0.734375 0.609375 1.96875 0.609375q1.296875 0 1.953125 -0.546875q0.671875 -0.546875 0.671875 -1.28125q0 -0.484375 -0.28125 -0.8125q-0.28125 -0.328125 -0.96875 -0.578125q-0.484375 -0.15625 -2.171875 -0.578125q-2.15625 -0.546875 -3.03125 -1.328125q-1.234375 -1.09375 -1.234375 -2.6875q0 -1.015625 0.578125 -1.90625q0.578125 -0.890625 1.65625 -1.34375q1.09375 -0.46875 2.640625 -0.46875q2.515625 0 3.78125 1.109375q1.28125 1.09375 1.34375 2.9375l-2.703125 0.109375q-0.171875 -1.03125 -0.75 -1.46875q-0.5625 -0.453125 -1.703125 -0.453125q-1.171875 0 -1.84375 0.46875q-0.421875 0.3125 -0.421875 0.84375q0 0.46875 0.40625 0.796875q0.5 0.4375 2.46875 0.90625q1.96875 0.453125 2.90625 0.953125q0.953125 0.5 1.484375 1.359375q0.53125 0.859375 0.53125 2.125q0 1.15625 -0.640625 2.15625q-0.640625 1.0 -1.8125 1.484375q-1.15625 0.484375 -2.890625 0.484375q-2.53125 0 -3.890625 -1.171875q-1.359375 -1.171875 -1.625 -3.40625zm18.709198 1.265625l2.546875 0.421875q-0.484375 1.40625 -1.546875 2.140625q-1.0625 0.734375 -2.65625 0.734375q-2.515625 0 -3.734375 -1.65625q-0.953125 -1.3125 -0.953125 -3.328125q0 -2.40625 1.25 -3.765625q1.265625 -1.359375 3.1875 -1.359375q2.15625 0 3.40625 1.421875q1.25 1.421875 1.1875 4.375l-6.40625 0q0.03125 1.140625 0.609375 1.78125q0.59375 0.625 1.484375 0.625q0.59375 0 1.0 -0.328125q0.421875 -0.328125 0.625 -1.0625zm0.15625 -2.59375q-0.03125 -1.109375 -0.578125 -1.6875q-0.546875 -0.578125 -1.328125 -0.578125q-0.84375 0 -1.390625 0.609375q-0.546875 0.609375 -0.53125 1.65625l3.828125 0zm10.938217 9.359375l0 -4.875q-0.5 0.65625 -1.25 1.03125q-0.734375 0.375 -1.609375 0.375q-1.640625 0 -2.703125 -1.234375q-1.265625 -1.453125 -1.265625 -3.9375q0 -2.328125 1.171875 -3.625q1.1875 -1.3125 2.9375 -1.3125q0.96875 0 1.671875 0.40625q0.703125 0.40625 1.25 1.234375l0 -1.421875l2.359375 0l0 13.359375l-2.5625 0zm0.09375 -8.640625q0 -1.484375 -0.609375 -2.203125q-0.609375 -0.734375 -1.515625 -0.734375q-0.9375 0 -1.5625 0.75q-0.625 0.734375 -0.625 2.328125q0 1.59375 0.59375 2.3125q0.609375 0.703125 1.5 0.703125q0.875 0 1.546875 -0.796875q0.671875 -0.796875 0.671875 -2.359375zm11.349106 4.953125l0 -1.453125q-0.53125 0.78125 -1.390625 1.234375q-0.859375 0.4375 -1.8125 0.4375q-0.96875 0 -1.75 -0.421875q-0.765625 -0.4375 -1.125 -1.203125q-0.34375 -0.78125 -0.34375 -2.140625l0 -6.125l2.5625 0l0 4.4375q0 2.046875 0.140625 2.515625q0.140625 0.453125 0.515625 0.71875q0.375 0.265625 0.953125 0.265625q0.65625 0 1.171875 -0.359375q0.515625 -0.359375 0.703125 -0.890625q0.203125 -0.53125 0.203125 -2.609375l0 -4.078125l2.546875 0l0 9.671875l-2.375 0zm10.630356 -3.078125l2.546875 0.421875q-0.484375 1.40625 -1.546875 2.140625q-1.0625 0.734375 -2.65625 0.734375q-2.515625 0 -3.734375 -1.65625q-0.953125 -1.3125 -0.953125 -3.328125q0 -2.40625 1.25 -3.765625q1.265625 -1.359375 3.1875 -1.359375q2.15625 0 3.40625 1.421875q1.25 1.421875 1.1875 4.375l-6.40625 0q0.03125 1.140625 0.609375 1.78125q0.59375 0.625 1.484375 0.625q0.59375 0 1.0 -0.328125q0.421875 -0.328125 0.625 -1.0625zm0.15625 -2.59375q-0.03125 -1.109375 -0.578125 -1.6875q-0.546875 -0.578125 -1.328125 -0.578125q-0.84375 0 -1.390625 0.609375q-0.546875 0.609375 -0.53125 1.65625l3.828125 0zm13.422592 5.671875l-2.5625 0l0 -4.9375q0 -1.5625 -0.171875 -2.015625q-0.15625 -0.46875 -0.53125 -0.71875q-0.359375 -0.265625 -0.875 -0.265625q-0.671875 0 -1.203125 0.375q-0.53125 0.359375 -0.734375 0.96875q-0.1875 0.59375 -0.1875 2.21875l0 4.375l-2.546875 0l0 -9.671875l2.375 0l0 1.421875q1.265625 -1.640625 3.1875 -1.640625q0.84375 0 1.546875 0.3125q0.703125 0.296875 1.0625 0.78125q0.359375 0.46875 0.5 1.078125q0.140625 0.59375 0.140625 1.703125l0 6.015625zm7.036606 -9.671875l0 2.03125l-1.75 0l0 3.90625q0 1.1875 0.046875 1.390625q0.046875 0.1875 0.21875 0.3125q0.1875 0.125 0.4375 0.125q0.359375 0 1.03125 -0.25l0.21875 2.0q-0.890625 0.375 -2.015625 0.375q-0.703125 0 -1.265625 -0.234375q-0.546875 -0.234375 -0.8125 -0.59375q-0.25 -0.375 -0.34375 -1.0q-0.09375 -0.453125 -0.09375 -1.8125l0 -4.21875l-1.171875 0l0 -2.03125l1.171875 0l0 -1.921875l2.578125 -1.5l0 3.421875l1.75 0zm1.775177 -1.3125l0 -2.375l2.5625 0l0 2.375l-2.5625 0zm0 10.984375l0 -9.671875l2.5625 0l0 9.671875l-2.5625 0zm7.089554 -6.71875l-2.328125 -0.421875q0.40625 -1.40625 1.359375 -2.078125q0.953125 -0.671875 2.84375 -0.671875q1.703125 0 2.546875 0.40625q0.84375 0.40625 1.171875 1.03125q0.34375 0.625 0.34375 2.28125l-0.015625 3.0q0 1.265625 0.109375 1.875q0.125 0.609375 0.46875 1.296875l-2.53125 0q-0.109375 -0.25 -0.25 -0.75q-0.0625 -0.234375 -0.09375 -0.3125q-0.65625 0.640625 -1.40625 0.96875q-0.734375 0.3125 -1.59375 0.3125q-1.484375 0 -2.34375 -0.8125q-0.859375 -0.8125 -0.859375 -2.046875q0 -0.828125 0.390625 -1.46875q0.390625 -0.640625 1.09375 -0.96875q0.703125 -0.34375 2.03125 -0.609375q1.796875 -0.328125 2.484375 -0.625l0 -0.25q0 -0.75 -0.359375 -1.0625q-0.359375 -0.3125 -1.375 -0.3125q-0.6875 0 -1.078125 0.28125q-0.375 0.265625 -0.609375 0.9375zm3.421875 2.078125q-0.484375 0.15625 -1.5625 0.390625q-1.0625 0.21875 -1.390625 0.4375q-0.5 0.359375 -0.5 0.90625q0 0.53125 0.40625 0.9375q0.40625 0.390625 1.015625 0.390625q0.703125 0 1.328125 -0.46875q0.46875 -0.34375 0.609375 -0.84375q0.09375 -0.328125 0.09375 -1.25l0 -0.5zm5.047592 4.640625l0 -13.359375l2.5625 0l0 13.359375l-2.5625 0zm14.804108 -9.671875l0 2.03125l-1.75 0l0 3.90625q0 1.1875 0.046875 1.390625q0.046875 0.1875 0.21875 0.3125q0.1875 0.125 0.4375 0.125q0.359375 0 1.03125 -0.25l0.21875 2.0q-0.890625 0.375 -2.015625 0.375q-0.703125 0 -1.265625 -0.234375q-0.546875 -0.234375 -0.8125 -0.59375q-0.25 -0.375 -0.34375 -1.0q-0.09375 -0.453125 -0.09375 -1.8125l0 -4.21875l-1.171875 0l0 -2.03125l1.171875 0l0 -1.921875l2.578125 -1.5l0 3.421875l1.75 0zm4.228302 9.671875l-2.5625 0l0 -9.671875l2.375 0l0 1.375q0.609375 -0.984375 1.09375 -1.28125q0.484375 -0.3125 1.109375 -0.3125q0.875 0 1.6875 0.484375l-0.796875 2.234375q-0.640625 -0.421875 -1.203125 -0.421875q-0.53125 0 -0.90625 0.296875q-0.375 0.296875 -0.59375 1.078125q-0.203125 0.765625 -0.203125 3.234375l0 2.984375zm6.713394 -6.71875l-2.328125 -0.421875q0.40625 -1.40625 1.359375 -2.078125q0.953125 -0.671875 2.84375 -0.671875q1.703125 0 2.546875 0.40625q0.84375 0.40625 1.171875 1.03125q0.34375 0.625 0.34375 2.28125l-0.015625 3.0q0 1.265625 0.109375 1.875q0.125 0.609375 0.46875 1.296875l-2.53125 0q-0.109375 -0.25 -0.25 -0.75q-0.0625 -0.234375 -0.09375 -0.3125q-0.65625 0.640625 -1.40625 0.96875q-0.734375 0.3125 -1.59375 0.3125q-1.484375 0 -2.34375 -0.8125q-0.859375 -0.8125 -0.859375 -2.046875q0 -0.828125 0.390625 -1.46875q0.390625 -0.640625 1.09375 -0.96875q0.703125 -0.34375 2.03125 -0.609375q1.796875 -0.328125 2.484375 -0.625l0 -0.25q0 -0.75 -0.359375 -1.0625q-0.359375 -0.3125 -1.375 -0.3125q-0.6875 0 -1.078125 0.28125q-0.375 0.265625 -0.609375 0.9375zm3.421875 2.078125q-0.484375 0.15625 -1.5625 0.390625q-1.0625 0.21875 -1.390625 0.4375q-0.5 0.359375 -0.5 0.90625q0 0.53125 0.40625 0.9375q0.40625 0.390625 1.015625 0.390625q0.703125 0 1.328125 -0.46875q0.46875 -0.34375 0.609375 -0.84375q0.09375 -0.328125 0.09375 -1.25l0 -0.5zm13.844467 4.640625l-2.5625 0l0 -4.9375q0 -1.5625 -0.171875 -2.015625q-0.15625 -0.46875 -0.53125 -0.71875q-0.359375 -0.265625 -0.875 -0.265625q-0.671875 0 -1.203125 0.375q-0.53125 0.359375 -0.734375 0.96875q-0.1875 0.59375 -0.1875 2.21875l0 4.375l-2.546875 0l0 -9.671875l2.375 0l0 1.421875q1.265625 -1.640625 3.1875 -1.640625q0.84375 0 1.546875 0.3125q0.703125 0.296875 1.0625 0.78125q0.359375 0.46875 0.5 1.078125q0.140625 0.59375 0.140625 1.703125l0 6.015625zm1.6928558 -2.765625l2.5625 -0.390625q0.171875 0.75 0.671875 1.140625q0.5 0.390625 1.40625 0.390625q0.984375 0 1.484375 -0.375q0.34375 -0.25 0.34375 -0.671875q0 -0.296875 -0.1875 -0.484375q-0.1875 -0.1875 -0.859375 -0.34375q-3.09375 -0.6875 -3.921875 -1.25q-1.140625 -0.78125 -1.140625 -2.171875q0 -1.265625 0.984375 -2.109375q1.0 -0.859375 3.078125 -0.859375q1.984375 0 2.953125 0.65625q0.96875 0.640625 1.328125 1.90625l-2.40625 0.4375q-0.15625 -0.5625 -0.59375 -0.859375q-0.421875 -0.296875 -1.234375 -0.296875q-1.0 0 -1.4375 0.28125q-0.296875 0.203125 -0.296875 0.515625q0 0.265625 0.25 0.46875q0.34375 0.25 2.390625 0.71875q2.046875 0.453125 2.859375 1.140625q0.796875 0.671875 0.796875 1.890625q0 1.34375 -1.109375 2.296875q-1.109375 0.953125 -3.28125 0.953125q-1.984375 0 -3.140625 -0.796875q-1.140625 -0.8125 -1.5 -2.1875zm10.156967 -6.90625l1.421875 0l0 -0.734375q0 -1.21875 0.25 -1.8125q0.265625 -0.609375 0.953125 -0.984375q0.703125 -0.375 1.78125 -0.375q1.09375 0 2.140625 0.328125l-0.359375 1.78125q-0.609375 -0.140625 -1.171875 -0.140625q-0.546875 0 -0.796875 0.265625q-0.234375 0.25 -0.234375 0.984375l0 0.6875l1.90625 0l0 2.015625l-1.90625 0l0 7.65625l-2.5625 0l0 -7.65625l-1.421875 0l0 -2.015625zm12.931427 6.59375l2.546875 0.421875q-0.484375 1.40625 -1.546875 2.140625q-1.0625 0.734375 -2.65625 0.734375q-2.515625 0 -3.734375 -1.65625q-0.953125 -1.3125 -0.953125 -3.328125q0 -2.40625 1.25 -3.765625q1.265625 -1.359375 3.1875 -1.359375q2.15625 0 3.40625 1.421875q1.25 1.421875 1.1875 4.375l-6.40625 0q0.03125 1.140625 0.609375 1.78125q0.59375 0.625 1.484375 0.625q0.59375 0 1.0 -0.328125q0.421875 -0.328125 0.625 -1.0625zm0.15625 -2.59375q-0.03125 -1.109375 -0.578125 -1.6875q-0.546875 -0.578125 -1.328125 -0.578125q-0.84375 0 -1.390625 0.609375q-0.546875 0.609375 -0.53125 1.65625l3.828125 0zm7.078842 5.671875l-2.5625 0l0 -9.671875l2.375 0l0 1.375q0.609375 -0.984375 1.09375 -1.28125q0.484375 -0.3125 1.109375 -0.3125q0.875 0 1.6875 0.484375l-0.796875 2.234375q-0.640625 -0.421875 -1.203125 -0.421875q-0.53125 0 -0.90625 0.296875q-0.375 0.296875 -0.59375 1.078125q-0.203125 0.765625 -0.203125 3.234375l0 2.984375z" fill-rule="nonzero"/><path fill="#000000" fill-opacity="0.0" d="m263.2756 9.931759l207.90549 0l0 42.015747l-207.90549 0z" fill-rule="evenodd"/><path fill="#000000" d="m277.85257 36.851757l0 -13.359375l2.703125 0l0 5.265625l5.28125 0l0 -5.265625l2.703125 0l0 13.359375l-2.703125 0l0 -5.84375l-5.28125 0l0 5.84375l-2.703125 0zm13.457336 -10.984375l0 -2.375l2.5625 0l0 2.375l-2.5625 0zm0 10.984375l0 -9.671875l2.5625 0l0 9.671875l-2.5625 0zm10.777039 -3.078125l2.546875 0.421875q-0.484375 1.40625 -1.546875 2.140625q-1.0625 0.734375 -2.65625 0.734375q-2.515625 0 -3.734375 -1.65625q-0.953125 -1.3125 -0.953125 -3.328125q0 -2.40625 1.25 -3.765625q1.265625 -1.359375 3.1875 -1.359375q2.15625 0 3.40625 1.421875q1.25 1.421875 1.1875 4.375l-6.40625 0q0.03125 1.140625 0.609375 1.78125q0.59375 0.625 1.484375 0.625q0.59375 0 1.0 -0.328125q0.421875 -0.328125 0.625 -1.0625zm0.15625 -2.59375q-0.03125 -1.109375 -0.578125 -1.6875q-0.546875 -0.578125 -1.328125 -0.578125q-0.84375 0 -1.390625 0.609375q-0.546875 0.609375 -0.53125 1.65625l3.828125 0zm7.0788574 5.671875l-2.5625 0l0 -9.671875l2.375 0l0 1.375q0.609375 -0.984375 1.09375 -1.28125q0.484375 -0.3125 1.109375 -0.3125q0.875 0 1.6875 0.484375l-0.796875 2.234375q-0.640625 -0.421875 -1.203125 -0.421875q-0.53125 0 -0.90625 0.296875q-0.375 0.296875 -0.59375 1.078125q-0.203125 0.765625 -0.203125 3.234375l0 2.984375zm6.713379 -6.71875l-2.328125 -0.421875q0.40625 -1.40625 1.359375 -2.078125q0.953125 -0.671875 2.84375 -0.671875q1.703125 0 2.546875 0.40625q0.84375 0.40625 1.171875 1.03125q0.34375 0.625 0.34375 2.28125l-0.015625 3.0q0 1.265625 0.109375 1.875q0.125 0.609375 0.46875 1.296875l-2.53125 0q-0.109375 -0.25 -0.25 -0.75q-0.0625 -0.234375 -0.09375 -0.3125q-0.65625 0.640625 -1.40625 0.96875q-0.734375 0.3125 -1.59375 0.3125q-1.484375 0 -2.34375 -0.8125q-0.859375 -0.8125 -0.859375 -2.046875q0 -0.828125 0.390625 -1.46875q0.390625 -0.640625 1.09375 -0.96875q0.703125 -0.34375 2.03125 -0.609375q1.796875 -0.328125 2.484375 -0.625l0 -0.25q0 -0.75 -0.359375 -1.0625q-0.359375 -0.3125 -1.375 -0.3125q-0.6875 0 -1.078125 0.28125q-0.375 0.265625 -0.609375 0.9375zm3.421875 2.078125q-0.484375 0.15625 -1.5625 0.390625q-1.0625 0.21875 -1.390625 0.4375q-0.5 0.359375 -0.5 0.90625q0 0.53125 0.40625 0.9375q0.40625 0.390625 1.015625 0.390625q0.703125 0 1.328125 -0.46875q0.46875 -0.34375 0.609375 -0.84375q0.09375 -0.328125 0.09375 -1.25l0 -0.5zm7.5007324 4.640625l-2.5625 0l0 -9.671875l2.375 0l0 1.375q0.609375 -0.984375 1.09375 -1.28125q0.484375 -0.3125 1.109375 -0.3125q0.875 0 1.6875 0.484375l-0.796875 2.234375q-0.640625 -0.421875 -1.203125 -0.421875q-0.53125 0 -0.90625 0.296875q-0.375 0.296875 -0.59375 1.078125q-0.203125 0.765625 -0.203125 3.234375l0 2.984375zm13.244629 -6.8125l-2.53125 0.453125q-0.125 -0.75 -0.578125 -1.125q-0.453125 -0.390625 -1.171875 -0.390625q-0.953125 0 -1.53125 0.65625q-0.5625 0.65625 -0.5625 2.203125q0 1.734375 0.578125 2.4375q0.578125 0.703125 1.546875 0.703125q0.734375 0 1.203125 -0.40625q0.46875 -0.421875 0.65625 -1.421875l2.515625 0.421875q-0.390625 1.734375 -1.515625 2.625q-1.109375 0.875 -2.96875 0.875q-2.125 0 -3.390625 -1.328125q-1.25 -1.34375 -1.25 -3.71875q0 -2.390625 1.265625 -3.71875q1.265625 -1.34375 3.421875 -1.34375q1.765625 0 2.796875 0.765625q1.046875 0.75 1.515625 2.3125zm4.4851074 -6.546875l0 4.921875q1.234375 -1.453125 2.953125 -1.453125q0.890625 0 1.59375 0.328125q0.71875 0.328125 1.078125 0.84375q0.359375 0.5 0.484375 1.125q0.140625 0.609375 0.140625 1.921875l0 5.671875l-2.5625 0l0 -5.109375q0 -1.515625 -0.15625 -1.921875q-0.140625 -0.421875 -0.515625 -0.65625q-0.359375 -0.25 -0.90625 -0.25q-0.640625 0 -1.140625 0.3125q-0.5 0.3125 -0.734375 0.9375q-0.234375 0.625 -0.234375 1.84375l0 4.84375l-2.5625 0l0 -13.359375l2.5625 0zm8.849091 2.375l0 -2.375l2.5625 0l0 2.375l-2.5625 0zm0 10.984375l0 -9.671875l2.5625 0l0 9.671875l-2.5625 0zm13.620819 -6.8125l-2.53125 0.453125q-0.125 -0.75 -0.578125 -1.125q-0.453125 -0.390625 -1.171875 -0.390625q-0.953125 0 -1.53125 0.65625q-0.5625 0.65625 -0.5625 2.203125q0 1.734375 0.578125 2.4375q0.578125 0.703125 1.546875 0.703125q0.734375 0 1.203125 -0.40625q0.46875 -0.421875 0.65625 -1.421875l2.515625 0.421875q-0.390625 1.734375 -1.515625 2.625q-1.109375 0.875 -2.96875 0.875q-2.125 0 -3.390625 -1.328125q-1.25 -1.34375 -1.25 -3.71875q0 -2.390625 1.265625 -3.71875q1.265625 -1.34375 3.421875 -1.34375q1.765625 0 2.796875 0.765625q1.046875 0.75 1.515625 2.3125zm3.844452 0.09375l-2.328125 -0.421875q0.40625 -1.40625 1.359375 -2.078125q0.953125 -0.671875 2.84375 -0.671875q1.703125 0 2.546875 0.40625q0.84375 0.40625 1.171875 1.03125q0.34375 0.625 0.34375 2.28125l-0.015625 3.0q0 1.265625 0.109375 1.875q0.125 0.609375 0.46875 1.296875l-2.53125 0q-0.109375 -0.25 -0.25 -0.75q-0.0625 -0.234375 -0.09375 -0.3125q-0.65625 0.640625 -1.40625 0.96875q-0.734375 0.3125 -1.59375 0.3125q-1.484375 0 -2.34375 -0.8125q-0.859375 -0.8125 -0.859375 -2.046875q0 -0.828125 0.390625 -1.46875q0.390625 -0.640625 1.09375 -0.96875q0.703125 -0.34375 2.03125 -0.609375q1.796875 -0.328125 2.484375 -0.625l0 -0.25q0 -0.75 -0.359375 -1.0625q-0.359375 -0.3125 -1.375 -0.3125q-0.6875 0 -1.078125 0.28125q-0.375 0.265625 -0.609375 0.9375zm3.421875 2.078125q-0.484375 0.15625 -1.5625 0.390625q-1.0625 0.21875 -1.390625 0.4375q-0.5 0.359375 -0.5 0.90625q0 0.53125 0.40625 0.9375q0.40625 0.390625 1.015625 0.390625q0.703125 0 1.328125 -0.46875q0.46875 -0.34375 0.609375 -0.84375q0.09375 -0.328125 0.09375 -1.25l0 -0.5zm5.0476074 4.640625l0 -13.359375l2.5625 0l0 13.359375l-2.5625 0zm14.804108 -9.671875l0 2.03125l-1.75 0l0 3.90625q0 1.1875 0.046875 1.390625q0.046875 0.1875 0.21875 0.3125q0.1875 0.125 0.4375 0.125q0.359375 0 1.03125 -0.25l0.21875 2.0q-0.890625 0.375 -2.015625 0.375q-0.703125 0 -1.265625 -0.234375q-0.546875 -0.234375 -0.8125 -0.59375q-0.25 -0.375 -0.34375 -1.0q-0.09375 -0.453125 -0.09375 -1.8125l0 -4.21875l-1.171875 0l0 -2.03125l1.171875 0l0 -1.921875l2.578125 -1.5l0 3.421875l1.75 0zm4.228302 9.671875l-2.5625 0l0 -9.671875l2.375 0l0 1.375q0.609375 -0.984375 1.09375 -1.28125q0.484375 -0.3125 1.109375 -0.3125q0.875 0 1.6875 0.484375l-0.796875 2.234375q-0.640625 -0.421875 -1.203125 -0.421875q-0.53125 0 -0.90625 0.296875q-0.375 0.296875 -0.59375 1.078125q-0.203125 0.765625 -0.203125 3.234375l0 2.984375zm6.7134094 -6.71875l-2.328125 -0.421875q0.40625 -1.40625 1.359375 -2.078125q0.953125 -0.671875 2.84375 -0.671875q1.703125 0 2.546875 0.40625q0.84375 0.40625 1.171875 1.03125q0.34375 0.625 0.34375 2.28125l-0.015625 3.0q0 1.265625 0.109375 1.875q0.125 0.609375 0.46875 1.296875l-2.53125 0q-0.109375 -0.25 -0.25 -0.75q-0.0625 -0.234375 -0.09375 -0.3125q-0.65625 0.640625 -1.40625 0.96875q-0.734375 0.3125 -1.59375 0.3125q-1.484375 0 -2.34375 -0.8125q-0.859375 -0.8125 -0.859375 -2.046875q0 -0.828125 0.390625 -1.46875q0.390625 -0.640625 1.09375 -0.96875q0.703125 -0.34375 2.03125 -0.609375q1.796875 -0.328125 2.484375 -0.625l0 -0.25q0 -0.75 -0.359375 -1.0625q-0.359375 -0.3125 -1.375 -0.3125q-0.6875 0 -1.078125 0.28125q-0.375 0.265625 -0.609375 0.9375zm3.421875 2.078125q-0.484375 0.15625 -1.5625 0.390625q-1.0625 0.21875 -1.390625 0.4375q-0.5 0.359375 -0.5 0.90625q0 0.53125 0.40625 0.9375q0.40625 0.390625 1.015625 0.390625q0.703125 0 1.328125 -0.46875q0.46875 -0.34375 0.609375 -0.84375q0.09375 -0.328125 0.09375 -1.25l0 -0.5zm13.844452 4.640625l-2.5625 0l0 -4.9375q0 -1.5625 -0.171875 -2.015625q-0.15625 -0.46875 -0.53125 -0.71875q-0.359375 -0.265625 -0.875 -0.265625q-0.671875 0 -1.203125 0.375q-0.53125 0.359375 -0.734375 0.96875q-0.1875 0.59375 -0.1875 2.21875l0 4.375l-2.546875 0l0 -9.671875l2.375 0l0 1.421875q1.265625 -1.640625 3.1875 -1.640625q0.84375 0 1.546875 0.3125q0.703125 0.296875 1.0625 0.78125q0.359375 0.46875 0.5 1.078125q0.140625 0.59375 0.140625 1.703125l0 6.015625zm1.6928711 -2.765625l2.5625 -0.390625q0.171875 0.75 0.671875 1.140625q0.5 0.390625 1.40625 0.390625q0.984375 0 1.484375 -0.375q0.34375 -0.25 0.34375 -0.671875q0 -0.296875 -0.1875 -0.484375q-0.1875 -0.1875 -0.859375 -0.34375q-3.09375 -0.6875 -3.921875 -1.25q-1.140625 -0.78125 -1.140625 -2.171875q0 -1.265625 0.984375 -2.109375q1.0 -0.859375 3.078125 -0.859375q1.984375 0 2.953125 0.65625q0.96875 0.640625 1.328125 1.90625l-2.40625 0.4375q-0.15625 -0.5625 -0.59375 -0.859375q-0.421875 -0.296875 -1.234375 -0.296875q-1.0 0 -1.4375 0.28125q-0.296875 0.203125 -0.296875 0.515625q0 0.265625 0.25 0.46875q0.34375 0.25 2.390625 0.71875q2.046875 0.453125 2.859375 1.140625q0.796875 0.671875 0.796875 1.890625q0 1.34375 -1.109375 2.296875q-1.109375 0.953125 -3.28125 0.953125q-1.984375 0 -3.140625 -0.796875q-1.140625 -0.8125 -1.5 -2.1875zm10.156952 -6.90625l1.421875 0l0 -0.734375q0 -1.21875 0.25 -1.8125q0.265625 -0.609375 0.953125 -0.984375q0.703125 -0.375 1.78125 -0.375q1.09375 0 2.140625 0.328125l-0.359375 1.78125q-0.609375 -0.140625 -1.171875 -0.140625q-0.546875 0 -0.796875 0.265625q-0.234375 0.25 -0.234375 0.984375l0 0.6875l1.90625 0l0 2.015625l-1.90625 0l0 7.65625l-2.5625 0l0 -7.65625l-1.421875 0l0 -2.015625zm12.931427 6.59375l2.546875 0.421875q-0.484375 1.40625 -1.546875 2.140625q-1.0625 0.734375 -2.65625 0.734375q-2.515625 0 -3.734375 -1.65625q-0.953125 -1.3125 -0.953125 -3.328125q0 -2.40625 1.25 -3.765625q1.265625 -1.359375 3.1875 -1.359375q2.15625 0 3.40625 1.421875q1.25 1.421875 1.1875 4.375l-6.40625 0q0.03125 1.140625 0.609375 1.78125q0.59375 0.625 1.484375 0.625q0.59375 0 1.0 -0.328125q0.421875 -0.328125 0.625 -1.0625zm0.15625 -2.59375q-0.03125 -1.109375 -0.578125 -1.6875q-0.546875 -0.578125 -1.328125 -0.578125q-0.84375 0 -1.390625 0.609375q-0.546875 0.609375 -0.53125 1.65625l3.828125 0zm7.0788574 5.671875l-2.5625 0l0 -9.671875l2.375 0l0 1.375q0.609375 -0.984375 1.09375 -1.28125q0.484375 -0.3125 1.109375 -0.3125q0.875 0 1.6875 0.484375l-0.796875 2.234375q-0.640625 -0.421875 -1.203125 -0.421875q-0.53125 0 -0.90625 0.296875q-0.375 0.296875 -0.59375 1.078125q-0.203125 0.765625 -0.203125 3.234375l0 2.984375z" fill-rule="nonzero"/><path fill="#000000" fill-opacity="0.0" d="m499.89502 9.931759l198.20471 0l0 42.015747l-198.20471 0z" fill-rule="evenodd"/><path fill="#000000" d="m527.9085 36.851757l-2.9375 0l-1.171875 -3.03125l-5.328125 0l-1.109375 3.03125l-2.859375 0l5.203125 -13.359375l2.84375 0l5.359375 13.359375zm-4.96875 -5.28125l-1.84375 -4.953125l-1.796875 4.953125l3.640625 0zm15.176025 5.28125l-2.5625 0l0 -4.9375q0 -1.5625 -0.171875 -2.015625q-0.15625 -0.46875 -0.53125 -0.71875q-0.359375 -0.265625 -0.875 -0.265625q-0.671875 0 -1.203125 0.375q-0.53125 0.359375 -0.734375 0.96875q-0.1875 0.59375 -0.1875 2.21875l0 4.375l-2.546875 0l0 -9.671875l2.375 0l0 1.421875q1.265625 -1.640625 3.1875 -1.640625q0.84375 0 1.546875 0.3125q0.703125 0.296875 1.0625 0.78125q0.359375 0.46875 0.5 1.078125q0.140625 0.59375 0.140625 1.703125l0 6.015625zm4.505371 -6.71875l-2.328125 -0.421875q0.40625 -1.40625 1.359375 -2.078125q0.953125 -0.671875 2.84375 -0.671875q1.703125 0 2.546875 0.40625q0.84375 0.40625 1.171875 1.03125q0.34375 0.625 0.34375 2.28125l-0.015625 3.0q0 1.265625 0.109375 1.875q0.125 0.609375 0.46875 1.296875l-2.53125 0q-0.109375 -0.25 -0.25 -0.75q-0.0625 -0.234375 -0.09375 -0.3125q-0.65625 0.640625 -1.40625 0.96875q-0.734375 0.3125 -1.59375 0.3125q-1.484375 0 -2.34375 -0.8125q-0.859375 -0.8125 -0.859375 -2.046875q0 -0.828125 0.390625 -1.46875q0.390625 -0.640625 1.09375 -0.96875q0.703125 -0.34375 2.03125 -0.609375q1.796875 -0.328125 2.484375 -0.625l0 -0.25q0 -0.75 -0.359375 -1.0625q-0.359375 -0.3125 -1.375 -0.3125q-0.6875 0 -1.078125 0.28125q-0.375 0.265625 -0.609375 0.9375zm3.421875 2.078125q-0.484375 0.15625 -1.5625 0.390625q-1.0625 0.21875 -1.390625 0.4375q-0.5 0.359375 -0.5 0.90625q0 0.53125 0.40625 0.9375q0.40625 0.390625 1.015625 0.390625q0.703125 0 1.328125 -0.46875q0.46875 -0.34375 0.609375 -0.84375q0.09375 -0.328125 0.09375 -1.25l0 -0.5zm5.0476074 4.640625l0 -13.359375l2.5625 0l0 13.359375l-2.5625 0zm4.5895386 -4.96875q0 -1.28125 0.625 -2.46875q0.625 -1.203125 1.78125 -1.828125q1.15625 -0.625 2.578125 -0.625q2.1875 0 3.59375 1.421875q1.40625 1.421875 1.40625 3.609375q0 2.1875 -1.421875 3.640625q-1.421875 1.4375 -3.5625 1.4375q-1.328125 0 -2.546875 -0.59375q-1.203125 -0.609375 -1.828125 -1.765625q-0.625 -1.171875 -0.625 -2.828125zm2.625 0.125q0 1.453125 0.671875 2.21875q0.6875 0.75 1.6875 0.75q1.0 0 1.671875 -0.75q0.6875 -0.765625 0.6875 -2.234375q0 -1.421875 -0.6875 -2.1875q-0.671875 -0.765625 -1.671875 -0.765625q-1.0 0 -1.6875 0.765625q-0.671875 0.765625 -0.671875 2.203125zm9.130371 5.484375l2.921875 0.359375q0.0625 0.5 0.328125 0.6875q0.375 0.28125 1.15625 0.28125q1.0 0 1.5 -0.296875q0.328125 -0.203125 0.515625 -0.65625q0.109375 -0.3125 0.109375 -1.171875l0 -1.40625q-1.140625 1.5625 -2.890625 1.5625q-1.953125 0 -3.09375 -1.65625q-0.890625 -1.296875 -0.890625 -3.234375q0 -2.4375 1.171875 -3.71875q1.171875 -1.28125 2.90625 -1.28125q1.796875 0 2.96875 1.578125l0 -1.359375l2.390625 0l0 8.671875q0 1.71875 -0.28125 2.5625q-0.28125 0.84375 -0.796875 1.328125q-0.5 0.484375 -1.359375 0.75q-0.84375 0.28125 -2.15625 0.28125q-2.453125 0 -3.484375 -0.84375q-1.03125 -0.84375 -1.03125 -2.125q0 -0.140625 0.015625 -0.3125zm2.28125 -5.671875q0 1.53125 0.59375 2.25q0.59375 0.71875 1.46875 0.71875q0.9375 0 1.578125 -0.734375q0.65625 -0.734375 0.65625 -2.171875q0 -1.515625 -0.625 -2.234375q-0.609375 -0.734375 -1.5625 -0.734375q-0.921875 0 -1.515625 0.71875q-0.59375 0.71875 -0.59375 2.1875zm9.349121 -5.953125l0 -2.375l2.5625 0l0 2.375l-2.5625 0zm0 10.984375l0 -9.671875l2.5625 0l0 9.671875l-2.5625 0zm13.620789 -6.8125l-2.53125 0.453125q-0.125 -0.75 -0.578125 -1.125q-0.453125 -0.390625 -1.171875 -0.390625q-0.953125 0 -1.53125 0.65625q-0.5625 0.65625 -0.5625 2.203125q0 1.734375 0.578125 2.4375q0.578125 0.703125 1.546875 0.703125q0.734375 0 1.203125 -0.40625q0.46875 -0.421875 0.65625 -1.421875l2.515625 0.421875q-0.390625 1.734375 -1.515625 2.625q-1.109375 0.875 -2.96875 0.875q-2.125 0 -3.390625 -1.328125q-1.25 -1.34375 -1.25 -3.71875q0 -2.390625 1.265625 -3.71875q1.265625 -1.34375 3.421875 -1.34375q1.765625 0 2.796875 0.765625q1.046875 0.75 1.515625 2.3125zm3.8444824 0.09375l-2.328125 -0.421875q0.40625 -1.40625 1.359375 -2.078125q0.953125 -0.671875 2.84375 -0.671875q1.703125 0 2.546875 0.40625q0.84375 0.40625 1.171875 1.03125q0.34375 0.625 0.34375 2.28125l-0.015625 3.0q0 1.265625 0.109375 1.875q0.125 0.609375 0.46875 1.296875l-2.53125 0q-0.109375 -0.25 -0.25 -0.75q-0.0625 -0.234375 -0.09375 -0.3125q-0.65625 0.640625 -1.40625 0.96875q-0.734375 0.3125 -1.59375 0.3125q-1.484375 0 -2.34375 -0.8125q-0.859375 -0.8125 -0.859375 -2.046875q0 -0.828125 0.390625 -1.46875q0.390625 -0.640625 1.09375 -0.96875q0.703125 -0.34375 2.03125 -0.609375q1.796875 -0.328125 2.484375 -0.625l0 -0.25q0 -0.75 -0.359375 -1.0625q-0.359375 -0.3125 -1.375 -0.3125q-0.6875 0 -1.078125 0.28125q-0.375 0.265625 -0.609375 0.9375zm3.421875 2.078125q-0.484375 0.15625 -1.5625 0.390625q-1.0625 0.21875 -1.390625 0.4375q-0.5 0.359375 -0.5 0.90625q0 0.53125 0.40625 0.9375q0.40625 0.390625 1.015625 0.390625q0.703125 0 1.328125 -0.46875q0.46875 -0.34375 0.609375 -0.84375q0.09375 -0.328125 0.09375 -1.25l0 -0.5zm5.0475464 4.640625l0 -13.359375l2.5625 0l0 13.359375l-2.5625 0zm14.804138 -9.671875l0 2.03125l-1.75 0l0 3.90625q0 1.1875 0.046875 1.390625q0.046875 0.1875 0.21875 0.3125q0.1875 0.125 0.4375 0.125q0.359375 0 1.03125 -0.25l0.21875 2.0q-0.890625 0.375 -2.015625 0.375q-0.703125 0 -1.265625 -0.234375q-0.546875 -0.234375 -0.8125 -0.59375q-0.25 -0.375 -0.34375 -1.0q-0.09375 -0.453125 -0.09375 -1.8125l0 -4.21875l-1.171875 0l0 -2.03125l1.171875 0l0 -1.921875l2.578125 -1.5l0 3.421875l1.75 0zm4.2282715 9.671875l-2.5625 0l0 -9.671875l2.375 0l0 1.375q0.609375 -0.984375 1.09375 -1.28125q0.484375 -0.3125 1.109375 -0.3125q0.875 0 1.6875 0.484375l-0.796875 2.234375q-0.640625 -0.421875 -1.203125 -0.421875q-0.53125 0 -0.90625 0.296875q-0.375 0.296875 -0.59375 1.078125q-0.203125 0.765625 -0.203125 3.234375l0 2.984375zm6.71344 -6.71875l-2.328125 -0.421875q0.40625 -1.40625 1.359375 -2.078125q0.953125 -0.671875 2.84375 -0.671875q1.703125 0 2.546875 0.40625q0.84375 0.40625 1.171875 1.03125q0.34375 0.625 0.34375 2.28125l-0.015625 3.0q0 1.265625 0.109375 1.875q0.125 0.609375 0.46875 1.296875l-2.53125 0q-0.109375 -0.25 -0.25 -0.75q-0.0625 -0.234375 -0.09375 -0.3125q-0.65625 0.640625 -1.40625 0.96875q-0.734375 0.3125 -1.59375 0.3125q-1.484375 0 -2.34375 -0.8125q-0.859375 -0.8125 -0.859375 -2.046875q0 -0.828125 0.390625 -1.46875q0.390625 -0.640625 1.09375 -0.96875q0.703125 -0.34375 2.03125 -0.609375q1.796875 -0.328125 2.484375 -0.625l0 -0.25q0 -0.75 -0.359375 -1.0625q-0.359375 -0.3125 -1.375 -0.3125q-0.6875 0 -1.078125 0.28125q-0.375 0.265625 -0.609375 0.9375zm3.421875 2.078125q-0.484375 0.15625 -1.5625 0.390625q-1.0625 0.21875 -1.390625 0.4375q-0.5 0.359375 -0.5 0.90625q0 0.53125 0.40625 0.9375q0.40625 0.390625 1.015625 0.390625q0.703125 0 1.328125 -0.46875q0.46875 -0.34375 0.609375 -0.84375q0.09375 -0.328125 0.09375 -1.25l0 -0.5zm13.844421 4.640625l-2.5625 0l0 -4.9375q0 -1.5625 -0.171875 -2.015625q-0.15625 -0.46875 -0.53125 -0.71875q-0.359375 -0.265625 -0.875 -0.265625q-0.671875 0 -1.203125 0.375q-0.53125 0.359375 -0.734375 0.96875q-0.1875 0.59375 -0.1875 2.21875l0 4.375l-2.546875 0l0 -9.671875l2.375 0l0 1.421875q1.265625 -1.640625 3.1875 -1.640625q0.84375 0 1.546875 0.3125q0.703125 0.296875 1.0625 0.78125q0.359375 0.46875 0.5 1.078125q0.140625 0.59375 0.140625 1.703125l0 6.015625zm1.6928711 -2.765625l2.5625 -0.390625q0.171875 0.75 0.671875 1.140625q0.5 0.390625 1.40625 0.390625q0.984375 0 1.484375 -0.375q0.34375 -0.25 0.34375 -0.671875q0 -0.296875 -0.1875 -0.484375q-0.1875 -0.1875 -0.859375 -0.34375q-3.09375 -0.6875 -3.921875 -1.25q-1.140625 -0.78125 -1.140625 -2.171875q0 -1.265625 0.984375 -2.109375q1.0 -0.859375 3.078125 -0.859375q1.984375 0 2.953125 0.65625q0.96875 0.640625 1.328125 1.90625l-2.40625 0.4375q-0.15625 -0.5625 -0.59375 -0.859375q-0.421875 -0.296875 -1.234375 -0.296875q-1.0 0 -1.4375 0.28125q-0.296875 0.203125 -0.296875 0.515625q0 0.265625 0.25 0.46875q0.34375 0.25 2.390625 0.71875q2.046875 0.453125 2.859375 1.140625q0.796875 0.671875 0.796875 1.890625q0 1.34375 -1.109375 2.296875q-1.109375 0.953125 -3.28125 0.953125q-1.984375 0 -3.140625 -0.796875q-1.140625 -0.8125 -1.5 -2.1875zm10.156982 -6.90625l1.421875 0l0 -0.734375q0 -1.21875 0.25 -1.8125q0.265625 -0.609375 0.953125 -0.984375q0.703125 -0.375 1.78125 -0.375q1.09375 0 2.140625 0.328125l-0.359375 1.78125q-0.609375 -0.140625 -1.171875 -0.140625q-0.546875 0 -0.796875 0.265625q-0.234375 0.25 -0.234375 0.984375l0 0.6875l1.90625 0l0 2.015625l-1.90625 0l0 7.65625l-2.5625 0l0 -7.65625l-1.421875 0l0 -2.015625zm12.9313965 6.59375l2.546875 0.421875q-0.484375 1.40625 -1.546875 2.140625q-1.0625 0.734375 -2.65625 0.734375q-2.515625 0 -3.734375 -1.65625q-0.953125 -1.3125 -0.953125 -3.328125q0 -2.40625 1.25 -3.765625q1.265625 -1.359375 3.1875 -1.359375q2.15625 0 3.40625 1.421875q1.25 1.421875 1.1875 4.375l-6.40625 0q0.03125 1.140625 0.609375 1.78125q0.59375 0.625 1.484375 0.625q0.59375 0 1.0 -0.328125q0.421875 -0.328125 0.625 -1.0625zm0.15625 -2.59375q-0.03125 -1.109375 -0.578125 -1.6875q-0.546875 -0.578125 -1.328125 -0.578125q-0.84375 0 -1.390625 0.609375q-0.546875 0.609375 -0.53125 1.65625l3.828125 0zm7.0788574 5.671875l-2.5625 0l0 -9.671875l2.375 0l0 1.375q0.609375 -0.984375 1.09375 -1.28125q0.484375 -0.3125 1.109375 -0.3125q0.875 0 1.6875 0.484375l-0.796875 2.234375q-0.640625 -0.421875 -1.203125 -0.421875q-0.53125 0 -0.90625 0.296875q-0.375 0.296875 -0.59375 1.078125q-0.203125 0.765625 -0.203125 3.234375l0 2.984375z" fill-rule="nonzero"/><path fill="#ffffff" d="m27.509186 65.070984l0 0c0 -3.1659203 2.5664825 -5.732403 5.732399 -5.732403l40.629692 0c1.5203247 0 2.978386 0.6039505 4.0534134 1.6789818c1.0750351 1.0750351 1.6789856 2.5330925 1.6789856 4.053421l0 22.928902c0 3.1659164 -2.5664825 5.732399 -5.732399 5.732399l-40.629692 0c-3.1659164 0 -5.732399 -2.5664825 -5.732399 -5.732399z" fill-rule="evenodd"/><path stroke="#000000" stroke-width="4.0" stroke-linejoin="round" stroke-linecap="butt" d="m27.509186 65.070984l0 0c0 -3.1659203 2.5664825 -5.732403 5.732399 -5.732403l40.629692 0c1.5203247 0 2.978386 0.6039505 4.0534134 1.6789818c1.0750351 1.0750351 1.6789856 2.5330925 1.6789856 4.053421l0 22.928902c0 3.1659164 -2.5664825 5.732399 -5.732399 5.732399l-40.629692 0c-3.1659164 0 -5.732399 -2.5664825 -5.732399 -5.732399z" fill-rule="evenodd"/><path fill="#ffffff" d="m341.1811 65.06967l0 0c0 -3.1659203 2.5664978 -5.732403 5.732422 -5.732403l40.62967 0c1.5203247 0 2.9783936 0.6039505 4.0534363 1.6789818c1.0750122 1.0750351 1.6789856 2.5330925 1.6789856 4.053421l0 22.928902c0 3.1659164 -2.5664978 5.732399 -5.732422 5.732399l-40.62967 0c-3.165924 0 -5.732422 -2.5664825 -5.732422 -5.732399z" fill-rule="evenodd"/><path stroke="#000000" stroke-width="4.0" stroke-linejoin="round" stroke-linecap="butt" d="m341.1811 65.06967l0 0c0 -3.1659203 2.5664978 -5.732403 5.732422 -5.732403l40.62967 0c1.5203247 0 2.9783936 0.6039505 4.0534363 1.6789818c1.0750122 1.0750351 1.6789856 2.5330925 1.6789856 4.053421l0 22.928902c0 3.1659164 -2.5664978 5.732399 -5.732422 5.732399l-40.62967 0c-3.165924 0 -5.732422 -2.5664825 -5.732422 -5.732399z" fill-rule="evenodd"/><path fill="#ffffff" d="m305.84384 116.612976l0 0c0 -3.1659164 2.5664673 -5.732399 5.7323914 -5.732399l40.6297 0c1.5203247 0 2.978363 0.6039505 4.053406 1.678978c1.0750427 1.0750351 1.6789856 2.5330963 1.6789856 4.053421l0 22.92891c0 3.1659088 -2.5664978 5.7323914 -5.7323914 5.7323914l-40.6297 0c-3.165924 0 -5.7323914 -2.5664825 -5.7323914 -5.7323914z" fill-rule="evenodd"/><path stroke="#000000" stroke-width="4.0" stroke-linejoin="round" stroke-linecap="butt" d="m305.84384 116.612976l0 0c0 -3.1659164 2.5664673 -5.732399 5.7323914 -5.732399l40.6297 0c1.5203247 0 2.978363 0.6039505 4.053406 1.678978c1.0750427 1.0750351 1.6789856 2.5330963 1.6789856 4.053421l0 22.92891c0 3.1659088 -2.5664978 5.7323914 -5.7323914 5.7323914l-40.6297 0c-3.165924 0 -5.7323914 -2.5664825 -5.7323914 -5.7323914z" fill-rule="evenodd"/><path fill="#ffffff" d="m411.47507 176.1576l0 0c0 -3.1659088 2.5664673 -5.7323914 5.7323914 -5.7323914l40.6297 0c1.5203247 0 2.9783936 0.6039429 4.053406 1.6789703c1.0750427 1.0750427 1.6789856 2.5330963 1.6789856 4.053421l0 22.92891c0 3.1659088 -2.5664673 5.7323914 -5.7323914 5.7323914l-40.6297 0c-3.165924 0 -5.7323914 -2.5664825 -5.7323914 -5.7323914z" fill-rule="evenodd"/><path stroke="#000000" stroke-width="4.0" stroke-linejoin="round" stroke-linecap="butt" d="m411.47507 176.1576l0 0c0 -3.1659088 2.5664673 -5.7323914 5.7323914 -5.7323914l40.6297 0c1.5203247 0 2.9783936 0.6039429 4.053406 1.6789703c1.0750427 1.0750427 1.6789856 2.5330963 1.6789856 4.053421l0 22.92891c0 3.1659088 -2.5664673 5.7323914 -5.7323914 5.7323914l-40.6297 0c-3.165924 0 -5.7323914 -2.5664825 -5.7323914 -5.7323914z" fill-rule="evenodd"/><path fill="#ffffff" d="m376.67453 116.61429l0 0c0 -3.1659164 2.5664978 -5.732399 5.732422 -5.732399l40.62967 0c1.5203247 0 2.9783936 0.6039505 4.0534363 1.678978c1.0750122 1.0750351 1.6789856 2.5330963 1.6789856 4.053421l0 22.92891c0 3.1659088 -2.5664978 5.7323914 -5.732422 5.7323914l-40.62967 0c-3.165924 0 -5.732422 -2.5664825 -5.732422 -5.7323914z" fill-rule="evenodd"/><path stroke="#000000" stroke-width="4.0" stroke-linejoin="round" stroke-linecap="butt" d="m376.67453 116.61429l0 0c0 -3.1659164 2.5664978 -5.732399 5.732422 -5.732399l40.62967 0c1.5203247 0 2.9783936 0.6039505 4.0534363 1.678978c1.0750122 1.0750351 1.6789856 2.5330963 1.6789856 4.053421l0 22.92891c0 3.1659088 -2.5664978 5.7323914 -5.732422 5.7323914l-40.62967 0c-3.165924 0 -5.732422 -2.5664825 -5.732422 -5.7323914z" fill-rule="evenodd"/><path fill="#000000" fill-opacity="0.0" d="m367.22833 93.73097l-35.338562 17.165352" fill-rule="evenodd"/><path stroke="#000000" stroke-width="2.0" stroke-linejoin="round" stroke-linecap="butt" d="m367.22833 93.73097l-29.173248 14.170616" fill-rule="evenodd"/><path fill="#000000" stroke="#000000" stroke-width="2.0" stroke-linecap="butt" d="m338.05508 107.90158l1.0404053 -3.0058365l-4.575775 4.7231064l6.5411987 -0.676857z" fill-rule="evenodd"/><path fill="#000000" fill-opacity="0.0" d="m367.22833 93.73097l35.496063 17.165352" fill-rule="evenodd"/><path stroke="#000000" stroke-width="2.0" stroke-linejoin="round" stroke-linecap="butt" d="m367.22833 93.73097l29.325562 14.181381" fill-rule="evenodd"/><path fill="#000000" stroke="#000000" stroke-width="2.0" stroke-linecap="butt" d="m396.55386 107.912346l-3.0039978 1.0456543l6.5423584 0.6654434l-4.584015 -4.715111z" fill-rule="evenodd"/><path fill="#000000" fill-opacity="0.0" d="m331.89108 145.27428l35.40158 25.16536" fill-rule="evenodd"/><path stroke="#000000" stroke-width="2.0" stroke-linejoin="round" stroke-linecap="butt" d="m331.89108 145.27428l29.815033 21.194153" fill-rule="evenodd"/><path fill="#000000" stroke="#000000" stroke-width="2.0" stroke-linecap="butt" d="m361.70612 166.46843l-3.136322 0.5300598l6.339813 1.7471313l-3.733551 -5.413513z" fill-rule="evenodd"/><path fill="#000000" fill-opacity="0.0" d="m331.89108 145.27428l-34.960632 25.16536" fill-rule="evenodd"/><path stroke="#000000" stroke-width="2.0" stroke-linejoin="round" stroke-linecap="butt" d="m331.89108 145.27428l-29.397766 21.161087" fill-rule="evenodd"/><path fill="#000000" stroke="#000000" stroke-width="2.0" stroke-linecap="butt" d="m302.49332 166.43536l0.5114441 -3.1394043l-3.701355 5.435562l6.329315 -1.7846985z" fill-rule="evenodd"/><path fill="#000000" fill-opacity="0.0" d="m402.72177 145.27559l34.80316 25.16536" fill-rule="evenodd"/><path stroke="#000000" stroke-width="2.0" stroke-linejoin="round" stroke-linecap="butt" d="m402.72177 145.27559l29.24887 21.149185" fill-rule="evenodd"/><path fill="#000000" stroke="#000000" stroke-width="2.0" stroke-linecap="butt" d="m431.97064 166.42477l-3.140503 0.50471497l6.3255005 1.7982635l-3.6896973 -5.4434814z" fill-rule="evenodd"/><path fill="#cccccc" d="m363.7244 235.68504l0 -18.598434l-3.582672 0l7.1653748 -7.165344l7.165344 7.165344l-3.582672 0l0 18.598434z" fill-rule="evenodd"/><path stroke="#000000" stroke-width="4.0" stroke-linejoin="round" stroke-linecap="butt" d="m363.7244 235.68504l0 -18.598434l-3.582672 0l7.1653748 -7.165344l7.165344 7.165344l-3.582672 0l0 18.598434z" fill-rule="evenodd"/><path fill="#cccccc" d="m167.23491 135.0185l0 0c0 -3.165924 2.5664825 -5.7324066 5.7323914 -5.7324066l40.6297 0c1.5203247 0 2.9783783 0.6039429 4.053421 1.6789856c1.0750275 1.0750275 1.6789703 2.533081 1.6789703 4.053421l0 22.928894c0 3.165924 -2.5664825 5.7324066 -5.7323914 5.7324066l-40.6297 0c-3.1659088 0 -5.7323914 -2.5664825 -5.7323914 -5.7324066z" fill-rule="evenodd"/><path stroke="#000000" stroke-width="4.0" stroke-linejoin="round" stroke-linecap="butt" d="m167.23491 135.0185l0 0c0 -3.165924 2.5664825 -5.7324066 5.7323914 -5.7324066l40.6297 0c1.5203247 0 2.9783783 0.6039429 4.053421 1.6789856c1.0750275 1.0750275 1.6789703 2.533081 1.6789703 4.053421l0 22.928894c0 3.165924 -2.5664825 5.7324066 -5.7323914 5.7324066l-40.6297 0c-3.1659088 0 -5.7323914 -2.5664825 -5.7323914 -5.7324066z" fill-rule="evenodd"/><path fill="#000000" d="m188.25058 146.21544l-0.140625 -0.6875q0.46875 -0.375 0.921875 -0.578125q0.453125 -0.21875 1.0625 -0.3125q0.625 -0.09375 1.59375 -0.09375l6.53125 0l0.078125 1.34375l-2.40625 -0.078125l0.140625 4.984375q0.046875 0.9375 0.3125 1.25q0.28125 0.3125 0.828125 0.3125q0.1875 0 0.40625 -0.046875q0.234375 -0.046875 0.421875 -0.125l0.140625 0.46875q-0.328125 0.5 -0.71875 0.75q-0.375 0.25 -0.9375 0.25q-0.96875 0 -1.4375 -0.5625q-0.453125 -0.578125 -0.453125 -1.734375q0 -1.15625 0.0625 -2.640625q0.078125 -1.484375 0.140625 -2.921875l-3.0 0q-0.015625 1.421875 -0.046875 2.84375q-0.03125 1.40625 -0.125 2.765625q-0.09375 1.203125 -0.578125 1.734375q-0.484375 0.515625 -1.296875 0.515625q-0.5 0 -0.828125 -0.25q-0.3125 -0.265625 -0.3125 -0.6875q0 -0.34375 0.09375 -0.53125q0.109375 -0.203125 0.296875 -0.34375q0.703125 -0.140625 1.640625 -0.234375q0.15625 -1.4375 0.21875 -2.875q0.0625 -1.453125 0.09375 -2.90625l-2.703125 0.390625z" fill-rule="nonzero"/><path fill="#cccccc" d="m189.70079 124.18372l0 -18.59842l-3.5826874 0l7.1653595 -7.1653595l7.1653595 7.1653595l-3.5826874 0l0 18.59842z" fill-rule="evenodd"/><path stroke="#000000" stroke-width="4.0" stroke-linejoin="round" stroke-linecap="butt" d="m189.70079 124.18372l0 -18.59842l-3.5826874 0l7.1653595 -7.1653595l7.1653595 7.1653595l-3.5826874 0l0 18.59842z" fill-rule="evenodd"/><path fill="#000000" fill-opacity="0.0" d="m79.603676 76.53543l17.763779 0" fill-rule="evenodd"/><path stroke="#000000" stroke-width="1.0" stroke-linejoin="round" stroke-linecap="butt" stroke-dasharray="4.0,3.0" d="m79.603676 76.53543l14.336693 0" fill-rule="evenodd"/><path fill="#000000" stroke="#000000" stroke-width="1.0" stroke-linecap="butt" d="m93.94037 76.53543l-1.124588 1.124588l3.0897675 -1.124588l-3.0897675 -1.1245804z" fill-rule="evenodd"/><path fill="#000000" fill-opacity="0.0" d="m149.46588 76.53543l17.763779 0" fill-rule="evenodd"/><path stroke="#000000" stroke-width="1.0" stroke-linejoin="round" stroke-linecap="butt" stroke-dasharray="4.0,3.0" d="m149.46588 76.53543l14.3367 0" fill-rule="evenodd"/><path fill="#000000" stroke="#000000" stroke-width="1.0" stroke-linecap="butt" d="m163.80257 76.53543l-1.1245728 1.124588l3.0897675 -1.124588l-3.0897675 -1.1245804z" fill-rule="evenodd"/><path fill="#000000" fill-opacity="0.0" d="m357.93832 128.07742l18.740143 0" fill-rule="evenodd"/><path stroke="#000000" stroke-width="1.0" stroke-linejoin="round" stroke-linecap="butt" stroke-dasharray="4.0,3.0" d="m357.93832 128.07742l15.31308 0" fill-rule="evenodd"/><path fill="#000000" stroke="#000000" stroke-width="1.0" stroke-linecap="butt" d="m373.2514 128.07742l-1.1246033 1.124588l3.0897827 -1.124588l-3.0897827 -1.1245804z" fill-rule="evenodd"/><path fill="#000000" fill-opacity="0.0" d="m322.98032 187.62204l18.2677 0" fill-rule="evenodd"/><path stroke="#000000" stroke-width="1.0" stroke-linejoin="round" stroke-linecap="butt" stroke-dasharray="4.0,3.0" d="m322.98032 187.62204l14.840637 0" fill-rule="evenodd"/><path fill="#000000" stroke="#000000" stroke-width="1.0" stroke-linecap="butt" d="m337.82095 187.62204l-1.1246033 1.124588l3.0897827 -1.124588l-3.0897827 -1.1245728z" fill-rule="evenodd"/></g></svg>