<svg version="1.1" viewBox="0.0 0.0 371.37007874015745 705.8792650918635" fill="none" stroke="none" stroke-linecap="square" stroke-miterlimit="10" xmlns:xlink="http://www.w3.org/1999/xlink" xmlns="http://www.w3.org/2000/svg"><clipPath id="p.0"><path d="m0 0l371.3701 0l0 705.8793l-371.3701 0l0 -705.8793z" clip-rule="nonzero"/></clipPath><g clip-path="url(#p.0)"><path fill="#000000" fill-opacity="0.0" d="m0 0l371.3701 0l0 705.8793l-371.3701 0z" fill-rule="evenodd"/><path fill="#ffffff" d="m72.02362 419.31116l0 0c0 -3.728363 3.0224304 -6.7507935 6.7507935 -6.7507935l47.852745 0c1.7904282 0 3.507515 0.7112427 4.7735367 1.9772644c1.2660217 1.2660217 1.9772644 2.9830933 1.9772644 4.773529l0 27.00235c0 3.728363 -3.0224457 6.7507935 -6.750801 6.7507935l-47.852745 0c-3.728363 0 -6.7507935 -3.0224304 -6.7507935 -6.7507935z" fill-rule="evenodd"/><path stroke="#000000" stroke-width="4.0" stroke-linejoin="round" stroke-linecap="butt" d="m72.02362 419.31116l0 0c0 -3.728363 3.0224304 -6.7507935 6.7507935 -6.7507935l47.852745 0c1.7904282 0 3.507515 0.7112427 4.7735367 1.9772644c1.2660217 1.2660217 1.9772644 2.9830933 1.9772644 4.773529l0 27.00235c0 3.728363 -3.0224457 6.7507935 -6.750801 6.7507935l-47.852745 0c-3.728363 0 -6.7507935 -3.0224304 -6.7507935 -6.7507935z" fill-rule="evenodd"/><path fill="#ffffff" d="m154.69807 71.91352l0 0c0 -3.7283554 3.0224304 -6.7507935 6.7507935 -6.7507935l47.852753 0c1.7904205 0 3.5075073 0.7112427 4.773529 1.9772644c1.2660217 1.2660141 1.9772644 2.9831085 1.9772644 4.773529l0 27.002357c0 3.7283554 -3.0224304 6.750786 -6.7507935 6.750786l-47.852753 0c-3.728363 0 -6.7507935 -3.0224304 -6.7507935 -6.750786z" fill-rule="evenodd"/><path stroke="#000000" stroke-width="4.0" stroke-linejoin="round" stroke-linecap="butt" d="m154.69807 71.91352l0 0c0 -3.7283554 3.0224304 -6.7507935 6.7507935 -6.7507935l47.852753 0c1.7904205 0 3.5075073 0.7112427 4.773529 1.9772644c1.2660217 1.2660141 1.9772644 2.9831085 1.9772644 4.773529l0 27.002357c0 3.7283554 -3.0224304 6.750786 -6.7507935 6.750786l-47.852753 0c-3.728363 0 -6.7507935 -3.0224304 -6.7507935 -6.750786z" fill-rule="evenodd"/><path fill="#cccccc" d="m236.985 71.91352l0 0c0 -3.7283554 3.0224304 -6.7507935 6.7507935 -6.7507935l47.852737 0c1.7904358 0 3.5075073 0.7112427 4.773529 1.9772644c1.2660217 1.2660141 1.9772644 2.9831085 1.9772644 4.773529l0 27.002357c0 3.7283554 -3.0224304 6.750786 -6.7507935 6.750786l-47.852737 0c-3.728363 0 -6.7507935 -3.0224304 -6.7507935 -6.750786z" fill-rule="evenodd"/><path stroke="#000000" stroke-width="4.0" stroke-linejoin="round" stroke-linecap="butt" d="m236.985 71.91352l0 0c0 -3.7283554 3.0224304 -6.7507935 6.7507935 -6.7507935l47.852737 0c1.7904358 0 3.5075073 0.7112427 4.773529 1.9772644c1.2660217 1.2660141 1.9772644 2.9831085 1.9772644 4.773529l0 27.002357c0 3.7283554 -3.0224304 6.750786 -6.7507935 6.750786l-47.852737 0c-3.728363 0 -6.7507935 -3.0224304 -6.7507935 -6.750786z" fill-rule="evenodd"/><path fill="#000000" d="m262.63058 85.147194l-0.140625 -0.6875q0.46875 -0.375 0.921875 -0.578125q0.453125 -0.21875 1.0625 -0.3125q0.625 -0.09375 1.59375 -0.09375l6.53125 0l0.078125 1.34375l-2.40625 -0.078125l0.140625 4.984375q0.046875 0.9375 0.3125 1.25q0.28125 0.3125 0.828125 0.3125q0.1875 0 0.40625 -0.046875q0.234375 -0.046875 0.421875 -0.125l0.140625 0.46875q-0.328125 0.5 -0.71875 0.75q-0.375 0.25 -0.9375 0.25q-0.96875 0 -1.4375 -0.5625q-0.453125 -0.578125 -0.453125 -1.734375q0 -1.15625 0.0625 -2.640625q0.078125 -1.484375 0.140625 -2.921875l-3.0 0q-0.015625 1.421875 -0.046875 2.84375q-0.03125 1.40625 -0.125 2.765625q-0.09375 1.203125 -0.578125 1.734375q-0.484375 0.515625 -1.296875 0.515625q-0.5 0 -0.828125 -0.25q-0.3125 -0.265625 -0.3125 -0.6875q0 -0.34375 0.09375 -0.53125q0.109375 -0.203125 0.296875 -0.34375q0.703125 -0.140625 1.640625 -0.234375q0.15625 -1.4375 0.21875 -2.875q0.0625 -1.453125 0.09375 -2.90625l-2.703125 0.390625z" fill-rule="nonzero"/><path fill="#cccccc" d="m154.91028 419.31116l0 0c0 -3.728363 3.0224304 -6.7507935 6.7507935 -6.7507935l47.852737 0c1.7904358 0 3.5075226 0.7112427 4.7735443 1.9772644c1.2660065 1.2660217 1.9772491 2.9830933 1.9772491 4.773529l0 27.00235c0 3.728363 -3.0224304 6.7507935 -6.7507935 6.7507935l-47.852737 0c-3.728363 0 -6.7507935 -3.0224304 -6.7507935 -6.7507935z" fill-rule="evenodd"/><path stroke="#000000" stroke-width="4.0" stroke-linejoin="round" stroke-linecap="butt" d="m154.91028 419.31116l0 0c0 -3.728363 3.0224304 -6.7507935 6.7507935 -6.7507935l47.852737 0c1.7904358 0 3.5075226 0.7112427 4.7735443 1.9772644c1.2660065 1.2660217 1.9772491 2.9830933 1.9772491 4.773529l0 27.00235c0 3.728363 -3.0224304 6.7507935 -6.7507935 6.7507935l-47.852737 0c-3.728363 0 -6.7507935 -3.0224304 -6.7507935 -6.7507935z" fill-rule="evenodd"/><path fill="#000000" d="m180.55586 432.54483l-0.140625 -0.6875q0.46875 -0.375 0.921875 -0.578125q0.453125 -0.21875 1.0625 -0.3125q0.625 -0.09375 1.59375 -0.09375l6.53125 0l0.078125 1.34375l-2.40625 -0.078125l0.140625 4.984375q0.046875 0.9375 0.3125 1.25q0.28125 0.3125 0.828125 0.3125q0.1875 0 0.40625 -0.046875q0.234375 -0.046875 0.421875 -0.125l0.140625 0.46875q-0.328125 0.5 -0.71875 0.75q-0.375 0.25 -0.9375 0.25q-0.96875 0 -1.4375 -0.5625q-0.453125 -0.578125 -0.453125 -1.734375q0 -1.15625 0.0625 -2.640625q0.078125 -1.484375 0.140625 -2.921875l-3.0 0q-0.015625 1.421875 -0.046875 2.84375q-0.03125 1.40625 -0.125 2.765625q-0.09375 1.203125 -0.578125 1.734375q-0.484375 0.515625 -1.296875 0.515625q-0.5 0 -0.828125 -0.25q-0.3125 -0.265625 -0.3125 -0.6875q0 -0.34375 0.09375 -0.53125q0.109375 -0.203125 0.296875 -0.34375q0.703125 -0.140625 1.640625 -0.234375q0.15625 -1.4375 0.21875 -2.875q0.0625 -1.453125 0.09375 -2.90625l-2.703125 0.390625z" fill-rule="nonzero"/><path fill="#cccccc" d="m154.91028 502.1855l0 0c0 -3.728363 3.0224304 -6.7507935 6.7507935 -6.7507935l47.852737 0c1.7904358 0 3.5075226 0.7112427 4.7735443 1.9772644c1.2660065 1.2660217 1.9772491 2.9831238 1.9772491 4.773529l0 27.00238c0 3.7283325 -3.0224304 6.7507935 -6.7507935 6.7507935l-47.852737 0c-3.728363 0 -6.7507935 -3.022461 -6.7507935 -6.7507935z" fill-rule="evenodd"/><path stroke="#000000" stroke-width="4.0" stroke-linejoin="round" stroke-linecap="butt" d="m154.91028 502.1855l0 0c0 -3.728363 3.0224304 -6.7507935 6.7507935 -6.7507935l47.852737 0c1.7904358 0 3.5075226 0.7112427 4.7735443 1.9772644c1.2660065 1.2660217 1.9772491 2.9831238 1.9772491 4.773529l0 27.00238c0 3.7283325 -3.0224304 6.7507935 -6.7507935 6.7507935l-47.852737 0c-3.728363 0 -6.7507935 -3.022461 -6.7507935 -6.7507935z" fill-rule="evenodd"/><path fill="#000000" d="m180.55586 515.4192l-0.140625 -0.6875q0.46875 -0.375 0.921875 -0.578125q0.453125 -0.21875 1.0625 -0.3125q0.625 -0.09375 1.59375 -0.09375l6.53125 0l0.078125 1.34375l-2.40625 -0.078125l0.140625 4.984375q0.046875 0.9375 0.3125 1.25q0.28125 0.3125 0.828125 0.3125q0.1875 0 0.40625 -0.046875q0.234375 -0.046875 0.421875 -0.125l0.140625 0.46875q-0.328125 0.5 -0.71875 0.75q-0.375 0.25 -0.9375 0.25q-0.96875 0 -1.4375 -0.5625q-0.453125 -0.578125 -0.453125 -1.734375q0 -1.15625 0.0625 -2.640625q0.078125 -1.484375 0.140625 -2.921875l-3.0 0q-0.015625 1.421875 -0.046875 2.84375q-0.03125 1.40625 -0.125 2.765625q-0.09375 1.203125 -0.578125 1.734375q-0.484375 0.515625 -1.296875 0.515625q-0.5 0 -0.828125 -0.25q-0.3125 -0.265625 -0.3125 -0.6875q0 -0.34375 0.09375 -0.53125q0.109375 -0.203125 0.296875 -0.34375q0.703125 -0.140625 1.640625 -0.234375q0.15625 -1.4375 0.21875 -2.875q0.0625 -1.453125 0.09375 -2.90625l-2.703125 0.390625z" fill-rule="nonzero"/><path fill="#c9daf8" d="m207.86821 643.79486l0 0c0 -3.7283936 3.0224304 -6.7507935 6.750778 -6.7507935l47.852753 0c1.7904358 0 3.5075073 0.7112427 4.773529 1.9772339c1.2660217 1.2660522 1.9772644 2.9831543 1.9772644 4.7735596l0 27.00232c0 3.7283936 -3.0224304 6.7507935 -6.7507935 6.7507935l-47.852753 0c-3.7283478 0 -6.750778 -3.0224 -6.750778 -6.7507935z" fill-rule="evenodd"/><path stroke="#000000" stroke-width="4.0" stroke-linejoin="round" stroke-linecap="butt" d="m207.86821 643.79486l0 0c0 -3.7283936 3.0224304 -6.7507935 6.750778 -6.7507935l47.852753 0c1.7904358 0 3.5075073 0.7112427 4.773529 1.9772339c1.2660217 1.2660522 1.9772644 2.9831543 1.9772644 4.7735596l0 27.00232c0 3.7283936 -3.0224304 6.7507935 -6.7507935 6.7507935l-47.852753 0c-3.7283478 0 -6.750778 -3.0224 -6.750778 -6.7507935z" fill-rule="evenodd"/><path fill="#000000" d="m231.19109 657.0285l-0.140625 -0.6875q0.46875 -0.375 0.921875 -0.578125q0.453125 -0.21875 1.0625 -0.3125q0.625 -0.09375 1.59375 -0.09375l6.53125 0l0.078125 1.34375l-2.40625 -0.078125l0.140625 4.984375q0.046875 0.9375 0.3125 1.25q0.28125 0.3125 0.828125 0.3125q0.1875 0 0.40625 -0.046875q0.234375 -0.046875 0.421875 -0.125l0.140625 0.46875q-0.328125 0.5 -0.71875 0.75q-0.375 0.25 -0.9375 0.25q-0.96875 0 -1.4375 -0.5625q-0.453125 -0.578125 -0.453125 -1.734375q0 -1.15625 0.0625 -2.640625q0.078125 -1.484375 0.140625 -2.921875l-3.0 0q-0.015625 1.421875 -0.046875 2.84375q-0.03125 1.40625 -0.125 2.765625q-0.09375 1.203125 -0.578125 1.734375q-0.484375 0.515625 -1.296875 0.515625q-0.5 0 -0.828125 -0.25q-0.3125 -0.265625 -0.3125 -0.6875q0 -0.34375 0.09375 -0.53125q0.109375 -0.203125 0.296875 -0.34375q0.703125 -0.140625 1.640625 -0.234375q0.15625 -1.4375 0.21875 -2.875q0.0625 -1.453125 0.09375 -2.90625l-2.703125 0.390625zm11.781906 -0.921875l0.296875 -5.359375q0.21875 -0.15625 0.4375 -0.21875q0.234375 -0.0625 0.46875 -0.0625q0.4375 0 0.6875 0.28125q0.25 0.28125 0.25 0.6875q0 0.53125 -0.296875 1.453125q-0.28125 0.90625 -0.65625 2.0q-0.125 0.3125 -0.25 0.65625q-0.109375 0.328125 -0.234375 0.671875l-0.703125 -0.109375z" fill-rule="nonzero"/><path fill="#cccccc" d="m101.53327 643.79486l0 0c0 -3.7283936 3.0224304 -6.7507935 6.750786 -6.7507935l47.852753 0c1.7904205 0 3.5075073 0.7112427 4.773529 1.9772339c1.2660217 1.2660522 1.9772644 2.9831543 1.9772644 4.7735596l0 27.00232c0 3.7283936 -3.0224304 6.7507935 -6.7507935 6.7507935l-47.852753 0c-3.7283554 0 -6.750786 -3.0224 -6.750786 -6.7507935z" fill-rule="evenodd"/><path stroke="#000000" stroke-width="4.0" stroke-linejoin="round" stroke-linecap="butt" d="m101.53327 643.79486l0 0c0 -3.7283936 3.0224304 -6.7507935 6.750786 -6.7507935l47.852753 0c1.7904205 0 3.5075073 0.7112427 4.773529 1.9772339c1.2660217 1.2660522 1.9772644 2.9831543 1.9772644 4.7735596l0 27.00232c0 3.7283936 -3.0224304 6.7507935 -6.7507935 6.7507935l-47.852753 0c-3.7283554 0 -6.750786 -3.0224 -6.750786 -6.7507935z" fill-rule="evenodd"/><path fill="#000000" d="m127.178856 657.0285l-0.140625 -0.6875q0.46875 -0.375 0.921875 -0.578125q0.45313263 -0.21875 1.0625076 -0.3125q0.625 -0.09375 1.59375 -0.09375l6.53125 0l0.078125 1.34375l-2.40625 -0.078125l0.140625 4.984375q0.046875 0.9375 0.3125 1.25q0.28125 0.3125 0.828125 0.3125q0.1875 0 0.40625 -0.046875q0.234375 -0.046875 0.421875 -0.125l0.140625 0.46875q-0.328125 0.5 -0.71875 0.75q-0.375 0.25 -0.9375 0.25q-0.96875 0 -1.4375 -0.5625q-0.453125 -0.578125 -0.453125 -1.734375q0 -1.15625 0.0625 -2.640625q0.078125 -1.484375 0.140625 -2.921875l-3.0 0q-0.015625 1.421875 -0.046875 2.84375q-0.03125 1.40625 -0.125 2.765625q-0.09375 1.203125 -0.578125 1.734375q-0.484375 0.515625 -1.296875 0.515625q-0.5 0 -0.8281326 -0.25q-0.3125 -0.265625 -0.3125 -0.6875q0 -0.34375 0.09375 -0.53125q0.109375 -0.203125 0.296875 -0.34375q0.7031326 -0.140625 1.6406326 -0.234375q0.15625 -1.4375 0.21875 -2.875q0.0625 -1.453125 0.09375 -2.90625l-2.7031326 0.390625z" fill-rule="nonzero"/><defs><linearGradient id="p.1" gradientUnits="userSpaceOnUse" gradientTransform="matrix(5.507331332759329 0.0 0.0 5.507331332759329 0.0 0.0)" spreadMethod="pad" x1="30.905849567918672" y1="120.88274075943838" x2="36.413180900678" y2="120.88274075943838"><stop offset="0.0" stop-color="#bfbfbf"/><stop offset="1.0" stop-color="#cfe2f3"/></linearGradient></defs><path fill="url(#p.1)" d="m170.20876 653.0799l21.889755 0l0 -4.22052l8.4409485 8.440979l-8.4409485 8.440918l0 -4.220459l-21.889755 0z" fill-rule="evenodd"/><path stroke="#000000" stroke-width="4.0" stroke-linejoin="round" stroke-linecap="butt" d="m170.20876 653.0799l21.889755 0l0 -4.22052l8.4409485 8.440979l-8.4409485 8.440918l0 -4.220459l-21.889755 0z" fill-rule="evenodd"/><path fill="#000000" fill-opacity="0.0" d="m22.927578 13.446195l325.13385 0l0 51.716534l-325.13385 0z" fill-rule="evenodd"/><path fill="#000000" d="m65.735695 41.843067l3.75 -0.375q0.328125 1.890625 1.359375 2.78125q1.046875 0.875 2.796875 0.875q1.859375 0 2.796875 -0.78125q0.953125 -0.78125 0.953125 -1.84375q0 -0.671875 -0.40625 -1.140625q-0.390625 -0.484375 -1.375 -0.828125q-0.671875 -0.234375 -3.09375 -0.84375q-3.09375 -0.765625 -4.34375 -1.890625q-1.75 -1.5625 -1.75 -3.828125q0 -1.46875 0.828125 -2.734375q0.828125 -1.265625 2.375 -1.921875q1.5625 -0.671875 3.75 -0.671875q3.59375 0 5.40625 1.578125q1.828125 1.578125 1.921875 4.203125l-3.859375 0.171875q-0.25 -1.46875 -1.0625 -2.109375q-0.8125 -0.65625 -2.4375 -0.65625q-1.6875 0 -2.625 0.6875q-0.609375 0.453125 -0.609375 1.1875q0 0.671875 0.5625 1.15625q0.734375 0.609375 3.546875 1.28125q2.8125 0.65625 4.15625 1.375q1.34375 0.703125 2.109375 1.9375q0.765625 1.234375 0.765625 3.03125q0 1.640625 -0.921875 3.078125q-0.90625 1.4375 -2.578125 2.140625q-1.65625 0.6875 -4.140625 0.6875q-3.625 0 -5.5625 -1.671875q-1.9375 -1.671875 -2.3125 -4.875zm26.732635 1.796875l3.640625 0.625q-0.703125 2.0 -2.21875 3.046875q-1.515625 1.046875 -3.796875 1.046875q-3.609375 0 -5.328125 -2.359375q-1.375 -1.890625 -1.375 -4.765625q0 -3.4375 1.796875 -5.375q1.796875 -1.953125 4.546875 -1.953125q3.078125 0 4.859375 2.046875q1.78125 2.03125 1.703125 6.234375l-9.15625 0q0.046875 1.625 0.890625 2.53125q0.84375 0.90625 2.109375 0.90625q0.859375 0 1.4375 -0.46875q0.59375 -0.46875 0.890625 -1.515625zm0.203125 -3.6875q-0.03125 -1.59375 -0.8125 -2.421875q-0.78125 -0.828125 -1.90625 -0.828125q-1.203125 0 -1.984375 0.875q-0.78125 0.875 -0.765625 2.375l5.46875 0zm15.653061 13.359375l0 -6.953125q-0.71875 0.921875 -1.796875 1.46875q-1.0625 0.53125 -2.296875 0.53125q-2.359375 0 -3.875 -1.765625q-1.796875 -2.078125 -1.796875 -5.609375q0 -3.34375 1.6875 -5.203125q1.6875 -1.875 4.171875 -1.875q1.390625 0 2.390625 0.59375q1.015625 0.578125 1.796875 1.765625l0 -2.046875l3.375 0l0 19.09375l-3.65625 0zm0.109375 -12.34375q0 -2.125 -0.875 -3.15625q-0.859375 -1.03125 -2.15625 -1.03125q-1.328125 0 -2.21875 1.0625q-0.890625 1.046875 -0.890625 3.328125q0 2.28125 0.859375 3.296875q0.859375 1.0 2.125 1.0q1.25 0 2.203125 -1.125q0.953125 -1.140625 0.953125 -3.375zm16.235825 7.078125l0 -2.0625q-0.765625 1.09375 -2.0 1.734375q-1.21875 0.640625 -2.578125 0.640625q-1.40625 0 -2.515625 -0.609375q-1.09375 -0.609375 -1.59375 -1.71875q-0.5 -1.109375 -0.5 -3.0625l0 -8.75l3.671875 0l0 6.359375q0 2.90625 0.1875 3.578125q0.203125 0.65625 0.734375 1.046875q0.546875 0.375 1.359375 0.375q0.9375 0 1.671875 -0.515625q0.75 -0.515625 1.015625 -1.28125q0.28125 -0.765625 0.28125 -3.71875l0 -5.84375l3.6562424 0l0 13.828125l-3.3906174 0zm15.188942 -4.40625l3.640625 0.625q-0.703125 2.0 -2.21875 3.046875q-1.515625 1.046875 -3.796875 1.046875q-3.609375 0 -5.328125 -2.359375q-1.375 -1.890625 -1.375 -4.765625q0 -3.4375 1.796875 -5.375q1.796875 -1.953125 4.546875 -1.953125q3.078125 0 4.859375 2.046875q1.78125 2.03125 1.703125 6.234375l-9.15625 0q0.046875 1.625 0.890625 2.53125q0.84375 0.90625 2.109375 0.90625q0.859375 0 1.4375 -0.46875q0.59375 -0.46875 0.890625 -1.515625zm0.203125 -3.6875q-0.03125 -1.59375 -0.8125 -2.421875q-0.78125 -0.828125 -1.90625 -0.828125q-1.203125 0 -1.984375 0.875q-0.78125 0.875 -0.765625 2.375l5.46875 0zm19.18431 8.09375l-3.65625 0l0 -7.046875q0 -2.25 -0.234375 -2.90625q-0.234375 -0.65625 -0.765625 -1.015625q-0.515625 -0.375 -1.265625 -0.375q-0.953125 0 -1.703125 0.53125q-0.75 0.515625 -1.03125 1.375q-0.28125 0.859375 -0.28125 3.171875l0 6.265625l-3.65625 0l0 -13.828125l3.390625 0l0 2.03125q1.8125 -2.34375 4.5625 -2.34375q1.203125 0 2.203125 0.4375q1.015625 0.4375 1.515625 1.125q0.515625 0.671875 0.71875 1.53125q0.203125 0.859375 0.203125 2.453125l0 8.59375zm10.04834 -13.828125l0 2.921875l-2.5 0l0 5.5625q0 1.703125 0.0625 1.984375q0.078125 0.28125 0.328125 0.46875q0.265625 0.171875 0.625 0.171875q0.515625 0 1.46875 -0.359375l0.3125 2.84375q-1.265625 0.546875 -2.890625 0.546875q-0.984375 0 -1.78125 -0.328125q-0.796875 -0.328125 -1.171875 -0.859375q-0.359375 -0.53125 -0.5 -1.421875q-0.125 -0.640625 -0.125 -2.578125l0 -6.03125l-1.671875 0l0 -2.921875l1.671875 0l0 -2.734375l3.671875 -2.140625l0 4.875l2.5 0zm2.5329895 -1.875l0 -3.375l3.671875 0l0 3.375l-3.671875 0zm0 15.703125l0 -13.828125l3.671875 0l0 13.828125l-3.671875 0zm10.14032 -9.609375l-3.3125 -0.59375q0.5625 -2.0 1.921875 -2.96875q1.375 -0.96875 4.0625 -0.96875q2.453125 0 3.640625 0.578125q1.203125 0.578125 1.6875 1.484375q0.5 0.890625 0.5 3.265625l-0.046875 4.265625q0 1.828125 0.171875 2.703125q0.171875 0.859375 0.65625 1.84375l-3.609375 0q-0.140625 -0.359375 -0.359375 -1.078125q-0.09375 -0.328125 -0.125 -0.4375q-0.9375 0.921875 -2.015625 1.375q-1.0625 0.453125 -2.265625 0.453125q-2.140625 0 -3.375 -1.15625q-1.21875 -1.15625 -1.21875 -2.9375q0 -1.171875 0.546875 -2.078125q0.5625 -0.921875 1.578125 -1.40625q1.015625 -0.484375 2.90625 -0.859375q2.5625 -0.484375 3.5625 -0.890625l0 -0.375q0 -1.046875 -0.53125 -1.5q-0.515625 -0.453125 -1.96875 -0.453125q-0.96875 0 -1.515625 0.390625q-0.546875 0.390625 -0.890625 1.34375zm4.90625 2.96875q-0.703125 0.234375 -2.234375 0.5625q-1.515625 0.328125 -1.984375 0.640625q-0.71875 0.5 -0.71875 1.28125q0 0.765625 0.5625 1.328125q0.578125 0.5625 1.46875 0.5625q0.984375 0 1.890625 -0.65625q0.65625 -0.484375 0.859375 -1.203125q0.15625 -0.46875 0.15625 -1.78125l0 -0.734375zm7.184326 6.640625l0 -19.078125l3.671875 0l0 19.078125l-3.671875 0zm21.15567 -13.828125l0 2.921875l-2.5 0l0 5.5625q0 1.703125 0.0625 1.984375q0.078125 0.28125 0.328125 0.46875q0.265625 0.171875 0.625 0.171875q0.515625 0 1.46875 -0.359375l0.3125 2.84375q-1.265625 0.546875 -2.890625 0.546875q-0.984375 0 -1.78125 -0.328125q-0.796875 -0.328125 -1.171875 -0.859375q-0.359375 -0.53125 -0.5 -1.421875q-0.125 -0.640625 -0.125 -2.578125l0 -6.03125l-1.671875 0l0 -2.921875l1.671875 0l0 -2.734375l3.671875 -2.140625l0 4.875l2.5 0zm6.0486145 13.828125l-3.671875 0l0 -13.828125l3.40625 0l0 1.96875q0.875 -1.390625 1.5625 -1.828125q0.703125 -0.453125 1.578125 -0.453125q1.25 0 2.421875 0.703125l-1.140625 3.1875q-0.921875 -0.609375 -1.71875 -0.609375q-0.765625 0 -1.296875 0.421875q-0.53125 0.421875 -0.84375 1.53125q-0.296875 1.109375 -0.296875 4.640625l0 4.265625zm9.592285 -9.609375l-3.3125 -0.59375q0.5625 -2.0 1.921875 -2.96875q1.375 -0.96875 4.0625 -0.96875q2.453125 0 3.640625 0.578125q1.203125 0.578125 1.6875 1.484375q0.5 0.890625 0.5 3.265625l-0.046875 4.265625q0 1.828125 0.171875 2.703125q0.171875 0.859375 0.65625 1.84375l-3.609375 0q-0.140625 -0.359375 -0.359375 -1.078125q-0.09375 -0.328125 -0.125 -0.4375q-0.9375 0.921875 -2.015625 1.375q-1.0625 0.453125 -2.265625 0.453125q-2.140625 0 -3.375 -1.15625q-1.21875 -1.15625 -1.21875 -2.9375q0 -1.171875 0.546875 -2.078125q0.5625 -0.921875 1.578125 -1.40625q1.015625 -0.484375 2.90625 -0.859375q2.5625 -0.484375 3.5625 -0.890625l0 -0.375q0 -1.046875 -0.53125 -1.5q-0.515625 -0.453125 -1.96875 -0.453125q-0.96875 0 -1.515625 0.390625q-0.546875 0.390625 -0.890625 1.34375zm4.90625 2.96875q-0.703125 0.234375 -2.234375 0.5625q-1.515625 0.328125 -1.984375 0.640625q-0.71875 0.5 -0.71875 1.28125q0 0.765625 0.5625 1.328125q0.578125 0.5625 1.46875 0.5625q0.984375 0 1.890625 -0.65625q0.65625 -0.484375 0.859375 -1.203125q0.15625 -0.46875 0.15625 -1.78125l0 -0.734375zm19.762451 6.640625l-3.65625 0l0 -7.046875q0 -2.25 -0.234375 -2.90625q-0.234375 -0.65625 -0.765625 -1.015625q-0.515625 -0.375 -1.265625 -0.375q-0.953125 0 -1.703125 0.53125q-0.75 0.515625 -1.03125 1.375q-0.28125 0.859375 -0.28125 3.171875l0 6.265625l-3.65625 0l0 -13.828125l3.390625 0l0 2.03125q1.8125 -2.34375 4.5625 -2.34375q1.203125 0 2.203125 0.4375q1.015625 0.4375 1.515625 1.125q0.515625 0.671875 0.71875 1.53125q0.203125 0.859375 0.203125 2.453125l0 8.59375zm2.4233093 -3.9375l3.671875 -0.5625q0.234375 1.0625 0.953125 1.625q0.71875 0.546875 2.0 0.546875q1.421875 0 2.140625 -0.515625q0.46875 -0.375 0.46875 -0.984375q0 -0.421875 -0.25 -0.6875q-0.28125 -0.265625 -1.234375 -0.484375q-4.421875 -0.96875 -5.609375 -1.78125q-1.640625 -1.125 -1.640625 -3.109375q0 -1.796875 1.421875 -3.015625q1.421875 -1.234375 4.40625 -1.234375q2.828125 0 4.203125 0.9375q1.390625 0.921875 1.90625 2.71875l-3.4375 0.640625q-0.234375 -0.796875 -0.859375 -1.21875q-0.609375 -0.4375 -1.75 -0.4375q-1.4375 0 -2.0625 0.390625q-0.421875 0.296875 -0.421875 0.75q0 0.390625 0.359375 0.65625q0.5 0.375 3.421875 1.046875q2.921875 0.65625 4.078125 1.609375q1.140625 0.984375 1.140625 2.71875q0 1.90625 -1.59375 3.28125q-1.578125 1.359375 -4.6875 1.359375q-2.828125 0 -4.484375 -1.140625q-1.640625 -1.15625 -2.140625 -3.109375zm14.512451 -9.890625l2.03125 0l0 -1.03125q0 -1.75 0.359375 -2.609375q0.375 -0.859375 1.375 -1.390625q1.0 -0.546875 2.515625 -0.546875q1.5625 0 3.0625 0.46875l-0.5 2.546875q-0.859375 -0.203125 -1.671875 -0.203125q-0.796875 0 -1.140625 0.375q-0.34375 0.359375 -0.34375 1.421875l0 0.96875l2.734375 0l0 2.875l-2.734375 0l0 10.953125l-3.65625 0l0 -10.953125l-2.03125 0l0 -2.875zm18.486115 9.421875l3.640625 0.625q-0.703125 2.0 -2.21875 3.046875q-1.515625 1.046875 -3.796875 1.046875q-3.609375 0 -5.328125 -2.359375q-1.375 -1.890625 -1.375 -4.765625q0 -3.4375 1.796875 -5.375q1.796875 -1.953125 4.546875 -1.953125q3.078125 0 4.859375 2.046875q1.78125 2.03125 1.703125 6.234375l-9.15625 0q0.046875 1.625 0.890625 2.53125q0.84375 0.90625 2.109375 0.90625q0.859375 0 1.4375 -0.46875q0.59375 -0.46875 0.890625 -1.515625zm0.203125 -3.6875q-0.03125 -1.59375 -0.8125 -2.421875q-0.78125 -0.828125 -1.90625 -0.828125q-1.203125 0 -1.984375 0.875q-0.78125 0.875 -0.765625 2.375l5.46875 0zm10.121796 8.09375l-3.671875 0l0 -13.828125l3.40625 0l0 1.96875q0.875 -1.390625 1.5625 -1.828125q0.703125 -0.453125 1.578125 -0.453125q1.25 0 2.421875 0.703125l-1.140625 3.1875q-0.921875 -0.609375 -1.71875 -0.609375q-0.765625 0 -1.296875 0.421875q-0.53125 0.421875 -0.84375 1.53125q-0.296875 1.109375 -0.296875 4.640625l0 4.265625z" fill-rule="nonzero"/><path fill="#000000" fill-opacity="0.0" d="m9.778215 226.92783l351.43304 0l0 51.716522l-351.43304 0z" fill-rule="evenodd"/><path fill="#000000" d="m57.804535 261.52783l0 -19.07814l3.859375 0l0 7.5l7.546875 0l0 -7.5l3.84375 0l0 19.07814l-3.84375 0l0 -8.343765l-7.546875 0l0 8.343765l-3.859375 0zm19.203415 -15.70314l0 -3.375l3.671875 0l0 3.375l-3.671875 0zm0 15.70314l0 -13.82814l3.671875 0l0 13.82814l-3.671875 0zm15.421585 -4.40625l3.640625 0.625q-0.703125 2.0 -2.21875 3.046875q-1.515625 1.046875 -3.796875 1.046875q-3.609375 0 -5.328125 -2.359375q-1.375 -1.890625 -1.375 -4.7656403q0 -3.4375 1.796875 -5.375q1.796875 -1.953125 4.546875 -1.953125q3.078125 0 4.859375 2.046875q1.78125 2.03125 1.703125 6.234375l-9.15625 0q0.046875 1.6250153 0.890625 2.5312653q0.84375 0.90625 2.109375 0.90625q0.859375 0 1.4375 -0.46875q0.59375 -0.46875 0.890625 -1.515625zm0.203125 -3.6875153q-0.03125 -1.59375 -0.8125 -2.421875q-0.78125 -0.828125 -1.90625 -0.828125q-1.203125 0 -1.984375 0.875q-0.78125 0.875 -0.765625 2.375l5.46875 0zm10.121811 8.093765l-3.671875 0l0 -13.82814l3.40625 0l0 1.96875q0.875 -1.390625 1.5625 -1.828125q0.703125 -0.453125 1.578125 -0.453125q1.25 0 2.421875 0.703125l-1.140625 3.1875q-0.921875 -0.609375 -1.71875 -0.609375q-0.765625 0 -1.296875 0.421875q-0.53125 0.421875 -0.84375 1.53125q-0.296875 1.109375 -0.296875 4.6406403l0 4.265625zm9.5923 -9.60939l-3.3125 -0.59375q0.5625 -2.0 1.921875 -2.96875q1.375 -0.96875 4.0625 -0.96875q2.453125 0 3.640625 0.578125q1.203125 0.578125 1.6875 1.484375q0.5 0.890625 0.5 3.265625l-0.046875 4.2656403q0 1.828125 0.171875 2.703125q0.171875 0.859375 0.65625 1.84375l-3.609375 0q-0.140625 -0.359375 -0.359375 -1.078125q-0.09375 -0.328125 -0.125 -0.4375q-0.9375 0.921875 -2.015625 1.375q-1.0625 0.453125 -2.265625 0.453125q-2.140625 0 -3.375 -1.15625q-1.21875 -1.15625 -1.21875 -2.9375q0 -1.171875 0.546875 -2.0781403q0.5625 -0.921875 1.578125 -1.40625q1.015625 -0.484375 2.90625 -0.859375q2.5625 -0.484375 3.5625 -0.890625l0 -0.375q0 -1.046875 -0.53125 -1.5q-0.515625 -0.453125 -1.96875 -0.453125q-0.96875 0 -1.515625 0.390625q-0.546875 0.390625 -0.890625 1.34375zm4.90625 2.96875q-0.703125 0.234375 -2.234375 0.5625q-1.515625 0.328125 -1.984375 0.64064026q-0.71875 0.5 -0.71875 1.28125q0 0.765625 0.5625 1.328125q0.578125 0.5625 1.46875 0.5625q0.984375 0 1.890625 -0.65625q0.65625 -0.484375 0.859375 -1.203125q0.15625 -0.46875 0.15625 -1.7812653l0 -0.734375zm10.699936 6.6406403l-3.671875 0l0 -13.82814l3.40625 0l0 1.96875q0.875 -1.390625 1.5625 -1.828125q0.703125 -0.453125 1.578125 -0.453125q1.25 0 2.421875 0.703125l-1.140625 3.1875q-0.921875 -0.609375 -1.71875 -0.609375q-0.765625 0 -1.296875 0.421875q-0.53125 0.421875 -0.84375 1.53125q-0.296875 1.109375 -0.296875 4.6406403l0 4.265625zm18.920425 -9.73439l-3.609375 0.65625q-0.1875 -1.09375 -0.828125 -1.640625q-0.640625 -0.546875 -1.671875 -0.546875q-1.359375 0 -2.171875 0.953125q-0.8125 0.9375 -0.8125 3.15625q0 2.4531403 0.8125 3.4687653q0.828125 1.015625 2.21875 1.015625q1.046875 0 1.703125 -0.59375q0.671875 -0.59375 0.953125 -2.03125l3.578125 0.609375q-0.546875 2.46875 -2.140625 3.734375q-1.59375 1.265625 -4.25 1.265625q-3.03125 0 -4.84375 -1.90625q-1.796875 -1.921875 -1.796875 -5.2968903q0 -3.4375 1.796875 -5.34375q1.8125 -1.90625 4.90625 -1.90625q2.515625 0 4.0 1.09375q1.5 1.078125 2.15625 3.3125zm6.418686 -9.34375l0 7.015625q1.765625 -2.078125 4.21875 -2.078125q1.265625 0 2.28125 0.46875q1.015625 0.46875 1.53125 1.203125q0.515625 0.734375 0.703125 1.625q0.1875 0.875 0.1875 2.734375l0 8.10939l-3.65625 0l0 -7.2968903q0 -2.171875 -0.21875 -2.75q-0.203125 -0.59375 -0.734375 -0.9375q-0.515625 -0.359375 -1.3125 -0.359375q-0.90625 0 -1.625 0.453125q-0.71875 0.4375 -1.046875 1.328125q-0.328125 0.890625 -0.328125 2.640625l0 6.9218903l-3.65625 0l0 -19.07814l3.65625 0zm12.62645 3.375l0 -3.375l3.671875 0l0 3.375l-3.671875 0zm0 15.70314l0 -13.82814l3.671875 0l0 13.82814l-3.671875 0zm19.46846 -9.73439l-3.609375 0.65625q-0.1875 -1.09375 -0.828125 -1.640625q-0.640625 -0.546875 -1.671875 -0.546875q-1.359375 0 -2.171875 0.953125q-0.8125 0.9375 -0.8125 3.15625q0 2.4531403 0.8125 3.4687653q0.828125 1.015625 2.21875 1.015625q1.046875 0 1.703125 -0.59375q0.671875 -0.59375 0.953125 -2.03125l3.578125 0.609375q-0.546875 2.46875 -2.140625 3.734375q-1.59375 1.265625 -4.25 1.265625q-3.03125 0 -4.84375 -1.90625q-1.796875 -1.921875 -1.796875 -5.2968903q0 -3.4375 1.796875 -5.34375q1.8125 -1.90625 4.90625 -1.90625q2.515625 0 4.0 1.09375q1.5 1.078125 2.15625 3.3125zm5.496811 0.125l-3.3125 -0.59375q0.5625 -2.0 1.921875 -2.96875q1.375 -0.96875 4.0625 -0.96875q2.453125 0 3.640625 0.578125q1.203125 0.578125 1.6875 1.484375q0.5 0.890625 0.5 3.265625l-0.046875 4.2656403q0 1.828125 0.171875 2.703125q0.171875 0.859375 0.65625 1.84375l-3.609375 0q-0.140625 -0.359375 -0.359375 -1.078125q-0.09375 -0.328125 -0.125 -0.4375q-0.9375 0.921875 -2.015625 1.375q-1.0625 0.453125 -2.265625 0.453125q-2.140625 0 -3.375 -1.15625q-1.21875 -1.15625 -1.21875 -2.9375q0 -1.171875 0.546875 -2.0781403q0.5625 -0.921875 1.578125 -1.40625q1.015625 -0.484375 2.90625 -0.859375q2.5625 -0.484375 3.5625 -0.890625l0 -0.375q0 -1.046875 -0.53125 -1.5q-0.515625 -0.453125 -1.96875 -0.453125q-0.96875 0 -1.515625 0.390625q-0.546875 0.390625 -0.890625 1.34375zm4.90625 2.96875q-0.703125 0.234375 -2.234375 0.5625q-1.515625 0.328125 -1.984375 0.64064026q-0.71875 0.5 -0.71875 1.28125q0 0.765625 0.5625 1.328125q0.578125 0.5625 1.46875 0.5625q0.984375 0 1.890625 -0.65625q0.65625 -0.484375 0.859375 -1.203125q0.15625 -0.46875 0.15625 -1.7812653l0 -0.734375zm7.184311 6.6406403l0 -19.07814l3.671875 0l0 19.07814l-3.671875 0zm21.15567 -13.82814l0 2.921875l-2.5 0l0 5.5625153q0 1.703125 0.0625 1.984375q0.078125 0.28125 0.328125 0.46875q0.265625 0.171875 0.625 0.171875q0.515625 0 1.46875 -0.359375l0.3125 2.84375q-1.265625 0.546875 -2.890625 0.546875q-0.984375 0 -1.78125 -0.328125q-0.796875 -0.328125 -1.171875 -0.859375q-0.359375 -0.53125 -0.5 -1.421875q-0.125 -0.640625 -0.125 -2.578125l0 -6.0312653l-1.671875 0l0 -2.921875l1.671875 0l0 -2.734375l3.671875 -2.140625l0 4.875l2.5 0zm6.0486145 13.82814l-3.671875 0l0 -13.82814l3.40625 0l0 1.96875q0.875 -1.390625 1.5625 -1.828125q0.703125 -0.453125 1.578125 -0.453125q1.25 0 2.421875 0.703125l-1.140625 3.1875q-0.921875 -0.609375 -1.71875 -0.609375q-0.765625 0 -1.296875 0.421875q-0.53125 0.421875 -0.84375 1.53125q-0.296875 1.109375 -0.296875 4.6406403l0 4.265625zm9.5923 -9.60939l-3.3125 -0.59375q0.5625 -2.0 1.921875 -2.96875q1.375 -0.96875 4.0625 -0.96875q2.453125 0 3.640625 0.578125q1.203125 0.578125 1.6875 1.484375q0.5 0.890625 0.5 3.265625l-0.046875 4.2656403q0 1.828125 0.171875 2.703125q0.171875 0.859375 0.65625 1.84375l-3.609375 0q-0.140625 -0.359375 -0.359375 -1.078125q-0.09375 -0.328125 -0.125 -0.4375q-0.9375 0.921875 -2.015625 1.375q-1.0625 0.453125 -2.265625 0.453125q-2.140625 0 -3.375 -1.15625q-1.21875 -1.15625 -1.21875 -2.9375q0 -1.171875 0.546875 -2.0781403q0.5625 -0.921875 1.578125 -1.40625q1.015625 -0.484375 2.90625 -0.859375q2.5625 -0.484375 3.5625 -0.890625l0 -0.375q0 -1.046875 -0.53125 -1.5q-0.515625 -0.453125 -1.96875 -0.453125q-0.96875 0 -1.515625 0.390625q-0.546875 0.390625 -0.890625 1.34375zm4.90625 2.96875q-0.703125 0.234375 -2.234375 0.5625q-1.515625 0.328125 -1.984375 0.64064026q-0.71875 0.5 -0.71875 1.28125q0 0.765625 0.5625 1.328125q0.578125 0.5625 1.46875 0.5625q0.984375 0 1.890625 -0.65625q0.65625 -0.484375 0.859375 -1.203125q0.15625 -0.46875 0.15625 -1.7812653l0 -0.734375zm19.762451 6.6406403l-3.65625 0l0 -7.0468903q0 -2.25 -0.234375 -2.90625q-0.234375 -0.65625 -0.765625 -1.015625q-0.515625 -0.375 -1.265625 -0.375q-0.953125 0 -1.703125 0.53125q-0.75 0.515625 -1.0312653 1.375q-0.28125 0.859375 -0.28125 3.171875l0 6.2656403l-3.65625 0l0 -13.82814l3.390625 0l0 2.03125q1.8125153 -2.34375 4.5625153 -2.34375q1.203125 0 2.203125 0.4375q1.015625 0.4375 1.515625 1.125q0.515625 0.671875 0.71875 1.53125q0.203125 0.859375 0.203125 2.453125l0 8.593765zm2.4233093 -3.9375l3.671875 -0.5625q0.234375 1.0625 0.953125 1.625q0.71875 0.546875 2.0 0.546875q1.421875 0 2.140625 -0.515625q0.46875 -0.375 0.46875 -0.984375q0 -0.421875 -0.25 -0.6875q-0.28125 -0.265625 -1.234375 -0.484375q-4.421875 -0.96876526 -5.609375 -1.7812653q-1.640625 -1.125 -1.640625 -3.109375q0 -1.796875 1.421875 -3.015625q1.421875 -1.234375 4.40625 -1.234375q2.828125 0 4.203125 0.9375q1.390625 0.921875 1.90625 2.71875l-3.4375 0.640625q-0.234375 -0.796875 -0.859375 -1.21875q-0.609375 -0.4375 -1.75 -0.4375q-1.4375 0 -2.0625 0.390625q-0.421875 0.296875 -0.421875 0.75q0 0.390625 0.359375 0.65625q0.5 0.375 3.421875 1.046875q2.921875 0.65625 4.078125 1.609375q1.140625 0.984375 1.140625 2.7187653q0 1.90625 -1.59375 3.28125q-1.578125 1.359375 -4.6875 1.359375q-2.828125 0 -4.484375 -1.140625q-1.640625 -1.15625 -2.140625 -3.109375zm14.512451 -9.89064l2.03125 0l0 -1.03125q0 -1.75 0.359375 -2.609375q0.375 -0.859375 1.375 -1.390625q1.0 -0.546875 2.515625 -0.546875q1.5625 0 3.0625 0.46875l-0.5 2.546875q-0.859375 -0.203125 -1.671875 -0.203125q-0.796875 0 -1.140625 0.375q-0.34375 0.359375 -0.34375 1.421875l0 0.96875l2.734375 0l0 2.875l-2.734375 0l0 10.95314l-3.65625 0l0 -10.95314l-2.03125 0l0 -2.875zm18.486115 9.42189l3.640625 0.625q-0.703125 2.0 -2.21875 3.046875q-1.515625 1.046875 -3.796875 1.046875q-3.609375 0 -5.328125 -2.359375q-1.375 -1.890625 -1.375 -4.7656403q0 -3.4375 1.796875 -5.375q1.796875 -1.953125 4.546875 -1.953125q3.078125 0 4.859375 2.046875q1.78125 2.03125 1.703125 6.234375l-9.15625 0q0.046875 1.6250153 0.890625 2.5312653q0.84375 0.90625 2.109375 0.90625q0.859375 0 1.4375 -0.46875q0.59375 -0.46875 0.890625 -1.515625zm0.203125 -3.6875153q-0.03125 -1.59375 -0.8125 -2.421875q-0.78125 -0.828125 -1.90625 -0.828125q-1.203125 0 -1.984375 0.875q-0.78125 0.875 -0.765625 2.375l5.46875 0zm10.121796 8.093765l-3.671875 0l0 -13.82814l3.40625 0l0 1.96875q0.875 -1.390625 1.5625 -1.828125q0.703125 -0.453125 1.578125 -0.453125q1.25 0 2.421875 0.703125l-1.140625 3.1875q-0.921875 -0.609375 -1.71875 -0.609375q-0.765625 0 -1.296875 0.421875q-0.53125 0.421875 -0.84375 1.53125q-0.296875 1.109375 -0.296875 4.6406403l0 4.265625z" fill-rule="nonzero"/><path fill="#000000" fill-opacity="0.0" d="m17.849964 585.32806l335.0551 0l0 51.716553l-335.0551 0z" fill-rule="evenodd"/><path fill="#000000" d="m83.79059 619.9281l-4.1875 0l-1.65625 -4.328125l-7.640625 0l-1.5625 4.328125l-4.09375 0l7.4375 -19.078125l4.0625 0l7.640625 19.078125zm-7.09375 -7.546875l-2.625 -7.078125l-2.578125 7.078125l5.203125 0zm21.68779 7.546875l-3.65625 0l0 -7.046875q0 -2.25 -0.234375 -2.90625q-0.234375 -0.65625 -0.765625 -1.015625q-0.515625 -0.375 -1.265625 -0.375q-0.953125 0 -1.703125 0.53125q-0.75 0.515625 -1.03125 1.375q-0.28125 0.859375 -0.28125 3.171875l0 6.265625l-3.65625 0l0 -13.828125l3.390625 0l0 2.03125q1.8125 -2.34375 4.5625 -2.34375q1.203125 0 2.203125 0.4375q1.015625 0.4375 1.515625 1.125q0.515625 0.671875 0.71875 1.53125q0.203125 0.859375 0.203125 2.453125l0 8.59375zm6.4389496 -9.609375l-3.3125 -0.59375q0.5625 -2.0 1.921875 -2.96875q1.375 -0.96875 4.0625 -0.96875q2.453125 0 3.640625 0.578125q1.203125 0.578125 1.6875 1.484375q0.5 0.890625 0.5 3.265625l-0.046875 4.265625q0 1.828125 0.171875 2.703125q0.171875 0.859375 0.65625 1.84375l-3.609375 0q-0.140625 -0.359375 -0.359375 -1.078125q-0.09375 -0.328125 -0.125 -0.4375q-0.9375 0.921875 -2.015625 1.375q-1.0625 0.453125 -2.265625 0.453125q-2.140625 0 -3.375 -1.15625q-1.21875 -1.15625 -1.21875 -2.9375q0 -1.171875 0.546875 -2.078125q0.5625 -0.921875 1.578125 -1.40625q1.015625 -0.484375 2.90625 -0.859375q2.5625 -0.484375 3.5625 -0.890625l0 -0.375q0 -1.046875 -0.53125 -1.5q-0.515625 -0.453125 -1.96875 -0.453125q-0.96875 0 -1.515625 0.390625q-0.546875 0.390625 -0.890625 1.34375zm4.90625 2.96875q-0.703125 0.234375 -2.234375 0.5625q-1.515625 0.328125 -1.984375 0.640625q-0.71875 0.5 -0.71875 1.28125q0 0.765625 0.5625 1.328125q0.578125 0.5625 1.46875 0.5625q0.984375 0 1.890625 -0.65625q0.65625 -0.484375 0.859375 -1.203125q0.15625 -0.46875 0.15625 -1.78125l0 -0.734375zm7.184311 6.640625l0 -19.078125l3.671875 0l0 19.078125l-3.671875 0zm6.56221 -7.109375q0 -1.8125 0.890625 -3.515625q0.90625 -1.71875 2.546875 -2.609375q1.65625 -0.90625 3.6875 -0.90625q3.140625 0 5.140625 2.046875q2.0 2.03125 2.0 5.140625q0 3.140625 -2.03125 5.203125q-2.015625 2.0625 -5.078125 2.0625q-1.90625 0 -3.640625 -0.859375q-1.71875 -0.859375 -2.625 -2.515625q-0.890625 -1.65625 -0.890625 -4.046875zm3.75 0.203125q0 2.046875 0.96875 3.140625q0.984375 1.09375 2.421875 1.09375q1.421875 0 2.390625 -1.09375q0.984375 -1.09375 0.984375 -3.171875q0 -2.03125 -0.984375 -3.125q-0.96875 -1.09375 -2.390625 -1.09375q-1.4375 0 -2.421875 1.09375q-0.96875 1.09375 -0.96875 3.15625zm13.048325 7.8125l4.171875 0.515625q0.109375 0.71875 0.484375 1.0q0.515625 0.390625 1.640625 0.390625q1.4375 0 2.140625 -0.4375q0.484375 -0.28125 0.734375 -0.921875q0.171875 -0.453125 0.171875 -1.671875l0 -2.015625q-1.640625 2.234375 -4.140625 2.234375q-2.78125 0 -4.40625 -2.359375q-1.28125 -1.859375 -1.28125 -4.625q0 -3.484375 1.671875 -5.3125q1.671875 -1.84375 4.15625 -1.84375q2.5625 0 4.234375 2.25l0 -1.9375l3.421875 0l0 12.40625q0 2.453125 -0.40625 3.65625q-0.40625 1.21875 -1.140625 1.90625q-0.71875 0.6875 -1.9375 1.078125q-1.21875 0.390625 -3.078125 0.390625q-3.515625 0 -4.984375 -1.203125q-1.46875 -1.203125 -1.46875 -3.046875q0 -0.1875 0.015625 -0.453125zm3.265625 -8.109375q0 2.203125 0.84375 3.234375q0.859375 1.015625 2.109375 1.015625q1.34375 0 2.265625 -1.046875q0.921875 -1.046875 0.921875 -3.109375q0 -2.140625 -0.890625 -3.1875q-0.875 -1.046875 -2.234375 -1.046875q-1.3125 0 -2.171875 1.03125q-0.84375 1.015625 -0.84375 3.109375zm13.345184 -8.5l0 -3.375l3.671875 0l0 3.375l-3.671875 0zm0 15.703125l0 -13.828125l3.671875 0l0 13.828125l-3.671875 0zm19.468475 -9.734375l-3.609375 0.65625q-0.1875 -1.09375 -0.828125 -1.640625q-0.640625 -0.546875 -1.671875 -0.546875q-1.359375 0 -2.171875 0.953125q-0.8125 0.9375 -0.8125 3.15625q0 2.453125 0.8125 3.46875q0.828125 1.015625 2.21875 1.015625q1.046875 0 1.703125 -0.59375q0.671875 -0.59375 0.953125 -2.03125l3.578125 0.609375q-0.546875 2.46875 -2.140625 3.734375q-1.59375 1.265625 -4.25 1.265625q-3.03125 0 -4.84375 -1.90625q-1.796875 -1.921875 -1.796875 -5.296875q0 -3.4375 1.796875 -5.34375q1.8125 -1.90625 4.90625 -1.90625q2.515625 0 4.0 1.09375q1.5 1.078125 2.15625 3.3125zm5.4967957 0.125l-3.3125 -0.59375q0.5625 -2.0 1.921875 -2.96875q1.375 -0.96875 4.0625 -0.96875q2.453125 0 3.640625 0.578125q1.203125 0.578125 1.6875 1.484375q0.5 0.890625 0.5 3.265625l-0.046875 4.265625q0 1.828125 0.171875 2.703125q0.171875 0.859375 0.65625 1.84375l-3.609375 0q-0.140625 -0.359375 -0.359375 -1.078125q-0.09375 -0.328125 -0.125 -0.4375q-0.9375 0.921875 -2.015625 1.375q-1.0625 0.453125 -2.265625 0.453125q-2.140625 0 -3.375 -1.15625q-1.21875 -1.15625 -1.21875 -2.9375q0 -1.171875 0.546875 -2.078125q0.5625 -0.921875 1.578125 -1.40625q1.015625 -0.484375 2.90625 -0.859375q2.5625 -0.484375 3.5625 -0.890625l0 -0.375q0 -1.046875 -0.53125 -1.5q-0.515625 -0.453125 -1.96875 -0.453125q-0.96875 0 -1.515625 0.390625q-0.546875 0.390625 -0.890625 1.34375zm4.90625 2.96875q-0.703125 0.234375 -2.234375 0.5625q-1.515625 0.328125 -1.984375 0.640625q-0.71875 0.5 -0.71875 1.28125q0 0.765625 0.5625 1.328125q0.578125 0.5625 1.46875 0.5625q0.984375 0 1.890625 -0.65625q0.65625 -0.484375 0.859375 -1.203125q0.15625 -0.46875 0.15625 -1.78125l0 -0.734375zm7.184326 6.640625l0 -19.078125l3.671875 0l0 19.078125l-3.671875 0zm21.15567 -13.828125l0 2.921875l-2.5 0l0 5.5625q0 1.703125 0.0625 1.984375q0.078125 0.28125 0.328125 0.46875q0.265625 0.171875 0.625 0.171875q0.515625 0 1.46875 -0.359375l0.3125 2.84375q-1.265625 0.546875 -2.890625 0.546875q-0.984375 0 -1.78125 -0.328125q-0.796875 -0.328125 -1.171875 -0.859375q-0.359375 -0.53125 -0.5 -1.421875q-0.125 -0.640625 -0.125 -2.578125l0 -6.03125l-1.671875 0l0 -2.921875l1.671875 0l0 -2.734375l3.671875 -2.140625l0 4.875l2.5 0zm6.0486145 13.828125l-3.671875 0l0 -13.828125l3.40625 0l0 1.96875q0.875 -1.390625 1.5625 -1.828125q0.703125 -0.453125 1.578125 -0.453125q1.25 0 2.421875 0.703125l-1.140625 3.1875q-0.921875 -0.609375 -1.71875 -0.609375q-0.765625 0 -1.296875 0.421875q-0.53125 0.421875 -0.84375 1.53125q-0.296875 1.109375 -0.296875 4.640625l0 4.265625zm9.592285 -9.609375l-3.3125 -0.59375q0.5625 -2.0 1.921875 -2.96875q1.375 -0.96875 4.0625 -0.96875q2.453125 0 3.640625 0.578125q1.203125 0.578125 1.6875 1.484375q0.5 0.890625 0.5 3.265625l-0.046875 4.265625q0 1.828125 0.171875 2.703125q0.171875 0.859375 0.65625 1.84375l-3.609375 0q-0.140625 -0.359375 -0.359375 -1.078125q-0.09375 -0.328125 -0.125 -0.4375q-0.9375 0.921875 -2.015625 1.375q-1.0625 0.453125 -2.265625 0.453125q-2.140625 0 -3.375 -1.15625q-1.21875 -1.15625 -1.21875 -2.9375q0 -1.171875 0.546875 -2.078125q0.5625 -0.921875 1.578125 -1.40625q1.015625 -0.484375 2.90625 -0.859375q2.5625 -0.484375 3.5625 -0.890625l0 -0.375q0 -1.046875 -0.53125 -1.5q-0.515625 -0.453125 -1.96875 -0.453125q-0.96875 0 -1.515625 0.390625q-0.546875 0.390625 -0.890625 1.34375zm4.90625 2.96875q-0.703125 0.234375 -2.234375 0.5625q-1.515625 0.328125 -1.984375 0.640625q-0.71875 0.5 -0.71875 1.28125q0 0.765625 0.5625 1.328125q0.578125 0.5625 1.46875 0.5625q0.984375 0 1.890625 -0.65625q0.65625 -0.484375 0.859375 -1.203125q0.15625 -0.46875 0.15625 -1.78125l0 -0.734375zm19.762451 6.640625l-3.65625 0l0 -7.046875q0 -2.25 -0.234375 -2.90625q-0.234375 -0.65625 -0.765625 -1.015625q-0.515625 -0.375 -1.265625 -0.375q-0.953125 0 -1.703125 0.53125q-0.75 0.515625 -1.03125 1.375q-0.28125 0.859375 -0.28125 3.171875l0 6.265625l-3.65625 0l0 -13.828125l3.390625 0l0 2.03125q1.8125 -2.34375 4.5625 -2.34375q1.203125 0 2.203125 0.4375q1.015625 0.4375 1.515625 1.125q0.515625 0.671875 0.71875 1.53125q0.203125 0.859375 0.203125 2.453125l0 8.59375zm2.4233246 -3.9375l3.671875 -0.5625q0.234375 1.0625 0.953125 1.625q0.71875 0.546875 2.0 0.546875q1.421875 0 2.140625 -0.515625q0.46875 -0.375 0.46875 -0.984375q0 -0.421875 -0.25 -0.6875q-0.28125 -0.265625 -1.234375 -0.484375q-4.421875 -0.96875 -5.609375 -1.78125q-1.640625 -1.125 -1.640625 -3.109375q0 -1.796875 1.421875 -3.015625q1.421875 -1.234375 4.40625 -1.234375q2.828125 0 4.203125 0.9375q1.390625 0.921875 1.90625 2.71875l-3.4375 0.640625q-0.234375 -0.796875 -0.859375 -1.21875q-0.609375 -0.4375 -1.75 -0.4375q-1.4375 0 -2.0625 0.390625q-0.421875 0.296875 -0.421875 0.75q0 0.390625 0.359375 0.65625q0.5 0.375 3.421875 1.046875q2.921875 0.65625 4.078125 1.609375q1.140625 0.984375 1.140625 2.71875q0 1.90625 -1.59375 3.28125q-1.578125 1.359375 -4.6875 1.359375q-2.828125 0 -4.484375 -1.140625q-1.640625 -1.15625 -2.140625 -3.109375zm14.512451 -9.890625l2.03125 0l0 -1.03125q0 -1.75 0.359375 -2.609375q0.375 -0.859375 1.375 -1.390625q1.0 -0.546875 2.515625 -0.546875q1.5625 0 3.0625 0.46875l-0.5 2.546875q-0.859375 -0.203125 -1.671875 -0.203125q-0.796875 0 -1.140625 0.375q-0.34375 0.359375 -0.34375 1.421875l0 0.96875l2.734375 0l0 2.875l-2.734375 0l0 10.953125l-3.65625 0l0 -10.953125l-2.03125 0l0 -2.875zm18.486115 9.421875l3.640625 0.625q-0.703125 2.0 -2.21875 3.046875q-1.515625 1.046875 -3.796875 1.046875q-3.609375 0 -5.328125 -2.359375q-1.375 -1.890625 -1.375 -4.765625q0 -3.4375 1.796875 -5.375q1.796875 -1.953125 4.546875 -1.953125q3.078125 0 4.859375 2.046875q1.78125 2.03125 1.703125 6.234375l-9.15625 0q0.046875 1.625 0.890625 2.53125q0.84375 0.90625 2.109375 0.90625q0.859375 0 1.4375 -0.46875q0.59375 -0.46875 0.890625 -1.515625zm0.203125 -3.6875q-0.03125 -1.59375 -0.8125 -2.421875q-0.78125 -0.828125 -1.90625 -0.828125q-1.203125 0 -1.984375 0.875q-0.78125 0.875 -0.765625 2.375l5.46875 0zm10.121796 8.09375l-3.671875 0l0 -13.828125l3.40625 0l0 1.96875q0.875 -1.390625 1.5625 -1.828125q0.703125 -0.453125 1.578125 -0.453125q1.25 0 2.421875 0.703125l-1.140625 3.1875q-0.921875 -0.609375 -1.71875 -0.609375q-0.765625 0 -1.296875 0.421875q-0.53125 0.421875 -0.84375 1.53125q-0.296875 1.109375 -0.296875 4.640625l0 4.265625z" fill-rule="nonzero"/><path fill="#ffffff" d="m72.412704 71.91352l0 0c0 -3.7283554 3.0224304 -6.7507935 6.750786 -6.7507935l47.852753 0c1.7904129 0 3.507515 0.7112427 4.7735214 1.9772644c1.2660217 1.2660141 1.9772644 2.9831085 1.9772644 4.773529l0 27.002357c0 3.7283554 -3.0224304 6.750786 -6.750786 6.750786l-47.852753 0c-3.7283554 0 -6.750786 -3.0224304 -6.750786 -6.750786z" fill-rule="evenodd"/><path stroke="#000000" stroke-width="4.0" stroke-linejoin="round" stroke-linecap="butt" d="m72.412704 71.91352l0 0c0 -3.7283554 3.0224304 -6.7507935 6.750786 -6.7507935l47.852753 0c1.7904129 0 3.507515 0.7112427 4.7735214 1.9772644c1.2660217 1.2660141 1.9772644 2.9831085 1.9772644 4.773529l0 27.002357c0 3.7283554 -3.0224304 6.750786 -6.750786 6.750786l-47.852753 0c-3.7283554 0 -6.750786 -3.0224304 -6.750786 -6.750786z" fill-rule="evenodd"/><path fill="#ffffff" d="m154.81908 288.46906l0 0c0 -3.7283325 3.0224304 -6.750763 6.7507935 -6.750763l47.852753 0c1.7904205 0 3.5075073 0.7112427 4.773529 1.9772339c1.2660217 1.2660217 1.9772644 2.9831238 1.9772644 4.773529l0 27.00238c0 3.7283325 -3.0224304 6.7507935 -6.7507935 6.7507935l-47.852753 0c-3.728363 0 -6.7507935 -3.022461 -6.7507935 -6.7507935z" fill-rule="evenodd"/><path stroke="#000000" stroke-width="4.0" stroke-linejoin="round" stroke-linecap="butt" d="m154.81908 288.46906l0 0c0 -3.7283325 3.0224304 -6.750763 6.7507935 -6.750763l47.852753 0c1.7904205 0 3.5075073 0.7112427 4.773529 1.9772339c1.2660217 1.2660217 1.9772644 2.9831238 1.9772644 4.773529l0 27.00238c0 3.7283325 -3.0224304 6.7507935 -6.7507935 6.7507935l-47.852753 0c-3.728363 0 -6.7507935 -3.022461 -6.7507935 -6.7507935z" fill-rule="evenodd"/><path fill="#ffffff" d="m113.198 349.17804l0 0c0 -3.728363 3.0224304 -6.7507935 6.7507935 -6.7507935l47.852753 0c1.7904205 0 3.5075073 0.7112427 4.773529 1.9772644c1.2660065 1.2660217 1.9772491 2.9831238 1.9772491 4.773529l0 27.00235c0 3.728363 -3.0224304 6.7507935 -6.750778 6.7507935l-47.852753 0c-3.728363 0 -6.7507935 -3.0224304 -6.7507935 -6.7507935z" fill-rule="evenodd"/><path stroke="#000000" stroke-width="4.0" stroke-linejoin="round" stroke-linecap="butt" d="m113.198 349.17804l0 0c0 -3.728363 3.0224304 -6.7507935 6.7507935 -6.7507935l47.852753 0c1.7904205 0 3.5075073 0.7112427 4.773529 1.9772644c1.2660065 1.2660217 1.9772491 2.9831238 1.9772491 4.773529l0 27.00235c0 3.728363 -3.0224304 6.7507935 -6.750778 6.7507935l-47.852753 0c-3.728363 0 -6.7507935 -3.0224304 -6.7507935 -6.7507935z" fill-rule="evenodd"/><path fill="#ffffff" d="m237.61299 419.31116l0 0c0 -3.728363 3.0224304 -6.7507935 6.7507935 -6.7507935l47.852737 0c1.7904358 0 3.5075073 0.7112427 4.773529 1.9772644c1.2660217 1.2660217 1.9772644 2.9830933 1.9772644 4.773529l0 27.00235c0 3.728363 -3.0224304 6.7507935 -6.7507935 6.7507935l-47.852737 0c-3.728363 0 -6.7507935 -3.0224304 -6.7507935 -6.7507935z" fill-rule="evenodd"/><path stroke="#000000" stroke-width="4.0" stroke-linejoin="round" stroke-linecap="butt" d="m237.61299 419.31116l0 0c0 -3.728363 3.0224304 -6.7507935 6.7507935 -6.7507935l47.852737 0c1.7904358 0 3.5075073 0.7112427 4.773529 1.9772644c1.2660217 1.2660217 1.9772644 2.9830933 1.9772644 4.773529l0 27.00235c0 3.728363 -3.0224304 6.7507935 -6.7507935 6.7507935l-47.852737 0c-3.728363 0 -6.7507935 -3.0224304 -6.7507935 -6.7507935z" fill-rule="evenodd"/><path fill="#ffffff" d="m196.6241 349.1796l0 0c0 -3.728363 3.0224304 -6.7507935 6.7507935 -6.7507935l47.852753 0c1.7904205 0 3.5075073 0.7112427 4.773514 1.9772644c1.2660217 1.2660217 1.9772644 2.9830933 1.9772644 4.773529l0 27.00235c0 3.728363 -3.0224304 6.7507935 -6.750778 6.7507935l-47.852753 0c-3.728363 0 -6.7507935 -3.0224304 -6.7507935 -6.7507935z" fill-rule="evenodd"/><path stroke="#000000" stroke-width="4.0" stroke-linejoin="round" stroke-linecap="butt" d="m196.6241 349.1796l0 0c0 -3.728363 3.0224304 -6.7507935 6.7507935 -6.7507935l47.852753 0c1.7904205 0 3.5075073 0.7112427 4.773514 1.9772644c1.2660217 1.2660217 1.9772644 2.9830933 1.9772644 4.773529l0 27.00235c0 3.728363 -3.0224304 6.7507935 -6.750778 6.7507935l-47.852753 0c-3.728363 0 -6.7507935 -3.0224304 -6.7507935 -6.7507935z" fill-rule="evenodd"/><path fill="#000000" fill-opacity="0.0" d="m185.49625 322.22223l-41.606293 20.220459" fill-rule="evenodd"/><path stroke="#000000" stroke-width="2.0" stroke-linejoin="round" stroke-linecap="butt" d="m185.49625 322.22223l-35.441605 17.224426" fill-rule="evenodd"/><path fill="#000000" stroke="#000000" stroke-width="2.0" stroke-linecap="butt" d="m150.05466 339.44666l1.0397797 -3.0060425l-4.5747986 4.72406l6.5410614 -0.67822266z" fill-rule="evenodd"/><path fill="#000000" fill-opacity="0.0" d="m185.49625 322.22223l41.795273 20.220459" fill-rule="evenodd"/><path stroke="#000000" stroke-width="2.0" stroke-linejoin="round" stroke-linecap="butt" d="m185.49625 322.22223l35.625244 17.235413" fill-rule="evenodd"/><path fill="#000000" stroke="#000000" stroke-width="2.0" stroke-linecap="butt" d="m221.1215 339.45764l-3.0041962 1.0451355l6.5422516 0.66656494l-4.583206 -4.7158813z" fill-rule="evenodd"/><path fill="#000000" fill-opacity="0.0" d="m143.87517 382.93118l41.700775 29.637787" fill-rule="evenodd"/><path stroke="#000000" stroke-width="2.0" stroke-linejoin="round" stroke-linecap="butt" d="m143.87517 382.93118l36.113922 25.667084" fill-rule="evenodd"/><path fill="#000000" stroke="#000000" stroke-width="2.0" stroke-linecap="butt" d="m179.98909 408.59827l-3.1362762 0.53030396l6.3399353 1.7466125l-3.7339935 -5.413208z" fill-rule="evenodd"/><path fill="#000000" fill-opacity="0.0" d="m143.87517 382.93118l-41.16536 29.637787" fill-rule="evenodd"/><path stroke="#000000" stroke-width="2.0" stroke-linejoin="round" stroke-linecap="butt" d="m143.87517 382.93118l-35.602882 25.632996" fill-rule="evenodd"/><path fill="#000000" stroke="#000000" stroke-width="2.0" stroke-linecap="butt" d="m108.272285 408.56418l0.5111389 -3.1394653l-3.7008133 5.435913l6.3291397 -1.7853088z" fill-rule="evenodd"/><path fill="#000000" fill-opacity="0.0" d="m227.30127 382.93274l40.97638 29.637787" fill-rule="evenodd"/><path stroke="#000000" stroke-width="2.0" stroke-linejoin="round" stroke-linecap="butt" d="m227.30127 382.93274l35.422638 25.62085" fill-rule="evenodd"/><path fill="#000000" stroke="#000000" stroke-width="2.0" stroke-linecap="butt" d="m262.7239 408.5536l-3.140564 0.50427246l6.325226 1.7991638l-3.6889343 -5.4440002z" fill-rule="evenodd"/><path fill="#cccccc" d="m181.37184 489.42502l0 -21.88977l-4.2204742 0l8.4409485 -8.4409485l8.440933 8.4409485l-4.2204742 0l0 21.88977z" fill-rule="evenodd"/><path stroke="#000000" stroke-width="4.0" stroke-linejoin="round" stroke-linecap="butt" d="m181.37184 489.42502l0 -21.88977l-4.2204742 0l8.4409485 -8.4409485l8.440933 8.4409485l-4.2204742 0l0 21.88977z" fill-rule="evenodd"/><path fill="#cccccc" d="m236.985 154.29941l0 0c0 -3.728363 3.0224304 -6.7507935 6.7507935 -6.7507935l47.852737 0c1.7904358 0 3.5075073 0.7112427 4.773529 1.9772644c1.2660217 1.2660217 1.9772644 2.9831085 1.9772644 4.773529l0 27.002365c0 3.7283478 -3.0224304 6.750778 -6.7507935 6.750778l-47.852737 0c-3.728363 0 -6.7507935 -3.0224304 -6.7507935 -6.750778z" fill-rule="evenodd"/><path stroke="#000000" stroke-width="4.0" stroke-linejoin="round" stroke-linecap="butt" d="m236.985 154.29941l0 0c0 -3.728363 3.0224304 -6.7507935 6.7507935 -6.7507935l47.852737 0c1.7904358 0 3.5075073 0.7112427 4.773529 1.9772644c1.2660217 1.2660217 1.9772644 2.9831085 1.9772644 4.773529l0 27.002365c0 3.7283478 -3.0224304 6.750778 -6.7507935 6.750778l-47.852737 0c-3.728363 0 -6.7507935 -3.0224304 -6.7507935 -6.750778z" fill-rule="evenodd"/><path fill="#000000" d="m262.63058 167.53308l-0.140625 -0.6875q0.46875 -0.375 0.921875 -0.578125q0.453125 -0.21875 1.0625 -0.3125q0.625 -0.09375 1.59375 -0.09375l6.53125 0l0.078125 1.34375l-2.40625 -0.078125l0.140625 4.984375q0.046875 0.9375 0.3125 1.25q0.28125 0.3125 0.828125 0.3125q0.1875 0 0.40625 -0.046875q0.234375 -0.046875 0.421875 -0.125l0.140625 0.46875q-0.328125 0.5 -0.71875 0.75q-0.375 0.25 -0.9375 0.25q-0.96875 0 -1.4375 -0.5625q-0.453125 -0.578125 -0.453125 -1.734375q0 -1.15625 0.0625 -2.640625q0.078125 -1.484375 0.140625 -2.921875l-3.0 0q-0.015625 1.421875 -0.046875 2.84375q-0.03125 1.40625 -0.125 2.765625q-0.09375 1.203125 -0.578125 1.734375q-0.484375 0.515625 -1.296875 0.515625q-0.5 0 -0.828125 -0.25q-0.3125 -0.265625 -0.3125 -0.6875q0 -0.34375 0.09375 -0.53125q0.109375 -0.203125 0.296875 -0.34375q0.703125 -0.140625 1.640625 -0.234375q0.15625 -1.4375 0.21875 -2.875q0.0625 -1.453125 0.09375 -2.90625l-2.703125 0.390625z" fill-rule="nonzero"/><path fill="#cccccc" d="m263.44656 141.53893l0 -21.889755l-4.220459 0l8.440918 -8.4409485l8.4409485 8.4409485l-4.220459 0l0 21.889755z" fill-rule="evenodd"/><path stroke="#000000" stroke-width="4.0" stroke-linejoin="round" stroke-linecap="butt" d="m263.44656 141.53893l0 -21.889755l-4.220459 0l8.440918 -8.4409485l8.4409485 8.4409485l-4.220459 0l0 21.889755z" fill-rule="evenodd"/><path fill="#000000" fill-opacity="0.0" d="m133.76703 85.414696l20.944885 0" fill-rule="evenodd"/><path stroke="#000000" stroke-width="1.0" stroke-linejoin="round" stroke-linecap="butt" stroke-dasharray="4.0,3.0" d="m133.76703 85.414696l17.517792 0" fill-rule="evenodd"/><path fill="#000000" stroke="#000000" stroke-width="1.0" stroke-linecap="butt" d="m151.28482 85.414696l-1.1245728 1.124588l3.0897675 -1.124588l-3.0897675 -1.1245804z" fill-rule="evenodd"/><path fill="#000000" fill-opacity="0.0" d="m216.05241 85.414696l20.944885 0" fill-rule="evenodd"/><path stroke="#000000" stroke-width="1.0" stroke-linejoin="round" stroke-linecap="butt" stroke-dasharray="4.0,3.0" d="m216.05241 85.414696l17.517792 0" fill-rule="evenodd"/><path fill="#000000" stroke="#000000" stroke-width="1.0" stroke-linecap="butt" d="m233.5702 85.414696l-1.124588 1.124588l3.0897675 -1.124588l-3.0897675 -1.1245804z" fill-rule="evenodd"/><path fill="#000000" fill-opacity="0.0" d="m174.55232 362.67923l22.07875 0" fill-rule="evenodd"/><path stroke="#000000" stroke-width="1.0" stroke-linejoin="round" stroke-linecap="butt" stroke-dasharray="4.0,3.0" d="m174.55232 362.67923l18.651657 0" fill-rule="evenodd"/><path fill="#000000" stroke="#000000" stroke-width="1.0" stroke-linecap="butt" d="m193.20398 362.67923l-1.1245728 1.1245728l3.0897675 -1.1245728l-3.0897675 -1.1246033z" fill-rule="evenodd"/><path fill="#000000" fill-opacity="0.0" d="m133.37796 432.81235l21.543304 0" fill-rule="evenodd"/><path stroke="#000000" stroke-width="1.0" stroke-linejoin="round" stroke-linecap="butt" stroke-dasharray="4.0,3.0" d="m133.37796 432.81235l18.11621 0" fill-rule="evenodd"/><path fill="#000000" stroke="#000000" stroke-width="1.0" stroke-linecap="butt" d="m151.49417 432.81235l-1.124588 1.1245728l3.0897675 -1.1245728l-3.0897675 -1.1246033z" fill-rule="evenodd"/></g></svg>