<svg version="1.1" viewBox="0.0 0.0 922.503937007874 656.6824146981627" fill="none" stroke="none" stroke-linecap="square" stroke-miterlimit="10" xmlns:xlink="http://www.w3.org/1999/xlink" xmlns="http://www.w3.org/2000/svg"><clipPath id="p.0"><path d="m0 0l922.50397 0l0 656.68243l-922.50397 0l0 -656.68243z" clip-rule="nonzero"/></clipPath><g clip-path="url(#p.0)"><path fill="#000000" fill-opacity="0.0" d="m0 0l922.50397 0l0 656.68243l-922.50397 0z" fill-rule="evenodd"/><path fill="#7f6000" d="m327.68503 150.11285l545.1654 0l0 27.59056l-545.1654 0z" fill-rule="evenodd"/><path stroke="#000000" stroke-width="4.0" stroke-linejoin="round" stroke-linecap="butt" d="m327.68503 150.11285l545.1654 0l0 27.59056l-545.1654 0z" fill-rule="evenodd"/><path fill="#efefef" d="m547.0551 33.71212l114.74017 0l0 114.74015l-114.74017 0z" fill-rule="evenodd"/><path stroke="#000000" stroke-width="4.0" stroke-linejoin="round" stroke-linecap="butt" d="m547.0551 33.71212l114.74017 0l0 114.74015l-114.74017 0z" fill-rule="evenodd"/><path fill="#000000" d="m588.4577 115.08219l0 -47.71875l9.15625 0l0 17.1875q4.21875 -4.8125 10.015625 -4.8125q6.3125 0 10.4375 4.578125q4.140625 4.5625 4.140625 13.125q0 8.859375 -4.21875 13.640625q-4.203125 4.78125 -10.234375 4.78125q-2.953125 0 -5.84375 -1.484375q-2.875 -1.484375 -4.953125 -4.375l0 5.078125l-8.5 0zm9.078125 -18.03125q0 5.375 1.703125 7.9375q2.375 3.65625 6.3125 3.65625q3.03125 0 5.15625 -2.59375q2.125 -2.59375 2.125 -8.15625q0 -5.921875 -2.15625 -8.53125q-2.140625 -2.625 -5.484375 -2.625q-3.296875 0 -5.484375 2.5625q-2.171875 2.546875 -2.171875 7.75z" fill-rule="nonzero"/><path fill="#efefef" d="m374.70734 33.71221l114.74017 0l0 114.74015l-114.74017 0z" fill-rule="evenodd"/><path stroke="#000000" stroke-width="4.0" stroke-linejoin="round" stroke-linecap="butt" d="m374.70734 33.71221l114.74017 0l0 114.74015l-114.74017 0z" fill-rule="evenodd"/><path fill="#000000" d="m425.1669 91.06666l-8.3125 -1.5q1.40625 -5.015625 4.8125 -7.421875q3.421875 -2.40625 10.171875 -2.40625q6.109375 0 9.109375 1.453125q3.0 1.4375 4.21875 3.671875q1.21875 2.234375 1.21875 8.1875l-0.09375 10.671875q0 4.5625 0.4375 6.734375q0.4375 2.15625 1.640625 4.625l-9.046875 0q-0.359375 -0.90625 -0.875 -2.703125q-0.234375 -0.8125 -0.328125 -1.078125q-2.34375 2.28125 -5.015625 3.421875q-2.671875 1.140625 -5.703125 1.140625q-5.328125 0 -8.40625 -2.890625q-3.078125 -2.90625 -3.078125 -7.328125q0 -2.9375 1.390625 -5.21875q1.40625 -2.296875 3.921875 -3.515625q2.53125 -1.21875 7.28125 -2.140625q6.421875 -1.203125 8.890625 -2.25l0 -0.90625q0 -2.640625 -1.3125 -3.75q-1.296875 -1.125 -4.90625 -1.125q-2.4375 0 -3.8125 0.96875q-1.359375 0.953125 -2.203125 3.359375zm12.234375 7.421875q-1.765625 0.578125 -5.578125 1.390625q-3.796875 0.8125 -4.96875 1.59375q-1.796875 1.28125 -1.796875 3.234375q0 1.90625 1.4375 3.3125q1.4375 1.40625 3.640625 1.40625q2.484375 0 4.71875 -1.640625q1.671875 -1.234375 2.1875 -3.015625q0.359375 -1.171875 0.359375 -4.46875l0 -1.8125z" fill-rule="nonzero"/><path fill="#efefef" d="m710.93475 33.711437l114.74011 0l0 114.74016l-114.74011 0z" fill-rule="evenodd"/><path stroke="#000000" stroke-width="4.0" stroke-linejoin="round" stroke-linecap="butt" d="m710.93475 33.711437l114.74011 0l0 114.74016l-114.74011 0z" fill-rule="evenodd"/><path fill="#000000" d="m784.69116 90.73776l-9.015625 1.625q-0.453125 -2.703125 -2.0625 -4.0625q-1.609375 -1.375 -4.1875 -1.375q-3.421875 0 -5.453125 2.359375q-2.03125 2.359375 -2.03125 7.890625q0 6.15625 2.0625 8.703125q2.078125 2.53125 5.546875 2.53125q2.609375 0 4.265625 -1.484375q1.671875 -1.484375 2.34375 -5.09375l8.984375 1.53125q-1.390625 6.1875 -5.375 9.34375q-3.96875 3.15625 -10.640625 3.15625q-7.578125 0 -12.09375 -4.78125q-4.5 -4.78125 -4.5 -13.25q0 -8.5625 4.515625 -13.328125q4.53125 -4.765625 12.25 -4.765625q6.3125 0 10.03125 2.71875q3.734375 2.71875 5.359375 8.28125z" fill-rule="nonzero"/><path fill="#7f6000" d="m327.68503 580.38055l205.63779 0l0 27.590576l-205.63779 0z" fill-rule="evenodd"/><path stroke="#000000" stroke-width="4.0" stroke-linejoin="round" stroke-linecap="butt" d="m327.68503 580.38055l205.63779 0l0 27.590576l-205.63779 0z" fill-rule="evenodd"/><path fill="#efefef" d="m374.70865 347.57825l114.74017 0l0 114.74017l-114.74017 0z" fill-rule="evenodd"/><path stroke="#000000" stroke-width="4.0" stroke-linejoin="round" stroke-linecap="butt" d="m374.70865 347.57825l114.74017 0l0 114.74017l-114.74017 0z" fill-rule="evenodd"/><path fill="#000000" d="m416.1112 428.94833l0 -47.71875l9.15625 0l0 17.1875q4.21875 -4.8125 10.015625 -4.8125q6.3125 0 10.4375 4.578125q4.140625 4.5625 4.140625 13.125q0 8.859375 -4.21875 13.640625q-4.203125 4.78125 -10.234375 4.78125q-2.953125 0 -5.84375 -1.484375q-2.875 -1.484375 -4.953125 -4.375l0 5.078125l-8.5 0zm9.078125 -18.03125q0 5.375 1.703125 7.9375q2.375 3.65625 6.3125 3.65625q3.03125 0 5.15625 -2.59375q2.125 -2.59375 2.125 -8.15625q0 -5.921875 -2.15625 -8.53125q-2.140625 -2.625 -5.484375 -2.625q-3.296875 0 -5.484375 2.5625q-2.171875 2.546875 -2.171875 7.75z" fill-rule="nonzero"/><path fill="#efefef" d="m374.70734 463.97992l114.74017 0l0 114.74017l-114.74017 0z" fill-rule="evenodd"/><path stroke="#000000" stroke-width="4.0" stroke-linejoin="round" stroke-linecap="butt" d="m374.70734 463.97992l114.74017 0l0 114.74017l-114.74017 0z" fill-rule="evenodd"/><path fill="#000000" d="m425.1669 521.33435l-8.3125 -1.5q1.40625 -5.015625 4.8125 -7.421875q3.421875 -2.4062195 10.171875 -2.4062195q6.109375 0 9.109375 1.453125q3.0 1.4374695 4.21875 3.6718445q1.21875 2.234375 1.21875 8.1875l-0.09375 10.671875q0 4.5625 0.4375 6.734375q0.4375 2.15625 1.640625 4.625l-9.046875 0q-0.359375 -0.90625 -0.875 -2.703125q-0.234375 -0.8125 -0.328125 -1.078125q-2.34375 2.28125 -5.015625 3.421875q-2.671875 1.140625 -5.703125 1.140625q-5.328125 0 -8.40625 -2.890625q-3.078125 -2.90625 -3.078125 -7.328125q0 -2.9375 1.390625 -5.21875q1.40625 -2.296875 3.921875 -3.515625q2.53125 -1.21875 7.28125 -2.140625q6.421875 -1.203125 8.890625 -2.25l0 -0.90625q0 -2.640625 -1.3125 -3.75q-1.296875 -1.125 -4.90625 -1.125q-2.4375 0 -3.8125 0.96875q-1.359375 0.953125 -2.203125 3.359375zm12.234375 7.421875q-1.765625 0.578125 -5.578125 1.390625q-3.796875 0.8125 -4.96875 1.59375q-1.796875 1.28125 -1.796875 3.234375q0 1.90625 1.4375 3.3125q1.4375 1.40625 3.640625 1.40625q2.484375 0 4.71875 -1.640625q1.671875 -1.234375 2.1875 -3.015625q0.359375 -1.171875 0.359375 -4.46875l0 -1.8125z" fill-rule="nonzero"/><path fill="#efefef" d="m374.709 231.17601l114.74014 0l0 114.74016l-114.74014 0z" fill-rule="evenodd"/><path stroke="#000000" stroke-width="4.0" stroke-linejoin="round" stroke-linecap="butt" d="m374.709 231.17601l114.74014 0l0 114.74016l-114.74014 0z" fill-rule="evenodd"/><path fill="#000000" d="m448.46545 288.20233l-9.015625 1.625q-0.453125 -2.703125 -2.0625 -4.0625q-1.609375 -1.375 -4.1875 -1.375q-3.421875 0 -5.453125 2.359375q-2.03125 2.359375 -2.03125 7.890625q0 6.15625 2.0625 8.703125q2.078125 2.53125 5.546875 2.53125q2.609375 0 4.265625 -1.484375q1.671875 -1.484375 2.34375 -5.09375l8.984375 1.53125q-1.390625 6.1875 -5.375 9.34375q-3.96875 3.15625 -10.640625 3.15625q-7.578125 0 -12.09375 -4.78125q-4.5 -4.78125 -4.5 -13.25q0 -8.5625 4.515625 -13.328125q4.53125 -4.765625 12.25 -4.765625q6.3125 0 10.03125 2.71875q3.734375 2.71875 5.359375 8.28125z" fill-rule="nonzero"/><path fill="#00ffff" d="m4.4724407 117.72441l312.6299 0l0 82.4252l-312.6299 0z" fill-rule="evenodd"/><path fill="#000000" d="m25.653608 176.64441l0 -37.21875l7.515627 0l0 37.21875l-7.515627 0zm39.15039 0l-7.140625 0l0 -13.765625q0 -4.359375 -0.453125 -5.640625q-0.453125 -1.28125 -1.484375 -1.984375q-1.03125 -0.71875 -2.484375 -0.71875q-1.84375 0 -3.328125 1.015625q-1.46875 1.015625 -2.015625 2.6875q-0.546875 1.671875 -0.546875 6.1875l0 12.21875l-7.125 0l0 -26.96875l6.625 0l0 3.96875q3.53125 -4.578125 8.890625 -4.578125q2.359375 0 4.3125 0.859375q1.953125 0.84375 2.953125 2.171875q1.0 1.3125 1.390625 3.0q0.40625 1.671875 0.40625 4.78125l0 16.765625zm7.232422 -30.625l0 -6.59375l7.140625 0l0 6.59375l-7.140625 0zm0 30.625l0 -26.96875l7.140625 0l0 26.96875l-7.140625 0zm26.80664 -26.96875l0 5.6875l-4.875 0l0 10.875q0 3.296875 0.140625 3.84375q0.140625 0.546875 0.640625 0.90625q0.5 0.34375 1.203125 0.34375q0.984375 0 2.875 -0.6875l0.609375 5.546875q-2.5 1.0625 -5.640625 1.0625q-1.9375 0 -3.484375 -0.640625q-1.546875 -0.65625 -2.265625 -1.6875q-0.71875 -1.03125 -1.0 -2.78125q-0.234375 -1.234375 -0.234375 -5.015625l0 -11.765625l-3.28125 0l0 -5.6875l3.28125 0l0 -5.359375l7.15625 -4.15625l0 9.515625l4.875 0zm4.9570312 -3.65625l0 -6.59375l7.140625 0l0 6.59375l-7.140625 0zm0 30.625l0 -26.96875l7.140625 0l0 26.96875l-7.140625 0zm19.77539 -18.734375l-6.46875 -1.171875q1.09375 -3.90625 3.75 -5.78125q2.671875 -1.890625 7.921875 -1.890625q4.78125 0 7.109375 1.140625q2.34375 1.125 3.296875 2.859375q0.953125 1.734375 0.953125 6.390625l-0.078125 8.328125q0 3.546875 0.34375 5.234375q0.34375 1.6875 1.28125 3.625l-7.0625 0q-0.28125 -0.71875 -0.6875 -2.109375q-0.171875 -0.640625 -0.25 -0.84375q-1.828125 1.78125 -3.921875 2.671875q-2.078125 0.890625 -4.4375 0.890625q-4.15625 0 -6.5625 -2.25q-2.390625 -2.265625 -2.390625 -5.71875q0 -2.296875 1.078125 -4.078125q1.09375 -1.796875 3.0625 -2.75q1.96875 -0.953125 5.6875 -1.65625q5.0 -0.9375 6.921875 -1.75l0 -0.71875q0 -2.046875 -1.015625 -2.921875q-1.015625 -0.875 -3.828125 -0.875q-1.90625 0 -2.984375 0.75q-1.0625 0.734375 -1.71875 2.625zm9.546875 5.78125q-1.375 0.453125 -4.34375 1.09375q-2.96875 0.640625 -3.875 1.25q-1.40625 0.984375 -1.40625 2.515625q0 1.484375 1.109375 2.578125q1.125 1.09375 2.859375 1.09375q1.921875 0 3.671875 -1.265625q1.296875 -0.96875 1.703125 -2.359375q0.28125 -0.921875 0.28125 -3.484375l0 -1.421875zm14.044922 12.953125l0 -37.21875l7.140625 0l0 37.21875l-7.140625 0zm27.035156 -12.109375l7.3125 -0.71875q0.671875 3.6875 2.6875 5.421875q2.015625 1.71875 5.4375 1.71875q3.640625 0 5.46875 -1.53125q1.84375 -1.546875 1.84375 -3.59375q0 -1.328125 -0.78125 -2.25q-0.765625 -0.921875 -2.6875 -1.609375q-1.328125 -0.46875 -6.015625 -1.625q-6.046875 -1.5 -8.484375 -3.6875q-3.4375 -3.078125 -3.4375 -7.484375q0 -2.84375 1.609375 -5.3125q1.625 -2.484375 4.65625 -3.78125q3.03125 -1.296875 7.328125 -1.296875q7.0 0 10.546875 3.078125q3.546875 3.0625 3.71875 8.203125l-7.515625 0.328125q-0.484375 -2.875 -2.078125 -4.125q-1.578125 -1.265625 -4.75 -1.265625q-3.28125 0 -5.125 1.34375q-1.203125 0.875 -1.203125 2.3125q0 1.328125 1.125 2.265625q1.421875 1.1875 6.90625 2.484375q5.484375 1.296875 8.109375 2.6875q2.625 1.375 4.109375 3.78125q1.484375 2.390625 1.484375 5.921875q0 3.203125 -1.78125 6.0q-1.765625 2.78125 -5.015625 4.140625q-3.25 1.359375 -8.109375 1.359375q-7.046875 0 -10.84375 -3.25q-3.78125 -3.265625 -4.515625 -9.515625zm48.902344 -14.859375l0 5.6875l-4.875 0l0 10.875q0 3.296875 0.140625 3.84375q0.140625 0.546875 0.640625 0.90625q0.5 0.34375 1.203125 0.34375q0.984375 0 2.875 -0.6875l0.609375 5.546875q-2.5 1.0625 -5.640625 1.0625q-1.9375 0 -3.484375 -0.640625q-1.546875 -0.65625 -2.265625 -1.6875q-0.71875 -1.03125 -1.0 -2.78125q-0.234375 -1.234375 -0.234375 -5.015625l0 -11.765625l-3.28125 0l0 -5.6875l3.28125 0l0 -5.359375l7.15625 -4.15625l0 9.515625l4.875 0zm10.285156 8.234375l-6.46875 -1.171875q1.09375 -3.90625 3.75 -5.78125q2.671875 -1.890625 7.921875 -1.890625q4.78125 0 7.109375 1.140625q2.34375 1.125 3.296875 2.859375q0.953125 1.734375 0.953125 6.390625l-0.078125 8.328125q0 3.546875 0.34375 5.234375q0.34375 1.6875 1.28125 3.625l-7.0625 0q-0.28125 -0.71875 -0.6875 -2.109375q-0.171875 -0.640625 -0.25 -0.84375q-1.828125 1.78125 -3.921875 2.671875q-2.078125 0.890625 -4.4375 0.890625q-4.15625 0 -6.5625 -2.25q-2.390625 -2.265625 -2.390625 -5.71875q0 -2.296875 1.078125 -4.078125q1.09375 -1.796875 3.0625 -2.75q1.96875 -0.953125 5.6875 -1.65625q5.0 -0.9375 6.921875 -1.75l0 -0.71875q0 -2.046875 -1.015625 -2.921875q-1.015625 -0.875 -3.828125 -0.875q-1.90625 0 -2.984375 0.75q-1.0625 0.734375 -1.71875 2.625zm9.546875 5.78125q-1.375 0.453125 -4.34375 1.09375q-2.96875 0.640625 -3.875 1.25q-1.40625 0.984375 -1.40625 2.515625q0 1.484375 1.109375 2.578125q1.125 1.09375 2.859375 1.09375q1.921875 0 3.671875 -1.265625q1.296875 -0.96875 1.703125 -2.359375q0.28125 -0.921875 0.28125 -3.484375l0 -1.421875zm26.404282 -14.015625l0 5.6875l-4.875 0l0 10.875q0 3.296875 0.140625 3.84375q0.140625 0.546875 0.640625 0.90625q0.5 0.34375 1.203125 0.34375q0.984375 0 2.875 -0.6875l0.609375 5.546875q-2.5 1.0625 -5.640625 1.0625q-1.9375 0 -3.484375 -0.640625q-1.546875 -0.65625 -2.265625 -1.6875q-0.71875 -1.03125 -1.0 -2.78125q-0.234375 -1.234375 -0.234375 -5.015625l0 -11.765625l-3.2812347 0l0 -5.6875l3.2812347 0l0 -5.359375l7.15625 -4.15625l0 9.515625l4.875 0zm20.566406 18.390625l7.109375 1.1875q-1.359375 3.90625 -4.328125 5.953125q-2.953125 2.046875 -7.390625 2.046875q-7.046875 0 -10.421875 -4.59375q-2.65625 -3.6875 -2.65625 -9.296875q0 -6.703125 3.5 -10.5q3.5 -3.796875 8.859375 -3.796875q6.015625 0 9.484375 3.984375q3.484375 3.96875 3.34375 12.171875l-17.875 0q0.078125 3.171875 1.71875 4.9375q1.65625 1.765625 4.109375 1.765625q1.6875 0 2.828125 -0.90625q1.140625 -0.921875 1.71875 -2.953125zm0.40625 -7.21875q-0.078125 -3.09375 -1.609375 -4.703125q-1.515625 -1.609375 -3.6875 -1.609375q-2.34375 0 -3.859375 1.6875q-1.53125 1.703125 -1.5 4.625l10.65625 0z" fill-rule="nonzero"/><path fill="#ffff00" d="m4.4724407 548.0289l312.6299 0l0 82.42517l-312.6299 0z" fill-rule="evenodd"/><path fill="#000000" d="m53.29033 593.26135l0 -6.265625l16.203125 0l0 14.828125q-2.359375 2.28125 -6.84375 4.03125q-4.484375 1.734375 -9.078125 1.734375q-5.828125 0 -10.171875 -2.453125q-4.34375 -2.453125 -6.53125 -7.0q-2.1875 -4.5625 -2.1875 -9.921875q0 -5.8125 2.4375 -10.328125q2.4375 -4.53125 7.140625 -6.9375q3.578125 -1.859375 8.90625 -1.859375q6.9375 0 10.828125 2.90625q3.90625 2.90625 5.015625 8.03125l-7.453125 1.40625q-0.796875 -2.75 -2.96875 -4.328125q-2.171875 -1.59375 -5.421875 -1.59375q-4.921875 0 -7.828125 3.125q-2.90625 3.125 -2.90625 9.265625q0 6.625 2.9375 9.9375q2.953125 3.3125 7.71875 3.3125q2.375 0 4.734375 -0.921875q2.375 -0.921875 4.078125 -2.25l0 -4.71875l-8.609375 0zm21.43164 -0.171875q0 -3.5625 1.75 -6.890625q1.765625 -3.328125 4.96875 -5.078125q3.21875 -1.75 7.171875 -1.75q6.125 0 10.03125 3.984375q3.90625 3.96875 3.90625 10.03125q0 6.125 -3.953125 10.15625q-3.9375 4.015625 -9.9375 4.015625q-3.703125 0 -7.0625 -1.671875q-3.359375 -1.6875 -5.125 -4.921875q-1.75 -3.234375 -1.75 -7.875zm7.3125 0.375q0 4.015625 1.90625 6.15625q1.90625 2.125 4.703125 2.125q2.796875 0 4.6875 -2.125q1.890625 -2.140625 1.890625 -6.203125q0 -3.96875 -1.890625 -6.09375q-1.890625 -2.140625 -4.6875 -2.140625q-2.796875 0 -4.703125 2.140625q-1.90625 2.125 -1.90625 6.140625zm31.435547 -5.25l-6.46875 -1.171875q1.09375 -3.90625 3.75 -5.78125q2.671875 -1.890625 7.921875 -1.890625q4.78125 0 7.109375 1.140625q2.34375 1.125 3.296875 2.859375q0.953125 1.734375 0.953125 6.390625l-0.078125 8.328125q0 3.546875 0.34375 5.234375q0.34375 1.6875 1.28125 3.625l-7.0625 0q-0.28125 -0.71875 -0.6875 -2.109375q-0.171875 -0.640625 -0.25 -0.84375q-1.828125 1.78125 -3.921875 2.671875q-2.078125 0.890625 -4.4375 0.890625q-4.15625 0 -6.5625 -2.25q-2.390625 -2.265625 -2.390625 -5.71875q0 -2.296875 1.078125 -4.078125q1.09375 -1.796875 3.0625 -2.75q1.96875 -0.953125 5.6875 -1.65625q5.0 -0.9375 6.921875 -1.75l0 -0.71875q0 -2.046875 -1.015625 -2.921875q-1.015625 -0.875 -3.828125 -0.875q-1.90625 0 -2.984375 0.75q-1.0625 0.734375 -1.71875 2.625zm9.546875 5.78125q-1.375 0.453125 -4.34375 1.09375q-2.96875 0.640625 -3.875 1.25q-1.40625 0.984375 -1.40625 2.515625q0 1.484375 1.109375 2.578125q1.125 1.09375 2.859375 1.09375q1.921875 0 3.671875 -1.265625q1.296875 -0.96875 1.703125 -2.359375q0.28125 -0.921875 0.28125 -3.484375l0 -1.421875zm14.044922 12.953125l0 -37.21875l7.140625 0l0 37.21875l-7.140625 0zm27.035156 -12.109375l7.3125 -0.71875q0.671875 3.6875 2.6875 5.421875q2.015625 1.71875 5.4375 1.71875q3.640625 0 5.46875 -1.53125q1.84375 -1.546875 1.84375 -3.59375q0 -1.328125 -0.78125 -2.25q-0.765625 -0.921875 -2.6875 -1.609375q-1.328125 -0.46875 -6.015625 -1.625q-6.046875 -1.5 -8.484375 -3.6875q-3.4375 -3.078125 -3.4375 -7.484375q0 -2.84375 1.609375 -5.3125q1.625 -2.484375 4.65625 -3.78125q3.03125 -1.296875 7.328125 -1.296875q7.0 0 10.546875 3.078125q3.546875 3.0625 3.71875 8.203125l-7.515625 0.328125q-0.484375 -2.875 -2.078125 -4.125q-1.578125 -1.265625 -4.75 -1.265625q-3.28125 0 -5.125 1.34375q-1.203125 0.875 -1.203125 2.3125q0 1.328125 1.125 2.265625q1.421875 1.1875 6.90625 2.484375q5.484375 1.296875 8.109375 2.6875q2.625 1.375 4.109375 3.78125q1.484375 2.390625 1.484375 5.921875q0 3.203125 -1.78125 6.0q-1.765625 2.78125 -5.015625 4.140625q-3.25 1.359375 -8.109375 1.359375q-7.046875 0 -10.84375 -3.25q-3.78125 -3.265625 -4.515625 -9.515625zm48.902344 -14.859375l0 5.6875l-4.875 0l0 10.875q0 3.296875 0.140625 3.84375q0.140625 0.546875 0.640625 0.90625q0.5 0.34375 1.203125 0.34375q0.984375 0 2.875 -0.6875l0.609375 5.546875q-2.5 1.0625 -5.640625 1.0625q-1.9375 0 -3.484375 -0.640625q-1.546875 -0.65625 -2.265625 -1.6875q-0.71875 -1.03125 -1.0 -2.78125q-0.234375 -1.234375 -0.234375 -5.015625l0 -11.765625l-3.28125 0l0 -5.6875l3.28125 0l0 -5.359375l7.15625 -4.15625l0 9.515625l4.875 0zm10.285156 8.234375l-6.46875 -1.171875q1.09375 -3.90625 3.75 -5.78125q2.671875 -1.890625 7.921875 -1.890625q4.78125 0 7.109375 1.140625q2.34375 1.125 3.296875 2.859375q0.953125 1.734375 0.953125 6.390625l-0.078125 8.328125q0 3.546875 0.34375 5.234375q0.34375 1.6875 1.28125 3.625l-7.0625 0q-0.28125 -0.71875 -0.6875 -2.109375q-0.171875 -0.640625 -0.25 -0.84375q-1.828125 1.78125 -3.921875 2.671875q-2.078125 0.890625 -4.4375 0.890625q-4.15625 0 -6.5625 -2.25q-2.390625 -2.265625 -2.390625 -5.71875q0 -2.296875 1.078125 -4.078125q1.09375 -1.796875 3.0625 -2.75q1.96875 -0.953125 5.6875 -1.65625q5.0 -0.9375 6.921875 -1.75l0 -0.71875q0 -2.046875 -1.015625 -2.921875q-1.015625 -0.875 -3.828125 -0.875q-1.90625 0 -2.984375 0.75q-1.0625 0.734375 -1.71875 2.625zm9.546875 5.78125q-1.375 0.453125 -4.34375 1.09375q-2.96875 0.640625 -3.875 1.25q-1.40625 0.984375 -1.40625 2.515625q0 1.484375 1.109375 2.578125q1.125 1.09375 2.859375 1.09375q1.921875 0 3.671875 -1.265625q1.296875 -0.96875 1.703125 -2.359375q0.28125 -0.921875 0.28125 -3.484375l0 -1.421875zm26.404282 -14.015625l0 5.6875l-4.8749847 0l0 10.875q0 3.296875 0.140625 3.84375q0.140625 0.546875 0.640625 0.90625q0.5 0.34375 1.2031097 0.34375q0.984375 0 2.875 -0.6875l0.609375 5.546875q-2.5 1.0625 -5.6406097 1.0625q-1.9375 0 -3.484375 -0.640625q-1.546875 -0.65625 -2.265625 -1.6875q-0.71875 -1.03125 -1.0 -2.78125q-0.234375 -1.234375 -0.234375 -5.015625l0 -11.765625l-3.28125 0l0 -5.6875l3.28125 0l0 -5.359375l7.15625 -4.15625l0 9.515625l4.8749847 0zm20.566406 18.390625l7.109375 1.1875q-1.359375 3.90625 -4.328125 5.953125q-2.953125 2.046875 -7.390625 2.046875q-7.046875 0 -10.421875 -4.59375q-2.65625 -3.6875 -2.65625 -9.296875q0 -6.703125 3.5 -10.5q3.5 -3.796875 8.859375 -3.796875q6.015625 0 9.484375 3.984375q3.484375 3.96875 3.34375 12.171875l-17.875 0q0.078125 3.171875 1.71875 4.9375q1.65625 1.765625 4.109375 1.765625q1.6875 0 2.828125 -0.90625q1.140625 -0.921875 1.71875 -2.953125zm0.40625 -7.21875q-0.078125 -3.09375 -1.609375 -4.703125q-1.515625 -1.609375 -3.6875 -1.609375q-2.34375 0 -3.859375 1.6875q-1.53125 1.703125 -1.5 4.625l10.65625 0z" fill-rule="nonzero"/></g></svg>